<?xml version="1.0" encoding="UTF-8"?>
<!--
Copyright (C) 2018 HanziVG repository contributors
This work makes an extensive use of kanjiVG Copyright (C) 2009/2010/2011 Ulrich Apel
and AnimHanzi Copyright (C) 2016 François Mizessyn.
This work is distributed under the conditions of the Creative Commons
Attribution-Share Alike 3.0 Licence. This means you are free:
* to Share - to copy, distribute and transmit the work
* to Remix - to adapt the work

Under the following conditions:
* Attribution. You must attribute the work by stating your use of HanziVG in
  your own copyright header and linking to animHanzi's website
  (https://github.com/Connum/HanziVG)
* Attribution. You must attribute the work by stating your use of animHanzi in
  your own copyright header and linking to animHanzi's website
  (http://gooo.free.fr/animHanzi/)
* Attribution. You must attribute the work by stating your use of KanjiVG in
  your own copyright header and linking to KanjiVG's website
  (http://kanjivg.tagaini.net)
* Share Alike. If you alter, transform, or build upon this work, you may
  distribute the resulting work only under the same or similar license to this
  one.

See http://creativecommons.org/licenses/by-sa/3.0/ for more details.
-->
<!DOCTYPE svg PUBLIC "-//W3C//DTD SVG 1.0//EN" "http://www.w3.org/TR/2001/REC-SVG-20010904/DTD/svg10.dtd" [
<!ATTLIST g
xmlns:kvg CDATA #FIXED "http://kanjivg.tagaini.net"
kvg:element CDATA #IMPLIED
kvg:variant CDATA #IMPLIED
kvg:partial CDATA #IMPLIED
kvg:original CDATA #IMPLIED
kvg:part CDATA #IMPLIED
kvg:number CDATA #IMPLIED
kvg:tradForm CDATA #IMPLIED
kvg:radicalForm CDATA #IMPLIED
kvg:position CDATA #IMPLIED
kvg:radical CDATA #IMPLIED
kvg:phon CDATA #IMPLIED >
<!ATTLIST path
xmlns:kvg CDATA #FIXED "http://kanjivg.tagaini.net"
kvg:type CDATA #IMPLIED >
]>
<svg xmlns="http://www.w3.org/2000/svg" width="109" height="109" viewBox="0 0 109 109">
<g id="hvg:StrokePaths_04eae" style="fill:none;stroke:#000000;stroke-width:3;stroke-linecap:round;stroke-linejoin:round;">
<g kvg:element="亮" id="hvg:04eae">
	<g kvg:radical="general" kvg:position="top" kvg:element="亠" id="hvg:04eae-g1">
		<path d="M48.84,9.75c2.83,1.18,6.12,4.31,7.48,8.11" kvg:type="㇔" id="hvg:04eae-s1"/>
		<path d="M23.78,25.78c1.5,0.29,2.83,0.61,4.56,0.4c10.3-1.21,39.64-3.96,51.65-4.55c1.76-0.09,2.67,0.03,3.98,0.51" kvg:type="㇐" id="hvg:04eae-s2"/>
	</g>
	<g kvg:position="bottom" id="hvg:04eae-g2">
		<g kvg:element="口" id="hvg:04eae-g3">
			<path d="M35.12,34.73c0.3,0.26,0.61,0.47,0.74,0.8c1.04,2.56,2.28,9.6,3,14.19" kvg:type="㇑" id="hvg:04eae-s3"/>
			<path d="M36.99,36.1c7.34-1.07,27.7-3.48,31.48-3.84c1.39-0.13,2.22,1.33,2.02,2.11c-0.82,3.22-1.76,5.99-3.52,10.63" kvg:type="㇕b" id="hvg:04eae-s4"/>
			<path d="M39.15,48.02c4.45-0.41,23.56-2.21,29.21-2.62" kvg:type="㇐b" id="hvg:04eae-s5"/>
		</g>
		<g kvg:element="冖" id="hvg:04eae-g4">
			<path d="M19.23,55.49c-0.15,3.79-3.71,13.7-4.98,15.96" kvg:type="㇔" id="hvg:04eae-s6"/>
			<path d="M21.23,59.44c8.52-0.19,46.9-5.15,64.14-5.15c11.72,0,3.7,5.59-0.67,9.24" kvg:type="㇖b" id="hvg:04eae-s7"/>
		</g>
		<g kvg:original="八" kvg:variant="true" kvg:element="儿" id="hvg:04eae-g5">
			<g kvg:position="left" kvg:element="丿" id="hvg:04eae-g6">
				<path d="M42.74,65.25c0.07,0.82,0.16,2.12-0.15,3.3c-1.79,6.97-11.25,23.58-26.18,31.61" kvg:type="㇒" id="hvg:04eae-s8"/>
			</g>
			<g kvg:position="right" id="hvg:04eae-g7">
				<path d="m 44.223517,65.584746 c 0,0 11.084746,-0.808263 14.224873,-2.348369 C 59.286398,64.442797 59.5,65.07 59.54,66.81 c 0.19,7.75 0,15.28 0,20.55 0,12.31 5.93,10.92 14.23,10.92 8.76,0 13.02,-1.59 14.25,-2.48 2.61,-1.89 1.89,-2.84 2.13,-6.16" id="hvg:04eae-s9" kvg:type="㇈"/>
			</g>
		</g>
	</g>
</g>
</g>
<g style="font-size:8;fill:#808080" id="hvg:StrokeNumbers_04eae">
	<text transform="matrix(1 0 0 1 42.25 10.38)">1</text>
	<text transform="matrix(1 0 0 1 17.00 24.30)">2</text>
	<text transform="matrix(1 0 0 1 28.25 41.25)">3</text>
	<text transform="matrix(1 0 0 1 38.25 33.25)">4</text>
	<text transform="matrix(1 0 0 1 42.25 45.25)">5</text>
	<text transform="matrix(1 0 0 1 12.25 58.25)">6</text>
	<text transform="matrix(1 0 0 1 23.25 56.25)">7</text>
	<text transform="matrix(1 0 0 1 34.00 68.25)">8</text>
	<text transform="matrix(1 0 0 1 51.25 69.25)">9</text>
</g>
</svg>
