<?xml version="1.0" encoding="UTF-8"?>
<!--
Copyright (C) 2018 HanziVG repository contributors
This work makes an extensive use of kanjiVG Copyright (C) 2009/2010/2011 Ulrich Apel
and AnimHanzi Copyright (C) 2016 François Mizessyn.
This work is distributed under the conditions of the Creative Commons
Attribution-Share Alike 3.0 Licence. This means you are free:
* to Share - to copy, distribute and transmit the work
* to Remix - to adapt the work

Under the following conditions:
* Attribution. You must attribute the work by stating your use of HanziVG in
  your own copyright header and linking to animHanzi's website
  (https://github.com/Connum/HanziVG)
* Attribution. You must attribute the work by stating your use of animHanzi in
  your own copyright header and linking to animHanzi's website
  (http://gooo.free.fr/animHanzi/)
* Attribution. You must attribute the work by stating your use of KanjiVG in
  your own copyright header and linking to KanjiVG's website
  (http://kanjivg.tagaini.net)
* Share Alike. If you alter, transform, or build upon this work, you may
  distribute the resulting work only under the same or similar license to this
  one.

See http://creativecommons.org/licenses/by-sa/3.0/ for more details.
-->
<!DOCTYPE svg PUBLIC "-//W3C//DTD SVG 1.0//EN" "http://www.w3.org/TR/2001/REC-SVG-20010904/DTD/svg10.dtd" [
<!ATTLIST g
xmlns:kvg CDATA #FIXED "http://kanjivg.tagaini.net"
kvg:element CDATA #IMPLIED
kvg:variant CDATA #IMPLIED
kvg:partial CDATA #IMPLIED
kvg:original CDATA #IMPLIED
kvg:part CDATA #IMPLIED
kvg:number CDATA #IMPLIED
kvg:tradForm CDATA #IMPLIED
kvg:radicalForm CDATA #IMPLIED
kvg:position CDATA #IMPLIED
kvg:radical CDATA #IMPLIED
kvg:phon CDATA #IMPLIED >
<!ATTLIST path
xmlns:kvg CDATA #FIXED "http://kanjivg.tagaini.net"
kvg:type CDATA #IMPLIED >
]>
<svg xmlns="http://www.w3.org/2000/svg" width="109" height="109" viewBox="0 0 109 109">
<g style="fill:none;stroke:#000000;stroke-width:3;stroke-linecap:round;stroke-linejoin:round;" id="hvg:StrokePaths_05174">
<g kvg:element="兴" id="hvg:05174">
	<g kvg:position="top" kvg:original="つ" kvg:element="⺍" id="hvg:05174-g1">
		<path d="m 24.114924,31.051036 c 4.520475,2.524482 10.154125,6.569915 12.870356,11.669558" kvg:type="㇔" id="hvg:05174-s1"/>
		<path d="m 42.636944,22.201749 c 8.305399,4.430119 9.836825,7.695789 11.883294,11.276858" kvg:type="㇔" id="hvg:05174-s2"/>
		<path d="m 74.113565,19.815518 c 0.81,1.22 -0.28,4.88 -0.28,4.88 -2.386944,5.366587 -10.697657,20.386825 -15.617776,28.592937" kvg:type="㇒" id="hvg:05174-s3"/>
	</g>
	<path d="m 12.846825,58.167894 c 2.26,0.74 6.41,0.99 8.65,0.74 15.72,-1.72 47.22,-6.16 66.07,-6.83 3.76,-0.13 6.02,0.35 7.9,0.73" kvg:type="㇐" id="hvg:05174-s4"/>
	<g kvg:radical="general" kvg:position="bottom" kvg:element="八" id="hvg:05174-g2">
		<path d="m 41.346825,66.588013 c 0.05,0.57 0.11,1.46 -0.1,2.28 -1.27,4.8 -9.65,13.33 -18.59,21.05" kvg:type="㇒" id="hvg:05174-s5"/>
		<path d="m 62.78472,65.435076 c 6.99,4.25 18.06,17.48 19.81,24.09" kvg:type="㇔" id="hvg:05174-s6"/>
	</g>
</g>
</g>
<g style="font-size:8;fill:#808080" id="hvg:StrokeNumbers_05174">
	<text y="29.338099" x="17.297623">1</text>
	<text y="20.562105" x="34.826588">2</text>
	<text y="16.316469" x="72.315079">3</text>
	<text y="59.603649" x="5.1734123">4</text>
	<text y="66.008728" x="34.949406">5</text>
	<text y="65.518845" x="55.397419">6</text>
</g>
</svg>
