<?xml version="1.0" encoding="UTF-8"?>
<!--
Copyright (C) 2020 HanziVG repository contributors
This work makes an extensive use of kanjiVG Copyright (C) 2009/2010/2011 Ulrich Apel
and AnimHanzi Copyright (C) 2016 François Mizessyn.
This work is distributed under the conditions of the Creative Commons
Attribution-Share Alike 3.0 Licence. This means you are free:
* to Share - to copy, distribute and transmit the work
* to Remix - to adapt the work

Under the following conditions:
* Attribution. You must attribute the work by stating your use of HanziVG in
  your own copyright header and linking to animHanzi's website
  (https://github.com/Connum/HanziVG)
* Attribution. You must attribute the work by stating your use of animHanzi in
  your own copyright header and linking to animHanzi's website
  (http://gooo.free.fr/animHanzi/)
* Attribution. You must attribute the work by stating your use of KanjiVG in
  your own copyright header and linking to KanjiVG's website
  (http://kanjivg.tagaini.net)
* Share Alike. If you alter, transform, or build upon this work, you may
  distribute the resulting work only under the same or similar license to this
  one.

See http://creativecommons.org/licenses/by-sa/3.0/ for more details.
-->
<!DOCTYPE svg PUBLIC "-//W3C//DTD SVG 1.0//EN" "http://www.w3.org/TR/2001/REC-SVG-20010904/DTD/svg10.dtd" [
<!ATTLIST g
xmlns:kvg CDATA #FIXED "http://kanjivg.tagaini.net"
kvg:element CDATA #IMPLIED
kvg:variant CDATA #IMPLIED
kvg:partial CDATA #IMPLIED
kvg:original CDATA #IMPLIED
kvg:part CDATA #IMPLIED
kvg:number CDATA #IMPLIED
kvg:tradForm CDATA #IMPLIED
kvg:radicalForm CDATA #IMPLIED
kvg:position CDATA #IMPLIED
kvg:radical CDATA #IMPLIED
kvg:phon CDATA #IMPLIED >
<!ATTLIST path
xmlns:kvg CDATA #FIXED "http://kanjivg.tagaini.net"
kvg:type CDATA #IMPLIED >
]>
<svg xmlns="http://www.w3.org/2000/svg" width="109" height="109" viewBox="0 0 109 109">
<g style="fill:none;stroke:#000000;stroke-width:3;stroke-linecap:round;stroke-linejoin:round;" id="hvg:StrokePaths_051c6">
<g kvg:element="准" id="hvg:051c6">
	<g kvg:radical="general" kvg:original="水" kvg:position="left" kvg:element="冫" id="hvg:051c6-g1">
		<g kvg:position="top" id="hvg:051c6-g2">
			<path d="M 18.904661,27.442797 C 22.784661,28.982797 27.78,33.1 28.75,35.5" kvg:type="㇔" id="hvg:051c6-s1"/>
		</g>
		<g kvg:position="bottom" id="hvg:051c6-g3">
			<path d="m 16.952462,77.145551 c 4.667777,-5.106849 10.188758,-12.880643 12.14,-17.29" kvg:type="㇀" id="hvg:051c6-s2"/>
		</g>
	</g>
	<g kvg:phon="隹/準T" kvg:position="right" kvg:element="隹" id="hvg:051c6-g4">
		<g kvg:original="人" kvg:variant="true" kvg:element="亻" id="hvg:051c6-g5">
			<path d="m 55.77,15 c 0.24,1.78 -0.07,3.1 -0.82,4.63 -3.726181,10.992274 -9.598705,19.436619 -22,29.48" kvg:type="㇒" id="hvg:051c6-s3"/>
			<path d="M 48.942797,34.940678 C 50.192797,36.190678 49.93,40 49.93,42.23 c 0,7.3 0.03,33.17 0.05,46.4 0,4.48 0.01,7.51 0.01,7.88" kvg:type="㇑" id="hvg:051c6-s4"/>
		</g>
		<path d="m 66.749439,21.567165 c 2.324075,3.260129 3.592273,5.184896 5.073041,8.910317" kvg:type="㇒" id="hvg:051c6-s5"/>
		<path d="M50.76,39.35c7.09-0.93,26.89-3.05,36.78-4.28c2.43-0.3,4.2-0.53,4.95-0.66" kvg:type="㇐b" id="hvg:051c6-s6"/>
		<path d="M 52.205985,55.651458 C 60.395985,54.851458 74.59,52.97 83.77,51.93 c 2.72,-0.31 4.73,-0.55 5.55,-0.67" kvg:type="㇐b" id="hvg:051c6-s7"/>
		<path d="M 51.325886,72.984661 C 58.395886,72.334661 76.83,69.73 86.28,69.06 c 2.3,-0.16 3.99,-0.3 4.73,-0.38" kvg:type="㇐b" id="hvg:051c6-s8"/>
		<path d="m 71.881864,37.585339 c 0.86,0.86 0.808136,3.164661 0.808136,4.774661 0,6.77 0.04,41.89 0.04,46.83" kvg:type="㇑a" id="hvg:051c6-s9"/>
		<path d="m 51.526398,92.986525 c 10.166399,-2.337457 29.506271,-4.867584 43.66839,-4.628389" kvg:type="㇐b" id="hvg:051c6-s10"/>
	</g>
</g>
</g>
<g style="font-size:8;fill:#808080" id="hvg:StrokeNumbers_051c6">
	<text y="29.555847" x="10.442797">1</text>
	<text y="84.322037" x="9.1758471">2</text>
	<text transform="matrix(1 0 0 1 46.75 16.38)">3</text>
	<text transform="matrix(1 0 0 1 41.25 49.55)">4</text>
	<text y="17.854704" x="63.841068">5</text>
	<text transform="matrix(1 0 0 1 54.75 36.05)">6</text>
	<text transform="matrix(1 0 0 1 54.75 52.55)">7</text>
	<text transform="matrix(1 0 0 1 54.75 68.98)">8</text>
	<text transform="matrix(1 0 0 1 77.25 46.63)">9</text>
	<text transform="matrix(1 0 0 1 54.75 88.40)">10</text>
</g>
</svg>
