<?xml version="1.0" encoding="UTF-8"?>
<!--
Copyright (C) 2018 HanziVG repository contributors
This work makes an extensive use of kanjiVG Copyright (C) 2009/2010/2011 Ulrich Apel
and AnimHanzi Copyright (C) 2016 François Mizessyn.
This work is distributed under the conditions of the Creative Commons
Attribution-Share Alike 3.0 Licence. This means you are free:
* to Share - to copy, distribute and transmit the work
* to Remix - to adapt the work

Under the following conditions:
* Attribution. You must attribute the work by stating your use of HanziVG in
  your own copyright header and linking to animHanzi's website
  (https://github.com/Connum/HanziVG)
* Attribution. You must attribute the work by stating your use of animHanzi in
  your own copyright header and linking to animHanzi's website
  (http://gooo.free.fr/animHanzi/)
* Attribution. You must attribute the work by stating your use of KanjiVG in
  your own copyright header and linking to KanjiVG's website
  (http://kanjivg.tagaini.net)
* Share Alike. If you alter, transform, or build upon this work, you may
  distribute the resulting work only under the same or similar license to this
  one.

See http://creativecommons.org/licenses/by-sa/3.0/ for more details.
-->
<!DOCTYPE svg PUBLIC "-//W3C//DTD SVG 1.0//EN" "http://www.w3.org/TR/2001/REC-SVG-20010904/DTD/svg10.dtd" [
<!ATTLIST g
xmlns:kvg CDATA #FIXED "http://kanjivg.tagaini.net"
kvg:element CDATA #IMPLIED
kvg:variant CDATA #IMPLIED
kvg:partial CDATA #IMPLIED
kvg:original CDATA #IMPLIED
kvg:part CDATA #IMPLIED
kvg:number CDATA #IMPLIED
kvg:tradForm CDATA #IMPLIED
kvg:radicalForm CDATA #IMPLIED
kvg:position CDATA #IMPLIED
kvg:radical CDATA #IMPLIED
kvg:phon CDATA #IMPLIED >
<!ATTLIST path
xmlns:kvg CDATA #FIXED "http://kanjivg.tagaini.net"
kvg:type CDATA #IMPLIED >
]>
<svg xmlns="http://www.w3.org/2000/svg" width="109" height="109" viewBox="0 0 109 109">
<g style="fill:none;stroke:#000000;stroke-width:3;stroke-linecap:round;stroke-linejoin:round;" id="hvg:StrokePaths_05317">
<g kvg:element="北" id="hvg:05317">
	<g kvg:position="left" id="hvg:05317-g1">
		<path d="m 37.25,21.5 c 1.19,1.19 2,3.25 2,4.75 0,1 0.957107,59.667262 0.957107,62.417262" kvg:type="㇑a" id="hvg:05317-s1"/>
		<path d="m 15.37132,54.583631 c 2.61,0.5 3.52,-0.02033 6.12,-0.28033 4.82066,-0.733554 11.301573,-2.31934 16.03901,-3.396447" kvg:type="㇐c" id="hvg:05317-s2"/>
		<path d="m 11.335786,91.457107 c 1.88,1.12 4.29,0.87 6.5,-0.25 13.25,-6.75 14.421573,-7.262563 21.421573,-11.012563" kvg:type="㇀" id="hvg:05317-s3"/>
	</g>
	<g kvg:radical="general" kvg:position="right" kvg:element="匕" id="hvg:05317-g2">
		<path d="m 89.366117,38.656854 c -0.25,1.75 -1.13,3.26 -2.19,4.07 -5.94,4.55 -14.31,9.43 -23.06,12.68" kvg:type="㇒" id="hvg:05317-s4"/>
		<path d="m 59.486117,15.080583 c 1.38,1.5 1.91,3.25 1.91,5.3 C 61.396117,21.500583 62,58.51 62,72.5 c 0,14 2,15.75 17.25,15.75 15.5,0 16.5,-1.5 16.5,-12.49" kvg:type="㇟" id="hvg:05317-s5"/>
	</g>
</g>
</g>
<g transform="translate(0.70710678,0.53033009)" style="font-size:8px;fill:#808080" id="hvg:StrokeNumbers_05317">
	<text y="18.787689" x="32.346195">1</text>
	<text y="56.096195" x="6.4393396">2</text>
	<text y="89.616119" x="3.3232231">3</text>
	<text y="35.68198" x="86.096191">4</text>
	<text y="13.428932" x="51.969669">5</text>
</g>
</svg>
