<?xml version="1.0" encoding="UTF-8"?>
<!--
Copyright (C) 2018 HanziVG repository contributors
This work makes an extensive use of kanjiVG Copyright (C) 2009/2010/2011 Ulrich Apel
and AnimHanzi Copyright (C) 2016 François Mizessyn.
This work is distributed under the conditions of the Creative Commons
Attribution-Share Alike 3.0 Licence. This means you are free:
* to Share - to copy, distribute and transmit the work
* to Remix - to adapt the work

Under the following conditions:
* Attribution. You must attribute the work by stating your use of HanziVG in
  your own copyright header and linking to animHanzi's website
  (https://github.com/Connum/HanziVG)
* Attribution. You must attribute the work by stating your use of animHanzi in
  your own copyright header and linking to animHanzi's website
  (http://gooo.free.fr/animHanzi/)
* Attribution. You must attribute the work by stating your use of KanjiVG in
  your own copyright header and linking to KanjiVG's website
  (http://kanjivg.tagaini.net)
* Share Alike. If you alter, transform, or build upon this work, you may
  distribute the resulting work only under the same or similar license to this
  one.

See http://creativecommons.org/licenses/by-sa/3.0/ for more details.
-->
<!DOCTYPE svg PUBLIC "-//W3C//DTD SVG 1.0//EN" "http://www.w3.org/TR/2001/REC-SVG-20010904/DTD/svg10.dtd" [
<!ATTLIST g
xmlns:kvg CDATA #FIXED "http://kanjivg.tagaini.net"
kvg:element CDATA #IMPLIED
kvg:variant CDATA #IMPLIED
kvg:partial CDATA #IMPLIED
kvg:original CDATA #IMPLIED
kvg:part CDATA #IMPLIED
kvg:number CDATA #IMPLIED
kvg:tradForm CDATA #IMPLIED
kvg:radicalForm CDATA #IMPLIED
kvg:position CDATA #IMPLIED
kvg:radical CDATA #IMPLIED
kvg:phon CDATA #IMPLIED >
<!ATTLIST path
xmlns:kvg CDATA #FIXED "http://kanjivg.tagaini.net"
kvg:type CDATA #IMPLIED >
]>
<svg xmlns="http://www.w3.org/2000/svg" width="109" height="109" viewBox="0 0 109 109">
<g id="hvg:StrokePaths_055ce" style="fill:none;stroke:#000000;stroke-width:3;stroke-linecap:round;stroke-linejoin:round;">
<g id="hvg:055ce" kvg:element="嗎">
	<g id="hvg:055ce-g1" kvg:element="口" kvg:variant="true" kvg:position="left" kvg:radical="general">
		<path id="hvg:055ce-s1" kvg:type="㇑" d="m11.25 32.79c0.37 0.51 0.76 0.94 0.92 1.58c1.29 5.07 3.34 19.04 4.23 28.13"/>
		<path id="hvg:055ce-s2" kvg:type="㇕b" d="m13.58 35.22c9.42 -2.22 17.54 -3.06 21.91 -3.73c1.6 -0.24 2.56 1.44 2.33 2.87c-0.95 5.92 -3.05 15.57 -4.46 23.75"/>
		<path id="hvg:055ce-s3" kvg:type="㇐b" d="m16.57 60.05c5.14 -0.75 11.83 -1.05 18.89 -2.21"/>
	</g>
	<g id="hvg:055ce-g2" kvg:element="馬" kvg:position="right">
		<path id="hvg:055ce-s4" kvg:type="㇑" d="M52.56,17.56c0.33,0.39,0.69,2.46,0.69,3.11c-0.03,6.53-0.13,32.54-0.39,42.81"/>
		<path id="hvg:055ce-s5" kvg:type="㇐b" d="M54.23,18.41c8.29-0.8,27.66-3.16,31.22-3.65c1.24-0.17,3.35-0.33,3.98-0.11"/>
		<path id="hvg:055ce-s6" kvg:type="㇐b" d="M53.79,32.89c8.29-0.8,27.18-2.76,30.74-3.26c1.24-0.17,3.35-0.33,3.98-0.11"/>
		<path id="hvg:055ce-s7" kvg:type="㇐b" d="M53.91,46.67c8.29-0.8,28.18-2.76,31.74-3.26c1.24-0.17,3.35-0.33,3.98-0.11"/>
		<path id="hvg:055ce-s8" kvg:type="㇑a" d="M70.57,18.91c0.34,0.39,0.6,0.92,0.6,1.56c-0.03,6.52-0.11,28.61-0.37,38.88"/>
		<path id="hvg:055ce-s9" kvg:type="㇆a" d="M52.87,62.57c10.5-1.72,32.72-4.23,38.54-4.75c3.78-0.34,5.41,0.85,5.01,4.71c-1.42,13.57-4.47,23.56-6.84,28.94c-4.11,9.35-5.88,5.85-9.7,0.42"/>
		<g id="hvg:055ce-g3" kvg:element="灬" kvg:variant="true" kvg:original="火">
			<path id="hvg:055ce-s10" kvg:type="㇔" d="M49.46,73.06c-0.21,5.94-2.43,12.82-3.81,16.4"/>
			<path id="hvg:055ce-s11" kvg:type="㇔" d="M57.29,72.04c2.1,2.62,4.08,9.62,4.58,13.56"/>
			<path id="hvg:055ce-s12" kvg:type="㇔" d="M68.24,69.34c2.2,2.13,5.67,8.65,6.19,11.86"/>
			<path id="hvg:055ce-s13" kvg:type="㇔" d="M79,67.63c2.19,1.67,5.63,6.74,6.17,9.23"/>
		</g>
	</g>
</g>
</g>
<g id="hvg:StrokeNumbers_055ce" style="font-size:8;fill:#808080">
	<text x="3.8728812" y="35.898304">1</text>
	<text x="13.716102" y="29.266949">2</text>
	<text x="18.127119" y="67.360168">3</text>
	<text transform="matrix(1 0 0 1 45.50 26.50)">4</text>
	<text transform="matrix(1 0 0 1 53.50 14.50)">5</text>
	<text transform="matrix(1 0 0 1 57.50 29.50)">6</text>
	<text transform="matrix(1 0 0 1 57.50 42.50)">7</text>
	<text transform="matrix(1 0 0 1 63.50 25.50)">8</text>
	<text transform="matrix(1 0 0 1 57.50 58.03)">9</text>
	<text transform="matrix(1 0 0 1 40.50 72.95)">10</text>
	<text transform="matrix(1 0 0 1 49.50 72.50)">11</text>
	<text transform="matrix(1 0 0 1 59.50 71.50)">12</text>
	<text transform="matrix(1 0 0 1 70.50 69.50)">13</text>
</g>
</svg>
