<?xml version="1.0" encoding="UTF-8"?>
<!--
Copyright (C) 2020 HanziVG repository contributors
This work makes an extensive use of kanjiVG Copyright (C) 2009/2010/2011 Ulrich Apel
and AnimHanzi Copyright (C) 2016 François Mizessyn.
This work is distributed under the conditions of the Creative Commons
Attribution-Share Alike 3.0 Licence. This means you are free:
* to Share - to copy, distribute and transmit the work
* to Remix - to adapt the work

Under the following conditions:
* Attribution. You must attribute the work by stating your use of HanziVG in
  your own copyright header and linking to animHanzi's website
  (https://github.com/Connum/HanziVG)
* Attribution. You must attribute the work by stating your use of animHanzi in
  your own copyright header and linking to animHanzi's website
  (http://gooo.free.fr/animHanzi/)
* Attribution. You must attribute the work by stating your use of KanjiVG in
  your own copyright header and linking to KanjiVG's website
  (http://kanjivg.tagaini.net)
* Share Alike. If you alter, transform, or build upon this work, you may
  distribute the resulting work only under the same or similar license to this
  one.

See http://creativecommons.org/licenses/by-sa/3.0/ for more details.
-->
<!DOCTYPE svg PUBLIC "-//W3C//DTD SVG 1.0//EN" "http://www.w3.org/TR/2001/REC-SVG-20010904/DTD/svg10.dtd" [
<!ATTLIST g
xmlns:kvg CDATA #FIXED "http://kanjivg.tagaini.net"
kvg:element CDATA #IMPLIED
kvg:variant CDATA #IMPLIED
kvg:partial CDATA #IMPLIED
kvg:original CDATA #IMPLIED
kvg:part CDATA #IMPLIED
kvg:number CDATA #IMPLIED
kvg:tradForm CDATA #IMPLIED
kvg:radicalForm CDATA #IMPLIED
kvg:position CDATA #IMPLIED
kvg:radical CDATA #IMPLIED
kvg:phon CDATA #IMPLIED >
<!ATTLIST path
xmlns:kvg CDATA #FIXED "http://kanjivg.tagaini.net"
kvg:type CDATA #IMPLIED >
]>
<svg xmlns="http://www.w3.org/2000/svg" width="109" height="109" viewBox="0 0 109 109">
<g style="fill:none;stroke:#000000;stroke-width:3;stroke-linecap:round;stroke-linejoin:round;" id="hvg:StrokePaths_0623f">
<g kvg:element="房" id="hvg:0623f">
	<g kvg:position="top" kvg:original="戶" kvg:radical="general" kvg:element="户" id="hvg:0623f-g1">
		<path d="m 53.84,12.32 c 2.073729,2.689068 3.546525,4.272542 5.296653,7.883475" kvg:type="㇔" id="hvg:0623f-s1"/>
		<g kvg:element="尸" id="hvg:0623f-g2">
			<path d="m 29.1,27.88 c 2.31,0.75 4.52,0.91 6.89,0.57 11.88,-1.7 22.893771,-3.103602 32.523771,-3.923602 2.54,-0.22 4.74,1.44 3.99,4.07 -0.87,3.04 -2.25,7.25 -3,9.75" kvg:type="㇕c" id="hvg:0623f-s2"/>
			<path d="m 32,42.5 c 1.25,0 23.606695,-2.403602 35.236695,-3.623602 2.6,-0.27 4.91,-0.28 6.74,-0.28" kvg:type="㇐b" id="hvg:0623f-s3"/>
			<path d="M30.94,29.18c1.06,1.06,1.12,2.5,0.9,4.45C29.12,56.62,24.25,75,13,86.75" kvg:type="㇒" id="hvg:0623f-s4"/>
		</g>
	</g>
	<g kvg:position="bottom" kvg:phon="方" kvg:element="方" id="hvg:0623f-g3">
		<g kvg:position="top" kvg:element="亠" id="hvg:0623f-g4">
			<path d="m 56.520678,46.980932 c 1.993492,2.879349 3.686151,5.392401 3.710254,6.040551" kvg:type="㇑a" id="hvg:0623f-s5"/>
			<path d="M34.71,59.31c2.42,0.56,5.16,0.6,7.78,0.19c9.64-1.5,25.76-2.88,37.13-3.59c2.49-0.16,5.57-0.18,7.92,0.65" kvg:type="㇐" id="hvg:0623f-s6"/>
		</g>
		<g kvg:position="bottom" id="hvg:0623f-g5">
			<path d="m 55.19,66.5 c 4.81,2 11.44,3.37 18.18,4.59 2.62,0.47 3.1,2.33 2.47,4.56 -1.51,5.32 -8.58,17.37 -11.53,20.37 -1.839417,1.863462 -3.057938,1.858833 -4.131046,0.924675 -0.976182,-0.849782 -1.535823,-1.586473 -2.321623,-2.611603" kvg:type="㇆a" id="hvg:0623f-s7"/>
			<path d="M 56.132797,59.708941 C 56.096398,61.456271 55.49,63.13 55.05,64.14 51.97,71.15 43.63,83.87 29.5,91.93" kvg:type="㇒" id="hvg:0623f-s8"/>
		</g>
	</g>
</g>
</g>
<g style="font-size:8;fill:#808080" id="hvg:StrokeNumbers_0623f">
	<text transform="matrix(1 0 0 1 45.50 12.13)">1</text>
	<text transform="matrix(1 0 0 1 31.50 25.50)">2</text>
	<text transform="matrix(1 0 0 1 33.50 39.50)">3</text>
	<text transform="matrix(1 0 0 1 20.50 39.50)">4</text>
	<text transform="matrix(1 0 0 1 49.50 49.50)">5</text>
	<text transform="matrix(1 0 0 1 34.50 56.50)">6</text>
	<text transform="matrix(1 0 0 1 62.50 66.50)">7</text>
	<text transform="matrix(1 0 0 1 45.50 69.50)">8</text>
</g>
</svg>
