<?xml version="1.0" encoding="UTF-8"?>
<!--
Copyright (C) 2020 HanziVG repository contributors
This work makes an extensive use of kanjiVG Copyright (C) 2009/2010/2011 Ulrich Apel
and AnimHanzi Copyright (C) 2016 François Mizessyn.
This work is distributed under the conditions of the Creative Commons
Attribution-Share Alike 3.0 Licence. This means you are free:
* to Share - to copy, distribute and transmit the work
* to Remix - to adapt the work

Under the following conditions:
* Attribution. You must attribute the work by stating your use of HanziVG in
  your own copyright header and linking to animHanzi's website
  (https://github.com/Connum/HanziVG)
* Attribution. You must attribute the work by stating your use of animHanzi in
  your own copyright header and linking to animHanzi's website
  (http://gooo.free.fr/animHanzi/)
* Attribution. You must attribute the work by stating your use of KanjiVG in
  your own copyright header and linking to KanjiVG's website
  (http://kanjivg.tagaini.net)
* Share Alike. If you alter, transform, or build upon this work, you may
  distribute the resulting work only under the same or similar license to this
  one.

See http://creativecommons.org/licenses/by-sa/3.0/ for more details.
-->
<!DOCTYPE svg PUBLIC "-//W3C//DTD SVG 1.0//EN" "http://www.w3.org/TR/2001/REC-SVG-20010904/DTD/svg10.dtd" [
<!ATTLIST g
xmlns:kvg CDATA #FIXED "http://kanjivg.tagaini.net"
kvg:element CDATA #IMPLIED
kvg:variant CDATA #IMPLIED
kvg:partial CDATA #IMPLIED
kvg:original CDATA #IMPLIED
kvg:part CDATA #IMPLIED
kvg:number CDATA #IMPLIED
kvg:tradForm CDATA #IMPLIED
kvg:radicalForm CDATA #IMPLIED
kvg:position CDATA #IMPLIED
kvg:radical CDATA #IMPLIED
kvg:phon CDATA #IMPLIED >
<!ATTLIST path
xmlns:kvg CDATA #FIXED "http://kanjivg.tagaini.net"
kvg:type CDATA #IMPLIED >
]>
<svg xmlns="http://www.w3.org/2000/svg" width="109" height="109" viewBox="0 0 109 109">
<g id="hvg:StrokePaths_0629a" style="fill:none;stroke:#000000;stroke-width:3;stroke-linecap:round;stroke-linejoin:round">
<g id="hvg:0629a" kvg:element="抚">
	<g id="hvg:0629a-g1" kvg:element="扌" kvg:position="left" kvg:radical="general" kvg:original="手" kvg:variant="true">
		<path id="hvg:0629a-s1" d="m 16.511653,42.722458 c 0,0 11.315678,-0.808263 27.365466,-7.274365" kvg:type="㇐"/>
		<path id="hvg:0629a-s2" d="m 32.792373,16.28072 c 0,0 2.193856,-0.57733 2.540254,11.084746 0.346398,11.662076 -1.039195,62.236229 -1.039195,62.236229 6.9e-5,5.5e-5 0.574147,3.830928 -12.585805,-6.350636" kvg:type="㇚"/>
		<path id="hvg:0629a-s3" d="m 12.24703,72.748793 c 0,0 20.575009,-14.696436 27.270052,-19.431954" kvg:type="㇀"/>
	</g>
	<g id="hvg:0629a-g2" kvg:element="无" kvg:position="right">
		<path id="hvg:0629a-s4" d="m 51.764112,33.721592 c 0,0 9.797623,-0.979763 26.943464,-5.878574" kvg:type="㇐"/>
		<path id="hvg:0629a-s5" d="m 45.395656,57.072595 c 0,0 34.781564,-8.32798 40.986726,-6.858337" kvg:type="㇐"/>
		<path id="hvg:0629a-s6" d="m 64.174435,36.170998 c 0,0 -2.775994,36.251207 -20.57501,54.866692" kvg:type="㇀"/>
		<path id="hvg:0629a-s7" d="m 66.133959,60.501763 c 0,0 -0.816468,21.064891 0.816469,24.494059 1.632937,3.429168 2.6127,4.735518 7.184924,5.388693 4.572224,0.653175 19.26866,1.632937 20.248422,-7.02163" kvg:type="㇟"/>
	</g>
</g>
</g>
<g id="hvg:StrokeNumbers_0629a" style="font-size:8;fill:#808080">
	<text y="44.681591" x="9.713129">1</text>
	<text x="26.689875" y="15.286317">2</text>
	<text y="76.957718" x="4.8901615">3</text>
	<text y="33.126324" x="45.533665">4</text>
	<text x="43.564888" y="54.65173">5</text>
	<text y="41.699818" x="56.583138">6</text>
	<text x="68.439331" y="63.091293">7</text>
</g>
</svg>
