<?xml version="1.0" encoding="UTF-8"?>
<!--
Copyright (C) 2018 HanziVG repository contributors
This work makes an extensive use of kanjiVG Copyright (C) 2009/2010/2011 Ulrich Apel
and AnimHanzi Copyright (C) 2016 François Mizessyn.
This work is distributed under the conditions of the Creative Commons
Attribution-Share Alike 3.0 Licence. This means you are free:
* to Share - to copy, distribute and transmit the work
* to Remix - to adapt the work

Under the following conditions:
* Attribution. You must attribute the work by stating your use of HanziVG in
  your own copyright header and linking to animHanzi's website
  (https://github.com/Connum/HanziVG)
* Attribution. You must attribute the work by stating your use of animHanzi in
  your own copyright header and linking to animHanzi's website
  (http://gooo.free.fr/animHanzi/)
* Attribution. You must attribute the work by stating your use of KanjiVG in
  your own copyright header and linking to KanjiVG's website
  (http://kanjivg.tagaini.net)
* Share Alike. If you alter, transform, or build upon this work, you may
  distribute the resulting work only under the same or similar license to this
  one.

See http://creativecommons.org/licenses/by-sa/3.0/ for more details.
-->
<!DOCTYPE svg PUBLIC "-//W3C//DTD SVG 1.0//EN" "http://www.w3.org/TR/2001/REC-SVG-20010904/DTD/svg10.dtd" [
<!ATTLIST g
xmlns:kvg CDATA #FIXED "http://kanjivg.tagaini.net"
kvg:element CDATA #IMPLIED
kvg:variant CDATA #IMPLIED
kvg:partial CDATA #IMPLIED
kvg:original CDATA #IMPLIED
kvg:part CDATA #IMPLIED
kvg:number CDATA #IMPLIED
kvg:tradForm CDATA #IMPLIED
kvg:radicalForm CDATA #IMPLIED
kvg:position CDATA #IMPLIED
kvg:radical CDATA #IMPLIED
kvg:phon CDATA #IMPLIED >
<!ATTLIST path
xmlns:kvg CDATA #FIXED "http://kanjivg.tagaini.net"
kvg:type CDATA #IMPLIED >
]>
<svg xmlns="http://www.w3.org/2000/svg" width="109" height="109" viewBox="0 0 109 109">
<g style="fill:none;stroke:#000000;stroke-width:3;stroke-linecap:round;stroke-linejoin:round;" id="hvg:StrokePaths_065c1">
<g kvg:element="旁" id="hvg:065c1">
	<g kvg:position="top" id="hvg:065c1-g1">
		<g kvg:partial="true" kvg:element="立" id="hvg:065c1-g2" kvg:position="top">
			<g kvg:radical="nelson" kvg:position="top" kvg:element="亠" id="hvg:065c1-g3">
				<path d="M49.95,9.5c2.33,1.13,4.8,3.25,5.84,6.56" kvg:type="㇑a" id="hvg:065c1-s1"/>
				<path d="M25.5,22.7c1.16,0.33,2.53,0.38,3.68,0.33c6.57-0.28,42.07-3.03,51.99-3.27c1.94-0.05,3.1,0.16,4.07,0.32" kvg:type="㇐" id="hvg:065c1-s2"/>
			</g>
			<g kvg:position="bottom" id="hvg:065c1-g4">
				<path d="m 36.484822,26.061409 c 2.338794,4.37 2.268523,5.45601 5.760119,10.458829" kvg:type="㇔" id="hvg:065c1-s3"/>
				<path d="m 71.429644,23.346825 c -0.845427,2.621271 -4.010586,8.085753 -7.051766,12.132241" kvg:type="㇒" id="hvg:065c1-s4"/>
			</g>
		</g>
		<g kvg:element="冖" id="hvg:065c1-g5" kvg:position="bottom">
			<path d="M22.27,39.57C22.08,43.02,17.6,52.06,16,54.11" kvg:type="㇔" id="hvg:065c1-s5"/>
			<path d="M22.71,41.9c9.54-0.9,44.04-4.15,62.6-4.53c11.35-0.23,3.58,5.41-0.65,8.95" kvg:type="㇖b" id="hvg:065c1-s6"/>
		</g>
	</g>
	<g kvg:radical="tradit" kvg:position="bottom" kvg:element="方" id="hvg:065c1-g6">
		<g kvg:position="top" kvg:element="亠" id="hvg:065c1-g7">
			<path d="M51.02,44.77c1.98,1.73,3.73,3.98,4.76,6.65" kvg:type="㇑a" id="hvg:065c1-s7"/>
			<path d="M22.97,59.01c1.14,0.08,3.73,0.55,4.84,0.44c8.93-0.92,41.86-3.91,53.99-4.55c1.87-0.1,2.83,0.04,4.23,0.56" kvg:type="㇐" id="hvg:065c1-s8"/>
		</g>
		<g kvg:position="bottom" id="hvg:065c1-g8">
			<path d="M48.96,67.9c5.04,1.35,16.63,0.74,20.31,0.38c2.39-0.23,3.05,1.06,2.92,2.7c-0.35,4.34-8.6,22.09-11.59,25.62c-3.24,3.82-5.41-0.15-6.37-0.66" kvg:type="㇆a" id="hvg:065c1-s9"/>
			<path d="M50.14,61.03c0.49,0.99,0.4,2.11-0.19,3.22c-4.04,7.69-15.71,23.22-33.84,30.49" kvg:type="㇒" id="hvg:065c1-s10"/>
		</g>
	</g>
</g>
</g>
<g style="font-size:8;fill:#808080" id="hvg:StrokeNumbers_065c1">
	<text y="10.384534" x="42.825741">1</text>
	<text transform="matrix(1 0 0 1 17.50 23.50)">2</text>
	<text transform="matrix(1 0 0 1 30.50 32.98)">3</text>
	<text transform="matrix(1 0 0 1 61.50 30.50)">4</text>
	<text transform="matrix(1 0 0 1 15.50 40.50)">5</text>
	<text transform="matrix(1 0 0 1 24.50 38.50)">6</text>
	<text y="48.910931" x="44.054405">7</text>
	<text transform="matrix(1 0 0 1 23.50 56.50)">8</text>
	<text transform="matrix(1 0 0 1 55.50 66.50)">9</text>
	<text y="66.576271" x="36.345341">10</text>
</g>
</svg>
