<?xml version="1.0" encoding="UTF-8"?>
<!--
Copyright (C) 2018 HanziVG repository contributors
This work makes an extensive use of kanjiVG Copyright (C) 2009/2010/2011 Ulrich Apel
and AnimHanzi Copyright (C) 2016 François Mizessyn.
This work is distributed under the conditions of the Creative Commons
Attribution-Share Alike 3.0 Licence. This means you are free:
* to Share - to copy, distribute and transmit the work
* to Remix - to adapt the work

Under the following conditions:
* Attribution. You must attribute the work by stating your use of HanziVG in
  your own copyright header and linking to animHanzi's website
  (https://github.com/Connum/HanziVG)
* Attribution. You must attribute the work by stating your use of animHanzi in
  your own copyright header and linking to animHanzi's website
  (http://gooo.free.fr/animHanzi/)
* Attribution. You must attribute the work by stating your use of KanjiVG in
  your own copyright header and linking to KanjiVG's website
  (http://kanjivg.tagaini.net)
* Share Alike. If you alter, transform, or build upon this work, you may
  distribute the resulting work only under the same or similar license to this
  one.

See http://creativecommons.org/licenses/by-sa/3.0/ for more details.
-->
<!DOCTYPE svg PUBLIC "-//W3C//DTD SVG 1.0//EN" "http://www.w3.org/TR/2001/REC-SVG-20010904/DTD/svg10.dtd" [
<!ATTLIST g
xmlns:kvg CDATA #FIXED "http://kanjivg.tagaini.net"
kvg:element CDATA #IMPLIED
kvg:variant CDATA #IMPLIED
kvg:partial CDATA #IMPLIED
kvg:original CDATA #IMPLIED
kvg:part CDATA #IMPLIED
kvg:number CDATA #IMPLIED
kvg:tradForm CDATA #IMPLIED
kvg:radicalForm CDATA #IMPLIED
kvg:position CDATA #IMPLIED
kvg:radical CDATA #IMPLIED
kvg:phon CDATA #IMPLIED >
<!ATTLIST path
xmlns:kvg CDATA #FIXED "http://kanjivg.tagaini.net"
kvg:type CDATA #IMPLIED >
]>
<svg xmlns="http://www.w3.org/2000/svg" width="109" height="109" viewBox="0 0 109 109">
<g style="fill:none;stroke:#000000;stroke-width:3;stroke-linecap:round;stroke-linejoin:round;" id="hvg:StrokePaths_074dc">
<g kvg:radical="general" kvg:element="瓜" id="hvg:074dc">
	<g kvg:element="丿" id="hvg:074dc-g1">
		<path d="m 71.01,15.5 c 0,1.12 -1.04,2.25 -2.19,2.97 -7.7,4.78 -18.389406,9.629762 -35.269406,14.049762" kvg:type="㇒" id="hvg:074dc-s1"/>
	</g>
	<path d="M 32.110932,32.827331 C 32.730932,33.577331 32.95,34.81 32.86,36.95 32,57.75 30,82.75 11.56,94.72" kvg:type="㇒" id="hvg:074dc-s2"/>
	<g kvg:variant="true" kvg:element="厶" id="hvg:074dc-g2">
		<path d="M 52.609882,27.484126 C 53.799882,30.796944 53.55,33.75 53.55,35.03 c 0,1.1 -1.739644,47.537861 -8.655993,53.121231 8.852256,-4.264292 13.275809,-6.516192 25.662343,-8.880874" id="hvg:074dc-s3" kvg:type="㇙"/>
		<path d="m 66.249762,71.146469 c 3.37,3.33 7.720238,11.0873 8.560238,16.2673" kvg:type="㇔" id="hvg:074dc-s4"/>
	</g>
	<path d="m 65.57365,22.078132 c 0.997063,12.903855 5.708747,30.562552 18.760475,53.346706 2.761457,4.820623 9.812344,11.755637 13.905637,11.339763" kvg:type="㇏" id="hvg:074dc-s5"/>
</g>
</g>
<g style="font-size:8;fill:#808080" id="hvg:StrokeNumbers_074dc">
	<text transform="matrix(1 0 0 1 62.50 14.50)">1</text>
	<text transform="matrix(1 0 0 1 24.50 39.55)">2</text>
	<text transform="matrix(1 0 0 1 45.50 38.50)">3</text>
	<text y="68.966858" x="61.28017">4</text>
	<text transform="translate(70.25,29.33)">5</text>
</g>
</svg>
