<?xml version="1.0" encoding="UTF-8"?>
<!--
Copyright (C) 2018 HanziVG repository contributors
This work makes an extensive use of kanjiVG Copyright (C) 2009/2010/2011 Ulrich Apel
and AnimHanzi Copyright (C) 2016 François Mizessyn.
This work is distributed under the conditions of the Creative Commons
Attribution-Share Alike 3.0 Licence. This means you are free:
* to Share - to copy, distribute and transmit the work
* to Remix - to adapt the work

Under the following conditions:
* Attribution. You must attribute the work by stating your use of HanziVG in
  your own copyright header and linking to animHanzi's website
  (https://github.com/Connum/HanziVG)
* Attribution. You must attribute the work by stating your use of animHanzi in
  your own copyright header and linking to animHanzi's website
  (http://gooo.free.fr/animHanzi/)
* Attribution. You must attribute the work by stating your use of KanjiVG in
  your own copyright header and linking to KanjiVG's website
  (http://kanjivg.tagaini.net)
* Share Alike. If you alter, transform, or build upon this work, you may
  distribute the resulting work only under the same or similar license to this
  one.

See http://creativecommons.org/licenses/by-sa/3.0/ for more details.
-->
<!DOCTYPE svg PUBLIC "-//W3C//DTD SVG 1.0//EN" "http://www.w3.org/TR/2001/REC-SVG-20010904/DTD/svg10.dtd" [
<!ATTLIST g
xmlns:kvg CDATA #FIXED "http://kanjivg.tagaini.net"
kvg:element CDATA #IMPLIED
kvg:variant CDATA #IMPLIED
kvg:partial CDATA #IMPLIED
kvg:original CDATA #IMPLIED
kvg:part CDATA #IMPLIED
kvg:number CDATA #IMPLIED
kvg:tradForm CDATA #IMPLIED
kvg:radicalForm CDATA #IMPLIED
kvg:position CDATA #IMPLIED
kvg:radical CDATA #IMPLIED
kvg:phon CDATA #IMPLIED >
<!ATTLIST path
xmlns:kvg CDATA #FIXED "http://kanjivg.tagaini.net"
kvg:type CDATA #IMPLIED >
]>
<svg xmlns="http://www.w3.org/2000/svg" width="109" height="109" viewBox="0 0 109 109">
<g style="fill:none;stroke:#000000;stroke-width:3;stroke-linecap:round;stroke-linejoin:round;" id="hvg:StrokePaths_0771f">
<g kvg:element="真" id="hvg:0771f">
	<g kvg:radical="nelson" kvg:position="top" kvg:element="十" id="hvg:0771f-g1">
		<path d="M24.13,24.09c1.14,0.54,3.23,0.68,4.36,0.54c14.46-1.77,42.68-4.02,52.66-4.23c1.9-0.04,3.03,0.26,3.98,0.53" kvg:type="㇐" id="hvg:0771f-s1"/>
		<path d="M51.96,8.75c0.46,0.31,1.56,2.3,1.53,2.92C53.25,16.25,51.5,27.25,50.7,33" kvg:type="㇑" id="hvg:0771f-s2"/>
	</g>
	<g kvg:position="bottom" kvg:element="具" id="hvg:0771f-g2">
		<g kvg:radical="tradit" kvg:position="top" kvg:element="目" id="hvg:0771f-g3">
			<path d="m 31.25,34.33 c 0.5,0.67 1.47,1.54 1.57,2.72 0.43,5.2 2.416825,39.708337 2.416825,40.298337 0,0.59 0.21,0.59 0.43,1.76" kvg:type="㇑" id="hvg:0771f-s3"/>
			<path d="m 33.88,34.7 c 3.61,-0.15 30.210713,-3.356587 33.500713,-3.536587 2.75,-0.15 4.68,0.76 4.68,3.91 0.01,5.12 -0.270238,24.795042 -0.427063,38.665042 -0.08,1.33 0,1.92 -0.21,2.79" kvg:type="㇕a" id="hvg:0771f-s4"/>
			<path d="M34.32,46.58c7.14-0.45,14.26-1.18,21.37-1.89c1.78-0.18,3.52-0.35,5.21-0.51" kvg:type="㇐a" id="hvg:0771f-s5"/>
			<path d="M36.12,57.94c5.85-0.3,13.68-0.92,19.51-1.45c1.63-0.15,3.27-0.29,4.91-0.43" kvg:type="㇐a" id="hvg:0771f-s6"/>
			<path d="M 36.76,69.71 C 51,68.5 49.972614,68.643056 61.752614,68.033056" kvg:type="㇐a" id="hvg:0771f-s7"/>
		</g>
		<g kvg:position="bottom" id="hvg:0771f-g4">
			<path d="M16.75,80.7c1.52,0.54,4.3,0.66,5.82,0.54C32,80.5,71.5,77,88.69,77.01c2.53,0,4.05,0.26,5.31,0.53" kvg:type="㇐" id="hvg:0771f-s8"/>
			<g kvg:element="八" id="hvg:0771f-g5">
				<path d="M42,82.89c0.05,0.43,0.11,1.1-0.11,1.71c-1.29,3.61-8.7,11.52-18.84,16.36" kvg:type="㇒" id="hvg:0771f-s9"/>
				<path d="M67.52,83.83c6.37,2.76,16.45,11.34,18.04,15.63" kvg:type="㇏" id="hvg:0771f-s10"/>
			</g>
		</g>
	</g>
</g>
</g>
<g style="font-size:8;fill:#808080" id="hvg:StrokeNumbers_0771f">
	<text transform="matrix(1 0 0 1 17.25 24.13)">1</text>
	<text transform="matrix(1 0 0 1 43.50 10.50)">2</text>
	<text transform="matrix(1 0 0 1 24.75 42.74)">3</text>
	<text transform="matrix(1 0 0 1 34.50 32.50)">4</text>
	<text transform="matrix(1 0 0 1 38.25 43.63)">5</text>
	<text transform="matrix(1 0 0 1 38.50 55.63)">6</text>
	<text transform="matrix(1 0 0 1 39.50 66.50)">7</text>
	<text transform="matrix(1 0 0 1 8.50 81.50)">8</text>
	<text transform="matrix(1 0 0 1 30.50 89.50)">9</text>
	<text transform="matrix(1 0 0 1 56.50 88.50)">10</text>
</g>
</svg>
