<?xml version="1.0" encoding="UTF-8"?>
<!--
Copyright (C) 2018 HanziVG repository contributors
This work makes an extensive use of kanjiVG Copyright (C) 2009/2010/2011 Ulrich Apel
and AnimHanzi Copyright (C) 2016 François Mizessyn.
This work is distributed under the conditions of the Creative Commons
Attribution-Share Alike 3.0 Licence. This means you are free:
* to Share - to copy, distribute and transmit the work
* to Remix - to adapt the work

Under the following conditions:
* Attribution. You must attribute the work by stating your use of HanziVG in
  your own copyright header and linking to animHanzi's website
  (https://github.com/Connum/HanziVG)
* Attribution. You must attribute the work by stating your use of animHanzi in
  your own copyright header and linking to animHanzi's website
  (http://gooo.free.fr/animHanzi/)
* Attribution. You must attribute the work by stating your use of KanjiVG in
  your own copyright header and linking to KanjiVG's website
  (http://kanjivg.tagaini.net)
* Share Alike. If you alter, transform, or build upon this work, you may
  distribute the resulting work only under the same or similar license to this
  one.

See http://creativecommons.org/licenses/by-sa/3.0/ for more details.
-->
<!DOCTYPE svg PUBLIC "-//W3C//DTD SVG 1.0//EN" "http://www.w3.org/TR/2001/REC-SVG-20010904/DTD/svg10.dtd" [
<!ATTLIST g
xmlns:kvg CDATA #FIXED "http://kanjivg.tagaini.net"
kvg:element CDATA #IMPLIED
kvg:variant CDATA #IMPLIED
kvg:partial CDATA #IMPLIED
kvg:original CDATA #IMPLIED
kvg:part CDATA #IMPLIED
kvg:number CDATA #IMPLIED
kvg:tradForm CDATA #IMPLIED
kvg:radicalForm CDATA #IMPLIED
kvg:position CDATA #IMPLIED
kvg:radical CDATA #IMPLIED
kvg:phon CDATA #IMPLIED >
<!ATTLIST path
xmlns:kvg CDATA #FIXED "http://kanjivg.tagaini.net"
kvg:type CDATA #IMPLIED >
]>
<svg xmlns="http://www.w3.org/2000/svg" width="109" height="109" viewBox="0 0 109 109">
<g style="fill:none;stroke:#000000;stroke-width:3;stroke-linecap:round;stroke-linejoin:round;" id="hvg:StrokePaths_07761">
<g kvg:element="睡" id="hvg:07761">
	<g kvg:radical="general" kvg:position="left" kvg:element="目" id="hvg:07761-g1">
		<path d="M13.18,27.55c0.83,0.83,1.13,2.13,1.13,3.76c0,1.3-0.08,33.81-0.05,47.44c0.01,3.42,0.02,5.68,0.05,6.01" kvg:type="㇑" id="hvg:07761-s1"/>
		<path d="M14.41,28.3c1.74-0.17,12.98-2.36,17.48-3.07c3.19-0.5,4.22,0.8,4.15,3.89c-0.1,4.84,0.01,32.34,0.06,46.5c0.02,5.01,0.03,8.35,0.02,8.42" kvg:type="㇕a" id="hvg:07761-s2"/>
		<path d="m 15.62,43.96 c 3.751655,-0.217914 10.930629,-1.413332 15.637538,-1.825059" kvg:type="㇐a" id="hvg:07761-s3"/>
		<path d="m 15.54,61.12 c 5.38,-0.68 9.194125,-1.211766 15.944125,-1.531766" kvg:type="㇐a" id="hvg:07761-s4"/>
		<path d="M 15.68,79.07 C 21.25,78.5 26.665416,77.989881 33.585416,77.331647" kvg:type="㇐a" id="hvg:07761-s5"/>
	</g>
	<g kvg:phon="垂" kvg:position="right" kvg:element="垂" id="hvg:07761-g2">
		<g kvg:element="千" id="hvg:07761-g3">
			<g kvg:element="丿" id="hvg:07761-g4">
				<path d="M77.74,13.5c0,1-0.44,1.71-1.23,2.3c-4.9,3.7-11.56,6.2-23.67,9.25" kvg:type="㇒" id="hvg:07761-s6"/>
			</g>
			<g kvg:element="十" id="hvg:07761-g5">
				<path d="M46.81,36.9c2.82,0.47,5.42,0.13,7.32-0.13c10-1.4,19.88-2.77,31.13-3.54c2.16-0.15,4.43-0.41,6.54,0.26" kvg:type="㇐" id="hvg:07761-s7"/>
				<path d="m 67.25,22.306144 c 1.115466,1.808263 1.47,3.072797 1.47,6.193856 0,1.02 -0.06,50.75 -0.06,60.75" kvg:type="㇑a" id="hvg:07761-s8"/>
			</g>
		</g>
		<path d="M43,55.77c3.2,0.62,6.43,0.29,9.62-0.14c11.12-1.51,25.88-2.76,37.38-3.5c2.8-0.18,5.87-0.26,8.33,0.39" kvg:type="㇐" id="hvg:07761-s9"/>
		<path d="M52.17,44.25c0.98,0.98,1.55,2.17,1.61,3.09c0.35,5.03,0.72,13.41,1.16,20.16" kvg:type="㇑a" id="hvg:07761-s10"/>
		<path d="M86.51,40.75c0.49,1.12,0.46,2.26,0.24,3.68c-1.3,8.33-1.64,12.74-3.06,20.57" kvg:type="㇑a" id="hvg:07761-s11"/>
		<path d="M48.12,73.9c2.5,0.35,4.82,0.45,6.77,0.18c8.86-1.21,23.08-2.73,30.47-3.17c1.96-0.12,3.51-0.16,5.9,0.33" kvg:type="㇐" id="hvg:07761-s12"/>
		<path d="M42.27,91.4c2.98,0.6,6.13,0.48,8.35,0.24C62.5,90.38,80.62,89,91.25,89c2.07,0,4.53,0.11,6.5,0.75" kvg:type="㇐" id="hvg:07761-s13"/>
	</g>
</g>
</g>
<g style="font-size:8;fill:#808080" id="hvg:StrokeNumbers_07761">
	<text transform="matrix(1 0 0 1 7.50 36.13)">1</text>
	<text transform="matrix(1 0 0 1 15.75 24.13)">2</text>
	<text transform="matrix(1 0 0 1 18.75 40.55)">3</text>
	<text transform="matrix(1 0 0 1 18.75 57.50)">4</text>
	<text transform="matrix(1 0 0 1 18.75 75.50)">5</text>
	<text transform="matrix(1 0 0 1 68.25 12.13)">6</text>
	<text transform="matrix(1 0 0 1 41.25 35.50)">7</text>
	<text transform="matrix(1 0 0 1 58.50 31.50)">8</text>
	<text transform="matrix(1 0 0 1 39.75 52.55)">9</text>
	<text transform="matrix(1 0 0 1 44.25 45.50)">10</text>
	<text transform="matrix(1 0 0 1 74.25 43.63)">11</text>
	<text transform="matrix(1 0 0 1 41.50 70.50)">12</text>
	<text transform="matrix(1 0 0 1 39.50 88.63)">13</text>
</g>
</svg>
