<?xml version="1.0" encoding="UTF-8"?>
<!--
Copyright (C) 2018 HanziVG repository contributors
This work makes an extensive use of kanjiVG Copyright (C) 2009/2010/2011 Ulrich Apel
and AnimHanzi Copyright (C) 2016 François Mizessyn.
This work is distributed under the conditions of the Creative Commons
Attribution-Share Alike 3.0 Licence. This means you are free:
* to Share - to copy, distribute and transmit the work
* to Remix - to adapt the work

Under the following conditions:
* Attribution. You must attribute the work by stating your use of HanziVG in
  your own copyright header and linking to animHanzi's website
  (https://github.com/Connum/HanziVG)
* Attribution. You must attribute the work by stating your use of animHanzi in
  your own copyright header and linking to animHanzi's website
  (http://gooo.free.fr/animHanzi/)
* Attribution. You must attribute the work by stating your use of KanjiVG in
  your own copyright header and linking to KanjiVG's website
  (http://kanjivg.tagaini.net)
* Share Alike. If you alter, transform, or build upon this work, you may
  distribute the resulting work only under the same or similar license to this
  one.

See http://creativecommons.org/licenses/by-sa/3.0/ for more details.
-->
<!DOCTYPE svg PUBLIC "-//W3C//DTD SVG 1.0//EN" "http://www.w3.org/TR/2001/REC-SVG-20010904/DTD/svg10.dtd" [
<!ATTLIST g
xmlns:kvg CDATA #FIXED "http://kanjivg.tagaini.net"
kvg:element CDATA #IMPLIED
kvg:variant CDATA #IMPLIED
kvg:partial CDATA #IMPLIED
kvg:original CDATA #IMPLIED
kvg:part CDATA #IMPLIED
kvg:number CDATA #IMPLIED
kvg:tradForm CDATA #IMPLIED
kvg:radicalForm CDATA #IMPLIED
kvg:position CDATA #IMPLIED
kvg:radical CDATA #IMPLIED
kvg:phon CDATA #IMPLIED >
<!ATTLIST path
xmlns:kvg CDATA #FIXED "http://kanjivg.tagaini.net"
kvg:type CDATA #IMPLIED >
]>
<svg xmlns="http://www.w3.org/2000/svg" width="109" height="109" viewBox="0 0 109 109">
<g style="fill:none;stroke:#000000;stroke-width:3;stroke-linecap:round;stroke-linejoin:round;" id="hvg:StrokePaths_079df">
<g kvg:element="租" id="hvg:079df">
	<g kvg:radical="general" kvg:position="left" kvg:element="禾" id="hvg:079df-g1">
		<g kvg:position="top" kvg:element="丿" id="hvg:079df-g2">
			<path d="M40.5,15.5c0.07,0.34,0.14,0.87-0.14,1.35c-1.62,2.84-10.9,9.08-23.62,12.9" kvg:type="㇒" id="hvg:079df-s1"/>
		</g>
		<g kvg:position="bottom" kvg:element="木" id="hvg:079df-g3">
			<path d="M12.87,42.58c0.3,0.17,2.62,0.45,3.43,0.51c2.24,0.17,23.56-2.56,29.16-3.41c0.81-0.12,1.02-0.17,1.53,0" kvg:type="㇐" id="hvg:079df-s2"/>
			<path d="m 32.08,26.66 c 1.13,1.13 1.41,2.34 1.41,4.19 0,4.25 0,37.59 -0.03,54.4 -0.01,4.58 -0.02,7.89 -0.04,9" kvg:type="㇑" id="hvg:079df-s3"/>
			<path d="M33.68,42.97C28.83,54.78,20.73,69.34,9.75,79" kvg:type="㇒" id="hvg:079df-s4"/>
			<path d="M36.5,52c3.56,2.04,6.58,6.12,8.5,8.75" kvg:type="㇔/㇏" id="hvg:079df-s5"/>
		</g>
	</g>
	<g kvg:position="right" kvg:element="且" id="hvg:079df-g4">
		<g kvg:element="月" id="hvg:079df-g5">
			<path d="M54.77,25.73c0.58,0.98,0.96,1.94,1.16,2.9c0.2,0.96,0.43,57.8,0.35,59.92" kvg:type="㇑a" id="hvg:079df-s6"/>
			<path d="M57.06,26.81c2.23-0.1,22.7-2.82,24.36-2.99c2.98-0.29,4.11,3.32,3.74,4.71c-0.35,1.34-0.18,38.05-0.28,57.15" kvg:type="㇕b" id="hvg:079df-s7"/>
			<path d="M57.14,46.85c4.57-0.57,9.15-1.08,13.74-1.54c1.23-0.12,2.45-0.24,3.64-0.35" kvg:type="㇐a" id="hvg:079df-s8"/>
			<path d="M57.59,66.2c4.2-0.24,9.39-0.64,13.58-0.97c1.21-0.09,2.44-0.19,3.64-0.27" kvg:type="㇐a" id="hvg:079df-s9"/>
		</g>
		<g kvg:element="一" id="hvg:079df-g6">
			<path d="M43.04,89.59c1.19,0.41,3.38,0.48,4.57,0.41c12.42-0.69,35.35-2.75,47.84-2.75c1.99,0,3.18,0.2,4.18,0.4" kvg:type="㇐" id="hvg:079df-s10"/>
		</g>
	</g>
</g>
</g>
<g style="font-size:8;fill:#808080" id="hvg:StrokeNumbers_079df">
	<text transform="matrix(1 0 0 1 32.25 13.63)">1</text>
	<text transform="matrix(1 0 0 1 5.25 43.55)">2</text>
	<text transform="matrix(1 0 0 1 26.25 36.13)">3</text>
	<text transform="matrix(1 0 0 1 20.25 54.13)">4</text>
	<text transform="matrix(1 0 0 1 39.75 52.63)">5</text>
	<text transform="matrix(1 0 0 1 48.50 35.50)">6</text>
	<text transform="matrix(1 0 0 1 57.75 23.50)">7</text>
	<text transform="matrix(1 0 0 1 60.75 43.55)">8</text>
	<text transform="matrix(1 0 0 1 60.75 62.50)">9</text>
	<text transform="matrix(1 0 0 1 40.50 86.50)">10</text>
</g>
</svg>
