<?xml version="1.0" encoding="UTF-8"?>
<!--
Copyright (C) 2018 HanziVG repository contributors
This work makes an extensive use of kanjiVG Copyright (C) 2009/2010/2011 Ulrich Apel
and AnimHanzi Copyright (C) 2016 François Mizessyn.
This work is distributed under the conditions of the Creative Commons
Attribution-Share Alike 3.0 Licence. This means you are free:
* to Share - to copy, distribute and transmit the work
* to Remix - to adapt the work

Under the following conditions:
* Attribution. You must attribute the work by stating your use of HanziVG in
  your own copyright header and linking to animHanzi's website
  (https://github.com/Connum/HanziVG)
* Attribution. You must attribute the work by stating your use of animHanzi in
  your own copyright header and linking to animHanzi's website
  (http://gooo.free.fr/animHanzi/)
* Attribution. You must attribute the work by stating your use of KanjiVG in
  your own copyright header and linking to KanjiVG's website
  (http://kanjivg.tagaini.net)
* Share Alike. If you alter, transform, or build upon this work, you may
  distribute the resulting work only under the same or similar license to this
  one.

See http://creativecommons.org/licenses/by-sa/3.0/ for more details.
-->
<!DOCTYPE svg PUBLIC "-//W3C//DTD SVG 1.0//EN" "http://www.w3.org/TR/2001/REC-SVG-20010904/DTD/svg10.dtd" [
<!ATTLIST g
xmlns:kvg CDATA #FIXED "http://kanjivg.tagaini.net"
kvg:element CDATA #IMPLIED
kvg:variant CDATA #IMPLIED
kvg:partial CDATA #IMPLIED
kvg:original CDATA #IMPLIED
kvg:part CDATA #IMPLIED
kvg:number CDATA #IMPLIED
kvg:tradForm CDATA #IMPLIED
kvg:radicalForm CDATA #IMPLIED
kvg:position CDATA #IMPLIED
kvg:radical CDATA #IMPLIED
kvg:phon CDATA #IMPLIED >
<!ATTLIST path
xmlns:kvg CDATA #FIXED "http://kanjivg.tagaini.net"
kvg:type CDATA #IMPLIED >
]>
<svg xmlns="http://www.w3.org/2000/svg" width="109" height="109" viewBox="0 0 109 109">
<g style="fill:none;stroke:#000000;stroke-width:3;stroke-linecap:round;stroke-linejoin:round;" id="hvg:StrokePaths_07b2c">
<g kvg:element="第" id="hvg:07b2c">
	<g kvg:radical="general" kvg:position="top" kvg:variant="true" kvg:element="竹" id="hvg:07b2c-g1">
		<g kvg:position="left" id="hvg:07b2c-g2" kvg:element="亇" kvg:variant="true" kvg:number="1">
			<path d="M32,11.12c0.08,1.12-0.04,2.14-0.38,3.21C30,19.39,23.93,30.01,17.12,35.5" kvg:type="㇒" id="hvg:07b2c-s1"/>
			<path d="M30.73,22.54c2.95,0,12.14-1.29,17.77-2.29C49.92,20,51.65,20,52.5,20" kvg:type="㇐b" id="hvg:07b2c-s2"/>
			<path d="M35.5,25.12c2.4,1.47,6.21,6.05,6.81,8.34" kvg:type="㇔/㇑" id="hvg:07b2c-s3"/>
		</g>
		<g kvg:position="right" id="hvg:07b2c-g3" kvg:element="亇" kvg:variant="true" kvg:number="2">
			<path d="M66,9.75c0.12,0.88,0.1,1.44-0.05,1.94c-1.07,3.78-5.83,11.68-10.21,16.06" kvg:type="㇒" id="hvg:07b2c-s4"/>
			<path d="M64.98,19.66C70.62,19.5,80,18,86.28,16.82c1.52-0.29,3.97-0.32,5.1,0.02" kvg:type="㇐b" id="hvg:07b2c-s5"/>
			<path d="m 73.512703,22.035359 c 2.4,1.47 6.21,6.05 6.81,8.34" kvg:type="㇔/㇑" id="hvg:07b2c-s6"/>
		</g>
	</g>
	<g kvg:phon="弟T" kvg:position="bottom" id="hvg:07b2c-g4" kvg:element="𢎨">
		<g kvg:element="弔" id="hvg:07b2c-g5">
			<g kvg:element="弓" id="hvg:07b2c-g6">
				<path d="M27.12,41.42c2.6,0.92,5.35,0.61,8.01,0.23c14.43-2.07,28.84-4.11,43.22-5.94c1.89-0.24,3.85,1.67,3.05,3.47c-0.91,2.06-2.41,7.98-2.88,10.12" kvg:type="㇕c" id="hvg:07b2c-s7"/>
				<path d="M26.5,54.75c1.62,0.25,3.27,0.23,5.73-0.03C44.75,53.38,73,50,75.39,49.75c1.9-0.2,3.83-0.25,5.36-0.25" kvg:type="㇐" id="hvg:07b2c-s8"/>
				<path d="M27.68,55.53c0.71,0.71,0.94,1.85,0.49,3.06C27.6,60.14,25.5,65.5,24.05,68c-1.06,1.83-0.8,3.47,1.82,3.01c2.5-0.44,56.35-7.49,63-8.38c4.63-0.62,5.76,2,4.79,4.87c-1.8,5.37-3.46,9.42-5.74,14.37c-3.17,6.88-6.67,0.88-8.67-1.55" kvg:type="㇉" id="hvg:07b2c-s9"/>
			</g>
			<g kvg:element="丨" id="hvg:07b2c-g7">
				<path d="M54.87,41.73c1.08,1.08,1.71,2.27,1.71,4.02c0,9.08-0.01,36.83-0.12,49.25c-0.03,2.81-0.06,4.82-0.1,5.64" kvg:type="㇑" id="hvg:07b2c-s10"/>
			</g>
		</g>
		<g kvg:element="丿" id="hvg:07b2c-g8">
			<path d="M51.96,68.5c0.08,0.64-0.41,1.45-0.96,2.25c-3.75,5.5-13,17.5-28,25.75" kvg:type="㇒" id="hvg:07b2c-s11"/>
		</g>
	</g>
</g>
</g>
<g style="font-size:8;fill:#808080" id="hvg:StrokeNumbers_07b2c">
	<text transform="matrix(1 0 0 1 23.50 11.50)">1</text>
	<text transform="matrix(1 0 0 1 38.50 18.50)">2</text>
	<text transform="matrix(1 0 0 1 30.50 30.50)">3</text>
	<text transform="matrix(1 0 0 1 57.50 11.50)">4</text>
	<text transform="matrix(1 0 0 1 71.50 15.50)">5</text>
	<text transform="matrix(1 0 0 1 66.75 27.50)">6</text>
	<text transform="matrix(1 0 0 1 20.25 42.50)">7</text>
	<text transform="matrix(1 0 0 1 31.50 52.63)">8</text>
	<text transform="matrix(1 0 0 1 20.50 58.50)">9</text>
	<text transform="matrix(1 0 0 1 45.50 47.50)">10</text>
	<text transform="matrix(1 0 0 1 36.50 78.50)">11</text>
</g>
</svg>
