<?xml version="1.0" encoding="UTF-8"?>
<!--
Copyright (C) 2018 HanziVG repository contributors
This work makes an extensive use of kanjiVG Copyright (C) 2009/2010/2011 Ulrich Apel
and AnimHanzi Copyright (C) 2016 François Mizessyn.
This work is distributed under the conditions of the Creative Commons
Attribution-Share Alike 3.0 Licence. This means you are free:
* to Share - to copy, distribute and transmit the work
* to Remix - to adapt the work

Under the following conditions:
* Attribution. You must attribute the work by stating your use of HanziVG in
  your own copyright header and linking to animHanzi's website
  (https://github.com/Connum/HanziVG)
* Attribution. You must attribute the work by stating your use of animHanzi in
  your own copyright header and linking to animHanzi's website
  (http://gooo.free.fr/animHanzi/)
* Attribution. You must attribute the work by stating your use of KanjiVG in
  your own copyright header and linking to KanjiVG's website
  (http://kanjivg.tagaini.net)
* Share Alike. If you alter, transform, or build upon this work, you may
  distribute the resulting work only under the same or similar license to this
  one.

See http://creativecommons.org/licenses/by-sa/3.0/ for more details.
-->
<!DOCTYPE svg PUBLIC "-//W3C//DTD SVG 1.0//EN" "http://www.w3.org/TR/2001/REC-SVG-20010904/DTD/svg10.dtd" [
<!ATTLIST g
xmlns:kvg CDATA #FIXED "http://kanjivg.tagaini.net"
kvg:element CDATA #IMPLIED
kvg:variant CDATA #IMPLIED
kvg:partial CDATA #IMPLIED
kvg:original CDATA #IMPLIED
kvg:part CDATA #IMPLIED
kvg:number CDATA #IMPLIED
kvg:tradForm CDATA #IMPLIED
kvg:radicalForm CDATA #IMPLIED
kvg:position CDATA #IMPLIED
kvg:radical CDATA #IMPLIED
kvg:phon CDATA #IMPLIED >
<!ATTLIST path
xmlns:kvg CDATA #FIXED "http://kanjivg.tagaini.net"
kvg:type CDATA #IMPLIED >
]>
<svg xmlns="http://www.w3.org/2000/svg" width="109" height="109" viewBox="0 0 109 109">
<g style="fill:none;stroke:#000000;stroke-width:3;stroke-linecap:round;stroke-linejoin:round;" id="hvg:StrokePaths_08003">
<g kvg:element="考" id="hvg:08003">
	<g kvg:radical="general" kvg:partial="true" kvg:original="老" kvg:element="耂" id="hvg:08003-g1" kvg:position="top">
		<g kvg:element="土" id="hvg:08003-g2">
			<path d="M35,24.95c0.77,0.33,2.19,0.37,2.96,0.33c8.79-0.53,18.04-2.78,29.21-3.25c1.29-0.05,2.06,0.16,2.71,0.32" kvg:type="㇐" id="hvg:08003-s1"/>
			<path d="M51.92,10.87c0.12,0.29,1.65,1.53,1.77,3.39C54.26,23.19,54,34.96,54,38" kvg:type="㇑a" id="hvg:08003-s2"/>
			<path d="M13.25,42.28c1.9,0.69,5.37,0.87,7.27,0.69c24.15-2.22,39.45-4.97,69.23-5.68c3.16-0.08,5.05,0.33,6.63,0.68" kvg:type="㇐" id="hvg:08003-s3"/>
		</g>
		<g id="hvg:08003-g3" kvg:element="丿">
			<path d="M81.09,13.98c0.17,1.31,0.43,3.22-0.84,4.77C63.84,38.73,51,51.5,20.31,69.47" kvg:type="㇒" id="hvg:08003-s4"/>
		</g>
	</g>
	<g id="hvg:08003-g4" kvg:element="丂" kvg:position="bottom">
		<path d="m 45.304025,53.579448 c 10.10598,-1.118145 17.270968,-1.886904 26.442797,-2.075212" kvg:type="㇐/㇒" id="hvg:08003-s5"/>
		<path d="m 50.459746,53.502119 c 0.25,1.25 0.75,1.75 -0.98,4.08 -0.88,1.19 -5.26,8.83 -5.76,9.45 -2.01,2.47 -1.51,4.22 1.14,4.25 1.67,0.02 25.24,-3.56 29.51,-4.24 3.34,-0.53 4.84,2.47 3.93,5.1 -2.3,6.72 -8.04,20.83 -12.33,25.88 -2.51,2.980001 -5.26,0.73 -7.52,-2.57" kvg:type="㇉" id="hvg:08003-s6"/>
	</g>
</g>
</g>
<g style="font-size:8;fill:#808080" id="hvg:StrokeNumbers_08003">
	<text transform="matrix(1 0 0 1 27.75 25.50)">1</text>
	<text transform="matrix(1 0 0 1 41.50 11.50)">2</text>
	<text transform="matrix(1 0 0 1 5.25 43.50)">3</text>
	<text transform="matrix(1 0 0 1 73.50 12.50)">4</text>
	<text y="52.060715" x="38.588982">5</text>
	<text y="61.065773" x="51.507149">6</text>
</g>
</svg>
