<?xml version="1.0" encoding="UTF-8"?>
<!--
Copyright (C) 2018 HanziVG repository contributors
This work makes an extensive use of kanjiVG Copyright (C) 2009/2010/2011 Ulrich Apel
and AnimHanzi Copyright (C) 2016 François Mizessyn.
This work is distributed under the conditions of the Creative Commons
Attribution-Share Alike 3.0 Licence. This means you are free:
* to Share - to copy, distribute and transmit the work
* to Remix - to adapt the work

Under the following conditions:
* Attribution. You must attribute the work by stating your use of HanziVG in
  your own copyright header and linking to animHanzi's website
  (https://github.com/Connum/HanziVG)
* Attribution. You must attribute the work by stating your use of animHanzi in
  your own copyright header and linking to animHanzi's website
  (http://gooo.free.fr/animHanzi/)
* Attribution. You must attribute the work by stating your use of KanjiVG in
  your own copyright header and linking to KanjiVG's website
  (http://kanjivg.tagaini.net)
* Share Alike. If you alter, transform, or build upon this work, you may
  distribute the resulting work only under the same or similar license to this
  one.

See http://creativecommons.org/licenses/by-sa/3.0/ for more details.
-->
<!DOCTYPE svg PUBLIC "-//W3C//DTD SVG 1.0//EN" "http://www.w3.org/TR/2001/REC-SVG-20010904/DTD/svg10.dtd" [
<!ATTLIST g
xmlns:kvg CDATA #FIXED "http://kanjivg.tagaini.net"
kvg:element CDATA #IMPLIED
kvg:variant CDATA #IMPLIED
kvg:partial CDATA #IMPLIED
kvg:original CDATA #IMPLIED
kvg:part CDATA #IMPLIED
kvg:number CDATA #IMPLIED
kvg:tradForm CDATA #IMPLIED
kvg:radicalForm CDATA #IMPLIED
kvg:position CDATA #IMPLIED
kvg:radical CDATA #IMPLIED
kvg:phon CDATA #IMPLIED >
<!ATTLIST path
xmlns:kvg CDATA #FIXED "http://kanjivg.tagaini.net"
kvg:type CDATA #IMPLIED >
]>
<svg xmlns="http://www.w3.org/2000/svg" width="109" height="109" viewBox="0 0 109 109">
<g style="fill:none;stroke:#000000;stroke-width:3;stroke-linecap:round;stroke-linejoin:round;" id="hvg:StrokePaths_0821e">
<g kvg:element="舞" id="hvg:0821e">
	<g kvg:position="top" id="hvg:0821e-g1">
		<g kvg:element="丿" id="hvg:0821e-g2">
			<path d="M38.19,11.45c0.05,0.5,0.26,1.48-0.09,2.01C33,21,27.5,26.75,20.49,32.65" kvg:type="㇒" id="hvg:0821e-s1"/>
		</g>
		<path d="M34.39,21.23c8.91-0.24,37.22-3.61,45.76-4.2c1.98-0.14,3.19,0.18,4.18,0.36" kvg:type="㇐" id="hvg:0821e-s2"/>
		<g kvg:element="一" id="hvg:0821e-g3">
			<path d="M22.5,38.37c1.47,0.52,4.18,0.77,5.63,0.52c5.94-1.02,36.34-3.83,52.23-4.54c2.44-0.11,3.91,0.25,5.14,0.51" kvg:type="㇐" id="hvg:0821e-s3"/>
		</g>
		<path d="M34.27,25.73c0.96,0.44,1.69,1.97,1.73,2.87c0.25,5.9,0.84,13.4,1.14,21.01" kvg:type="㇑" id="hvg:0821e-s4"/>
		<path d="M48.26,24.68c0.94,0.43,1.7,1.91,1.68,2.79c-0.07,4.73,0.15,9.39,0.15,21.64" kvg:type="㇑" id="hvg:0821e-s5"/>
		<path d="M61.15,21.89c0.94,0.43,1.75,1.92,1.68,2.79c-0.5,6.88-0.43,9.53-1.07,23.07" kvg:type="㇑" id="hvg:0821e-s6"/>
		<path d="M74.47,21.32c0.94,0.43,1.97,1.96,1.68,3.65c-1.14,6.88-1.57,8.96-3.72,22.28" kvg:type="㇑" id="hvg:0821e-s7"/>
		<path d="M14.05,50.73c2.01,0.72,5.7,0.89,7.7,0.72c11.48-0.98,43.43-3.96,65.17-4.93c3.34-0.15,5.36,0.34,7.03,0.7" kvg:type="㇐" id="hvg:0821e-s8"/>
	</g>
	<g kvg:radical="general" kvg:position="bottom" kvg:variant="true" kvg:element="舛" id="hvg:0821e-g4">
		<g kvg:position="left" kvg:element="夕" id="hvg:0821e-g5">
			<path d="M31.71,55.89c0.15,0.34,0.45,1.35,0.29,2.02c-0.95,3.98-6.78,12.57-14.26,17.91" kvg:type="㇒" id="hvg:0821e-s9"/>
			<path d="M32.7,61.2c0.26,0.03,2.37,0,3.12-0.1c2.45-0.31,7-1.74,10.26-2.93c2.34-0.85,3.08,0.75,2.47,2.54C45.19,70.5,32,89.5,13.25,97.5" kvg:type="㇇" id="hvg:0821e-s10"/>
			<path d="M27.61,69.72c2.75,1.19,7.1,4.9,7.79,6.75" kvg:type="㇔" id="hvg:0821e-s11"/>
		</g>
		<g kvg:position="right" id="hvg:0821e-g6">
			<path d="M61.38,61.01c0.65,0.26,1.84,0.33,2.48,0.26c4.13-0.46,15.32-2.93,19.78-2.83c1.08,0.02,1.73,0.12,2.27,0.26" kvg:type="㇐" id="hvg:0821e-s12"/>
			<path id="hvg:0821e-s13" d="m 59.811441,66.04661 c 0,0 -2.07839,9.352754 -4.73411,13.163136 0,0 33.254237,-7.851695 40.759534,-3.694916" kvg:type="㇜"/>
			<path d="m 72.33,50.75 c 0.91,0.42 1.46,1.89 1.64,2.73 0.18,0.84 0,40.28 -0.18,45.52" kvg:type="㇑" id="hvg:0821e-s14"/>
		</g>
	</g>
</g>
</g>
<g style="font-size:8;fill:#808080" id="hvg:StrokeNumbers_0821e">
	<text transform="matrix(1 0 0 1 31.50 11.50)">1</text>
	<text transform="matrix(1 0 0 1 42.50 17.50)">2</text>
	<text transform="matrix(1 0 0 1 16.00 39.50)">3</text>
	<text transform="matrix(1 0 0 1 28.50 33.50)">4</text>
	<text transform="matrix(1 0 0 1 41.50 29.50)">5</text>
	<text transform="matrix(1 0 0 1 55.50 28.50)">6</text>
	<text transform="matrix(1 0 0 1 68.25 27.50)">7</text>
	<text transform="matrix(1 0 0 1 7.75 51.50)">8</text>
	<text transform="matrix(1 0 0 1 23.50 60.50)">9</text>
	<text transform="matrix(1 0 0 1 35.25 57.50)">10</text>
	<text transform="matrix(1 0 0 1 31.50 70.50)">11</text>
	<text y="58.423729" x="53.417374">12</text>
	<text y="71.786781" x="47.534958">13</text>
	<text transform="matrix(1 0 0 1 76.25 55.03)">14</text>
</g>
</svg>
