<?xml version="1.0" encoding="UTF-8"?>
<!--
Copyright (C) 2018 HanziVG repository contributors
This work makes an extensive use of kanjiVG Copyright (C) 2009/2010/2011 Ulrich Apel
and AnimHanzi Copyright (C) 2016 François Mizessyn.
This work is distributed under the conditions of the Creative Commons
Attribution-Share Alike 3.0 Licence. This means you are free:
* to Share - to copy, distribute and transmit the work
* to Remix - to adapt the work

Under the following conditions:
* Attribution. You must attribute the work by stating your use of HanziVG in
  your own copyright header and linking to animHanzi's website
  (https://github.com/Connum/HanziVG)
* Attribution. You must attribute the work by stating your use of animHanzi in
  your own copyright header and linking to animHanzi's website
  (http://gooo.free.fr/animHanzi/)
* Attribution. You must attribute the work by stating your use of KanjiVG in
  your own copyright header and linking to KanjiVG's website
  (http://kanjivg.tagaini.net)
* Share Alike. If you alter, transform, or build upon this work, you may
  distribute the resulting work only under the same or similar license to this
  one.

See http://creativecommons.org/licenses/by-sa/3.0/ for more details.
-->
<!DOCTYPE svg PUBLIC "-//W3C//DTD SVG 1.0//EN" "http://www.w3.org/TR/2001/REC-SVG-20010904/DTD/svg10.dtd" [
<!ATTLIST g
xmlns:kvg CDATA #FIXED "http://kanjivg.tagaini.net"
kvg:element CDATA #IMPLIED
kvg:variant CDATA #IMPLIED
kvg:partial CDATA #IMPLIED
kvg:original CDATA #IMPLIED
kvg:part CDATA #IMPLIED
kvg:number CDATA #IMPLIED
kvg:tradForm CDATA #IMPLIED
kvg:radicalForm CDATA #IMPLIED
kvg:position CDATA #IMPLIED
kvg:radical CDATA #IMPLIED
kvg:phon CDATA #IMPLIED >
<!ATTLIST path
xmlns:kvg CDATA #FIXED "http://kanjivg.tagaini.net"
kvg:type CDATA #IMPLIED >
]>
<svg xmlns="http://www.w3.org/2000/svg" width="109" height="109" viewBox="0 0 109 109">
<g style="fill:none;stroke:#000000;stroke-width:3;stroke-linecap:round;stroke-linejoin:round;" id="hvg:StrokePaths_082f9">
<g kvg:element="苹" id="hvg:082f9">
	<g kvg:radical="general" kvg:position="top" kvg:original="艸" kvg:variant="true" kvg:element="艹" id="hvg:082f9-g1">
		<path d="M19.25,21.25c1.29,0.53,4.5,0.5,7.67,0.33c11.92-0.63,44.95-3.26,58.67-3.33c2.16-0.01,5.42,0.4,6.5,0.67" kvg:type="㇐" id="hvg:082f9-s1"/>
		<path d="M38.42,11.42c1.58,0.83,2.7,2.54,2.83,3.33c1.25,7.42,0.98,13.14,1.33,15.83" kvg:type="㇑a" id="hvg:082f9-s2"/>
		<path d="M66.75,8.58c1.65,1.01,1.29,2.61,1,4.17c-0.83,4.5-2,10.33-3.92,16.67" kvg:type="㇑a" id="hvg:082f9-s3"/>
	</g>
	<g kvg:position="bottom" kvg:variant="true" kvg:element="平" id="hvg:082f9-g2">
		<g kvg:element="干" id="hvg:082f9-g3" kvg:number="1">
			<path d="M26.42,35.58c3.08,0.67,5.83,0.67,9.17,0.67c6.83,0,30.19-1.6,41.83-2.17c1.64-0.08,6.51-0.15,7.33,0" kvg:type="㇐" id="hvg:082f9-s4"/>
		</g>
		<path d="m 28.197671,44.35 c 2.226325,4.414289 15.029378,14.682581 17.78,16.23" kvg:type="㇒" id="hvg:082f9-s5"/>
		<path d="m 77.65,42.380491 c -3.038335,4.524677 -10.143491,11.78852 -16.5,16.92" kvg:type="㇔" id="hvg:082f9-s6"/>
		<g kvg:element="干" id="hvg:082f9-g4" kvg:number="1">
			<g kvg:element="十" id="hvg:082f9-g5">
				<path d="M14.08,65.92c2.92,1.33,6.42,1.08,10,0.83c18.3-1.28,38.93-2.44,61.67-3.33C90,63.25,93,63.5,94.92,64.25" kvg:type="㇐" id="hvg:082f9-s7"/>
				<path d="M53.25,36.58c0.85,0.37,0.94,4.62,1.11,5.36c0.17,0.74-0.11,54.02-0.28,58.64" kvg:type="㇑" id="hvg:082f9-s8"/>
			</g>
		</g>
	</g>
</g>
</g>
<g style="font-size:8;fill:#808080" id="hvg:StrokeNumbers_082f9">
	<text transform="matrix(1 0 0 1 12.25 22.25)">1</text>
	<text transform="matrix(1 0 0 1 29.25 12.25)">2</text>
	<text transform="matrix(1 0 0 1 58.25 9.25)">3</text>
	<text transform="matrix(1 0 0 1 19.25 36.25)">4</text>
	<text y="46.25" x="21.25">5</text>
	<text y="45.25" x="79.59639">6</text>
	<text transform="matrix(1 0 0 1 7.25 65.25)">7</text>
	<text y="33.086864" x="50.15678">8</text>
</g>
</svg>
