<?xml version="1.0" encoding="UTF-8"?>
<!--
Copyright (C) 2018 HanziVG repository contributors
This work makes an extensive use of kanjiVG Copyright (C) 2009/2010/2011 Ulrich Apel
and AnimHanzi Copyright (C) 2016 François Mizessyn.
This work is distributed under the conditions of the Creative Commons
Attribution-Share Alike 3.0 Licence. This means you are free:
* to Share - to copy, distribute and transmit the work
* to Remix - to adapt the work

Under the following conditions:
* Attribution. You must attribute the work by stating your use of HanziVG in
  your own copyright header and linking to animHanzi's website
  (https://github.com/Connum/HanziVG)
* Attribution. You must attribute the work by stating your use of animHanzi in
  your own copyright header and linking to animHanzi's website
  (http://gooo.free.fr/animHanzi/)
* Attribution. You must attribute the work by stating your use of KanjiVG in
  your own copyright header and linking to KanjiVG's website
  (http://kanjivg.tagaini.net)
* Share Alike. If you alter, transform, or build upon this work, you may
  distribute the resulting work only under the same or similar license to this
  one.

See http://creativecommons.org/licenses/by-sa/3.0/ for more details.
-->
<!DOCTYPE svg PUBLIC "-//W3C//DTD SVG 1.0//EN" "http://www.w3.org/TR/2001/REC-SVG-20010904/DTD/svg10.dtd" [
<!ATTLIST g
xmlns:kvg CDATA #FIXED "http://kanjivg.tagaini.net"
kvg:element CDATA #IMPLIED
kvg:variant CDATA #IMPLIED
kvg:partial CDATA #IMPLIED
kvg:original CDATA #IMPLIED
kvg:part CDATA #IMPLIED
kvg:number CDATA #IMPLIED
kvg:tradForm CDATA #IMPLIED
kvg:radicalForm CDATA #IMPLIED
kvg:position CDATA #IMPLIED
kvg:radical CDATA #IMPLIED
kvg:phon CDATA #IMPLIED >
<!ATTLIST path
xmlns:kvg CDATA #FIXED "http://kanjivg.tagaini.net"
kvg:type CDATA #IMPLIED >
]>
<svg xmlns="http://www.w3.org/2000/svg" width="109" height="109" viewBox="0 0 109 109">
<g style="fill:none;stroke:#000000;stroke-width:3;stroke-linecap:round;stroke-linejoin:round;" id="hvg:StrokePaths_08c01">
<g kvg:element="谁" id="hvg:08c01">
	<g kvg:radical="general" kvg:position="left" kvg:element="讠" id="hvg:08c01-g1">
		<path d="M21.42,13.75c2.51,1.37,8.97,9.11,9.5,11.67" kvg:type="㇔" id="hvg:08c01-s1"/>
		<path d="M12.99,41.54c1.33,0.32,2.63,0.07,3.92-0.24c3.04-0.74,9.44-2.27,12.21-3.06c1.65-0.47,3.45,0.54,3.19,2.55c-0.57,4.49-3.19,24.21-4.99,52.01c1.33,0.32,2.63,-5.07,12.92-15.24" id="hvg:08c01-s2" kvg:type="㇊"/>
	</g>
	<g kvg:position="right" kvg:element="隹" id="hvg:08c01-g2">
		<path d="m58.56 16c0.18 1.71 -0.05 3.94 -0.62 5.4c-3.63 9.31 -8.24 17.2 -16.57 28.53" kvg:type="㇒" id="hvg:08c01-s3"/>
		<path d="m 50.75,37.15 c 0.66,0.88 1.17,2.8 1.21,4.16 0.39,12.12 1.092937,50.222462 -0.699881,51.796944" kvg:type="㇑" id="hvg:08c01-s4"/>
		<path d="m78.57 16.5c0.07 0.92 -0.02 2.12 -0.25 2.9c-1.51 5 -3.42 8.87 -6.89 14.96" kvg:type="㇒" id="hvg:08c01-s5"/>
		<path d="m51.77 37.91c9.28 -1.16 36.84 -4.46 40.13 -5.09" kvg:type="㇐b" id="hvg:08c01-s6"/>
		<path d="M 60.311511,52.82 C 67.541511,51.88 86.4,49.63 89.5,49.11" kvg:type="㇐b" id="hvg:08c01-s7"/>
		<path d="M 60.574568,68.300119 C 68.204568,67.500119 86.2,65.38 89.48,64.94" kvg:type="㇐b" id="hvg:08c01-s8"/>
		<path d="m72.58 37.83c0.37 0.45 0.66 1.06 0.66 1.83c0 7.86 -0.18 34.08 -0.18 45.88" kvg:type="㇑a" id="hvg:08c01-s9"/>
		<path d="m52.44 87.68c7.67 -1.14 39.44 -3.32 42.74 -3.95" kvg:type="㇐b" id="hvg:08c01-s10"/>
	</g>
</g>
</g>
<g style="font-size:8;fill:#808080" id="hvg:StrokeNumbers_08c01">
	<text transform="matrix(1 0 0 1 12.50 15.50)">1</text>
	<text transform="matrix(1 0 0 1 10.50 38.50)">2</text>
	<text transform="matrix(1 0 0 1 49.88 15.85)">3</text>
	<text y="36.493889" x="43.179169">4</text>
	<text transform="matrix(1 0 0 1 68.00 17.70)">5</text>
	<text transform="matrix(1 0 0 1 55.74 34.89)">6</text>
	<text transform="matrix(1 0 0 1 54.62 49.73)">7</text>
	<text transform="matrix(1 0 0 1 54.86 66.15)">8</text>
	<text y="33.266857" x="66.085312">9</text>
	<text y="91.458336" x="39.099915">10</text>
</g>
</svg>
