<?xml version="1.0" encoding="UTF-8"?>
<!--
Copyright (C) 2018 HanziVG repository contributors
This work makes an extensive use of kanjiVG Copyright (C) 2009/2010/2011 Ulrich Apel
and AnimHanzi Copyright (C) 2016 François Mizessyn.
This work is distributed under the conditions of the Creative Commons
Attribution-Share Alike 3.0 Licence. This means you are free:
* to Share - to copy, distribute and transmit the work
* to Remix - to adapt the work

Under the following conditions:
* Attribution. You must attribute the work by stating your use of HanziVG in
  your own copyright header and linking to animHanzi's website
  (https://github.com/Connum/HanziVG)
* Attribution. You must attribute the work by stating your use of animHanzi in
  your own copyright header and linking to animHanzi's website
  (http://gooo.free.fr/animHanzi/)
* Attribution. You must attribute the work by stating your use of KanjiVG in
  your own copyright header and linking to KanjiVG's website
  (http://kanjivg.tagaini.net)
* Share Alike. If you alter, transform, or build upon this work, you may
  distribute the resulting work only under the same or similar license to this
  one.

See http://creativecommons.org/licenses/by-sa/3.0/ for more details.
-->
<!DOCTYPE svg PUBLIC "-//W3C//DTD SVG 1.0//EN" "http://www.w3.org/TR/2001/REC-SVG-20010904/DTD/svg10.dtd" [
<!ATTLIST g
xmlns:kvg CDATA #FIXED "http://kanjivg.tagaini.net"
kvg:element CDATA #IMPLIED
kvg:variant CDATA #IMPLIED
kvg:partial CDATA #IMPLIED
kvg:original CDATA #IMPLIED
kvg:part CDATA #IMPLIED
kvg:number CDATA #IMPLIED
kvg:tradForm CDATA #IMPLIED
kvg:radicalForm CDATA #IMPLIED
kvg:position CDATA #IMPLIED
kvg:radical CDATA #IMPLIED
kvg:phon CDATA #IMPLIED >
<!ATTLIST path
xmlns:kvg CDATA #FIXED "http://kanjivg.tagaini.net"
kvg:type CDATA #IMPLIED >
]>
<svg xmlns="http://www.w3.org/2000/svg" width="109" height="109" viewBox="0 0 109 109">
<g id="hvg:StrokePaths_090a3" style="fill:none;stroke:#000000;stroke-width:3;stroke-linecap:round;stroke-linejoin:round;">
<g id="hvg:090a3" kvg:element="那">
	<g id="hvg:090a3-g1" kvg:position="left">
		<path id="hvg:090a3-s1" kvg:type="㇆" d="M14.75,22.25c2.11,1.07,5.63,0.54,7.89,0.22c8.42-1.17,18.14-2.8,23.61-3.57c4.26-0.6,5.62,0.72,5.75,5.6c0.29,11-1.64,48.05-7.03,60.5c-4.22,9.75-8.33,0.34-9.87-0.75"/>
		<g id="hvg:090a3-g2" kvg:element="二">
			<g id="hvg:090a3-g3" kvg:position="top">
				<path id="hvg:090a3-s2" kvg:type="㇐" d="M15,42.14c1.88,0.76,4.71,0.52,6.66,0.23c5.42-0.79,12.98-2.38,18.1-3.16c2.01-0.3,3.75-0.44,5.74,0.05"/>
			</g>
			<g id="hvg:090a3-g4" kvg:position="bottom">
				<path id="hvg:090a3-s3" kvg:type="㇐" d="M13,58.89c1.91,0.78,4.79,0.5,6.77,0.21c5.35-0.78,13.61-2.51,18.98-3.35c2.1-0.33,3.92-0.5,6,0"/>
			</g>
		</g>
		<path id="hvg:090a3-s4" kvg:type="㇒" d="M30.77,25.28c1.22,1.22,1.36,2.64,1.33,4.84c-0.35,28-3.98,48.63-22.54,59.63"/>
	</g>
	<g id="hvg:090a3-g5" kvg:element="⻏" kvg:variant="true" kvg:original="邑" kvg:position="right" kvg:radical="general">
		<path id="hvg:090a3-s6" d="m 80.25,41.25 c 22.5,12 16.25,42.5 1.23,32.16 M 65.42,22.42 c 1.08,0.46 2.58,0.56 3.9,0.44 6.19,-0.6 12.56,-2.1 16.35,-2.94 3.09,-0.68 4.98,1.62 3.92,4.08 -0.77,1.79 -5.21,9.38 -9.33,17.25" kvg:type="㇌"/>
		<path id="hvg:090a3-s7" kvg:type="㇑" d="M67.33,23.25c0.71,0.71,0.75,2.08,0.75,3.37c0,11.99,0.02,45.21,0.03,63.01c0,3.84,0,7,0,9.12"/>
	</g>
</g>
</g>
<g id="hvg:StrokeNumbers_090a3" style="font-size:8;fill:#808080">
	<text transform="matrix(1 0 0 1 8.25 21.25)">1</text>
	<text transform="matrix(1 0 0 1 8.25 42.25)">2</text>
	<text transform="matrix(1 0 0 1 5.25 60.25)">3</text>
	<text transform="matrix(1 0 0 1 24.25 31.15)">4</text>
	<text transform="matrix(1 0 0 1 68.25 20.25)">5</text>
	<text transform="translate(60.25,31.25)">6</text>
</g>
</svg>
