<?xml version="1.0" encoding="UTF-8"?>
<!--
Copyright (C) 2018 HanziVG repository contributors
This work makes an extensive use of kanjiVG Copyright (C) 2009/2010/2011 Ulrich Apel
and AnimHanzi Copyright (C) 2016 François Mizessyn.
This work is distributed under the conditions of the Creative Commons
Attribution-Share Alike 3.0 Licence. This means you are free:
* to Share - to copy, distribute and transmit the work
* to Remix - to adapt the work

Under the following conditions:
* Attribution. You must attribute the work by stating your use of HanziVG in
  your own copyright header and linking to animHanzi's website
  (https://github.com/Connum/HanziVG)
* Attribution. You must attribute the work by stating your use of animHanzi in
  your own copyright header and linking to animHanzi's website
  (http://gooo.free.fr/animHanzi/)
* Attribution. You must attribute the work by stating your use of KanjiVG in
  your own copyright header and linking to KanjiVG's website
  (http://kanjivg.tagaini.net)
* Share Alike. If you alter, transform, or build upon this work, you may
  distribute the resulting work only under the same or similar license to this
  one.

See http://creativecommons.org/licenses/by-sa/3.0/ for more details.
-->
<!DOCTYPE svg PUBLIC "-//W3C//DTD SVG 1.0//EN" "http://www.w3.org/TR/2001/REC-SVG-20010904/DTD/svg10.dtd" [
<!ATTLIST g
xmlns:kvg CDATA #FIXED "http://kanjivg.tagaini.net"
kvg:element CDATA #IMPLIED
kvg:variant CDATA #IMPLIED
kvg:partial CDATA #IMPLIED
kvg:original CDATA #IMPLIED
kvg:part CDATA #IMPLIED
kvg:number CDATA #IMPLIED
kvg:tradForm CDATA #IMPLIED
kvg:radicalForm CDATA #IMPLIED
kvg:position CDATA #IMPLIED
kvg:radical CDATA #IMPLIED
kvg:phon CDATA #IMPLIED >
<!ATTLIST path
xmlns:kvg CDATA #FIXED "http://kanjivg.tagaini.net"
kvg:type CDATA #IMPLIED >
]>
<svg xmlns="http://www.w3.org/2000/svg" width="109" height="109" viewBox="0 0 109 109">
<g style="fill:none;stroke:#000000;stroke-width:3;stroke-linecap:round;stroke-linejoin:round;" id="hvg:StrokePaths_090fd">
<g kvg:element="都" id="hvg:090fd">
	<g kvg:phon="者" kvg:position="left" kvg:element="者" id="hvg:090fd-g1">
		<g kvg:partial="true" kvg:original="老" kvg:element="耂" id="hvg:090fd-g2">
			<g kvg:element="土" id="hvg:090fd-g3">
				<path d="M20.68,27.91c1.04,0.36,3.12,0.38,4.18,0.25C30.25,27.5,37.25,26.88,43,26.3c1.41-0.14,3.62-0.34,5-0.05" kvg:type="㇐" id="hvg:090fd-s1"/>
				<path d="M34.63,11.67c1.04,1.04,1.45,2.37,1.54,4.05c0.41,8.04,0.22,21.42,0.22,24.16" kvg:type="㇑a" id="hvg:090fd-s2"/>
				<path d="M10.25,43.27c2.55,0.38,4.97,0.14,7.51-0.08c9.37-0.82,26.46-2.77,35.48-3.53c2.39-0.2,4.57-0.43,6.89,0.33" kvg:type="㇐" id="hvg:090fd-s3"/>
			</g>
			<path d="M55.13,17.1c0.11,1.16-0.12,2.78-0.98,4.15C43,39.12,31.12,54.88,13.42,68.52" kvg:type="㇒" id="hvg:090fd-s4"/>
		</g>
		<g kvg:element="日" id="hvg:090fd-g4">
			<path d="M28.12,56.89c0.31,0.76,0.62,1.89,0.62,2.9c0,0.78,0.13,16.5,0.07,24.7c-0.02,2.44-0.03,4.06-0.03,4.18" kvg:type="㇑" id="hvg:090fd-s5"/>
			<path d="M30.02,55.52c1.54-0.11,14.72-1.61,19.11-2.09c2.37-0.26,3.43,0.55,3.33,2.94c-0.14,3.26-0.22,16.07-0.24,26c0,1.87-0.01,3.63,0,5.21" kvg:type="㇕a" id="hvg:090fd-s6"/>
			<path d="M29.83,69.75c4.3-0.5,17.17-2,21.06-2.22" kvg:type="㇐a" id="hvg:090fd-s7"/>
			<path d="M29.97,84.6c4.85-0.55,15.12-1.5,21.16-1.97" kvg:type="㇐a" id="hvg:090fd-s8"/>
		</g>
	</g>
	<g kvg:radical="general" kvg:position="right" kvg:original="邑" kvg:variant="true" kvg:element="⻏" id="hvg:090fd-g5">
		<path id="hvg:090fd-s10" d="m 66.52,22.39 c 1.35,0.48 2.84,0.61 4.12,0.44 5.23,-0.7 11.6,-2.33 14.94,-3.11 3.26,-0.76 5.42,0.53 3.92,4.53 -1,2.66 -6.38,14.46 -8.85,18.105 18.23,12.515 17.6,39.395 2.4,32.255" kvg:type="㇌"/>
		<path d="M67.87,23.64c0.87,0.87,1.57,2.23,1.57,3.44c0,0.92,0.01,45.03,0.02,64.29c0,3.47,0,6.13,0,7.59" kvg:type="㇑" id="hvg:090fd-s11"/>
	</g>
</g>
</g>
<g style="font-size:8;fill:#808080" id="hvg:StrokeNumbers_090fd">
	<text transform="matrix(1 0 0 1 14.25 28.63)">1</text>
	<text transform="matrix(1 0 0 1 25.50 12.50)">2</text>
	<text transform="matrix(1 0 0 1 3.50 44.24)">3</text>
	<text transform="matrix(1 0 0 1 49.50 13.63)">4</text>
	<text transform="matrix(1 0 0 1 21.75 71.50)">5</text>
	<text transform="matrix(1 0 0 1 40.50 51.50)">6</text>
	<text transform="matrix(1 0 0 1 32.50 66.13)">7</text>
	<text transform="matrix(1 0 0 1 32.50 81.13)">8</text>
	<text transform="matrix(1 0 0 1 68.50 19.50)">9</text>
	<text y="30.5" x="57.5">10</text>
</g>
</svg>
