<?xml version="1.0" encoding="UTF-8"?>
<!--
Copyright (C) 2020 HanziVG repository contributors
This work makes an extensive use of kanjiVG Copyright (C) 2009/2010/2011 Ulrich Apel
and AnimHanzi Copyright (C) 2016 François Mizessyn.
This work is distributed under the conditions of the Creative Commons
Attribution-Share Alike 3.0 Licence. This means you are free:
* to Share - to copy, distribute and transmit the work
* to Remix - to adapt the work

Under the following conditions:
* Attribution. You must attribute the work by stating your use of HanziVG in
  your own copyright header and linking to animHanzi's website
  (https://github.com/Connum/HanziVG)
* Attribution. You must attribute the work by stating your use of animHanzi in
  your own copyright header and linking to animHanzi's website
  (http://gooo.free.fr/animHanzi/)
* Attribution. You must attribute the work by stating your use of KanjiVG in
  your own copyright header and linking to KanjiVG's website
  (http://kanjivg.tagaini.net)
* Share Alike. If you alter, transform, or build upon this work, you may
  distribute the resulting work only under the same or similar license to this
  one.

See http://creativecommons.org/licenses/by-sa/3.0/ for more details.
-->
<!DOCTYPE svg PUBLIC "-//W3C//DTD SVG 1.0//EN" "http://www.w3.org/TR/2001/REC-SVG-20010904/DTD/svg10.dtd" [
<!ATTLIST g
xmlns:kvg CDATA #FIXED "http://kanjivg.tagaini.net"
kvg:element CDATA #IMPLIED
kvg:variant CDATA #IMPLIED
kvg:partial CDATA #IMPLIED
kvg:original CDATA #IMPLIED
kvg:part CDATA #IMPLIED
kvg:number CDATA #IMPLIED
kvg:tradForm CDATA #IMPLIED
kvg:radicalForm CDATA #IMPLIED
kvg:position CDATA #IMPLIED
kvg:radical CDATA #IMPLIED
kvg:phon CDATA #IMPLIED >
<!ATTLIST path
xmlns:kvg CDATA #FIXED "http://kanjivg.tagaini.net"
kvg:type CDATA #IMPLIED >
]>
<svg xmlns="http://www.w3.org/2000/svg" width="109" height="109" viewBox="0 0 109 109">
<g style="fill:none;stroke:#000000;stroke-width:3;stroke-linecap:round;stroke-linejoin:round;" id="hvg:StrokePaths_09519">
<g kvg:element="错" id="hvg:09519">
	<g kvg:radical="general" kvg:position="left" kvg:original="金" kvg:element="钅" id="hvg:09519-g1">
		<path d="m30.66 15.48c0 1.39 -0.1 2.56 -0.59 3.87c-2.45 6.59 -13.14 23.63 -18.09 28.02" kvg:type="㇒" id="hvg:09519-s1"/>
		<path d="m25.97 28.1c1.63 0.2 0.99 0.44 2.75 0.2c4.32 -0.6 11.02 -1.6 18.23 -2.54" kvg:type="㇐" id="hvg:09519-s2"/>
		<path d="m17.19 45.68c2.05 0.25 1.24 0.55 3.44 0.25c5.4 -0.75 13.77 -2 22.78 -3.17" kvg:type="㇐" id="hvg:09519-s3"/>
		<path d="m12.5 63.73c2.46 0.25 1.5 0.55 4.13 0.25c6.49 -0.75 16.51 -2 27.34 -3.17" kvg:type="㇐" id="hvg:09519-s4"/>
		<path kvg:type="㇙" d="m30.35 45.35c1.29 0.82 0.25 0.55 1.29 3.3c0 4.57 0.64 34.26 -1.36 47.23c-1.95 -0.65 5 -7.68 13.88 -13.78" id="hvg:09519-s5"/>
	</g>
	<g kvg:phon="昔" kvg:position="right" kvg:element="昔" id="hvg:09519-g2">
		<g kvg:element="龷" kvg:position="top" id="hvg:09519-g3">
			<g kvg:variant="true" kvg:element="廾" id="hvg:09519-g4">
				<g kvg:element="十" id="hvg:09519-g5" kvg:number="1">
					<path d="M53.38,34.31c2.37,0.56,4.46,0.39,6.14,0.2c6.8-0.77,20.33-2.2,26.87-2.65c1.69-0.12,3.42-0.31,5.06,0.25" kvg:type="㇐" id="hvg:09519-s6"/>
				</g>
				<g kvg:variant="true" kvg:element="丿" id="hvg:09519-g6">
					<path d="M61.2,19.63c0.8,0.51,1.28,2.3,1.44,3.33c0.16,1.02,0.56,16.38,1.11,26.1" kvg:type="㇑a" id="hvg:09519-s7"/>
				</g>
				<g kvg:element="十" id="hvg:09519-g7" kvg:number="1">
					<path d="M80.84,16.25c0.96,0.96,1.04,2.38,0.94,3.58c-0.08,1.03-2.58,17.19-3.69,27.68" kvg:type="㇑a" id="hvg:09519-s8"/>
				</g>
			</g>
			<path d="M49.97,50.55c3.03,0.58,5.21,0.5,7.54,0.2c10.32-1.35,22.57-2.42,32.5-2.81c2.28-0.09,4.57-0.28,6.78,0.38" kvg:type="㇐" id="hvg:09519-s9"/>
		</g>
		<g kvg:position="bottom" kvg:element="日" id="hvg:09519-g8">
			<path d="M57.08,61.64c0.71,0.7,1.13,2.05,1.13,3.06c0,0.83,0,15.71,0,24.81c0,2.03,0,3.77,0,5" kvg:type="㇑" id="hvg:09519-s10"/>
			<path d="M58.81,62.92c1.73-0.11,16.56-1.93,22.32-2.58c3.35-0.38,4.43,0.43,4.43,3.79c0,3.15-0.03,15.34-0.05,22.88c-0.01,3.54-0.02,6.06-0.02,6.12" kvg:type="㇕a" id="hvg:09519-s11"/>
			<path d="M59.18,76.86c4.82-0.48,19.95-2.23,25.41-2.55" kvg:type="㇐a" id="hvg:09519-s12"/>
			<path d="M59.55,91.41c5.65-0.54,15.83-1.41,24.78-2.05" kvg:type="㇐a" id="hvg:09519-s13"/>
		</g>
	</g>
</g>
</g>
<g style="font-size:8;fill:#808080" id="hvg:StrokeNumbers_09519">
	<text transform="matrix(1 0 0 1 19.25 19.63)">1</text>
	<text transform="matrix(1 0 0 1 32.25 23.13)">2</text>
	<text transform="matrix(1 0 0 1 6.50 40.55)">3</text>
	<text transform="matrix(1 0 0 1 6.50 60.98)">4</text>
	<text transform="matrix(1 0 0 1 25.25 42.13)">5</text>
	<text transform="matrix(1 0 0 1 51.75 17.50)">6</text>
	<text transform="matrix(1 0 0 1 70.50 13.63)">7</text>
	<text y="36.646187" x="46.382416">8</text>
	<text y="53.504238" x="42.45657">9</text>
	<text y="69.691734" x="45.306145">10</text>
	<text transform="translate(59.25,59.5)">11</text>
	<text transform="translate(62.25,73.55)">12</text>
	<text transform="translate(62.11,88.5)">13</text>
</g>
</svg>
