<?xml version="1.0" encoding="UTF-8"?>
<!--
Copyright (C) 2018 HanziVG repository contributors
This work makes an extensive use of kanjiVG Copyright (C) 2009/2010/2011 Ulrich Apel
and AnimHanzi Copyright (C) 2016 François Mizessyn.
This work is distributed under the conditions of the Creative Commons
Attribution-Share Alike 3.0 Licence. This means you are free:
* to Share - to copy, distribute and transmit the work
* to Remix - to adapt the work

Under the following conditions:
* Attribution. You must attribute the work by stating your use of HanziVG in
  your own copyright header and linking to animHanzi's website
  (https://github.com/Connum/HanziVG)
* Attribution. You must attribute the work by stating your use of animHanzi in
  your own copyright header and linking to animHanzi's website
  (http://gooo.free.fr/animHanzi/)
* Attribution. You must attribute the work by stating your use of KanjiVG in
  your own copyright header and linking to KanjiVG's website
  (http://kanjivg.tagaini.net)
* Share Alike. If you alter, transform, or build upon this work, you may
  distribute the resulting work only under the same or similar license to this
  one.

See http://creativecommons.org/licenses/by-sa/3.0/ for more details.
-->
<!DOCTYPE svg PUBLIC "-//W3C//DTD SVG 1.0//EN" "http://www.w3.org/TR/2001/REC-SVG-20010904/DTD/svg10.dtd" [
<!ATTLIST g
xmlns:kvg CDATA #FIXED "http://kanjivg.tagaini.net"
kvg:element CDATA #IMPLIED
kvg:variant CDATA #IMPLIED
kvg:partial CDATA #IMPLIED
kvg:original CDATA #IMPLIED
kvg:part CDATA #IMPLIED
kvg:number CDATA #IMPLIED
kvg:tradForm CDATA #IMPLIED
kvg:radicalForm CDATA #IMPLIED
kvg:position CDATA #IMPLIED
kvg:radical CDATA #IMPLIED
kvg:phon CDATA #IMPLIED >
<!ATTLIST path
xmlns:kvg CDATA #FIXED "http://kanjivg.tagaini.net"
kvg:type CDATA #IMPLIED >
]>
<svg xmlns="http://www.w3.org/2000/svg" width="109" height="109" viewBox="0 0 109 109">
<g id="hvg:StrokePaths_09547" style="fill:none;stroke:#000000;stroke-width:3;stroke-linecap:round;stroke-linejoin:round;">
<g id="hvg:09547" kvg:element="镇">
	<g id="hvg:09547-g1" kvg:position="left" kvg:element="钅" kvg:radical="general">
		<path d="m 37.23097,17.555513 c 0.373059,1.233152 0.363479,2.766765 0.03423,4.522492 -1.992441,10.624821 -15.691347,29.383653 -27.140992,38.913639" id="hvg:09547-s1" kvg:type="㇒"/>
		<path d="m 31.352396,37.477348 c 0,0 14.369848,-1.30635 17.309135,-3.91905" id="hvg:09547-s2" kvg:type="㇐"/>
		<path d="m 25.473821,53.480133 c 0,0 14.696435,-2.286112 19.595247,-5.878574" id="hvg:09547-s3" kvg:type="㇐"/>
		<path d="m 19.597174,67.854623 c 0,0 18.942073,-2.939287 27.106759,-6.205161" id="hvg:09547-s4" kvg:type="㇐"/>
		<path d="m 31.025808,53.80672 c 1.717961,0.42949 4.425781,33.326537 -2.939287,38.751841 0,0 5.129744,-6.897959 16.368995,-11.740738" id="hvg:09547-s5" kvg:type="㇙"/>
	</g>
	<g id="hvg:09547-g2" kvg:element="真" kvg:position="right">
		<g id="hvg:09547-g3" kvg:element="十" kvg:position="top">
			<path d="m 55.030619,28.498505 c 5.000579,0.333372 25.611471,-2.549092 33.638508,-5.878574" id="hvg:09547-s6" kvg:type="㇐"/>
			<path d="m 68.909953,13.309876 c 1.951679,3.773818 0.698039,13.469642 -1.143056,25.310528" id="hvg:09547-s7" kvg:type="㇑"/>
		</g>
		<g id="hvg:09547-g4" kvg:element="具" kvg:position="bottom">
			<g id="hvg:09547-g5" kvg:element="貝" kvg:partial="true" kvg:number="1">
				<g id="hvg:09547-g6" kvg:element="目">
					<path d="m 57.316098,40.253341 c 2.192652,6.577955 1.594325,32.053026 1.143056,34.291683" id="hvg:09547-s8" kvg:type="㇑"/>
					<path d="m 58.521502,42.356248 c 0,0 21.35783,-5.262617 22.766634,-4.483367 0.523648,8.990158 -0.03478,26.673858 -0.219332,33.744119" id="hvg:09547-s9" kvg:type="㇕"/>
					<path d="m 59.440844,52.341718 c -0.07158,-0.78743 9.795601,-3.778001 15.023023,-3.755756" id="hvg:09547-s10" kvg:type="㇐"/>
					<path d="m 60.082841,59.919663 c -0.07158,-0.78743 9.7956,-3.778001 15.023022,-3.755756" id="hvg:09547-s11" kvg:type="㇐"/>
					<path d="m 59.756253,68.084349 c -0.07158,-0.78743 9.795601,-3.778001 15.023023,-3.755756" id="hvg:09547-s12" kvg:type="㇐"/>
				</g>
			</g>
			<path d="m 48.334943,76.177961 c 0,0 43.926013,-7.348218 48.988118,-3.755756" id="hvg:09547-s13" kvg:type="㇐"/>
		</g>
		<g id="hvg:09547-g7" kvg:element="貝" kvg:number="1" kvg:partial="true">
			<g id="hvg:09547-g8" kvg:element="八">
				<path d="m 63.852754,81.519067 c 0,0 -5.542372,8.429026 -16.28072,14.779662" id="hvg:09547-s14" kvg:type="㇒"/>
				<path d="m 77.131356,79.209746 c 0,0 10.276483,6.581567 14.086865,16.396186" id="hvg:09547-s15" kvg:type="㇔"/>
			</g>
		</g>
	</g>
</g>
</g>
<g id="hvg:StrokeNumbers_09547" style="font-size:8;fill:#808080">
	<text y="12.153305" x="36.181377">1</text>
	<text y="35.015591" x="22.325445">2</text>
	<text y="56.545021" x="17.884533">3</text>
	<text y="71.544395" x="11.911176">4</text>
	<text y="49.910717" x="27.736494">5</text>
	<text y="30.858812" x="47.943058">6</text>
	<text y="9.1472788" x="66.476463">7</text>
	<text y="38.10725" x="53.641792">8</text>
	<text y="46.921207" x="50.200905">9</text>
	<text y="55.575771" x="46.145905">10</text>
	<text y="63.577179" x="47.478249">11</text>
	<text y="71.909058" x="46.928589">12</text>
	<text y="78.887711" x="36.956535">13</text>
	<text y="77.734146" x="60.258343">14</text>
	<text y="77.045258" x="71.478317">15</text>
</g>
</svg>
