<?xml version="1.0" encoding="UTF-8"?>
<!--
Copyright (C) 2018 HanziVG repository contributors
This work makes an extensive use of kanjiVG Copyright (C) 2009/2010/2011 Ulrich Apel
and AnimHanzi Copyright (C) 2016 François Mizessyn.
This work is distributed under the conditions of the Creative Commons
Attribution-Share Alike 3.0 Licence. This means you are free:
* to Share - to copy, distribute and transmit the work
* to Remix - to adapt the work

Under the following conditions:
* Attribution. You must attribute the work by stating your use of HanziVG in
  your own copyright header and linking to animHanzi's website
  (https://github.com/Connum/HanziVG)
* Attribution. You must attribute the work by stating your use of animHanzi in
  your own copyright header and linking to animHanzi's website
  (http://gooo.free.fr/animHanzi/)
* Attribution. You must attribute the work by stating your use of KanjiVG in
  your own copyright header and linking to KanjiVG's website
  (http://kanjivg.tagaini.net)
* Share Alike. If you alter, transform, or build upon this work, you may
  distribute the resulting work only under the same or similar license to this
  one.

See http://creativecommons.org/licenses/by-sa/3.0/ for more details.
-->
<!DOCTYPE svg PUBLIC "-//W3C//DTD SVG 1.0//EN" "http://www.w3.org/TR/2001/REC-SVG-20010904/DTD/svg10.dtd" [
<!ATTLIST g
xmlns:kvg CDATA #FIXED "http://kanjivg.tagaini.net"
kvg:element CDATA #IMPLIED
kvg:variant CDATA #IMPLIED
kvg:partial CDATA #IMPLIED
kvg:original CDATA #IMPLIED
kvg:part CDATA #IMPLIED
kvg:number CDATA #IMPLIED
kvg:tradForm CDATA #IMPLIED
kvg:radicalForm CDATA #IMPLIED
kvg:position CDATA #IMPLIED
kvg:radical CDATA #IMPLIED
kvg:phon CDATA #IMPLIED >
<!ATTLIST path
xmlns:kvg CDATA #FIXED "http://kanjivg.tagaini.net"
kvg:type CDATA #IMPLIED >
]>
<svg xmlns="http://www.w3.org/2000/svg" width="109" height="109" viewBox="0 0 109 109">
<g style="fill:none;stroke:#000000;stroke-width:3;stroke-linecap:round;stroke-linejoin:round;" id="hvg:StrokePaths_09662">
<g kvg:element="院" id="hvg:09662">
	<g kvg:radical="general" kvg:position="left" kvg:original="阜" kvg:variant="true" kvg:element="⻖" id="hvg:09662-g1">
		<path d="m 12,21.25 c 1.25,0.5 2.51,0.79 3.76,0.62 6.49,-0.87 10.48,-2.4 12.91,-3.21 3,-1 6,1 4.67,3.33 -1.33,2.33 -7,14.17 -9.335,17.505 C 37.33,47.83 36.25,75.5 25.67,68" id="hvg:09662-s2" kvg:type="㇌"/>
		<path d="M14.37,22.25c0.38,1.25,0.24,2.25,0.46,3.25c0.22,1,0,62.75-0.22,69" kvg:type="㇑" id="hvg:09662-s3"/>
	</g>
	<g kvg:position="right" kvg:element="完" id="hvg:09662-g2">
		<g kvg:element="宀" id="hvg:09662-g3">
			<path d="M59.24,13.42c3.03,1.35,6.01,3.81,7.29,8.74" kvg:type="㇑a" id="hvg:09662-s4"/>
			<g kvg:element="冖" id="hvg:09662-g4">
				<path d="M43.26,28.39c0,3.13-1.84,11.75-2.67,13.84" kvg:type="㇔" id="hvg:09662-s5"/>
				<path d="M44.97,29.39c13.28-1.64,31.78-4.39,40.55-4.41c6.73-0.02-0.6,7.57-1.77,8.35" kvg:type="㇖b" id="hvg:09662-s6"/>
			</g>
		</g>
		<g kvg:element="元" id="hvg:09662-g5">
			<g kvg:position="top" kvg:element="二" id="hvg:09662-g6">
				<path d="M51.98,41.59c0.83,0.2,2.36,0.8,3.2,0.7c4.32-0.54,10.32-1.54,15.73-2.64c1.35-0.28,2.23,0.09,2.92,0.19" kvg:type="㇐" id="hvg:09662-s7"/>
				<path d="M42.08,57.27c1.07,0.36,3.01,0.44,4.08,0.36c15.06-1.13,26.48-4.6,36.82-4.59c1.77,0,2.84,0.17,3.73,0.35" kvg:type="㇐" id="hvg:09662-s8"/>
			</g>
			<g kvg:position="bottom" kvg:original="八" kvg:element="儿" id="hvg:09662-g7">
				<g kvg:element="丿" id="hvg:09662-g8">
					<path d="M57.25,59c0.05,0.81,0.05,2.08-0.11,3.26C56,70.75,49.5,87.5,37.42,93.5" kvg:type="㇒" id="hvg:09662-s9"/>
				</g>
				<path d="M68.19,57.87c0.56,1.09,1.01,2.38,1.04,4.06c0.15,7.52-0.4,15.82-0.4,20.93c0,11.94,6.77,10.58,13.44,10.58c7.04,0,10.67-1.54,11.66-2.41c2.09-1.84,1.52-2.75,1.71-5.97" kvg:type="㇟" id="hvg:09662-s10"/>
			</g>
		</g>
	</g>
</g>
</g>
<g style="font-size:8;fill:#808080" id="hvg:StrokeNumbers_09662">
	<text transform="matrix(1 0 0 1 15.50 18.50)">1</text>
	<text transform="translate(7.5,29.5)">2</text>
	<text transform="translate(53.5,14.5)">3</text>
	<text transform="translate(36.75,31.63)">4</text>
	<text transform="translate(46.5,26.5)">5</text>
	<text transform="translate(49.5,38.5)">6</text>
	<text transform="translate(41.25,54.13)">7</text>
	<text transform="translate(48.75,67.63)">8</text>
	<text transform="translate(72.5,64.63)">9</text>
</g>
</svg>
