<?xml version="1.0" encoding="UTF-8"?>
<!--
Copyright (C) 2018 HanziVG repository contributors
This work makes an extensive use of kanjiVG Copyright (C) 2009/2010/2011 Ulrich Apel
and AnimHanzi Copyright (C) 2016 François Mizessyn.
This work is distributed under the conditions of the Creative Commons
Attribution-Share Alike 3.0 Licence. This means you are free:
* to Share - to copy, distribute and transmit the work
* to Remix - to adapt the work

Under the following conditions:
* Attribution. You must attribute the work by stating your use of HanziVG in
  your own copyright header and linking to animHanzi's website
  (https://github.com/Connum/HanziVG)
* Attribution. You must attribute the work by stating your use of animHanzi in
  your own copyright header and linking to animHanzi's website
  (http://gooo.free.fr/animHanzi/)
* Attribution. You must attribute the work by stating your use of KanjiVG in
  your own copyright header and linking to KanjiVG's website
  (http://kanjivg.tagaini.net)
* Share Alike. If you alter, transform, or build upon this work, you may
  distribute the resulting work only under the same or similar license to this
  one.

See http://creativecommons.org/licenses/by-sa/3.0/ for more details.
-->
<!DOCTYPE svg PUBLIC "-//W3C//DTD SVG 1.0//EN" "http://www.w3.org/TR/2001/REC-SVG-20010904/DTD/svg10.dtd" [
<!ATTLIST g
xmlns:kvg CDATA #FIXED "http://kanjivg.tagaini.net"
kvg:element CDATA #IMPLIED
kvg:variant CDATA #IMPLIED
kvg:partial CDATA #IMPLIED
kvg:original CDATA #IMPLIED
kvg:part CDATA #IMPLIED
kvg:number CDATA #IMPLIED
kvg:tradForm CDATA #IMPLIED
kvg:radicalForm CDATA #IMPLIED
kvg:position CDATA #IMPLIED
kvg:radical CDATA #IMPLIED
kvg:phon CDATA #IMPLIED >
<!ATTLIST path
xmlns:kvg CDATA #FIXED "http://kanjivg.tagaini.net"
kvg:type CDATA #IMPLIED >
]>
<svg xmlns="http://www.w3.org/2000/svg" width="109" height="109" viewBox="0 0 109 109">
<g style="fill:none;stroke:#000000;stroke-width:3;stroke-linecap:round;stroke-linejoin:round;" id="hvg:StrokePaths_0975e">
<g kvg:radical="general" kvg:element="非" id="hvg:0975e">
	<g kvg:position="left" id="hvg:0975e-g1">
		<path d="m 42.12,14.75 c 0.75,0.75 1.43,2.23 1.46,3.25 0.24365,50.053413 0.126587,60.907538 -0.363327,79.933531" kvg:type="㇒" id="hvg:0975e-s1"/>
		<path d="M20.75,35.75c1.75,0.38,3.23,0.36,4.75,0.25c3.38-0.25,9.25-1.25,15-2.5" kvg:type="㇐c" id="hvg:0975e-s2"/>
		<path d="m 20.25,54.5 c 1.38,0.25 3.24,0.19 4.75,0 3,-0.38 11.12,-2.12 16,-3.5" kvg:type="㇐c" id="hvg:0975e-s3"/>
		<path d="m 19.83457,73.109417 c 1.38,0.25 3.24,0.19 4.75,0 3,-0.38 11.12,-2.12 16,-3.5" kvg:type="㇐c" id="hvg:0975e-s4"/>
	</g>
	<g kvg:position="right" id="hvg:0975e-g2">
		<path d="M64.37,12.25c1,1,1.46,2.5,1.46,4c0,0.85-0.11,51.5-0.11,73.25c0,4.36-0.07,7.43-0.11,8.5" kvg:type="㇑" id="hvg:0975e-s5"/>
		<path d="m 68.923412,30 c 4.5,-0.38 14.5,-2.25 18.25,-3.25 1.21,-0.32 2.75,-0.38 4.25,-0.12" kvg:type="㇐b" id="hvg:0975e-s6"/>
		<path d="m 68.793412,49 c 4.38,-0.12 14.62,-2.12 18,-2.75 1.23,-0.23 2.62,-0.38 4,-0.12" kvg:type="㇐b" id="hvg:0975e-s7"/>
		<path d="m 68.673412,67.88 c 4.5,-0.38 18.62,-2.62 22,-3.25 1.23,-0.23 2.62,-0.38 4,-0.12" kvg:type="㇐b" id="hvg:0975e-s8"/>
	</g>
</g>
</g>
<g style="font-size:8;fill:#808080" id="hvg:StrokeNumbers_0975e">
	<text transform="matrix(1 0 0 1 34.50 14.50)">1</text>
	<text transform="matrix(1 0 0 1 12.50 37.55)">2</text>
	<text y="56.5" x="12.5">3</text>
	<text y="75.5" x="12.108336">4</text>
	<text transform="matrix(1 0 0 1 55.50 12.50)">5</text>
	<text transform="matrix(1 0 0 1 70.50 26.50)">6</text>
	<text y="45.48" x="70.550003">7</text>
	<text transform="matrix(1 0 0 1 70.52 64.40)">8</text>
</g>
</svg>
