<?xml version="1.0" encoding="UTF-8"?>
<!--
Copyright (C) 2018 HanziVG repository contributors
This work makes an extensive use of kanjiVG Copyright (C) 2009/2010/2011 Ulrich Apel
and AnimHanzi Copyright (C) 2016 François Mizessyn.
This work is distributed under the conditions of the Creative Commons
Attribution-Share Alike 3.0 Licence. This means you are free:
* to Share - to copy, distribute and transmit the work
* to Remix - to adapt the work

Under the following conditions:
* Attribution. You must attribute the work by stating your use of HanziVG in
  your own copyright header and linking to animHanzi's website
  (https://github.com/Connum/HanziVG)
* Attribution. You must attribute the work by stating your use of animHanzi in
  your own copyright header and linking to animHanzi's website
  (http://gooo.free.fr/animHanzi/)
* Attribution. You must attribute the work by stating your use of KanjiVG in
  your own copyright header and linking to KanjiVG's website
  (http://kanjivg.tagaini.net)
* Share Alike. If you alter, transform, or build upon this work, you may
  distribute the resulting work only under the same or similar license to this
  one.

See http://creativecommons.org/licenses/by-sa/3.0/ for more details.
-->
<!DOCTYPE svg PUBLIC "-//W3C//DTD SVG 1.0//EN" "http://www.w3.org/TR/2001/REC-SVG-20010904/DTD/svg10.dtd" [
<!ATTLIST g
xmlns:kvg CDATA #FIXED "http://kanjivg.tagaini.net"
kvg:element CDATA #IMPLIED
kvg:variant CDATA #IMPLIED
kvg:partial CDATA #IMPLIED
kvg:original CDATA #IMPLIED
kvg:part CDATA #IMPLIED
kvg:number CDATA #IMPLIED
kvg:tradForm CDATA #IMPLIED
kvg:radicalForm CDATA #IMPLIED
kvg:position CDATA #IMPLIED
kvg:radical CDATA #IMPLIED
kvg:phon CDATA #IMPLIED >
<!ATTLIST path
xmlns:kvg CDATA #FIXED "http://kanjivg.tagaini.net"
kvg:type CDATA #IMPLIED >
]>
<svg xmlns="http://www.w3.org/2000/svg" width="109" height="109" viewBox="0 0 109 109">
<g style="fill:none;stroke:#000000;stroke-width:3;stroke-linecap:round;stroke-linejoin:round;" id="hvg:StrokePaths_0996d">
<g kvg:element="饭" id="hvg:0996d">
	<g kvg:radical="general" kvg:position="left" kvg:variant="true" kvg:element="饣" id="hvg:0996d-g1">
		<g kvg:position="top" kvg:element="⺈" id="hvg:0996d-g2">
			<path d="M20.94,15.39c0.09,1.43,0.11,2.62-0.4,3.98c-2.77,7.4-9.35,20.71-7.62,21.39" kvg:type="㇒" id="hvg:0996d-s1"/>
			<path d="M17.61,28.93c1.01,0.21,0.76,0.25,5.82,0.1c9.61-0.65,16.68-3.35,14.23-2.53c6.23-0.7,4.15,2.08,0.04,15.32" kvg:type="㇖a" id="hvg:0996d-s2"/>
		</g>
		<path kvg:type="㇙" d="M24.95,39.19c1.24,0.78,0.24,0.52,1.24,3.14c0,4.35,0.62,32.63-1.31,48.98c-1.88-0.62,1.5-1.6,13.38-13.12" id="hvg:0996d-s3"/>
	</g>
	<g kvg:position="right" kvg:element="反" id="hvg:0996d-g3">
		<g kvg:element="厂" id="hvg:0996d-g4" kvg:variant="true">
			<g id="hvg:0996d-g5" kvg:element="㇒" kvg:original="㇐">
				<path d="m 85.201046,21.199578 c -9.797659,3.966032 -13.681542,4.729347 -21.003644,6.206653 -1.74,0.299997 -2.879565,0.517831 -4.790308,0.862678" kvg:type="㇒" id="hvg:0996d-s4"/>
			</g>
			<path d="M 56.931864,26.641864 C 57.324534,28.073729 57.54,28.44 57.46,30.55 56.73,51.68 53.83,77.5 41.5,91.33" kvg:type="㇒" id="hvg:0996d-s5"/>
		</g>
		<g kvg:radical="tradit" kvg:element="又" id="hvg:0996d-g6">
			<path d="M 59.08,44.20 c 1.31,0.39 3.70,0.46 5.11,-0.06 C 71.45,43.35 77.33,42.42 83.55,41.98 c 2.38,-0.7 4.37,0.87 3.47,3.55 C 79.39,68.32 71,82 51.85,94.26" kvg:type="㇇" id="hvg:0996d-s6"/>
			<path d="M 62.60,46.56 C 67.30,57.47 77.12,77.57 88.34,88.74 c 2.16,2.15 4.66,4.9 7.67,5.84" kvg:type="㇏" id="hvg:0996d-s7"/>
		</g>
	</g>
</g>
</g>
<g style="font-size:8;fill:#808080" id="hvg:StrokeNumbers_0996d">
	<text transform="matrix(1 0 0 1 20.50 16.50)">1</text>
	<text transform="matrix(1 0 0 1 5.50 32.50)">2</text>
	<text transform="matrix(1 0 0 1 15.50 43.50)">3</text>
	<text y="18.254364" x="86.199219">4</text>
	<text y="24.260593" x="52.465042">5</text>
	<text y="46.225399" x="49.230152">6</text>
	<text y="41.715466" x="61.419048">7</text>
</g>
</svg>
