<?xml version="1.0" encoding="UTF-8"?>
<!--
Copyright (C) 2009/2010/2011 Ulrich Apel.
This work is distributed under the conditions of the Creative Commons
Attribution-Share Alike 3.0 Licence. This means you are free:
* to Share - to copy, distribute and transmit the work
* to Remix - to adapt the work

Under the following conditions:
* Attribution. You must attribute the work by stating your use of KanjiVG in
  your own copyright header and linking to KanjiVG's website
  (http://kanjivg.tagaini.net)
* Share Alike. If you alter, transform, or build upon this work, you may
  distribute the resulting work only under the same or similar license to this
  one.

See http://creativecommons.org/licenses/by-sa/3.0/ for more details.
-->
<!DOCTYPE svg PUBLIC "-//W3C//DTD SVG 1.0//EN" "http://www.w3.org/TR/2001/REC-SVG-20010904/DTD/svg10.dtd" [
<!ATTLIST g
xmlns:kvg CDATA #FIXED "http://kanjivg.tagaini.net"
kvg:element CDATA #IMPLIED
kvg:variant CDATA #IMPLIED
kvg:partial CDATA #IMPLIED
kvg:original CDATA #IMPLIED
kvg:part CDATA #IMPLIED
kvg:number CDATA #IMPLIED
kvg:tradForm CDATA #IMPLIED
kvg:radicalForm CDATA #IMPLIED
kvg:position CDATA #IMPLIED
kvg:radical CDATA #IMPLIED
kvg:phon CDATA #IMPLIED >
<!ATTLIST path
xmlns:kvg CDATA #FIXED "http://kanjivg.tagaini.net"
kvg:type CDATA #IMPLIED >
]>
<svg xmlns="http://www.w3.org/2000/svg" width="109" height="109" viewBox="0 0 109 109">
<g id="kvg:StrokePaths_0519b" style="fill:none;stroke:#000000;stroke-width:3;stroke-linecap:round;stroke-linejoin:round;">
  <g id="kvg:0519b" kvg:element="军">
    <g id="kvg:0519b-g1" kvg:element="冖" kvg:position="top" kvg:type="㇖b" kvg:radical="nelson">
		<path id="kvg:0519b-s1" kvg:type="㇔" d="M 19.6,16.2 C 19.5,20.1 16.5,30.5 15.6,32.8" />
      <path id="kvg:0519b-s2" kvg:type="㇖b" d="M 19.8,18.3 C 31.4,17 68.9,14.6 86.5,14 99.9,13.5 88.4,21.6 86.8,22.9"/>
	 </g>
    <g id="hvg:0519b" kvg:element="车" kvg:radical="general">     
		<path id="hvg:0519b-s3" kvg:type="㇐" d="M 19.8,36.1 C 23,37 26.1,37 29.4,36.7 44.6,35.8 63.4,33.9 79.7,33.2 82.6,33.1 85.6,33.2 88.5,33.9"/>
		<path id="hvg:0519b-s4" kvg:type="㇜" d="M 53.7,22.5 C 54.4,23 55.4,24.8 26.7,63.8 42.6,62.9 62.4,60.8 75,60.2 78,60.1 80.9,60.1 82.9,60.6"/>
		<path id="hvg:0519b-s5" kvg:type="㇐" d="M 17.8,82.9 C 21.3,83.8 24.5,83.7 28,83.5 43.9,82.5 63.7,80.5 81,79.8 84.1,79.7 87.2,79.7 90.3,80.6"/>
		<path id="hvg:0519b-s6" kvg:type="㇑" d="M 53.7,47 C 55,48.4 55.6,49.7 55.6,52.8 55.7,53.8 55.6,99.6 55.6,92.8 55.5,96.9 55.5,99.9 55.5,101"/>
	 </g>  
  </g> 
</g> 
<g id="hvg:StrokeNumbers_0519b" style="font-size:8;fill:#808080">
 	<text transform="matrix(1 0 0 1 12.00 24.00)">1</text>
   <text transform="matrix(1 0 0 1 24.00 15.00)">2</text>
  	<text transform="matrix(1 0 0 1 24.50 34.50)">3</text>
 	<text transform="matrix(1 0 0 1 44.00 29.50)">4</text>
 	<text transform="matrix(1 0 0 1 21.75 80.75)">5</text>
 	<text transform="matrix(1 0 0 1 47.75 55.75)">6</text>
</g>
</svg>
