<?xml version="1.0" encoding="UTF-8" standalone="no"?>
<!--
Copyright (C) 2009/2010/2011 Ulrich Apel.
This work is distributed under the conditions of the Creative Commons
Attribution-Share Alike 3.0 Licence. This means you are free:
* to Share - to copy, distribute and transmit the work
* to Remix - to adapt the work

Under the following conditions:
* Attribution. You must attribute the work by stating your use of KanjiVG in
  your own copyright header and linking to KanjiVG's website
  (http://kanjivg.tagaini.net)
* Share Alike. If you alter, transform, or build upon this work, you may
  distribute the resulting work only under the same or similar license to this
  one.

See http://creativecommons.org/licenses/by-sa/3.0/ for more details.
-->
<!DOCTYPE svg PUBLIC "-//W3C//DTD SVG 1.0//EN" "http://www.w3.org/TR/2001/REC-SVG-20010904/DTD/svg10.dtd" [
<!ATTLIST g
xmlns:kvg CDATA #FIXED "http://kanjivg.tagaini.net"
kvg:element CDATA #IMPLIED
kvg:variant CDATA #IMPLIED
kvg:partial CDATA #IMPLIED
kvg:original CDATA #IMPLIED
kvg:part CDATA #IMPLIED
kvg:number CDATA #IMPLIED
kvg:tradForm CDATA #IMPLIED
kvg:radicalForm CDATA #IMPLIED
kvg:position CDATA #IMPLIED
kvg:radical CDATA #IMPLIED
kvg:phon CDATA #IMPLIED >
<!ATTLIST path
xmlns:kvg CDATA #FIXED "http://kanjivg.tagaini.net"
kvg:type CDATA #IMPLIED >
]>
<svg xmlns="http://www.w3.org/2000/svg" width="109" height="109" viewBox="0 0 109 109">
<g id="kvg:StrokePaths_06b72" style="fill:none;stroke:#000000;stroke-width:3;stroke-linecap:round;stroke-linejoin:round;">
  <g id="kvg:06b72" kvg:element="歲">
    <g id="kvg:06b72-g1" kvg:element="止" kvg:radical="general">
      <path id="kvg:06b72-s1" kvg:type="㇑a" d="M 49.5,5.86 C 50.9,6.34 51.5,6.89 51.5,7.93 51.5,12.3 51.5,29.5 51.5,29.9"/>
      <path id="kvg:06b72-s2" kvg:type="㇐b" d="M 52.9,16.4 C 60.1,15.9 68.6,15.2 75,14.8 76.6,14.7 77.5,14.7 78.7,14.7"/>
      <path id="kvg:06b72-s3" kvg:type="㇑a" d="M 24.5,18.6 C 25.7,18.9 26.5,19.5 26.6,20.5 27,24.6 26.4,28.5 26.6,31.4"/>
      <path id="kvg:06b72-s4" kvg:type="㇐" d="M 10.4,31.6 C 14.1,32.4 17.6,32.4 21.2,32.2 35.3,31.2 60.8,29.7 80.4,28.7 83.8,28.6 87.3,28.5 90.4,29.5"/>
    </g>
    <g id="kvg:06b72-g2" kvg:element="厂" kvg:radical="general">
      <path id="kvg:06b72-s5" kvg:type="㇐" d="M 19.4,50.1 C 22.5,51.1 26.2,50.6 29.5,50.3 45.2,48.8 60.8,47.1 76,46.1 79.1,45.9 82,45.9 85,46.4"/>
      <path id="kvg:06b72-s6" kvg:type="㇒" d="M 22.8,51.2 C 23.6,51.8 23.7,53 23.7,54.6 23,68.5 21,85.8 9.46,97.6"/>
    </g>
    <g id="kvg:06b72-g3" kvg:element="少" kvg:radical="general">
      <path id="kvg:06b72-s7" kvg:type="㇐" d="M 30,57.3 C 31.8,57.8 32.7,57.7 33.8,57.6 39.2,57.1 44.6,56.6 49.8,56.3 50.8,56.2 52,56.3 53.5,56.8"/>
      <path id="kvg:06b72-s8" kvg:type="㇚" d="M 41.9,59.8 C 42.4,60.2 42.7,60.8 42.7,61.8 42.7,67.2 42.7,78.6 42.7,80.2 42.7,84.6 39.6,81.1 38.9,80.7"/>
      <path id="kvg:06b72-s8" kvg:type="㇒" d="M 34,66.6 C 34.1,67.2 34,67.6 33.8,68.1 32.4,70.8 28.4,75.2 25,77.4"/>
      <path id="kvg:06b72-s10" kvg:type="㇒" d="M 52.8,72 C 52.9,72.6 52.8,73.6 52.5,74.5 49.1,81.6 40.2,92.6 28.1,97.8"/>
    </g>
    <g id="kvg:06b72-g3" kvg:element="戈" kvg:radical="general">
      <path id="kvg:06b72-s10" kvg:type="㇂" d="M 50.5,33.8 C 52.2,35.6 53.6,36.8 54.8,40.6 62.3,65.5 64.5,83 84.7,95.2 91.4,99.3 92,98.1 90.8,88.6"/>
      <path id="kvg:06b72-s11" kvg:type="㇒" d="M 80,55.6 C 80.1,56.5 79.2,60.4 78.7,61.6 76.1,68.8 67.5,85.8 47.4,95.4"/>
      <path id="kvg:06b72-s12" kvg:type="㇔" d="M 78.8,35.9 C 81,36.8 84.5,38.9 85.5,40.4"/>
    </g>
  </g>
</g>
<g id="kvg:StrokeNumbers_06b72" style="font-size:8;fill:#808080">
    <text transform="matrix(1 0 0 1 43.00 9.50)">1</text>
    <text transform="matrix(1 0 0 1 56.00 13.50)">2</text>
    <text transform="matrix(1 0 0 1 17.50 20.00)">3</text>
    <text transform="matrix(1 0 0 1 17.00 29.50)">4</text>
    <text transform="matrix(1 0 0 1 24.25 48.00)">5</text>
    <text transform="matrix(1 0 0 1 16.00 63.05)">6</text>
    <text transform="matrix(1 0 0 1 25.50 58.25)">7</text>
    <text transform="matrix(1 0 0 1 35.75 65.21)">8</text>
    <text transform="matrix(1 0 0 1 27.00 70.00)">9</text>
    <text transform="matrix(1 0 0 1 47.50 70.00)">10</text>
    <text transform="matrix(1 0 0 1 68.00 62.50)">11</text>
    <text transform="matrix(1 0 0 1 67.00 39.50)">12</text>
</g>
</svg>
