<?xml version="1.0" encoding="UTF-8"?>
<!--
Copyright (C) 2016 François Mizessyn.
This work makes an extensive use of kanjiVG Copyright (C) 2009/2010/2011 Ulrich Apel.
This work is distributed under the conditions of the Creative Commons
Attribution-Share Alike 3.0 Licence. This means you are free:
* to Share - to copy, distribute and transmit the work
* to Remix - to adapt the work

Under the following conditions:
* Attribution. You must attribute the work by stating your use of HanjiVG in
  your own copyright header and linking to HanjiVG's website
  (http://gooo.free.fr/hanziVG/)
* Attribution. You must attribute the work by stating your use of KanjiVG in
  your own copyright header and linking to KanjiVG's website
  (http://kanjivg.tagaini.net)
* Share Alike. If you alter, transform, or build upon this work, you may
  distribute the resulting work only under the same or similar license to this
  one.

See http://creativecommons.org/licenses/by-sa/3.0/ for more details.
-->
<!DOCTYPE svg PUBLIC "-//W3C//DTD SVG 1.0//EN" "http://www.w3.org/TR/2001/REC-SVG-20010904/DTD/svg10.dtd" [
<!ATTLIST g
xmlns:kvg CDATA #FIXED "http://kanjivg.tagaini.net"
kvg:element CDATA #IMPLIED
kvg:variant CDATA #IMPLIED
kvg:partial CDATA #IMPLIED
kvg:original CDATA #IMPLIED
kvg:part CDATA #IMPLIED
kvg:number CDATA #IMPLIED
kvg:tradForm CDATA #IMPLIED
kvg:radicalForm CDATA #IMPLIED
kvg:position CDATA #IMPLIED
kvg:radical CDATA #IMPLIED
kvg:phon CDATA #IMPLIED >
<!ATTLIST path
xmlns:kvg CDATA #FIXED "http://kanjivg.tagaini.net"
kvg:type CDATA #IMPLIED >
]>
<svg xmlns="http://www.w3.org/2000/svg" width="109" height="109" viewBox="0 0 109 109">
<g id="kvg:StrokePaths_04e1d" style="fill:none;stroke:#000000;stroke-width:3;stroke-linecap:round;stroke-linejoin:round;">
<g id="kvg:04e1d" kvg:element="丝">
	<g id="kvg:04e1d-g1" kvg:position="left">
		<path id="kvg:04e1d-s1" kvg:type="㇜" d="m36.1 15.84c0.35 1.59 0.28 3.59 -0.48 5.23c-3.28 7.11 -7.2 14.61 -12.04 21.32c-1.08 1.49 -0.96 3.54 0.42 4.12c3.71 1.55 7.94 3.14 10.94 5.58"/>
		<path id="kvg:04e1d-s2" kvg:type="㇜" d="m50.16 28.78c0.24 1.14 -0.08 3.49 -0.6 4.32c-8.16 12.9 -18.66 28.09 -28.18 40.08c-2.94 3.72 -1.52 6.63 1.98 5.36c7.98 -2.86 13.84 -5.49 25.86 -10.18"/>
	</g>
	<g id="kvg:04e1d-g2" kvg:position="right">
		<path id="kvg:04e1d-s3" kvg:type="㇜" d="m76.1 13.84c0.35 1.59 0.28 3.59 -0.48 5.23c-3.28 7.11 -7.2 14.61 -12.04 21.32c-1.08 1.49 -0.96 3.54 0.42 4.12c3.71 1.55 7.94 3.14 10.94 5.58"/>
		<path id="kvg:04e1d-s4" kvg:type="㇜" d="m90.16 26.78c0.24 1.14 -0.08 3.49 -0.6 4.32c-8.16 12.9 -18.66 28.09 -28.18 40.08c-2.94 3.72 -1.52 6.63 1.98 5.36c7.98 -2.86 13.84 -5.49 25.86 -10.18"/>
	</g>
	<g id="kvg:04e1d-g3" kvg:element="一" kvg:position="bottom" kvg:radical="general">
		<path id="kvg:04e1d-s5" kvg:type="㇐" d="m16.78 92.15c4.45 0.55 9.53 0.58 12.89 0.25c12.26 -1.18 38.93 -4.14 51.68 -5.1c3.21 -0.24 7.35 -0.31 10.5 0.22"/>
	</g>
</g>
</g>
<g id="kvg:StrokeNumbers_04e1d" style="font-size:8;fill:#808080">
	<text transform="matrix(1 0 0 1 22.50 25.50)">1</text>
	<text transform="matrix(1 0 0 1 40.50 26.56)">2</text>
	<text transform="matrix(1 0 0 1 62.50 23.50)">3</text>
	<text transform="matrix(1 0 0 1 80.25 24.56)">4</text>
	<text transform="matrix(1 0 0 1 7.99 88.91)">5</text>
</g>
</svg>
