<?xml version="1.0" encoding="UTF-8"?>
<!--
Copyright (C) 2016 François Mizessyn.
This work makes an extensive use of kanjiVG Copyright (C) 2009/2010/2011 Ulrich Apel.
This work is distributed under the conditions of the Creative Commons
Attribution-Share Alike 3.0 Licence. This means you are free:
* to Share - to copy, distribute and transmit the work
* to Remix - to adapt the work

Under the following conditions:
* Attribution. You must attribute the work by stating your use of HanjiVG in
  your own copyright header and linking to HanjiVG's website
  (http://gooo.free.fr/hanziVG/)
* Attribution. You must attribute the work by stating your use of KanjiVG in
  your own copyright header and linking to KanjiVG's website
  (http://kanjivg.tagaini.net)
* Share Alike. If you alter, transform, or build upon this work, you may
  distribute the resulting work only under the same or similar license to this
  one.

See http://creativecommons.org/licenses/by-sa/3.0/ for more details.
-->
<!DOCTYPE svg PUBLIC "-//W3C//DTD SVG 1.0//EN" "http://www.w3.org/TR/2001/REC-SVG-20010904/DTD/svg10.dtd" [
<!ATTLIST g
xmlns:kvg CDATA #FIXED "http://kanjivg.tagaini.net"
kvg:element CDATA #IMPLIED
kvg:variant CDATA #IMPLIED
kvg:partial CDATA #IMPLIED
kvg:original CDATA #IMPLIED
kvg:part CDATA #IMPLIED
kvg:number CDATA #IMPLIED
kvg:tradForm CDATA #IMPLIED
kvg:radicalForm CDATA #IMPLIED
kvg:position CDATA #IMPLIED
kvg:radical CDATA #IMPLIED
kvg:phon CDATA #IMPLIED >
<!ATTLIST path
xmlns:kvg CDATA #FIXED "http://kanjivg.tagaini.net"
kvg:type CDATA #IMPLIED >
]>
<svg xmlns="http://www.w3.org/2000/svg" width="109" height="109" viewBox="0 0 109 109">
<g id="kvg:StrokePaths_04e13" style="fill:none;stroke:#000000;stroke-width:3;stroke-linecap:round;stroke-linejoin:round;">
<g id="kvg:04e13" kvg:element="专">
	<path id="kvg:04e13-s1" kvg:type="㇐" d="m26.54 31.86c2.86 0.94 5.6 0.89 8.53 0.67c13.35 -1 29.94 -3.15 44.33 -3.79c2.64 -0.12 5.23 -0.09 7.8 0.73"/>
	<path id="kvg:04e13-s2" kvg:type="㇐" d="m18.12 48.63c3.43 1.13 6.72 1.07 10.23 0.8c16.02 -1.2 35.93 -3.78 53.2 -4.55c3.17 -0.14 6.27 -0.11 9.36 0.88"/>
	<path id="kvg:04e13-s3" kvg:type="㇇" d="m55.71 17.9c0.77 0.6 1.72 2.87 -27.13 51.66c16.02 -1.2 35.93 -3.78 48.52 -4.55c4.15 -0.58 5.95 2.1 3.56 4.04c-5.12 4.19 -14.48 12.73 -20.31 17.35"/>
	<path id="kvg:04e13-s4" kvg:type="㇔" d="m47.38 83.98c5.3 1.42 19.03 6.84 21.54 10.54"/>
</g>
</g>
<g id="kvg:StrokeNumbers_04e13" style="font-size:8;fill:#808080">
	<text transform="matrix(1 0 0 1 25.25 29.50)">1</text>
	<text transform="matrix(1 0 0 1 19.50 46.50)">2</text>
	<text transform="matrix(1 0 0 1 54.00 15.28)">3</text>
	<text transform="matrix(1 0 0 1 45.75 82.50)">4</text>
</g>
</svg>
