<?xml version="1.0" encoding="UTF-8"?>
<!--
Copyright (C) 2016 François Mizessyn.
This work makes an extensive use of kanjiVG Copyright (C) 2009/2010/2011 Ulrich Apel.
This work is distributed under the conditions of the Creative Commons
Attribution-Share Alike 3.0 Licence. This means you are free:
* to Share - to copy, distribute and transmit the work
* to Remix - to adapt the work

Under the following conditions:
* Attribution. You must attribute the work by stating your use of HanjiVG in
  your own copyright header and linking to HanjiVG's website
  (http://gooo.free.fr/hanziVG/)
* Attribution. You must attribute the work by stating your use of KanjiVG in
  your own copyright header and linking to KanjiVG's website
  (http://kanjivg.tagaini.net)
* Share Alike. If you alter, transform, or build upon this work, you may
  distribute the resulting work only under the same or similar license to this
  one.

See http://creativecommons.org/licenses/by-sa/3.0/ for more details.
-->
<!DOCTYPE svg PUBLIC "-//W3C//DTD SVG 1.0//EN" "http://www.w3.org/TR/2001/REC-SVG-20010904/DTD/svg10.dtd" [
<!ATTLIST g
xmlns:kvg CDATA #FIXED "http://kanjivg.tagaini.net"
kvg:element CDATA #IMPLIED
kvg:variant CDATA #IMPLIED
kvg:partial CDATA #IMPLIED
kvg:original CDATA #IMPLIED
kvg:part CDATA #IMPLIED
kvg:number CDATA #IMPLIED
kvg:tradForm CDATA #IMPLIED
kvg:radicalForm CDATA #IMPLIED
kvg:position CDATA #IMPLIED
kvg:radical CDATA #IMPLIED
kvg:phon CDATA #IMPLIED >
<!ATTLIST path
xmlns:kvg CDATA #FIXED "http://kanjivg.tagaini.net"
kvg:type CDATA #IMPLIED >
]>
<svg xmlns="http://www.w3.org/2000/svg" width="109" height="109" viewBox="0 0 109 109">
<g id="kvg:StrokePaths_04e25" style="fill:none;stroke:#000000;stroke-width:3;stroke-linecap:round;stroke-linejoin:round;">
<g id="kvg:04e25" kvg:element="亚">
	<g id="kvg:04e25-g1" kvg:element="亚" kvg:position="top">
		<g id="kvg:04e25-g2" kvg:element="一"  kvg:position="top" kvg:radical="general">
			<path id="kvg:04e25-s1" kvg:type="㇐" d="m24.51 23.09c2.64 1.11 5.94 0.76 8.67 0.43c10.35 -1.25 36.29 -3.76 49.67 -4.48c2.52 -0.13 5.21 -0.03 7.67 0.59"/>
		</g>
		<g id="kvg:04e25-g3" kvg:element="业" kvg:position="bottom">
			<path id="kvg:04e25-s2" kvg:type="㇑a" d="m47.62 23.5c0.76 0.45 1.18 1.13 1.18 1.79c0 0.48 -0.07 18.34 -0.07 27.44"/>
			<path id="kvg:04e25-s3" kvg:type="㇑a" d="m65.21 22.07c0.71 0.42 0.98 1.13 0.98 1.79c0 0.48 0.03 18.89 0.03 27.67"/>
			<path id="kvg:04e25-s4" kvg:type="㇔" d="m30.5 31.5c2.45 1.43 6.33 5.88 6.94 10.48"/>
			<path id="kvg:04e25-s5" kvg:type="㇒" d="m90.54 27.77c0.09 0.62 -0.14 1.19 -0.61 1.76c-2.01 2.52 -5.25 5.56 -14 13.13"/>
			<path id="kvg:04e25-s6" kvg:type="㇐" d="m24.51 53.4c2.64 0.56 5.94 0.38 8.67 0.22c10.35 -0.63 36.29 -1.88 49.67 -2.24c2.52 -0.07 5.21 -0.01 7.67 0.29"/>
		</g>
	</g>
	<path id="kvg:04e25-s7" kvg:type="㇒" d="m25.41 55.03c0.74 0.92 0.79 1.74 0.81 3.12c0.11 17.23 -6.89 33.16 -13.54 37.18"/>
</g>
</g>
<g id="kvg:StrokeNumbers_04e25" style="font-size:8;fill:#808080">
	<text transform="matrix(1 0 0 1 15.50 25.13)">1</text>
	<text transform="matrix(1 0 0 1 42.50 19.63)">2</text>
	<text transform="matrix(1 0 0 1 62.50 17.50)">3</text>
	<text transform="matrix(1 0 0 1 20.25 37.50)">4</text>
	<text transform="matrix(1 0 0 1 92.50 32.50)">5</text>
	<text transform="matrix(1 0 0 1 20.50 51.13)">6</text>
	<text transform="matrix(1 0 0 1 14.50 65.13)">7</text>
</g>
</svg>
