<?xml version="1.0" encoding="UTF-8"?>
<!--
Copyright (C) 2016 François Mizessyn.
This work makes an extensive use of kanjiVG Copyright (C) 2009/2010/2011 Ulrich Apel.
This work is distributed under the conditions of the Creative Commons
Attribution-Share Alike 3.0 Licence. This means you are free:
* to Share - to copy, distribute and transmit the work
* to Remix - to adapt the work

Under the following conditions:
* Attribution. You must attribute the work by stating your use of HanjiVG in
  your own copyright header and linking to HanjiVG's website
  (http://gooo.free.fr/hanziVG/)
* Attribution. You must attribute the work by stating your use of KanjiVG in
  your own copyright header and linking to KanjiVG's website
  (http://kanjivg.tagaini.net)
* Share Alike. If you alter, transform, or build upon this work, you may
  distribute the resulting work only under the same or similar license to this
  one.

See http://creativecommons.org/licenses/by-sa/3.0/ for more details.
-->
<!DOCTYPE svg PUBLIC "-//W3C//DTD SVG 1.0//EN" "http://www.w3.org/TR/2001/REC-SVG-20010904/DTD/svg10.dtd" [
<!ATTLIST g
xmlns:kvg CDATA #FIXED "http://kanjivg.tagaini.net"
kvg:element CDATA #IMPLIED
kvg:variant CDATA #IMPLIED
kvg:partial CDATA #IMPLIED
kvg:original CDATA #IMPLIED
kvg:part CDATA #IMPLIED
kvg:number CDATA #IMPLIED
kvg:tradForm CDATA #IMPLIED
kvg:radicalForm CDATA #IMPLIED
kvg:position CDATA #IMPLIED
kvg:radical CDATA #IMPLIED
kvg:phon CDATA #IMPLIED >
<!ATTLIST path
xmlns:kvg CDATA #FIXED "http://kanjivg.tagaini.net"
kvg:type CDATA #IMPLIED >
]>
<svg xmlns="http://www.w3.org/2000/svg" width="109" height="109" viewBox="0 0 109 109">
<g id="kvg:StrokePaths_04e24" style="fill:none;stroke:#000000;stroke-width:3;stroke-linecap:round;stroke-linejoin:round;">
<g id="kvg:04e24" kvg:element="两">
	<g id="kvg:04e24-g1" kvg:element="一" kvg:radical="general">
		<path id="kvg:04e24-s1" kvg:type="㇐" d="m11.6 21.64c3.8 1.11 8.59 0.73 12.5 0.4c13.38 -1.16 43.96 -3.56 59.84 -3.96c3.56 -0.09 7.15 0.06 10.66 0.67"/>
	</g>
	<g id="kvg:04e24-g2" kvg:element="冂">
		<path id="kvg:04e24-s2" kvg:type="㇑" d="M12.43,43.31c0.71,0.79,1.34,2.44,1.44,3.88c0.38,5.27,1.1,25.35,1.44,36.17c0.12,3.7,0.19,6.31,0.19,6.88"/>
		<path id="kvg:04e24-s3" kvg:type="㇆a" d="M14.48,45.54C36.12,44,70.12,40,86.62,39.1c4.01-0.27,6.38,1.9,6.2,6.9c-0.43,11.51-3.06,30.75-6.03,40.71c-2.23,7.49-4.79,4.04-7.47,0.32"/>
	</g>
	<g id="kvg:04e24-g3" kvg:element="从">
		<g id="kvg:04e24-g4" kvg:element="人" kvg:position="left" kvg:radical="general">
			<path id="kvg:04e24-s4" kvg:type="㇒" d="m40.2 21.92c0.4 0.91 0.31 2.75 0.27 4.61c-0.27 14.98 -4.67 42.65 -15.9 55.82"/>
			<path id="kvg:04e24-s5" kvg:type="㇏" d="m38.31 50.89c4.88 2.88 11.11 10.55 13.49 17.81"/>
		</g>
		<g id="kvg:04e24-g5" kvg:element="人" kvg:position="right" kvg:radical="general">
			<path id="kvg:04e24-s6" kvg:type="㇒" d="m71.2 19.92c0.4 0.91 0.31 2.75 0.27 4.61c-0.27 14.98 -4.67 42.65 -15.9 55.82"/>
			<path id="kvg:04e24-s7" kvg:type="㇏" d="m67.31 55.49c4.88 2.88 11.11 10.55 13.49 17.81"/>
		</g>
	</g>
</g>
</g>
<g id="kvg:StrokeNumbers_04e24" style="font-size:8;fill:#808080">
	<text transform="matrix(1 0 0 1 10.08 18.30)">1</text>
	<text transform="matrix(1 0 0 1 1.92 50.39)">2</text>
	<text transform="matrix(1 0 0 1 13.42 42.48)">3</text>
	<text transform="matrix(1 0 0 1 42.25 33.74)">4</text>
	<text transform="matrix(1 0 0 1 45.25 55.74)">5</text>
	<text transform="matrix(1 0 0 1 73.25 32.74)">6</text>
	<text transform="matrix(1 0 0 1 72.25 57.74)">7</text>
</g>
</svg>
