<?xml version="1.0" encoding="UTF-8"?>
<!--
Copyright (C) 2016 François Mizessyn.
This work makes an extensive use of kanjiVG Copyright (C) 2009/2010/2011 Ulrich Apel.
This work is distributed under the conditions of the Creative Commons
Attribution-Share Alike 3.0 Licence. This means you are free:
* to Share - to copy, distribute and transmit the work
* to Remix - to adapt the work

Under the following conditions:
* Attribution. You must attribute the work by stating your use of HanjiVG in
  your own copyright header and linking to HanjiVG's website
  (http://gooo.free.fr/hanziVG/)
* Attribution. You must attribute the work by stating your use of KanjiVG in
  your own copyright header and linking to KanjiVG's website
  (http://kanjivg.tagaini.net)
* Share Alike. If you alter, transform, or build upon this work, you may
  distribute the resulting work only under the same or similar license to this
  one.

See http://creativecommons.org/licenses/by-sa/3.0/ for more details.
-->
<!DOCTYPE svg PUBLIC "-//W3C//DTD SVG 1.0//EN" "http://www.w3.org/TR/2001/REC-SVG-20010904/DTD/svg10.dtd" [
<!ATTLIST g
xmlns:kvg CDATA #FIXED "http://kanjivg.tagaini.net"
kvg:element CDATA #IMPLIED
kvg:variant CDATA #IMPLIED
kvg:partial CDATA #IMPLIED
kvg:original CDATA #IMPLIED
kvg:part CDATA #IMPLIED
kvg:number CDATA #IMPLIED
kvg:tradForm CDATA #IMPLIED
kvg:radicalForm CDATA #IMPLIED
kvg:position CDATA #IMPLIED
kvg:radical CDATA #IMPLIED
kvg:phon CDATA #IMPLIED >
<!ATTLIST path
xmlns:kvg CDATA #FIXED "http://kanjivg.tagaini.net"
kvg:type CDATA #IMPLIED >
]>
<svg xmlns="http://www.w3.org/2000/svg" width="109" height="109" viewBox="0 0 109 109">
<g id="kvg:StrokePaths_04e3e" style="fill:none;stroke:#000000;stroke-width:3;stroke-linecap:round;stroke-linejoin:round;">
<g id="kvg:04e3e" kvg:element="举">
	<g id="kvg:04e3e-g1" kvg:element="兴" kvg:position="top">
		<g id="kvg:04e3e-g2" kvg:element="⺍" kvg:original="つ" kvg:position="top">
			<path id="kvg:04e3e-s1" kvg:type="㇔" d="m20.24 20.79c5.83 3.63 12.08 9.98 12.91 11.8"/>
			<path id="kvg:04e3e-s2" kvg:type="㇔" d="m44.4 17.84c2.77 2.46 9.44 8.91 10.55 12.91"/>
			<path id="kvg:04e3e-s3" kvg:type="㇒" d="m84.93 17.54c0.73 0.61 0.7 1.68 -0.25 2.44c-3.18 2.52 -13.3 10.52 -18.17 13.48"/>
		</g>
		<path id="kvg:04e3e-s4" kvg:type="㇐" d="m17.15 41.62c2.03 0.37 5.77 0.5 7.79 0.37c14.15 -0.86 42.5 -3.08 59.46 -3.41c3.38 -0.06 5.42 0.18 7.11 0.37"/>
		<g id="kvg:04e3e-g3" kvg:element="八" kvg:position="bottom" kvg:radical="general">
			<path id="kvg:04e3e-s5" kvg:type="㇒" d="m42.8 46.07c0.08 0.42 0.15 1.1 -0.13 1.71c-1.71 3.6 -13.02 10 -25.09 15.79"/>
			<path id="kvg:04e3e-s6" kvg:type="㇔" d="m66.65 46.31c9.44 3.2 24.38 13.11 26.74 18.08"/>
		</g>
	</g>
	<g id="kvg:04e3e-g4" kvg:position="bottom">
		<g id="kvg:04e3e-g5" kvg:element="二">
			<g id="kvg:04e3e-g6" kvg:position="top">
				<path id="kvg:04e3e-s7" kvg:type="㇐" d="m34.96 67.46c1.07 0.21 3.05 0.27 4.12 0.21c6.84 -0.37 25.29 -2.4 31.92 -2.15c1.78 0.07 2.86 0.1 3.76 0.21"/>
			</g>
			<g id="kvg:04e3e-g7" kvg:position="bottom">
				<path id="kvg:04e3e-s8" kvg:type="㇐" d="m23.97 80.37c1.58 0.22 4.47 0.24 6.04 0.22c9.58 -0.14 35.17 -2.39 49.01 -2.13c2.62 0.05 4.2 0.1 5.51 0.22"/>
			</g>
		</g>
		<g id="kvg:04e3e-g8" kvg:element="丨">
			<path id="kvg:04e3e-s9" kvg:type="㇑" d="m52.87 54.45c1.09 0.5 1.74 2.25 1.96 3.25c0.22 1 0 32.75 -0.22 39"/>
		</g>
	</g>
</g>
</g>
<g id="kvg:StrokeNumbers_04e3e" style="font-size:8;fill:#808080">
	<text transform="matrix(1 0 0 1 10.50 21.50)">1</text>
	<text transform="matrix(1 0 0 1 34.50 15.50)">2</text>
	<text transform="matrix(1 0 0 1 79.50 15.50)">3</text>
	<text transform="matrix(1 0 0 1 7.50 47.91)">4</text>
	<text transform="matrix(1 0 0 1 32.50 54.50)">5</text>
	<text transform="matrix(1 0 0 1 58.50 54.50)">6</text>
	<text transform="matrix(1 0 0 1 25.50 72.70)">7</text>
	<text transform="matrix(1 0 0 1 13.50 85.70)">8</text>
	<text transform="matrix(1 0 0 1 42.50 58.70)">9</text>
</g>
</svg>
