<?xml version="1.0" encoding="UTF-8"?>
<!--
Copyright (C) 2016 François Mizessyn.
This work makes an extensive use of kanjiVG Copyright (C) 2009/2010/2011 Ulrich Apel.
This work is distributed under the conditions of the Creative Commons
Attribution-Share Alike 3.0 Licence. This means you are free:
* to Share - to copy, distribute and transmit the work
* to Remix - to adapt the work

Under the following conditions:
* Attribution. You must attribute the work by stating your use of HanjiVG in
  your own copyright header and linking to HanjiVG's website
  (http://gooo.free.fr/hanziVG/)
* Attribution. You must attribute the work by stating your use of KanjiVG in
  your own copyright header and linking to KanjiVG's website
  (http://kanjivg.tagaini.net)
* Share Alike. If you alter, transform, or build upon this work, you may
  distribute the resulting work only under the same or similar license to this
  one.

See http://creativecommons.org/licenses/by-sa/3.0/ for more details.
-->
<!DOCTYPE svg PUBLIC "-//W3C//DTD SVG 1.0//EN" "http://www.w3.org/TR/2001/REC-SVG-20010904/DTD/svg10.dtd" [
<!ATTLIST g
xmlns:kvg CDATA #FIXED "http://kanjivg.tagaini.net"
kvg:element CDATA #IMPLIED
kvg:variant CDATA #IMPLIED
kvg:partial CDATA #IMPLIED
kvg:original CDATA #IMPLIED
kvg:part CDATA #IMPLIED
kvg:number CDATA #IMPLIED
kvg:tradForm CDATA #IMPLIED
kvg:radicalForm CDATA #IMPLIED
kvg:position CDATA #IMPLIED
kvg:radical CDATA #IMPLIED
kvg:phon CDATA #IMPLIED >
<!ATTLIST path
xmlns:kvg CDATA #FIXED "http://kanjivg.tagaini.net"
kvg:type CDATA #IMPLIED >
]>
<svg xmlns="http://www.w3.org/2000/svg" width="109" height="109" viewBox="0 0 109 109">
<g id="kvg:StrokePaths_04e3d" style="fill:none;stroke:#000000;stroke-width:3;stroke-linecap:round;stroke-linejoin:round;">
<g id="kvg:04e3d" kvg:element="丽">
	<g id="kvg:04e3d-g1" kvg:element="一" kvg:position="top" kvg:radical="general">
		<path id="kvg:04e3d-s1" kvg:type="㇐" d="M21 23.36c3.3 0.51 6.75 0.41 9.6 0.12c13.15 -1.34 30.56 -3.85 47.73 -4.41c3.44 -0.11 7 0.18 10.4 0.77"/>
	</g>
	<g id="kvg:04e3d-g2" kvg:position="bottom">
		<g id="kvg:04e3d-g3" kvg:position="left">
			<path id="kvg:04e3d-s2" kvg:type="㇑" d="M21.19 34.92c0.42 0.36 1.24 2.32 1.32 3.05c0.08 0.72 0 2.38 -0.08 56.38"/>
			<path id="kvg:04e3d-s3" kvg:type="㇆" d="M22.62 34.81c1.74 0.82 3.11 0.65 5.57 0.2c4.99 -0.9 13.63 -3.48 15.15 -3.62c2.96 -0.27 4.28 1.91 4.28 5.13c-0.01 7.15 -0.01 35.1 -0.01 52.17c0 9.79 -7.72 0.95 -8.57 0.14"/>
			<path id="kvg:04e3d-s4" kvg:type="㇔" d="M31.19 53.39c2.89 1.19 7.46 4.91 8.17 6.76"/>
		</g>
		<g id="kvg:04e3d-g4" kvg:position="right">
			<path id="kvg:04e3d-s5" kvg:type="㇑" d="M54.79 34.42c0.42 0.36 1.24 2.32 1.32 3.05c0.08 0.72 0 2.38 -0.08 56.88"/>
			<path id="kvg:04e3d-s6" kvg:type="㇆" d="M54.62 33.53c2.67 0.89 4.55 1.13 6.9 0.64c5.22 -1.08 16.61 -3.76 20.78 -4.85c3.44 -0.88 5.59 1.06 5.59 6.17c0 10.76 -0.14 43.12 -0.14 53.94c0 12.01 -7.13 1.82 -7.98 1.03"/>
			<path id="kvg:04e3d-s7" kvg:type="㇔" d="M65.8 49.4c3.69 1.85 9.53 7.58 10.44 10.43"/>
		</g>
	</g>
</g>
</g>
<g id="kvg:StrokeNumbers_04e3d" style="font-size:8;fill:#808080">
	<text transform="matrix(1 0 0 1 12.25 25.50)">1</text>
	<text transform="matrix(1 0 0 1 11.75 42.50)">2</text>
	<text transform="matrix(1 0 0 1 19.25 33.50)">3</text>
	<text transform="matrix(1 0 0 1 23.75 52.40)">4</text>
	<text transform="matrix(1 0 0 1 46.75 43.50)">5</text>
	<text transform="matrix(1 0 0 1 53.50 32.75)">6</text>
	<text transform="matrix(1 0 0 1 56.75 52.50)">7</text>
</g>
</svg>
