<?xml version="1.0" encoding="UTF-8"?>
<!--
Copyright (C) 2016 François Mizessyn.
This work makes an extensive use of kanjiVG Copyright (C) 2009/2010/2011 Ulrich Apel.
This work is distributed under the conditions of the Creative Commons
Attribution-Share Alike 3.0 Licence. This means you are free:
* to Share - to copy, distribute and transmit the work
* to Remix - to adapt the work

Under the following conditions:
* Attribution. You must attribute the work by stating your use of HanjiVG in
  your own copyright header and linking to HanjiVG's website
  (http://gooo.free.fr/hanziVG/)
* Attribution. You must attribute the work by stating your use of KanjiVG in
  your own copyright header and linking to KanjiVG's website
  (http://kanjivg.tagaini.net)
* Share Alike. If you alter, transform, or build upon this work, you may
  distribute the resulting work only under the same or similar license to this
  one.

See http://creativecommons.org/licenses/by-sa/3.0/ for more details.
-->
<!DOCTYPE svg PUBLIC "-//W3C//DTD SVG 1.0//EN" "http://www.w3.org/TR/2001/REC-SVG-20010904/DTD/svg10.dtd" [
<!ATTLIST g
xmlns:kvg CDATA #FIXED "http://kanjivg.tagaini.net"
kvg:element CDATA #IMPLIED
kvg:variant CDATA #IMPLIED
kvg:partial CDATA #IMPLIED
kvg:original CDATA #IMPLIED
kvg:part CDATA #IMPLIED
kvg:number CDATA #IMPLIED
kvg:tradForm CDATA #IMPLIED
kvg:radicalForm CDATA #IMPLIED
kvg:position CDATA #IMPLIED
kvg:radical CDATA #IMPLIED
kvg:phon CDATA #IMPLIED >
<!ATTLIST path
xmlns:kvg CDATA #FIXED "http://kanjivg.tagaini.net"
kvg:type CDATA #IMPLIED >
]>
<svg xmlns="http://www.w3.org/2000/svg" width="109" height="109" viewBox="0 0 109 109">
<g id="kvg:StrokePaths_04e48" style="fill:none;stroke:#000000;stroke-width:3;stroke-linecap:round;stroke-linejoin:round;">
<g id="kvg:04e48" kvg:element="么">
	<g id="kvg:04e48-g1" kvg:element="丿" kvg:radical="nelson">
		<path id="kvg:04e48-s1" kvg:type="㇒" d="m54.34 12.75c0.11 0.98 0 2.64 -0.72 3.93c-5.24 9.32 -17.37 24.32 -38.87 37.82"/>
	</g>
	<g id="kvg:04e48-g2" kvg:element="厶" kvg:position="bottom">
		<path id="kvg:04e48-s2" kvg:type="㇜" d="m54.96 40.4c0.54 1.8 0.46 3.65 -0.92 6.06c-7.69 13.44 -12.95 21.24 -24.11 35.23c-2.72 3.41 -1.74 6.79 2.62 5.5c12.16 -3.59 33.46 -8.84 49.36 -12.29"/>
		<path id="kvg:04e48-s3" kvg:type="㇔" d="m73.06 62c6.52 5.35 16.82 21.98 18.46 30.3"/>
	</g>
</g>
</g>
<g id="kvg:StrokeNumbers_04e48" style="font-size:8;fill:#808080">
	<text transform="matrix(1 0 0 1 34.50 21.50)">1</text>
	<text transform="matrix(1 0 0 1 45.50 45.13)">2</text>
	<text transform="matrix(1 0 0 1 63.50 63.50)">3</text>
</g>
</svg>
