<?xml version="1.0" encoding="UTF-8"?>
<!--
Copyright (C) 2016 François Mizessyn.
This work makes an extensive use of kanjiVG Copyright (C) 2009/2010/2011 Ulrich Apel.
This work is distributed under the conditions of the Creative Commons
Attribution-Share Alike 3.0 Licence. This means you are free:
* to Share - to copy, distribute and transmit the work
* to Remix - to adapt the work

Under the following conditions:
* Attribution. You must attribute the work by stating your use of HanjiVG in
  your own copyright header and linking to HanjiVG's website
  (http://gooo.free.fr/hanziVG/)
* Attribution. You must attribute the work by stating your use of KanjiVG in
  your own copyright header and linking to KanjiVG's website
  (http://kanjivg.tagaini.net)
* Share Alike. If you alter, transform, or build upon this work, you may
  distribute the resulting work only under the same or similar license to this
  one.

See http://creativecommons.org/licenses/by-sa/3.0/ for more details.
-->
<!DOCTYPE svg PUBLIC "-//W3C//DTD SVG 1.0//EN" "http://www.w3.org/TR/2001/REC-SVG-20010904/DTD/svg10.dtd" [
<!ATTLIST g
xmlns:kvg CDATA #FIXED "http://kanjivg.tagaini.net"
kvg:element CDATA #IMPLIED
kvg:variant CDATA #IMPLIED
kvg:partial CDATA #IMPLIED
kvg:original CDATA #IMPLIED
kvg:part CDATA #IMPLIED
kvg:number CDATA #IMPLIED
kvg:tradForm CDATA #IMPLIED
kvg:radicalForm CDATA #IMPLIED
kvg:position CDATA #IMPLIED
kvg:radical CDATA #IMPLIED
kvg:phon CDATA #IMPLIED >
<!ATTLIST path
xmlns:kvg CDATA #FIXED "http://kanjivg.tagaini.net"
kvg:type CDATA #IMPLIED >
]>
<svg xmlns="http://www.w3.org/2000/svg" width="109" height="109" viewBox="0 0 109 109">
<g id="kvg:StrokePaths_04e66" style="fill:none;stroke:#000000;stroke-width:3;stroke-linecap:round;stroke-linejoin:round;">
<g id="kvg:04e66" kvg:element="书">
	<path id="kvg:04e66-s1" kvg:type="㇕c" d="m21.9 34.4c1 0.6 2.36 0.6 4 0.4c20.1 -0.4 45.26 -2.78 51.8 -3.31c1.98 -0.25 3.83 -0.18 3.03 2.36c-0.52 1.66 -1.65 4.97 -2.74 16.05"/>
	<g id="kvg:04e66-g1" kvg:element="勹">
		<path id="kvg:04e66-s2" kvg:type="㇆" d="m18.25 56c1.25 0.75 2.95 0.75 5 0.5c25.13 -0.5 56.57 -3.48 64.75 -4.14c4.75 -0.39 5.92 0.95 4.84 5.57c-1.59 6.76 -5.39 17.56 -10.84 27.32c-2.64 4.72 -5.05 1.88 -8 -1.25"/>
	</g>
	<path id="kvg:04e66-s3" kvg:type="㇑" d="M48.22,11.63c1.4,1.4,2.2,3.96,2.2,6.26c0,1.13-0.03,51.22-0.19,72.41c-0.03,3.96-0.06,6.83-0.08,8.08"/>
	<g id="kvg:04e66-g2" kvg:element="丶">
<path id="kvg:094b1-s10" kvg:type="㇔" d="m73.74 18.54c5.82 2.25 14.12 6.66 16.82 10.53"/>
	</g>
</g>
</g>
<g id="kvg:StrokeNumbers_04e66" style="font-size:8;fill:#808080">
	<text transform="matrix(1 0 0 1 13.50 37.50)">1</text>
	<text transform="matrix(1 0 0 1 7.50 57.63)">2</text>
	<text transform="matrix(1 0 0 1 38.50 14.50)">3</text>
	<text transform="matrix(1 0 0 1 63.50 24.13)">4</text>
</g>
</svg>
