<?xml version="1.0" encoding="UTF-8"?>
<!--
Copyright (C) 2016 François Mizessyn.
This work makes an extensive use of kanjiVG Copyright (C) 2009/2010/2011 Ulrich Apel.
This work is distributed under the conditions of the Creative Commons
Attribution-Share Alike 3.0 Licence. This means you are free:
* to Share - to copy, distribute and transmit the work
* to Remix - to adapt the work

Under the following conditions:
* Attribution. You must attribute the work by stating your use of HanjiVG in
  your own copyright header and linking to HanjiVG's website
  (http://gooo.free.fr/hanziVG/)
* Attribution. You must attribute the work by stating your use of KanjiVG in
  your own copyright header and linking to KanjiVG's website
  (http://kanjivg.tagaini.net)
* Share Alike. If you alter, transform, or build upon this work, you may
  distribute the resulting work only under the same or similar license to this
  one.

See http://creativecommons.org/licenses/by-sa/3.0/ for more details.
-->
<!DOCTYPE svg PUBLIC "-//W3C//DTD SVG 1.0//EN" "http://www.w3.org/TR/2001/REC-SVG-20010904/DTD/svg10.dtd" [
<!ATTLIST g
xmlns:kvg CDATA #FIXED "http://kanjivg.tagaini.net"
kvg:element CDATA #IMPLIED
kvg:variant CDATA #IMPLIED
kvg:partial CDATA #IMPLIED
kvg:original CDATA #IMPLIED
kvg:part CDATA #IMPLIED
kvg:number CDATA #IMPLIED
kvg:tradForm CDATA #IMPLIED
kvg:radicalForm CDATA #IMPLIED
kvg:position CDATA #IMPLIED
kvg:radical CDATA #IMPLIED
kvg:phon CDATA #IMPLIED >
<!ATTLIST path
xmlns:kvg CDATA #FIXED "http://kanjivg.tagaini.net"
kvg:type CDATA #IMPLIED >
]>
<svg xmlns="http://www.w3.org/2000/svg" width="109" height="109" viewBox="0 0 109 109">
<g id="kvg:StrokePaths_04e60" style="fill:none;stroke:#000000;stroke-width:3;stroke-linecap:round;stroke-linejoin:round;">
<g id="kvg:04e60" kvg:element="习">
	<path id="kvg:04e60-s1" kvg:type="㇆" d="M24.5,18.5c2.81,0.47,5.53,0.55,8.36,0.24C49.81,16.86,75.38,14.34,79.5,14c4.5-0.38,5.75,1.25,5.75,5c0,2.5,0.25,63.5,0.25,69.25c0,13.62-6.38,6.25-10.5,2.5"/>
	<path id="kvg:04e60-s2" kvg:type="㇔" d="M36.29,38.27C42.82,40.23,51.71,45.27,54.80,49.36"/>
	<path id="kvg:04e60-s3" kvg:type="㇀" d="M32.26,76.89C33.90,77.41,36.74,77.43,38.63,76.37C46.30,72.04,61.85,64.06,69.86,60.05"/>
</g>
</g>
<g id="kvg:StrokeNumbers_04e60" style="font-size:8;fill:#808080">
	<text transform="matrix(1 0 0 1 15.50 20.50)">1</text>
	<text transform="matrix(1 0 0 1 22.50 43.50)">2</text>
	<text transform="matrix(1 0 0 1 18.50 78.50)">3</text>
</g>
</svg>
