<?xml version="1.0" encoding="UTF-8"?>
<!--
Copyright (C) 2016 François Mizessyn.
This work makes an extensive use of kanjiVG Copyright (C) 2009/2010/2011 Ulrich Apel.
This work is distributed under the conditions of the Creative Commons
Attribution-Share Alike 3.0 Licence. This means you are free:
* to Share - to copy, distribute and transmit the work
* to Remix - to adapt the work

Under the following conditions:
* Attribution. You must attribute the work by stating your use of HanjiVG in
  your own copyright header and linking to HanjiVG's website
  (http://gooo.free.fr/hanziVG/)
* Attribution. You must attribute the work by stating your use of KanjiVG in
  your own copyright header and linking to KanjiVG's website
  (http://kanjivg.tagaini.net)
* Share Alike. If you alter, transform, or build upon this work, you may
  distribute the resulting work only under the same or similar license to this
  one.

See http://creativecommons.org/licenses/by-sa/3.0/ for more details.
-->
<!DOCTYPE svg PUBLIC "-//W3C//DTD SVG 1.0//EN" "http://www.w3.org/TR/2001/REC-SVG-20010904/DTD/svg10.dtd" [
<!ATTLIST g
xmlns:kvg CDATA #FIXED "http://kanjivg.tagaini.net"
kvg:element CDATA #IMPLIED
kvg:variant CDATA #IMPLIED
kvg:partial CDATA #IMPLIED
kvg:original CDATA #IMPLIED
kvg:part CDATA #IMPLIED
kvg:number CDATA #IMPLIED
kvg:tradForm CDATA #IMPLIED
kvg:radicalForm CDATA #IMPLIED
kvg:position CDATA #IMPLIED
kvg:radical CDATA #IMPLIED
kvg:phon CDATA #IMPLIED >
<!ATTLIST path
xmlns:kvg CDATA #FIXED "http://kanjivg.tagaini.net"
kvg:type CDATA #IMPLIED >
]>
<svg xmlns="http://www.w3.org/2000/svg" width="109" height="109" viewBox="0 0 109 109">
<g id="kvg:StrokePaths_04e70" style="fill:none;stroke:#000000;stroke-width:3;stroke-linecap:round;stroke-linejoin:round;">
<g id="kvg:04e70" kvg:element="买" kvg:radical="general">
	<path id="kvg:04e70-s1" kvg:type="㇖" d="m20.22 24.31c2.78 0.65 4.46 1.17 7.28 0.65c16 -2.93 36.97 -8.15 57.69 -8.15c9.56 0 5.56 5.22 -0.69 12.4"/>
	<g id="kvg:04e70-g1" kvg:element="头">
		<path id="kvg:04e70-s2" kvg:type="㇔" d="m42.42 31.82c2.51 1.79 8.97 11.89 8.5 12.62"/>
		<path id="kvg:04e70-s3" kvg:type="㇔" d="m30.42 38.34c2.51 1.79 8.97 11.89 8.5 12.62"/>
		<g id="kvg:04e70-g2" kvg:element="大">
			<path id="kvg:04e70-s4" kvg:type="㇐" d="m18.8 61.59c1.29 0.45 4.72 0.98 7.45 0.78c18.48 -1.34 42.75 -4.03 59.34 -4.67c2.85 -0.1 5.15 -0.05 7.72 0.3"/>
			<path id="kvg:04e70-s5" kvg:type="㇒" d="m58.35 32.47c0.58 0.7 0.89 1.51 0.87 6.36c-0.28 26.25 -13.47 41.49 -43.38 53.69"/>
			<path id="kvg:04e70-s6" kvg:type="㇏" d="m55.29 59.57c7.71 8.06 25.7 28.6 33.4 33.98c2.62 1.83 3.53 2.11 4.72 2.29"/>
		</g>
	</g>
</g>
</g>
<g id="kvg:StrokeNumbers_04e70" style="font-size:8;fill:#808080">
	<text transform="matrix(1 0 0 1 17.50 18.50)">1</text>
	<text transform="matrix(1 0 0 1 31.50 36.13)">2</text>
	<text transform="matrix(1 0 0 1 20.50 42.50)">3</text>
	<text transform="matrix(1 0 0 1 11.25 59.63)">4</text>
	<text transform="matrix(1 0 0 1 49.50 32.50)">5</text>
	<text transform="matrix(1 0 0 1 68.50 70.50)">6</text>
</g>
</svg>
