<?xml version="1.0" encoding="UTF-8"?>
<!--
Copyright (C) 2016 François Mizessyn.
This work makes an extensive use of kanjiVG Copyright (C) 2009/2010/2011 Ulrich Apel.
This work is distributed under the conditions of the Creative Commons
Attribution-Share Alike 3.0 Licence. This means you are free:
* to Share - to copy, distribute and transmit the work
* to Remix - to adapt the work

Under the following conditions:
* Attribution. You must attribute the work by stating your use of HanjiVG in
  your own copyright header and linking to HanjiVG's website
  (http://gooo.free.fr/hanziVG/)
* Attribution. You must attribute the work by stating your use of KanjiVG in
  your own copyright header and linking to KanjiVG's website
  (http://kanjivg.tagaini.net)
* Share Alike. If you alter, transform, or build upon this work, you may
  distribute the resulting work only under the same or similar license to this
  one.

See http://creativecommons.org/licenses/by-sa/3.0/ for more details.
-->
<!DOCTYPE svg PUBLIC "-//W3C//DTD SVG 1.0//EN" "http://www.w3.org/TR/2001/REC-SVG-20010904/DTD/svg10.dtd" [
<!ATTLIST g
xmlns:kvg CDATA #FIXED "http://kanjivg.tagaini.net"
kvg:element CDATA #IMPLIED
kvg:variant CDATA #IMPLIED
kvg:partial CDATA #IMPLIED
kvg:original CDATA #IMPLIED
kvg:part CDATA #IMPLIED
kvg:number CDATA #IMPLIED
kvg:tradForm CDATA #IMPLIED
kvg:radicalForm CDATA #IMPLIED
kvg:position CDATA #IMPLIED
kvg:radical CDATA #IMPLIED
kvg:phon CDATA #IMPLIED >
<!ATTLIST path
xmlns:kvg CDATA #FIXED "http://kanjivg.tagaini.net"
kvg:type CDATA #IMPLIED >
]>
<svg xmlns="http://www.w3.org/2000/svg" width="109" height="109" viewBox="0 0 109 109">
<g id="kvg:StrokePaths_04eb2" style="fill:none;stroke:#000000;stroke-width:3;stroke-linecap:round;stroke-linejoin:round;">
<g id="kvg:04eb2" kvg:element="亲">
	<g id="kvg:04eb2-g1" kvg:element="立">
		<g id="kvg:04eb2-g2" kvg:element="亠" kvg:position="top">
			<path id="kvg:04eb2-s1" kvg:type="㇑a" d="m52.18 13.51c0.97 0.97 1.62 2.28 1.62 3.71c0 1.44 0.01 4.82 0.01 8.72"/>
			<path id="kvg:04eb2-s2" kvg:type="㇐" d="m23.64 29.19c2.24 0.11 4.9 0.15 7.1 0.03c10.76 -0.6 31.26 -2.6 44.04 -3.22c3.72 -0.18 6.48 -0.25 8.54 0.02"/>
		</g>
		<g id="kvg:04eb2-g3" kvg:position="bottom">
			<path id="kvg:04eb2-s3" kvg:type="㇔" d="m33.62 33.25c4.88 3.38 8.04 7.74 8.7 10.98"/>
			<path id="kvg:04eb2-s4" kvg:type="㇒" d="m71.86 30.75c0.5 0.67 0.56 1.87 0.22 2.58c-0.8 3.04 -4.08 7.79 -4.84 9.67"/>
			<path id="kvg:04eb2-s5" kvg:type="㇐" d="m15.84 48.45c4.16 0.3 6.58 0.33 11.08 0.03c14.58 -0.98 42.08 -3.98 56.74 -4.49c2.86 -0.1 6.9 -0.04 8.34 0.01"/>
		</g>
	</g>
	<g id="kvg:04eb2-g4" kvg:element="木">
		<path id="kvg:04eb2-s6" kvg:type="㇐" d="m17.52 62.95c1.54 0.23 4.96 0.59 9 0.34c14.74 -0.91 37.14 -3.05 52.2 -4.48c4.02 -0.38 6.28 -0.3 8.28 -0.3"/>
		<path id="kvg:04eb2-s7" kvg:type="㇑" d="m52.25 51c1 1 1.53 2.5 1.53 3.93c0 3.82 0.1 26.35 -0.11 37.82c-0.04 2.16 -0.08 3.83 -0.12 4.75"/>
		<path id="kvg:04eb2-s8" kvg:type="㇒" d="m38.12 75.19c0 0.48 -0.56 1.09 -0.89 1.4c-4.2 4.08 -12.56 8.85 -19.74 11.04"/>
		<path id="kvg:04eb2-s9" kvg:type="㇔/㇏" d="m70 73.75c7.44 2.83 12.22 5.67 16.5 8.5"/>
	</g>
</g>
</g>
<g id="kvg:StrokeNumbers_04eb2" style="font-size:8;fill:#808080">
	<text transform="matrix(1 0 0 1 46.25 12.63)">1</text>
	<text transform="matrix(1 0 0 1 10.77 30.99)">2</text>
	<text transform="matrix(1 0 0 1 27.75 35.13)">3</text>
	<text transform="matrix(1 0 0 1 66.75 33.13)">4</text>
	<text transform="matrix(1 0 0 1 4.56 51.25)">5</text>
	<text transform="matrix(1 0 0 1 6.86 66.93)">6</text>
	<text transform="matrix(1 0 0 1 50.11 50.11)">7</text>
	<text transform="matrix(1 0 0 1 40.22 76.47)">8</text>
	<text transform="matrix(1 0 0 1 59.16 75.20)">9</text>
</g>
</svg>
