<?xml version="1.0" encoding="UTF-8"?>
<!--
Copyright (C) 2016 François Mizessyn.
This work makes an extensive use of kanjiVG Copyright (C) 2009/2010/2011 Ulrich Apel.
This work is distributed under the conditions of the Creative Commons
Attribution-Share Alike 3.0 Licence. This means you are free:
* to Share - to copy, distribute and transmit the work
* to Remix - to adapt the work

Under the following conditions:
* Attribution. You must attribute the work by stating your use of HanjiVG in
  your own copyright header and linking to HanjiVG's website
  (http://gooo.free.fr/hanziVG/)
* Attribution. You must attribute the work by stating your use of KanjiVG in
  your own copyright header and linking to KanjiVG's website
  (http://kanjivg.tagaini.net)
* Share Alike. If you alter, transform, or build upon this work, you may
  distribute the resulting work only under the same or similar license to this
  one.

See http://creativecommons.org/licenses/by-sa/3.0/ for more details.
-->
<!DOCTYPE svg PUBLIC "-//W3C//DTD SVG 1.0//EN" "http://www.w3.org/TR/2001/REC-SVG-20010904/DTD/svg10.dtd" [
<!ATTLIST g
xmlns:kvg CDATA #FIXED "http://kanjivg.tagaini.net"
kvg:element CDATA #IMPLIED
kvg:variant CDATA #IMPLIED
kvg:partial CDATA #IMPLIED
kvg:original CDATA #IMPLIED
kvg:part CDATA #IMPLIED
kvg:number CDATA #IMPLIED
kvg:tradForm CDATA #IMPLIED
kvg:radicalForm CDATA #IMPLIED
kvg:position CDATA #IMPLIED
kvg:radical CDATA #IMPLIED
kvg:phon CDATA #IMPLIED >
<!ATTLIST path
xmlns:kvg CDATA #FIXED "http://kanjivg.tagaini.net"
kvg:type CDATA #IMPLIED >
]>
<svg xmlns="http://www.w3.org/2000/svg" width="109" height="109" viewBox="0 0 109 109">
<g id="kvg:StrokePaths_04ec5" style="fill:none;stroke:#000000;stroke-width:3;stroke-linecap:round;stroke-linejoin:round;">
<g id="kvg:04ec5" kvg:element="仅">
	<g id="kvg:04ec5-g1" kvg:element="亻" kvg:variant="true" kvg:original="人" kvg:radical="tradit">
		<path id="kvg:04ec5-s1" kvg:type="㇒" d="M36.74 15.14c0 1.48 -0.16 2.68 -0.63 4.1c-3.61 11.01 -10.99 24.76 -22.8 38.48"/>
		<path id="kvg:04ec5-s2" kvg:type="㇑" d="M29.74 38c0.88 0.88 1.1 2.12 1.1 3.63c0 10.56 -0.04 28.98 -0.06 42.12c-0.01 5.08 -0.01 9.38 -0.01 12.12"/>
	</g>
	<g id="kvg:04ec5-g2" kvg:element="又" kvg:position="right" kvg:radical="general">
		<path id="kvg:04ec5-s3" kvg:type="㇇" d="m48.52 27.15c1.3 0.45 4.18 0.67 6.82 0.16c4.83 -0.94 17.73 -5.07 19.53 -5.74c3.04 -1.13 5.68 1.01 4.64 4.64c-7.93 27.86 -20.16 52.69 -42.03 66.99"/>
		<path id="kvg:04ec5-s4" kvg:type="㇏" d="m47.12 40.56c5.7 1.1 21.71 26.32 36.34 41.92c3.8 4.04 7.8 7.64 12.41 10.63"/>
	</g>
</g>
</g>
<g id="kvg:StrokeNumbers_04ec5" style="font-size:8;fill:#808080">
	<text transform="matrix(1 0 0 1 26.50 15.85)">1</text>
	<text transform="matrix(1 0 0 1 18.50 35.50)">2</text>
	<text transform="matrix(1 0 0 1 39.50 24.50)">3</text>
	<text transform="matrix(1 0 0 1 37.50 42.55)">4</text>
</g>
</svg>
