<?xml version="1.0" encoding="UTF-8"?>
<!--
Copyright (C) 2016 François Mizessyn.
This work makes an extensive use of kanjiVG Copyright (C) 2009/2010/2011 Ulrich Apel.
This work is distributed under the conditions of the Creative Commons
Attribution-Share Alike 3.0 Licence. This means you are free:
* to Share - to copy, distribute and transmit the work
* to Remix - to adapt the work

Under the following conditions:
* Attribution. You must attribute the work by stating your use of HanjiVG in
  your own copyright header and linking to HanjiVG's website
  (http://gooo.free.fr/hanziVG/)
* Attribution. You must attribute the work by stating your use of KanjiVG in
  your own copyright header and linking to KanjiVG's website
  (http://kanjivg.tagaini.net)
* Share Alike. If you alter, transform, or build upon this work, you may
  distribute the resulting work only under the same or similar license to this
  one.

See http://creativecommons.org/licenses/by-sa/3.0/ for more details.
-->
<!DOCTYPE svg PUBLIC "-//W3C//DTD SVG 1.0//EN" "http://www.w3.org/TR/2001/REC-SVG-20010904/DTD/svg10.dtd" [
<!ATTLIST g
xmlns:kvg CDATA #FIXED "http://kanjivg.tagaini.net"
kvg:element CDATA #IMPLIED
kvg:variant CDATA #IMPLIED
kvg:partial CDATA #IMPLIED
kvg:original CDATA #IMPLIED
kvg:part CDATA #IMPLIED
kvg:number CDATA #IMPLIED
kvg:tradForm CDATA #IMPLIED
kvg:radicalForm CDATA #IMPLIED
kvg:position CDATA #IMPLIED
kvg:radical CDATA #IMPLIED
kvg:phon CDATA #IMPLIED >
<!ATTLIST path
xmlns:kvg CDATA #FIXED "http://kanjivg.tagaini.net"
kvg:type CDATA #IMPLIED >
]>
<svg xmlns="http://www.w3.org/2000/svg" width="109" height="109" viewBox="0 0 109 109">
<g id="kvg:StrokePaths_04eec" style="fill:none;stroke:#000000;stroke-width:3;stroke-linecap:round;stroke-linejoin:round;">
<g id="kvg:04eec" kvg:element="们">
	<g id="kvg:04eec-g1" kvg:element="亻" kvg:variant="true" kvg:original="人" kvg:position="left" kvg:radical="general">
		<path id="kvg:04eec-s1" kvg:type="㇒" d="M35.25,18.62c0.21,2-0.06,3.84-0.73,5.56C30.24,36.1,19,48.12,10,59.62"/>
		<path id="kvg:04eec-s2" kvg:type="㇑" d="M27.91,42c0.92,0.92,1.25,2.38,1.25,3.5c0.03,10.67,0.17,32.06,0.22,43.37c0.01,2.49,0.02,4.52,0.02,5.88"/>
	</g>
	<g id="kvg:04eec-g2" kvg:element="门" kvg:radical="general">
		<path id="kvg:04eec-s3" kvg:type="㇔" d="m47.13 13.75c2.29 1.37 8.16 9.11 8.65 11.67"/>
		<path id="kvg:04eec-s4" kvg:type="㇑" d="m46.76 29c0.52 0.76 0.66 2.46 0.66 4.04c0 16.29 -0.25 41.89 -0.25 62.84"/>
		<path id="kvg:04eec-s5" kvg:type="㇆a" d="m61.5 17.83c8.23 -1.83 20.08 -4.66 24.5 -5.42c2.45 -0.42 3.68 0.83 3.68 5.17c0 2.33 0.06 70.25 0.06 73.58c0 11.08 -4.26 4.08 -6.01 1.58"/>
	</g>
</g>
</g>
<g id="kvg:StrokeNumbers_04eec" style="font-size:8;fill:#808080">
	<text transform="matrix(1 0 0 1 25.75 19.50)">1</text>
	<text transform="matrix(1 0 0 1 18.25 61.50)">2</text>
	<text transform="matrix(1 0 0 1 36.75 13.63)">3</text>
	<text transform="matrix(1 0 0 1 34.50 35.63)">4</text>
	<text transform="matrix(1 0 0 1 51.50 15.50)">5</text>
</g>
</svg>
