<?xml version="1.0" encoding="UTF-8"?>
<!--
Copyright (C) 2016 François Mizessyn.
This work makes an extensive use of kanjiVG Copyright (C) 2009/2010/2011 Ulrich Apel.
This work is distributed under the conditions of the Creative Commons
Attribution-Share Alike 3.0 Licence. This means you are free:
* to Share - to copy, distribute and transmit the work
* to Remix - to adapt the work

Under the following conditions:
* Attribution. You must attribute the work by stating your use of HanjiVG in
  your own copyright header and linking to HanjiVG's website
  (http://gooo.free.fr/hanziVG/)
* Attribution. You must attribute the work by stating your use of KanjiVG in
  your own copyright header and linking to KanjiVG's website
  (http://kanjivg.tagaini.net)
* Share Alike. If you alter, transform, or build upon this work, you may
  distribute the resulting work only under the same or similar license to this
  one.

See http://creativecommons.org/licenses/by-sa/3.0/ for more details.
-->
<!DOCTYPE svg PUBLIC "-//W3C//DTD SVG 1.0//EN" "http://www.w3.org/TR/2001/REC-SVG-20010904/DTD/svg10.dtd" [
<!ATTLIST g
xmlns:kvg CDATA #FIXED "http://kanjivg.tagaini.net"
kvg:element CDATA #IMPLIED
kvg:variant CDATA #IMPLIED
kvg:partial CDATA #IMPLIED
kvg:original CDATA #IMPLIED
kvg:part CDATA #IMPLIED
kvg:number CDATA #IMPLIED
kvg:tradForm CDATA #IMPLIED
kvg:radicalForm CDATA #IMPLIED
kvg:position CDATA #IMPLIED
kvg:radical CDATA #IMPLIED
kvg:phon CDATA #IMPLIED >
<!ATTLIST path
xmlns:kvg CDATA #FIXED "http://kanjivg.tagaini.net"
kvg:type CDATA #IMPLIED >
]>
<svg xmlns="http://www.w3.org/2000/svg" width="109" height="109" viewBox="0 0 109 109">
<g id="kvg:StrokePaths_04ee5" style="fill:none;stroke:#000000;stroke-width:3;stroke-linecap:round;stroke-linejoin:round;">
<g id="kvg:04ee5" kvg:element="以">
	<g id="kvg:04ee5-g1" kvg:position="left">
		<path id="kvg:04ee5-s1" kvg:type="㇙" d="M 20.87,27.5 C 21.66,28.4 21.99,29.51 22.37,32.38 23.69,42.28 24.24,56.23 20.83,79.25 29.56,71.73 41.51,63.95 43.85,63"/>
		<path id="kvg:04ee5-s2" kvg:type="㇔" d="M43.62,23.12c4.3,4.16,11.11,17.12,12.18,23.59"/>
	</g>
	<g id="kvg:04ee5-g2" kvg:element="人" kvg:position="right" kvg:radical="general">
		<path id="kvg:04ee5-s3" kvg:type="㇒" d="M83.76,21.3c0.74,1.58,0.87,3.04,0.3,5.25C79.75,43.12,69.5,67.88,46.14,86.4"/>
		<path id="kvg:04ee5-s4" kvg:type="㇔/㇏" d="M71.52,61.33c8.04,4.26,20.78,17.51,22.79,24.13"/>
	</g>
</g>
</g>
<g id="kvg:StrokeNumbers_04ee5" style="font-size:8;fill:#808080">
	<text transform="matrix(1 0 0 1 12.50 29.50)">1</text>
	<text transform="matrix(1 0 0 1 36.75 23.50)">2</text>
	<text transform="matrix(1 0 0 1 74.50 20.50)">3</text>
	<text transform="matrix(1 0 0 1 77.50 62.50)">4</text>
</g>
</svg>
