<?xml version="1.0" encoding="UTF-8"?>
<!--
Copyright (C) 2016 François Mizessyn.
This work makes an extensive use of kanjiVG Copyright (C) 2009/2010/2011 Ulrich Apel.
This work is distributed under the conditions of the Creative Commons
Attribution-Share Alike 3.0 Licence. This means you are free:
* to Share - to copy, distribute and transmit the work
* to Remix - to adapt the work

Under the following conditions:
* Attribution. You must attribute the work by stating your use of HanjiVG in
  your own copyright header and linking to HanjiVG's website
  (http://gooo.free.fr/hanziVG/)
* Attribution. You must attribute the work by stating your use of KanjiVG in
  your own copyright header and linking to KanjiVG's website
  (http://kanjivg.tagaini.net)
* Share Alike. If you alter, transform, or build upon this work, you may
  distribute the resulting work only under the same or similar license to this
  one.

See http://creativecommons.org/licenses/by-sa/3.0/ for more details.
-->
<!DOCTYPE svg PUBLIC "-//W3C//DTD SVG 1.0//EN" "http://www.w3.org/TR/2001/REC-SVG-20010904/DTD/svg10.dtd" [
<!ATTLIST g
xmlns:kvg CDATA #FIXED "http://kanjivg.tagaini.net"
kvg:element CDATA #IMPLIED
kvg:variant CDATA #IMPLIED
kvg:partial CDATA #IMPLIED
kvg:original CDATA #IMPLIED
kvg:part CDATA #IMPLIED
kvg:number CDATA #IMPLIED
kvg:tradForm CDATA #IMPLIED
kvg:radicalForm CDATA #IMPLIED
kvg:position CDATA #IMPLIED
kvg:radical CDATA #IMPLIED
kvg:phon CDATA #IMPLIED >
<!ATTLIST path
xmlns:kvg CDATA #FIXED "http://kanjivg.tagaini.net"
kvg:type CDATA #IMPLIED >
]>
<svg xmlns="http://www.w3.org/2000/svg" width="109" height="109" viewBox="0 0 109 109">
<g id="kvg:StrokePaths_04efd" style="fill:none;stroke:#000000;stroke-width:3;stroke-linecap:round;stroke-linejoin:round;">
<g id="kvg:04efd" kvg:element="份">
	<g id="kvg:04efd-g1" kvg:element="亻" kvg:variant="true" kvg:original="人" kvg:radical="tradit">
		<path id="kvg:04efd-s1" kvg:type="㇒" d="M36.74 15.14c0 1.48 -0.16 2.68 -0.63 4.1c-3.61 11.01 -10.99 24.76 -22.8 38.48"/>
		<path id="kvg:04efd-s2" kvg:type="㇑" d="M29.74 38c0.88 0.88 1.1 2.12 1.1 3.63c0 10.56 -0.04 28.98 -0.06 42.12c-0.01 5.08 -0.01 9.38 -0.01 12.12"/>
	</g>
	<g id="kvg:04efd-g2" kvg:element="分" kvg:position="right">
		<g id="kvg:04efd-g3" kvg:element="八" kvg:position="top">
			<path id="kvg:04efd-s3" kvg:type="㇒" d="M56.26,19.02c0.3,0.91-0.07,1.94-0.42,3.07c-2.87,9.35-8.88,19.65-17,27.41"/>
			<path id="kvg:04efd-s4" kvg:type="㇏" d="M64.59,13c8.71,3.42,19.27,24.49,26.53,29.95c2.81,2.11,3.81,3.24,6.53,3.93"/>
		</g>
		<g id="kvg:04efd-g4" kvg:element="刀" kvg:position="bottom">
			<path id="kvg:04efd-s5" kvg:type="㇆" d="M46.73,51.04c1.52,0.46,4.26,0.5,5.33,0.31c8.71-1.59,22.71-3.27,27.54-3.86c3.14-0.38,4.54,1.15,4.36,3.82c-0.46,7.07-5.95,31.28-9.9,39.51c-3.53,7.33-6.44,0.94-7.85-1.13"/>
			<path id="kvg:04efd-s6" kvg:type="㇒" d="M59.53,53.25c0.06,0.91,0.22,2.4-0.13,3.67c-3.92,14.12-9.37,25.88-22.2,37.33"/>
		</g>
	</g>
</g>
</g>
<g id="kvg:StrokeNumbers_04efd" style="font-size:8;fill:#808080">
	<text transform="matrix(1 0 0 1 26.50 15.85)">1</text>
	<text transform="matrix(1 0 0 1 18.50 35.50)">2</text>
	<text transform="matrix(1 0 0 1 48.50 19.50)">3</text>
	<text transform="matrix(1 0 0 1 61.50 10.50)">4</text>
	<text transform="matrix(1 0 0 1 48.50 48.50)">5</text>
	<text transform="matrix(1 0 0 1 51.50 61.50)">6</text>
</g>
</svg>
