<?xml version="1.0" encoding="UTF-8"?>
<!--
Copyright (C) 2016 François Mizessyn.
This work makes an extensive use of kanjiVG Copyright (C) 2009/2010/2011 Ulrich Apel.
This work is distributed under the conditions of the Creative Commons
Attribution-Share Alike 3.0 Licence. This means you are free:
* to Share - to copy, distribute and transmit the work
* to Remix - to adapt the work

Under the following conditions:
* Attribution. You must attribute the work by stating your use of HanjiVG in
  your own copyright header and linking to HanjiVG's website
  (http://gooo.free.fr/hanziVG/)
* Attribution. You must attribute the work by stating your use of KanjiVG in
  your own copyright header and linking to KanjiVG's website
  (http://kanjivg.tagaini.net)
* Share Alike. If you alter, transform, or build upon this work, you may
  distribute the resulting work only under the same or similar license to this
  one.

See http://creativecommons.org/licenses/by-sa/3.0/ for more details.
-->
<!DOCTYPE svg PUBLIC "-//W3C//DTD SVG 1.0//EN" "http://www.w3.org/TR/2001/REC-SVG-20010904/DTD/svg10.dtd" [
<!ATTLIST g
xmlns:kvg CDATA #FIXED "http://kanjivg.tagaini.net"
kvg:element CDATA #IMPLIED
kvg:variant CDATA #IMPLIED
kvg:partial CDATA #IMPLIED
kvg:original CDATA #IMPLIED
kvg:part CDATA #IMPLIED
kvg:number CDATA #IMPLIED
kvg:tradForm CDATA #IMPLIED
kvg:radicalForm CDATA #IMPLIED
kvg:position CDATA #IMPLIED
kvg:radical CDATA #IMPLIED
kvg:phon CDATA #IMPLIED >
<!ATTLIST path
xmlns:kvg CDATA #FIXED "http://kanjivg.tagaini.net"
kvg:type CDATA #IMPLIED >
]>
<svg xmlns="http://www.w3.org/2000/svg" width="109" height="109" viewBox="0 0 109 109">
<g id="kvg:StrokePaths_04f1e" style="fill:none;stroke:#000000;stroke-width:3;stroke-linecap:round;stroke-linejoin:round;">
<g id="kvg:04f1e" kvg:element="伞">
	<g id="kvg:04f1e-g1" kvg:element="人" kvg:variant="true" kvg:position="top" kvg:radical="general">
		<path id="kvg:04f1e-s1" kvg:type="㇒" d="m53.99 12.75c0.12 0.89 -0.15 2.25 -1 3.35c-6.49 8.4 -20.99 24.65 -43.24 34.65"/>
		<path id="kvg:04f1e-s2" kvg:type="㇏" d="m55.25 16.38c4.8 4.77 22.51 17.93 31.54 24.38c3.36 2.4 5.21 3.88 9.96 5.35"/>
	</g>
	<g id="kvg:04f1e-g2" kvg:position="bottom">
		<g id="kvg:04f1e-g3" kvg:element="八" kvg:variant="true" kvg:position="top" kvg:radical="nelson">
			<path id="kvg:04f1e-s3" kvg:type="㇔" d="m29.55 48.5c4.28 2.41 11.04 9.87 12.1 13.61"/>
			<path id="kvg:04f1e-s4" kvg:type="㇒" d="m78.08 43.95c0.1 1.16 -0.08 2.25 -0.56 3.3c-1.59 4.16 -6.14 11.1 -12.12 15.55"/>
		</g>
		<g id="kvg:04f1e-g4" kvg:element="十">
			<path id="kvg:04f1e-s5" kvg:type="㇐" d="m15.31 73.74c3.16 0.98 7.31 0.75 10.56 0.39c16.2 -1.77 38.59 -3.46 54.88 -3.94c3.66 -0.11 7.58 0.17 11.19 0.84"/>
			<path id="kvg:04f1e-s6" kvg:type="㇑" d="m52.83 32.12c0.67 0.63 1.74 1.87 1.74 4.17c0 11.59 0.05 42.86 -0.04 57.22c-0.02 2.79 -0.03 5.03 -0.03 6.5"/>
		</g>
	</g>
</g>
</g>
<g id="kvg:StrokeNumbers_04f1e" style="font-size:8;fill:#808080">
	<text transform="matrix(1 0 0 1 45.50 11.50)">1</text>
	<text transform="matrix(1 0 0 1 57.50 15.50)">2</text>
	<text transform="matrix(1 0 0 1 33.50 49.50)">3</text>
	<text transform="matrix(1 0 0 1 67.50 47.63)">4</text>
	<text transform="matrix(1 0 0 1 4.25 79.63)">5</text>
	<text transform="matrix(1 0 0 1 47.50 29.50)">6</text>
</g>
</svg>
