<?xml version="1.0" encoding="UTF-8"?>
<!--
Copyright (C) 2016 François Mizessyn.
This work makes an extensive use of kanjiVG Copyright (C) 2009/2010/2011 Ulrich Apel.
This work is distributed under the conditions of the Creative Commons
Attribution-Share Alike 3.0 Licence. This means you are free:
* to Share - to copy, distribute and transmit the work
* to Remix - to adapt the work

Under the following conditions:
* Attribution. You must attribute the work by stating your use of HanjiVG in
  your own copyright header and linking to HanjiVG's website
  (http://gooo.free.fr/hanziVG/)
* Attribution. You must attribute the work by stating your use of KanjiVG in
  your own copyright header and linking to KanjiVG's website
  (http://kanjivg.tagaini.net)
* Share Alike. If you alter, transform, or build upon this work, you may
  distribute the resulting work only under the same or similar license to this
  one.

See http://creativecommons.org/licenses/by-sa/3.0/ for more details.
-->
<!DOCTYPE svg PUBLIC "-//W3C//DTD SVG 1.0//EN" "http://www.w3.org/TR/2001/REC-SVG-20010904/DTD/svg10.dtd" [
<!ATTLIST g
xmlns:kvg CDATA #FIXED "http://kanjivg.tagaini.net"
kvg:element CDATA #IMPLIED
kvg:variant CDATA #IMPLIED
kvg:partial CDATA #IMPLIED
kvg:original CDATA #IMPLIED
kvg:part CDATA #IMPLIED
kvg:number CDATA #IMPLIED
kvg:tradForm CDATA #IMPLIED
kvg:radicalForm CDATA #IMPLIED
kvg:position CDATA #IMPLIED
kvg:radical CDATA #IMPLIED
kvg:phon CDATA #IMPLIED >
<!ATTLIST path
xmlns:kvg CDATA #FIXED "http://kanjivg.tagaini.net"
kvg:type CDATA #IMPLIED >
]>
<svg xmlns="http://www.w3.org/2000/svg" width="109" height="109" viewBox="0 0 109 109">
<g id="kvg:StrokePaths_04f18" style="fill:none;stroke:#000000;stroke-width:3;stroke-linecap:round;stroke-linejoin:round;">
<g id="kvg:04f18" kvg:element="优">
	<g id="kvg:04f18-g1" kvg:element="亻" kvg:variant="true" kvg:original="人" kvg:position="left" kvg:radical="general">
		<path id="kvg:04f18-s1" kvg:type="㇒" d="m32.27 15.5c0.36 1.62 0.09 2.94 -0.52 4.75c-3.92 11.52 -9.37 24.87 -18.75 37.79"/>
		<path id="kvg:04f18-s2" kvg:type="㇑" d="m24.78 42.25c0.92 0.92 1.51 2.25 1.51 4.23c0 10.28 -0.03 33.34 -0.04 46.02c0 2.77 0 5.02 0 6.5"/>
	</g>
	<g id="kvg:04f18-g2" kvg:element="尤" kvg:position="right">
		<g id="kvg:04f18-g3" kvg:element="尢">
			<path id="kvg:04f18-s3" kvg:type="㇐" d="m35.4 42.18c1.8 0.32 4.55 0.98 7.5 0.57c10.8 -1.51 36.56 -4.24 48.59 -4.23c1.86 0 4.28 0.71 5.22 0.93"/>
			<g id="kvg:04f18-g4" kvg:element="儿" kvg:original="八">
				<g id="kvg:04f18-g5" kvg:element="丿">
					<path id="kvg:04f18-s4" kvg:type="㇒" d="m60.7 13.92c1.7 1.33 1.8 3.08 1.8 4.83c0 33.5 -4 63.25 -30 76.5"/>
				</g>
				<path id="kvg:04f18-s5" kvg:type="㇟" d="m66.9 45.42c1.2 1.08 1.37 1.8 1.4 4.17c0.16 10.57 0.14 26.35 0.14 33.54c0 9.13 1.46 10.96 13.26 10.96c14.3 0 15.4 -2.58 15.4 -11.33"/>
			</g>
		</g>
		<g id="kvg:04f18-g6" kvg:element="丶">
			<path id="kvg:04f18-s6" kvg:type="㇔" d="m75.1 21.25c4.76 1.63 12.2 6.96 13.4 9.5"/>
		</g>
	</g>
</g>
</g>
<g id="kvg:StrokeNumbers_04f18" style="font-size:8;fill:#808080">
	<text transform="matrix(1 0 0 1 21.50 15.50)">1</text>
	<text transform="matrix(1 0 0 1 17.25 61.63)">2</text>
	<text transform="matrix(1 0 0 1 38.25 39.75)">3</text>
	<text transform="matrix(1 0 0 1 52.25 12.25)">4</text>
	<text transform="matrix(1 0 0 1 70.25 53.25)">5</text>
	<text transform="matrix(1 0 0 1 73.25 18.25)">6</text>
</g>
</svg>
