<?xml version="1.0" encoding="UTF-8"?>
<!--
Copyright (C) 2016 François Mizessyn.
This work makes an extensive use of kanjiVG Copyright (C) 2009/2010/2011 Ulrich Apel.
This work is distributed under the conditions of the Creative Commons
Attribution-Share Alike 3.0 Licence. This means you are free:
* to Share - to copy, distribute and transmit the work
* to Remix - to adapt the work

Under the following conditions:
* Attribution. You must attribute the work by stating your use of HanjiVG in
  your own copyright header and linking to HanjiVG's website
  (http://gooo.free.fr/hanziVG/)
* Attribution. You must attribute the work by stating your use of KanjiVG in
  your own copyright header and linking to KanjiVG's website
  (http://kanjivg.tagaini.net)
* Share Alike. If you alter, transform, or build upon this work, you may
  distribute the resulting work only under the same or similar license to this
  one.

See http://creativecommons.org/licenses/by-sa/3.0/ for more details.
-->
<!DOCTYPE svg PUBLIC "-//W3C//DTD SVG 1.0//EN" "http://www.w3.org/TR/2001/REC-SVG-20010904/DTD/svg10.dtd" [
<!ATTLIST g
xmlns:kvg CDATA #FIXED "http://kanjivg.tagaini.net"
kvg:element CDATA #IMPLIED
kvg:variant CDATA #IMPLIED
kvg:partial CDATA #IMPLIED
kvg:original CDATA #IMPLIED
kvg:part CDATA #IMPLIED
kvg:number CDATA #IMPLIED
kvg:tradForm CDATA #IMPLIED
kvg:radicalForm CDATA #IMPLIED
kvg:position CDATA #IMPLIED
kvg:radical CDATA #IMPLIED
kvg:phon CDATA #IMPLIED >
<!ATTLIST path
xmlns:kvg CDATA #FIXED "http://kanjivg.tagaini.net"
kvg:type CDATA #IMPLIED >
]>
<svg xmlns="http://www.w3.org/2000/svg" width="109" height="109" viewBox="0 0 109 109">
<g id="kvg:StrokePaths_04f19" style="fill:none;stroke:#000000;stroke-width:3;stroke-linecap:round;stroke-linejoin:round;">
<g id="kvg:04f19" kvg:element="伙">
	<g id="kvg:04f19-g1" kvg:element="亻" kvg:variant="true" kvg:original="人" kvg:position="left" kvg:radical="general">
		<path id="kvg:04f19-s1" kvg:type="㇒" d="M30.88,19.88c0.2,2.01-0.06,4.65-0.72,6.38c-4.2,11-8.54,20.32-18.16,33.71"/>
		<path id="kvg:04f19-s2" kvg:type="㇑" d="M26.03,41c0.72,0.75,1.25,1.94,1.25,3.23c0,11.62-0.19,33.52-0.26,45.4c-0.02,2.58-0.02,4.7-0.02,6.12"/>
	</g>
	<g id="kvg:04f19-g2" kvg:element="火" kvg:position="right">
		<path id="kvg:04f19-s3" kvg:type="㇔" d="M43.05,37.53C47,42,51.5,52,51.99,57.16"/>
		<path id="kvg:04f19-s4" kvg:type="㇒" d="M87.87,30.76c0.38,1.74,0.01,3.9-1,5.48c-1.01,1.58-11.11,13.5-16.16,17.19"/>
		<path id="kvg:04f19-s5" kvg:type="㇒" d="M64.69,13.25c0.98,0.81,1.18,2.96,1.18,4.31C65.67,71.17,55.48,83.3,40,96.5"/>
		<path id="kvg:04f19-s6" kvg:type="㇏" d="M64.88,51.78c10.04,17.21,22.22,34.7,28.84,41.87c2.08,2.26,2.56,2.01,4.27,2.58"/>
	</g>
</g>
</g>
<g id="kvg:StrokeNumbers_04f19" style="font-size:8;fill:#808080">
	<text transform="matrix(1 0 0 1 22.50 19.63)">1</text>
	<text transform="matrix(1 0 0 1 20.25 60.13)">2</text>
	<text transform="matrix(1 0 0 1 39.50 33.50)">3</text>
	<text transform="matrix(1 0 0 1 79.50 29.50)">4</text>
	<text transform="matrix(1 0 0 1 54.25 12.50)">5</text>
	<text transform="matrix(1 0 0 1 74.50 62.18)">6</text>
</g>
</svg>
