<?xml version="1.0" encoding="UTF-8"?>
<!--
Copyright (C) 2016 François Mizessyn.
This work makes an extensive use of kanjiVG Copyright (C) 2009/2010/2011 Ulrich Apel.
This work is distributed under the conditions of the Creative Commons
Attribution-Share Alike 3.0 Licence. This means you are free:
* to Share - to copy, distribute and transmit the work
* to Remix - to adapt the work

Under the following conditions:
* Attribution. You must attribute the work by stating your use of HanjiVG in
  your own copyright header and linking to HanjiVG's website
  (http://gooo.free.fr/hanziVG/)
* Attribution. You must attribute the work by stating your use of KanjiVG in
  your own copyright header and linking to KanjiVG's website
  (http://kanjivg.tagaini.net)
* Share Alike. If you alter, transform, or build upon this work, you may
  distribute the resulting work only under the same or similar license to this
  one.

See http://creativecommons.org/licenses/by-sa/3.0/ for more details.
-->
<!DOCTYPE svg PUBLIC "-//W3C//DTD SVG 1.0//EN" "http://www.w3.org/TR/2001/REC-SVG-20010904/DTD/svg10.dtd" [
<!ATTLIST g
xmlns:kvg CDATA #FIXED "http://kanjivg.tagaini.net"
kvg:element CDATA #IMPLIED
kvg:variant CDATA #IMPLIED
kvg:partial CDATA #IMPLIED
kvg:original CDATA #IMPLIED
kvg:part CDATA #IMPLIED
kvg:number CDATA #IMPLIED
kvg:tradForm CDATA #IMPLIED
kvg:radicalForm CDATA #IMPLIED
kvg:position CDATA #IMPLIED
kvg:radical CDATA #IMPLIED
kvg:phon CDATA #IMPLIED >
<!ATTLIST path
xmlns:kvg CDATA #FIXED "http://kanjivg.tagaini.net"
kvg:type CDATA #IMPLIED >
]>
<svg xmlns="http://www.w3.org/2000/svg" width="109" height="109" viewBox="0 0 109 109">
<g id="kvg:StrokePaths_04f17" style="fill:none;stroke:#000000;stroke-width:3;stroke-linecap:round;stroke-linejoin:round;">
<g id="kvg:04f17" kvg:element="众">
	<g id="kvg:04f17-g1" kvg:element="人" kvg:position="top" kvg:radical="general">
		<path id="kvg:04f17-s1" kvg:type="㇒" d="m51 14.6c0.1 0.88 -0.11 2.32 -0.71 3.54c-3.75 7.59 -15.87 23.9 -36.41 34.06"/>
		<path id="kvg:04f17-s2" kvg:type="㇏" d="m51.25 18.7c6.01 4.57 24.37 18.82 33.03 24.97c3.08 2.18 4.85 3.02 9.22 4.4"/>
	</g>
	<g id="kvg:04f17-g2" kvg:element="从" kvg:position="bottom">
		<g id="kvg:04f17-g3" kvg:element="人" kvg:position="left" kvg:radical="general">
			<path id="kvg:04f17-s3" kvg:type="㇒" d="m37.08 46.45c0.46 0.67 0.36 2.04 0.3 3.39c-0.3 11.06 -5.22 31.46 -17.82 41.18"/>
			<path id="kvg:04f17-s4" kvg:type="㇏" d="m34.93 67.84c5.47 2.13 12.46 7.78 15.11 13.15"/>
		</g>
		<g id="kvg:04f17-g4" kvg:element="人" kvg:position="right" kvg:radical="general">
			<path id="kvg:04f17-s5" kvg:type="㇒" d="m73.09 46.97c0.46 0.67 0.36 2.04 0.3 3.39c-0.3 11.06 -5.22 31.46 -17.82 41.18"/>
			<path id="kvg:04f17-s6" kvg:type="㇏" d="m68.46 73.06c6.56 2.56 14.95 9.34 18.13 15.78"/>
		</g>
	</g>
</g>
</g>
<g id="kvg:StrokeNumbers_04f17" style="font-size:8;fill:#808080">
	<text transform="matrix(1 0 0 1 41.50 14.50)">1</text>
	<text transform="matrix(1 0 0 1 54.50 18.50)">2</text>
	<text transform="matrix(1 0 0 1 36.08 48.30)">3</text>
	<text transform="matrix(1 0 0 1 39.92 72.39)">4</text>
	<text transform="matrix(1 0 0 1 61.42 55.48)">5</text>
	<text transform="matrix(1 0 0 1 74.25 76.74)">6</text>
</g>
</svg>
