<?xml version="1.0" encoding="UTF-8"?>
<!--
Copyright (C) 2016 François Mizessyn.
This work makes an extensive use of kanjiVG Copyright (C) 2009/2010/2011 Ulrich Apel.
This work is distributed under the conditions of the Creative Commons
Attribution-Share Alike 3.0 Licence. This means you are free:
* to Share - to copy, distribute and transmit the work
* to Remix - to adapt the work

Under the following conditions:
* Attribution. You must attribute the work by stating your use of HanjiVG in
  your own copyright header and linking to HanjiVG's website
  (http://gooo.free.fr/hanziVG/)
* Attribution. You must attribute the work by stating your use of KanjiVG in
  your own copyright header and linking to KanjiVG's website
  (http://kanjivg.tagaini.net)
* Share Alike. If you alter, transform, or build upon this work, you may
  distribute the resulting work only under the same or similar license to this
  one.

See http://creativecommons.org/licenses/by-sa/3.0/ for more details.
-->
<!DOCTYPE svg PUBLIC "-//W3C//DTD SVG 1.0//EN" "http://www.w3.org/TR/2001/REC-SVG-20010904/DTD/svg10.dtd" [
<!ATTLIST g
xmlns:kvg CDATA #FIXED "http://kanjivg.tagaini.net"
kvg:element CDATA #IMPLIED
kvg:variant CDATA #IMPLIED
kvg:partial CDATA #IMPLIED
kvg:original CDATA #IMPLIED
kvg:part CDATA #IMPLIED
kvg:number CDATA #IMPLIED
kvg:tradForm CDATA #IMPLIED
kvg:radicalForm CDATA #IMPLIED
kvg:position CDATA #IMPLIED
kvg:radical CDATA #IMPLIED
kvg:phon CDATA #IMPLIED >
<!ATTLIST path
xmlns:kvg CDATA #FIXED "http://kanjivg.tagaini.net"
kvg:type CDATA #IMPLIED >
]>
<svg xmlns="http://www.w3.org/2000/svg" width="109" height="109" viewBox="0 0 109 109">
<g id="kvg:StrokePaths_04f20" style="fill:none;stroke:#000000;stroke-width:3;stroke-linecap:round;stroke-linejoin:round;">
<g id="kvg:04f20" kvg:element="传">
	<g id="kvg:04f20-g1" kvg:element="亻" kvg:variant="true" kvg:original="人" kvg:radical="tradit">
		<path id="kvg:04f20-s1" kvg:type="㇒" d="M36.74 15.14c0 1.48 -0.16 2.68 -0.63 4.1c-3.61 11.01 -10.99 24.76 -22.8 38.48"/>
		<path id="kvg:04f20-s2" kvg:type="㇑" d="M29.74 38c0.88 0.88 1.1 2.12 1.1 3.63c0 10.56 -0.04 28.98 -0.06 42.12c-0.01 5.08 -0.01 9.38 -0.01 12.12"/>
	</g>
	<g id="kvg:04f20-g2" kvg:element="专" kvg:position="right">
		<path id="kvg:04f20-s3" kvg:type="㇐" d="m45.8 31.86c2.2 0.94 4.31 0.89 6.56 0.67c10.27 -1 23.03 -3.15 34.1 -3.79c2.03 -0.12 4.02 -0.09 6 0.73"/>
		<path id="kvg:04f20-s4" kvg:type="㇐" d="m39.32 48.63c2.64 1.13 5.17 1.07 7.87 0.8c12.32 -1.2 27.64 -3.78 40.92 -4.55c2.44 -0.14 4.82 -0.11 7.2 0.88"/>
		<path id="kvg:04f20-s5" kvg:type="㇇" d="m68.24 17.9c0.59 0.6 1.32 2.87 -20.87 51.66c12.32 -1.2 27.64 -3.78 37.32 -4.55c3.19 -0.58 4.58 2.1 2.74 4.04c-3.94 4.19 -11.14 12.73 -15.62 17.35"/>
		<path id="kvg:04f20-s6" kvg:type="㇔" d="m61.83 83.98c4.08 1.42 14.64 6.84 16.57 10.54"/>
	</g>
</g>
</g>
<g id="kvg:StrokeNumbers_04f20" style="font-size:8;fill:#808080">
	<text transform="matrix(1 0 0 1 26.50 15.85)">1</text>
	<text transform="matrix(1 0 0 1 18.50 35.50)">2</text>
	<text transform="matrix(1 0 0 1 47.25 29.50)">3</text>
	<text transform="matrix(1 0 0 1 41.50 46.50)">4</text>
	<text transform="matrix(1 0 0 1 67.00 15.28)">5</text>
	<text transform="matrix(1 0 0 1 63.75 82.50)">6</text>
</g>
</svg>
