<?xml version="1.0" encoding="UTF-8"?>
<!--
Copyright (C) 2016 François Mizessyn.
This work makes an extensive use of kanjiVG Copyright (C) 2009/2010/2011 Ulrich Apel.
This work is distributed under the conditions of the Creative Commons
Attribution-Share Alike 3.0 Licence. This means you are free:
* to Share - to copy, distribute and transmit the work
* to Remix - to adapt the work

Under the following conditions:
* Attribution. You must attribute the work by stating your use of HanjiVG in
  your own copyright header and linking to HanjiVG's website
  (http://gooo.free.fr/hanziVG/)
* Attribution. You must attribute the work by stating your use of KanjiVG in
  your own copyright header and linking to KanjiVG's website
  (http://kanjivg.tagaini.net)
* Share Alike. If you alter, transform, or build upon this work, you may
  distribute the resulting work only under the same or similar license to this
  one.

See http://creativecommons.org/licenses/by-sa/3.0/ for more details.
-->
<!DOCTYPE svg PUBLIC "-//W3C//DTD SVG 1.0//EN" "http://www.w3.org/TR/2001/REC-SVG-20010904/DTD/svg10.dtd" [
<!ATTLIST g
xmlns:kvg CDATA #FIXED "http://kanjivg.tagaini.net"
kvg:element CDATA #IMPLIED
kvg:variant CDATA #IMPLIED
kvg:partial CDATA #IMPLIED
kvg:original CDATA #IMPLIED
kvg:part CDATA #IMPLIED
kvg:number CDATA #IMPLIED
kvg:tradForm CDATA #IMPLIED
kvg:radicalForm CDATA #IMPLIED
kvg:position CDATA #IMPLIED
kvg:radical CDATA #IMPLIED
kvg:phon CDATA #IMPLIED >
<!ATTLIST path
xmlns:kvg CDATA #FIXED "http://kanjivg.tagaini.net"
kvg:type CDATA #IMPLIED >
]>
<svg xmlns="http://www.w3.org/2000/svg" width="109" height="109" viewBox="0 0 109 109">
<g id="kvg:StrokePaths_04f24" style="fill:none;stroke:#000000;stroke-width:3;stroke-linecap:round;stroke-linejoin:round;">
<g id="kvg:04f24" kvg:element="伤">
	<g id="kvg:04f24-g1" kvg:element="亻" kvg:variant="true" kvg:original="人" kvg:position="left" kvg:radical="general">
		<path id="kvg:04f24-s1" kvg:type="㇒" d="M32.02,14c0.2,2.11-0.05,3.87-0.69,5.68c-4.02,11.52-9.87,23.34-19.08,37.36"/>
		<path id="kvg:04f24-s2" kvg:type="㇑" d="M25.46,38.25c1.08,1.08,1.64,2.81,1.64,4.29c0,12.22,0.07,34.15,0.1,46.71c0.01,3.07,0.01,5.58,0.01,7.25"/>
	</g>
	<g id="kvg:04f24-g2" kvg:position="right">
		<path id="kvg:04f24-s3" kvg:type="㇒" d="m55.82 14.52c0.1 1.5 0.01 2.62 -0.53 4.02c-3.34 8.51 -8.83 17.69 -17.62 27.73"/>
		<path id="kvg:04f24-s4" kvg:type="㇐" d="m52.02 30.03c1.71 0.33 3.07 0.28 4.1 0.15c5.72 -0.78 22.25 -2.4 31.31 -3.36c2.46 -0.27 5.79 -0.22 8.02 -0.05"/>
		<g id="kvg:04f24-g3" kvg:element="力" kvg:position="bottom">
			<path id="kvg:04f24-s5" kvg:type="㇆" d="m43.94 56.64c1.3 0.54 4.08 0.41 5.22 0.3c10.91 -1.16 36.71 -4.48 41.83 -5.29c4.65 -0.75 5.76 0.95 5.23 5.25c-1.15 9.28 -8.24 29.67 -13.82 37.08c-4.28 5.69 -8.68 1.45 -10.72 -2.13"/>
			<path id="kvg:04f24-s6" kvg:type="㇒" d="m71.46 42.29c0.09 1.23 0.22 3.16 -0.16 4.9c-2.83 12.94 -11.58 33.62 -30.16 46.94"/>
		</g>
	</g>
</g>
</g>
<g id="kvg:StrokeNumbers_04f24" style="font-size:8;fill:#808080">
	<text transform="matrix(1 0 0 1 22.50 14.50)">1</text>
	<text transform="matrix(1 0 0 1 19.50 57.50)">2</text>
	<text transform="matrix(1 0 0 1 46.50 12.50)">3</text>
	<text transform="matrix(1 0 0 1 57.25 26.50)">4</text>
	<text transform="matrix(1 0 0 1 42.50 53.53)">5</text>
	<text transform="matrix(1 0 0 1 59.50 50.50)">6</text>
</g>
</svg>
