<?xml version="1.0" encoding="UTF-8"?>
<!--
Copyright (C) 2016 François Mizessyn.
This work makes an extensive use of kanjiVG Copyright (C) 2009/2010/2011 Ulrich Apel.
This work is distributed under the conditions of the Creative Commons
Attribution-Share Alike 3.0 Licence. This means you are free:
* to Share - to copy, distribute and transmit the work
* to Remix - to adapt the work

Under the following conditions:
* Attribution. You must attribute the work by stating your use of HanjiVG in
  your own copyright header and linking to HanjiVG's website
  (http://gooo.free.fr/hanziVG/)
* Attribution. You must attribute the work by stating your use of KanjiVG in
  your own copyright header and linking to KanjiVG's website
  (http://kanjivg.tagaini.net)
* Share Alike. If you alter, transform, or build upon this work, you may
  distribute the resulting work only under the same or similar license to this
  one.

See http://creativecommons.org/licenses/by-sa/3.0/ for more details.
-->
<!DOCTYPE svg PUBLIC "-//W3C//DTD SVG 1.0//EN" "http://www.w3.org/TR/2001/REC-SVG-20010904/DTD/svg10.dtd" [
<!ATTLIST g
xmlns:kvg CDATA #FIXED "http://kanjivg.tagaini.net"
kvg:element CDATA #IMPLIED
kvg:variant CDATA #IMPLIED
kvg:partial CDATA #IMPLIED
kvg:original CDATA #IMPLIED
kvg:part CDATA #IMPLIED
kvg:number CDATA #IMPLIED
kvg:tradForm CDATA #IMPLIED
kvg:radicalForm CDATA #IMPLIED
kvg:position CDATA #IMPLIED
kvg:radical CDATA #IMPLIED
kvg:phon CDATA #IMPLIED >
<!ATTLIST path
xmlns:kvg CDATA #FIXED "http://kanjivg.tagaini.net"
kvg:type CDATA #IMPLIED >
]>
<svg xmlns="http://www.w3.org/2000/svg" width="109" height="109" viewBox="0 0 109 109">
<g id="kvg:StrokePaths_04f60" style="fill:none;stroke:#000000;stroke-width:3;stroke-linecap:round;stroke-linejoin:round;">
<g id="kvg:04f60" kvg:element="你">
	<g id="kvg:04f60-g1" kvg:element="亻" kvg:variant="true" kvg:original="人" kvg:position="left" kvg:radical="general">
		<path id="kvg:04f60-s1" kvg:type="㇒" d="m33.64 16.76c0.17 1.8 -0.05 3.46 -0.59 5c-3.48 10.73 -12.6 21.55 -19.92 31.9"/>
		<path id="kvg:04f60-s2" kvg:type="㇑" d="m25.18 40c0.83 0.92 1.13 2.38 1.13 3.5c0.03 10.67 0.15 32.06 0.2 45.37c0.01 2.49 0.02 4.52 0.02 5.88"/>
	</g>
	<g id="kvg:04f60-g2" kvg:element="尔" kvg:position="right">
		<g id="kvg:04f60-g3" kvg:element="⺈" kvg:position="top">
			<path id="kvg:04f60-s3" kvg:type="㇒" d="m55.32 14.39c0.1 1.43 0.11 2.62 -0.42 3.98c-2.9 7.4 -9.77 20.71 -18.41 29.39"/>
			<path id="kvg:04f60-s4" kvg:type="㇖a" d="m49.75 31.93c2.1 0.71 3.93 0.45 6.08 0.1c10.04 -1.65 17.43 -3.35 31.59 -4.53c6.51 -0.7 4.34 2.08 0.04 15.32"/>
		</g>
		<g id="kvg:04f60-g4" kvg:element="小" kvg:position="bottom">
			<path id="kvg:04f60-s5" kvg:type="㇚" d="m64.34 40.7c1.1 1.05 1.34 2.18 1.34 4.54c0 11.98 -0.11 39.81 -0.11 43.89c0 9.26 -6.31 0.81 -7.6 -0.22"/>
			<path id="kvg:04f60-s6" kvg:type="㇒" d="m49.39 59.75c0.1 1.33 0.1 2.41 -0.41 3.67c-1.75 4.33 -4.94 11.29 -8.99 16.75"/>
			<path id="kvg:04f60-s7" kvg:type="㇔" d="m81.1 58.13c3.33 3.95 8.61 16.24 9.44 22.39"/>
		</g>
	</g>
</g>
</g>
<g id="kvg:StrokeNumbers_04f60" style="font-size:8;fill:#808080">
	<text transform="matrix(1 0 0 1 23.75 19.50)">1</text>
	<text transform="matrix(1 0 0 1 15.25 63.50)">2</text>
	<text transform="matrix(1 0 0 1 47.00 12.25)">3</text>
	<text transform="matrix(1 0 0 1 37.25 33.25)">4</text>
	<text transform="matrix(1 0 0 1 53.25 47.00)">5</text>
	<text transform="matrix(1 0 0 1 43.25 56.25)">6</text>
	<text transform="matrix(1 0 0 1 74.25 55.85)">7</text>
</g>
</svg>
