<?xml version="1.0" encoding="UTF-8"?>
<!--
Copyright (C) 2016 François Mizessyn.
This work makes an extensive use of kanjiVG Copyright (C) 2009/2010/2011 Ulrich Apel.
This work is distributed under the conditions of the Creative Commons
Attribution-Share Alike 3.0 Licence. This means you are free:
* to Share - to copy, distribute and transmit the work
* to Remix - to adapt the work

Under the following conditions:
* Attribution. You must attribute the work by stating your use of HanjiVG in
  your own copyright header and linking to HanjiVG's website
  (http://gooo.free.fr/hanziVG/)
* Attribution. You must attribute the work by stating your use of KanjiVG in
  your own copyright header and linking to KanjiVG's website
  (http://kanjivg.tagaini.net)
* Share Alike. If you alter, transform, or build upon this work, you may
  distribute the resulting work only under the same or similar license to this
  one.

See http://creativecommons.org/licenses/by-sa/3.0/ for more details.
-->
<!DOCTYPE svg PUBLIC "-//W3C//DTD SVG 1.0//EN" "http://www.w3.org/TR/2001/REC-SVG-20010904/DTD/svg10.dtd" [
<!ATTLIST g
xmlns:kvg CDATA #FIXED "http://kanjivg.tagaini.net"
kvg:element CDATA #IMPLIED
kvg:variant CDATA #IMPLIED
kvg:partial CDATA #IMPLIED
kvg:original CDATA #IMPLIED
kvg:part CDATA #IMPLIED
kvg:number CDATA #IMPLIED
kvg:tradForm CDATA #IMPLIED
kvg:radicalForm CDATA #IMPLIED
kvg:position CDATA #IMPLIED
kvg:radical CDATA #IMPLIED
kvg:phon CDATA #IMPLIED >
<!ATTLIST path
xmlns:kvg CDATA #FIXED "http://kanjivg.tagaini.net"
kvg:type CDATA #IMPLIED >
]>
<svg xmlns="http://www.w3.org/2000/svg" width="109" height="109" viewBox="0 0 109 109">
<g id="kvg:StrokePaths_04fe9" style="fill:none;stroke:#000000;stroke-width:3;stroke-linecap:round;stroke-linejoin:round;">
<g id="kvg:04fe9" kvg:element="俩">
	<g id="kvg:04fe9-g1" kvg:element="亻" kvg:variant="true" kvg:original="人" kvg:radical="tradit">
		<path id="kvg:04fe9-s1" kvg:type="㇒" d="m30.39 15.14c0 1.48 -0.13 2.68 -0.5 4.1c-2.89 11.01 -8.79 24.76 -18.24 38.48"/>
		<path id="kvg:04fe9-s2" kvg:type="㇑" d="m24.79 38c0.7 0.88 0.88 2.12 0.88 3.63c0 10.56 -0.03 28.98 -0.05 42.12c-0.01 5.08 -0.01 9.38 -0.01 12.12"/>
	</g>
	<g id="kvg:04fe9-g2" kvg:element="两">
		<g id="kvg:04fe9-g3" kvg:element="一" kvg:radical="general">
			<path id="kvg:04fe9-s5" kvg:type="㇐" d="m40.06 22.18c2.58 1.16 5.83 0.77 8.5 0.42c9.1 -1.22 29.86 -3.73 40.64 -4.16c2.41 -0.09 4.87 0.05 7.24 0.72"/>
		</g>
		<g id="kvg:04fe9-g4" kvg:element="冂">
			<path id="kvg:04fe9-s6" kvg:type="㇑" d="m40.63 44.91c0.49 0.83 0.91 2.57 1 4.08c0.26 5.53 0.76 26.59 1 37.93c0.08 3.89 0.12 6.64 0.12 7.23"/>
			<path id="kvg:04fe9-s7" kvg:type="㇆a" d="m42.02 47.25c14.7 -1.6 37.79 -5.81 49 -6.75c2.74 -0.29 4.34 1.98 4.21 7.23c-0.29 12.08 -2.09 32.25 -4.09 42.71c-1.5 7.85 -3.25 4.23 -5.06 0.33"/>
		</g>
		<g id="kvg:04fe9-g5" kvg:element="从">
			<g id="kvg:04fe9-g6" kvg:element="人" kvg:position="left" kvg:radical="general">
				<path id="kvg:04fe9-s8" kvg:type="㇒" d="m59.5 22.47c0.28 0.96 0.22 2.89 0.18 4.82c-0.18 15.72 -3.17 44.72 -10.8 58.54"/>
				<path id="kvg:04fe9-s9" kvg:type="㇏" d="m58.2 52.86c3.31 3.03 7.55 11.06 9.16 18.69"/>
			</g>
			<g id="kvg:04fe9-g7" kvg:element="人" kvg:position="right" kvg:radical="general">
				<path id="kvg:04fe9-s10" kvg:type="㇒" d="m80.54 20.36c0.28 0.96 0.22 2.89 0.18 4.82c-0.18 15.72 -3.17 44.72 -10.8 58.54"/>
				<path id="kvg:04fe9-s11" kvg:type="㇏" d="m77.89 57.67c3.31 3.03 7.55 11.06 9.16 18.69"/>
			</g>
		</g>
	</g>
</g>
</g>
<g id="kvg:StrokeNumbers_04fe9" style="font-size:8;fill:#808080">
	<text transform="matrix(1 0 0 1 21.50 15.85)">1</text>
	<text transform="matrix(1 0 0 1 13.50 35.50)">2</text>
	<text transform="matrix(1 0 0 1 40.08 19.30)">3</text>
	<text transform="matrix(1 0 0 1 30.92 50.39)">4</text>
	<text transform="matrix(1 0 0 1 40.42 43.48)">5</text>
	<text transform="matrix(1 0 0 1 62.25 34.74)">6</text>
	<text transform="matrix(1 0 0 1 62.25 57.74)">7</text>
	<text transform="matrix(1 0 0 1 83.25 32.74)">8</text>
	<text transform="matrix(1 0 0 1 81.25 58.74)">9</text>
</g>
</svg>
