<?xml version="1.0" encoding="UTF-8"?>
<!--
Copyright (C) 2016 François Mizessyn.
This work makes an extensive use of kanjiVG Copyright (C) 2009/2010/2011 Ulrich Apel.
This work is distributed under the conditions of the Creative Commons
Attribution-Share Alike 3.0 Licence. This means you are free:
* to Share - to copy, distribute and transmit the work
* to Remix - to adapt the work

Under the following conditions:
* Attribution. You must attribute the work by stating your use of HanjiVG in
  your own copyright header and linking to HanjiVG's website
  (http://gooo.free.fr/hanziVG/)
* Attribution. You must attribute the work by stating your use of KanjiVG in
  your own copyright header and linking to KanjiVG's website
  (http://kanjivg.tagaini.net)
* Share Alike. If you alter, transform, or build upon this work, you may
  distribute the resulting work only under the same or similar license to this
  one.

See http://creativecommons.org/licenses/by-sa/3.0/ for more details.
-->
<!DOCTYPE svg PUBLIC "-//W3C//DTD SVG 1.0//EN" "http://www.w3.org/TR/2001/REC-SVG-20010904/DTD/svg10.dtd" [
<!ATTLIST g
xmlns:kvg CDATA #FIXED "http://kanjivg.tagaini.net"
kvg:element CDATA #IMPLIED
kvg:variant CDATA #IMPLIED
kvg:partial CDATA #IMPLIED
kvg:original CDATA #IMPLIED
kvg:part CDATA #IMPLIED
kvg:number CDATA #IMPLIED
kvg:tradForm CDATA #IMPLIED
kvg:radicalForm CDATA #IMPLIED
kvg:position CDATA #IMPLIED
kvg:radical CDATA #IMPLIED
kvg:phon CDATA #IMPLIED >
<!ATTLIST path
xmlns:kvg CDATA #FIXED "http://kanjivg.tagaini.net"
kvg:type CDATA #IMPLIED >
]>
<svg xmlns="http://www.w3.org/2000/svg" width="109" height="109" viewBox="0 0 109 109">
<g id="kvg:StrokePaths_0503c" style="fill:none;stroke:#000000;stroke-width:3;stroke-linecap:round;stroke-linejoin:round;">
<g id="kvg:0503c" kvg:element="值">
	<g id="kvg:0503c-g1" kvg:element="亻" kvg:variant="true" kvg:original="人" kvg:position="left" kvg:radical="general">
		<path id="kvg:0503c-s1" kvg:type="㇒" d="M35,15.5c0.24,2.06,0.18,3.51-0.61,5.27C29.38,32.03,22.5,44.62,11,57.29"/>
		<path id="kvg:0503c-s2" kvg:type="㇑" d="M25.53,41.5c0.8,0.8,1.26,2.22,1.26,3.48c0,12.64-0.01,32.9-0.01,44.4c0,2.79-0.03,5.11-0.03,6.75"/>
	</g>
	<g id="kvg:0503c-g2" kvg:element="直" kvg:position="right">
		<g id="kvg:0503c-g3" kvg:element="十">
			<path id="kvg:0503c-s3" kvg:type="㇐" d="m39.14 31.72c2.05 0.28 5.32 0.23 7.41 0.09c13.05 -0.87 22.53 -1.5 38.07 -2.18c2.27 -0.1 4.6 -0.15 6.85 0.01"/>
			<path id="kvg:0503c-s4" kvg:type="㇑a" d="m64.53 15.5c0.45 0.86 0.6 1.97 0.56 3.03c-0.4 10.08 -0.68 14.42 -1.32 23.52"/>
		</g>
		<g id="kvg:0503c-g4" kvg:element="目">
			<path id="kvg:0503c-s5" kvg:type="㇑" d="m46.33 43.48c0.79 0.76 1.38 2.46 1.38 3.68c0 0.91 -0.01 22.53 -0.02 41.35c0 1.94 0 3.54 0 4.6"/>
			<path id="kvg:0503c-s6" kvg:type="㇕a" d="m48.69 44.95c4.44 -0.54 28.03 -1.98 31.1 -2.3c2.4 -0.25 4.09 1.01 4.09 2.72c0 2.75 -0.1 29.91 -0.1 42.11c0 2 0 3.89 0 5.59"/>
			<path id="kvg:0503c-s7" kvg:type="㇐a" d="m48.86 57.26c6.33 -0.48 28.24 -2.14 33.42 -2.36"/>
			<path id="kvg:0503c-s8" kvg:type="㇐a" d="m49.12 69.55c8.45 -0.88 24.86 -1.87 33.07 -2.22"/>
			<path id="kvg:0503c-s9" kvg:type="㇐a" d="m48.78 82.27c9.86 -1.23 29.88 -1.9 34.12 -2.09"/>
		</g>
		<path id="kvg:0503c-s10" kvg:type="㇐" d="m36.68 95.85c2.23 0.62 5.81 0.52 8.09 0.19c14.23 -1.99 24.58 -1.94 42.53 -2.98c2.47 -0.23 5.02 -0.35 7.48 0.01"/>
	</g>
</g>
</g>
<g id="kvg:StrokeNumbers_0503c" style="font-size:8;fill:#808080">
	<text transform="matrix(1 0 0 1 26.25 15.50)">1</text>
	<text transform="matrix(1 0 0 1 20.25 58.50)">2</text>
	<text transform="matrix(1 0 0 1 40.50 28.50)">3</text>
	<text transform="matrix(1 0 0 1 60.75 14.50)">4</text>
	<text transform="matrix(1 0 0 1 35.50 53.50)">5</text>
	<text transform="matrix(1 0 0 1 46.50 42.63)">6</text>
	<text transform="matrix(1 0 0 1 48.75 55.50)">7</text>
	<text transform="matrix(1 0 0 1 48.71 67.50)">8</text>
	<text transform="matrix(1 0 0 1 48.71 81.50)">9</text>
	<text transform="matrix(1 0 0 1 27.75 92.63)">10</text>
</g>
</svg>
