<?xml version="1.0" encoding="UTF-8"?>
<!--
Copyright (C) 2016 François Mizessyn.
This work makes an extensive use of kanjiVG Copyright (C) 2009/2010/2011 Ulrich Apel.
This work is distributed under the conditions of the Creative Commons
Attribution-Share Alike 3.0 Licence. This means you are free:
* to Share - to copy, distribute and transmit the work
* to Remix - to adapt the work

Under the following conditions:
* Attribution. You must attribute the work by stating your use of HanjiVG in
  your own copyright header and linking to HanjiVG's website
  (http://gooo.free.fr/hanziVG/)
* Attribution. You must attribute the work by stating your use of KanjiVG in
  your own copyright header and linking to KanjiVG's website
  (http://kanjivg.tagaini.net)
* Share Alike. If you alter, transform, or build upon this work, you may
  distribute the resulting work only under the same or similar license to this
  one.

See http://creativecommons.org/licenses/by-sa/3.0/ for more details.
-->
<!DOCTYPE svg PUBLIC "-//W3C//DTD SVG 1.0//EN" "http://www.w3.org/TR/2001/REC-SVG-20010904/DTD/svg10.dtd" [
<!ATTLIST g
xmlns:kvg CDATA #FIXED "http://kanjivg.tagaini.net"
kvg:element CDATA #IMPLIED
kvg:variant CDATA #IMPLIED
kvg:partial CDATA #IMPLIED
kvg:original CDATA #IMPLIED
kvg:part CDATA #IMPLIED
kvg:number CDATA #IMPLIED
kvg:tradForm CDATA #IMPLIED
kvg:radicalForm CDATA #IMPLIED
kvg:position CDATA #IMPLIED
kvg:radical CDATA #IMPLIED
kvg:phon CDATA #IMPLIED >
<!ATTLIST path
xmlns:kvg CDATA #FIXED "http://kanjivg.tagaini.net"
kvg:type CDATA #IMPLIED >
]>
<svg xmlns="http://www.w3.org/2000/svg" width="109" height="109" viewBox="0 0 109 109">
<g id="kvg:StrokePaths_050cf" style="fill:none;stroke:#000000;stroke-width:3;stroke-linecap:round;stroke-linejoin:round;">
<g id="kvg:050cf" kvg:element="像">
	<g id="kvg:050cf-g1" kvg:element="亻" kvg:variant="true" kvg:original="人" kvg:position="left" kvg:radical="general">
		<path id="kvg:050cf-s1" kvg:type="㇒" d="M30.27,17c0.2,2.02-0.06,3.67-0.71,5.41c-4.18,11.05-9.48,21.93-19.05,35.38"/>
		<path id="kvg:050cf-s2" kvg:type="㇑" d="M23.28,40.75c1.05,1.05,1.5,2.62,1.5,4.5c0,11.35-0.02,29.65-0.03,41c0,3.43,0,6.22,0,8"/>
	</g>
	<g id="kvg:050cf-g2" kvg:element="象" kvg:position="right" kvg:phon="象">
		<g id="kvg:050cf-g3" kvg:element="𠂊" kvg:variant="true" kvg:original="勹" kvg:position="top">
			<path id="kvg:050cf-s3" kvg:type="㇒" d="M54.08,12.61c0.11,0.89,0.01,1.77-0.52,2.48c-2.43,3.28-6.18,8.03-13.47,12.44"/>
			<path id="kvg:050cf-s4" kvg:type="㇇a" d="M53.03,19.15c3.1-0.27,10.35-1.4,13.64-1.97c1.78-0.31,2.73,1.76,1.97,2.58c-3.16,3.43-4.38,5.5-7.71,10.13"/>
		</g>
		<g id="kvg:050cf-g4" kvg:position="bottom">
			<path id="kvg:050cf-s5" kvg:type="㇑" d="M40.16,32.83c0.81,0.56,1.35,1.35,1.64,2.26c0.94,2.91,1.67,5.54,2.47,8.9c0.29,1.24,0.56,2.47,0.79,3.65"/>
			<path id="kvg:050cf-s6" kvg:type="㇕a" d="M42.36,33.91c7.34-1.28,30.52-4.35,38.02-5.15c3.3-0.35,4.73,0.8,3.97,4.26c-0.46,2.07-1.19,4.34-2.27,6.76c-0.53,1.18-1.14,2.35-1.85,3.47"/>
			<g id="kvg:050cf-g5" kvg:element="豕">
				<path id="kvg:050cf-s7" kvg:type="㇐a" d="M45.74,45.52c10.63-1.4,26.92-3.09,34.35-3.71"/>
				<path id="kvg:050cf-s8" kvg:type="㇒" d="M 62.27,31.98 C 62.78,49.46 48.14,63.05 37.1,67.67"/>
				<path id="kvg:050cf-s9" kvg:type="㇕v" d="M 58.65,49.21 C 68.12,54.4 74.8,78.1 68.18,91.06 65.28,96.73 60.72,91.81 59.64,91.1"/>
				<path id="kvg:050cf-s10" kvg:type="㇒" d="M 64.05,55.96 C 64.22,57.09 63.9,57.91 63.26,58.85 60.71,62.61 54,71.17 42.52,76.35"/>
				<path id="kvg:050cf-s11" kvg:type="㇒" d="M 68.07,65.43 C 68.24,66.82 67.97,67.93 67.3,69.17 64.34,74.6 58.4,81.02 45.35,87.24"/>
				<path id="kvg:050cf-s12" kvg:type="㇒" d="M 82.89,50.56 C 82.75,51.36 82.40,52.07 81.87,52.55 79.38,54.79 76.53,56.50 70.02,58.86"/>
				<path id="kvg:050cf-s13" kvg:type="㇏" d="M 69.64,59.68 C 73.6,64.04 79.4,68.85 84.88,72.9 86.79,74.31 88.25,75.27 90.25,76.3"/>
			</g>
		</g>
	</g>
</g>
</g>
<g id="kvg:StrokeNumbers_050cf" style="font-size:8;fill:#808080">
	<text transform="matrix(1 0 0 1 21.75 18.13)">1</text>
	<text transform="matrix(1 0 0 1 17.50 59.50)">2</text>
	<text transform="matrix(1 0 0 1 45.75 14.98)">3</text>
	<text transform="matrix(1 0 0 1 60.50 15.50)">4</text>
	<text transform="matrix(1 0 0 1 35.25 40.50)">5</text>
	<text transform="matrix(1 0 0 1 46.50 30.50)">6</text>
	<text transform="matrix(1 0 0 1 48.50 42.50)">7</text>
	<text transform="matrix(1 0 0 1 46.50 53.50)">8</text>
	<text transform="matrix(1 0 0 1 61.50 55.50)">9</text>
	<text transform="matrix(1 0 0 1 47.50 63.50)">10</text>
	<text transform="matrix(1 0 0 1 53.50 70.50)">11</text>
	<text transform="matrix(1 0 0 1 74.50 51.50)">12</text>
	<text transform="matrix(1 0 0 1 75.50 67.50)">13</text>
</g>
</svg>
