<?xml version="1.0" encoding="UTF-8"?>
<!--
Copyright (C) 2016 François Mizessyn.
This work makes an extensive use of kanjiVG Copyright (C) 2009/2010/2011 Ulrich Apel.
This work is distributed under the conditions of the Creative Commons
Attribution-Share Alike 3.0 Licence. This means you are free:
* to Share - to copy, distribute and transmit the work
* to Remix - to adapt the work

Under the following conditions:
* Attribution. You must attribute the work by stating your use of HanjiVG in
  your own copyright header and linking to HanjiVG's website
  (http://gooo.free.fr/hanziVG/)
* Attribution. You must attribute the work by stating your use of KanjiVG in
  your own copyright header and linking to KanjiVG's website
  (http://kanjivg.tagaini.net)
* Share Alike. If you alter, transform, or build upon this work, you may
  distribute the resulting work only under the same or similar license to this
  one.

See http://creativecommons.org/licenses/by-sa/3.0/ for more details.
-->
<!DOCTYPE svg PUBLIC "-//W3C//DTD SVG 1.0//EN" "http://www.w3.org/TR/2001/REC-SVG-20010904/DTD/svg10.dtd" [
<!ATTLIST g
xmlns:kvg CDATA #FIXED "http://kanjivg.tagaini.net"
kvg:element CDATA #IMPLIED
kvg:variant CDATA #IMPLIED
kvg:partial CDATA #IMPLIED
kvg:original CDATA #IMPLIED
kvg:part CDATA #IMPLIED
kvg:number CDATA #IMPLIED
kvg:tradForm CDATA #IMPLIED
kvg:radicalForm CDATA #IMPLIED
kvg:position CDATA #IMPLIED
kvg:radical CDATA #IMPLIED
kvg:phon CDATA #IMPLIED >
<!ATTLIST path
xmlns:kvg CDATA #FIXED "http://kanjivg.tagaini.net"
kvg:type CDATA #IMPLIED >
]>
<svg xmlns="http://www.w3.org/2000/svg" width="109" height="109" viewBox="0 0 109 109">
<g id="kvg:StrokePaths_05170" style="fill:none;stroke:#000000;stroke-width:3;stroke-linecap:round;stroke-linejoin:round;">
<g id="kvg:05170" kvg:element="兰">
	<g id="kvg:05170-g1" kvg:element="八" kvg:variant="true" kvg:position="top" kvg:radical="nelson">
		<path id="kvg:05170-s1" kvg:type="㇔" d="M36.5 18c3.29 1.85 8.49 7.59 9.31 10.47"/>
		<path id="kvg:05170-s2" kvg:type="㇒" d="M70.75 14.5c0.08 0.89 -0.06 1.73 -0.43 2.54c-1.22 3.2 -4.72 8.54 -9.32 11.96"/>
	</g>
<g id="kvg:05170" kvg:element="三">
	<g id="kvg:05170-g2" kvg:element="一" kvg:position="top" kvg:radical="general">
		<path id="kvg:05170-s3" kvg:type="㇐" d="M27.5,37.65c3.09,0.73,6.29,0.36,9.4,0.06c10.2-1,27-2.94,38.97-3.57c3.06-0.16,6.09-0.2,9.14,0.23"/>
	</g>
	<g id="kvg:05170-g3" kvg:position="bottom">
		<g id="kvg:05170-g4" kvg:element="一" kvg:radical="general">
			<path id="kvg:05170-s4" kvg:type="㇐" d="M28.75,62.14c3.13,0.76,6.46,0.43,9.64,0.2c10.03-0.72,23.97-2.63,34.73-3.12c2.7-0.12,5.45-0.16,8.13,0.3"/>
		</g>
		<g id="kvg:05170-g5" kvg:element="一" kvg:radical="general">
			<path id="kvg:05170-s5" kvg:type="㇐" d="M13,87.83c3.94,1.01,7.72,0.96,11.75,0.72c18.41-1.07,41.27-3.39,61.12-4.07c3.63-0.13,7.2-0.1,10.75,0.78"/>
		</g>
	</g>
</g>
</g>
</g>
<g id="kvg:StrokeNumbers_05170" style="font-size:8;fill:#808080">
	<text transform="matrix(1 0 0 1 25.50 14.50)">1</text>
	<text transform="matrix(1 0 0 1 60 13)">2</text>
	<text transform="matrix(1 0 0 1 16.00 40.78)">3</text>
	<text transform="matrix(1 0 0 1 15.75 62.13)">4</text>
	<text transform="matrix(1 0 0 1 2.75 91.63)">5</text>
</g>
</svg>
