<?xml version="1.0" encoding="UTF-8"?>
<!--
Copyright (C) 2016 François Mizessyn.
This work makes an extensive use of kanjiVG Copyright (C) 2009/2010/2011 Ulrich Apel.
This work is distributed under the conditions of the Creative Commons
Attribution-Share Alike 3.0 Licence. This means you are free:
* to Share - to copy, distribute and transmit the work
* to Remix - to adapt the work

Under the following conditions:
* Attribution. You must attribute the work by stating your use of HanjiVG in
  your own copyright header and linking to HanjiVG's website
  (http://gooo.free.fr/hanziVG/)
* Attribution. You must attribute the work by stating your use of KanjiVG in
  your own copyright header and linking to KanjiVG's website
  (http://kanjivg.tagaini.net)
* Share Alike. If you alter, transform, or build upon this work, you may
  distribute the resulting work only under the same or similar license to this
  one.

See http://creativecommons.org/licenses/by-sa/3.0/ for more details.
-->
<!DOCTYPE svg PUBLIC "-//W3C//DTD SVG 1.0//EN" "http://www.w3.org/TR/2001/REC-SVG-20010904/DTD/svg10.dtd" [
<!ATTLIST g
xmlns:kvg CDATA #FIXED "http://kanjivg.tagaini.net"
kvg:element CDATA #IMPLIED
kvg:variant CDATA #IMPLIED
kvg:partial CDATA #IMPLIED
kvg:original CDATA #IMPLIED
kvg:part CDATA #IMPLIED
kvg:number CDATA #IMPLIED
kvg:tradForm CDATA #IMPLIED
kvg:radicalForm CDATA #IMPLIED
kvg:position CDATA #IMPLIED
kvg:radical CDATA #IMPLIED
kvg:phon CDATA #IMPLIED >
<!ATTLIST path
xmlns:kvg CDATA #FIXED "http://kanjivg.tagaini.net"
kvg:type CDATA #IMPLIED >
]>
<svg xmlns="http://www.w3.org/2000/svg" width="109" height="109" viewBox="0 0 109 109">
<g id="kvg:StrokePaths_05174" style="fill:none;stroke:#000000;stroke-width:3;stroke-linecap:round;stroke-linejoin:round;">
<g id="kvg:05174" kvg:element="兴">
	<g id="kvg:05174-g1" kvg:element="⺍" kvg:original="つ" kvg:position="top">
		<path id="kvg:05174-s1" kvg:type="㇔" d="M16.93,21.58c6.48,7.26,13.42,19.96,14.34,23.59"/>
		<path id="kvg:05174-s2" kvg:type="㇔" d="M43.78,15.67c3.08,4.92,10.49,17.82,11.72,25.81"/>
		<path id="kvg:05174-s3" kvg:type="㇒" d="M88.81,15.08c0.81,1.22,0.78,3.36-0.28,4.88C85,25,73.75,41,68.34,46.92"/>
	</g>
	<path id="kvg:05174-s4" kvg:type="㇐" d="M13.5,63.23c2.26,0.74,6.41,0.99,8.65,0.74c15.72-1.72,47.22-6.16,66.07-6.83c3.76-0.13,6.02,0.35,7.9,0.73"/>
	<g id="kvg:05174-g2" kvg:element="八" kvg:position="bottom" kvg:radical="general">
		<path id="kvg:05174-s5" kvg:type="㇒" d="M42,72.14c0.05,0.57,0.11,1.46-0.1,2.28c-1.27,4.8-9.65,13.33-18.59,21.05"/>
		<path id="kvg:05174-s6" kvg:type="㇔" d="M68.5,72.62c6.99,4.25,18.06,17.48,19.81,24.09"/>
	</g>
</g>
</g>
<g id="kvg:StrokeNumbers_05174" style="font-size:8;fill:#808080">
	<text transform="matrix(1 0 0 1 7.50 21.50)">1</text>
	<text transform="matrix(1 0 0 1 34.50 15.50)">2</text>
	<text transform="matrix(1 0 0 1 79.50 15.50)">3</text>
	<text transform="matrix(1 0 0 1 5.50 60.91)">4</text>
	<text transform="matrix(1 0 0 1 32.50 74.50)">5</text>
	<text transform="matrix(1 0 0 1 58.50 74.50)">6</text>
</g>
</svg>
