<?xml version="1.0" encoding="UTF-8"?>
<!--
Copyright (C) 2016 François Mizessyn.
This work makes an extensive use of kanjiVG Copyright (C) 2009/2010/2011 Ulrich Apel.
This work is distributed under the conditions of the Creative Commons
Attribution-Share Alike 3.0 Licence. This means you are free:
* to Share - to copy, distribute and transmit the work
* to Remix - to adapt the work

Under the following conditions:
* Attribution. You must attribute the work by stating your use of HanjiVG in
  your own copyright header and linking to HanjiVG's website
  (http://gooo.free.fr/hanziVG/)
* Attribution. You must attribute the work by stating your use of KanjiVG in
  your own copyright header and linking to KanjiVG's website
  (http://kanjivg.tagaini.net)
* Share Alike. If you alter, transform, or build upon this work, you may
  distribute the resulting work only under the same or similar license to this
  one.

See http://creativecommons.org/licenses/by-sa/3.0/ for more details.
-->
<!DOCTYPE svg PUBLIC "-//W3C//DTD SVG 1.0//EN" "http://www.w3.org/TR/2001/REC-SVG-20010904/DTD/svg10.dtd" [
<!ATTLIST g
xmlns:kvg CDATA #FIXED "http://kanjivg.tagaini.net"
kvg:element CDATA #IMPLIED
kvg:variant CDATA #IMPLIED
kvg:partial CDATA #IMPLIED
kvg:original CDATA #IMPLIED
kvg:part CDATA #IMPLIED
kvg:number CDATA #IMPLIED
kvg:tradForm CDATA #IMPLIED
kvg:radicalForm CDATA #IMPLIED
kvg:position CDATA #IMPLIED
kvg:radical CDATA #IMPLIED
kvg:phon CDATA #IMPLIED >
<!ATTLIST path
xmlns:kvg CDATA #FIXED "http://kanjivg.tagaini.net"
kvg:type CDATA #IMPLIED >
]>
<svg xmlns="http://www.w3.org/2000/svg" width="109" height="109" viewBox="0 0 109 109">
<g id="kvg:StrokePaths_0517b" style="fill:none;stroke:#000000;stroke-width:3;stroke-linecap:round;stroke-linejoin:round;">
<g id="kvg:0517b" kvg:element="养">
	<g id="kvg:0517b-g1" kvg:element="羊" kvg:variant="true" kvg:position="top" kvg:radical="nelson" kvg:phon="羊">
		<path id="kvg:0517b-s1" kvg:type="㇔" d="m38.12 15.38c2.36 1.28 6.1 5.27 6.69 7.27"/>
		<path id="kvg:0517b-s2" kvg:type="㇒" d="m64.45 14.89c0.02 0.24 0.1 0.9 -0.03 1.23c-1.04 2.5 -3.37 5.6 -6.42 8.38"/>
		<path id="kvg:0517b-s3" kvg:type="㇐" d="m31.52 28.6c1.63 0.42 4.63 0.54 6.26 0.42c10.47 -0.77 22.84 -2.4 33.21 -3.65c2.69 -0.32 4.36 -0.3 5.72 -0.09"/>
		<path id="kvg:0517b-s4" kvg:type="㇐" d="m31.58 38.96c1.49 0.41 3.93 0.59 5.32 0.49c10.17 -0.71 18.82 -1.79 34.15 -3.27c2.3 -0.22 4.13 -0.14 5.29 0.1"/>
		<path id="kvg:0517b-s5" kvg:type="㇐" d="m17.03 50.76c3.06 0.49 6.36 0.62 8.58 0.39c16.78 -1.77 36.53 -4.39 57.14 -5.57c3.72 -0.21 5.97 0.05 7.84 0.37"/>
	</g>
	<g id="kvg:0517b-g2" kvg:element="介" kvg:position="bottom" kvg:phon="介">
		<g id="kvg:0517b-g3" kvg:element="人" kvg:position="top">
			<path id="kvg:0517b-s6" kvg:type="㇒" d="m52.93 29.05c0.1 1.15 0.2 2.99 -0.19 4.66c-2.31 9.81 -14.21 38.22 -36.49 43.82"/>
			<path id="kvg:0517b-s7" kvg:type="㇏" d="m59.75 48.02c6.75 5.85 19.27 17.27 27.99 23.5c2.76 1.97 5.41 3.6 8.77 4.31"/>
		</g>
		<g id="kvg:0517b-g4" kvg:position="bottom">
			<g id="kvg:0517b-g5" kvg:element="丿">
				<path id="kvg:0517b-s8" kvg:type="㇒" d="M41.64,61.93c0.57,0.68,0.95,1.78,0.96,3.03c0.15,11.92,0.36,25.81-11.85,33.67"/>
			</g>
			<g id="kvg:0517b-g6" kvg:element="丨">
				<path id="kvg:0517b-s9" kvg:type="㇑" d="M65.39,58.85c1,1,1.29,2.15,1.29,3.56c0,3.59,0.05,21.23-0.08,31.47c-0.03,2.18-0.06,3.86-0.09,4.72"/>
			</g>
		</g>
	</g>
</g>
</g>
<g id="kvg:StrokeNumbers_0517b" style="font-size:8;fill:#808080">
	<text transform="matrix(1 0 0 1 32.25 12.13)">1</text>
	<text transform="matrix(1 0 0 1 56.50 12.50)">2</text>
	<text transform="matrix(1 0 0 1 27.75 25.13)">3</text>
	<text transform="matrix(1 0 0 1 20.75 40.20)">4</text>
	<text transform="matrix(1 0 0 1 10.75 47.63)">5</text>
	<text transform="matrix(1 0 0 1 47.50 24.50)">6</text>
	<text transform="matrix(1 0 0 1 67.50 57.50)">7</text>
	<text transform="matrix(1 0 0 1 45.25 71.50)">8</text>
	<text transform="matrix(1 0 0 1 55.25 66.50)">9</text>
</g>
</svg>
