<?xml version="1.0" encoding="UTF-8"?>
<!--
Copyright (C) 2016 François Mizessyn.
This work makes an extensive use of kanjiVG Copyright (C) 2009/2010/2011 Ulrich Apel.
This work is distributed under the conditions of the Creative Commons
Attribution-Share Alike 3.0 Licence. This means you are free:
* to Share - to copy, distribute and transmit the work
* to Remix - to adapt the work

Under the following conditions:
* Attribution. You must attribute the work by stating your use of HanjiVG in
  your own copyright header and linking to HanjiVG's website
  (http://gooo.free.fr/hanziVG/)
* Attribution. You must attribute the work by stating your use of KanjiVG in
  your own copyright header and linking to KanjiVG's website
  (http://kanjivg.tagaini.net)
* Share Alike. If you alter, transform, or build upon this work, you may
  distribute the resulting work only under the same or similar license to this
  one.

See http://creativecommons.org/licenses/by-sa/3.0/ for more details.
-->
<!DOCTYPE svg PUBLIC "-//W3C//DTD SVG 1.0//EN" "http://www.w3.org/TR/2001/REC-SVG-20010904/DTD/svg10.dtd" [
<!ATTLIST g
xmlns:kvg CDATA #FIXED "http://kanjivg.tagaini.net"
kvg:element CDATA #IMPLIED
kvg:variant CDATA #IMPLIED
kvg:partial CDATA #IMPLIED
kvg:original CDATA #IMPLIED
kvg:part CDATA #IMPLIED
kvg:number CDATA #IMPLIED
kvg:tradForm CDATA #IMPLIED
kvg:radicalForm CDATA #IMPLIED
kvg:position CDATA #IMPLIED
kvg:radical CDATA #IMPLIED
kvg:phon CDATA #IMPLIED >
<!ATTLIST path
xmlns:kvg CDATA #FIXED "http://kanjivg.tagaini.net"
kvg:type CDATA #IMPLIED >
]>
<svg xmlns="http://www.w3.org/2000/svg" width="109" height="109" viewBox="0 0 109 109">
<g id="kvg:StrokePaths_051c0" style="fill:none;stroke:#000000;stroke-width:3;stroke-linecap:round;stroke-linejoin:round;">
<g id="kvg:051c0" kvg:element="净">
	<g id="kvg:051c0-g1" kvg:element="冫" kvg:original="氷" kvg:position="left" kvg:radical="general">
		<g id="kvg:051c0-g2" kvg:position="top">
			<path id="kvg:051c0-s1" kvg:type="㇔" d="m16.79 21.25c4.87 1.75 12.58 7.19 13.79 9.91"/>
		</g>
		<g id="kvg:051c0-g3" kvg:position="bottom">
			<path id="kvg:051c0-s2" kvg:type="㇀" d="m13.03 87.17c1.82 0.58 2.98 0.14 4.17 -1.5c3.05 -4.17 7.55 -13.17 12.74 -23"/>
		</g>
	</g>
	<g id="kvg:051c0-g4" kvg:element="争" kvg:position="right">
		<g id="kvg:051c0-g5" kvg:element="𠂊" kvg:variant="true" kvg:original="勹" kvg:position="top">
			<path id="kvg:051c0-s3" kvg:type="㇒" d="M56.44,11.5c0.05,0.62,0.19,1.66-0.11,2.51c-2.06,5.85-8.83,15.74-18.76,24"/>
			<path id="kvg:051c0-s4" kvg:type="㇇a" d="M53.69,21.76c2.2,0,13.78-1.33,18.35-2.09c3.2-0.53,5.45,0.32,3.24,3.69c-3.36,5.11-5.92,8.88-9.42,14.94"/>
		</g>
		<g id="kvg:051c0-g6" kvg:position="bottom">
			<g id="kvg:051c0-g7" kvg:element="⺕" kvg:variant="true" kvg:original="彑">
				<path id="kvg:051c0-s5" kvg:type="㇕c" d="M43.46,40.93c2.29,0.98,5,1.09,7.44,0.78c12.6-1.59,22.1-2.34,32.97-3.38c3.14-0.3,3.91,1.56,3.41,4.31c-1.11,6.07-1.96,10.43-3.75,21.1"/>
				<path id="kvg:051c0-s6" kvg:type="㇐" d="M34,54.66c3.25,0.96,6.69,0.41,10,0.1c14.56-1.37,30.85-2.96,44.75-3.52c3.2-0.13,6.33,0,9.5,0.57"/>
				<path id="kvg:051c0-s7" kvg:type="㇐" d="M43.7,67.09c2.43,0.53,4.88,0.59,7.42,0.23c9.26-1.32,19.39-2.07,29.76-2.46c2.21-0.08,4.29-0.08,6.5,0.08"/>
			</g>
			<g id="kvg:051c0-g8" kvg:element="亅">
				<path id="kvg:051c0-s8" kvg:type="㇚" d="M64.49,42.9c0.99,0.99,1.6,2.6,1.6,4.8c0,11.07,0.02,37.66,0.02,44.2c0,11.84-6.58,1.44-7.95,0.24"/>
			</g>
		</g>
	</g>
</g>
</g>
<g id="kvg:StrokeNumbers_051c0" style="font-size:8;fill:#808080">
	<text transform="matrix(1 0 0 1 9.75 25.63)">1</text>
	<text transform="matrix(1 0 0 1 5.25 91.25)">2</text>
	<text transform="matrix(1 0 0 1 48.50 12.13)">3</text>
	<text transform="matrix(1 0 0 1 62.50 17.50)">4</text>
	<text transform="matrix(1 0 0 1 46.50 38.50)">5</text>
	<text transform="matrix(1 0 0 1 33.50 51.50)">6</text>
	<text transform="matrix(1 0 0 1 36.75 67.50)">7</text>
	<text transform="matrix(1 0 0 1 57.75 49.63)">8</text>
</g>
</svg>
