<?xml version="1.0" encoding="UTF-8"?>
<!--
Copyright (C) 2016 François Mizessyn.
This work makes an extensive use of kanjiVG Copyright (C) 2009/2010/2011 Ulrich Apel.
This work is distributed under the conditions of the Creative Commons
Attribution-Share Alike 3.0 Licence. This means you are free:
* to Share - to copy, distribute and transmit the work
* to Remix - to adapt the work

Under the following conditions:
* Attribution. You must attribute the work by stating your use of HanjiVG in
  your own copyright header and linking to HanjiVG's website
  (http://gooo.free.fr/hanziVG/)
* Attribution. You must attribute the work by stating your use of KanjiVG in
  your own copyright header and linking to KanjiVG's website
  (http://kanjivg.tagaini.net)
* Share Alike. If you alter, transform, or build upon this work, you may
  distribute the resulting work only under the same or similar license to this
  one.

See http://creativecommons.org/licenses/by-sa/3.0/ for more details.
-->
<!DOCTYPE svg PUBLIC "-//W3C//DTD SVG 1.0//EN" "http://www.w3.org/TR/2001/REC-SVG-20010904/DTD/svg10.dtd" [
<!ATTLIST g
xmlns:kvg CDATA #FIXED "http://kanjivg.tagaini.net"
kvg:element CDATA #IMPLIED
kvg:variant CDATA #IMPLIED
kvg:partial CDATA #IMPLIED
kvg:original CDATA #IMPLIED
kvg:part CDATA #IMPLIED
kvg:number CDATA #IMPLIED
kvg:tradForm CDATA #IMPLIED
kvg:radicalForm CDATA #IMPLIED
kvg:position CDATA #IMPLIED
kvg:radical CDATA #IMPLIED
kvg:phon CDATA #IMPLIED >
<!ATTLIST path
xmlns:kvg CDATA #FIXED "http://kanjivg.tagaini.net"
kvg:type CDATA #IMPLIED >
]>
<svg xmlns="http://www.w3.org/2000/svg" width="109" height="109" viewBox="0 0 109 109">
<g id="kvg:StrokePaths_05212" style="fill:none;stroke:#000000;stroke-width:3;stroke-linecap:round;stroke-linejoin:round;">
<g id="kvg:05212" kvg:element="划">
	<g id="kvg:05212-g1" kvg:element="戈" kvg:position="right">
		<g id="kvg:05212-g2" kvg:element="弋" kvg:part="1">
			<path id="kvg:05212-s4" kvg:type="㇐" d="m15.5 40.2c1.29 0.39 3.67 0.55 4.95 0.39c9.93 -1.24 22.96 -3.56 34.54 -5.94c1.62 -0.33 2.76 -0.21 3.84 -0.01"/>
			<path id="kvg:05212-s5" kvg:type="㇂" d="m28.49 13c1.34 1.8 1.56 2.31 1.84 6.18c2.34 32.46 10.88 64.16 27.3 76.27c5.27 3.89 4.52 0.77 3.85 -7.21"/>
		</g>
		<g id="kvg:05212-g3" kvg:element="丿">
			<path id="kvg:05212-s6" kvg:type="㇒" d="m54.2 45.74c0.12 0.91 0.57 2.46 -0.23 3.67c-5.23 7.87 -19.72 25.84 -40.47 35.93"/>
		</g>
		<g id="kvg:05212-g4" kvg:element="弋" kvg:part="2">
			<g id="kvg:05212-g5" kvg:element="丶">
				<path id="kvg:05212-s7" kvg:type="㇔" d="m43.99 15.21c2.88 1.98 7.5 6.5 8.84 9.89"/>
			</g>
		</g>
	</g>
	<g id="kvg:05212-g6" kvg:element="刂" kvg:variant="true" kvg:original="刀" kvg:position="right" kvg:radical="general">
		<path id="kvg:05212-s5" kvg:type="㇑" d="M67.02,21.33c0.98,0.92,1.76,2.67,1.76,5.02c0,7.04-0.01,28.57-0.02,40.15c0,3.26,0,5.76,0,7"/>
		<path id="kvg:05212-s6" kvg:type="㇚" d="M87.02,14.33c1.26,1.26,1.76,2.79,1.76,5.02c0,14.56-0.01,64.16-0.01,69.12c0,13.14-7.21,1.5-8.71,0.25"/>
	</g>
</g>
</g>
<g id="kvg:StrokeNumbers_05212" style="font-size:8;fill:#808080">
	<text transform="matrix(1 0 0 1 15.50 38.50)">1</text>
	<text transform="matrix(1 0 0 1 18.50 12.50)">2</text>
	<text transform="matrix(1 0 0 1 46.50 46.50)">3</text>
	<text transform="matrix(1 0 0 1 38.50 13.50)">4</text>
	<text transform="matrix(1 0 0 1 58.50 18.50)">5</text>
	<text transform="matrix(1 0 0 1 78.50 14.50)">6</text>
</g>
</svg>
