<?xml version="1.0" encoding="UTF-8"?>
<!--
Copyright (C) 2016 François Mizessyn.
This work makes an extensive use of kanjiVG Copyright (C) 2009/2010/2011 Ulrich Apel.
This work is distributed under the conditions of the Creative Commons
Attribution-Share Alike 3.0 Licence. This means you are free:
* to Share - to copy, distribute and transmit the work
* to Remix - to adapt the work

Under the following conditions:
* Attribution. You must attribute the work by stating your use of HanjiVG in
  your own copyright header and linking to HanjiVG's website
  (http://gooo.free.fr/hanziVG/)
* Attribution. You must attribute the work by stating your use of KanjiVG in
  your own copyright header and linking to KanjiVG's website
  (http://kanjivg.tagaini.net)
* Share Alike. If you alter, transform, or build upon this work, you may
  distribute the resulting work only under the same or similar license to this
  one.

See http://creativecommons.org/licenses/by-sa/3.0/ for more details.
-->
<!DOCTYPE svg PUBLIC "-//W3C//DTD SVG 1.0//EN" "http://www.w3.org/TR/2001/REC-SVG-20010904/DTD/svg10.dtd" [
<!ATTLIST g
xmlns:kvg CDATA #FIXED "http://kanjivg.tagaini.net"
kvg:element CDATA #IMPLIED
kvg:variant CDATA #IMPLIED
kvg:partial CDATA #IMPLIED
kvg:original CDATA #IMPLIED
kvg:part CDATA #IMPLIED
kvg:number CDATA #IMPLIED
kvg:tradForm CDATA #IMPLIED
kvg:radicalForm CDATA #IMPLIED
kvg:position CDATA #IMPLIED
kvg:radical CDATA #IMPLIED
kvg:phon CDATA #IMPLIED >
<!ATTLIST path
xmlns:kvg CDATA #FIXED "http://kanjivg.tagaini.net"
kvg:type CDATA #IMPLIED >
]>
<svg xmlns="http://www.w3.org/2000/svg" width="109" height="109" viewBox="0 0 109 109">
<g id="kvg:StrokePaths_05219" style="fill:none;stroke:#000000;stroke-width:3;stroke-linecap:round;stroke-linejoin:round;">
<g id="kvg:05219" kvg:element="则">
	<g id="kvg:05219" kvg:element="贝" kvg:position="left" kvg:radical="general">
		<g id="kvg:05219-g1" kvg:element="冂" kvg:variant="true" kvg:radical="general">
			<path id="kvg:05219-s1" kvg:type="㇑" d="m16.39 21.54c0.61 0.96 0.94 2.13 0.44 1.19c1.01 7.21 1.98 18.45 2.09 29.18c0.11 1.48 0.2 2.92 0.3 14.66"/>
			<path id="kvg:05219-s2" kvg:type="㇕" d="m16.84 22.74c9.95 -1.53 24.91 -4.53 35.48 -5.24c2.68 -0.21 4.11 1.49 3.89 4.4c-0.57 7.44 -1.79 17.83 -2.04 27.26c-0.25 1.51 -0.5 6.09 -0.77 14.79"/>
		</g>
		<g id="kvg:05219-g2" kvg:element="人" kvg:position="bottom" kvg:radical="general">
			<path id="kvg:05219-s3" kvg:type="㇒" d="m37.29 39.2c0.24 1.7 0.15 3.22 -0.15 5.01c-1.72 10.57 -10.58 36.79 -24.93 48.79"/>
			<path id="kvg:05219-s4" kvg:type="㇏" d="m31.68 66.6c4.04 4.8 16.84 17.79 23.44 23.78c2.42 2.17 4.58 3.7 7.58 4.42"/>
		</g>
	</g>
	<g id="kvg:05219-g4" kvg:element="刂" kvg:variant="true" kvg:original="刀" kvg:position="right" kvg:radical="tradit">
		<path id="kvg:05219-s5" kvg:type="㇑" d="M67.52,25.33c1.26,1.26,1.76,2.92,1.76,5.27c0,11.15-0.21,20.4-0.21,27.9c0,2.21-0.06,4-0.06,5.24"/>
		<path id="kvg:05219-s6" kvg:type="㇚" d="M87.77,15.08c1.08,1.08,1.76,2.79,1.76,4.52c0,19.4-0.01,63.91-0.01,68.87c0,9.91-5.52,3.41-8.21,0.75"/>
	</g>
</g>
</g>
<g id="kvg:StrokeNumbers_05219" style="font-size:8;fill:#808080">
	<text transform="matrix(1 0 0 1 7.25 27.50)">1</text>
	<text transform="matrix(1 0 0 1 16.50 18.55)">2</text>
	<text transform="matrix(1 0 0 1 33.50 36.50)">3</text>
	<text transform="matrix(1 0 0 1 33.50 68.50)">4</text>
	<text transform="matrix(1 0 0 1 59.50 23.50)">5</text>
	<text transform="matrix(1 0 0 1 78.50 14.50)">6</text>
</g>
</svg>
