<?xml version="1.0" encoding="UTF-8"?>
<!--
Copyright (C) 2016 François Mizessyn.
This work makes an extensive use of kanjiVG Copyright (C) 2009/2010/2011 Ulrich Apel.
This work is distributed under the conditions of the Creative Commons
Attribution-Share Alike 3.0 Licence. This means you are free:
* to Share - to copy, distribute and transmit the work
* to Remix - to adapt the work

Under the following conditions:
* Attribution. You must attribute the work by stating your use of HanjiVG in
  your own copyright header and linking to HanjiVG's website
  (http://gooo.free.fr/hanziVG/)
* Attribution. You must attribute the work by stating your use of KanjiVG in
  your own copyright header and linking to KanjiVG's website
  (http://kanjivg.tagaini.net)
* Share Alike. If you alter, transform, or build upon this work, you may
  distribute the resulting work only under the same or similar license to this
  one.

See http://creativecommons.org/licenses/by-sa/3.0/ for more details.
-->
<!DOCTYPE svg PUBLIC "-//W3C//DTD SVG 1.0//EN" "http://www.w3.org/TR/2001/REC-SVG-20010904/DTD/svg10.dtd" [
<!ATTLIST g
xmlns:kvg CDATA #FIXED "http://kanjivg.tagaini.net"
kvg:element CDATA #IMPLIED
kvg:variant CDATA #IMPLIED
kvg:partial CDATA #IMPLIED
kvg:original CDATA #IMPLIED
kvg:part CDATA #IMPLIED
kvg:number CDATA #IMPLIED
kvg:tradForm CDATA #IMPLIED
kvg:radicalForm CDATA #IMPLIED
kvg:position CDATA #IMPLIED
kvg:radical CDATA #IMPLIED
kvg:phon CDATA #IMPLIED >
<!ATTLIST path
xmlns:kvg CDATA #FIXED "http://kanjivg.tagaini.net"
kvg:type CDATA #IMPLIED >
]>
<svg xmlns="http://www.w3.org/2000/svg" width="109" height="109" viewBox="0 0 109 109">
<g id="kvg:StrokePaths_0522b" style="fill:none;stroke:#000000;stroke-width:3;stroke-linecap:round;stroke-linejoin:round;">
<g id="kvg:0522b" kvg:element="别">
	<g id="kvg:0522b-g1" kvg:element="口" kvg:position="left" kvg:radical="general">
		<path id="kvg:0522b-s1" kvg:type="㇑" d="M22.8,17.59 c 0.76,0.61 1.2,1.4 1.33,2.37 0.94,3.23 1.96,8.62 2.72,13.4 0.17,1.09 0.33,2.15 0.47,3.14"/>
		<path id="kvg:0522b-s2" kvg:type="㇕b" d="M25.06,18.86 c 7.67,-1.42 14.62,-2.42 19.07,-2.94 2.67,-0.31 4.29,0.04 3.6,2.99 -0.85,3.66 -2.09,7.45 -3.32,12.3"/>
		<path id="kvg:0522b-s3" kvg:type="㇐b" d="M28.24,34.06 c 4.29,-0.43 9.05,-0.94 14.66,-1.56 0.92,-0.1 1.85,-0.21 2.81,-0.31"/>
	</g>
	<g id="kvg:0522b-g2" kvg:element="力" kvg:position="left">
		<path id="kvg:0522b-s4" kvg:type="㇆" d="M17.67,51.53 c 1.8,1.14 5.17,0.57 7.1,0.21 7.2,-1.32 19.25,-3.25 24.12,-4.04 3.25,-0.53 4.54,0.43 4.37,3.89 -0.32,6.68 -4.78,29.03 -9.25,37.19 -3.66,6.68 -5.63,0.72 -6.4,-0.79"/>
		<path id="kvg:0522b-s5" kvg:type="㇒" d="M37.5,37.18 c 0.23,0.3 0.27,1.63 0.16,3.15 -1.07,14.13 -8.28,40.04 -23.31,51.16"/>
	</g>
	<g id="kvg:0522b-g3" kvg:element="刂" kvg:variant="true" kvg:original="刀" kvg:position="right" kvg:radical="general">
		<path id="kvg:0522b-s6" kvg:type="㇑" d="M67.02,21.33c0.98,0.92,1.76,2.67,1.76,5.02c0,7.04-0.01,28.57-0.02,40.15c0,3.26,0,5.76,0,7"/>
		<path id="kvg:0522b-s7" kvg:type="㇚" d="M87.02,14.33c1.26,1.26,1.76,2.79,1.76,5.02c0,14.56-0.01,64.16-0.01,69.12c0,13.14-7.21,1.5-8.71,0.25"/>
	</g>
</g>
</g>
<g id="kvg:StrokeNumbers_0522b" style="font-size:8;fill:#808080">
	<text transform="matrix(1 0 0 1 15.50 25.63)">1</text>
	<text transform="matrix(1 0 0 1 22.50 13.56)">2</text>
	<text transform="matrix(1 0 0 1 29.50 30.50)">3</text>
	<text transform="matrix(1 0 0 1 11.25 52.25)">4</text>
	<text transform="matrix(1 0 0 1 26.25 45.25)">5</text>
	<text transform="matrix(1 0 0 1 58.50 18.50)">6</text>
	<text transform="matrix(1 0 0 1 78.50 14.50)">7</text>
</g>
</svg>
