<?xml version="1.0" encoding="UTF-8"?>
<!--
Copyright (C) 2016 François Mizessyn.
This work makes an extensive use of kanjiVG Copyright (C) 2009/2010/2011 Ulrich Apel.
This work is distributed under the conditions of the Creative Commons
Attribution-Share Alike 3.0 Licence. This means you are free:
* to Share - to copy, distribute and transmit the work
* to Remix - to adapt the work

Under the following conditions:
* Attribution. You must attribute the work by stating your use of HanjiVG in
  your own copyright header and linking to HanjiVG's website
  (http://gooo.free.fr/hanziVG/)
* Attribution. You must attribute the work by stating your use of KanjiVG in
  your own copyright header and linking to KanjiVG's website
  (http://kanjivg.tagaini.net)
* Share Alike. If you alter, transform, or build upon this work, you may
  distribute the resulting work only under the same or similar license to this
  one.

See http://creativecommons.org/licenses/by-sa/3.0/ for more details.
-->
<!DOCTYPE svg PUBLIC "-//W3C//DTD SVG 1.0//EN" "http://www.w3.org/TR/2001/REC-SVG-20010904/DTD/svg10.dtd" [
<!ATTLIST g
xmlns:kvg CDATA #FIXED "http://kanjivg.tagaini.net"
kvg:element CDATA #IMPLIED
kvg:variant CDATA #IMPLIED
kvg:partial CDATA #IMPLIED
kvg:original CDATA #IMPLIED
kvg:part CDATA #IMPLIED
kvg:number CDATA #IMPLIED
kvg:tradForm CDATA #IMPLIED
kvg:radicalForm CDATA #IMPLIED
kvg:position CDATA #IMPLIED
kvg:radical CDATA #IMPLIED
kvg:phon CDATA #IMPLIED >
<!ATTLIST path
xmlns:kvg CDATA #FIXED "http://kanjivg.tagaini.net"
kvg:type CDATA #IMPLIED >
]>
<svg xmlns="http://www.w3.org/2000/svg" width="109" height="109" viewBox="0 0 109 109">
<g id="kvg:StrokePaths_05267" style="fill:none;stroke:#000000;stroke-width:3;stroke-linecap:round;stroke-linejoin:round;">
<g id="kvg:05267" kvg:element="剧">
	<g id="kvg:05267-g1" kvg:element="居" kvg:position="left">
		<g id="kvg:05267-g2" kvg:element="尸" kvg:position="tare">
			<path id="kvg:05267-s1" kvg:type="㇕c" d="m23.09 21.23c2.08 0.8 4.17 1.03 6.3 0.78c8.61 -1.01 23 -2.98 28.85 -3.67c2.85 -0.34 4.65 1.47 3.87 4.32c-0.94 3.46 -1.6 6.15 -2.57 10.91"/>
			<path id="kvg:05267-s2" kvg:type="㇐b" d="m27.04 38.94c6.09 -0.57 18.25 -2.13 27.96 -3.07c2.5 -0.24 4.75 -0.45 6.56 -0.6"/>
			<path id="kvg:05267-s3" kvg:type="㇒" d="m25.63 22.54c0.67 0.67 0.84 1.68 0.82 3.33c-0.32 25.63 -3.19 50.01 -15.14 63.19"/>
		</g>
		<g id="kvg:05267-g3" kvg:element="古">
			<g id="kvg:05267-g4" kvg:element="十" kvg:position="top">
				<path id="kvg:05267-s4" kvg:type="㇐" d="m28.86 54.92c2.01 0.6 3.95 0.09 6.06 -0.25c6.6 -1.04 16.49 -2.32 22.67 -2.75c1.78 -0.25 3.57 -0.23 5.34 0.05"/>
				<path id="kvg:05267-s5" kvg:type="㇑a" d="m43.97 42.69c0.98 0.98 1.66 2.31 1.66 4.14c0 11.68 0.12 20.05 0.12 25.54"/>
			</g>
			<g id="kvg:05267-g5" kvg:element="口" kvg:position="bottom">
				<path id="kvg:05267-s6" kvg:type="㇑" d="m30.2 74.74c1.09 1.09 1.53 2.36 1.76 3.64c0.79 4.37 2.23 11.02 2.96 17.12"/>
				<path id="kvg:05267-s7" kvg:type="㇕b" d="m31.86 75.52c6.52 -1.02 20.52 -2.95 27.01 -3.65c3.38 -0.37 4.88 0.78 4.21 3.78c-0.9 4.06 -1.97 9.57 -2.86 14.5"/>
				<path id="kvg:05267-s8" kvg:type="㇐b" d="m35.26 93.23c5.12 -0.48 14.45 -1.29 21.73 -1.92c1.96 -0.17 3.7 -0.3 5.05 -0.39"/>
			</g>
		</g>
	</g>
	<g id="kvg:05267-g6" kvg:element="刂" kvg:variant="true" kvg:original="刀" kvg:position="right" kvg:radical="tradit">
		<path id="kvg:05267-s9" kvg:type="㇑" d="M74.02,25.83c0.98,0.92,1.51,2.29,1.51,4.52c0,10.77,0.14,23.9,0.04,31.65c-0.04,2.65-0.06,4.74-0.06,6"/>
		<path id="kvg:05267-s10" kvg:type="㇚" d="M90.27,16.83c0.98,0.92,1.76,2.79,1.76,5.02c0,14.56-0.01,59.66-0.01,64.62c0,13.14-6.21,3.5-7.71,2.25"/>
	</g>
</g>
</g>
<g id="kvg:StrokeNumbers_05267" style="font-size:8;fill:#808080">
	<text transform="matrix(1 0 0 1 23.50 19.50)">1</text>
	<text transform="matrix(1 0 0 1 28.25 35.50)">2</text>
	<text transform="matrix(1 0 0 1 15.25 34.50)">3</text>
	<text transform="matrix(1 0 0 1 28.50 51.50)">4</text>
	<text transform="matrix(1 0 0 1 46.75 49.50)">5</text>
	<text transform="matrix(1 0 0 1 21.25 84.50)">6</text>
	<text transform="matrix(1 0 0 1 30.75 72.50)">7</text>
	<text transform="matrix(1 0 0 1 35.50 90.50)">8</text>
	<text transform="matrix(1 0 0 1 65.75 24.50)">9</text>
	<text transform="matrix(1 0 0 1 78.75 14.50)">10</text>
</g>
</svg>
