<?xml version="1.0" encoding="UTF-8"?>
<!--
Copyright (C) 2016 François Mizessyn.
This work makes an extensive use of kanjiVG Copyright (C) 2009/2010/2011 Ulrich Apel.
This work is distributed under the conditions of the Creative Commons
Attribution-Share Alike 3.0 Licence. This means you are free:
* to Share - to copy, distribute and transmit the work
* to Remix - to adapt the work

Under the following conditions:
* Attribution. You must attribute the work by stating your use of HanjiVG in
  your own copyright header and linking to HanjiVG's website
  (http://gooo.free.fr/hanziVG/)
* Attribution. You must attribute the work by stating your use of KanjiVG in
  your own copyright header and linking to KanjiVG's website
  (http://kanjivg.tagaini.net)
* Share Alike. If you alter, transform, or build upon this work, you may
  distribute the resulting work only under the same or similar license to this
  one.

See http://creativecommons.org/licenses/by-sa/3.0/ for more details.
-->
<!DOCTYPE svg PUBLIC "-//W3C//DTD SVG 1.0//EN" "http://www.w3.org/TR/2001/REC-SVG-20010904/DTD/svg10.dtd" [
<!ATTLIST g
xmlns:kvg CDATA #FIXED "http://kanjivg.tagaini.net"
kvg:element CDATA #IMPLIED
kvg:variant CDATA #IMPLIED
kvg:partial CDATA #IMPLIED
kvg:original CDATA #IMPLIED
kvg:part CDATA #IMPLIED
kvg:number CDATA #IMPLIED
kvg:tradForm CDATA #IMPLIED
kvg:radicalForm CDATA #IMPLIED
kvg:position CDATA #IMPLIED
kvg:radical CDATA #IMPLIED
kvg:phon CDATA #IMPLIED >
<!ATTLIST path
xmlns:kvg CDATA #FIXED "http://kanjivg.tagaini.net"
kvg:type CDATA #IMPLIED >
]>
<svg xmlns="http://www.w3.org/2000/svg" width="109" height="109" viewBox="0 0 109 109">
<g id="kvg:StrokePaths_0529e" style="fill:none;stroke:#000000;stroke-width:3;stroke-linecap:round;stroke-linejoin:round;">
<g id="kvg:0529e" kvg:element="办">
	<g id="kvg:0529e-g1" kvg:element="力" kvg:radical="tradit">
		<path id="kvg:0529e-s1" kvg:type="㇆" d="m25.9 38.25c1.63 1.16 3.29 1.13 4.96 0.71c8.66 -2.14 23.62 -6.21 41.94 -8.21c2.69 -0.65 3.75 1.38 3.3 5.75c-1.69 16.37 -5.4 38.75 -12 53.25c-3.68 8.09 -5.7 3 -7.5 -0.75"/>
		<path id="kvg:0529e-s2" kvg:type="㇒" d="m57.13 13.68c0.37 2.57 0.34 4.63 0 7.19c-2.47 18.97 -9.92 49.27 -26.09 68.79"/>
	</g>
	<path id="kvg:0529e-s3" kvg:type="㇔" d="m28.46 52.88c0.43 2.62 -4.32 14.21 -7.79 18.58"/>
	<path id="kvg:0529e-s4" kvg:type="㇔" d="M83.42,55.91c4.33,4.09,8.83,8.59,12.02,14.7"/>
</g>
</g>
<g id="kvg:StrokeNumbers_0529e" style="font-size:8;fill:#808080">
	<text transform="matrix(1 0 0 1 16.25 36.63)">1</text>
	<text transform="matrix(1 0 0 1 46.01 13.01)">2</text>
	<text transform="matrix(1 0 0 1 18.50 52.50)">3</text>
	<text transform="matrix(1 0 0 1 78.00 52.50)">4</text>
</g>
</svg>
