<?xml version="1.0" encoding="UTF-8"?>
<!--
Copyright (C) 2016 François Mizessyn.
This work makes an extensive use of kanjiVG Copyright (C) 2009/2010/2011 Ulrich Apel.
This work is distributed under the conditions of the Creative Commons
Attribution-Share Alike 3.0 Licence. This means you are free:
* to Share - to copy, distribute and transmit the work
* to Remix - to adapt the work

Under the following conditions:
* Attribution. You must attribute the work by stating your use of HanjiVG in
  your own copyright header and linking to HanjiVG's website
  (http://gooo.free.fr/hanziVG/)
* Attribution. You must attribute the work by stating your use of KanjiVG in
  your own copyright header and linking to KanjiVG's website
  (http://kanjivg.tagaini.net)
* Share Alike. If you alter, transform, or build upon this work, you may
  distribute the resulting work only under the same or similar license to this
  one.

See http://creativecommons.org/licenses/by-sa/3.0/ for more details.
-->
<!DOCTYPE svg PUBLIC "-//W3C//DTD SVG 1.0//EN" "http://www.w3.org/TR/2001/REC-SVG-20010904/DTD/svg10.dtd" [
<!ATTLIST g
xmlns:kvg CDATA #FIXED "http://kanjivg.tagaini.net"
kvg:element CDATA #IMPLIED
kvg:variant CDATA #IMPLIED
kvg:partial CDATA #IMPLIED
kvg:original CDATA #IMPLIED
kvg:part CDATA #IMPLIED
kvg:number CDATA #IMPLIED
kvg:tradForm CDATA #IMPLIED
kvg:radicalForm CDATA #IMPLIED
kvg:position CDATA #IMPLIED
kvg:radical CDATA #IMPLIED
kvg:phon CDATA #IMPLIED >
<!ATTLIST path
xmlns:kvg CDATA #FIXED "http://kanjivg.tagaini.net"
kvg:type CDATA #IMPLIED >
]>
<svg xmlns="http://www.w3.org/2000/svg" width="109" height="109" viewBox="0 0 109 109">
<g id="kvg:StrokePaths_052a1" style="fill:none;stroke:#000000;stroke-width:3;stroke-linecap:round;stroke-linejoin:round;">
<g id="kvg:052a1" kvg:element="务">
	<g id="kvg:052a1-g1" kvg:element="夂" kvg:position="top" kvg:radical="nelson">
<path id="kvg:052a1-s1" kvg:type="㇒" d="m43.71 12.78c0.06 0.65 0.12 1.67 -0.12 2.59c-1.44 5.47 -9.72 17.46 -21.06 24.79"/>
<path id="kvg:052a1-s2" kvg:type="㇇" d="m42.74 22.91c0.41 0.03 2.19 0.1 3.34 -0.1c5.16 -0.89 12.62 -2.4 18.14 -3.41c3.79 -0.69 4.61 1.22 3.65 3.1c-5.31 10.31 -26.37 33.41 -50.43 41.28"/>
<path id="kvg:052a1-s3" kvg:type="㇏" d="m37.71 27.59c5.79 4.52 29.16 19.93 41.36 27.21c3.23 1.93 6.51 3.99 10.3 4.94"/>
	</g>
	<g id="kvg:052a1-g2" kvg:element="力" kvg:radical="general">
<path id="kvg:052a1-s4" kvg:type="㇆" d="m32.38 66.08c1.75 0.64 3.53 0.62 5.32 0.39c9.3 -1.17 25.32 -3.39 34.25 -4.48c2.89 -0.36 4.02 0.75 3.54 3.13c-1.81 8.95 -5.79 21.15 -12.87 29.06c-3.95 4.42 -6.1 1.64 -8.04 -0.41"/>
<path id="kvg:052a1-s5" kvg:type="㇒" d="m55.15 52.66c0.4 1.4 0.36 2.52 0 3.93c-2.65 10.35 -10.64 26.89 -27.98 37.54"/>
	</g>
</g>
</g>
<g id="kvg:StrokeNumbers_052a1" style="font-size:8;fill:#808080">
	<text transform="matrix(1 0 0 1 35.50 12.50)">1</text>
	<text transform="matrix(1 0 0 1 46.50 19.50)">2</text>
	<text transform="matrix(1 0 0 1 34.50 43.50)">3</text>
	<text transform="matrix(1 0 0 1 23.25 74.50)">4</text>
	<text transform="matrix(1 0 0 1 43.50 62.50)">5</text>
</g>
</svg>
