<?xml version="1.0" encoding="UTF-8"?>
<!--
Copyright (C) 2016 François Mizessyn.
This work makes an extensive use of kanjiVG Copyright (C) 2009/2010/2011 Ulrich Apel.
This work is distributed under the conditions of the Creative Commons
Attribution-Share Alike 3.0 Licence. This means you are free:
* to Share - to copy, distribute and transmit the work
* to Remix - to adapt the work

Under the following conditions:
* Attribution. You must attribute the work by stating your use of HanjiVG in
  your own copyright header and linking to HanjiVG's website
  (http://gooo.free.fr/hanziVG/)
* Attribution. You must attribute the work by stating your use of KanjiVG in
  your own copyright header and linking to KanjiVG's website
  (http://kanjivg.tagaini.net)
* Share Alike. If you alter, transform, or build upon this work, you may
  distribute the resulting work only under the same or similar license to this
  one.

See http://creativecommons.org/licenses/by-sa/3.0/ for more details.
-->
<!DOCTYPE svg PUBLIC "-//W3C//DTD SVG 1.0//EN" "http://www.w3.org/TR/2001/REC-SVG-20010904/DTD/svg10.dtd" [
<!ATTLIST g
xmlns:kvg CDATA #FIXED "http://kanjivg.tagaini.net"
kvg:element CDATA #IMPLIED
kvg:variant CDATA #IMPLIED
kvg:partial CDATA #IMPLIED
kvg:original CDATA #IMPLIED
kvg:part CDATA #IMPLIED
kvg:number CDATA #IMPLIED
kvg:tradForm CDATA #IMPLIED
kvg:radicalForm CDATA #IMPLIED
kvg:position CDATA #IMPLIED
kvg:radical CDATA #IMPLIED
kvg:phon CDATA #IMPLIED >
<!ATTLIST path
xmlns:kvg CDATA #FIXED "http://kanjivg.tagaini.net"
kvg:type CDATA #IMPLIED >
]>
<svg xmlns="http://www.w3.org/2000/svg" width="109" height="109" viewBox="0 0 109 109">
<g id="kvg:StrokePaths_05305" style="fill:none;stroke:#000000;stroke-width:3;stroke-linecap:round;stroke-linejoin:round;">
<g id="kvg:05305" kvg:element="包">
	<g id="kvg:05305-g1" kvg:element="勹" kvg:radical="tradit">
		<g id="kvg:05305-g2" kvg:element="丿" kvg:radical="nelson">
			<path id="kvg:05305-s1" kvg:type="㇒" d="M39,11c0.06,0.81,0.08,1.91-0.38,3.01C35.65,21.22,27.59,34.27,16.5,44.8"/>
		</g>
		<path id="kvg:05305-s2" kvg:type="㇆" d="M35.66,26.05c1.34,0.45,2.58,0.63,4.38,0.46c5.34-0.5,32.77-3.67,37.14-4.07c2.07-0.19,4.44,1.25,4.32,3.81c-0.25,5.25-4,28.5-9.62,40.17c-2.11,4.38-4.42,1.71-7.01-1.14"/>
	</g>
	<g id="kvg:05305-g3" kvg:element="己">
		<path id="kvg:05305-s3" kvg:type="㇕c" d="M 33.94,44.6 C 35.55,44.5 37.6,44.15 40.26,43.8 44.92,43.19 48.67,42.53 52.5,42.11 55.98,41.73 57.58,43.09 56.67,46.64 56.12,48.79 54.7,54.7 53.41,61.3"/>
		<path id="kvg:05305-s4" kvg:type="㇐" d="M 30.48,62.62 C 31.98,63.37 33.34,63.7 35.48,63.68 41.16,63.63 44.69,62.92 50.63,62.31 52.42,62.13 54.1,62.13 55.56,62.05"/>
		<path id="kvg:05305-s5" kvg:type="㇟" d="M 29.44,41.33 C 30.24,42.13 30.58,42.8 30.58,44.15 30.58,50.44 30.70,55.72 30.32,61.03 28.12,91.44 31.01,95.93 60.29,95.93 87.51,95.93 89.51,92.74 89.51,81.76"/>
	</g>
</g>
</g>
<g id="kvg:StrokeNumbers_05305" style="font-size:8;fill:#808080">
	<text transform="matrix(1 0 0 1 32.25 11.50)">1</text>
	<text transform="matrix(1 0 0 1 43.50 22.63)">2</text>
	<text transform="matrix(1 0 0 1 31.50 41.50)">3</text>
	<text transform="matrix(1 0 0 1 33.75 60.13)">4</text>
	<text transform="matrix(1 0 0 1 21.50 69.50)">5</text>
</g>
</svg>
