<?xml version="1.0" encoding="UTF-8"?>
<!--
Copyright (C) 2016 François Mizessyn.
This work makes an extensive use of kanjiVG Copyright (C) 2009/2010/2011 Ulrich Apel.
This work is distributed under the conditions of the Creative Commons
Attribution-Share Alike 3.0 Licence. This means you are free:
* to Share - to copy, distribute and transmit the work
* to Remix - to adapt the work

Under the following conditions:
* Attribution. You must attribute the work by stating your use of HanjiVG in
  your own copyright header and linking to HanjiVG's website
  (http://gooo.free.fr/hanziVG/)
* Attribution. You must attribute the work by stating your use of KanjiVG in
  your own copyright header and linking to KanjiVG's website
  (http://kanjivg.tagaini.net)
* Share Alike. If you alter, transform, or build upon this work, you may
  distribute the resulting work only under the same or similar license to this
  one.

See http://creativecommons.org/licenses/by-sa/3.0/ for more details.
-->
<!DOCTYPE svg PUBLIC "-//W3C//DTD SVG 1.0//EN" "http://www.w3.org/TR/2001/REC-SVG-20010904/DTD/svg10.dtd" [
<!ATTLIST g
xmlns:kvg CDATA #FIXED "http://kanjivg.tagaini.net"
kvg:element CDATA #IMPLIED
kvg:variant CDATA #IMPLIED
kvg:partial CDATA #IMPLIED
kvg:original CDATA #IMPLIED
kvg:part CDATA #IMPLIED
kvg:number CDATA #IMPLIED
kvg:tradForm CDATA #IMPLIED
kvg:radicalForm CDATA #IMPLIED
kvg:position CDATA #IMPLIED
kvg:radical CDATA #IMPLIED
kvg:phon CDATA #IMPLIED >
<!ATTLIST path
xmlns:kvg CDATA #FIXED "http://kanjivg.tagaini.net"
kvg:type CDATA #IMPLIED >
]>
<svg xmlns="http://www.w3.org/2000/svg" width="109" height="109" viewBox="0 0 109 109">
<g id="kvg:StrokePaths_05355" style="fill:none;stroke:#000000;stroke-width:3;stroke-linecap:round;stroke-linejoin:round;">
<g id="kvg:05355" kvg:element="单">
	<g id="kvg:05355-g1" kvg:element="八" kvg:variant="true" kvg:position="top">
		<path id="kvg:05355-s1" kvg:type="㇔" d="m35.33 12.14c2.86 2.04 7.39 8.4 8.1 11.58"/>
		<path id="kvg:05355-s2" kvg:type="㇒" d="m69.96 11.14c0.02 0.37 0.05 0.96 -0.05 1.5c-0.62 3.16 -4.16 10.09 -9 14.33"/>
	</g>
	<g id="kvg:05355-g2" kvg:element="日">
		<path id="kvg:05355-s3" kvg:type="㇑" d="m29.04 33.81c0.83 0.83 1.36 1.81 1.5 2.63c0.35 2 2.74 14.15 4 20.55c0.43 2.19 0.72 3.7 0.75 3.91"/>
		<path id="kvg:05355-s4" kvg:type="㇕a" d="m30.43 34.61c10.82 -1.74 39.95 -4.74 43.88 -4.77c2.58 -0.02 4.81 1.28 4.29 4.17c-0.17 0.94 -2.49 12.79 -3.78 19.13c-0.44 2.16 -0.73 3.65 -0.73 3.81"/>
		<path id="kvg:05355-s5" kvg:type="㇐a" d="m33.57 46.52c8.81 -0.9 34.93 -3.4 42.24 -3.6"/>
		<path id="kvg:05355-s6" kvg:type="㇐a" d="m35.91 58.2c7.34 -0.82 27.84 -2.95 37.27 -3.48"/>
	</g>
	<g id="kvg:05355-g3" kvg:element="十" kvg:position="bottom">
		<path id="kvg:05355-s7" kvg:type="㇐" d="m20.05 72.22c2.71 0.91 5.66 0.81 8.45 0.5c14.5 -1.6 37.5 -3.72 52.62 -4.5c2.78 -0.14 5.35 -0.08 8.08 0.47"/>
		<path id="kvg:05355-s8" kvg:type="㇑" d="m52.92 33.81c0.95 0.95 1.28 2.32 1.28 3.93c0 3.91 0.02 38.31 0.02 54.38c0 3.48 0 6.11 0 7.38"/>
	</g>
</g>
</g>
<g id="kvg:StrokeNumbers_05355" style="font-size:8;fill:#808080">
	<text transform="matrix(1 0 0 1 26.25 13.63)">1</text>
	<text transform="matrix(1 0 0 1 59.01 13.01)">2</text>
	<text transform="matrix(1 0 0 1 18.50 41.50)">3</text>
	<text transform="matrix(1 0 0 1 25.25 31.13)">4</text>
	<text transform="matrix(1 0 0 1 33.49 42.50)">5</text>
	<text transform="matrix(1 0 0 1 36.50 55.50)">6</text>
	<text transform="matrix(1 0 0 1 17.50 69.13)">7</text>
	<text transform="matrix(1 0 0 1 48.50 28.63)">8</text>
</g>
</svg>
