<?xml version="1.0" encoding="UTF-8"?>
<!--
Copyright (C) 2016 François Mizessyn.
This work makes an extensive use of kanjiVG Copyright (C) 2009/2010/2011 Ulrich Apel.
This work is distributed under the conditions of the Creative Commons
Attribution-Share Alike 3.0 Licence. This means you are free:
* to Share - to copy, distribute and transmit the work
* to Remix - to adapt the work

Under the following conditions:
* Attribution. You must attribute the work by stating your use of HanjiVG in
  your own copyright header and linking to HanjiVG's website
  (http://gooo.free.fr/hanziVG/)
* Attribution. You must attribute the work by stating your use of KanjiVG in
  your own copyright header and linking to KanjiVG's website
  (http://kanjivg.tagaini.net)
* Share Alike. If you alter, transform, or build upon this work, you may
  distribute the resulting work only under the same or similar license to this
  one.

See http://creativecommons.org/licenses/by-sa/3.0/ for more details.
-->
<!DOCTYPE svg PUBLIC "-//W3C//DTD SVG 1.0//EN" "http://www.w3.org/TR/2001/REC-SVG-20010904/DTD/svg10.dtd" [
<!ATTLIST g
xmlns:kvg CDATA #FIXED "http://kanjivg.tagaini.net"
kvg:element CDATA #IMPLIED
kvg:variant CDATA #IMPLIED
kvg:partial CDATA #IMPLIED
kvg:original CDATA #IMPLIED
kvg:part CDATA #IMPLIED
kvg:number CDATA #IMPLIED
kvg:tradForm CDATA #IMPLIED
kvg:radicalForm CDATA #IMPLIED
kvg:position CDATA #IMPLIED
kvg:radical CDATA #IMPLIED
kvg:phon CDATA #IMPLIED >
<!ATTLIST path
xmlns:kvg CDATA #FIXED "http://kanjivg.tagaini.net"
kvg:type CDATA #IMPLIED >
]>
<svg xmlns="http://www.w3.org/2000/svg" width="109" height="109" viewBox="0 0 109 109">
<g id="kvg:StrokePaths_05356" style="fill:none;stroke:#000000;stroke-width:3;stroke-linecap:round;stroke-linejoin:round;">
<g id="kvg:05356" kvg:element="卖" kvg:radical="general">
	<g id="kvg:05356-g1" kvg:element="十" kvg:position="top" kvg:radical="nelson">
		<path id="kvg:05356-s1" kvg:type="㇐" d="m25.63 27.92c3.25 0.33 6.04 0.35 8.62 0.08c12 -1.25 32.73 -3.03 43.75 -3.46c2.8 -0.11 5.9 -0.1 8.63 0.58"/>
		<path id="kvg:05356-s2" kvg:type="㇑a" d="m53.96 13c1.04 1 1.48 2.38 1.28 4.17c-0.74 6.58 -0.74 13.58 -0.54 19.33"/>
	</g>
	<g id="kvg:05356-g2" kvg:element="买" kvg:radical="general">
		<path id="kvg:05356-s3" kvg:type="㇖" d="m20.22 40.4c2.78 0.35 4.46 0.62 7.28 0.35c16 -1.57 36.97 -4.37 57.69 -4.37c9.56 0 5.56 2.8 -0.69 6.65"/>
		<g id="kvg:05356-g3" kvg:element="头">
			<path id="kvg:05356-s4" kvg:type="㇔" d="M42.42,47.75c2.51,1.37,8.97,9.11,8.5,9.67"/>
			<path id="kvg:05356-s5" kvg:type="㇔" d="M30.42,52.75c2.51,1.37,8.97,9.11,8.5,9.67"/>
			<g id="kvg:05356-g4" kvg:element="大" kvg:position="bottom" kvg:radical="tradit">
				<path id="kvg:05356-s6" kvg:type="㇐" d="m18.8 70.57c1.29 0.35 4.72 0.75 7.45 0.6c18.48 -1.03 42.75 -3.09 59.34 -3.58c2.85 -0.08 5.15 -0.04 7.72 0.23"/>
				<path id="kvg:05356-s7" kvg:type="㇒" d="m58.35 48.25c0.58 0.54 0.89 1.16 0.87 4.87c-0.28 20.11 -13.47 31.79 -43.38 41.14"/>
				<path id="kvg:05356-s8" kvg:type="㇏" d="m55.29 69.02c7.71 6.18 25.7 21.91 33.4 26.04c2.62 1.4 3.53 1.62 4.72 1.75"/>
			</g>
		</g>
	</g>
</g>
</g>
<g id="kvg:StrokeNumbers_05356" style="font-size:8;fill:#808080">
	<text transform="matrix(1 0 0 1 17.50 22.50)">1</text>
	<text transform="matrix(1 0 0 1 42.50 14.50)">2</text>
	<text transform="matrix(1 0 0 1 8.50 41.50)">3</text>
	<text transform="matrix(1 0 0 1 32.50 52.50)">4</text>
	<text transform="matrix(1 0 0 1 22.20 61.53)">5</text>
	<text transform="matrix(1 0 0 1 9.20 68.95)">6</text>
	<text transform="matrix(1 0 0 1 49.20 50.50)">7</text>
	<text transform="matrix(1 0 0 1 72.70 80.50)">8</text>
</g>
</svg>
