<?xml version="1.0" encoding="UTF-8"?>
<!--
Copyright (C) 2016 François Mizessyn.
This work makes an extensive use of kanjiVG Copyright (C) 2009/2010/2011 Ulrich Apel.
This work is distributed under the conditions of the Creative Commons
Attribution-Share Alike 3.0 Licence. This means you are free:
* to Share - to copy, distribute and transmit the work
* to Remix - to adapt the work

Under the following conditions:
* Attribution. You must attribute the work by stating your use of HanjiVG in
  your own copyright header and linking to HanjiVG's website
  (http://gooo.free.fr/hanziVG/)
* Attribution. You must attribute the work by stating your use of KanjiVG in
  your own copyright header and linking to KanjiVG's website
  (http://kanjivg.tagaini.net)
* Share Alike. If you alter, transform, or build upon this work, you may
  distribute the resulting work only under the same or similar license to this
  one.

See http://creativecommons.org/licenses/by-sa/3.0/ for more details.
-->
<!DOCTYPE svg PUBLIC "-//W3C//DTD SVG 1.0//EN" "http://www.w3.org/TR/2001/REC-SVG-20010904/DTD/svg10.dtd" [
<!ATTLIST g
xmlns:kvg CDATA #FIXED "http://kanjivg.tagaini.net"
kvg:element CDATA #IMPLIED
kvg:variant CDATA #IMPLIED
kvg:partial CDATA #IMPLIED
kvg:original CDATA #IMPLIED
kvg:part CDATA #IMPLIED
kvg:number CDATA #IMPLIED
kvg:tradForm CDATA #IMPLIED
kvg:radicalForm CDATA #IMPLIED
kvg:position CDATA #IMPLIED
kvg:radical CDATA #IMPLIED
kvg:phon CDATA #IMPLIED >
<!ATTLIST path
xmlns:kvg CDATA #FIXED "http://kanjivg.tagaini.net"
kvg:type CDATA #IMPLIED >
]>
<svg xmlns="http://www.w3.org/2000/svg" width="109" height="109" viewBox="0 0 109 109">
<g id="kvg:StrokePaths_05361" style="fill:none;stroke:#000000;stroke-width:3;stroke-linecap:round;stroke-linejoin:round;">
<g id="kvg:05361" kvg:element="卡">
	<g id="kvg:05361-g1" kvg:element="上" kvg:position="top">
		<g id="kvg:05361-g2" kvg:element="卜" kvg:original="ト">
			<path id="kvg:05361-s1" kvg:type="㇑" d="m46.76 12.46c0.86 0.43 2.64 3.26 2.81 4.13c0.17 0.88 -0.11 25.45 -0.29 30.9"/>
			<path id="kvg:05361-s2" kvg:type="㇔" d="m49.55 30.64c3.08 -0.23 29.06 -3.89 30.74 -3.89s3.95 0 5.31 0.23"/>
		</g>
		<g id="kvg:05361-g3" kvg:element="一">
			<path id="kvg:05361-s3" kvg:type="㇐" d="m16.41 50.33c1.65 0.37 4.68 0.46 6.32 0.37c14.34 -0.79 38.09 -3.41 62.75 -4.57c2.75 -0.13 4.4 0.17 5.78 0.36"/>
		</g>
	</g>
	<g id="kvg:05361-g4" kvg:element="卜" kvg:original="ト" kvg:position="bottom">
		<path id="kvg:05361-s4" kvg:type="㇐" d="m47.71 52.1c1.4 1.28 1.59 3.36 1.59 5.76c0 12.64 -0.43 26.04 -0.43 41.94"/>
		<path id="kvg:05361-s5" kvg:type="㇑" d="m53.12 60.4c10.38 3.4 23.51 10.3 30.63 17.34"/>
	</g>
</g>
</g>
<g id="kvg:StrokeNumbers_05361" style="font-size:8;fill:#808080">
	<text transform="matrix(1 0 0 1 36.50 12.50)">1</text>
	<text transform="matrix(1 0 0 1 38.50 34.50)">2</text>
	<text transform="matrix(1 0 0 1 10.50 47.50)">3</text>
	<text transform="matrix(1 0 0 1 39.50 64.50)">4</text>
	<text transform="matrix(1 0 0 1 61.50 61.50)">5</text>
</g>
</svg>
