<?xml version="1.0" encoding="UTF-8"?>
<!--
Copyright (C) 2016 François Mizessyn.
This work makes an extensive use of kanjiVG Copyright (C) 2009/2010/2011 Ulrich Apel.
This work is distributed under the conditions of the Creative Commons
Attribution-Share Alike 3.0 Licence. This means you are free:
* to Share - to copy, distribute and transmit the work
* to Remix - to adapt the work

Under the following conditions:
* Attribution. You must attribute the work by stating your use of HanjiVG in
  your own copyright header and linking to HanjiVG's website
  (http://gooo.free.fr/hanziVG/)
* Attribution. You must attribute the work by stating your use of KanjiVG in
  your own copyright header and linking to KanjiVG's website
  (http://kanjivg.tagaini.net)
* Share Alike. If you alter, transform, or build upon this work, you may
  distribute the resulting work only under the same or similar license to this
  one.

See http://creativecommons.org/licenses/by-sa/3.0/ for more details.
-->
<!DOCTYPE svg PUBLIC "-//W3C//DTD SVG 1.0//EN" "http://www.w3.org/TR/2001/REC-SVG-20010904/DTD/svg10.dtd" [
<!ATTLIST g
xmlns:kvg CDATA #FIXED "http://kanjivg.tagaini.net"
kvg:element CDATA #IMPLIED
kvg:variant CDATA #IMPLIED
kvg:partial CDATA #IMPLIED
kvg:original CDATA #IMPLIED
kvg:part CDATA #IMPLIED
kvg:number CDATA #IMPLIED
kvg:tradForm CDATA #IMPLIED
kvg:radicalForm CDATA #IMPLIED
kvg:position CDATA #IMPLIED
kvg:radical CDATA #IMPLIED
kvg:phon CDATA #IMPLIED >
<!ATTLIST path
xmlns:kvg CDATA #FIXED "http://kanjivg.tagaini.net"
kvg:type CDATA #IMPLIED >
]>
<svg xmlns="http://www.w3.org/2000/svg" width="109" height="109" viewBox="0 0 109 109">
<g id="kvg:StrokePaths_0538c" style="fill:none;stroke:#000000;stroke-width:3;stroke-linecap:round;stroke-linejoin:round;">
<g id="kvg:0538c" kvg:element="厌" kvg:original="辶" kvg:radical="tradit">
	<g id="kvg:0538c-g1" kvg:element="厂" kvg:radical="nelson">
		<path id="kvg:0538c-s1" kvg:type="㇐" d="m26.13 22.29c1.84 0.48 5.22 0.64 7.06 0.48c14.81 -1.27 29.43 -3.65 48.87 -4.73c3.06 -0.23 4.91 -0.02 6.44 0.22"/>
		<path id="kvg:0538c-s2" kvg:type="㇒" d="m29.24 23c1.13 1.13 1.49 2.69 1.4 4.89c-0.89 22.11 -3.02 45.36 -16.83 61.58"/>
	</g>
	<g id="kvg:0538c-g2" kvg:element="犬" kvg:position="right">
		<g id="kvg:0538c-g3" kvg:element="大">
			<path id="kvg:0538c-s3" kvg:type="㇐" d="m36.84 54.15c2.52 0.45 5.36 0.41 7.67 0.17c8.76 -0.92 23.88 -2.52 35.06 -3.23c2.52 -0.16 4.82 -0.29 7.32 0.23"/>
			<path id="kvg:0538c-s4" kvg:type="㇒" d="m59.3 28.8c1.01 0.84 1.16 1.8 1.24 3.49c1.02 24.11 -2.82 49.82 -24.78 61.51"/>
			<path id="kvg:0538c-s5" kvg:type="㇏" d="m60.6 56c5.98 8.71 15.92 21.91 24.4 30.03c2.08 1.99 4.3 4.26 6.92 5.77"/>
		</g>
		<g id="kvg:0538c-g4" kvg:element="丶">
			<path id="kvg:0538c-s6" kvg:type="㇔" d="m76.87 33.6c5.08 2.7 8.57 5.67 10.73 8.8"/>
		</g>
	</g>
</g>
</g>
<g id="kvg:StrokeNumbers_0538c" style="font-size:8;fill:#808080">
	<text transform="matrix(1 0 0 1 18.50 26.50)">1</text>
	<text transform="matrix(1 0 0 1 28.50 18.50)">2</text>
	<text transform="matrix(1 0 0 1 33.50 43.50)">3</text>
	<text transform="matrix(1 0 0 1 48.75 15.13)">4</text>
	<text transform="matrix(1 0 0 1 67.50 54.50)">5</text>
	<text transform="matrix(1 0 0 1 69.50 19.50)">6</text>
</g>
</svg>
