<?xml version="1.0" encoding="UTF-8"?>
<!--
Copyright (C) 2016 François Mizessyn.
This work makes an extensive use of kanjiVG Copyright (C) 2009/2010/2011 Ulrich Apel.
This work is distributed under the conditions of the Creative Commons
Attribution-Share Alike 3.0 Licence. This means you are free:
* to Share - to copy, distribute and transmit the work
* to Remix - to adapt the work

Under the following conditions:
* Attribution. You must attribute the work by stating your use of HanjiVG in
  your own copyright header and linking to HanjiVG's website
  (http://gooo.free.fr/hanziVG/)
* Attribution. You must attribute the work by stating your use of KanjiVG in
  your own copyright header and linking to KanjiVG's website
  (http://kanjivg.tagaini.net)
* Share Alike. If you alter, transform, or build upon this work, you may
  distribute the resulting work only under the same or similar license to this
  one.

See http://creativecommons.org/licenses/by-sa/3.0/ for more details.
-->
<!DOCTYPE svg PUBLIC "-//W3C//DTD SVG 1.0//EN" "http://www.w3.org/TR/2001/REC-SVG-20010904/DTD/svg10.dtd" [
<!ATTLIST g
xmlns:kvg CDATA #FIXED "http://kanjivg.tagaini.net"
kvg:element CDATA #IMPLIED
kvg:variant CDATA #IMPLIED
kvg:partial CDATA #IMPLIED
kvg:original CDATA #IMPLIED
kvg:part CDATA #IMPLIED
kvg:number CDATA #IMPLIED
kvg:tradForm CDATA #IMPLIED
kvg:radicalForm CDATA #IMPLIED
kvg:position CDATA #IMPLIED
kvg:radical CDATA #IMPLIED
kvg:phon CDATA #IMPLIED >
<!ATTLIST path
xmlns:kvg CDATA #FIXED "http://kanjivg.tagaini.net"
kvg:type CDATA #IMPLIED >
]>
<svg xmlns="http://www.w3.org/2000/svg" width="109" height="109" viewBox="0 0 109 109">
<g id="kvg:StrokePaths_05385" style="fill:none;stroke:#000000;stroke-width:3;stroke-linecap:round;stroke-linejoin:round;">
<g id="kvg:05385" kvg:element="厅" kvg:original="辶" kvg:radical="tradit">
	<g id="kvg:05385-g1" kvg:element="厂" kvg:radical="nelson">
		<path id="kvg:05385-s1" kvg:type="㇐" d="m26.13 22.29c1.84 0.48 5.22 0.64 7.06 0.48c14.81 -1.27 29.43 -3.65 48.87 -4.73c3.06 -0.23 4.91 -0.02 6.44 0.22"/>
		<path id="kvg:05385-s2" kvg:type="㇒" d="m29.24 23c1.13 1.13 1.49 2.69 1.4 4.89c-0.89 22.11 -3.02 45.36 -16.83 61.58"/>
	</g>
	<g id="kvg:05385" kvg:element="丁">
		<g id="kvg:05385-g1" kvg:element="一" kvg:radical="general">
			<path id="kvg:05385-s1" kvg:type="㇐" d="m37.8 46.92c1.71 0.39 4.84 0.57 6.54 0.39c13.23 -1.39 27.67 -3.75 42.43 -4.54c2.83 -0.15 4.55 0.19 5.97 0.39"/>
		</g>
		<g id="kvg:05385-g2" kvg:element="亅">
			<path id="kvg:05385-s2" kvg:type="㇚" d="m67.04 46.16c0.75 0.75 1.22 2.04 1.22 3.54c0 10.27 0 38.18 0 41.68c0 7.92 -5.92 0.36 -6.97 -0.52"/>
		</g>
	</g>
</g>
</g>
<g id="kvg:StrokeNumbers_05385" style="font-size:8;fill:#808080">
	<text transform="matrix(1 0 0 1 16.50 26.50)">1</text>
	<text transform="matrix(1 0 0 1 28.50 18.50)">2</text>
	<text transform="matrix(1 0 0 1 34.50 43.63)">3</text>
	<text transform="matrix(1 0 0 1 62.50 41.50)">4</text>
</g>
</svg>
