<?xml version="1.0" encoding="UTF-8"?>
<!--
Copyright (C) 2016 François Mizessyn.
This work makes an extensive use of kanjiVG Copyright (C) 2009/2010/2011 Ulrich Apel.
This work is distributed under the conditions of the Creative Commons
Attribution-Share Alike 3.0 Licence. This means you are free:
* to Share - to copy, distribute and transmit the work
* to Remix - to adapt the work

Under the following conditions:
* Attribution. You must attribute the work by stating your use of HanjiVG in
  your own copyright header and linking to HanjiVG's website
  (http://gooo.free.fr/hanziVG/)
* Attribution. You must attribute the work by stating your use of KanjiVG in
  your own copyright header and linking to KanjiVG's website
  (http://kanjivg.tagaini.net)
* Share Alike. If you alter, transform, or build upon this work, you may
  distribute the resulting work only under the same or similar license to this
  one.

See http://creativecommons.org/licenses/by-sa/3.0/ for more details.
-->
<!DOCTYPE svg PUBLIC "-//W3C//DTD SVG 1.0//EN" "http://www.w3.org/TR/2001/REC-SVG-20010904/DTD/svg10.dtd" [
<!ATTLIST g
xmlns:kvg CDATA #FIXED "http://kanjivg.tagaini.net"
kvg:element CDATA #IMPLIED
kvg:variant CDATA #IMPLIED
kvg:partial CDATA #IMPLIED
kvg:original CDATA #IMPLIED
kvg:part CDATA #IMPLIED
kvg:number CDATA #IMPLIED
kvg:tradForm CDATA #IMPLIED
kvg:radicalForm CDATA #IMPLIED
kvg:position CDATA #IMPLIED
kvg:radical CDATA #IMPLIED
kvg:phon CDATA #IMPLIED >
<!ATTLIST path
xmlns:kvg CDATA #FIXED "http://kanjivg.tagaini.net"
kvg:type CDATA #IMPLIED >
]>
<svg xmlns="http://www.w3.org/2000/svg" width="109" height="109" viewBox="0 0 109 109">
<g id="kvg:StrokePaths_05386" style="fill:none;stroke:#000000;stroke-width:3;stroke-linecap:round;stroke-linejoin:round;">
<g id="kvg:05386" kvg:element="历" kvg:original="辶" kvg:radical="tradit">
	<g id="kvg:05386-g1" kvg:element="厂" kvg:radical="nelson">
		<path id="kvg:05386-s1" kvg:type="㇐" d="m28.13 22.29c1.84 0.48 5.22 0.64 7.06 0.48c14.81 -1.27 29.43 -3.65 43.87 -4.73c3.06 -0.23 4.91 -0.02 6.44 0.22"/>
		<path id="kvg:05386-s2" kvg:type="㇒" d="m31.24 23c1.13 1.13 1.49 2.69 1.4 4.89c-0.89 22.11 -3.02 45.36 -16.83 61.58"/>
	</g>
	<g id="kvg:05386-g2" kvg:element="力" kvg:radical="general">
		<path id="kvg:05386-s3" kvg:type="㇆" d="m39.13 48.56c2.03 0.96 4.11 0.94 6.2 0.58c10.83 -1.76 29.52 -5.13 39.92 -6.78c3.36 -0.54 4.69 1.13 4.13 4.74c-2.11 13.51 -6.75 31.97 -15 43.93c-4.6 6.68 -7.12 2.48 -9.37 -0.62"/>
		<path id="kvg:05386-s4" kvg:type="㇒" d="m64.66 28.29c0.47 2.12 0.42 3.82 0 5.93c-3.08 15.65 -12.4 40.65 -32.62 56.75"/>
	</g>
</g>
</g>
<g id="kvg:StrokeNumbers_05386" style="font-size:8;fill:#808080">
	<text transform="matrix(1 0 0 1 18.50 26.50)">1</text>
	<text transform="matrix(1 0 0 1 28.50 18.50)">2</text>
	<text transform="matrix(1 0 0 1 35.75 45.63)">3</text>
	<text transform="matrix(1 0 0 1 67.75 33.13)">4</text>
</g>
</svg>
