<?xml version="1.0" encoding="UTF-8"?>
<!--
Copyright (C) 2016 François Mizessyn.
This work makes an extensive use of kanjiVG Copyright (C) 2009/2010/2011 Ulrich Apel.
This work is distributed under the conditions of the Creative Commons
Attribution-Share Alike 3.0 Licence. This means you are free:
* to Share - to copy, distribute and transmit the work
* to Remix - to adapt the work

Under the following conditions:
* Attribution. You must attribute the work by stating your use of HanjiVG in
  your own copyright header and linking to HanjiVG's website
  (http://gooo.free.fr/hanziVG/)
* Attribution. You must attribute the work by stating your use of KanjiVG in
  your own copyright header and linking to KanjiVG's website
  (http://kanjivg.tagaini.net)
* Share Alike. If you alter, transform, or build upon this work, you may
  distribute the resulting work only under the same or similar license to this
  one.

See http://creativecommons.org/licenses/by-sa/3.0/ for more details.
-->
<!DOCTYPE svg PUBLIC "-//W3C//DTD SVG 1.0//EN" "http://www.w3.org/TR/2001/REC-SVG-20010904/DTD/svg10.dtd" [
<!ATTLIST g
xmlns:kvg CDATA #FIXED "http://kanjivg.tagaini.net"
kvg:element CDATA #IMPLIED
kvg:variant CDATA #IMPLIED
kvg:partial CDATA #IMPLIED
kvg:original CDATA #IMPLIED
kvg:part CDATA #IMPLIED
kvg:number CDATA #IMPLIED
kvg:tradForm CDATA #IMPLIED
kvg:radicalForm CDATA #IMPLIED
kvg:position CDATA #IMPLIED
kvg:radical CDATA #IMPLIED
kvg:phon CDATA #IMPLIED >
<!ATTLIST path
xmlns:kvg CDATA #FIXED "http://kanjivg.tagaini.net"
kvg:type CDATA #IMPLIED >
]>
<svg xmlns="http://www.w3.org/2000/svg" width="109" height="109" viewBox="0 0 109 109">
<g id="kvg:StrokePaths_053d8" style="fill:none;stroke:#000000;stroke-width:3;stroke-linecap:round;stroke-linejoin:round;">
<g id="kvg:053d8" kvg:element="变">
	<g id="kvg:053d8-g1" kvg:element="亦" kvg:position="top">
		<g id="kvg:053d8-g2" kvg:element="亠" kvg:position="top" kvg:radical="nelson">
			<path id="kvg:053d8-s1" kvg:type="㇑a" d="M52.66,9.5c0.92,0.92,1.45,2.38,1.45,3.89c0,3.35-0.13,5.74-0.13,8.29"/>
			<path id="kvg:053d8-s2" kvg:type="㇐" d="M20.95,24.73c2.69,0.52,6.82,0.38,8.83,0.16c17.81-1.89,36.83-3.93,53.73-4.3c3.42-0.07,5.17,0.04,7.72,0.53"/>
		</g>
		<g id="kvg:053d8-g3" kvg:position="bottom">
			<g id="kvg:053d8-g4" kvg:element="丿">
				<path id="kvg:053d8-s3" kvg:type="㇒" d="m45.19 26.5c0.4 0.7 0.51 1.67 0.37 2.54c-1.16 6.67 -3.96 16.77 -12.28 22.57"/>
			</g>
			<g id="kvg:053d8-g5" kvg:element="亅">
				<path id="kvg:053d8-s4" kvg:type="㇚" d="M60.62,23.65c0.99,0.99,1.34,2.23,1.34,3.78c0,3.32,0.02,14.9,0.02,18.64c0,7.83-5.53,1.38-6.89,0.44"/>
			</g>
			<path id="kvg:053d8-s5" kvg:type="㇒" d="M31.36,34.32c0.02,0.8-0.01,1.64-0.33,2.22c-2.44,4.46-7,10.42-13.78,15.96"/>
			<path id="kvg:053d8-s6" kvg:type="㇔" d="M74.6,34.16c4.04,2.41,10.43,9.92,11.44,13.67"/>
		</g>
	</g>
	<g id="kvg:053d8-g6" kvg:element="又" kvg:position="bottom" kvg:radical="general">
		<path id="kvg:053d8-s7" kvg:type="㇇" d="m27.5 60c2 0.25 4.5 0.38 8.5 0s31.76 -3.37 34.5 -3.75s5.06 1.01 4 2.38c-12.12 15.63 -31.12 28.5 -58 35.88"/>
		<path id="kvg:053d8-s8" kvg:type="㇏" d="m24.5 66.5c5.9 0.56 30.78 13.71 52.7 21.79c4.76 1.76 9.72 3.55 15.3 4.59"/>
	</g>
</g>
</g>
<g id="kvg:StrokeNumbers_053d8" style="font-size:8;fill:#808080">
	<text transform="matrix(1 0 0 1 42.50 12.50)">1</text>
	<text transform="matrix(1 0 0 1 10.50 29.50)">2</text>
	<text transform="matrix(1 0 0 1 37.50 32.50)">3</text>
	<text transform="matrix(1 0 0 1 54.75 31.63)">4</text>
	<text transform="matrix(1 0 0 1 22.25 35.50)">5</text>
	<text transform="matrix(1 0 0 1 69.50 31.76)">6</text>
	<text transform="matrix(1 0 0 1 21.75 60.13)">7</text>
	<text transform="matrix(1 0 0 1 20.25 75.63)">8</text>
</g>
</svg>
