<?xml version="1.0" encoding="UTF-8"?>
<!--
Copyright (C) 2009/2010/2011 Ulrich Apel.
Stroke order modified by François Mizessyn.
This work is distributed under the conditions of the Creative Commons
Attribution-Share Alike 3.0 Licence. This means you are free:
* to Share - to copy, distribute and transmit the work
* to Remix - to adapt the work

Under the following conditions:
* Attribution. You must attribute the work by stating your use of KanjiVG in
  your own copyright header and linking to KanjiVG's website
  (http://kanjivg.tagaini.net)
* Share Alike. If you alter, transform, or build upon this work, you may
  distribute the resulting work only under the same or similar license to this
  one.

See http://creativecommons.org/licenses/by-sa/3.0/ for more details.
-->
<!DOCTYPE svg PUBLIC "-//W3C//DTD SVG 1.0//EN" "http://www.w3.org/TR/2001/REC-SVG-20010904/DTD/svg10.dtd" [
<!ATTLIST g
xmlns:kvg CDATA #FIXED "http://kanjivg.tagaini.net"
kvg:element CDATA #IMPLIED
kvg:variant CDATA #IMPLIED
kvg:partial CDATA #IMPLIED
kvg:original CDATA #IMPLIED
kvg:part CDATA #IMPLIED
kvg:number CDATA #IMPLIED
kvg:tradForm CDATA #IMPLIED
kvg:radicalForm CDATA #IMPLIED
kvg:position CDATA #IMPLIED
kvg:radical CDATA #IMPLIED
kvg:phon CDATA #IMPLIED >
<!ATTLIST path
xmlns:kvg CDATA #FIXED "http://kanjivg.tagaini.net"
kvg:type CDATA #IMPLIED >
]>
<svg xmlns="http://www.w3.org/2000/svg" width="109" height="109" viewBox="0 0 109 109">
<g id="kvg:StrokePaths_053e6" style="fill:none;stroke:#000000;stroke-width:3;stroke-linecap:round;stroke-linejoin:round;">
<g id="kvg:053e6" kvg:element="另">
	<g id="kvg:053e6-g1" kvg:element="口" kvg:position="top" kvg:radical="general">
		<path id="kvg:053e6-s1" kvg:type="㇑" d="M28.71,19.08c0.89,0.59,1.45,1.4,1.68,2.42c1.36,4.62,2.71,9.67,4.11,16.5c0.28,1.37,0.56,2.78,0.84,4.21"/>
		<path id="kvg:053e6-s2" kvg:type="㇕b" d="M31.03,20.45c11.23-1.56,33.93-4,41.99-4.79c3.06-0.3,5.53,0.85,4.56,4.26c-1.28,4.5-3.05,8.27-5.72,14.96"/>
		<path id="kvg:053e6-s3" kvg:type="㇐b" d="M35.83,39.33c7.17-0.95,22.87-2.46,33.41-3.41c1.85-0.17,3.51-0.31,4.89-0.4"/>
	</g>
	<g id="kvg:053e6-g2" kvg:element="力" kvg:position="bottom">
		<path id="kvg:053e6-s6" kvg:type="㇆" d="M19.98,60.98c2.15,0.67,4.58,0.78,6.77,0.53c13.46-1.53,42.24-5.66,51.88-6.86c5.26-0.66,6.86,1.04,5.72,6.27c-1.92,8.83-9,27.39-15.66,33.19c-5.11,4.45-7.44,2.14-9.69-0.86"/>
		<path id="kvg:053e6-s7" kvg:type="㇒" d="M53.22,46.43c0.28,1.32,0.29,3.04-0.2,4.57C49.12,63.12,38,81.25,17.14,92.06"/>
	</g>
</g>
</g>
<g id="kvg:StrokeNumbers_053e6" style="font-size:8;fill:#808080">
	<text transform="matrix(1 0 0 1 19.75 25.50)">1</text>
	<text transform="matrix(1 0 0 1 32.25 16.63)">2</text>
	<text transform="matrix(1 0 0 1 36.50 35.55)">3</text>
	<text transform="matrix(1 0 0 1 9.50 63.50)">4</text>
	<text transform="matrix(1 0 0 1 41.50 52.50)">5</text>
</g>
</svg>
