<?xml version="1.0" encoding="UTF-8"?>
<!--
Copyright (C) 2016 François Mizessyn.
This work makes an extensive use of kanjiVG Copyright (C) 2009/2010/2011 Ulrich Apel.
This work is distributed under the conditions of the Creative Commons
Attribution-Share Alike 3.0 Licence. This means you are free:
* to Share - to copy, distribute and transmit the work
* to Remix - to adapt the work

Under the following conditions:
* Attribution. You must attribute the work by stating your use of HanjiVG in
  your own copyright header and linking to HanjiVG's website
  (http://gooo.free.fr/hanziVG/)
* Attribution. You must attribute the work by stating your use of KanjiVG in
  your own copyright header and linking to KanjiVG's website
  (http://kanjivg.tagaini.net)
* Share Alike. If you alter, transform, or build upon this work, you may
  distribute the resulting work only under the same or similar license to this
  one.

See http://creativecommons.org/licenses/by-sa/3.0/ for more details.
-->
<!DOCTYPE svg PUBLIC "-//W3C//DTD SVG 1.0//EN" "http://www.w3.org/TR/2001/REC-SVG-20010904/DTD/svg10.dtd" [
<!ATTLIST g
xmlns:kvg CDATA #FIXED "http://kanjivg.tagaini.net"
kvg:element CDATA #IMPLIED
kvg:variant CDATA #IMPLIED
kvg:partial CDATA #IMPLIED
kvg:original CDATA #IMPLIED
kvg:part CDATA #IMPLIED
kvg:number CDATA #IMPLIED
kvg:tradForm CDATA #IMPLIED
kvg:radicalForm CDATA #IMPLIED
kvg:position CDATA #IMPLIED
kvg:radical CDATA #IMPLIED
kvg:phon CDATA #IMPLIED >
<!ATTLIST path
xmlns:kvg CDATA #FIXED "http://kanjivg.tagaini.net"
kvg:type CDATA #IMPLIED >
]>
<svg xmlns="http://www.w3.org/2000/svg" width="109" height="109" viewBox="0 0 109 109">
<g id="kvg:StrokePaths_05417" style="fill:none;stroke:#000000;stroke-width:3;stroke-linecap:round;stroke-linejoin:round;">
<g id="kvg:05417" kvg:element="吗">
	<g id="kvg:05417-g1" kvg:element="口" kvg:position="left" kvg:radical="general">
		<path id="kvg:05417-s1" kvg:type="㇑" d="M13.25,32.79c0.37,0.51,0.76,0.94,0.92,1.58c1.29,5.07,3.34,19.04,4.23,28.13"/>
		<path id="kvg:05417-s2" kvg:type="㇕b" d="M15.58,35.22C25,33,33.12,32.16,37.49,31.49c1.6-0.24,2.56,1.44,2.33,2.87c-0.95,5.92-3.05,15.57-4.46,23.75"/>
		<path id="kvg:05417-s3" kvg:type="㇐b" d="M18.57,60.05c5.14-0.75,11.83-1.05,18.89-2.21"/>
	</g>
	<g id="kvg:05417-g2" kvg:element="马" kvg:position="right">
		<path kvg:type="㇕" id="kvg:05417-s4" d="M50.94 18.6C52.53 18.48 76.3 14.4 77.85 14.4C80.14 14.4 81.27 16.38 81.06 18.33C80.93 19.51 79.34 27.62 77.65 41.38"/>
		<path kvg:type="㇉" id="kvg:05417-s5" d="M52.56 18.98C52.89 19.42 53.25 21.74 53.25 22.47C53.22 29.8 53.12 59.02 52.86 57.08C63.36 55.15 85.58 52.34 91.4 51.75C95.18 51.37 96.81 52.7 96.41 57.04C94.99 72.29 91.94 83.51 89.57 89.56C85.46 100.06 83.69 96.13 79.87 90.03"/>
		<path kvg:type="㇐b" id="kvg:05417-s6" d="M47.45 73.86C56.57 72.96 77.88 70.31 81.8 69.75C83.16 69.57 85.48 69.39 86.17 69.64"/>
	</g>
</g>
</g>
<g id="kvg:StrokeNumbers_05417" style="font-size:8;fill:#808080">
	<text transform="matrix(1 0 0 1 5.50 40.50)">1</text>
	<text transform="matrix(1 0 0 1 15.50 30.50)">2</text>
	<text transform="matrix(1 0 0 1 19.50 56.35)">3</text>
	<text transform="matrix(1 0 0 1 53.50 14.50)">4</text>
	<text transform="matrix(1 0 0 1 41.50 26.50)">5</text>
	<text transform="matrix(1 0 0 1 43.50 70.95)">6</text>
</g>
</svg>
