<?xml version="1.0" encoding="UTF-8"?>
<!--
Copyright (C) 2016 François Mizessyn.
This work makes an extensive use of kanjiVG Copyright (C) 2009/2010/2011 Ulrich Apel.
This work is distributed under the conditions of the Creative Commons
Attribution-Share Alike 3.0 Licence. This means you are free:
* to Share - to copy, distribute and transmit the work
* to Remix - to adapt the work

Under the following conditions:
* Attribution. You must attribute the work by stating your use of HanjiVG in
  your own copyright header and linking to HanjiVG's website
  (http://gooo.free.fr/hanziVG/)
* Attribution. You must attribute the work by stating your use of KanjiVG in
  your own copyright header and linking to KanjiVG's website
  (http://kanjivg.tagaini.net)
* Share Alike. If you alter, transform, or build upon this work, you may
  distribute the resulting work only under the same or similar license to this
  one.

See http://creativecommons.org/licenses/by-sa/3.0/ for more details.
-->
<!DOCTYPE svg PUBLIC "-//W3C//DTD SVG 1.0//EN" "http://www.w3.org/TR/2001/REC-SVG-20010904/DTD/svg10.dtd" [
<!ATTLIST g
xmlns:kvg CDATA #FIXED "http://kanjivg.tagaini.net"
kvg:element CDATA #IMPLIED
kvg:variant CDATA #IMPLIED
kvg:partial CDATA #IMPLIED
kvg:original CDATA #IMPLIED
kvg:part CDATA #IMPLIED
kvg:number CDATA #IMPLIED
kvg:tradForm CDATA #IMPLIED
kvg:radicalForm CDATA #IMPLIED
kvg:position CDATA #IMPLIED
kvg:radical CDATA #IMPLIED
kvg:phon CDATA #IMPLIED >
<!ATTLIST path
xmlns:kvg CDATA #FIXED "http://kanjivg.tagaini.net"
kvg:type CDATA #IMPLIED >
]>
<svg xmlns="http://www.w3.org/2000/svg" width="109" height="109" viewBox="0 0 109 109">
<g id="kvg:StrokePaths_05427" style="fill:none;stroke:#000000;stroke-width:3;stroke-linecap:round;stroke-linejoin:round;">
<g id="kvg:05427" kvg:element="吧">
	<g id="kvg:05427-g1" kvg:element="口" kvg:position="left" kvg:radical="general">
		<path id="kvg:05427-s1" kvg:type="㇑" d="M13.25,32.79c0.37,0.51,0.76,0.94,0.92,1.58c1.29,5.07,3.34,19.04,4.23,28.13"/>
		<path id="kvg:05427-s2" kvg:type="㇕b" d="M15.58,35.22C25,33,33.12,32.16,37.49,31.49c1.6-0.24,2.56,1.44,2.33,2.87c-0.95,5.92-3.05,15.57-4.46,23.75"/>
		<path id="kvg:05427-s3" kvg:type="㇐b" d="M18.57,60.05c5.14-0.75,11.83-1.05,18.89-2.21"/>
	</g>
	<g id="kvg:05427-g2" kvg:element="巴" kvg:position="right" kvg:phon="巴">
		<g id="kvg:05427-g3" kvg:element="己" kvg:part="1" kvg:original="巳">
		</g>
		<g id="kvg:05427-g4" kvg:element="己" kvg:part="2" kvg:original="巳">
			<path id="kvg:05427-s4" kvg:type="㇕" d="m48.25 22.46c1.23 0.97 3.4 0.83 4.77 0.65c9.32 -1.2 26.86 -3.41 34.07 -4.06c3.34 -0.31 4.91 2.04 4.66 4.27c-0.83 7.28 -1.28 13.32 -2.68 22.15c-0.26 1.63 -0.55 3.34 -0.87 5.19"/>
			<path id="kvg:05427-s5" kvg:type="㇑a" d="m68.45 23.26c0.96 1 1.05 2.08 0.97 3.78c-0.39 7.38 -0.65 15.21 -0.89 20.78"/>
			<path id="kvg:05427-s6" kvg:type="㇐a" d="m51.95 50.95c6.7 -0.59 28.54 -2.46 35.05 -2.77"/>
			<path id="kvg:05427-s7" kvg:type="㇟" d="m49.63 24.03c0.81 0.85 1.08 2 1.08 3.75c0 9.49 -0.03 35.83 -0.03 42.24c0 21.93 1.54 22.75 22.07 22.75c21.22 0 21.56 -2.11 21.56 -13.66"/>
		</g>
	</g>
</g>
</g>
<g id="kvg:StrokeNumbers_05427" style="font-size:8;fill:#808080">
	<text transform="matrix(1 0 0 1 3.50 40.50)">1</text>
	<text transform="matrix(1 0 0 1 14.50 29.50)">2</text>
	<text transform="matrix(1 0 0 1 19.50 56.35)">3</text>
	<text transform="matrix(1 0 0 1 46.75 19.50)">4</text>
	<text transform="matrix(1 0 0 1 63.75 17.50)">5</text>
	<text transform="matrix(1 0 0 1 52.75 48.05)">6</text>
	<text transform="matrix(1 0 0 1 38.75 29.50)">7</text>
</g>
</svg>
