<?xml version="1.0" encoding="UTF-8" standalone="no"?>
<!--
Copyright (C) 2016 François Mizessyn.
This work makes an extensive use of kanjiVG Copyright (C) 2009/2010/2011 Ulrich Apel.
This work is distributed under the conditions of the Creative Commons
Attribution-Share Alike 3.0 Licence. This means you are free:
* to Share - to copy, distribute and transmit the work
* to Remix - to adapt the work

Under the following conditions:
* Attribution. You must attribute the work by stating your use of HanjiVG in
  your own copyright header and linking to HanjiVG's website
  (http://gooo.free.fr/hanziVG/)
* Attribution. You must attribute the work by stating your use of KanjiVG in
  your own copyright header and linking to KanjiVG's website
  (http://kanjivg.tagaini.net)
* Share Alike. If you alter, transform, or build upon this work, you may
  distribute the resulting work only under the same or similar license to this
  one.

See http://creativecommons.org/licenses/by-sa/3.0/ for more details.
-->
<!DOCTYPE svg PUBLIC "-//W3C//DTD SVG 1.0//EN" "http://www.w3.org/TR/2001/REC-SVG-20010904/DTD/svg10.dtd" [
<!ATTLIST g
xmlns:kvg CDATA #FIXED "http://kanjivg.tagaini.net"
kvg:element CDATA #IMPLIED
kvg:variant CDATA #IMPLIED
kvg:partial CDATA #IMPLIED
kvg:original CDATA #IMPLIED
kvg:part CDATA #IMPLIED
kvg:number CDATA #IMPLIED
kvg:tradForm CDATA #IMPLIED
kvg:radicalForm CDATA #IMPLIED
kvg:position CDATA #IMPLIED
kvg:radical CDATA #IMPLIED
kvg:phon CDATA #IMPLIED >
<!ATTLIST path
xmlns:kvg CDATA #FIXED "http://kanjivg.tagaini.net"
kvg:type CDATA #IMPLIED >
]>
<svg xmlns="http://www.w3.org/2000/svg" width="109" height="109" viewBox="0 0 109 109">
<g id="kvg:StrokePaths_05458" style="fill:none;stroke:#000000;stroke-width:3;stroke-linecap:round;stroke-linejoin:round;">
<g id="kvg:05458" kvg:element="员">
	<g id="kvg:05458-g1" kvg:element="口" kvg:position="top" kvg:radical="general">
		<path id="kvg:05458-s1" kvg:type="㇑" d="m24.75 18.1c0.63 0.41 1.27 0.74 1.54 1.25c0.16 0.29 0.36 0.61 0.47 0.97c1.43 4.59 3.26 10.78 4.65 16.45c0.42 1.71 0.8 3.38 1.12 4.93"/>
		<path id="kvg:05458-s2" kvg:type="㇕b" d="m27.52 19.45c18.68 -1.45 39.17 -2.86 49.37 -3.45c4.42 -0.25 6.95 0.52 5.84 3.69c-1.67 4.81 -3.48 10.79 -5.17 16.11"/>
		<path id="kvg:05458-s3" kvg:type="㇐b" d="m33.16 39.23c9.14 -0.49 25.38 -1.49 39.33 -2.34c2.97 -0.18 5.85 -0.36 8.52 -0.52"/>
	</g>
	<g id="kvg:05458-g2" kvg:element="贝" kvg:position="bottom">
		<g id="kvg:05458-g3" kvg:element="冂" kvg:variant="true" kvg:radical="general">
			<path id="kvg:05458-s4" kvg:type="㇑" d="m24.83 50.57c0.92 0.6 1.42 1.34 0.66 0.75c1.53 4.55 3 11.63 3.16 18.39c0.16 0.94 0.3 1.84 0.46 9.23"/>
			<path id="kvg:05458-s5" kvg:type="㇕" d="m25.51 51.33c15.08 -0.96 37.74 -2.85 53.76 -3.3c4.06 -0.13 6.23 0.94 5.9 2.77c-0.86 4.69 -2.71 11.23 -3.09 17.17c-0.38 0.95 -0.76 3.83 -1.16 9.32"/>
		</g>
		<g id="kvg:05458-g4" kvg:element="人" kvg:position="bottom" kvg:radical="general">
			<path id="kvg:05458-s6" kvg:type="㇒" d="m56.5 61.7c0.37 1.07 0.23 2.03 -0.22 3.16c-2.6 6.66 -16.03 23.18 -37.78 30.74"/>
			<path id="kvg:05458-s7" kvg:type="㇏" d="m48 78.96c6.12 3.02 25.51 11.21 35.52 14.99c3.66 1.37 6.94 2.33 11.48 2.78"/>
		</g>
	</g>
</g>
</g>
<g id="kvg:StrokeNumbers_05458" style="font-size:8;fill:#808080">
	<text transform="matrix(1 0 0 1 17.50 30.50)">1</text>
	<text transform="matrix(1 0 0 1 22.50 14.50)">2</text>
	<text transform="matrix(1 0 0 1 34.50 33.55)">3</text>
	<text transform="matrix(1 0 0 1 13.50 56.50)">4</text>
	<text transform="matrix(1 0 0 1 20.50 47.50)">5</text>
	<text transform="matrix(1 0 0 1 45.50 65.50)">6</text>
	<text transform="matrix(1 0 0 1 56.50 78.50)">7</text>
</g>
</svg>
