<?xml version="1.0" encoding="UTF-8"?>
<!--
Copyright (C) 2016 François Mizessyn.
This work makes an extensive use of kanjiVG Copyright (C) 2009/2010/2011 Ulrich Apel.
This work is distributed under the conditions of the Creative Commons
Attribution-Share Alike 3.0 Licence. This means you are free:
* to Share - to copy, distribute and transmit the work
* to Remix - to adapt the work

Under the following conditions:
* Attribution. You must attribute the work by stating your use of HanjiVG in
  your own copyright header and linking to HanjiVG's website
  (http://gooo.free.fr/hanziVG/)
* Attribution. You must attribute the work by stating your use of KanjiVG in
  your own copyright header and linking to KanjiVG's website
  (http://kanjivg.tagaini.net)
* Share Alike. If you alter, transform, or build upon this work, you may
  distribute the resulting work only under the same or similar license to this
  one.

See http://creativecommons.org/licenses/by-sa/3.0/ for more details.
-->
<!DOCTYPE svg PUBLIC "-//W3C//DTD SVG 1.0//EN" "http://www.w3.org/TR/2001/REC-SVG-20010904/DTD/svg10.dtd" [
<!ATTLIST g
xmlns:kvg CDATA #FIXED "http://kanjivg.tagaini.net"
kvg:element CDATA #IMPLIED
kvg:variant CDATA #IMPLIED
kvg:partial CDATA #IMPLIED
kvg:original CDATA #IMPLIED
kvg:part CDATA #IMPLIED
kvg:number CDATA #IMPLIED
kvg:tradForm CDATA #IMPLIED
kvg:radicalForm CDATA #IMPLIED
kvg:position CDATA #IMPLIED
kvg:radical CDATA #IMPLIED
kvg:phon CDATA #IMPLIED >
<!ATTLIST path
xmlns:kvg CDATA #FIXED "http://kanjivg.tagaini.net"
kvg:type CDATA #IMPLIED >
]>
<svg xmlns="http://www.w3.org/2000/svg" width="109" height="109" viewBox="0 0 109 109">
<g id="kvg:StrokePaths_05496" style="fill:none;stroke:#000000;stroke-width:3;stroke-linecap:round;stroke-linejoin:round;">
<g id="kvg:05496" kvg:element="咖">
	<g id="kvg:05496-g1" kvg:element="口" kvg:position="right">
		<path id="kvg:05496-s1" kvg:type="㇑" d="m12 38.32c0.6 0.85 1.04 2.02 1.13 2.89c0.71 7.12 1.48 20.88 2.18 33.28c0.09 1.6 0.18 3.18 0.27 4.72"/>
		<path id="kvg:05496-s2" kvg:type="㇕b" d="m13.35 39.93c6.63 -1.3 12.75 -2.58 16.86 -3.27c3.24 -0.54 4.7 1.58 4.21 6.72c-0.99 10.17 -1.86 16.65 -2.97 29.71"/>
		<path id="kvg:05496-s3" kvg:type="㇐b" d="m15.34 76.16c4.56 -0.58 8.58 -0.97 14.14 -1.68c0.78 -0.1 1.6 -0.2 2.44 -0.3"/>
	</g>
	<g id="kvg:05496-g2" kvg:element="加" kvg:position="right">
		<g id="kvg:05496-g3" kvg:element="力" kvg:position="left">
			<path id="kvg:05496-s4" kvg:type="㇆" d="M41.47,41.17c1.1,0.69,3.26,0.45,4.01,0.36c6.27-0.78,15.55-2.48,18.79-3.16c2.11-0.45,3.65,0.62,3.53,3.76c-0.31,8.27-5.75,36.84-10.01,46.95c-3.48,8.27-5.74,0.77-6.6-0.21"/>
			<path id="kvg:05496-s5" kvg:type="㇒" d="M54.18,15.68c0.19,0.43,0.76,2.31,0.66,4.46C53.94,40.13,51.75,79,35.65,93.39"/>
		</g>
		<g id="kvg:05496-g4" kvg:element="口" kvg:position="right">
			<path id="kvg:05496-s6" kvg:type="㇑" d="m74 42.32c0.6 0.85 1.04 2.02 1.13 2.89c0.71 7.12 1.48 20.88 2.18 33.28c0.09 1.6 0.18 3.18 0.27 4.72"/>
			<path id="kvg:05496-s7" kvg:type="㇕b" d="m75.35 43.93c6.63 -1.3 12.75 -2.58 16.86 -3.27c3.24 -0.54 4.7 1.58 4.21 6.72c-0.99 10.17 -1.86 16.65 -2.97 29.71"/>
			<path id="kvg:05496-s8" kvg:type="㇐b" d="m78.34 80.16c4.56 -0.58 8.58 -0.97 14.14 -1.68c0.78 -0.1 1.6 -0.2 2.44 -0.3"/>
		</g>
	</g>
</g>
</g>
<g id="kvg:StrokeNumbers_05496" style="font-size:8;fill:#808080">
	<text transform="matrix(1 0 0 1 2.50 49.50)">1</text>
	<text transform="matrix(1 0 0 1 12.25 35.50)">2</text>
	<text transform="matrix(1 0 0 1 16.50 72.50)">3</text>
	<text transform="matrix(1 0 0 1 42.50 38.50)">4</text>
	<text transform="matrix(1 0 0 1 45.50 15.50)">5</text>
	<text transform="matrix(1 0 0 1 63.50 49.50)">6</text>
	<text transform="matrix(1 0 0 1 73.25 40.50)">7</text>
	<text transform="matrix(1 0 0 1 78.50 76.50)">8</text>
</g>
</svg>
