<?xml version="1.0" encoding="UTF-8"?>
<!--
Copyright (C) 2016 François Mizessyn.
This work makes an extensive use of kanjiVG Copyright (C) 2009/2010/2011 Ulrich Apel.
This work is distributed under the conditions of the Creative Commons
Attribution-Share Alike 3.0 Licence. This means you are free:
* to Share - to copy, distribute and transmit the work
* to Remix - to adapt the work

Under the following conditions:
* Attribution. You must attribute the work by stating your use of HanjiVG in
  your own copyright header and linking to HanjiVG's website
  (http://gooo.free.fr/hanziVG/)
* Attribution. You must attribute the work by stating your use of KanjiVG in
  your own copyright header and linking to KanjiVG's website
  (http://kanjivg.tagaini.net)
* Share Alike. If you alter, transform, or build upon this work, you may
  distribute the resulting work only under the same or similar license to this
  one.

See http://creativecommons.org/licenses/by-sa/3.0/ for more details.
-->
<!DOCTYPE svg PUBLIC "-//W3C//DTD SVG 1.0//EN" "http://www.w3.org/TR/2001/REC-SVG-20010904/DTD/svg10.dtd" [
<!ATTLIST g
xmlns:kvg CDATA #FIXED "http://kanjivg.tagaini.net"
kvg:element CDATA #IMPLIED
kvg:variant CDATA #IMPLIED
kvg:partial CDATA #IMPLIED
kvg:original CDATA #IMPLIED
kvg:part CDATA #IMPLIED
kvg:number CDATA #IMPLIED
kvg:tradForm CDATA #IMPLIED
kvg:radicalForm CDATA #IMPLIED
kvg:position CDATA #IMPLIED
kvg:radical CDATA #IMPLIED
kvg:phon CDATA #IMPLIED >
<!ATTLIST path
xmlns:kvg CDATA #FIXED "http://kanjivg.tagaini.net"
kvg:type CDATA #IMPLIED >
]>
<svg xmlns="http://www.w3.org/2000/svg" width="109" height="109" viewBox="0 0 109 109">
<g id="kvg:StrokePaths_054b1" style="fill:none;stroke:#000000;stroke-width:3;stroke-linecap:round;stroke-linejoin:round;">
<g id="kvg:054b1" kvg:element="咱">
	<g id="kvg:054b1-g1" kvg:element="口" kvg:position="left" kvg:radical="general">
		<path id="kvg:054b1-s1" kvg:type="㇑" d="M13.25,32.79c0.37,0.51,0.76,0.94,0.92,1.58c1.29,5.07,3.34,19.04,4.23,28.13"/>
		<path id="kvg:054b1-s2" kvg:type="㇕b" d="M15.58,35.22C25,33,33.12,32.16,37.49,31.49c1.6-0.24,2.56,1.44,2.33,2.87c-0.95,5.92-3.05,15.57-4.46,23.75"/>
		<path id="kvg:054b1-s3" kvg:type="㇐b" d="M18.57,60.05c5.14-0.75,11.83-1.05,18.89-2.21"/>
	</g>
	<g id="kvg:054b1-g2" kvg:element="自" kvg:position="right" kvg:radical="general">
		<path id="kvg:054b1-s4" kvg:type="㇒" d="m68.21 13.17c0.36 0.2 -0.33 3.56 -0.55 4.15c-1.46 3.93 -2.96 9.27 -6.42 14.43"/>
		<g id="kvg:054b1-g3" kvg:element="目">
			<path id="kvg:054b1-s5" kvg:type="㇑" d="m50.25 32.23c0.6 1.43 1.49 2.49 1.49 4.39c0 1.9 -0.03 52.32 -0.03 53.28c0 0.95 0.05 2.85 0.03 4.85"/>
			<path id="kvg:054b1-s6" kvg:type="㇕a" d="m51.61 33.82c4.83 -1.07 30.5 -4.78 33.61 -5.07c2.59 -0.24 4.03 1.25 4.41 5.59c0.2 2.25 -0.64 32.01 -0.62 52.94c0 2.15 0 5.11 -0.2 6.52"/>
			<path id="kvg:054b1-s7" kvg:type="㇐a" d="m53.11 51.47c8.89 -0.43 17.75 -1.53 26.6 -2.41c2.69 -0.25 5.34 -0.51 7.88 -0.78"/>
			<path id="kvg:054b1-s8" kvg:type="㇐a" d="m53.11 71.46c8.7 -0.75 18.51 -2.51 27.17 -3.35c2.41 -0.21 4.8 -0.45 7.16 -0.64"/>
			<path id="kvg:054b1-s9" kvg:type="㇐a" d="m51.78 92.07c8.03 -0.57 26.46 -3.13 35.22 -3.13"/>
		</g>
	</g>
</g>
</g>
<g id="kvg:StrokeNumbers_054b1" style="font-size:8;fill:#808080">
	<text transform="matrix(1 0 0 1 5.50 40.50)">1</text>
	<text transform="matrix(1 0 0 1 15.50 30.50)">2</text>
	<text transform="matrix(1 0 0 1 19.50 56.35)">3</text>
	<text transform="matrix(1 0 0 1 56.50 14.50)">4</text>
	<text transform="matrix(1 0 0 1 40.50 41.50)">5</text>
	<text transform="matrix(1 0 0 1 48.50 29.95)">6</text>
	<text transform="matrix(1 0 0 1 54.50 48.95)">7</text>
	<text transform="matrix(1 0 0 1 54.50 68.95)">8</text>
	<text transform="matrix(1 0 0 1 54.50 88.95)">9</text>
</g>
</svg>
