<?xml version="1.0" encoding="UTF-8"?>
<!--
Copyright (C) 2016 François Mizessyn.
This work makes an extensive use of kanjiVG Copyright (C) 2009/2010/2011 Ulrich Apel.
This work is distributed under the conditions of the Creative Commons
Attribution-Share Alike 3.0 Licence. This means you are free:
* to Share - to copy, distribute and transmit the work
* to Remix - to adapt the work

Under the following conditions:
* Attribution. You must attribute the work by stating your use of HanjiVG in
  your own copyright header and linking to HanjiVG's website
  (http://gooo.free.fr/hanziVG/)
* Attribution. You must attribute the work by stating your use of KanjiVG in
  your own copyright header and linking to KanjiVG's website
  (http://kanjivg.tagaini.net)
* Share Alike. If you alter, transform, or build upon this work, you may
  distribute the resulting work only under the same or similar license to this
  one.

See http://creativecommons.org/licenses/by-sa/3.0/ for more details.
-->
<!DOCTYPE svg PUBLIC "-//W3C//DTD SVG 1.0//EN" "http://www.w3.org/TR/2001/REC-SVG-20010904/DTD/svg10.dtd" [
<!ATTLIST g
xmlns:kvg CDATA #FIXED "http://kanjivg.tagaini.net"
kvg:element CDATA #IMPLIED
kvg:variant CDATA #IMPLIED
kvg:partial CDATA #IMPLIED
kvg:original CDATA #IMPLIED
kvg:part CDATA #IMPLIED
kvg:number CDATA #IMPLIED
kvg:tradForm CDATA #IMPLIED
kvg:radicalForm CDATA #IMPLIED
kvg:position CDATA #IMPLIED
kvg:radical CDATA #IMPLIED
kvg:phon CDATA #IMPLIED >
<!ATTLIST path
xmlns:kvg CDATA #FIXED "http://kanjivg.tagaini.net"
kvg:type CDATA #IMPLIED >
]>
<svg xmlns="http://www.w3.org/2000/svg" width="109" height="109" viewBox="0 0 109 109">
<g id="kvg:StrokePaths_054cd" style="fill:none;stroke:#000000;stroke-width:3;stroke-linecap:round;stroke-linejoin:round;">
<g id="kvg:054cd" kvg:element="响">
	<g id="kvg:054cd-g1" kvg:element="口">
		<path id="kvg:054cd-s1" kvg:type="㇑" d="m13.09 39.36c0.4 0.57 0.94 2.51 0.99 3.28c0.59 9.24 3.08 15.82 3.54 27.25"/>
		<path id="kvg:054cd-s2" kvg:type="㇕b" d="m14.54 40.66c7.96 -1.66 14.99 -2.64 20.99 -3.95c1.52 -0.34 3.74 1.26 3.52 2.61c-0.91 5.62 -2.44 15.93 -3.3 23.57"/>
		<path id="kvg:054cd-s3" kvg:type="㇐b" d="m18.24 65.99c4.9 -0.72 12.47 -1.3 19.2 -2.39"/>
	</g>
	<g id="kvg:054cd-g2" kvg:element="向">
		<g id="kvg:054cd-g3" kvg:element="丿">
			<path id="kvg:054cd-s4" kvg:type="㇒" d="m67.77 14.64c0.04 0.53 0.08 1.37 -0.07 2.14c-0.88 4.5 -5.9 11.15 -13.8 20.44"/>
		</g>
		<g id="kvg:054cd-g4" kvg:element="冂">
			<path id="kvg:054cd-s5" kvg:type="㇑" d="m47.25 38.25c0.47 0.75 0.87 2.03 0.94 3.39c0.29 5.61 -0.14 41.86 0.06 53.61"/>
			<path id="kvg:054cd-s6" kvg:type="㇆a" d="m48.54 40.35c5.99 -0.6 36.59 -4.92 37.71 -5.18c1.8 -0.42 4.02 0.05 3.97 3.83c-0.14 9.76 -0.8 44.28 -2.75 53.03c-1.22 5.48 -5.47 1.23 -7.09 -1.52"/>
		</g>
		<g id="kvg:054cd-g5" kvg:element="口">
			<path id="kvg:054cd-s7" kvg:type="㇑" d="m57.76 55.28c0.31 0.44 0.72 1.93 0.76 2.52c0.45 7.11 2.37 12.17 2.72 20.96"/>
			<path id="kvg:054cd-s8" kvg:type="㇕b" d="m58.88 56.28c6.12 -1.28 11.53 -2.03 16.15 -3.04c1.17 -0.26 2.88 0.97 2.71 2.01c-0.7 4.32 -1.88 12.25 -2.54 18.13"/>
			<path id="kvg:054cd-s9" kvg:type="㇐b" d="m61.72 75.76c3.77 -0.55 9.59 -1 14.77 -1.84"/>
		</g>
	</g>
</g>
</g>
<g id="kvg:StrokeNumbers_054cd" style="font-size:8;fill:#808080">
	<text transform="matrix(1 0 0 1 3.50 43.50)">1</text>
	<text transform="matrix(1 0 0 1 12.50 36.50)">2</text>
	<text transform="matrix(1 0 0 1 5.50 68.50)">3</text>
	<text transform="matrix(1 0 0 1 58.25 13.95)">4</text>
	<text transform="matrix(1 0 0 1 37.50 48.58)">5</text>
	<text transform="matrix(1 0 0 1 44.50 35.50)">6</text>
	<text transform="matrix(1 0 0 1 48.50 62.50)">7</text>
	<text transform="matrix(1 0 0 1 56.50 52.50)">8</text>
	<text transform="matrix(1 0 0 1 61.50 72.50)">9</text>
</g>
</svg>
