<?xml version="1.0" encoding="UTF-8"?>
<!--
Copyright (C) 2009/2010/2011 Ulrich Apel.
Glyph modified by François Mizessyn.
This work is distributed under the conditions of the Creative Commons
Attribution-Share Alike 3.0 Licence. This means you are free:
* to Share - to copy, distribute and transmit the work
* to Remix - to adapt the work

Under the following conditions:
* Attribution. You must attribute the work by stating your use of KanjiVG in
  your own copyright header and linking to KanjiVG's website
  (http://kanjivg.tagaini.net)
* Share Alike. If you alter, transform, or build upon this work, you may
  distribute the resulting work only under the same or similar license to this
  one.

See http://creativecommons.org/licenses/by-sa/3.0/ for more details.
-->
<!DOCTYPE svg PUBLIC "-//W3C//DTD SVG 1.0//EN" "http://www.w3.org/TR/2001/REC-SVG-20010904/DTD/svg10.dtd" [
<!ATTLIST g
xmlns:kvg CDATA #FIXED "http://kanjivg.tagaini.net"
kvg:element CDATA #IMPLIED
kvg:variant CDATA #IMPLIED
kvg:partial CDATA #IMPLIED
kvg:original CDATA #IMPLIED
kvg:part CDATA #IMPLIED
kvg:number CDATA #IMPLIED
kvg:tradForm CDATA #IMPLIED
kvg:radicalForm CDATA #IMPLIED
kvg:position CDATA #IMPLIED
kvg:radical CDATA #IMPLIED
kvg:phon CDATA #IMPLIED >
<!ATTLIST path
xmlns:kvg CDATA #FIXED "http://kanjivg.tagaini.net"
kvg:type CDATA #IMPLIED >
]>
<svg xmlns="http://www.w3.org/2000/svg" width="109" height="109" viewBox="0 0 109 109">
<g id="kvg:StrokePaths_05533" style="fill:none;stroke:#000000;stroke-width:3;stroke-linecap:round;stroke-linejoin:round;">
<g id="kvg:05533" kvg:element="唳">
	<g id="kvg:05533-g1" kvg:element="口" kvg:position="left" kvg:radical="general">
		<path id="kvg:05533-s1" kvg:type="㇑" d="M11,34.57c0.35,0.45,1.22,1.83,1.37,2.39c1.23,4.46,2.7,16.77,3.54,24.79"/>
		<path id="kvg:05533-s2" kvg:type="㇕b" d="M12.21,36.22c8.94-1.96,15.77-3.14,19.91-3.73c1.52-0.21,2.43,1.27,2.21,2.53c-0.9,5.21-1.95,13.27-3.28,20.48"/>
		<path id="kvg:05533-s3" kvg:type="㇐b" d="M16.07,58.09c4.87-0.66,10.75-1.43,17.43-2.45"/>
	</g>
	<g id="kvg:05533-g2" kvg:element="戾" kvg:position="right">
		<g id="kvg:05533-g3" kvg:element="户">
			<path id="kvg:05533-s4" kvg:type="㇔" d="m63.84 14.32c1.15 2.92 1.93 6.12 2.41 9.5"/>
			<g id="kvg:05533-g4" kvg:element="尸">
				<path id="kvg:05533-s5" kvg:type="㇕c" d="M43.2,29.35c1.05,0.39,2.64,1.09,4.7,0.81c10.72-1.46,31.26-3.79,37.97-4.49c1.82-0.19,3.65,1.3,2.96,4.17c-1.21,5.08-1.62,6.86-2.49,9.71"/>
				<path id="kvg:05533-s6" kvg:type="㇐b" d="M46.61,44.93c7.14-1.18,30.64-3.68,41.77-4.52"/>
				<path id="kvg:05533-s7" kvg:type="㇒" d="M45.97,30.75c0.04,1.41,0.3,3.62,0.31,5.65c0.13,25.56-2.53,41.6-15.07,54.1"/>
			</g>
		</g>
		<g id="kvg:05533-g5" kvg:element="犬">
			<g id="kvg:05533-g6" kvg:element="大">
				<path id="kvg:05533-s8" kvg:type="㇐" d="M49.84,61.29c0.75,0.4,2.75,0.86,4.34,0.69c10.76-1.19,23.78-3.56,33.44-4.13c1.66-0.1,3-0.05,4.5,0.26"/>
				<path id="kvg:05533-s9" kvg:type="㇒" d="M67.04,45.96c0.39,0.69,0.59,1.49,0.58,2.99c-0.19,25.91-9.56,39.58-24.97,47.54"/>
				<path id="kvg:05533-s10" kvg:type="㇏" d="M67.6,60.81c5.54,9.66,17.85,25.9,25.25,31c2.15,1.48,2.76,1.95,3.69,2.12"/>
			</g>
			<g id="kvg:05533-g7" kvg:element="丶">
				<path id="kvg:05533-s11" kvg:type="㇔" d="m81.68 47.16c2.29 1.46 3.86 3.06 4.82 4.75"/>
			</g>
		</g>
	</g>
</g>
</g>
<g id="kvg:StrokeNumbers_05533" style="font-size:8;fill:#808080">
	<text transform="matrix(1 0 0 1 5.50 42.50)">1</text>
	<text transform="matrix(1 0 0 1 13.50 32.50)">2</text>
	<text transform="matrix(1 0 0 1 18.50 54.50)">3</text>
	<text transform="matrix(1 0 0 1 62.50 13.50)">4</text>
	<text transform="matrix(1 0 0 1 47.50 29.50)">5</text>
	<text transform="matrix(1 0 0 1 50.50 43.50)">6</text>
	<text transform="matrix(1 0 0 1 38.50 39.50)">7</text>
	<text transform="matrix(1 0 0 1 50.50 60.60)">8</text>
	<text transform="matrix(1 0 0 1 59.50 54.50)">9</text>
	<text transform="matrix(1 0 0 1 74.50 70.50)">10</text>
	<text transform="matrix(1 0 0 1 74.50 50.50)">11</text>
</g>
</svg>
