<?xml version="1.0" encoding="UTF-8"?>
<!--
Copyright (C) 2016 François Mizessyn.
This work makes an extensive use of kanjiVG Copyright (C) 2009/2010/2011 Ulrich Apel.
This work is distributed under the conditions of the Creative Commons
Attribution-Share Alike 3.0 Licence. This means you are free:
* to Share - to copy, distribute and transmit the work
* to Remix - to adapt the work

Under the following conditions:
* Attribution. You must attribute the work by stating your use of HanjiVG in
  your own copyright header and linking to HanjiVG's website
  (http://gooo.free.fr/hanziVG/)
* Attribution. You must attribute the work by stating your use of KanjiVG in
  your own copyright header and linking to KanjiVG's website
  (http://kanjivg.tagaini.net)
* Share Alike. If you alter, transform, or build upon this work, you may
  distribute the resulting work only under the same or similar license to this
  one.

See http://creativecommons.org/licenses/by-sa/3.0/ for more details.
-->
<!DOCTYPE svg PUBLIC "-//W3C//DTD SVG 1.0//EN" "http://www.w3.org/TR/2001/REC-SVG-20010904/DTD/svg10.dtd" [
<!ATTLIST g
xmlns:kvg CDATA #FIXED "http://kanjivg.tagaini.net"
kvg:element CDATA #IMPLIED
kvg:variant CDATA #IMPLIED
kvg:partial CDATA #IMPLIED
kvg:original CDATA #IMPLIED
kvg:part CDATA #IMPLIED
kvg:number CDATA #IMPLIED
kvg:tradForm CDATA #IMPLIED
kvg:radicalForm CDATA #IMPLIED
kvg:position CDATA #IMPLIED
kvg:radical CDATA #IMPLIED
kvg:phon CDATA #IMPLIED >
<!ATTLIST path
xmlns:kvg CDATA #FIXED "http://kanjivg.tagaini.net"
kvg:type CDATA #IMPLIED >
]>
<svg xmlns="http://www.w3.org/2000/svg" width="109" height="109" viewBox="0 0 109 109">
<g id="kvg:StrokePaths_0554a" style="fill:none;stroke:#000000;stroke-width:3;stroke-linecap:round;stroke-linejoin:round;">
<g id="kvg:0554a" kvg:element="啊">
	<g id="kvg:0554a-g1" kvg:element="口" kvg:position="left" kvg:radical="general">
		<path id="kvg:0554a-s1" kvg:type="㇑" d="m11.25 32.79c0.37 0.51 0.76 0.94 0.92 1.58c1.29 5.07 3.34 19.04 4.23 28.13"/>
		<path id="kvg:0554a-s2" kvg:type="㇕b" d="m13.58 35.22c9.42 -2.22 17.54 -3.06 21.91 -3.73c1.6 -0.24 2.56 1.44 2.33 2.87c-0.95 5.92 -3.05 15.57 -4.46 23.75"/>
		<path id="kvg:0554a-s3" kvg:type="㇐b" d="m16.57 60.05c5.14 -0.75 11.83 -1.05 18.89 -2.21"/>
	</g>
	<g id="kvg:0554a-g2" kvg:element="阿" kvg:position="right">
		<g id="kvg:0554a-g3" kvg:element="⻖" kvg:variant="true" kvg:original="阜" kvg:position="left">
			<path id="kvg:0554a-s4" kvg:type="㇇" d="m42.13 17.06c0.88 0.22 1.88 0.79 2.92 0.49c6.18 -1.8 11.61 -4.75 13.8 -5.66c2.62 -1.09 3.47 2.43 2.58 5.33c-1.66 5.36 -4.32 12.92 -7.3 22.23"/>
			<path id="kvg:0554a-s5" kvg:type="㇕va" d="m54.13 39.42c11.85 16.02 7.57 40.21 0.6 27.74"/>
			<path id="kvg:0554a-s6" kvg:type="㇑" d="m43.99 18.16c0.69 1.22 1.28 3.07 1.28 5.45c0 0.71 0.04 44.44 0.04 63.53c0 5.83 0 9.71 -0.01 10.01"/>
		</g>
		<g id="kvg:0554a-g4" kvg:element="可" kvg:position="right">
			<g id="kvg:0554a-g5" kvg:element="丁" kvg:part="1">
				<g id="kvg:0554a-g6" kvg:element="一">
					<path id="kvg:0554a-s7" kvg:type="㇐" d="M68.35,20.29c1.22,0.55,3.45,0.57,4.67,0.55c4.73-0.09,15.98-2.59,21.71-2.79c2.04-0.07,3.25,0.26,4.27,0.54"/>
				</g>
			</g>
			<g id="kvg:0554a-g7" kvg:element="口">
				<path id="kvg:0554a-s8" kvg:type="㇑" d="M65.56,39.36c0.32,0.35,0.65,0.64,0.79,1.08c1.11,3.47,2.95,13.53,3.71,19.75"/>
				<path id="kvg:0554a-s9" kvg:type="㇕b" d="M66.68,40.24c4.57-0.74,10.64-1.83,14.41-2.29c1.37-0.17,2.2,0.99,2,1.96c-0.82,4.05-1.77,9.86-2.98,15.46"/>
				<path id="kvg:0554a-s10" kvg:type="㇐b" d="M69.71,57.07c4.42-0.51,6.09-0.9,12.16-1.7"/>
			</g>
			<g id="kvg:0554a-g8" kvg:element="丁" kvg:part="2">
				<g id="kvg:0554a-g9" kvg:element="亅">
					<path id="kvg:0554a-s11" kvg:type="㇚" d="M90.73,21.63c0.07,0.48,1.34,1.51,1.41,4.57c0.32,14.7-0.21,58.24-0.21,63.25c0,8.58-6.08,0.52-7.29-0.74"/>
				</g>
			</g>
		</g>
	</g>
</g>
</g>
<g id="kvg:StrokeNumbers_0554a" style="font-size:8;fill:#808080">
	<text transform="matrix(1 0 0 1 2.50 37.50)">1</text>
	<text transform="matrix(1 0 0 1 12.66 31.50)">2</text>
	<text transform="matrix(1 0 0 1 17.71 55.50)">3</text>
	<text transform="matrix(1 0 0 1 40.50 14.50)">4</text>
	<text transform="matrix(1 0 0 1 32.25 26.95)">5</text>
	<text transform="matrix(1 0 0 1 48.25 42.95)">6</text>
	<text transform="matrix(1 0 0 1 67.50 17.07)">7</text>
	<text transform="matrix(1 0 0 1 63.50 47.50)">8</text>
	<text transform="matrix(1 0 0 1 71.50 36.50)">9</text>
	<text transform="matrix(1 0 0 1 72 53.50)">10</text>
	<text transform="matrix(1 0 0 1 83 29.75)">11</text>
</g>
</svg>
