<?xml version="1.0" encoding="UTF-8"?>
<!--
Copyright (C) 2016 François Mizessyn.
This work makes an extensive use of kanjiVG Copyright (C) 2009/2010/2011 Ulrich Apel.
This work is distributed under the conditions of the Creative Commons
Attribution-Share Alike 3.0 Licence. This means you are free:
* to Share - to copy, distribute and transmit the work
* to Remix - to adapt the work

Under the following conditions:
* Attribution. You must attribute the work by stating your use of HanjiVG in
  your own copyright header and linking to HanjiVG's website
  (http://gooo.free.fr/hanziVG/)
* Attribution. You must attribute the work by stating your use of KanjiVG in
  your own copyright header and linking to KanjiVG's website
  (http://kanjivg.tagaini.net)
* Share Alike. If you alter, transform, or build upon this work, you may
  distribute the resulting work only under the same or similar license to this
  one.

See http://creativecommons.org/licenses/by-sa/3.0/ for more details.
-->
<!DOCTYPE svg PUBLIC "-//W3C//DTD SVG 1.0//EN" "http://www.w3.org/TR/2001/REC-SVG-20010904/DTD/svg10.dtd" [
<!ATTLIST g
xmlns:kvg CDATA #FIXED "http://kanjivg.tagaini.net"
kvg:element CDATA #IMPLIED
kvg:variant CDATA #IMPLIED
kvg:partial CDATA #IMPLIED
kvg:original CDATA #IMPLIED
kvg:part CDATA #IMPLIED
kvg:number CDATA #IMPLIED
kvg:tradForm CDATA #IMPLIED
kvg:radicalForm CDATA #IMPLIED
kvg:position CDATA #IMPLIED
kvg:radical CDATA #IMPLIED
kvg:phon CDATA #IMPLIED >
<!ATTLIST path
xmlns:kvg CDATA #FIXED "http://kanjivg.tagaini.net"
kvg:type CDATA #IMPLIED >
]>
<svg xmlns="http://www.w3.org/2000/svg" width="109" height="109" viewBox="0 0 109 109">
<g id="kvg:StrokePaths_05564" style="fill:none;stroke:#000000;stroke-width:3;stroke-linecap:round;stroke-linejoin:round;">
<g id="kvg:05564" kvg:element="啤">
	<g id="kvg:05564-g1" kvg:element="口" kvg:position="left" kvg:radical="general">
		<path id="kvg:05564-s1" kvg:type="㇑" d="M14.25,33.65c0.72,1.06,1.04,1.92,1.23,3.23c0.89,6.25,2.23,14.12,3.01,22.08c0.18,1.87,0.35,3.66,0.5,5.29"/>
		<path id="kvg:05564-s2" kvg:type="㇕b" d="M16.25,34.96c6.62-0.82,13.25-1.9,17.74-2.63c3-0.49,4.7,0.09,4.2,3.55c-0.88,6.1-1.92,14.57-3.21,22.65"/>
		<path id="kvg:05564-s3" kvg:type="㇐b" d="M19.16,61.63c4.04-0.64,8.02-1.15,13.56-1.84c1.27-0.16,2.61-0.32,4.06-0.5"/>
	</g>
	<g id="kvg:05564-g2" kvg:position="right">
		<g id="kvg:05564-g3" kvg:element="卑" kvg:variant="true" kvg:position="top">
			<g id="kvg:05564-g4" kvg:element="丿">
				<path id="kvg:05564-s4" kvg:type="㇒" d="M69.78,11.14c0.02,0.3,0.05,0.78-0.04,1.21c-0.56,2.56-3.78,8.17-8.18,11.61"/>
			</g>
			<g id="kvg:05564-g5" kvg:element="田" kvg:variant="true">
				<path id="kvg:07765-s5" kvg:type="㇑" d="M46.02,25.59c0.37,0.55,0.37,0.94,0.58,1.63c1.65,5.73,2.21,15.56,3.24,26.24"/>
				<path id="kvg:07765-s6" kvg:type="㇕" d="M47.37,26.97c10.74-1.23,29.48-2.15,37.5-3.18c2.95-0.38,4.09,0.66,3.88,3.25c-0.4,4.95-2.35,17.32-3.69,25.55"/>
				<path id="kvg:07765-s7" kvg:type="㇐" d="M49.38,39.06c3.5-0.48,33.72-2.36,36.61-2.56"/>
				<path id="kvg:07765-s8" kvg:type="㇐" d="M50.52,52.12c7.74-0.52,22.73-1.62,34.54-1.88"/>
				<g id="kvg:07765-g6" kvg:element="丿" kvg:position="bottom">
					<path id="kvg:07765-s9" kvg:type="㇒" d="M67.54,27.43c0.43,0.93,0.4,2.33,0.28,3.58c-1.13,12.54-2.58,26.5-14.07,34.25"/>
				</g>
			</g>
			<g id="kvg:07765-g7" kvg:element="十">
				<path id="kvg:07765-s10" kvg:type="㇐" d="M43.25,72.81c0.89,0.25,3.26,0.93,5.61,0.75c15.88-1.24,28.81-2.32,43.9-2.56c2.36-0.04,4.27,0.07,5.74,0.32"/>
				<path id="kvg:07765-s11" kvg:type="㇑" d="M74.37,55.25c1.09,0.5,1.74,2.25,1.96,3.25c0.22,1,0,33.25-0.22,39.5"/>
			</g>
		</g>
	</g>
</g>
</g>
<g id="kvg:StrokeNumbers_07765" style="font-size:8;fill:#808080">
	<text transform="matrix(1 0 0 1 8.50 40.63)">1</text>
	<text transform="matrix(1 0 0 1 18.75 31.50)">2</text>
	<text transform="matrix(1 0 0 1 21.75 57.05)">3</text>
	<text transform="matrix(1 0 0 1 60.50 10.50)">4</text>
	<text transform="matrix(1 0 0 1 39.75 32.50)">5</text>
	<text transform="matrix(1 0 0 1 48.50 23.50)">6</text>
	<text transform="matrix(1 0 0 1 52.50 35.50)">7</text>
	<text transform="matrix(1 0 0 1 52.50 48.50)">8</text>
	<text transform="matrix(1 0 0 1 71.50 32.50)">9</text>
	<text transform="matrix(1 0 0 1 40.50 69.50)">10</text>
	<text transform="matrix(1 0 0 1 65.50 61.50)">11</text>
</g>
</svg>
