<?xml version="1.0" encoding="UTF-8"?>
<!--
Copyright (C) 2016 François Mizessyn.
This work makes an extensive use of kanjiVG Copyright (C) 2009/2010/2011 Ulrich Apel.
This work is distributed under the conditions of the Creative Commons
Attribution-Share Alike 3.0 Licence. This means you are free:
* to Share - to copy, distribute and transmit the work
* to Remix - to adapt the work

Under the following conditions:
* Attribution. You must attribute the work by stating your use of HanjiVG in
  your own copyright header and linking to HanjiVG's website
  (http://gooo.free.fr/hanziVG/)
* Attribution. You must attribute the work by stating your use of KanjiVG in
  your own copyright header and linking to KanjiVG's website
  (http://kanjivg.tagaini.net)
* Share Alike. If you alter, transform, or build upon this work, you may
  distribute the resulting work only under the same or similar license to this
  one.

See http://creativecommons.org/licenses/by-sa/3.0/ for more details.
-->
<!DOCTYPE svg PUBLIC "-//W3C//DTD SVG 1.0//EN" "http://www.w3.org/TR/2001/REC-SVG-20010904/DTD/svg10.dtd" [
<!ATTLIST g
xmlns:kvg CDATA #FIXED "http://kanjivg.tagaini.net"
kvg:element CDATA #IMPLIED
kvg:variant CDATA #IMPLIED
kvg:partial CDATA #IMPLIED
kvg:original CDATA #IMPLIED
kvg:part CDATA #IMPLIED
kvg:number CDATA #IMPLIED
kvg:tradForm CDATA #IMPLIED
kvg:radicalForm CDATA #IMPLIED
kvg:position CDATA #IMPLIED
kvg:radical CDATA #IMPLIED
kvg:phon CDATA #IMPLIED >
<!ATTLIST path
xmlns:kvg CDATA #FIXED "http://kanjivg.tagaini.net"
kvg:type CDATA #IMPLIED >
]>
<svg xmlns="http://www.w3.org/2000/svg" width="109" height="109" viewBox="0 0 109 109">
<g id="kvg:StrokePaths_05561" style="fill:none;stroke:#000000;stroke-width:3;stroke-linecap:round;stroke-linejoin:round;">
<g id="kvg:05561" kvg:element="徘">
	<g id="kvg:05561-g1" kvg:element="口" kvg:position="left" kvg:radical="general">
		<path id="kvg:05561-s1" kvg:type="㇑" d="M13.25,32.79c0.37,0.51,0.76,0.94,0.92,1.58c1.29,5.07,3.34,19.04,4.23,28.13"/>
		<path id="kvg:05561-s2" kvg:type="㇕b" d="M15.58,35.22C25,33,33.12,32.16,37.49,31.49c1.6-0.24,2.56,1.44,2.33,2.87c-0.95,5.92-3.05,15.57-4.46,23.75"/>
		<path id="kvg:05561-s3" kvg:type="㇐b" d="M18.57,60.05c5.14-0.75,11.83-1.05,18.89-2.21"/>
	</g>
	<g id="kvg:05561-g3" kvg:element="非" kvg:position="right">
		<g id="kvg:05561-g4" kvg:position="left">
			<path id="kvg:05561-s4" kvg:type="㇒" d="m59.74 17.2c0.71 0.48 1.14 2.17 1.27 3.13c0.06 0.41 0.07 13.74 0.05 29.35c-0.03 20.99 -0.73 36.82 -13.97 48.57"/>
			<path id="kvg:05561-s5" kvg:type="㇐" d="m46.14 39.37c0.66 0.13 2.59 0.74 3.57 0.5c0.98 -0.24 10.06 -1.68 11.2 -2.41"/>
			<path id="kvg:05561-s6" kvg:type="㇐" d="m45.81 54.51c0.98 0 2.12 0.24 3.1 0c0.98 -0.24 9.58 -1.67 12.18 -2.39"/>
			<path id="kvg:07dcb-s10" kvg:type="㇐" d="M44,72.45c1.9,0.72,3.07,0.51,4.73-0.34c2.9-1.49,6.09-2.99,11.71-6.07"/>
		</g>
		<g id="kvg:05561-g5" kvg:position="right">
			<path id="kvg:05561-s8" kvg:type="㇑" d="m75.18 12c0.73 0.5 1.17 2.23 1.31 3.22c0.14 0.99 0 77.62 -0.14 83.81"/>
			<path id="kvg:05561-s9" kvg:type="㇐" d="m76.95 33.67c3.81 -0.47 14.74 -2.11 17.59 -2.89c1.04 -0.28 0.31 -0.16 2.12 -0.16"/>
			<path id="kvg:05561-s10" kvg:type="㇐" d="m76.72 50.57c3.11 -0.29 13.14 -1.65 15.47 -2.13c0.85 -0.18 0.26 -0.1 1.73 -0.1"/>
			<path id="kvg:05561-s11" kvg:type="㇐" d="m76.64 69.58c3.53 -0.34 16.38 -1.9 19.02 -2.46c0.97 -0.21 0.29 -0.12 1.97 -0.12"/>
		</g>
	</g>
</g>
</g>
<g id="kvg:StrokeNumbers_05561" style="font-size:8;fill:#808080">
	<text transform="matrix(1 0 0 1 5.50 40.50)">1</text>
	<text transform="matrix(1 0 0 1 16.50 29.50)">2</text>
	<text transform="matrix(1 0 0 1 19.50 56.35)">3</text>
	<text transform="matrix(1 0 0 1 49.50 16.50)">4</text>
	<text transform="matrix(1 0 0 1 42.25 35.50)">5</text>
	<text transform="matrix(1 0 0 1 42.25 50.50)">6</text>
	<text transform="matrix(1 0 0 1 37.50 67.50)">7</text>
	<text transform="matrix(1 0 0 1 64.50 10.50)">8</text>
	<text transform="matrix(1 0 0 1 79.50 29.50)">9</text>
	<text transform="matrix(1 0 0 1 78.50 46.50)">10</text>
	<text transform="matrix(1 0 0 1 78.50 65.50)">11</text>
</g>
</svg>
