<?xml version="1.0" encoding="UTF-8"?>
<!--
Copyright (C) 2016 François Mizessyn.
This work makes an extensive use of kanjiVG Copyright (C) 2009/2010/2011 Ulrich Apel.
This work is distributed under the conditions of the Creative Commons
Attribution-Share Alike 3.0 Licence. This means you are free:
* to Share - to copy, distribute and transmit the work
* to Remix - to adapt the work

Under the following conditions:
* Attribution. You must attribute the work by stating your use of HanjiVG in
  your own copyright header and linking to HanjiVG's website
  (http://gooo.free.fr/hanziVG/)
* Attribution. You must attribute the work by stating your use of KanjiVG in
  your own copyright header and linking to KanjiVG's website
  (http://kanjivg.tagaini.net)
* Share Alike. If you alter, transform, or build upon this work, you may
  distribute the resulting work only under the same or similar license to this
  one.

See http://creativecommons.org/licenses/by-sa/3.0/ for more details.
-->
<!DOCTYPE svg PUBLIC "-//W3C//DTD SVG 1.0//EN" "http://www.w3.org/TR/2001/REC-SVG-20010904/DTD/svg10.dtd" [
<!ATTLIST g
xmlns:kvg CDATA #FIXED "http://kanjivg.tagaini.net"
kvg:element CDATA #IMPLIED
kvg:variant CDATA #IMPLIED
kvg:partial CDATA #IMPLIED
kvg:original CDATA #IMPLIED
kvg:part CDATA #IMPLIED
kvg:number CDATA #IMPLIED
kvg:tradForm CDATA #IMPLIED
kvg:radicalForm CDATA #IMPLIED
kvg:position CDATA #IMPLIED
kvg:radical CDATA #IMPLIED
kvg:phon CDATA #IMPLIED >
<!ATTLIST path
xmlns:kvg CDATA #FIXED "http://kanjivg.tagaini.net"
kvg:type CDATA #IMPLIED >
]>
<svg xmlns="http://www.w3.org/2000/svg" width="109" height="109" viewBox="0 0 109 109">
<g id="kvg:StrokePaths_056ed" style="fill:none;stroke:#000000;stroke-width:3;stroke-linecap:round;stroke-linejoin:round;">
<g id="kvg:056ed" kvg:element="园">
	<g id="kvg:056ed-g1" kvg:element="囗" kvg:part="1" kvg:radical="general">
		<path id="kvg:056ed-s1" kvg:type="㇑" d="M18,18.79c1.29,1.29,1.61,2.94,1.61,4.78c0,12.45,0.07,46.78,0.08,66.05c0,2.27,0,4.33,0,6.12"/>
		<path id="kvg:056ed-s2" kvg:type="㇕a" d="M20.74,21.21c19.04-1.59,54.71-3.96,65.51-3.96c2.75,0,3.55,2.42,3.5,5.35C89.52,36.75,88.86,66.5,89.16,88c0.02,1.75,0.05,3.44,0.09,5.07"/>
	</g>
	<g id="kvg:056ed-g2" kvg:element="元">
		<g id="kvg:056ed-g3" kvg:element="二" kvg:position="top" kvg:radical="nelson">
			<path id="kvg:056ed-s3" kvg:type="㇐" d="m39.51 33.67c1.13 0.21 3.18 0.3 4.29 0.21c6.83 -0.6 13.55 -1.65 20.21 -1.94c1.86 -0.08 3 0.1 3.92 0.21"/>
			<path id="kvg:056ed-s4" kvg:type="㇐" d="m31.66 48.2c1.36 0.3 3.71 0.4 5.07 0.3c11.39 -0.82 23.13 -2.5 35.52 -2.88c2.27 -0.07 3.64 0.14 4.77 0.3"/>
		</g>
		<g id="kvg:056ed-g4" kvg:element="儿" kvg:original="八" kvg:position="bottom" kvg:radical="tradit">
			<path id="kvg:056ed-s5" kvg:type="㇒" d="m47.51 49.88c0.37 0.75 0.47 1.9 0.23 2.84c-1.83 7.27 -5.53 17.91 -16 26.47"/>
			<path id="kvg:056ed-s6" kvg:type="㇟" d="m57.22 48.24c0.96 0.98 1.26 1.99 1.26 3.62c0 6.14 0.01 12.47 0.01 17.9c0 9.2 0.65 10 11.52 10c9.38 0 10.17 -0.72 10.17 -8.12"/>
		</g>
	</g>
	<g id="kvg:056ed-g9" kvg:element="囗" kvg:part="2" kvg:position="kamae" kvg:radical="general">
		<path id="kvg:056ed-s7" kvg:type="㇐a" d="M21,93.1c13.75-0.35,48.71-2.29,66.75-2.69"/>
	</g>
</g>
</g>
<g id="kvg:StrokeNumbers_056ed" style="font-size:8;fill:#808080">
	<text transform="matrix(1 0 0 1 8.50 23.50)">1</text>
	<text transform="matrix(1 0 0 1 20.50 17.50)">2</text>
	<text transform="matrix(1 0 0 1 28.50 36.63)">3</text>
	<text transform="matrix(1 0 0 1 21.75 48.13)">4</text>
	<text transform="matrix(1 0 0 1 34.75 62.63)">5</text>
	<text transform="matrix(1 0 0 1 60.25 60.13)">6</text>
	<text transform="matrix(1 0 0 1 8.50 97.50)">7</text>
</g>
</svg>
