<?xml version="1.0" encoding="UTF-8"?>
<!--
Copyright (C) 2016 François Mizessyn.
This work makes an extensive use of kanjiVG Copyright (C) 2009/2010/2011 Ulrich Apel.
This work is distributed under the conditions of the Creative Commons
Attribution-Share Alike 3.0 Licence. This means you are free:
* to Share - to copy, distribute and transmit the work
* to Remix - to adapt the work

Under the following conditions:
* Attribution. You must attribute the work by stating your use of HanjiVG in
  your own copyright header and linking to HanjiVG's website
  (http://gooo.free.fr/hanziVG/)
* Attribution. You must attribute the work by stating your use of KanjiVG in
  your own copyright header and linking to KanjiVG's website
  (http://kanjivg.tagaini.net)
* Share Alike. If you alter, transform, or build upon this work, you may
  distribute the resulting work only under the same or similar license to this
  one.

See http://creativecommons.org/licenses/by-sa/3.0/ for more details.
-->
<!DOCTYPE svg PUBLIC "-//W3C//DTD SVG 1.0//EN" "http://www.w3.org/TR/2001/REC-SVG-20010904/DTD/svg10.dtd" [
<!ATTLIST g
xmlns:kvg CDATA #FIXED "http://kanjivg.tagaini.net"
kvg:element CDATA #IMPLIED
kvg:variant CDATA #IMPLIED
kvg:partial CDATA #IMPLIED
kvg:original CDATA #IMPLIED
kvg:part CDATA #IMPLIED
kvg:number CDATA #IMPLIED
kvg:tradForm CDATA #IMPLIED
kvg:radicalForm CDATA #IMPLIED
kvg:position CDATA #IMPLIED
kvg:radical CDATA #IMPLIED
kvg:phon CDATA #IMPLIED >
<!ATTLIST path
xmlns:kvg CDATA #FIXED "http://kanjivg.tagaini.net"
kvg:type CDATA #IMPLIED >
]>
<svg xmlns="http://www.w3.org/2000/svg" width="109" height="109" viewBox="0 0 109 109">
<g id="kvg:StrokePaths_056f4" style="fill:none;stroke:#000000;stroke-width:3;stroke-linecap:round;stroke-linejoin:round;">
<g id="kvg:056f4" kvg:element="围">
	<g id="kvg:056f4-g1" kvg:element="囗" kvg:part="1" kvg:radical="general">
		<path id="kvg:056f4-s1" kvg:type="㇑" d="M19,16.82c1.09,1.09,1.61,2.51,1.61,4.41c0,14.65-0.22,44.9-0.22,71.53c0,1.95-0.06,3.86-0.09,5.75"/>
		<path id="kvg:056f4-s2" kvg:type="㇕a" d="M21.52,18.67C41.38,16.75,74.03,13.5,85,13.5c3.38,0,5,1.85,5,5.25c0,15.36-0.04,47.89-0.08,70.62c0,1.68,0,3.31,0,4.88"/>
	</g>
	<g id="kvg:056f4-g2" kvg:element="韦">
		<path id="kvg:056f4-s3" kvg:type="㇐" d="m36.74 36.4c2.35 0.36 4.65 0.2 7.02 -0.14c7.74 -1.13 18.36 -2.27 25.62 -2.84c2.06 -0.16 4.1 -0.17 6.13 0.11"/>
		<path id="kvg:056f4-s4" kvg:type="㇐" d="m36.74 49c2.35 0.36 4.65 0.2 7.02 -0.14c7.74 -1.13 18.36 -2.27 25.62 -2.84c2.06 -0.16 4.1 -0.17 6.13 0.11"/>
		<path id="kvg:056f4-s5" kvg:type="㇆" d="m35.09 61.58c2.35 0.36 4.65 0.2 7.02 -0.14c7.74 -1.13 18.36 -2.27 27.8 -3.4c4.69 -0.21 6.76 0.09 6.15 1.72c-1.7 4.59 -3 9.27 -5.11 14.72c-1.71 1.15 -4.77 0.89 -5.07 -0.21"/>
		<path id="kvg:056f4-s6" kvg:type="㇑a" d="m52.66 24.57c0.78 0.27 1.55 2 1.55 2.53c0 3.37 -0.26 5.93 -0.26 56.27"/>
	</g>
	<g id="kvg:056f4-g3" kvg:element="囗" kvg:part="2" kvg:radical="general">
		<path id="kvg:056f4-s7" kvg:type="㇐a" d="M21.5,93.01c14.25-0.51,48.38-1.89,67-2.51"/>
	</g>
</g>
</g>
<g id="kvg:StrokeNumbers_056f4" style="font-size:8;fill:#808080">
	<text transform="matrix(1 0 0 1 10.50 25.63)">1</text>
	<text transform="matrix(1 0 0 1 22.50 14.50)">2</text>
	<text transform="matrix(1 0 0 1 25.50 40.50)">3</text>
	<text transform="matrix(1 0 0 1 25.50 54.50)">4</text>
	<text transform="matrix(1 0 0 1 25.50 68.50)">5</text>
	<text transform="matrix(1 0 0 1 55.50 29.50)">6</text>
	<text transform="matrix(1 0 0 1 22.50 90.63)">7</text>
</g>
</svg>
