<?xml version="1.0" encoding="UTF-8"?>
<!--
Copyright (C) 2016 François Mizessyn.
This work makes an extensive use of kanjiVG Copyright (C) 2009/2010/2011 Ulrich Apel.
This work is distributed under the conditions of the Creative Commons
Attribution-Share Alike 3.0 Licence. This means you are free:
* to Share - to copy, distribute and transmit the work
* to Remix - to adapt the work

Under the following conditions:
* Attribution. You must attribute the work by stating your use of HanjiVG in
  your own copyright header and linking to HanjiVG's website
  (http://gooo.free.fr/hanziVG/)
* Attribution. You must attribute the work by stating your use of KanjiVG in
  your own copyright header and linking to KanjiVG's website
  (http://kanjivg.tagaini.net)
* Share Alike. If you alter, transform, or build upon this work, you may
  distribute the resulting work only under the same or similar license to this
  one.

See http://creativecommons.org/licenses/by-sa/3.0/ for more details.
-->
<!DOCTYPE svg PUBLIC "-//W3C//DTD SVG 1.0//EN" "http://www.w3.org/TR/2001/REC-SVG-20010904/DTD/svg10.dtd" [
<!ATTLIST g
xmlns:kvg CDATA #FIXED "http://kanjivg.tagaini.net"
kvg:element CDATA #IMPLIED
kvg:variant CDATA #IMPLIED
kvg:partial CDATA #IMPLIED
kvg:original CDATA #IMPLIED
kvg:part CDATA #IMPLIED
kvg:number CDATA #IMPLIED
kvg:tradForm CDATA #IMPLIED
kvg:radicalForm CDATA #IMPLIED
kvg:position CDATA #IMPLIED
kvg:radical CDATA #IMPLIED
kvg:phon CDATA #IMPLIED >
<!ATTLIST path
xmlns:kvg CDATA #FIXED "http://kanjivg.tagaini.net"
kvg:type CDATA #IMPLIED >
]>
<svg xmlns="http://www.w3.org/2000/svg" width="109" height="109" viewBox="0 0 109 109">
<g id="kvg:StrokePaths_056fe" style="fill:none;stroke:#000000;stroke-width:3;stroke-linecap:round;stroke-linejoin:round;">
<g id="kvg:056fe" kvg:element="图">
	<g id="kvg:056fe-g1" kvg:element="囗" kvg:part="1" kvg:radical="general">
		<path id="kvg:056fe-s1" kvg:type="㇑" d="M19,16.82c1.09,1.09,1.61,2.51,1.61,4.41c0,14.65-0.22,44.9-0.22,71.53c0,1.95-0.06,3.86-0.09,5.75"/>
		<path id="kvg:056fe-s2" kvg:type="㇕a" d="M21.52,18.67C41.38,16.75,74.03,13.5,85,13.5c3.38,0,5,1.85,5,5.25c0,15.36-0.04,47.89-0.08,70.62c0,1.68,0,3.31,0,4.88"/>
	</g>
	<g id="kvg:056fe" kvg:element="冬">
		<g id="kvg:056fe-g2" kvg:element="夂" kvg:position="top" kvg:radical="nelson">
			<path id="kvg:056fe-s3" kvg:type="㇒" d="m49.23 26.68c0.1 1.02 -0.13 1.77 -0.63 2.69c-2.83 5.22 -7.92 11.41 -15.39 16.56"/>
			<path id="kvg:056fe-s4" kvg:type="㇇" d="m50.1 31.37c0.57 0.2 1.55 0.3 2.72 0.13c4.02 -0.62 6.73 -0.92 9.35 -1.52c2.83 -0.64 3.28 1.25 2.08 3.28c-5.31 8.99 -16.68 24.3 -36.63 32.26"/>
			<path id="kvg:056fe-s5" kvg:type="㇏" d="m44.87 38.58c4.29 3.26 21.29 14.59 29.9 19.52c2.66 1.53 5.98 2.92 9.04 3.4"/>
		</g>
		<g id="kvg:056fe-g3" kvg:element="冫" kvg:original="氷" kvg:position="bottom" kvg:radical="tradit">
			<g id="kvg:056fe-g4" kvg:position="top">
				<path id="kvg:056fe-s6" kvg:type="㇔" d="m51.07 61.5c3.89 0.99 10.05 4.06 11.02 5.6"/>
			</g>
			<g id="kvg:056fe-g5" kvg:position="bottom">
				<path id="kvg:056fe-s7" kvg:type="㇔/㇀" d="m46.35 73.22c6.24 1.85 15.58 6.73 17.85 9.8"/>
			</g>
		</g>
	</g>
	<g id="kvg:056fe-g6" kvg:element="囗" kvg:part="2" kvg:radical="general">
		<path id="kvg:056fe-s8" kvg:type="㇐a" d="M21.5,93.01c14.25-0.51,48.38-1.89,67-2.51"/>
	</g>
</g>
<g id="kvg:StrokeNumbers_056fe" style="font-size:8;fill:#808080">
	<text transform="matrix(1 0 0 1 9.50 25.63)">1</text>
	<text transform="matrix(1 0 0 1 20.50 14.50)">2</text>
	<text transform="matrix(1 0 0 1 38.50 27.50)">3</text>
	<text transform="matrix(1 0 0 1 51.50 27.50)">4</text>
	<text transform="matrix(1 0 0 1 31.75 37.50)">5</text>
	<text transform="matrix(1 0 0 1 39.50 65.50)">6</text>
	<text transform="matrix(1 0 0 1 36.50 78.50)">7</text>
	<text transform="matrix(1 0 0 1 23.50 89.63)">8</text>
</g>
</svg>
