<?xml version="1.0" encoding="UTF-8"?>
<!--
Copyright (C) 2016 François Mizessyn.
This work makes an extensive use of kanjiVG Copyright (C) 2009/2010/2011 Ulrich Apel.
This work is distributed under the conditions of the Creative Commons
Attribution-Share Alike 3.0 Licence. This means you are free:
* to Share - to copy, distribute and transmit the work
* to Remix - to adapt the work

Under the following conditions:
* Attribution. You must attribute the work by stating your use of HanjiVG in
  your own copyright header and linking to HanjiVG's website
  (http://gooo.free.fr/hanziVG/)
* Attribution. You must attribute the work by stating your use of KanjiVG in
  your own copyright header and linking to KanjiVG's website
  (http://kanjivg.tagaini.net)
* Share Alike. If you alter, transform, or build upon this work, you may
  distribute the resulting work only under the same or similar license to this
  one.

See http://creativecommons.org/licenses/by-sa/3.0/ for more details.
-->
<!DOCTYPE svg PUBLIC "-//W3C//DTD SVG 1.0//EN" "http://www.w3.org/TR/2001/REC-SVG-20010904/DTD/svg10.dtd" [
<!ATTLIST g
xmlns:kvg CDATA #FIXED "http://kanjivg.tagaini.net"
kvg:element CDATA #IMPLIED
kvg:variant CDATA #IMPLIED
kvg:partial CDATA #IMPLIED
kvg:original CDATA #IMPLIED
kvg:part CDATA #IMPLIED
kvg:number CDATA #IMPLIED
kvg:tradForm CDATA #IMPLIED
kvg:radicalForm CDATA #IMPLIED
kvg:position CDATA #IMPLIED
kvg:radical CDATA #IMPLIED
kvg:phon CDATA #IMPLIED >
<!ATTLIST path
xmlns:kvg CDATA #FIXED "http://kanjivg.tagaini.net"
kvg:type CDATA #IMPLIED >
]>
<svg xmlns="http://www.w3.org/2000/svg" width="109" height="109" viewBox="0 0 109 109">
<g id="kvg:StrokePaths_0575a" style="fill:none;stroke:#000000;stroke-width:3;stroke-linecap:round;stroke-linejoin:round;">
<g id="kvg:0575a" kvg:element="坚">
	<g id="kvg:0575a-g1" kvg:position="top">
		<g id="kvg:0575a-g2" kvg:element="刂" kvg:variant="true" kvg:original="刀" kvg:position="right" kvg:radical="general">
			<path id="kvg:0575a-s1" kvg:type="㇑" d="m20.51 16.97c0.49 0.65 0.88 1.9 0.88 3.56c0 5 0 20.28 -0.01 28.5c0 2.31 0 4.09 0 4.97"/>
			<path id="kvg:0575a-s2" kvg:type="㇚" d="m37.51 16.26c0.63 0.89 0.88 1.99 0.88 3.56c0 10.34 0 31.34 0 34.87c0 9.32 -3.6 1.06 -4.36 0.19"/>
		</g>
		<g id="kvg:0575a-g3" kvg:element="又" kvg:position="right">
			<path id="kvg:0575a-s3" kvg:type="㇇" d="M55.35,19.33c2.09,0.51,4.67,0.1,6.8-0.35c4.68-1,13.33-3.07,17.28-4.04c2.98-0.73,4.63,0.56,3.29,3.99C76.37,35.23,68.12,44.75,56,52.51"/>
			<path id="kvg:0575a-s4" kvg:type="㇏" d="M55.46,26.94c3.21,0.6,16.91,13.06,28.17,22.34c2.38,1.96,4.87,3.46,7.51,4.59"/>
		</g>
	</g>
	<g id="kvg:0575a-g4" kvg:element="土" kvg:position="bottom" kvg:radical="general">
		<path id="kvg:0575a-s5" kvg:type="㇐" d="M29.35,72.35c2.9,0.52,5.17,0.47,7.52,0.24c11.17-1.1,25-2.21,36.76-3.04c2.08-0.15,4.12-0.21,6.16,0.27"/>
		<path id="kvg:0575a-s6" kvg:type="㇑a" d="M53.52,58.87c0.74,0.74,1.23,2.01,1.23,3.55c0,5.83,0,19.35,0,26.96"/>
		<path id="kvg:0575a-s7" kvg:type="㇐" d="M18.38,91.66c3.87,0.71,7.38,0.6,10.61,0.36C44.85,90.84,65,89.62,82,89.18c3.34-0.09,7.09,0.13,10.38,0.83"/>
	</g>
</g>
</g>
<g id="kvg:StrokeNumbers_0575a" style="font-size:8;fill:#808080">
	<text transform="matrix(1 0 0 1 10.75 24.13)">1</text>
	<text transform="matrix(1 0 0 1 30.50 13.50)">2</text>
	<text transform="matrix(1 0 0 1 53.50 16.50)">3</text>
	<text transform="matrix(1 0 0 1 45.75 33.05)">4</text>
	<text transform="matrix(1 0 0 1 26.50 69.13)">5</text>
	<text transform="matrix(1 0 0 1 42.50 62.50)">6</text>
	<text transform="matrix(1 0 0 1 14.50 88.63)">7</text>
</g>
</svg>
