<?xml version="1.0" encoding="UTF-8"?>
<!--
Copyright (C) 2016 François Mizessyn.
This work makes an extensive use of kanjiVG Copyright (C) 2009/2010/2011 Ulrich Apel.
This work is distributed under the conditions of the Creative Commons
Attribution-Share Alike 3.0 Licence. This means you are free:
* to Share - to copy, distribute and transmit the work
* to Remix - to adapt the work

Under the following conditions:
* Attribution. You must attribute the work by stating your use of HanjiVG in
  your own copyright header and linking to HanjiVG's website
  (http://gooo.free.fr/hanziVG/)
* Attribution. You must attribute the work by stating your use of KanjiVG in
  your own copyright header and linking to KanjiVG's website
  (http://kanjivg.tagaini.net)
* Share Alike. If you alter, transform, or build upon this work, you may
  distribute the resulting work only under the same or similar license to this
  one.

See http://creativecommons.org/licenses/by-sa/3.0/ for more details.
-->
<!DOCTYPE svg PUBLIC "-//W3C//DTD SVG 1.0//EN" "http://www.w3.org/TR/2001/REC-SVG-20010904/DTD/svg10.dtd" [
<!ATTLIST g
xmlns:kvg CDATA #FIXED "http://kanjivg.tagaini.net"
kvg:element CDATA #IMPLIED
kvg:variant CDATA #IMPLIED
kvg:partial CDATA #IMPLIED
kvg:original CDATA #IMPLIED
kvg:part CDATA #IMPLIED
kvg:number CDATA #IMPLIED
kvg:tradForm CDATA #IMPLIED
kvg:radicalForm CDATA #IMPLIED
kvg:position CDATA #IMPLIED
kvg:radical CDATA #IMPLIED
kvg:phon CDATA #IMPLIED >
<!ATTLIST path
xmlns:kvg CDATA #FIXED "http://kanjivg.tagaini.net"
kvg:type CDATA #IMPLIED >
]>
<svg xmlns="http://www.w3.org/2000/svg" width="109" height="109" viewBox="0 0 109 109">
<g id="kvg:StrokePaths_05757" style="fill:none;stroke:#000000;stroke-width:3;stroke-linecap:round;stroke-linejoin:round;">
<g id="kvg:05757" kvg:element="块">
	<g id="kvg:05757-g1" kvg:element="土" kvg:variant="true" kvg:position="left" kvg:radical="general">
		<path id="kvg:05757-s1" kvg:type="㇐" d="M13.5,41.39c0.76,0.38,2.24,0.46,3,0.36c0.78-0.11,1.71-0.01,2.74-0.18c5.3-0.91,11.51-2.32,17.51-3.57c1.24-0.26,2.62-0.43,3.25-0.24"/>
		<path id="kvg:05757-s2" kvg:type="㇑a" d="M26.87,19c0.88,1.25,1.21,2.5,1.21,4c0,7.25,0.03,32.75,0.03,43.5"/>
		<path id="kvg:05757-s3" kvg:type="㇀/㇐" d="M13.75,74.19c1.25,1.18,2.62,1.31,4.67-0.02c6.09-3.96,15.45-10.29,22.33-14.92"/>
	</g>
	<g id="kvg:07f3a-g2" kvg:element="夬" kvg:position="right">
		<path id="kvg:07f3a-s7" kvg:type="㇕c" d="M53.02,37.01c0.97,0.72,2.6,0.93,4.05,0.69c1.45-0.24,21.33-2.28,25.26-2.7c3.23-0.71,3.9-0.28,3.04,3.67c-0.93,4.3-2.17,12.89-3.12,15.83"/>
		<g id="kvg:07f3a-g3" kvg:element="大">
			<path id="kvg:07f3a-s8" kvg:type="㇐" d="M48.12,58.39c0.87,0.2,3.11,0.34,4.06,0.27c13.37-0.99,21.18-2.33,37.8-2.52c1.21-0.02,2.92,0.08,5.62,0.41"/>
			<g id="kvg:07f3a-g4" kvg:element="人">
				<path id="kvg:07f3a-s9" kvg:type="㇒" d="M66.01,14.75c0.54,0.98,1.56,2.05,1.56,4.1c0,37.15-1.81,61.4-24.81,76.65"/>
				<path id="kvg:07f3a-s10" kvg:type="㇏" d="M65.72,58.46C73,70.5,81.75,84,92.23,92c2.39,1.82,3.01,2.31,4.02,2.5"/>
			</g>
		</g>
	</g>
</g>
</g>
<g id="kvg:StrokeNumbers_05757" style="font-size:8;fill:#808080">
	<text transform="matrix(1 0 0 1 6.50 39.50)">1</text>
	<text transform="matrix(1 0 0 1 19.50 15.50)">2</text>
	<text transform="matrix(1 0 0 1 2.50 65.50)">3</text>
	<text transform="matrix(1 0 0 1 46.50 31.50)">4</text>
	<text transform="matrix(1 0 0 1 43.75 55.50)">5</text>
	<text transform="matrix(1 0 0 1 53.50 12.50)">6</text>
	<text transform="matrix(1 0 0 1 73.50 66.50)">7</text>
</g>
</svg>
