<?xml version="1.0" encoding="UTF-8"?>
<!--
Copyright (C) 2016 François Mizessyn.
This work makes an extensive use of kanjiVG Copyright (C) 2009/2010/2011 Ulrich Apel.
This work is distributed under the conditions of the Creative Commons
Attribution-Share Alike 3.0 Licence. This means you are free:
* to Share - to copy, distribute and transmit the work
* to Remix - to adapt the work

Under the following conditions:
* Attribution. You must attribute the work by stating your use of HanjiVG in
  your own copyright header and linking to HanjiVG's website
  (http://gooo.free.fr/hanziVG/)
* Attribution. You must attribute the work by stating your use of KanjiVG in
  your own copyright header and linking to KanjiVG's website
  (http://kanjivg.tagaini.net)
* Share Alike. If you alter, transform, or build upon this work, you may
  distribute the resulting work only under the same or similar license to this
  one.

See http://creativecommons.org/licenses/by-sa/3.0/ for more details.
-->
<!DOCTYPE svg PUBLIC "-//W3C//DTD SVG 1.0//EN" "http://www.w3.org/TR/2001/REC-SVG-20010904/DTD/svg10.dtd" [
<!ATTLIST g
xmlns:kvg CDATA #FIXED "http://kanjivg.tagaini.net"
kvg:element CDATA #IMPLIED
kvg:variant CDATA #IMPLIED
kvg:partial CDATA #IMPLIED
kvg:original CDATA #IMPLIED
kvg:part CDATA #IMPLIED
kvg:number CDATA #IMPLIED
kvg:tradForm CDATA #IMPLIED
kvg:radicalForm CDATA #IMPLIED
kvg:position CDATA #IMPLIED
kvg:radical CDATA #IMPLIED
kvg:phon CDATA #IMPLIED >
<!ATTLIST path
xmlns:kvg CDATA #FIXED "http://kanjivg.tagaini.net"
kvg:type CDATA #IMPLIED >
]>
<svg xmlns="http://www.w3.org/2000/svg" width="109" height="109" viewBox="0 0 109 109">
<g id="kvg:StrokePaths_05783" style="fill:none;stroke:#000000;stroke-width:3;stroke-linecap:round;stroke-linejoin:round;">
<g id="kvg:05783" kvg:element="垃">
	<g id="kvg:05783-g1" kvg:element="土" kvg:position="left" kvg:radical="general">
		<path id="kvg:05783-s1" kvg:type="㇐" d="M11.75,43.39c0.76,0.38,2.24,0.4,3,0.36c5.5-0.25,16.15-1.89,21.5-2.5c1.25-0.14,2.62-0.18,3.25,0.01"/>
		<path id="kvg:05783-s2" kvg:type="㇑a" d="M25.37,14.75c1.09,0.5,1.74,2.25,1.96,3.25c0.22,1,0,48.75-0.22,55"/>
		<path id="kvg:05783-s3" kvg:type="㇀/㇐" d="M13,79.68c0.82,1.32,2.47,2.03,4.93,0.29c6.85-4.85,13.97-9.36,20.82-14.21"/>
	</g>
	<g id="kvg:05783-g2" kvg:element="立" kvg:position="right">
		<g id="kvg:05783-g3" kvg:element="亠" kvg:position="top">
			<path id="kvg:05783-s4" kvg:type="㇑a" d="M66.83,14.25c1.56,1.17,2.34,1.17,2.34,3.9c0,2.73,0,9.2,0,16.6"/>
			<path id="kvg:05783-s5" kvg:type="㇐" d="M48.59,35.17c1.66,0.33,2.95,0.72,4.3,0.69c7.66-0.16,23.86-1.86,36.53-2.6c2.26-0.13,3.62,0.09,4.75,0.19"/>
		</g>
		<g id="kvg:05783-g4" kvg:position="bottom">
			<path id="kvg:05783-s6" kvg:type="㇔" d="M55.42,44.02c3.23,12.19,4.93,28.01,6.17,42.89"/>
			<path id="kvg:05783-s7" kvg:type="㇒" d="M84.1,39.54c0.72,1.52,0.81,2.3,0.72,3.56c-0.58,8.63-5.94,36.06-7.39,42.67"/>
			<path id="kvg:05783-s8" kvg:type="㇐" d="M41.5,90.34c1.19,0.36,2.58,0.4,3.76,0.36c12.74-0.44,30.99-2.7,47.59-2.64c1.98,0.01,3.17,0.17,4.16,0.35"/>
		</g>
	</g>
</g>
</g>
<g id="kvg:StrokeNumbers_05783" style="font-size:8;fill:#808080">
	<text transform="matrix(1 0 0 1 5.50 43.50)">1</text>
	<text transform="matrix(1 0 0 1 15.75 15.50)">2</text>
	<text transform="matrix(1 0 0 1 4.50 83.50)">3</text>
	<text transform="matrix(1 0 0 1 56.50 15.50)">4</text>
	<text transform="matrix(1 0 0 1 44.25 32.50)">5</text>
	<text transform="matrix(1 0 0 1 44.50 50.50)">6</text>
	<text transform="matrix(1 0 0 1 73.50 48.50)">7</text>
	<text transform="matrix(1 0 0 1 37.50 87.50)">8</text>
</g>
</svg>
