<?xml version="1.0" encoding="UTF-8"?>
<!--
Copyright (C) 2016 François Mizessyn.
This work makes an extensive use of kanjiVG Copyright (C) 2009/2010/2011 Ulrich Apel.
This work is distributed under the conditions of the Creative Commons
Attribution-Share Alike 3.0 Licence. This means you are free:
* to Share - to copy, distribute and transmit the work
* to Remix - to adapt the work

Under the following conditions:
* Attribution. You must attribute the work by stating your use of HanjiVG in
  your own copyright header and linking to HanjiVG's website
  (http://gooo.free.fr/hanziVG/)
* Attribution. You must attribute the work by stating your use of KanjiVG in
  your own copyright header and linking to KanjiVG's website
  (http://kanjivg.tagaini.net)
* Share Alike. If you alter, transform, or build upon this work, you may
  distribute the resulting work only under the same or similar license to this
  one.

See http://creativecommons.org/licenses/by-sa/3.0/ for more details.
-->
<!DOCTYPE svg PUBLIC "-//W3C//DTD SVG 1.0//EN" "http://www.w3.org/TR/2001/REC-SVG-20010904/DTD/svg10.dtd" [
<!ATTLIST g
xmlns:kvg CDATA #FIXED "http://kanjivg.tagaini.net"
kvg:element CDATA #IMPLIED
kvg:variant CDATA #IMPLIED
kvg:partial CDATA #IMPLIED
kvg:original CDATA #IMPLIED
kvg:part CDATA #IMPLIED
kvg:number CDATA #IMPLIED
kvg:tradForm CDATA #IMPLIED
kvg:radicalForm CDATA #IMPLIED
kvg:position CDATA #IMPLIED
kvg:radical CDATA #IMPLIED
kvg:phon CDATA #IMPLIED >
<!ATTLIST path
xmlns:kvg CDATA #FIXED "http://kanjivg.tagaini.net"
kvg:type CDATA #IMPLIED >
]>
<svg xmlns="http://www.w3.org/2000/svg" width="109" height="109" viewBox="0 0 109 109">
<g id="kvg:StrokePaths_05907" style="fill:none;stroke:#000000;stroke-width:3;stroke-linecap:round;stroke-linejoin:round;">
<g id="kvg:05907" kvg:element="备">
	<g id="kvg:05907-g1" kvg:element="夂" kvg:position="top" kvg:radical="nelson">
		<path id="kvg:05907-s1" kvg:type="㇒" d="M43.71,11.5c0.06,0.76,0.12,1.96-0.12,3.05c-1.44,6.43-9.72,20.54-21.06,29.17"/>
		<path id="kvg:05907-s2" kvg:type="㇇" d="M42.74,23.42c0.41,0.04,2.19,0.12,3.34-0.12c5.16-1.05,12.62-2.82,18.14-4.01c3.79-0.81,4.61,1.43,3.65,3.65C62.56,35.07,41.5,62.25,17.44,71.5"/>
		<path id="kvg:05907-s3" kvg:type="㇏" d="M37.71,28.93c5.79,5.32,29.16,23.45,41.36,32.01c3.23,2.27,6.51,4.69,10.3,5.81"/>
	</g>
	<g id="kvg:05907-g2" kvg:element="田" kvg:position="bottom" kvg:radical="tradit">
		<path id="kvg:05907-s4" kvg:type="㇑" d="M29.06,65.67c0.88,0.88,1.56,2.08,1.74,3.82c0.87,8.49,1.48,17.69,2.25,26.98c0.09,1.13,0.18,2.23,0.27,3.28"/>
		<path id="kvg:05907-s5" kvg:type="㇕a" d="M31.27,67.39c15.35-1.64,32.1-3.77,42.13-4.25c3.27-0.16,4.97,1.73,4.75,4.07c-0.55,5.89-2.5,18.49-4.69,28.49c-0.23,1.07-0.47,2.09-0.71,3.05"/>
		<path id="kvg:05907-s6" kvg:type="㇐a" d="M33.28,81.4c5.6-0.77,36.1-3.02,42.22-3.15"/>
		<path id="kvg:05907-s7" kvg:type="㇑a" d="M52.54,66.89C53.25,68,53.5,68.45,53.5,70c-0.02,7.31-0.03,22.09-0.03,24.47"/>
		<path id="kvg:05907-s8" kvg:type="㇐a" d="M34.2,96.97c10.3-0.72,25.93-1.85,38.05-2.22"/>
	</g>
</g>
</g>
<g id="kvg:StrokeNumbers_05907" style="font-size:8;fill:#808080">
	<text transform="matrix(1 0 0 1 35.50 12.50)">1</text>
	<text transform="matrix(1 0 0 1 46.50 19.50)">2</text>
	<text transform="matrix(1 0 0 1 34.50 43.50)">3</text>
	<text transform="matrix(1 0 0 1 22.25 79.50)">4</text>
	<text transform="matrix(1 0 0 1 26.50 61.50)">5</text>
	<text transform="matrix(1 0 0 1 34.00 78.13)">6</text>
	<text transform="matrix(1 0 0 1 48.50 61.50)">7</text>
	<text transform="matrix(1 0 0 1 34.50 93.13)">8</text>
</g>
</svg>
