<?xml version="1.0" encoding="UTF-8"?>
<!--
Copyright (C) 2016 François Mizessyn.
This work makes an extensive use of kanjiVG Copyright (C) 2009/2010/2011 Ulrich Apel.
This work is distributed under the conditions of the Creative Commons
Attribution-Share Alike 3.0 Licence. This means you are free:
* to Share - to copy, distribute and transmit the work
* to Remix - to adapt the work

Under the following conditions:
* Attribution. You must attribute the work by stating your use of HanjiVG in
  your own copyright header and linking to HanjiVG's website
  (http://gooo.free.fr/hanziVG/)
* Attribution. You must attribute the work by stating your use of KanjiVG in
  your own copyright header and linking to KanjiVG's website
  (http://kanjivg.tagaini.net)
* Share Alike. If you alter, transform, or build upon this work, you may
  distribute the resulting work only under the same or similar license to this
  one.

See http://creativecommons.org/licenses/by-sa/3.0/ for more details.
-->
<!DOCTYPE svg PUBLIC "-//W3C//DTD SVG 1.0//EN" "http://www.w3.org/TR/2001/REC-SVG-20010904/DTD/svg10.dtd" [
<!ATTLIST g
xmlns:kvg CDATA #FIXED "http://kanjivg.tagaini.net"
kvg:element CDATA #IMPLIED
kvg:variant CDATA #IMPLIED
kvg:partial CDATA #IMPLIED
kvg:original CDATA #IMPLIED
kvg:part CDATA #IMPLIED
kvg:number CDATA #IMPLIED
kvg:tradForm CDATA #IMPLIED
kvg:radicalForm CDATA #IMPLIED
kvg:position CDATA #IMPLIED
kvg:radical CDATA #IMPLIED
kvg:phon CDATA #IMPLIED >
<!ATTLIST path
xmlns:kvg CDATA #FIXED "http://kanjivg.tagaini.net"
kvg:type CDATA #IMPLIED >
]>
<svg xmlns="http://www.w3.org/2000/svg" width="109" height="109" viewBox="0 0 109 109">
<g id="kvg:StrokePaths_0591f" style="fill:none;stroke:#000000;stroke-width:3;stroke-linecap:round;stroke-linejoin:round;">
<g id="kvg:0591f" kvg:element="够">
	<g id="kvg:0591f-g1" kvg:element="句" kvg:position="left">
		<g id="kvg:0591f-g2" kvg:element="勹">
			<g id="kvg:0591f-g3" kvg:element="丿">
				<path id="kvg:0591f-s1" kvg:type="㇒" d="M26.92,13.85c0.04,0.73,0.09,1.87-0.08,2.92c-1.02,6.15-6.87,19.64-14.87,27.9"/>
			</g>
			<path id="kvg:0591f-s2" kvg:type="㇆" d="m23.04 30.85c0.67 0.69 1.54 0.69 2.67 0.46c6.38 -1.31 18.64 -2.79 21.29 -3.4c2 -0.46 2.81 1.59 2.81 4.8c-0.04 12.79 -4 41.29 -11.94 57.67c-2.48 5.11 -4.26 3.38 -6.47 -1.14"/>
		</g>
		<g id="kvg:0591f-g4" kvg:element="口">
			<path id="kvg:0591f-s3" kvg:type="㇑" d="M17.39,47.4c0.24,0.31,0.99,1.58,1.1,1.97c0.84,3.12,2.42,16.52,2.99,22.12"/>
			<path id="kvg:0591f-s4" kvg:type="㇕b" d="M18.82,49.03C24,48,32.53,46.21,36.14,45.68c1.32-0.19,2.19,0.91,1.92,2.73c-0.7,4.71-2.48,11.72-3.51,19.33"/>
			<path id="kvg:0591f-s5" kvg:type="㇐b" d="M21.82,69.85c3.96-0.53,10.48-1.44,15.92-2.25"/>
		</g>
	</g>
	<g id="kvg:0591f-g5" kvg:element="多" kvg:position="right">
		<g id="kvg:0591f-g6" kvg:element="夕" kvg:position="top" kvg:radical="tradit">
			<path id="kvg:0591f-s6" kvg:type="㇒" d="M68.78,13.17c0.16,0.25,0.51,0.99,0.39,1.49c-0.71,2.96-7.3,11.83-14.82,17.41"/>
			<path id="kvg:0591f-s7" kvg:type="㇇" d="M71.54,17.49c0.28,0.02,1.44-0.02,2.22-0.11c2.55-0.29,9.62-1.62,12.98-2.64c2.41-0.73,3.29,0.58,2.75,2.07c-2.96,8.14-19.37,28.17-34.82,32.53"/>
			<path id="kvg:0591f-s8" kvg:type="㇔" d="M64.4,28.83c2.29,1.46,6,6.08,6.65,8.42"/>
		</g>
		<g id="kvg:0591f-g7" kvg:element="夕" kvg:position="bottom" kvg:radical="tradit">
			<path id="kvg:0591f-s9" kvg:type="㇒" d="M75.74,45.75c0.28,0.41,0.6,1.23,0.24,1.99c-2.76,5.82-9.21,14.96-21.35,22.85"/>
			<path id="kvg:0591f-s10" kvg:type="㇇" d="M77.08,52.69c0.29,0.03,2.01,0.48,2.83,0.38c2.68-0.32,9.43-1.33,12.96-2.45c2.53-0.81,3.36,0.6,2.88,2.27C93.08,62.2,73.25,89,47.75,98.5"/>
			<path id="kvg:0591f-s11" kvg:type="㇔" d="M66.51,65.13c2.95,1.93,7.74,8.05,8.57,11.14"/>
		</g>
	</g>
</g>
</g>
<g id="kvg:StrokeNumbers_0591f" style="font-size:8;fill:#808080">
	<text transform="matrix(1 0 0 1 19.50 14.50)">1</text>
	<text transform="matrix(1 0 0 1 29.50 27.50)">2</text>
	<text transform="matrix(1 0 0 1 11.50 54.50)">3</text>
	<text transform="matrix(1 0 0 1 20.50 45.50)">4</text>
	<text transform="matrix(1 0 0 1 24.50 65.50)">5</text>
	<text transform="matrix(1 0 0 1 60.50 15.50)">6</text>
	<text transform="matrix(1 0 0 1 72.50 14.50)">7</text>
	<text transform="matrix(1 0 0 1 57.75 37.50)">8</text>
	<text transform="matrix(1 0 0 1 63.50 51.50)">9</text>
	<text transform="matrix(1 0 0 1 80.50 49.50)">10</text>
	<text transform="matrix(1 0 0 1 60.75 75.50)">11</text>
</g>
</svg>
