<?xml version="1.0" encoding="UTF-8"?>
<!--
Copyright (C) 2016 François Mizessyn.
This work makes an extensive use of kanjiVG Copyright (C) 2009/2010/2011 Ulrich Apel.
This work is distributed under the conditions of the Creative Commons
Attribution-Share Alike 3.0 Licence. This means you are free:
* to Share - to copy, distribute and transmit the work
* to Remix - to adapt the work

Under the following conditions:
* Attribution. You must attribute the work by stating your use of HanjiVG in
  your own copyright header and linking to HanjiVG's website
  (http://gooo.free.fr/hanziVG/)
* Attribution. You must attribute the work by stating your use of KanjiVG in
  your own copyright header and linking to KanjiVG's website
  (http://kanjivg.tagaini.net)
* Share Alike. If you alter, transform, or build upon this work, you may
  distribute the resulting work only under the same or similar license to this
  one.

See http://creativecommons.org/licenses/by-sa/3.0/ for more details.
-->
<!DOCTYPE svg PUBLIC "-//W3C//DTD SVG 1.0//EN" "http://www.w3.org/TR/2001/REC-SVG-20010904/DTD/svg10.dtd" [
<!ATTLIST g
xmlns:kvg CDATA #FIXED "http://kanjivg.tagaini.net"
kvg:element CDATA #IMPLIED
kvg:variant CDATA #IMPLIED
kvg:partial CDATA #IMPLIED
kvg:original CDATA #IMPLIED
kvg:part CDATA #IMPLIED
kvg:number CDATA #IMPLIED
kvg:tradForm CDATA #IMPLIED
kvg:radicalForm CDATA #IMPLIED
kvg:position CDATA #IMPLIED
kvg:radical CDATA #IMPLIED
kvg:phon CDATA #IMPLIED >
<!ATTLIST path
xmlns:kvg CDATA #FIXED "http://kanjivg.tagaini.net"
kvg:type CDATA #IMPLIED >
]>
<svg xmlns="http://www.w3.org/2000/svg" width="109" height="109" viewBox="0 0 109 109">
<g id="kvg:StrokePaths_05934" style="fill:none;stroke:#000000;stroke-width:3;stroke-linecap:round;stroke-linejoin:round;">
<g id="kvg:05934" kvg:element="头">
	<g id="kvg:05934-g1" kvg:element="大">
		<path id="kvg:05934-s1" kvg:type="㇔" d="m42.42 14.21c2.51 2.26 8.97 15.11 8.5 16.04"/>
		<path id="kvg:05934-s2" kvg:type="㇔" d="m30.42 22.48c2.51 2.26 8.97 15.11 8.5 16.04"/>
		<path id="kvg:05934-s3" kvg:type="㇐" d="m18.8 52.02c1.29 0.58 4.72 1.23 7.45 0.99c18.48 -1.7 42.75 -5.11 59.34 -5.94c2.85 -0.14 5.15 -0.06 7.72 0.38"/>
		<path id="kvg:05934-s4" kvg:type="㇒" d="m58.35 15.03c0.58 0.88 0.89 1.92 0.87 8.08c-0.28 33.35 -13.47 52.71 -43.38 68.22"/>
		<path id="kvg:05934-s5" kvg:type="㇏" d="m55.29 49.45c7.71 10.25 25.7 36.34 33.4 43.17c2.62 2.32 3.53 2.68 4.72 2.9"/>
	</g>
</g>
</g>
<g id="kvg:StrokeNumbers_05934" style="font-size:8;fill:#808080">
	<text transform="matrix(1 0 0 1 8.50 49.13)">1</text>
	<text transform="matrix(1 0 0 1 60.50 12.50)">2</text>
	<text transform="matrix(1 0 0 1 66.25 62.63)">3</text>
	<text transform="matrix(1 0 0 1 19.50 20.50)">4</text>
	<text transform="matrix(1 0 0 1 32.50 12.50)">5</text>
</g>
</svg>
