<?xml version="1.0" encoding="UTF-8"?>
<!--
Copyright (C) 2016 François Mizessyn.
This work makes an extensive use of kanjiVG Copyright (C) 2009/2010/2011 Ulrich Apel.
This work is distributed under the conditions of the Creative Commons
Attribution-Share Alike 3.0 Licence. This means you are free:
* to Share - to copy, distribute and transmit the work
* to Remix - to adapt the work

Under the following conditions:
* Attribution. You must attribute the work by stating your use of HanjiVG in
  your own copyright header and linking to HanjiVG's website
  (http://gooo.free.fr/hanziVG/)
* Attribution. You must attribute the work by stating your use of KanjiVG in
  your own copyright header and linking to KanjiVG's website
  (http://kanjivg.tagaini.net)
* Share Alike. If you alter, transform, or build upon this work, you may
  distribute the resulting work only under the same or similar license to this
  one.

See http://creativecommons.org/licenses/by-sa/3.0/ for more details.
-->
<!DOCTYPE svg PUBLIC "-//W3C//DTD SVG 1.0//EN" "http://www.w3.org/TR/2001/REC-SVG-20010904/DTD/svg10.dtd" [
<!ATTLIST g
xmlns:kvg CDATA #FIXED "http://kanjivg.tagaini.net"
kvg:element CDATA #IMPLIED
kvg:variant CDATA #IMPLIED
kvg:partial CDATA #IMPLIED
kvg:original CDATA #IMPLIED
kvg:part CDATA #IMPLIED
kvg:number CDATA #IMPLIED
kvg:tradForm CDATA #IMPLIED
kvg:radicalForm CDATA #IMPLIED
kvg:position CDATA #IMPLIED
kvg:radical CDATA #IMPLIED
kvg:phon CDATA #IMPLIED >
<!ATTLIST path
xmlns:kvg CDATA #FIXED "http://kanjivg.tagaini.net"
kvg:type CDATA #IMPLIED >
]>
<svg xmlns="http://www.w3.org/2000/svg" width="109" height="109" viewBox="0 0 109 109">
<g id="kvg:StrokePaths_05956" style="fill:none;stroke:#000000;stroke-width:3;stroke-linecap:round;stroke-linejoin:round;">
<g id="kvg:05956" kvg:element="奖">
	<g id="kvg:05956-g1" kvg:position="top">
		<g id="kvg:05956-g2" kvg:element="⺦" kvg:variant="true" kvg:original="爿" kvg:position="left">
			<path id="kvg:05956-s1" kvg:type="㇑" d="m41.55 11.47c0.99 0.99 1.08 2.15 1.08 3.1c0 2.96 0.02 17.93 0.04 28.68c0.01 4.43 0.01 8.14 0.01 10"/>
			<path id="kvg:05956-s2" kvg:type="㇔" d="m23.11 17.62c3.58 1.9 9.26 7.81 10.15 10.76"/>
			<path id="kvg:05956-s3" kvg:type="㇀" d="m19.75 48.49c1.99 0.65 3.31 0.37 4.56 -0.43c3.64 -2.35 8.34 -5.22 11.65 -8.21"/>
		</g>
		<g id="kvg:05956-g3" kvg:element="夕" kvg:position="right">
			<path id="kvg:05956-s4" kvg:type="㇒" d="m73.44 13.58c0.47 0.87 -0.25 2 -0.69 2.83c-3.03 5.67 -9.9 14.35 -20.29 20.37"/>
			<path id="kvg:05956-s5" kvg:type="㇇" d="m73.82 20.31c0.27 0.03 2.64 0 3.41 -0.09c2.3 -0.24 7.32 -1.1 10.77 -1.98c2.76 -0.69 4.91 -0.01 4.02 2.14c-3.48 8.48 -20.01 25.79 -37.09 31.67"/>
			<path id="kvg:05956-s6" kvg:type="㇔" d="m67.13 30.14c2.91 0.97 7.53 3.99 8.27 5.5"/>
		</g>
	</g>
	<g id="kvg:05956-g4" kvg:element="大" kvg:position="bottom">
		<path id="kvg:05956-s7" kvg:type="㇐" d="m17.27 71.64c1.08 0.24 4.74 0.55 6.81 0.4c10.83 -0.74 48.33 -2.97 61.39 -3.49c1.49 -0.06 3.61 0.09 6.94 0.51"/>
		<path id="kvg:05956-s8" kvg:type="㇒" d="m53.06 60.75c0.44 0.8 0.55 1.8 0.6 2.8c0.59 13.4 -7.41 26.6 -32.03 32.6"/>
		<path id="kvg:05956-s9" kvg:type="㇏" d="m56.26 70.65c6.8 6.98 20.02 18.78 28.69 23.76c2.28 1.31 3.11 1.47 4.16 1.6"/>
	</g>
</g>
</g>
<g id="kvg:StrokeNumbers_05956" style="font-size:8;fill:#808080">
	<text transform="matrix(1 0 0 1 31.25 13.50)">1</text>
	<text transform="matrix(1 0 0 1 13.50 19.50)">2</text>
	<text transform="matrix(1 0 0 1 9.50 51.50)">3</text>
	<text transform="matrix(1 0 0 1 65.50 12.13)">4</text>
	<text transform="matrix(1 0 0 1 75.50 17.50)">5</text>
	<text transform="matrix(1 0 0 1 55.50 26.50)">6</text>
	<text transform="matrix(1 0 0 1 8.50 75.50)">7</text>
	<text transform="matrix(1 0 0 1 43.50 60.50)">8</text>
	<text transform="matrix(1 0 0 1 70.50 82.50)">9</text>
</g>
</svg>
