<?xml version="1.0" encoding="UTF-8"?>
<!--
Copyright (C) 2016 François Mizessyn.
This work makes an extensive use of kanjiVG Copyright (C) 2009/2010/2011 Ulrich Apel.
This work is distributed under the conditions of the Creative Commons
Attribution-Share Alike 3.0 Licence. This means you are free:
* to Share - to copy, distribute and transmit the work
* to Remix - to adapt the work

Under the following conditions:
* Attribution. You must attribute the work by stating your use of HanjiVG in
  your own copyright header and linking to HanjiVG's website
  (http://gooo.free.fr/hanziVG/)
* Attribution. You must attribute the work by stating your use of KanjiVG in
  your own copyright header and linking to KanjiVG's website
  (http://kanjivg.tagaini.net)
* Share Alike. If you alter, transform, or build upon this work, you may
  distribute the resulting work only under the same or similar license to this
  one.

See http://creativecommons.org/licenses/by-sa/3.0/ for more details.
-->
<!DOCTYPE svg PUBLIC "-//W3C//DTD SVG 1.0//EN" "http://www.w3.org/TR/2001/REC-SVG-20010904/DTD/svg10.dtd" [
<!ATTLIST g
xmlns:kvg CDATA #FIXED "http://kanjivg.tagaini.net"
kvg:element CDATA #IMPLIED
kvg:variant CDATA #IMPLIED
kvg:partial CDATA #IMPLIED
kvg:original CDATA #IMPLIED
kvg:part CDATA #IMPLIED
kvg:number CDATA #IMPLIED
kvg:tradForm CDATA #IMPLIED
kvg:radicalForm CDATA #IMPLIED
kvg:position CDATA #IMPLIED
kvg:radical CDATA #IMPLIED
kvg:phon CDATA #IMPLIED >
<!ATTLIST path
xmlns:kvg CDATA #FIXED "http://kanjivg.tagaini.net"
kvg:type CDATA #IMPLIED >
]>
<svg xmlns="http://www.w3.org/2000/svg" width="109" height="109" viewBox="0 0 109 109">
<g id="kvg:StrokePaths_05979" style="fill:none;stroke:#000000;stroke-width:3;stroke-linecap:round;stroke-linejoin:round;">
<g id="kvg:05979" kvg:element="她">
	<g id="kvg:05979-g1" kvg:element="女" kvg:variant="true" kvg:position="left" kvg:radical="general">
		<path id="kvg:05979-s1" kvg:type="㇛" d="M30.62,20.12c0.88,1.26,1.07,2.99,0.88,4.63c-0.97,8.06-4.74,28.25-9.02,37.68c-0.88,1.94,0.37,2.8,0.88,2.87c4.97,0.64,10.79,3.67,15.66,8.56c2.37,2.38,4.52,5.2,6.24,8.39"/>
		<path id="kvg:05979-s2" kvg:type="㇒" d="M43.75,38.75c0.08,1.16,0.14,3.99-0.17,5.67c-2.52,13.62-9.8,33.19-27.83,43.33"/>
		<path id="kvg:05979-s3" kvg:type="㇀/㇐" d="M13,48.46c0.75,1.04,2.25,1.29,4.25,1.04c2.15-0.27,22.09-5.13,31-7.78"/>
	</g>
	<g id="kvg:05979-g2" kvg:element="也" kvg:position="right">
		<path id="kvg:05979-s4" kvg:type="㇆v" d="M47.25,47.74C50.5,49,53,49,55.79,48.26C64,46.09,84,39,90.36,36.61c2.64-0.99,4.64,0.64,4.33,3.32C93.86,47.15,90.04,64.6,88,69.86c-2,5.14-4.25,3.64-6.55,0.5"/>
		<path id="kvg:05979-s15" kvg:type="㇑" d="M71.28,17.25c1.04,0.5,1.67,2.25,1.88,3.25s-0.21,53.75-0.21,60"/>
		<g id="kvg:05979-g3" kvg:element="乙" kvg:variant="true">
			<path id="kvg:05979-s6" kvg:type="㇟" d="M55.96,26.87C57,28,57.73,30,57.73,31.97c0,6.86-0.53,38.04-0.53,46.28c0,14.51,1.8,16.26,20.34,16.26c18.21,0,19.85-2.25,19.85-13.07"/>
		</g>
	</g>
</g>
</g>
<g id="kvg:StrokeNumbers_05979" style="font-size:8;fill:#808080">
	<text transform="matrix(1 0 0 1 21.75 18.13)">1</text>
	<text transform="matrix(1 0 0 1 42.75 33.13)">2</text>
	<text transform="matrix(1 0 0 1 5.25 48.13)">3</text>
	<text transform="matrix(1 0 0 1 44.50 64.50)">4</text>
	<text transform="matrix(1 0 0 1 59.25 17.50)">5</text>
	<text transform="matrix(1 0 0 1 49.50 19.50)">6</text>
</g>
</svg>
