<?xml version="1.0" encoding="UTF-8"?>
<!--
Copyright (C) 2016 François Mizessyn.
This work makes an extensive use of kanjiVG Copyright (C) 2009/2010/2011 Ulrich Apel.
This work is distributed under the conditions of the Creative Commons
Attribution-Share Alike 3.0 Licence. This means you are free:
* to Share - to copy, distribute and transmit the work
* to Remix - to adapt the work

Under the following conditions:
* Attribution. You must attribute the work by stating your use of HanjiVG in
  your own copyright header and linking to HanjiVG's website
  (http://gooo.free.fr/hanziVG/)
* Attribution. You must attribute the work by stating your use of KanjiVG in
  your own copyright header and linking to KanjiVG's website
  (http://kanjivg.tagaini.net)
* Share Alike. If you alter, transform, or build upon this work, you may
  distribute the resulting work only under the same or similar license to this
  one.

See http://creativecommons.org/licenses/by-sa/3.0/ for more details.
-->
<!DOCTYPE svg PUBLIC "-//W3C//DTD SVG 1.0//EN" "http://www.w3.org/TR/2001/REC-SVG-20010904/DTD/svg10.dtd" [
<!ATTLIST g
xmlns:kvg CDATA #FIXED "http://kanjivg.tagaini.net"
kvg:element CDATA #IMPLIED
kvg:variant CDATA #IMPLIED
kvg:partial CDATA #IMPLIED
kvg:original CDATA #IMPLIED
kvg:part CDATA #IMPLIED
kvg:number CDATA #IMPLIED
kvg:tradForm CDATA #IMPLIED
kvg:radicalForm CDATA #IMPLIED
kvg:position CDATA #IMPLIED
kvg:radical CDATA #IMPLIED
kvg:phon CDATA #IMPLIED >
<!ATTLIST path
xmlns:kvg CDATA #FIXED "http://kanjivg.tagaini.net"
kvg:type CDATA #IMPLIED >
]>
<svg xmlns="http://www.w3.org/2000/svg" width="109" height="109" viewBox="0 0 109 109">
<g id="kvg:StrokePaths_05976" style="fill:none;stroke:#000000;stroke-width:3;stroke-linecap:round;stroke-linejoin:round;">
<g id="kvg:05976" kvg:element="奶">
	<g id="kvg:05976-g1" kvg:element="女" kvg:variant="true" kvg:position="left" kvg:radical="general">
		<path id="kvg:05976-s1" kvg:type="㇛" d="M30.62,20.12c0.88,1.26,1.07,2.99,0.88,4.63c-0.97,8.06-4.74,28.25-9.02,37.68c-0.88,1.94,0.37,2.8,0.88,2.87c4.97,0.64,10.79,3.67,15.66,8.56c2.37,2.38,4.52,5.2,6.24,8.39"/>
		<path id="kvg:05976-s2" kvg:type="㇒" d="M43.75,38.75c0.08,1.16,0.14,3.99-0.17,5.67c-2.52,13.62-9.8,33.19-27.83,43.33"/>
		<path id="kvg:05976-s3" kvg:type="㇀/㇐" d="M13,48.46c0.75,1.04,2.25,1.29,4.25,1.04c2.15-0.27,22.09-5.13,31-7.78"/>
	</g>
	<g id="kvg:05976-g2" kvg:element="乃" kvg:position="right">
		<g id="kvg:05976-g3" kvg:element="丿">
			<path id="kvg:05976-s3" kvg:type="㇒" d="M63.21,22.68c0.43,1.42,0.54,3.64,0.21,5.95c-2.37,17.1-8.02,43.66-25.29,62.03"/>
		</g>
		<path id="kvg:05976-s4" kvg:type="㇌" d="M49.77,19c1.46,0.75,3.56,0.91,5.01,0.75c11.28-1.25,18.48-3,29.35-4.75c2.72-0.44,4.07,1.74,3.13,3.75C81.34,25,75.82,37.5,72.9,44c-0.58,1.28-0.25,3.33,1.46,3c5.14-1,13.03-2.25,17.62-3.25c2.5-0.54,3.69,0.74,3.3,3.25C93,61.75,89,78.75,81.99,89.25c-4.29,6.42-7.52,2.5-9.19-1"/>
	</g>
</g>
</g>
<g id="kvg:StrokeNumbers_05976" style="font-size:8;fill:#808080">
	<text transform="matrix(1 0 0 1 21.75 18.13)">1</text>
	<text transform="matrix(1 0 0 1 42.75 33.13)">2</text>
	<text transform="matrix(1 0 0 1 5.25 48.13)">3</text>
	<text transform="matrix(1 0 0 1 52.50 29.50)">4</text>
	<text transform="matrix(1 0 0 1 44.50 15.50)">5</text>
</g>
</svg>
