<?xml version="1.0" encoding="UTF-8"?>
<!--
Copyright (C) 2016 François Mizessyn.
This work makes an extensive use of kanjiVG Copyright (C) 2009/2010/2011 Ulrich Apel.
This work is distributed under the conditions of the Creative Commons
Attribution-Share Alike 3.0 Licence. This means you are free:
* to Share - to copy, distribute and transmit the work
* to Remix - to adapt the work

Under the following conditions:
* Attribution. You must attribute the work by stating your use of HanjiVG in
  your own copyright header and linking to HanjiVG's website
  (http://gooo.free.fr/hanziVG/)
* Attribution. You must attribute the work by stating your use of KanjiVG in
  your own copyright header and linking to KanjiVG's website
  (http://kanjivg.tagaini.net)
* Share Alike. If you alter, transform, or build upon this work, you may
  distribute the resulting work only under the same or similar license to this
  one.

See http://creativecommons.org/licenses/by-sa/3.0/ for more details.
-->
<!DOCTYPE svg PUBLIC "-//W3C//DTD SVG 1.0//EN" "http://www.w3.org/TR/2001/REC-SVG-20010904/DTD/svg10.dtd" [
<!ATTLIST g
xmlns:kvg CDATA #FIXED "http://kanjivg.tagaini.net"
kvg:element CDATA #IMPLIED
kvg:variant CDATA #IMPLIED
kvg:partial CDATA #IMPLIED
kvg:original CDATA #IMPLIED
kvg:part CDATA #IMPLIED
kvg:number CDATA #IMPLIED
kvg:tradForm CDATA #IMPLIED
kvg:radicalForm CDATA #IMPLIED
kvg:position CDATA #IMPLIED
kvg:radical CDATA #IMPLIED
kvg:phon CDATA #IMPLIED >
<!ATTLIST path
xmlns:kvg CDATA #FIXED "http://kanjivg.tagaini.net"
kvg:type CDATA #IMPLIED >
]>
<svg xmlns="http://www.w3.org/2000/svg" width="109" height="109" viewBox="0 0 109 109">
<g id="kvg:StrokePaths_05988" style="fill:none;stroke:#000000;stroke-width:3;stroke-linecap:round;stroke-linejoin:round;">
<g id="kvg:05988" kvg:element="妈">
	<g id="kvg:05988-g1" kvg:element="女" kvg:variant="true" kvg:position="left" kvg:radical="general">
		<path id="kvg:05988-s1" kvg:type="㇛" d="M29.33,14.12c0.79,1.38,1.04,3.35,0.85,5.06c-0.94,8.36-4.83,32.78-8.96,42.56c-0.85,2.01,0.39,2.79,0.85,2.97c5.7,2.28,11.04,5.41,15.17,9.43c2.52,2.46,4.59,5.26,6.02,8.4"/>
		<path id="kvg:05988-s2" kvg:type="㇒" d="M41.12,35.88c0.5,1.4,0.71,2.83,0.35,4.75c-3.22,17.12-10.1,38.5-24.72,50.12"/>
		<path id="kvg:05988-s3" kvg:type="㇀/㇐" d="M9.75,47.46c0.75,0.99,1.88,1.17,3.01,0.99c2.15-0.34,22.82-5.19,33.86-7.59"/>
	</g>
	<g id="kvg:05988-g2" kvg:element="马" kvg:position="right">
		<path kvg:type="㇕" id="kvg:05988-s4" d="M50.94 18.6C52.53 18.48 76.3 14.4 77.85 14.4C80.14 14.4 81.27 16.38 81.06 18.33C80.93 19.51 79.34 27.62 77.65 41.38"/>
		<path kvg:type="㇉" id="kvg:05988-s5" d="M52.56 18.98C52.89 19.42 53.25 21.74 53.25 22.47C53.22 29.8 53.12 59.02 52.86 57.08C63.36 55.15 85.58 52.34 91.4 51.75C95.18 51.37 96.81 52.7 96.41 57.04C94.99 72.29 91.94 83.51 89.57 89.56C85.46 100.06 83.69 96.13 79.87 90.03"/>
		<path kvg:type="㇐b" id="kvg:05988-s6" d="M52.23 73.86C60.52 72.96 79.89 70.31 83.45 69.75C84.69 69.57 86.8 69.39 87.43 69.64"/>
	</g>
</g>
</g>
<g id="kvg:StrokeNumbers_05988" style="font-size:8;fill:#808080">
	<text transform="matrix(1 0 0 1 20.50 16.50)">1</text>
	<text transform="matrix(1 0 0 1 33.50 33.50)">2</text>
	<text transform="matrix(1 0 0 1 1.50 44.50)">3</text>
	<text transform="matrix(1 0 0 1 53.50 14.50)">4</text>
	<text transform="matrix(1 0 0 1 41.50 26.50)">5</text>
	<text transform="matrix(1 0 0 1 45.50 70.95)">6</text>
</g>
</svg>
