<?xml version="1.0" encoding="UTF-8"?>
<!--
Copyright (C) 2016 François Mizessyn.
This work makes an extensive use of kanjiVG Copyright (C) 2009/2010/2011 Ulrich Apel.
This work is distributed under the conditions of the Creative Commons
Attribution-Share Alike 3.0 Licence. This means you are free:
* to Share - to copy, distribute and transmit the work
* to Remix - to adapt the work

Under the following conditions:
* Attribution. You must attribute the work by stating your use of HanjiVG in
  your own copyright header and linking to HanjiVG's website
  (http://gooo.free.fr/hanziVG/)
* Attribution. You must attribute the work by stating your use of KanjiVG in
  your own copyright header and linking to KanjiVG's website
  (http://kanjivg.tagaini.net)
* Share Alike. If you alter, transform, or build upon this work, you may
  distribute the resulting work only under the same or similar license to this
  one.

See http://creativecommons.org/licenses/by-sa/3.0/ for more details.
-->
<!DOCTYPE svg PUBLIC "-//W3C//DTD SVG 1.0//EN" "http://www.w3.org/TR/2001/REC-SVG-20010904/DTD/svg10.dtd" [
<!ATTLIST g
xmlns:kvg CDATA #FIXED "http://kanjivg.tagaini.net"
kvg:element CDATA #IMPLIED
kvg:variant CDATA #IMPLIED
kvg:partial CDATA #IMPLIED
kvg:original CDATA #IMPLIED
kvg:part CDATA #IMPLIED
kvg:number CDATA #IMPLIED
kvg:tradForm CDATA #IMPLIED
kvg:radicalForm CDATA #IMPLIED
kvg:position CDATA #IMPLIED
kvg:radical CDATA #IMPLIED
kvg:phon CDATA #IMPLIED >
<!ATTLIST path
xmlns:kvg CDATA #FIXED "http://kanjivg.tagaini.net"
kvg:type CDATA #IMPLIED >
]>
<svg xmlns="http://www.w3.org/2000/svg" width="109" height="109" viewBox="0 0 109 109">
<g id="kvg:StrokePaths_05b59" style="fill:none;stroke:#000000;stroke-width:3;stroke-linecap:round;stroke-linejoin:round;">
<g id="kvg:05b59" kvg:element="孙">
	<g id="kvg:05b59-g1" kvg:element="子" kvg:variant="true" kvg:position="left" kvg:radical="general">
		<path id="kvg:05b59-s1" kvg:type="㇖" d="M15.29,27.74c2.13,0.74,3.98,0.91,6.12,0.38c6.1-1.5,15.64-3.98,18.72-4.62c1.61-0.33,3.28,0.86,1.78,2.91C36,29,30.5,35.5,24.81,42.61"/>
		<path id="kvg:05b59-s2" kvg:type="㇕v" d="M28.02,43.24c6.88,2.84,10.48,23.8,4.97,41.99c-2.97,9.79-8.21,2.06-9.46,1.26"/>
		<path id="kvg:05b59-s3" kvg:type="㇀/㇐" d="M14.5,61.33c1.34,0.97,2.54,1.09,4.73,0.09C26,56.5,31.5,53.5,40.25,49.4"/>
	</g>
	<g id="kvg:05b59-g2" kvg:element="小" kvg:radical="general">
		<path id="kvg:05b59-s4" kvg:type="㇚" d="M69.66 18.37c0.81 1.4 1.3 3.13 1.3 5.77c0 14.56 -0.15 54.91 -0.15 59.87c0 11.25 -4.16 1.5 -5.04 0.25"/>
		<path id="kvg:05b59-s5" kvg:type="㇒" d="M56.51 47.68c0.11 0.82 0.06 1.72 -0.2 2.9c-1.22 5.8 -4.17 15.67 -8.58 22.42"/>
		<path id="kvg:05b59-s6" kvg:type="㇔" d="M84.81 47.12c3.27 4.88 8.26 17.5 9.26 24.88"/>
	</g>
</g>
</g>
<g id="kvg:StrokeNumbers_05b59" style="font-size:8;fill:#808080">
	<text transform="matrix(1 0 0 1 5.50 28.50)">1</text>
	<text transform="matrix(1 0 0 1 14.75 48.13)">2</text>
	<text transform="matrix(1 0 0 1 4.50 65.50)">3</text>
	<text transform="matrix(1 0 0 1 70.50 16.63)">4</text>
	<text transform="matrix(1 0 0 1 56.75 43.13)">5</text>
	<text transform="matrix(1 0 0 1 76.50 42.50)">6</text>
</g>
</svg>
