<?xml version="1.0" encoding="UTF-8"?>
<!--
Copyright (C) 2016 François Mizessyn.
This work makes an extensive use of kanjiVG Copyright (C) 2009/2010/2011 Ulrich Apel.
This work is distributed under the conditions of the Creative Commons
Attribution-Share Alike 3.0 Licence. This means you are free:
* to Share - to copy, distribute and transmit the work
* to Remix - to adapt the work

Under the following conditions:
* Attribution. You must attribute the work by stating your use of HanjiVG in
  your own copyright header and linking to HanjiVG's website
  (http://gooo.free.fr/hanziVG/)
* Attribution. You must attribute the work by stating your use of KanjiVG in
  your own copyright header and linking to KanjiVG's website
  (http://kanjivg.tagaini.net)
* Share Alike. If you alter, transform, or build upon this work, you may
  distribute the resulting work only under the same or similar license to this
  one.

See http://creativecommons.org/licenses/by-sa/3.0/ for more details.
-->
<!DOCTYPE svg PUBLIC "-//W3C//DTD SVG 1.0//EN" "http://www.w3.org/TR/2001/REC-SVG-20010904/DTD/svg10.dtd" [
<!ATTLIST g
xmlns:kvg CDATA #FIXED "http://kanjivg.tagaini.net"
kvg:element CDATA #IMPLIED
kvg:variant CDATA #IMPLIED
kvg:partial CDATA #IMPLIED
kvg:original CDATA #IMPLIED
kvg:part CDATA #IMPLIED
kvg:number CDATA #IMPLIED
kvg:tradForm CDATA #IMPLIED
kvg:radicalForm CDATA #IMPLIED
kvg:position CDATA #IMPLIED
kvg:radical CDATA #IMPLIED
kvg:phon CDATA #IMPLIED >
<!ATTLIST path
xmlns:kvg CDATA #FIXED "http://kanjivg.tagaini.net"
kvg:type CDATA #IMPLIED >
]>
<svg xmlns="http://www.w3.org/2000/svg" width="109" height="109" viewBox="0 0 109 109">
<g id="kvg:StrokePaths_05b9e" style="fill:none;stroke:#000000;stroke-width:3;stroke-linecap:round;stroke-linejoin:round;">
<g id="kvg:05b9e" kvg:element="实" kvg:radical="general">
	<g id="kvg:05b9e-g1" kvg:element="宀" kvg:position="top" kvg:radical="general">
		<path id="kvg:05b9e-s1" kvg:type="㇑a" d="M52.36,12.61c1.08,1.08,1.72,2.64,1.72,4.29c0,3.66-0.08,5.65-0.08,8.98"/>
		<g id="kvg:05b9e-g2" kvg:element="冖">
			<path id="kvg:05b9e-s2" kvg:type="㇔" d="M22,26.12c0,4.14-4.3,15.51-6.25,18.27"/>
			<path id="kvg:05b9e-s3" kvg:type="㇖b" d="M22.35,30.52c14.9-1.52,43.02-5.4,63.71-6.1c11.31-0.38,1.9,7.47-0.92,9.45"/>
		</g>
	</g>
	<g id="kvg:05b9e-g3" kvg:element="头">
		<path id="kvg:05b9e-s4" kvg:type="㇔" d="m40.42 37.23c2.51 1.7 8.97 11.3 8.5 11.99"/>
		<path id="kvg:05b9e-s5" kvg:type="㇔" d="m28.42 43.42c2.51 1.7 8.97 11.3 8.5 11.99"/>
		<g id="kvg:05b9e-g4" kvg:element="大">
			<path id="kvg:05b9e-s6" kvg:type="㇐" d="m18.8 63.51c1.29 0.43 4.72 0.93 7.45 0.74c18.48 -1.27 42.75 -3.83 59.34 -4.44c2.85 -0.09 5.15 -0.05 7.72 0.28"/>
			<path id="kvg:05b9e-s7" kvg:type="㇒" d="m58.35 35.85c0.58 0.66 0.89 1.43 0.87 6.04c-0.28 24.94 -13.47 39.42 -43.38 51.01"/>
			<path id="kvg:05b9e-s8" kvg:type="㇏" d="m55.29 61.59c7.71 7.66 25.7 27.17 33.4 32.28c2.62 1.74 3.53 2 4.72 2.18"/>
		</g>
	</g>
</g>
</g>
<g id="kvg:StrokeNumbers_05b9e" style="font-size:8;fill:#808080">
	<text transform="matrix(1 0 0 1 44.25 12.13)">1</text>
	<text transform="matrix(1 0 0 1 10.25 30.13)">2</text>
	<text transform="matrix(1 0 0 1 20.50 26.50)">3</text>
	<text transform="matrix(1 0 0 1 31.50 36.13)">4</text>
	<text transform="matrix(1 0 0 1 20.50 42.50)">5</text>
	<text transform="matrix(1 0 0 1 11.25 59.63)">6</text>
	<text transform="matrix(1 0 0 1 51.50 34.50)">7</text>
	<text transform="matrix(1 0 0 1 68.50 70.50)">8</text>
</g>
</svg>
