<?xml version="1.0" encoding="UTF-8"?>
<!--
Copyright (C) 2016 François Mizessyn.
This work makes an extensive use of kanjiVG Copyright (C) 2009/2010/2011 Ulrich Apel.
This work is distributed under the conditions of the Creative Commons
Attribution-Share Alike 3.0 Licence. This means you are free:
* to Share - to copy, distribute and transmit the work
* to Remix - to adapt the work

Under the following conditions:
* Attribution. You must attribute the work by stating your use of HanjiVG in
  your own copyright header and linking to HanjiVG's website
  (http://gooo.free.fr/hanziVG/)
* Attribution. You must attribute the work by stating your use of KanjiVG in
  your own copyright header and linking to KanjiVG's website
  (http://kanjivg.tagaini.net)
* Share Alike. If you alter, transform, or build upon this work, you may
  distribute the resulting work only under the same or similar license to this
  one.

See http://creativecommons.org/licenses/by-sa/3.0/ for more details.
-->
<!DOCTYPE svg PUBLIC "-//W3C//DTD SVG 1.0//EN" "http://www.w3.org/TR/2001/REC-SVG-20010904/DTD/svg10.dtd" [
<!ATTLIST g
xmlns:kvg CDATA #FIXED "http://kanjivg.tagaini.net"
kvg:element CDATA #IMPLIED
kvg:variant CDATA #IMPLIED
kvg:partial CDATA #IMPLIED
kvg:original CDATA #IMPLIED
kvg:part CDATA #IMPLIED
kvg:number CDATA #IMPLIED
kvg:tradForm CDATA #IMPLIED
kvg:radicalForm CDATA #IMPLIED
kvg:position CDATA #IMPLIED
kvg:radical CDATA #IMPLIED
kvg:phon CDATA #IMPLIED >
<!ATTLIST path
xmlns:kvg CDATA #FIXED "http://kanjivg.tagaini.net"
kvg:type CDATA #IMPLIED >
]>
<svg xmlns="http://www.w3.org/2000/svg" width="109" height="109" viewBox="0 0 109 109">
<g id="kvg:StrokePaths_05bbe" style="fill:none;stroke:#000000;stroke-width:3;stroke-linecap:round;stroke-linejoin:round;">
<g id="kvg:05bbe" kvg:element="宾">
	<g id="kvg:05bbe-g1" kvg:element="宀" kvg:position="top" kvg:radical="nelson">
		<path id="kvg:05bbe-s1" kvg:type="㇑a" d="M52.73,9.5c1.01,1.01,1.75,2.25,1.75,3.76c0,3.53-0.09,5.73-0.1,8.95"/>
		<g id="kvg:05bbe-g2" kvg:element="冖">
			<path id="kvg:05bbe-s2" kvg:type="㇔" d="M21.88,24c0,3.37-4.06,14.25-5.62,16.5"/>
			<path id="kvg:05bbe-s3" kvg:type="㇖b" d="M24.07,26.66c16.68-1.91,42.18-5.28,63-5.78c10.95-0.26,4.68,5.37,0.52,8.4"/>
		</g>
	</g>
	<g id="kvg:05bbe-g3" kvg:element="兵">
		<g id="kvg:05bbe-g4" kvg:element="丘" kvg:position="top">
			<g id="kvg:05bbe-g5" kvg:element="斤">
				<g id="kvg:05bbe-g6" kvg:element="丿" kvg:radical="nelson">
					<path id="kvg:05bbe-s4" kvg:type="㇒" d="m63.53 30.4c-0.03 0.8 -0.73 1.74 -1.42 2.29c-6.96 5.68 -13.96 9.25 -27.87 14.94"/>
				</g>
				<path id="kvg:05bbe-s5" kvg:type="㇑a" d="m33.18 47.46c1.06 0.85 1.62 1.81 1.77 3.26c0.55 5.36 1.65 16.83 2.3 22.03"/>
				<path id="kvg:05bbe-s6" kvg:type="㇐b" d="m36.53 53.46c9.72 -0.94 28.09 -3.46 39.51 -4.92c1.75 -0.22 4.85 -0.35 5.96 -0.2"/>
				<path id="kvg:05bbe-s7" kvg:type="㇑a" d="m67.87 53.18c0.63 0.82 0.81 1.71 0.57 2.66c-0.7 2.77 -1.95 6.57 -3.95 13.5"/>
			</g>
			<g id="kvg:05bbe-g7" kvg:element="一">
				<path id="kvg:05bbe-s8" kvg:type="㇐" d="m14.75 74c2.48 0.58 7.04 0.8 9.5 0.58c17.37 -1.58 35.35 -3.18 60.95 -4.35c4.12 -0.19 7.55 -0.13 10.67 0.5"/>
			</g>
		</g>
		<g id="kvg:05bbe-g8" kvg:element="八" kvg:position="bottom" kvg:radical="tradit">
			<g id="kvg:05bbe-g9" kvg:position="left">
				<path id="kvg:05bbe-s9" kvg:type="㇒" d="m42.66 81.2c0.07 0.41 0.04 1.18 -0.39 1.65c-5.36 5.78 -13.29 11.09 -27.27 15.75"/>
			</g>
			<g id="kvg:05bbe-g10" kvg:position="right">
				<path id="kvg:05bbe-s10" kvg:type="㇔/㇏" d="m67.25 81.2c7.88 3.4 19.38 11.2 22.56 16.18"/>
			</g>
		</g>
	</g>
</g>
</g>
<g id="kvg:StrokeNumbers_05bbe" style="font-size:8;fill:#808080">
	<text transform="matrix(1 0 0 1 42.50 12.28)">1</text>
	<text transform="matrix(1 0 0 1 9.50 27.78)">2</text>
	<text transform="matrix(1 0 0 1 23.50 23.13)">3</text>
	<text transform="matrix(1 0 0 1 65.99 37.13)">4</text>
	<text transform="matrix(1 0 0 1 24.50 64.50)">5</text>
	<text transform="matrix(1 0 0 1 40.50 57.50)">6</text>
	<text transform="matrix(1 0 0 1 57.25 66.13)">7</text>
	<text transform="matrix(1 0 0 1 2.50 79.13)">8</text>
	<text transform="matrix(1 0 0 1 33.75 88.13)">9</text>
	<text transform="matrix(1 0 0 1 64.25 88.13)">10</text>
</g>
</svg>
