<?xml version="1.0" encoding="UTF-8"?>
<!--
Copyright (C) 2016 François Mizessyn.
This work makes an extensive use of kanjiVG Copyright (C) 2009/2010/2011 Ulrich Apel.
This work is distributed under the conditions of the Creative Commons
Attribution-Share Alike 3.0 Licence. This means you are free:
* to Share - to copy, distribute and transmit the work
* to Remix - to adapt the work

Under the following conditions:
* Attribution. You must attribute the work by stating your use of HanjiVG in
  your own copyright header and linking to HanjiVG's website
  (http://gooo.free.fr/hanziVG/)
* Attribution. You must attribute the work by stating your use of KanjiVG in
  your own copyright header and linking to KanjiVG's website
  (http://kanjivg.tagaini.net)
* Share Alike. If you alter, transform, or build upon this work, you may
  distribute the resulting work only under the same or similar license to this
  one.

See http://creativecommons.org/licenses/by-sa/3.0/ for more details.
-->
<!DOCTYPE svg PUBLIC "-//W3C//DTD SVG 1.0//EN" "http://www.w3.org/TR/2001/REC-SVG-20010904/DTD/svg10.dtd" [
<!ATTLIST g
xmlns:kvg CDATA #FIXED "http://kanjivg.tagaini.net"
kvg:element CDATA #IMPLIED
kvg:variant CDATA #IMPLIED
kvg:partial CDATA #IMPLIED
kvg:original CDATA #IMPLIED
kvg:part CDATA #IMPLIED
kvg:number CDATA #IMPLIED
kvg:tradForm CDATA #IMPLIED
kvg:radicalForm CDATA #IMPLIED
kvg:position CDATA #IMPLIED
kvg:radical CDATA #IMPLIED
kvg:phon CDATA #IMPLIED >
<!ATTLIST path
xmlns:kvg CDATA #FIXED "http://kanjivg.tagaini.net"
kvg:type CDATA #IMPLIED >
]>
<svg xmlns="http://www.w3.org/2000/svg" width="109" height="109" viewBox="0 0 109 109">
<g id="kvg:StrokePaths_05bfc" style="fill:none;stroke:#000000;stroke-width:3;stroke-linecap:round;stroke-linejoin:round;">
<g id="kvg:05bfc" kvg:element="导">
	<g id="kvg:05bfc-g1" kvg:element="巳">
		<g id="kvg:05bfc-g2" kvg:element="己" kvg:variant="true" kvg:radical="general">
			<path id="kvg:05bfc-s1" kvg:type="㇕" d="m23.5 20.4c2.38 0.63 4.42 0.63 7.92 0.42c7.1 -0.42 38.8 -2.09 40.97 -2.17c2.86 -0.1 5.11 0.68 4.09 2.3c-0.3 0.48 -2.48 5.7 -4.48 10.31"/>
			<path id="kvg:05bfc-s2" kvg:type="㇐" d="m28 33.73c4.39 -0.19 25.32 -1.24 39.72 -1.91c2.82 -0.13 5.38 -0.25 7.53 -0.34"/>
			<path id="kvg:05bfc-s3" kvg:type="㇟" d="m26.48 21.08c0.81 0.36 0.74 0.85 0.75 1.73c0.02 5.45 -0.06 17.69 -0.06 20.36c0 8.1 1.21 9.11 32.03 9.11c31.18 0 31.56 -1.18 31.56 -5.74"/>
		</g>
	</g>
	<g id="kvg:05bfc-g3" kvg:element="寸" kvg:position="bottom" kvg:radical="general">
		<path id="kvg:05bfc-s4" kvg:type="㇐" d="m18.63 69.82c3 1.17 5.65 0.97 8.25 0.75c18.1 -1.49 38.94 -4.2 59.37 -4.12c2.89 0.01 5.83 -0.15 8.63 1.01"/>
		<path id="kvg:05bfc-s5" kvg:type="㇚" d="m70.38 57.66c0.93 1.27 1.12 3.74 1.12 6.1c0 10.84 0.02 18.45 0.02 24.55c0 15.59 -5.25 3.91 -7.21 2.03"/>
		<path id="kvg:05bfc-s6" kvg:type="㇔" d="m42.62 77.21c1.93 2.21 4.97 9.14 5.45 12.6"/>
	</g>
</g>
</g>
<g id="kvg:StrokeNumbers_05bfc" style="font-size:8;fill:#808080">
	<text transform="matrix(1 0 0 1 25.50 17.50)">1</text>
	<text transform="matrix(1 0 0 1 30.50 30.50)">2</text>
	<text transform="matrix(1 0 0 1 12.50 23.50)">3</text>
	<text transform="matrix(1 0 0 1 8.50 75.41)">4</text>
	<text transform="matrix(1 0 0 1 60.50 63.63)">5</text>
	<text transform="matrix(1 0 0 1 31.50 83.50)">6</text>
</g>
</svg>
