<?xml version="1.0" encoding="UTF-8"?>
<!--
Copyright (C) 2016 François Mizessyn.
This work makes an extensive use of kanjiVG Copyright (C) 2009/2010/2011 Ulrich Apel.
This work is distributed under the conditions of the Creative Commons
Attribution-Share Alike 3.0 Licence. This means you are free:
* to Share - to copy, distribute and transmit the work
* to Remix - to adapt the work

Under the following conditions:
* Attribution. You must attribute the work by stating your use of HanjiVG in
  your own copyright header and linking to HanjiVG's website
  (http://gooo.free.fr/hanziVG/)
* Attribution. You must attribute the work by stating your use of KanjiVG in
  your own copyright header and linking to KanjiVG's website
  (http://kanjivg.tagaini.net)
* Share Alike. If you alter, transform, or build upon this work, you may
  distribute the resulting work only under the same or similar license to this
  one.

See http://creativecommons.org/licenses/by-sa/3.0/ for more details.
-->
<!DOCTYPE svg PUBLIC "-//W3C//DTD SVG 1.0//EN" "http://www.w3.org/TR/2001/REC-SVG-20010904/DTD/svg10.dtd" [
<!ATTLIST g
xmlns:kvg CDATA #FIXED "http://kanjivg.tagaini.net"
kvg:element CDATA #IMPLIED
kvg:variant CDATA #IMPLIED
kvg:partial CDATA #IMPLIED
kvg:original CDATA #IMPLIED
kvg:part CDATA #IMPLIED
kvg:number CDATA #IMPLIED
kvg:tradForm CDATA #IMPLIED
kvg:radicalForm CDATA #IMPLIED
kvg:position CDATA #IMPLIED
kvg:radical CDATA #IMPLIED
kvg:phon CDATA #IMPLIED >
<!ATTLIST path
xmlns:kvg CDATA #FIXED "http://kanjivg.tagaini.net"
kvg:type CDATA #IMPLIED >
]>
<svg xmlns="http://www.w3.org/2000/svg" width="109" height="109" viewBox="0 0 109 109">
<g id="kvg:StrokePaths_05bf9" style="fill:none;stroke:#000000;stroke-width:3;stroke-linecap:round;stroke-linejoin:round;">
<g id="kvg:05bf9" kvg:element="对">
	<g id="kvg:05bf9-g1" kvg:element="又" kvg:variant="true" kvg:position="left" kvg:radical="general">
		<path id="kvg:05bf9-s1" kvg:type="㇇" d="m17.54 31.55c1.18 0.39 3.06 0.63 5.45 0.14c3.01 -0.62 12.57 -3.5 17.06 -4.8c2.72 -0.79 5.3 0.19 4.5 3.52c-4.95 20.74 -12.8 40.59 -32.38 54.09"/>
		<path id="kvg:05bf9-s2" kvg:type="㇔/㇏" d="m22.12 46c8.38 5.38 18.28 14.69 24.12 26.25"/>
	</g>
	<g id="kvg:05bf9-g2" kvg:element="寸" kvg:position="right">
		<path id="kvg:05bf9-s3" kvg:type="㇐" d="m52.7 37.74c1.97 0.46 4.15 0.44 5.62 0.24c10.77 -1.48 22.97 -3.38 35.14 -4.14c2.44 -0.15 3.91 -0.1 5.14 0.22"/>
		<path id="kvg:05bf9-s4" kvg:type="㇚" d="m79.42 12.83c0.96 1.2 1.41 2.92 1.41 4.77c0 14.52 -0.01 67.91 -0.01 72.87c0 9.28 -5.02 3.41 -7.17 0.75"/>
		<path id="kvg:05bf9-s5" kvg:type="㇔" d="m60.1 56.62c2.63 2.38 6.81 9.79 7.46 13.49"/>
	</g>
</g>
</g>
<g id="kvg:StrokeNumbers_05bf9" style="font-size:8;fill:#808080">
	<text transform="matrix(1 0 0 1 13.50 28.50)">1</text>
	<text transform="matrix(1 0 0 1 17.50 42.50)">2</text>
	<text transform="matrix(1 0 0 1 42.75 39.13)">3</text>
	<text transform="matrix(1 0 0 1 64.50 13.50)">4</text>
	<text transform="matrix(1 0 0 1 42.50 55.63)">5</text>
</g>
</svg>
