<?xml version="1.0" encoding="UTF-8"?>
<!--
Copyright (C) 2016 François Mizessyn.
This work makes an extensive use of kanjiVG Copyright (C) 2009/2010/2011 Ulrich Apel.
This work is distributed under the conditions of the Creative Commons
Attribution-Share Alike 3.0 Licence. This means you are free:
* to Share - to copy, distribute and transmit the work
* to Remix - to adapt the work

Under the following conditions:
* Attribution. You must attribute the work by stating your use of HanjiVG in
  your own copyright header and linking to HanjiVG's website
  (http://gooo.free.fr/hanziVG/)
* Attribution. You must attribute the work by stating your use of KanjiVG in
  your own copyright header and linking to KanjiVG's website
  (http://kanjivg.tagaini.net)
* Share Alike. If you alter, transform, or build upon this work, you may
  distribute the resulting work only under the same or similar license to this
  one.

See http://creativecommons.org/licenses/by-sa/3.0/ for more details.
-->
<!DOCTYPE svg PUBLIC "-//W3C//DTD SVG 1.0//EN" "http://www.w3.org/TR/2001/REC-SVG-20010904/DTD/svg10.dtd" [
<!ATTLIST g
xmlns:kvg CDATA #FIXED "http://kanjivg.tagaini.net"
kvg:element CDATA #IMPLIED
kvg:variant CDATA #IMPLIED
kvg:partial CDATA #IMPLIED
kvg:original CDATA #IMPLIED
kvg:part CDATA #IMPLIED
kvg:number CDATA #IMPLIED
kvg:tradForm CDATA #IMPLIED
kvg:radicalForm CDATA #IMPLIED
kvg:position CDATA #IMPLIED
kvg:radical CDATA #IMPLIED
kvg:phon CDATA #IMPLIED >
<!ATTLIST path
xmlns:kvg CDATA #FIXED "http://kanjivg.tagaini.net"
kvg:type CDATA #IMPLIED >
]>
<svg xmlns="http://www.w3.org/2000/svg" width="109" height="109" viewBox="0 0 109 109">
<g id="kvg:StrokePaths_05c1d" style="fill:none;stroke:#000000;stroke-width:3;stroke-linecap:round;stroke-linejoin:round;">
<g id="kvg:05c1d" kvg:element="尝">
	<g id="kvg:05c1d-g1" kvg:element="龸" kvg:variant="true" kvg:position="top">
		<g id="kvg:05c1d-g2" kvg:element="⺌" kvg:variant="true" kvg:original="小" kvg:position="top" kvg:radical="nelson">
			<path id="kvg:05c1d-s1" kvg:type="㇑a" d="m52.96 16.12c0.9 1.26 1.26 2.28 1.26 4.19c0 5.1 -0.01 11.65 -0.01 15.41"/>
			<path id="kvg:05c1d-s2" kvg:type="㇔" d="m32.02 19.91c2.84 2.32 7.08 9.18 7.79 12.78"/>
			<path id="kvg:05c1d-s3" kvg:type="㇒" d="m75.26 17.35c0.08 1.12 -0.01 2.24 -0.45 3.18c-1.68 3.64 -3.61 6.73 -7.81 12.92"/>
		</g>
		<g id="kvg:05c1d-g3" kvg:position="bottom">
			<g id="kvg:05c1d-g4" kvg:element="冂" kvg:variant="true">
				<path id="kvg:05c1d-s4" kvg:type="㇔" d="m21.32 38.18c-0.15 5.18 -3.03 17.3 -4.32 20.38"/>
				<path id="kvg:05c1d-s5" kvg:type="㇖a" d="m21.75 42.37c21.12 -4.03 40.5 -6.65 63.54 -8.15c10.95 -0.71 4.21 7.27 -0.65 11.13"/>
			</g>
		</g>
	</g>
	<g id="kvg:082b8-g2" kvg:element="云" kvg:position="bottom">
		<g id="kvg:082b8-g3" kvg:element="二" kvg:position="top">
			<path id="kvg:082b8-s6" kvg:type="㇐" d="m31.25 55.16c2.04 0.6 4.68 0.62 6.76 0.51c9.81 -0.53 21.41 -1.37 31.61 -1.9c2.38 -0.12 4.78 -0.33 7.13 0.09"/>
			<path id="kvg:082b8-s7" kvg:type="㇐" d="m16.75 68.3c3.34 0.71 6.89 0.41 10.26 0.18c15.33 -1.06 42.06 -2.57 56.98 -2.82c3.25 -0.06 6.53 -0.14 9.76 0.26"/>
		</g>
		<g id="kvg:082b8-g4" kvg:element="厶" kvg:position="bottom">
			<path id="kvg:082b8-s8" kvg:type="㇜" d="m50.74 69.94c0.38 1.06 0 2.77 -1.13 3.86c-5.99 5.8 -10.99 10 -18.71 16.18c-3.96 3.17 -3.15 4.31 1.93 3.42c15.22 -2.66 25.67 -4.22 43.92 -7.42"/>
			<path id="kvg:082b8-s9" kvg:type="㇔" d="m68.25 78.6c6.5 3.2 14.25 10.8 16.31 15.98"/>
		</g>
	</g>
</g>
</g>
<g id="kvg:StrokeNumbers_05c1d" style="font-size:8;fill:#808080">
	<text transform="matrix(1 0 0 1 44.50 13.50)">1</text>
	<text transform="matrix(1 0 0 1 24.50 16.50)">2</text>
	<text transform="matrix(1 0 0 1 69 14.1)">3</text>
	<text transform="matrix(1 0 0 1 8.50 37.50)">4</text>
	<text transform="matrix(1 0 0 1 23 34.50)">5</text>
	<text transform="matrix(1 0 0 1 31.42 52.75)">6</text>
	<text transform="matrix(1 0 0 1 7.08 73.50)">7</text>
	<text transform="matrix(1 0 0 1 32.50 81.50)">8</text>
	<text transform="matrix(1 0 0 1 67.50 81.50)">9</text>
</g>
</svg>
