<?xml version="1.0" encoding="UTF-8"?>
<!--
Copyright (C) 2016 François Mizessyn.
This work makes an extensive use of kanjiVG Copyright (C) 2009/2010/2011 Ulrich Apel.
This work is distributed under the conditions of the Creative Commons
Attribution-Share Alike 3.0 Licence. This means you are free:
* to Share - to copy, distribute and transmit the work
* to Remix - to adapt the work

Under the following conditions:
* Attribution. You must attribute the work by stating your use of HanjiVG in
  your own copyright header and linking to HanjiVG's website
  (http://gooo.free.fr/hanziVG/)
* Attribution. You must attribute the work by stating your use of KanjiVG in
  your own copyright header and linking to KanjiVG's website
  (http://kanjivg.tagaini.net)
* Share Alike. If you alter, transform, or build upon this work, you may
  distribute the resulting work only under the same or similar license to this
  one.

See http://creativecommons.org/licenses/by-sa/3.0/ for more details.
-->
<!DOCTYPE svg PUBLIC "-//W3C//DTD SVG 1.0//EN" "http://www.w3.org/TR/2001/REC-SVG-20010904/DTD/svg10.dtd" [
<!ATTLIST g
xmlns:kvg CDATA #FIXED "http://kanjivg.tagaini.net"
kvg:element CDATA #IMPLIED
kvg:variant CDATA #IMPLIED
kvg:partial CDATA #IMPLIED
kvg:original CDATA #IMPLIED
kvg:part CDATA #IMPLIED
kvg:number CDATA #IMPLIED
kvg:tradForm CDATA #IMPLIED
kvg:radicalForm CDATA #IMPLIED
kvg:position CDATA #IMPLIED
kvg:radical CDATA #IMPLIED
kvg:phon CDATA #IMPLIED >
<!ATTLIST path
xmlns:kvg CDATA #FIXED "http://kanjivg.tagaini.net"
kvg:type CDATA #IMPLIED >
]>
<svg xmlns="http://www.w3.org/2000/svg" width="109" height="109" viewBox="0 0 109 109">
<g id="kvg:StrokePaths_05c14" style="fill:none;stroke:#000000;stroke-width:3;stroke-linecap:round;stroke-linejoin:round;">
<g id="kvg:05c14" kvg:element="尔">
	<g id="kvg:05c14-g1" kvg:element="⺈" kvg:position="top">
		<path id="kvg:05c14-s1" kvg:type="㇒" d="m41.7 14.39c0.13 1.43 0.16 2.62 -0.57 3.98c-3.96 7.4 -13.36 20.71 -25.19 29.39"/>
		<path id="kvg:05c14-s2" kvg:type="㇖a" d="m34.08 31.93c2.87 0.71 5.38 0.45 8.32 0.1c13.74 -1.65 23.86 -3.35 43.23 -4.53c8.9 -0.7 5.94 2.08 0.05 15.32"/>
	</g>
	<g id="kvg:05c14-g2" kvg:element="小" kvg:position="bottom">
		<path id="kvg:05c14-s3" kvg:type="㇚" d="m54.05 40.7c1.51 1.05 1.83 2.18 1.83 4.54c0 11.98 -0.16 39.81 -0.16 43.89c0 9.26 -8.63 0.81 -10.4 -0.22"/>
		<path id="kvg:05c14-s4" kvg:type="㇒" d="m33.59 59.75c0.13 1.33 0.13 2.41 -0.56 3.67c-2.39 4.33 -6.76 11.29 -12.3 16.75"/>
		<path id="kvg:05c14-s5" kvg:type="㇔" d="m76.98 58.13c4.56 3.95 11.78 16.24 12.92 22.39"/>
	</g>
</g>
</g>
<g id="kvg:StrokeNumbers_05c14" style="font-size:8;fill:#808080">
	<text transform="matrix(1 0 0 1 32.00 13.25)">1</text>
	<text transform="matrix(1 0 0 1 19.25 33.25)">2</text>
	<text transform="matrix(1 0 0 1 42.25 47.00)">3</text>
	<text transform="matrix(1 0 0 1 32.25 57.25)">4</text>
	<text transform="matrix(1 0 0 1 70.25 53.85)">5</text>
</g>
</svg>
