<?xml version="1.0" encoding="UTF-8"?>
<!--
Copyright (C) 2016 François Mizessyn.
This work makes an extensive use of kanjiVG Copyright (C) 2009/2010/2011 Ulrich Apel.
This work is distributed under the conditions of the Creative Commons
Attribution-Share Alike 3.0 Licence. This means you are free:
* to Share - to copy, distribute and transmit the work
* to Remix - to adapt the work

Under the following conditions:
* Attribution. You must attribute the work by stating your use of HanjiVG in
  your own copyright header and linking to HanjiVG's website
  (http://gooo.free.fr/hanziVG/)
* Attribution. You must attribute the work by stating your use of KanjiVG in
  your own copyright header and linking to KanjiVG's website
  (http://kanjivg.tagaini.net)
* Share Alike. If you alter, transform, or build upon this work, you may
  distribute the resulting work only under the same or similar license to this
  one.

See http://creativecommons.org/licenses/by-sa/3.0/ for more details.
-->
<!DOCTYPE svg PUBLIC "-//W3C//DTD SVG 1.0//EN" "http://www.w3.org/TR/2001/REC-SVG-20010904/DTD/svg10.dtd" [
<!ATTLIST g
xmlns:kvg CDATA #FIXED "http://kanjivg.tagaini.net"
kvg:element CDATA #IMPLIED
kvg:variant CDATA #IMPLIED
kvg:partial CDATA #IMPLIED
kvg:original CDATA #IMPLIED
kvg:part CDATA #IMPLIED
kvg:number CDATA #IMPLIED
kvg:tradForm CDATA #IMPLIED
kvg:radicalForm CDATA #IMPLIED
kvg:position CDATA #IMPLIED
kvg:radical CDATA #IMPLIED
kvg:phon CDATA #IMPLIED >
<!ATTLIST path
xmlns:kvg CDATA #FIXED "http://kanjivg.tagaini.net"
kvg:type CDATA #IMPLIED >
]>
<svg xmlns="http://www.w3.org/2000/svg" width="109" height="109" viewBox="0 0 109 109">
<g id="kvg:StrokePaths_05c42" style="fill:none;stroke:#000000;stroke-width:3;stroke-linecap:round;stroke-linejoin:round;">
<g id="kvg:05c42" kvg:element="层">
	<g id="kvg:05c42-g1" kvg:element="尸" kvg:radical="general">
		<path id="kvg:05c42-s1" kvg:type="㇕c" d="m23.5 18.25c2 0.75 5.88 1.42 8.01 1.27c11.46 -0.84 46.12 -3.57 50.72 -3.87c2.27 -0.15 3.27 1.85 3.27 4.1c0 3.78 -1.25 9.5 -3 17.5"/>
		<path id="kvg:05c42-s2" kvg:type="㇐b" d="m30 41c5.75 -0.25 48.25 -3.25 54.25 -3.5"/>
		<path id="kvg:05c42-s3" kvg:type="㇒" d="m29.75 20.5c0 4 0.3 18.75 0.25 22.5c-0.25 20.5 -4 36.5 -14 50.5"/>
	</g>
	<g id="kvg:05c42-g2" kvg:element="云" kvg:position="bottom">
		<g id="kvg:05c42-g3" kvg:element="二">
			<path id="kvg:05c42-s4" kvg:type="㇐" d="m46.6 54.72c0.55 0.2 2.35 0.27 2.89 0.2c4.59 -0.53 15.77 -2.84 22.25 -2.83c0.91 0 2.25 0.1 2.71 0.2"/>
			<path id="kvg:05c42-s5" kvg:type="㇐" d="m36.75 69.36c0.91 0.25 2.57 0.27 3.47 0.25c5.78 -0.11 31.03 -3.61 44.5 -4.04c1.51 -0.05 2.42 0.12 3.17 0.25"/>
		</g>
		<g id="kvg:05c42-g4" kvg:element="厶">
			<path id="kvg:05c42-s6" kvg:type="㇜" d="m57.33 70.57c0.32 0.88 -0.09 2.63 -0.76 3.68c-4.92 7.85 -6.72 10.47 -13.11 17.65c-1.86 2.09 -1.32 4.11 1.76 3.7c6.48 -0.84 24.04 -4.9 34.59 -6.86"/>
			<path id="kvg:05c42-s7" kvg:type="㇔" d="m70.5 77c5.21 3.62 13.45 14.87 14.75 20.5"/>
		</g>
	</g>
</g>
</g>
<g id="kvg:StrokeNumbers_05c42" style="font-size:8;fill:#808080">
	<text transform="matrix(1 0 0 1 23.50 15.50)">1</text>
	<text transform="matrix(1 0 0 1 32.50 37.50)">2</text>
	<text transform="matrix(1 0 0 1 19.71 33.50)">3</text>
	<text transform="matrix(1 0 0 1 36.50 55.50)">4</text>
	<text transform="matrix(1 0 0 1 31.50 66.50)">5</text>
	<text transform="matrix(1 0 0 1 40.50 83.50)">6</text>
	<text transform="matrix(1 0 0 1 75.50 80.50)">7</text>
</g>
</svg>
