<?xml version="1.0" encoding="UTF-8"?>
<!--
Copyright (C) 2016 François Mizessyn.
This work makes an extensive use of kanjiVG Copyright (C) 2009/2010/2011 Ulrich Apel.
This work is distributed under the conditions of the Creative Commons
Attribution-Share Alike 3.0 Licence. This means you are free:
* to Share - to copy, distribute and transmit the work
* to Remix - to adapt the work

Under the following conditions:
* Attribution. You must attribute the work by stating your use of HanjiVG in
  your own copyright header and linking to HanjiVG's website
  (http://gooo.free.fr/hanziVG/)
* Attribution. You must attribute the work by stating your use of KanjiVG in
  your own copyright header and linking to KanjiVG's website
  (http://kanjivg.tagaini.net)
* Share Alike. If you alter, transform, or build upon this work, you may
  distribute the resulting work only under the same or similar license to this
  one.

See http://creativecommons.org/licenses/by-sa/3.0/ for more details.
-->
<!DOCTYPE svg PUBLIC "-//W3C//DTD SVG 1.0//EN" "http://www.w3.org/TR/2001/REC-SVG-20010904/DTD/svg10.dtd" [
<!ATTLIST g
xmlns:kvg CDATA #FIXED "http://kanjivg.tagaini.net"
kvg:element CDATA #IMPLIED
kvg:variant CDATA #IMPLIED
kvg:partial CDATA #IMPLIED
kvg:original CDATA #IMPLIED
kvg:part CDATA #IMPLIED
kvg:number CDATA #IMPLIED
kvg:tradForm CDATA #IMPLIED
kvg:radicalForm CDATA #IMPLIED
kvg:position CDATA #IMPLIED
kvg:radical CDATA #IMPLIED
kvg:phon CDATA #IMPLIED >
<!ATTLIST path
xmlns:kvg CDATA #FIXED "http://kanjivg.tagaini.net"
kvg:type CDATA #IMPLIED >
]>
<svg xmlns="http://www.w3.org/2000/svg" width="109" height="109" viewBox="0 0 109 109">
<g id="kvg:StrokePaths_05c81" style="fill:none;stroke:#000000;stroke-width:3;stroke-linecap:round;stroke-linejoin:round;">
<g id="kvg:05c81" kvg:element="岁">
	<g id="kvg:05c81-g1" kvg:element="山" kvg:position="top" kvg:radical="nelson">
<path id="kvg:05c81-s1" kvg:type="㇑a" d="m54.41 12.5c0.58 0.34 1.81 2.58 1.93 3.26c0.12 0.69 -0.07 14.6 -0.19 18.9"/>
<path id="kvg:05c81-s2" kvg:type="㇄a" d="m30.6 21.07c0.58 0.34 1.25 1.8 1.16 2.5c-0.38 3.07 -0.86 4.92 -2.42 11.17c-0.38 1.54 -0.29 3.09 1.15 2.88c5.19 -0.77 45.51 -4.92 52.81 -5.11"/>
<path id="kvg:05c81-s3" kvg:type="㇑" d="m83.44 17.66c0.58 0.35 1.26 2.57 1.16 3.26c-0.58 4.23 -0.65 7.71 -1.61 15.58"/>
	</g>
	<g id="kvg:05c81-g2" kvg:element="夕" kvg:position="bottom" kvg:radical="general">
<path id="kvg:05915-s1" kvg:type="㇒" d="m54.99 40.2c0.26 1.13 0 2.43 -0.49 3.23c-3.5 5.78 -11.12 15.05 -24.94 21.85"/>
<path id="kvg:05915-s2" kvg:type="㇇" d="m56 47.45c1.75 0.35 3.47 0.42 4.78 0.23c5.22 -0.76 10.97 -1.81 17.56 -3.21c4.26 -0.9 6.14 0.39 4.41 3.17c-10.75 17.3 -32.13 38.22 -63 48.45"/>
<path id="kvg:05915-s3" kvg:type="㇔" d="m47.25 60.83c4.84 1.65 12.04 6.44 13.25 9.02"/>
	</g>
</g>
</g>
<g id="kvg:StrokeNumbers_05c81" style="font-size:8;fill:#808080">
	<text transform="matrix(1 0 0 1 45.50 12.50)">1</text>
	<text transform="matrix(1 0 0 1 20.50 19.50)">2</text>
	<text transform="matrix(1 0 0 1 73.50 17.50)">3</text>
	<text transform="matrix(1 0 0 1 41.50 49.50)">4</text>
	<text transform="matrix(1 0 0 1 55.50 46.50)">5</text>
	<text transform="matrix(1 0 0 1 49.50 61.25)">6</text>
</g>
</svg>
