<?xml version="1.0" encoding="UTF-8"?>
<!--
Copyright (C) 2016 François Mizessyn.
This work makes an extensive use of kanjiVG Copyright (C) 2009/2010/2011 Ulrich Apel.
This work is distributed under the conditions of the Creative Commons
Attribution-Share Alike 3.0 Licence. This means you are free:
* to Share - to copy, distribute and transmit the work
* to Remix - to adapt the work

Under the following conditions:
* Attribution. You must attribute the work by stating your use of HanjiVG in
  your own copyright header and linking to HanjiVG's website
  (http://gooo.free.fr/hanziVG/)
* Attribution. You must attribute the work by stating your use of KanjiVG in
  your own copyright header and linking to KanjiVG's website
  (http://kanjivg.tagaini.net)
* Share Alike. If you alter, transform, or build upon this work, you may
  distribute the resulting work only under the same or similar license to this
  one.

See http://creativecommons.org/licenses/by-sa/3.0/ for more details.
-->
<!DOCTYPE svg PUBLIC "-//W3C//DTD SVG 1.0//EN" "http://www.w3.org/TR/2001/REC-SVG-20010904/DTD/svg10.dtd" [
<!ATTLIST g
xmlns:kvg CDATA #FIXED "http://kanjivg.tagaini.net"
kvg:element CDATA #IMPLIED
kvg:variant CDATA #IMPLIED
kvg:partial CDATA #IMPLIED
kvg:original CDATA #IMPLIED
kvg:part CDATA #IMPLIED
kvg:number CDATA #IMPLIED
kvg:tradForm CDATA #IMPLIED
kvg:radicalForm CDATA #IMPLIED
kvg:position CDATA #IMPLIED
kvg:radical CDATA #IMPLIED
kvg:phon CDATA #IMPLIED >
<!ATTLIST path
xmlns:kvg CDATA #FIXED "http://kanjivg.tagaini.net"
kvg:type CDATA #IMPLIED >
]>
<svg xmlns="http://www.w3.org/2000/svg" width="109" height="109" viewBox="0 0 109 109">
<g id="kvg:StrokePaths_05dee" style="fill:none;stroke:#000000;stroke-width:3;stroke-linecap:round;stroke-linejoin:round;">
<g id="kvg:05dee" kvg:element="差">
	<g id="kvg:05dee-g1" kvg:element="羊" kvg:variant="true" kvg:radical="nelson">
		<path id="kvg:05dee-s1" kvg:type="㇔" d="M36.2,14.58c3.33,1.96,8.6,8.07,9.43,11.12"/>
		<path id="kvg:05dee-s2" kvg:type="㇒" d="M73.81,11.77c0.03,0.43,0.06,1.11-0.06,1.74c-0.63,3.11-3.79,9.36-8.31,14.19"/>
		<path id="kvg:05dee-s3" kvg:type="㇐" d="M30.88,33.18c2.37,0.32,5.01,0.23,6.99,0.04c8.26-0.76,23.5-2.72,33.26-3.31c2.09-0.13,4.31-0.02,6.37,0.5"/>
		<path id="kvg:05dee-s4" kvg:type="㇐" d="M32.84,45.22c2.16,0.53,4.59,0.34,6.54,0.06c8.75-1.27,21-2.68,28.75-3.53c1.95-0.22,3.95-0.3,5.87,0.19"/>
		<path id="kvg:05dee-s5" kvg:type="㇐" d="M19.48,57.37c3.65,0.75,6.56,0.75,9.54,0.42c12.74-1.42,38.49-3.29,52.36-3.93c3.05-0.14,6.08-0.11,9.08,0.55"/>
	</g>
	<g id="kvg:05dee-g2" kvg:element="左">
		<g id="kvg:05dee-g3" kvg:element="丿">
			<path id="kvg:05dee-s6" kvg:type="㇒" d="m55.69 33.03c0.26 1.47 0.17 3.33 -0.63 4.94c-5.26 10.69 -16.56 29.53 -39.63 45.85"/>
		</g>
		<g id="kvg:05dee-g4" kvg:element="工" kvg:radical="tradit">
			<path id="kvg:05dee-s7" kvg:type="㇐" d="m38.14 71.59c2.66 0.54 5.17 0.35 7.45 0.09c6.3 -0.7 19.92 -2.19 27.3 -2.72c2.1 -0.15 4.15 -0.29 6.2 0.24"/>
			<path id="kvg:05dee-s8" kvg:type="㇑a" d="m56.44 73.04c1.08 0.9 1.6 2.21 1.6 3.62c0 6.11 0.05 9.96 0.05 16.66"/>
			<path id="kvg:05dee-s9" kvg:type="㇐" d="m24.6 95.32c3.46 1.05 6.54 1.11 10.57 0.73c14.95 -1.4 33.98 -2.41 48.16 -2.86c3.46 -0.11 7.15 -0.06 10.43 1.05"/>
		</g>
	</g>
</g>
</g>
<g id="kvg:StrokeNumbers_05dee" style="font-size:8;fill:#808080">
	<text transform="matrix(1 0 0 1 28 12)">1</text>
	<text transform="matrix(1 0 0 1 63 12)">2</text>
	<text transform="matrix(1 0 0 1 19.99 34.48)">3</text>
	<text transform="matrix(1 0 0 1 21.75 48.13)">4</text>
	<text transform="matrix(1 0 0 1 8.25 60.13)">5</text>
	<text transform="matrix(1 0 0 1 52 27.5)">6</text>
	<text transform="matrix(1 0 0 1 45.75 69.13)">7</text>
	<text transform="matrix(1 0 0 1 50.25 85.13)">8</text>
	<text transform="matrix(1 0 0 1 32.94 93)">9</text>
</g>
</svg>
