<?xml version="1.0" encoding="UTF-8"?>
<!--
Copyright (C) 2016 François Mizessyn.
This work makes an extensive use of kanjiVG Copyright (C) 2009/2010/2011 Ulrich Apel.
This work is distributed under the conditions of the Creative Commons
Attribution-Share Alike 3.0 Licence. This means you are free:
* to Share - to copy, distribute and transmit the work
* to Remix - to adapt the work

Under the following conditions:
* Attribution. You must attribute the work by stating your use of HanjiVG in
  your own copyright header and linking to HanjiVG's website
  (http://gooo.free.fr/hanziVG/)
* Attribution. You must attribute the work by stating your use of KanjiVG in
  your own copyright header and linking to KanjiVG's website
  (http://kanjivg.tagaini.net)
* Share Alike. If you alter, transform, or build upon this work, you may
  distribute the resulting work only under the same or similar license to this
  one.

See http://creativecommons.org/licenses/by-sa/3.0/ for more details.
-->
<!DOCTYPE svg PUBLIC "-//W3C//DTD SVG 1.0//EN" "http://www.w3.org/TR/2001/REC-SVG-20010904/DTD/svg10.dtd" [
<!ATTLIST g
xmlns:kvg CDATA #FIXED "http://kanjivg.tagaini.net"
kvg:element CDATA #IMPLIED
kvg:variant CDATA #IMPLIED
kvg:partial CDATA #IMPLIED
kvg:original CDATA #IMPLIED
kvg:part CDATA #IMPLIED
kvg:number CDATA #IMPLIED
kvg:tradForm CDATA #IMPLIED
kvg:radicalForm CDATA #IMPLIED
kvg:position CDATA #IMPLIED
kvg:radical CDATA #IMPLIED
kvg:phon CDATA #IMPLIED >
<!ATTLIST path
xmlns:kvg CDATA #FIXED "http://kanjivg.tagaini.net"
kvg:type CDATA #IMPLIED >
]>
<svg xmlns="http://www.w3.org/2000/svg" width="109" height="109" viewBox="0 0 109 109">
<g id="kvg:StrokePaths_05e08" style="fill:none;stroke:#000000;stroke-width:3;stroke-linecap:round;stroke-linejoin:round;">
<g id="kvg:05e08" kvg:element="师">
	<g id="kvg:05e08-g1" kvg:element="刂" kvg:variant="true" kvg:original="刀" kvg:position="left" kvg:radical="tradit">
		<path id="kvg:05e08-s1" kvg:type="㇑" d="m18.93 38.39c0.82 0.82 1.45 1.9 1.45 3.44c0 6.45 -0.09 15.82 -0.14 22.74c-0.01 2.04 -0.02 3.85 -0.02 5.32"/>
		<path id="kvg:05e08-s2" kvg:type="㇒/㇚" d="m36.18 18.26c0.97 0.97 1.41 2.42 1.45 4.3c0.76 50.05 -0.24 58.96 -11.74 72.32"/>
	</g>
	<g id="kvg:05e08-g2" kvg:position="right">
		<path id="kvg:05e08-s3" kvg:type="㇐" d="M49,20.39c2.75,0.61,5.29,0.5,7.49,0.25c8.33-0.95,24.39-2.76,33.77-3.51c2.12-0.17,4.74-0.26,6.74,0.13"/>
		<g id="kvg:05e08-g3" kvg:element="巾" kvg:radical="tradit">
			<path id="kvg:05e08-s4" kvg:type="㇑" d="M52.28,41.16c0.78,0.78,1.74,2.72,1.74,4.18c0,0.58,0.15,15.79,0.15,25.92c0,2.54-0.05,4.52-0.07,5.47"/>
			<path id="kvg:05e08-s5" kvg:type="㇆a" d="M54.48,43.95c11.02-1.33,27.89-3.83,36.41-5.08c1.98-0.29,4.15,1.5,4.15,3.83c0,9.55,0.46,19.8-0.55,29.23c-0.5,4.65-4.11,2.32-6.95-1.21"/>
			<path id="kvg:05e08-s6" kvg:type="㇑" d="M71.36,21.63c0.94,0.94,1.51,2.74,1.51,4.07c0,0.68-0.12,46.93-0.12,67.05c0,3.73-0.04,6.3-0.06,7.13"/>
		</g>
	</g>
</g>
</g>
<g id="kvg:StrokeNumbers_05e08" style="font-size:8;fill:#808080">
	<text transform="matrix(1 0 0 1 10.75 34.63)">1</text>
	<text transform="matrix(1 0 0 1 25.25 18.13)">2</text>
	<text transform="matrix(1 0 0 1 44.50 17.50)">3</text>
	<text transform="matrix(1 0 0 1 42.50 49.55)">4</text>
	<text transform="matrix(1 0 0 1 53.50 40.50)">5</text>
	<text transform="matrix(1 0 0 1 62.50 31.50)">6</text>
</g>
</svg>
