<?xml version="1.0" encoding="UTF-8"?>
<!--
Copyright (C) 2016 François Mizessyn.
This work makes an extensive use of kanjiVG Copyright (C) 2009/2010/2011 Ulrich Apel.
This work is distributed under the conditions of the Creative Commons
Attribution-Share Alike 3.0 Licence. This means you are free:
* to Share - to copy, distribute and transmit the work
* to Remix - to adapt the work

Under the following conditions:
* Attribution. You must attribute the work by stating your use of HanjiVG in
  your own copyright header and linking to HanjiVG's website
  (http://gooo.free.fr/hanziVG/)
* Attribution. You must attribute the work by stating your use of KanjiVG in
  your own copyright header and linking to KanjiVG's website
  (http://kanjivg.tagaini.net)
* Share Alike. If you alter, transform, or build upon this work, you may
  distribute the resulting work only under the same or similar license to this
  one.

See http://creativecommons.org/licenses/by-sa/3.0/ for more details.
-->
<!DOCTYPE svg PUBLIC "-//W3C//DTD SVG 1.0//EN" "http://www.w3.org/TR/2001/REC-SVG-20010904/DTD/svg10.dtd" [
<!ATTLIST g
xmlns:kvg CDATA #FIXED "http://kanjivg.tagaini.net"
kvg:element CDATA #IMPLIED
kvg:variant CDATA #IMPLIED
kvg:partial CDATA #IMPLIED
kvg:original CDATA #IMPLIED
kvg:part CDATA #IMPLIED
kvg:number CDATA #IMPLIED
kvg:tradForm CDATA #IMPLIED
kvg:radicalForm CDATA #IMPLIED
kvg:position CDATA #IMPLIED
kvg:radical CDATA #IMPLIED
kvg:phon CDATA #IMPLIED >
<!ATTLIST path
xmlns:kvg CDATA #FIXED "http://kanjivg.tagaini.net"
kvg:type CDATA #IMPLIED >
]>
<svg xmlns="http://www.w3.org/2000/svg" width="109" height="109" viewBox="0 0 109 109">
<g id="kvg:StrokePaths_05e2e" style="fill:none;stroke:#000000;stroke-width:3;stroke-linecap:round;stroke-linejoin:round;">
<g id="kvg:05e2e" kvg:element="帮">
	<g id="kvg:05e2e-g1" kvg:element="邦" kvg:position="top">
		<g id="kvg:05e2e-g2" kvg:element="丰" kvg:position="left">
			<path id="kvg:05e2e-s1" kvg:type="㇐" d="m18.16 21.54c1.19 0.36 2.78 0.21 4 0.08c5.93 -0.64 20.75 -1.84 27.58 -2.24c1.47 -0.09 2.7 -0.08 4.14 0.17"/>
			<path id="kvg:05e2e-s2" kvg:type="㇐" d="m18.16 31.4c1.19 0.36 2.78 0.21 4 0.08c5.93 -0.64 20.75 -1.84 27.58 -2.24c1.47 -0.09 2.7 -0.08 4.14 0.17"/>
			<path id="kvg:05e2e-s3" kvg:type="㇐" d="m16.07 42.42c1.25 0.36 2.92 0.21 4.2 0.08c6.23 -0.64 21.79 -1.84 28.96 -2.24c1.54 -0.09 2.84 -0.08 4.35 0.17"/>
			<path id="kvg:05e2e-s4" kvg:type="㇒" d="m37 13.03c0.52 0.56 0.69 1.38 0.7 1.95c0.78 30.9 -1.67 34.52 -13.47 43.57"/>
		</g>
		<g id="kvg:05e2e-g3" kvg:element="⻏" kvg:original="邑" kvg:position="right">
			<path id="kvg:05e2e-s5" kvg:type="㇇" d="m62.67 16.2c0.94 0.05 2.62 0.38 3.83 0.27c5.22 -0.49 16.54 -1.59 19.29 -2.08c3.38 -0.61 6.54 0.53 5.26 2.02c-1.79 2.08 -7.46 11.22 -10.09 13.25"/>
			<path id="kvg:05e2e-s6" kvg:type="㇕va" d="m81 30.23c19 7.69 18.25 25.81 2.73 19.52"/>
			<path id="kvg:05e2e-s7" kvg:type="㇑" d="m66.33 16.6c0.22 0.58 0 40.74 -0.22 44.37"/>
		</g>
	</g>
	<g id="kvg:05e2e-g2" kvg:element="巾" kvg:position="bottom">
		<path id="kvg:05e2e-s8" kvg:type="㇑" d="m23.31 69.18c0.76 0.22 2.36 1.61 2.51 2.04c0.15 0.43 2.4 15.48 2.25 18.15"/>
		<path id="kvg:05e2e-s9" kvg:type="㇆a" d="m25.5 70.06c4.75 -0.15 52.79 -2.24 56.34 -2.32c4.16 -0.11 5.06 1.89 4.91 2.87c-0.75 4.92 -1.57 10.98 -4 15.81c-1.75 3.48 -6.25 0.49 -8.25 -0.71"/>
		<path id="kvg:05e2e-s10" kvg:type="㇑" d="m51.81 61.11c0.76 0.22 2.36 1.61 2.51 2.04c0.15 0.43 -0.1 30.12 -0.25 32.8"/>
	</g>
</g>
</g>
<g id="kvg:StrokeNumbers_05e2e" style="font-size:8;fill:#808080">
	<text transform="matrix(1 0 0 1 7.50 20.50)">1</text>
	<text transform="matrix(1 0 0 1 7.75 35.50)">2</text>
	<text transform="matrix(1 0 0 1 5.50 50.50)">3</text>
	<text transform="matrix(1 0 0 1 25.50 14.50)">4</text>
	<text transform="matrix(1 0 0 1 53.50 20.50)">5</text>
	<text transform="matrix(1 0 0 1 64.50 12.50)">6</text>
	<text transform="matrix(1 0 0 1 88.50 48.50)">7</text>
	<text transform="matrix(1 0 0 1 13.25 73.40)">8</text>
	<text transform="matrix(1 0 0 1 30.50 65.50)">9</text>
	<text transform="matrix(1 0 0 1 45.25 58.33)">10</text>
</g>
</svg>
