<?xml version="1.0" encoding="UTF-8"?>
<!--
Copyright (C) 2016 François Mizessyn.
This work makes an extensive use of kanjiVG Copyright (C) 2009/2010/2011 Ulrich Apel.
This work is distributed under the conditions of the Creative Commons
Attribution-Share Alike 3.0 Licence. This means you are free:
* to Share - to copy, distribute and transmit the work
* to Remix - to adapt the work

Under the following conditions:
* Attribution. You must attribute the work by stating your use of HanjiVG in
  your own copyright header and linking to HanjiVG's website
  (http://gooo.free.fr/hanziVG/)
* Attribution. You must attribute the work by stating your use of KanjiVG in
  your own copyright header and linking to KanjiVG's website
  (http://kanjivg.tagaini.net)
* Share Alike. If you alter, transform, or build upon this work, you may
  distribute the resulting work only under the same or similar license to this
  one.

See http://creativecommons.org/licenses/by-sa/3.0/ for more details.
-->
<!DOCTYPE svg PUBLIC "-//W3C//DTD SVG 1.0//EN" "http://www.w3.org/TR/2001/REC-SVG-20010904/DTD/svg10.dtd" [
<!ATTLIST g
xmlns:kvg CDATA #FIXED "http://kanjivg.tagaini.net"
kvg:element CDATA #IMPLIED
kvg:variant CDATA #IMPLIED
kvg:partial CDATA #IMPLIED
kvg:original CDATA #IMPLIED
kvg:part CDATA #IMPLIED
kvg:number CDATA #IMPLIED
kvg:tradForm CDATA #IMPLIED
kvg:radicalForm CDATA #IMPLIED
kvg:position CDATA #IMPLIED
kvg:radical CDATA #IMPLIED
kvg:phon CDATA #IMPLIED >
<!ATTLIST path
xmlns:kvg CDATA #FIXED "http://kanjivg.tagaini.net"
kvg:type CDATA #IMPLIED >
]>
<svg xmlns="http://www.w3.org/2000/svg" width="109" height="109" viewBox="0 0 109 109">
<g id="kvg:StrokePaths_05e94" style="fill:none;stroke:#000000;stroke-width:3;stroke-linecap:round;stroke-linejoin:round;">
<g id="kvg:05e94" kvg:element="应">
	<g id="kvg:05e94-g1" kvg:element="广" kvg:position="tare" kvg:radical="general">
		<path id="kvg:05e94-s1" kvg:type="㇑a" d="M56.06,12.88c1.03,1.03,1.26,2.37,1.26,4.15c0,0.79,0.08,3.4-0.07,8.21"/>
		<g id="kvg:05e94-g2" kvg:element="厂">
			<path id="kvg:05e94-s2" kvg:type="㇐" d="M23.13,28.23c2.67,0.95,5.99,0.64,8.76,0.36c14.86-1.5,31.74-2.96,50.49-4.17c2.88-0.19,5.68-0.2,8.5,0.41"/>
			<path id="kvg:05e94-s3" kvg:type="㇒" d="M25.74,29.5c1.13,1.13,1.18,2.6,1.16,4.62c-0.15,15.13-2.65,38.76-16.09,54.85"/>
		</g>
	</g>
	<g id="kvg:05e94-g3">
		<g id="kvg:05e94-g4" kvg:element="⺍" kvg:position="top">
			<path id="kvg:05e94-s4" kvg:type="㇔" d="m37.19 48.9c4.66 8.71 9.66 23.95 10.33 28.31"/>
			<path id="kvg:05e94-s5" kvg:type="㇔" d="m56.52 41.8c2.22 5.9 7.55 21.38 8.44 30.97"/>
			<path id="kvg:05e94-s6" kvg:type="㇒" d="m88.94 41.1c0.58 1.46 0.56 4.03 -0.2 5.86c-2.54 6.05 -10.64 25.25 -14.54 32.35"/>
		</g>
		<g id="kvg:05e94-g5" kvg:element="一">
			<path id="kvg:05e94-s7" kvg:type="㇐" d="M33.5,89.7c2.88,0.68,5.59,0.52,7.89,0.25c12.18-1.45,30.36-3.63,41.98-4.5c2.45-0.18,4.73-0.3,7.13,0.34"/>
		</g>
	</g>
</g>
</g>
<g id="kvg:StrokeNumbers_05e94" style="font-size:8;fill:#808080">
	<text transform="matrix(1 0 0 1 47.25 12.13)">1</text>
	<text transform="matrix(1 0 0 1 26.25 25.55)">2</text>
	<text transform="matrix(1 0 0 1 14.75 42.50)">3</text>
	<text transform="matrix(1 0 0 1 31.25 44.63)">4</text>
	<text transform="matrix(1 0 0 1 45.25 42.63)">5</text>
	<text transform="matrix(1 0 0 1 78.75 40.50)">6</text>
	<text transform="matrix(1 0 0 1 32.88 85.62)">7</text>
</g>
</svg>
