<?xml version="1.0" encoding="UTF-8"?>
<!--
Copyright (C) 2016 François Mizessyn.
This work makes an extensive use of kanjiVG Copyright (C) 2009/2010/2011 Ulrich Apel.
This work is distributed under the conditions of the Creative Commons
Attribution-Share Alike 3.0 Licence. This means you are free:
* to Share - to copy, distribute and transmit the work
* to Remix - to adapt the work

Under the following conditions:
* Attribution. You must attribute the work by stating your use of HanjiVG in
  your own copyright header and linking to HanjiVG's website
  (http://gooo.free.fr/hanziVG/)
* Attribution. You must attribute the work by stating your use of KanjiVG in
  your own copyright header and linking to KanjiVG's website
  (http://kanjivg.tagaini.net)
* Share Alike. If you alter, transform, or build upon this work, you may
  distribute the resulting work only under the same or similar license to this
  one.

See http://creativecommons.org/licenses/by-sa/3.0/ for more details.
-->
<!DOCTYPE svg PUBLIC "-//W3C//DTD SVG 1.0//EN" "http://www.w3.org/TR/2001/REC-SVG-20010904/DTD/svg10.dtd" [
<!ATTLIST g
xmlns:kvg CDATA #FIXED "http://kanjivg.tagaini.net"
kvg:element CDATA #IMPLIED
kvg:variant CDATA #IMPLIED
kvg:partial CDATA #IMPLIED
kvg:original CDATA #IMPLIED
kvg:part CDATA #IMPLIED
kvg:number CDATA #IMPLIED
kvg:tradForm CDATA #IMPLIED
kvg:radicalForm CDATA #IMPLIED
kvg:position CDATA #IMPLIED
kvg:radical CDATA #IMPLIED
kvg:phon CDATA #IMPLIED >
<!ATTLIST path
xmlns:kvg CDATA #FIXED "http://kanjivg.tagaini.net"
kvg:type CDATA #IMPLIED >
]>
<svg xmlns="http://www.w3.org/2000/svg" width="109" height="109" viewBox="0 0 109 109">
<g id="kvg:StrokePaths_05f39" style="fill:none;stroke:#000000;stroke-width:3;stroke-linecap:round;stroke-linejoin:round;">
<g id="kvg:05f39" kvg:element="弹">
	<g id="kvg:05f39-g1" kvg:element="弓" kvg:position="left" kvg:radical="general">
		<path id="kvg:05f39-s1" kvg:type="㇕c" d="M14,19.09c0.72,1.38,2.51,1.8,3.69,1.54c0.96-0.2,14.08-3.33,16.77-3.79c2.04-0.35,3.7,1.34,2.74,3.39c-0.7,1.5-2.42,7.52-3.54,11.81c-0.41,1.57-0.74,2.91-0.92,3.71"/>
		<path id="kvg:05f39-s2" kvg:type="㇐" d="M17.75,38.75c1.75,0,14.5-3,15.75-3s2.5-0.5,3.5-0.5"/>
		<path id="kvg:05f39-s3" kvg:type="㇉" d="M17.13,37.18c0.55,0.96,0.46,4.56,0.11,6.08c-0.41,1.74-1.38,8.77-1.74,9.68c-1,2.56-0.25,4.56,2.75,3.06c1.21-0.6,11.75-2.75,15.96-3.19c2.99-0.31,2,5.21,1.79,6.94c-1.09,8.88-4.97,27.2-8.75,33.5c-3.75,6.25-6.36-0.31-7.19-2.17"/>
	</g>
	<g id="kvg:05f39-g2" kvg:element="单" kvg:position="right">
		<g id="kvg:05f39-g3" kvg:element="八" kvg:variant="true" kvg:position="top">
			<path id="kvg:05f39-s4" kvg:type="㇔" d="m59.32 12.14c1.64 2.04 4.26 8.4 4.66 11.58"/>
			<path id="kvg:05f39-s5" kvg:type="㇒" d="m79.23 11.14c0.01 0.37 0.03 0.96 -0.02 1.5c-0.36 3.16 -2.39 10.09 -5.17 14.33"/>
		</g>
		<g id="kvg:05f39-g4" kvg:position="bottom">
			<g id="kvg:05f39-g5" kvg:element="甲" kvg:part="1">
				<g id="kvg:05f39-g6" kvg:element="田" kvg:partial="true">
					<path id="kvg:05f39-s6" kvg:type="㇑" d="m47.48 35.74c0.27 0.49 0.78 1.35 0.93 1.97c1.1 4.47 2.45 14.15 3.29 22.8c0.11 1.12 0.21 2.21 0.3 3.3"/>
					<path id="kvg:05f39-s7" kvg:type="㇕" d="m49.25 37.64c0.94 -0.15 1.95 -0.32 3.01 -0.49c10.5 -1.69 25.96 -4.09 32.41 -4.88c2.61 -0.31 4.18 0.68 4.1 2.8c-0.14 3.85 -1.82 15.38 -3.02 21.86c-0.37 2.02 -0.7 2.61 -0.92 3.53"/>
					<path id="kvg:05f39-s8" kvg:type="㇐" d="m50.82 48.93c3.1 -0.41 32.18 -4.84 36.49 -4.56"/>
					<path id="kvg:05f39-s9" kvg:type="㇐" d="m52.37 61.37c10.63 -1.35 23.23 -2.96 33.04 -3.95"/>
				</g>
			</g>
			<g id="kvg:05f39-g7" kvg:element="一">
				<path id="kvg:05f39-s10" kvg:type="㇐" d="M40.44,75.88c1.2,0.51,3.41,0.6,4.62,0.51c6.69-0.46,31.02-4.27,46.04-4.97c2.01-0.09,3.21,0.25,4.22,0.5"/>
			</g>
			<g id="kvg:05f39-g8" kvg:element="甲" kvg:part="2">
				<g id="kvg:05f39-g11" kvg:element="丨">
					<path id="kvg:05f39-s11" kvg:type="㇑" d="m66.89 36.77c0.53 0.38 0.86 1.42 0.87 2.7c0.03 5.23 0.11 38.52 0.15 52.17c0.01 3.23 0.02 5.36 0.02 5.76"/>
				</g>
			</g>
		</g>
	</g>
</g>
</g>
<g id="kvg:StrokeNumbers_05f39" style="font-size:8;fill:#808080">
	<text transform="matrix(1 0 0 1 7.50 19.50)">1</text>
	<text transform="matrix(1 0 0 1 19.50 34.50)">2</text>
	<text transform="matrix(1 0 0 1 9.50 40.85)">3</text>
	<text transform="matrix(1 0 0 1 56.25 13.63)">4</text>
	<text transform="matrix(1 0 0 1 79.01 13.01)">5</text>
	<text transform="matrix(1 0 0 1 38.50 46.50)">6</text>
	<text transform="matrix(1 0 0 1 49.50 34.50)">7</text>
	<text transform="matrix(1 0 0 1 53.50 47.50)">8</text>
	<text transform="matrix(1 0 0 1 55.25 59.50)">9</text>
	<text transform="matrix(1 0 0 1 39.25 73.65)">10</text>
	<text transform="matrix(1 0 0 1 70.50 44.58)">11</text>
</g>
</svg>
