<?xml version="1.0" encoding="UTF-8"?>
<!--
Copyright (C) 2016 François Mizessyn.
This work makes an extensive use of kanjiVG Copyright (C) 2009/2010/2011 Ulrich Apel.
This work is distributed under the conditions of the Creative Commons
Attribution-Share Alike 3.0 Licence. This means you are free:
* to Share - to copy, distribute and transmit the work
* to Remix - to adapt the work

Under the following conditions:
* Attribution. You must attribute the work by stating your use of HanjiVG in
  your own copyright header and linking to HanjiVG's website
  (http://gooo.free.fr/hanziVG/)
* Attribution. You must attribute the work by stating your use of KanjiVG in
  your own copyright header and linking to KanjiVG's website
  (http://kanjivg.tagaini.net)
* Share Alike. If you alter, transform, or build upon this work, you may
  distribute the resulting work only under the same or similar license to this
  one.

See http://creativecommons.org/licenses/by-sa/3.0/ for more details.
-->
<!DOCTYPE svg PUBLIC "-//W3C//DTD SVG 1.0//EN" "http://www.w3.org/TR/2001/REC-SVG-20010904/DTD/svg10.dtd" [
<!ATTLIST g
xmlns:kvg CDATA #FIXED "http://kanjivg.tagaini.net"
kvg:element CDATA #IMPLIED
kvg:variant CDATA #IMPLIED
kvg:partial CDATA #IMPLIED
kvg:original CDATA #IMPLIED
kvg:part CDATA #IMPLIED
kvg:number CDATA #IMPLIED
kvg:tradForm CDATA #IMPLIED
kvg:radicalForm CDATA #IMPLIED
kvg:position CDATA #IMPLIED
kvg:radical CDATA #IMPLIED
kvg:phon CDATA #IMPLIED >
<!ATTLIST path
xmlns:kvg CDATA #FIXED "http://kanjivg.tagaini.net"
kvg:type CDATA #IMPLIED >
]>
<svg xmlns="http://www.w3.org/2000/svg" width="109" height="109" viewBox="0 0 109 109">
<g id="kvg:StrokePaths_05f55" style="fill:none;stroke:#000000;stroke-width:3;stroke-linecap:round;stroke-linejoin:round;">
<g id="kvg:05f55" kvg:element="录" kvg:radical="general">
	<g id="kvg:05f55-g1" kvg:element="彐" kvg:variant="true" kvg:original="彑" kvg:radical="tradit">
		<path id="kvg:05f55-s4" kvg:type="㇕" d="m23.63 23.5c3.25 0.75 5.34 0.65 8.66 0.5c10.83 -0.5 27.08 -2.25 34.3 -2.5c4.69 -0.16 6.02 1.49 5.42 4c-1.8 7.5 -2.89 15.12 -3.61 21"/>
		<path id="kvg:05f55-s5" kvg:type="㇐" d="m23.99 36.3c2.89 0.32 4.75 0.35 6.98 0.25c14.32 -0.67 26.23 -1.8 36.84 -2.32"/>
		<path id="kvg:05f55-s6" kvg:type="㇐c" d="m14.61 50.25c3.61 0.5 7.91 0.38 11.55 0.13c15.16 -1.01 37.37 -3 54.32 -3.56c4.43 -0.15 9.14 -0.08 13.55 0.43"/>
	</g>
	<g id="kvg:05f55-g2" kvg:element="氺" kvg:variant="true" kvg:original="水">
		<path id="kvg:05f55-s7" kvg:type="㇚" d="m52.18 51.08c1.73 1.2 2.55 2.42 2.55 4.27c0 14.56 -0.02 33.66 -0.02 35.62c0 10.78 -7.52 2.25 -9.69 1"/>
		<path id="kvg:05f55-s8" kvg:type="㇏" d="m24.35 61.75c4.33 1.59 11.19 6.53 12.27 9"/>
		<path id="kvg:05f55-s9" kvg:type="㇒" d="m21.1 90.26c1.81 0.37 3.41 -0.12 4.89 -0.97c1.42 -0.82 12.18 -7.6 18.21 -11.53"/>
		<path id="kvg:05f55-s10" kvg:type="㇒" d="m81.75 57.88c0.12 0.72 -0.06 1.4 -0.56 2.04c-1.64 2.46 -6.33 6.01 -14.15 10.3"/>
		<path id="kvg:05f55-s11" kvg:type="㇏" d="m61.54 74.75c3.61 0.75 23.51 14.75 28.25 17.28c1.61 0.86 2.98 1.23 4.6 1.47"/>
	</g>
</g>
</g>
<g id="kvg:StrokeNumbers_05f55" style="font-size:8;fill:#808080">
	<text transform="matrix(1 0 0 1 14.00 27.25)">1</text>
	<text transform="matrix(1 0 0 1 12.00 40.25)">2</text>
	<text transform="matrix(1 0 0 1 3.25 54.25)">3</text>
	<text transform="matrix(1 0 0 1 48.99 50.91)">4</text>
	<text transform="matrix(1 0 0 1 22.00 65.25)">5</text>
	<text transform="matrix(1 0 0 1 42.00 77.25)">6</text>
	<text transform="matrix(1 0 0 1 81.25 69.25)">7</text>
	<text transform="matrix(1 0 0 1 61.25 80.25)">8</text>
</g>
</svg>
