<?xml version="1.0" encoding="UTF-8"?>
<!--
Copyright (C) 2016 François Mizessyn.
This work makes an extensive use of kanjiVG Copyright (C) 2009/2010/2011 Ulrich Apel.
This work is distributed under the conditions of the Creative Commons
Attribution-Share Alike 3.0 Licence. This means you are free:
* to Share - to copy, distribute and transmit the work
* to Remix - to adapt the work

Under the following conditions:
* Attribution. You must attribute the work by stating your use of HanjiVG in
  your own copyright header and linking to HanjiVG's website
  (http://gooo.free.fr/hanziVG/)
* Attribution. You must attribute the work by stating your use of KanjiVG in
  your own copyright header and linking to KanjiVG's website
  (http://kanjivg.tagaini.net)
* Share Alike. If you alter, transform, or build upon this work, you may
  distribute the resulting work only under the same or similar license to this
  one.

See http://creativecommons.org/licenses/by-sa/3.0/ for more details.
-->
<!DOCTYPE svg PUBLIC "-//W3C//DTD SVG 1.0//EN" "http://www.w3.org/TR/2001/REC-SVG-20010904/DTD/svg10.dtd" [
<!ATTLIST g
xmlns:kvg CDATA #FIXED "http://kanjivg.tagaini.net"
kvg:element CDATA #IMPLIED
kvg:variant CDATA #IMPLIED
kvg:partial CDATA #IMPLIED
kvg:original CDATA #IMPLIED
kvg:part CDATA #IMPLIED
kvg:number CDATA #IMPLIED
kvg:tradForm CDATA #IMPLIED
kvg:radicalForm CDATA #IMPLIED
kvg:position CDATA #IMPLIED
kvg:radical CDATA #IMPLIED
kvg:phon CDATA #IMPLIED >
<!ATTLIST path
xmlns:kvg CDATA #FIXED "http://kanjivg.tagaini.net"
kvg:type CDATA #IMPLIED >
]>
<svg xmlns="http://www.w3.org/2000/svg" width="109" height="109" viewBox="0 0 109 109">
<g id="kvg:StrokePaths_05fb7" style="fill:none;stroke:#000000;stroke-width:3;stroke-linecap:round;stroke-linejoin:round;">
<g id="kvg:05fb7" kvg:element="德">
	<g id="kvg:05fb7-g1" kvg:element="彳" kvg:position="left" kvg:radical="general">
		<path id="kvg:05fb7-s1" kvg:type="㇒" d="M35.08,16.25c0.06,0.44,0.28,1.21-0.11,1.75c-2.75,3.78-11.03,12.9-19.1,16.75"/>
		<g id="kvg:05fb7-g2" kvg:element="亻" kvg:variant="true" kvg:original="人">
			<path id="kvg:05fb7-s2" kvg:type="㇒" d="M37.34,33.75c0.07,0.68,0.34,1.9-0.14,2.74c-3.35,5.93-12.6,17.8-24.45,26.26"/>
			<path id="kvg:05fb7-s3" kvg:type="㇑" d="M28.22,52.5c0.36,0.25,1.07,1.65,1.15,2.16c0.07,0.51,0,37.15-0.07,40.34"/>
		</g>
	</g>
	<g id="kvg:05fb7-g3" kvg:position="right" kvg:phon="十+あみがしら+衣">
		<g id="kvg:05fb7-g4" kvg:element="十">
			<path id="kvg:05fb7-s4" kvg:type="㇐" d="m45.88 25.64c3.37 0.69 5.91 0.25 8.64 -0.08c11.04 -1.27 24.26 -3.34 33.23 -4.05c2.79 -0.23 5.63 -0.48 8.39 0.16"/>
			<path id="kvg:05fb7-s5" kvg:type="㇑a" d="m69.65 12.56c1.11 1.2 1.47 2.56 1.34 4.27c-0.34 4.51 -0.75 10.17 -1.5 17.46"/>
		</g>
		<g id="kvg:05fb7-g5" kvg:element="罒" kvg:variant="true" kvg:original="网">
			<path id="kvg:05fb7-s6" kvg:type="㇑" d="m50.5 36.54c0.71 0.77 1.25 1.4 1.65 2.88c0.98 3.57 2.46 10.51 3.35 14.45"/>
			<path id="kvg:05fb7-s7" kvg:type="㇕a" d="m52.3 37.59c6.74 -1.4 26.93 -4.27 34.86 -5.32c2.62 -0.35 5.09 1.21 4.55 4.09c-0.5 2.67 -1.37 5.81 -2.44 9.48c-0.44 1.52 -0.87 3.05 -1.24 4.49"/>
			<path id="kvg:05fb7-s8" kvg:type="㇑a" d="m63.69 36.64c0.57 0.62 1.11 1.36 1.2 2.47c0.34 3.84 0.95 8.54 1.06 10.39"/>
			<path id="kvg:05fb7-s9" kvg:type="㇑a" d="m76.41 35.06c0.63 0.68 0.91 1.83 0.83 3.01c-0.27 4.09 -0.74 6.21 -0.95 10.39"/>
			<path id="kvg:05fb7-s10" kvg:type="㇐a" d="m56.26 52.01c2.87 -0.48 25.24 -3.41 31.6 -4.11"/>
		</g>
		<g id="kvg:05fb7-g6" kvg:element="一">
			<path id="kvg:05fb7-s11" kvg:type="㇐" d="M45.88 64.74c3.37 0.64 5.91 0.23 8.64 -0.07c11.04 -1.18 24.26 -3.09 33.23 -3.75c2.79 -0.21 5.63 -0.44 8.39 0.15"/>
		</g>
		<g id="kvg:05fb7-g7" kvg:element="心">
			<path id="kvg:05fb7-s12" kvg:type="㇔" d="m46.87 80.75c0.21 1.71 -2 9.28 -3.58 12.13"/>
			<path id="kvg:05fb7-s13" kvg:type="㇟b" d="m53.28 76.61c6.49 11.3 12.67 18.81 30.12 19.18c9.29 0.2 9.04 -1.58 2.2 -6.36"/>
			<path id="kvg:05fb7-s14" kvg:type="㇔a" d="m67.87 74.33c1.33 2.01 5.4 7.67 6.91 2.66"/>
			<path id="kvg:05fb7-s15" kvg:type="㇔" d="m86.07 72.63c4.03 1.87 7.05 3.57 10.31 9.35"/>
		</g>
	</g>
</g>
</g>
<g id="kvg:StrokeNumbers_05fb7" style="font-size:8;fill:#808080">
	<text transform="matrix(1 0 0 1 28.44 17.13)">1</text>
	<text transform="matrix(1 0 0 1 29.50 34.50)">2</text>
	<text transform="matrix(1 0 0 1 19.50 69.50)">3</text>
	<text transform="matrix(1 0 0 1 40.50 22.50)">4</text>
	<text transform="matrix(1 0 0 1 60.25 12.13)">5</text>
	<text transform="matrix(1 0 0 1 39.50 42.50)">6</text>
	<text transform="matrix(1 0 0 1 46.50 34.50)">7</text>
	<text transform="matrix(1 0 0 1 60.75 35.63)">8</text>
	<text transform="matrix(1 0 0 1 72.75 34.13)">9</text>
	<text transform="matrix(1 0 0 1 36.75 57.13)">10</text>
	<text transform="matrix(1 0 0 1 31.50 70.13)">11</text>
	<text transform="matrix(1 0 0 1 30.75 83.50)">12</text>
	<text transform="matrix(1 0 0 1 49.25 76.05)">13</text>
	<text transform="matrix(1 0 0 1 67.50 73.98)">14</text>
	<text transform="matrix(1 0 0 1 87.50 73.50)">15</text>
</g>
</svg>
