<?xml version="1.0" encoding="UTF-8"?>
<!--
Copyright (C) 2016 François Mizessyn.
This work makes an extensive use of kanjiVG Copyright (C) 2009/2010/2011 Ulrich Apel.
This work is distributed under the conditions of the Creative Commons
Attribution-Share Alike 3.0 Licence. This means you are free:
* to Share - to copy, distribute and transmit the work
* to Remix - to adapt the work

Under the following conditions:
* Attribution. You must attribute the work by stating your use of HanjiVG in
  your own copyright header and linking to HanjiVG's website
  (http://gooo.free.fr/hanziVG/)
* Attribution. You must attribute the work by stating your use of KanjiVG in
  your own copyright header and linking to KanjiVG's website
  (http://kanjivg.tagaini.net)
* Share Alike. If you alter, transform, or build upon this work, you may
  distribute the resulting work only under the same or similar license to this
  one.

See http://creativecommons.org/licenses/by-sa/3.0/ for more details.
-->
<!DOCTYPE svg PUBLIC "-//W3C//DTD SVG 1.0//EN" "http://www.w3.org/TR/2001/REC-SVG-20010904/DTD/svg10.dtd" [
<!ATTLIST g
xmlns:kvg CDATA #FIXED "http://kanjivg.tagaini.net"
kvg:element CDATA #IMPLIED
kvg:variant CDATA #IMPLIED
kvg:partial CDATA #IMPLIED
kvg:original CDATA #IMPLIED
kvg:part CDATA #IMPLIED
kvg:number CDATA #IMPLIED
kvg:tradForm CDATA #IMPLIED
kvg:radicalForm CDATA #IMPLIED
kvg:position CDATA #IMPLIED
kvg:radical CDATA #IMPLIED
kvg:phon CDATA #IMPLIED >
<!ATTLIST path
xmlns:kvg CDATA #FIXED "http://kanjivg.tagaini.net"
kvg:type CDATA #IMPLIED >
]>
<svg xmlns="http://www.w3.org/2000/svg" width="109" height="109" viewBox="0 0 109 109">
<g id="kvg:StrokePaths_06001" style="fill:none;stroke:#000000;stroke-width:3;stroke-linecap:round;stroke-linejoin:round;">
<g id="kvg:06001" kvg:element="态">
	<g id="kvg:06001-g1" kvg:element="太">
		<g id="kvg:06001-g2" kvg:element="大" kvg:position="top" kvg:radical="general">
			<path id="kvg:06001-s1" kvg:type="㇐" d="m19.38 31.72c2.65 0.55 5.89 0.67 8.63 0.42c13.62 -1.24 33.87 -3.19 48.67 -3.74c2.62 -0.1 5.62 0.1 8.08 0.55"/>
			<path id="kvg:06001-s2" kvg:type="㇒" d="m49 13.8c1 0.6 1.49 1.45 1.49 2.74c0 20.51 -12.74 34.76 -32.49 41.66"/>
			<path id="kvg:06001-s3" kvg:type="㇏" d="m50.75 31.65c8.04 5.63 24.72 18.23 34.53 23.83c2.4 1.37 4.97 2.8 8.22 3.47"/>
		</g>
		<g id="kvg:06001-g3" kvg:element="丶" kvg:position="bottom">
			<path id="kvg:06001-s4" kvg:type="㇔" d="m48.5 49.9c3.79 1.3 9.8 5.33 10.75 7.35"/>
		</g>
	</g>
	<g id="kvg:06001-g4" kvg:element="心" kvg:position="bottom" kvg:radical="tradit">
		<path id="kvg:06001-s5" kvg:type="㇔" d="m23.11 74.81c-0.49 5.59 -2.28 12.72 -4.11 16.77"/>
		<path id="kvg:06001-s6" kvg:type="㇟b" d="m34.35 69.98c5.15 14.25 21.36 27.37 47.26 25.31c8.89 -0.71 8.39 -2.51 3.2 -7.29"/>
		<path id="kvg:06001-s7" kvg:type="㇔a" d="m55.47 67.35c2.15 4.39 5.87 8.88 7.01 4.02"/>
		<path id="kvg:06001-s8" kvg:type="㇔" d="m83 66.68c3.62 2.25 7.75 5.96 10.25 10.55"/>
	</g>
</g>
</g>
<g id="kvg:StrokeNumbers_06001" style="font-size:8;fill:#808080">
	<text transform="matrix(1 0 0 1 9.75 36.50)">1</text>
	<text transform="matrix(1 0 0 1 38.50 18.50)">2</text>
	<text transform="matrix(1 0 0 1 56.50 35.50)">3</text>
	<text transform="matrix(1 0 0 1 46.50 48.50)">4</text>
	<text transform="matrix(1 0 0 1 17.50 71.63)">5</text>
	<text transform="matrix(1 0 0 1 29.75 66.50)">6</text>
	<text transform="matrix(1 0 0 1 47.50 67.63)">7</text>
	<text transform="matrix(1 0 0 1 72.50 67.63)">8</text>
</g>
</svg>
