<?xml version="1.0" encoding="UTF-8"?>
<!--
Copyright (C) 2016 François Mizessyn.
This work makes an extensive use of kanjiVG Copyright (C) 2009/2010/2011 Ulrich Apel.
This work is distributed under the conditions of the Creative Commons
Attribution-Share Alike 3.0 Licence. This means you are free:
* to Share - to copy, distribute and transmit the work
* to Remix - to adapt the work

Under the following conditions:
* Attribution. You must attribute the work by stating your use of HanjiVG in
  your own copyright header and linking to HanjiVG's website
  (http://gooo.free.fr/hanziVG/)
* Attribution. You must attribute the work by stating your use of KanjiVG in
  your own copyright header and linking to KanjiVG's website
  (http://kanjivg.tagaini.net)
* Share Alike. If you alter, transform, or build upon this work, you may
  distribute the resulting work only under the same or similar license to this
  one.

See http://creativecommons.org/licenses/by-sa/3.0/ for more details.
-->
<!DOCTYPE svg PUBLIC "-//W3C//DTD SVG 1.0//EN" "http://www.w3.org/TR/2001/REC-SVG-20010904/DTD/svg10.dtd" [
<!ATTLIST g
xmlns:kvg CDATA #FIXED "http://kanjivg.tagaini.net"
kvg:element CDATA #IMPLIED
kvg:variant CDATA #IMPLIED
kvg:partial CDATA #IMPLIED
kvg:original CDATA #IMPLIED
kvg:part CDATA #IMPLIED
kvg:number CDATA #IMPLIED
kvg:tradForm CDATA #IMPLIED
kvg:radicalForm CDATA #IMPLIED
kvg:position CDATA #IMPLIED
kvg:radical CDATA #IMPLIED
kvg:phon CDATA #IMPLIED >
<!ATTLIST path
xmlns:kvg CDATA #FIXED "http://kanjivg.tagaini.net"
kvg:type CDATA #IMPLIED >
]>
<svg xmlns="http://www.w3.org/2000/svg" width="109" height="109" viewBox="0 0 109 109">
<g id="kvg:StrokePaths_06000" style="fill:none;stroke:#000000;stroke-width:3;stroke-linecap:round;stroke-linejoin:round;">
<g id="kvg:06000" kvg:element="怀">
	<g id="kvg:06000-g1" kvg:element="忄" kvg:variant="true" kvg:original="心" kvg:position="left" kvg:radical="general">
		<path id="kvg:06000-s1" kvg:type="㇔" d="M16,38.75c0,6.43-3.55,15.41-4.48,17.25"/>
		<path id="kvg:06000-s2" kvg:type="㇔" d="M30.52,30.83c3.72,2.19,9.61,8.98,10.54,12.38"/>
		<path id="kvg:06000-s3" kvg:type="㇑" d="M25.62,14.75c0.94,0.94,1.71,2.75,1.71,4c0,0.85,0.05,65.88,0.05,69.62c0,5.04-0.01,5.5-0.01,7.38"/>
	</g>
	<g id="kvg:06000-g2" kvg:element="不" kvg:position="right">
		<g id="kvg:06000-g3" kvg:element="一">
			<path id="kvg:06000-s4" kvg:type="㇐" d="m52.38 22.96c0.96 0.52 2.73 0.65 3.7 0.52c9.22 -1.23 25.89 -3.53 36.48 -4.47c1.6 -0.14 2.57 0.25 3.38 0.51"/>
		</g>
		<g id="kvg:06000-g4" kvg:element="丿">
			<path id="kvg:06000-s5" kvg:type="㇒" d="m75.25 23.66c0.06 1.15 0.37 3.05 -0.14 4.61c-3.11 9.73 -11.71 30.23 -23.62 44.15"/>
		</g>
		<g id="kvg:06000-g5" kvg:element="丨">
			<path id="kvg:06000-s6" kvg:type="㇑" d="m70.9 44.75c1.15 1.2 1.52 2.88 1.52 4.91c0 4.45 -0.09 33 -0.09 48.84"/>
		</g>
		<path id="kvg:06000-s7" kvg:type="㇔" d="m80.11 49.25c5.5 3.92 14.21 16.11 15.59 22.2"/>
	</g>
</g>
</g>
<g id="kvg:StrokeNumbers_06000" style="font-size:8;fill:#808080">
	<text transform="matrix(1 0 0 1 11.25 34.63)">1</text>
	<text transform="matrix(1 0 0 1 32.50 28.50)">2</text>
	<text transform="matrix(1 0 0 1 16.50 14.50)">3</text>
	<text transform="matrix(1 0 0 1 47.50 20.50)">4</text>
	<text transform="matrix(1 0 0 1 62.50 36.08)">5</text>
	<text transform="matrix(1 0 0 1 61.50 62.50)">6</text>
	<text transform="matrix(1 0 0 1 74.50 47.50)">7</text>
</g>
</svg>
