<?xml version="1.0" encoding="UTF-8"?>
<!--
Copyright (C) 2016 François Mizessyn.
This work makes an extensive use of kanjiVG Copyright (C) 2009/2010/2011 Ulrich Apel.
This work is distributed under the conditions of the Creative Commons
Attribution-Share Alike 3.0 Licence. This means you are free:
* to Share - to copy, distribute and transmit the work
* to Remix - to adapt the work

Under the following conditions:
* Attribution. You must attribute the work by stating your use of HanjiVG in
  your own copyright header and linking to HanjiVG's website
  (http://gooo.free.fr/hanziVG/)
* Attribution. You must attribute the work by stating your use of KanjiVG in
  your own copyright header and linking to KanjiVG's website
  (http://kanjivg.tagaini.net)
* Share Alike. If you alter, transform, or build upon this work, you may
  distribute the resulting work only under the same or similar license to this
  one.

See http://creativecommons.org/licenses/by-sa/3.0/ for more details.
-->
<!DOCTYPE svg PUBLIC "-//W3C//DTD SVG 1.0//EN" "http://www.w3.org/TR/2001/REC-SVG-20010904/DTD/svg10.dtd" [
<!ATTLIST g
xmlns:kvg CDATA #FIXED "http://kanjivg.tagaini.net"
kvg:element CDATA #IMPLIED
kvg:variant CDATA #IMPLIED
kvg:partial CDATA #IMPLIED
kvg:original CDATA #IMPLIED
kvg:part CDATA #IMPLIED
kvg:number CDATA #IMPLIED
kvg:tradForm CDATA #IMPLIED
kvg:radicalForm CDATA #IMPLIED
kvg:position CDATA #IMPLIED
kvg:radical CDATA #IMPLIED
kvg:phon CDATA #IMPLIED >
<!ATTLIST path
xmlns:kvg CDATA #FIXED "http://kanjivg.tagaini.net"
kvg:type CDATA #IMPLIED >
]>
<svg xmlns="http://www.w3.org/2000/svg" width="109" height="109" viewBox="0 0 109 109">
<g id="kvg:StrokePaths_0603b" style="fill:none;stroke:#000000;stroke-width:3;stroke-linecap:round;stroke-linejoin:round;">
<g id="kvg:0603b" kvg:element="总">
	<g id="kvg:0603b-g1" kvg:element="𠮦" kvg:position="top">
		<g id="kvg:0603b-g2" kvg:element="八" kvg:variant="true" kvg:position="top">
			<path id="kvg:0603b-s1" kvg:type="㇔" d="M35.33,12.14c2.86,2.04,7.39,8.4,8.1,11.58"/>
			<path id="kvg:0603b-s2" kvg:type="㇒" d="M69.96,11.14c0.02,0.37,0.05,0.96-0.05,1.5c-0.62,3.16-4.16,10.09-9,14.33"/>
		</g>
		<g id="kvg:0603b-g3" kvg:element="口" kvg:position="bottom">
			<path id="kvg:0603b-s3" kvg:type="㇑" d="m26.53 36.83c0.98 0.7 1.57 1.58 1.78 2.64c1.44 3.95 3.59 11.69 4.78 17.77c0.23 1.18 0.44 2.33 0.61 3.41"/>
			<path id="kvg:0603b-s4" kvg:type="㇕b" d="m29.41 38.65c17.09 -2.65 42.9 -5.73 49.12 -6.1c3.07 -0.18 4.61 2.43 4.25 3.86c-0.82 3.25 -3.01 10.97 -4.36 15.49"/>
			<path id="kvg:0603b-s5" kvg:type="㇐b" d="m34.2 57.44c6.2 -0.54 28 -2.7 40.51 -3.87c2.54 -0.24 4.7 -0.43 6.3 -0.54"/>
		</g>
	</g>
	<g id="kvg:0603b-g4" kvg:element="心" kvg:position="bottom" kvg:radical="tradit">
		<path id="kvg:0603b-s4" kvg:type="㇔" d="M19.55,73.88c0.36,2.62-3.6,14.21-6.49,18.58"/>
		<path id="kvg:0603b-s5" kvg:type="㇟b" d="M30.12,69.01C37.62,86.12,51,98,82.32,96.61c7.78-0.35,8.43-3.11,3-8.2"/>
		<path id="kvg:0603b-s6" kvg:type="㇔a" d="M52.85,68.17c1.65,4.58,6.15,11.08,7.4,4.28"/>
		<path id="kvg:0603b-s7" kvg:type="㇔" d="M83.42,62.91c4.33,4.09,8.83,8.59,12.02,14.7"/>
	</g>
</g>
</g>
<g id="kvg:StrokeNumbers_0603b" style="font-size:8;fill:#808080">
	<text transform="matrix(1 0 0 1 26.25 13.63)">1</text>
	<text transform="matrix(1 0 0 1 59.01 13.01)">2</text>
	<text transform="matrix(1 0 0 1 15.50 44.50)">3</text>
	<text transform="matrix(1 0 0 1 25.00 34.50)">4</text>
	<text transform="matrix(1 0 0 1 34.50 54.13)">5</text>
	<text transform="matrix(1 0 0 1 12.75 70.63)">6</text>
	<text transform="matrix(1 0 0 1 22.50 70.50)">7</text>
	<text transform="matrix(1 0 0 1 41.75 71.50)">8</text>
	<text transform="matrix(1 0 0 1 72.50 68.50)">9</text>
</g>
</svg>
