<?xml version="1.0" encoding="UTF-8"?>
<!--
Copyright (C) 2016 François Mizessyn.
This work makes an extensive use of kanjiVG Copyright (C) 2009/2010/2011 Ulrich Apel.
This work is distributed under the conditions of the Creative Commons
Attribution-Share Alike 3.0 Licence. This means you are free:
* to Share - to copy, distribute and transmit the work
* to Remix - to adapt the work

Under the following conditions:
* Attribution. You must attribute the work by stating your use of HanjiVG in
  your own copyright header and linking to HanjiVG's website
  (http://gooo.free.fr/hanziVG/)
* Attribution. You must attribute the work by stating your use of KanjiVG in
  your own copyright header and linking to KanjiVG's website
  (http://kanjivg.tagaini.net)
* Share Alike. If you alter, transform, or build upon this work, you may
  distribute the resulting work only under the same or similar license to this
  one.

See http://creativecommons.org/licenses/by-sa/3.0/ for more details.
-->
<!DOCTYPE svg PUBLIC "-//W3C//DTD SVG 1.0//EN" "http://www.w3.org/TR/2001/REC-SVG-20010904/DTD/svg10.dtd" [
<!ATTLIST g
xmlns:kvg CDATA #FIXED "http://kanjivg.tagaini.net"
kvg:element CDATA #IMPLIED
kvg:variant CDATA #IMPLIED
kvg:partial CDATA #IMPLIED
kvg:original CDATA #IMPLIED
kvg:part CDATA #IMPLIED
kvg:number CDATA #IMPLIED
kvg:tradForm CDATA #IMPLIED
kvg:radicalForm CDATA #IMPLIED
kvg:position CDATA #IMPLIED
kvg:radical CDATA #IMPLIED
kvg:phon CDATA #IMPLIED >
<!ATTLIST path
xmlns:kvg CDATA #FIXED "http://kanjivg.tagaini.net"
kvg:type CDATA #IMPLIED >
]>
<svg xmlns="http://www.w3.org/2000/svg" width="109" height="109" viewBox="0 0 109 109">
<g id="kvg:StrokePaths_060a8" style="fill:none;stroke:#000000;stroke-width:3;stroke-linecap:round;stroke-linejoin:round;">
<g id="kvg:060a8" kvg:element="您">
	<g id="kvg:060a8-g1" kvg:element="亻" kvg:variant="true" kvg:original="人" kvg:position="left" kvg:radical="general">
		<path id="kvg:060a8-s1" kvg:type="㇒" d="M35.25 14.17c0.21 1.2 -0.06 2.3 -0.73 3.34c-4.28 7.15 -15.52 14.36 -24.52 21.26"/>
		<path id="kvg:060a8-s2" kvg:type="㇑" d="M27.91 28.2c0.92 0.55 1.25 1.43 1.25 2.1c0.03 6.4 0.17 19.24 0.22 26.02c0.01 1.49 0.02 2.71 0.02 3.53"/>
	</g>
	<g id="kvg:060a8-g2" kvg:element="尔" kvg:position="right">
		<g id="kvg:060a8-g3" kvg:element="⺈" kvg:position="top">
			<path id="kvg:060a8-s3" kvg:type="㇒" d="M57.94 11.63c0.09 0.86 0.11 1.57 -0.4 2.39c-2.77 4.44 -9.35 12.43 -17.62 17.63"/>
			<path id="kvg:060a8-s4" kvg:type="㇖a" d="M52.61 22.16c2.01 0.43 3.76 0.27 5.82 0.06c9.61 -0.99 16.68 -2.01 30.23 -2.72c6.23 -0.42 4.15 1.25 0.04 9.19"/>
		</g>
		<g id="kvg:060a8-g5" kvg:element="小" kvg:position="bottom">
			<path id="kvg:060a8-s5" kvg:type="㇚" d="M66.57 27.42c1.05 0.63 1.28 1.31 1.28 2.72c0 7.19 -0.11 23.89 -0.11 26.33c0 5.56 -6.04 0.49 -7.27 -0.13"/>
			<path id="kvg:060a8-s6" kvg:type="㇒" d="M52.26 38.85c0.09 0.8 0.09 1.45 -0.39 2.2c-1.67 2.6 -4.73 6.77 -8.6 10.05"/>
			<path id="kvg:060a8-s7" kvg:type="㇔" d="M82.61 37.88c3.19 2.37 8.24 9.74 9.04 13.43"/>
		</g>
	</g>
</g>
	<g id="kvg:060a8-g4" kvg:element="心" kvg:position="bottom" kvg:radical="general">
		<path id="kvg:060a8-s8" kvg:type="㇔" d="M23.58,73.84c0.24,2.4-2.37,12.99-4.27,16.99"/>
		<path id="kvg:060a8-s9" kvg:type="㇟b" d="M34.54,69.84C43,87.5,53.5,98,81.04,96.83c6.97-0.3,6.96-3.2,2.38-6.95"/>
		<path id="kvg:060a8-s10" kvg:type="㇔a" d="M51.55,66.63c2.95,4.99,5.84,8.66,6.84,4.33"/>
		<path id="kvg:060a8-s11" kvg:type="㇔" d="M78.03,64.45c5.33,1.2,9.33,2.29,13.66,6"/>
	</g>
</g>
<g id="kvg:StrokeNumbers_060a8" style="font-size:8;fill:#808080">
	<text transform="matrix(1 0 0 1 25.75 16.50)">1</text>
	<text transform="matrix(1 0 0 1 19.25 42.50)">2</text>
	<text transform="matrix(1 0 0 1 49.00 13.25)">3</text>
	<text transform="matrix(1 0 0 1 41.25 25.25)">4</text>
	<text transform="matrix(1 0 0 1 57.25 38.00)">5</text>
	<text transform="matrix(1 0 0 1 42.25 42.25)">6</text>
	<text transform="matrix(1 0 0 1 76.25 35.85)">7</text>
	<text transform="matrix(1 0 0 1 14.50 75.13)">8</text>
	<text transform="matrix(1 0 0 1 33.75 70.50)">9</text>
	<text transform="matrix(1 0 0 1 45.50 64.50)">10</text>
	<text transform="matrix(1 0 0 1 73.75 61.50)">11</text>
</g>
</svg>
