<?xml version="1.0" encoding="UTF-8"?>
<!--
Copyright (C) 2016 François Mizessyn.
This work makes an extensive use of kanjiVG Copyright (C) 2009/2010/2011 Ulrich Apel.
This work is distributed under the conditions of the Creative Commons
Attribution-Share Alike 3.0 Licence. This means you are free:
* to Share - to copy, distribute and transmit the work
* to Remix - to adapt the work

Under the following conditions:
* Attribution. You must attribute the work by stating your use of HanjiVG in
  your own copyright header and linking to HanjiVG's website
  (http://gooo.free.fr/hanziVG/)
* Attribution. You must attribute the work by stating your use of KanjiVG in
  your own copyright header and linking to KanjiVG's website
  (http://kanjivg.tagaini.net)
* Share Alike. If you alter, transform, or build upon this work, you may
  distribute the resulting work only under the same or similar license to this
  one.

See http://creativecommons.org/licenses/by-sa/3.0/ for more details.
-->
<!DOCTYPE svg PUBLIC "-//W3C//DTD SVG 1.0//EN" "http://www.w3.org/TR/2001/REC-SVG-20010904/DTD/svg10.dtd" [
<!ATTLIST g
xmlns:kvg CDATA #FIXED "http://kanjivg.tagaini.net"
kvg:element CDATA #IMPLIED
kvg:variant CDATA #IMPLIED
kvg:partial CDATA #IMPLIED
kvg:original CDATA #IMPLIED
kvg:part CDATA #IMPLIED
kvg:number CDATA #IMPLIED
kvg:tradForm CDATA #IMPLIED
kvg:radicalForm CDATA #IMPLIED
kvg:position CDATA #IMPLIED
kvg:radical CDATA #IMPLIED
kvg:phon CDATA #IMPLIED >
<!ATTLIST path
xmlns:kvg CDATA #FIXED "http://kanjivg.tagaini.net"
kvg:type CDATA #IMPLIED >
]>
<svg xmlns="http://www.w3.org/2000/svg" width="109" height="109" viewBox="0 0 109 109">
<g id="kvg:StrokePaths_060ca" style="fill:none;stroke:#000000;stroke-width:3;stroke-linecap:round;stroke-linejoin:round;">
<g id="kvg:060ca" kvg:element="惊">
	<g id="kvg:060ca-g1" kvg:element="忄" kvg:variant="true" kvg:original="心" kvg:position="left" kvg:radical="general">
		<path id="kvg:060ca-s1" kvg:type="㇔" d="M16,38.75c0,6.43-3.55,15.41-4.48,17.25"/>
		<path id="kvg:060ca-s2" kvg:type="㇔" d="M30.52,30.83c3.72,2.19,9.61,8.98,10.54,12.38"/>
		<path id="kvg:060ca-s3" kvg:type="㇑" d="M25.62,14.75c0.94,0.94,1.71,2.75,1.71,4c0,0.85,0.05,65.88,0.05,69.62c0,5.04-0.01,5.5-0.01,7.38"/>
	</g>
	<g id="kvg:060ca-g2" kvg:element="京" kvg:position="right">
		<g id="kvg:060ca-g3" kvg:element="亠" kvg:position="top">
			<path id="kvg:060ca-s4" kvg:type="㇑a" d="m67.74 9.92c0.89 0.58 2.36 2.86 2.36 4.06c0 4.42 -0.11 6.52 -0.11 10.57"/>
			<path id="kvg:060ca-s5" kvg:type="㇐" d="m44.2 27c1.09 0.07 3.57 0.48 4.64 0.39c10.66 -0.89 33.07 -4.89 43.29 -5.3c1.8 -0.07 2.72 -0.04 4.06 0.56"/>
		</g>
		<g id="kvg:060ca-g4" kvg:position="bottom">
			<g id="kvg:060ca-g5" kvg:element="口">
				<path id="kvg:060ca-s6" kvg:type="㇑" d="m51.95 39.32c0.5 0.39 1.14 0.67 1.25 1.2c0.77 3.82 1.83 11.74 2.95 18.98"/>
				<path id="kvg:060ca-s7" kvg:type="㇕b" d="m53.62 41.11c7.64 -1.49 26.13 -3.5 31.32 -4.11c2.15 -0.25 3.69 1.58 2.83 4.5c-0.96 3.25 -1.67 8.75 -3.01 13.25"/>
				<path id="kvg:060ca-s8" kvg:type="㇐b" d="m56.5 58.03c8.62 -0.78 21 -2.53 30.42 -3.03"/>
				<path id="kvg:060ca-s9" kvg:type="㇚" d="m69.78 59.33c0.07 0.5 1.35 2.61 1.47 5.78c0.19 5.13 -0.21 24.23 -0.21 28.65c0 9.47 -5.82 0.52 -7.04 -0.79"/>
			</g>
			<g id="kvg:060ca-g6" kvg:element="小">
				<path id="kvg:060ca-s10" kvg:type="㇒" d="m55.63 70c0.04 0.46 0.07 1.19 -0.07 1.85c-0.83 3.89 -5.51 11.15 -12.13 17.65"/>
				<path id="kvg:060ca-s11" kvg:type="㇔" d="m83.58 69.25c4.83 3.79 11.51 14.35 12.73 20.25"/>
			</g>
		</g>
	</g>
</g>
</g>
<g id="kvg:StrokeNumbers_060ca" style="font-size:8;fill:#808080">
	<text transform="matrix(1 0 0 1 11.25 35.63)">1</text>
	<text transform="matrix(1 0 0 1 30.50 28.50)">2</text>
	<text transform="matrix(1 0 0 1 16.50 14.50)">3</text>
	<text transform="matrix(1 0 0 1 57.50 12.50)">4</text>
	<text transform="matrix(1 0 0 1 39.50 24.50)">5</text>
	<text transform="matrix(1 0 0 1 41.50 46.50)">6</text>
	<text transform="matrix(1 0 0 1 50.50 37.50)">7</text>
	<text transform="matrix(1 0 0 1 55.50 54.50)">8</text>
	<text transform="matrix(1 0 0 1 59.44 67.60)">9</text>
	<text transform="matrix(1 0 0 1 41.50 70.50)">10</text>
	<text transform="matrix(1 0 0 1 79.50 66.50)">11</text>
</g>
</svg>
