<?xml version="1.0" encoding="UTF-8"?>
<!--
Copyright (C) 2016 François Mizessyn.
This work makes an extensive use of kanjiVG Copyright (C) 2009/2010/2011 Ulrich Apel.
This work is distributed under the conditions of the Creative Commons
Attribution-Share Alike 3.0 Licence. This means you are free:
* to Share - to copy, distribute and transmit the work
* to Remix - to adapt the work

Under the following conditions:
* Attribution. You must attribute the work by stating your use of HanjiVG in
  your own copyright header and linking to HanjiVG's website
  (http://gooo.free.fr/hanziVG/)
* Attribution. You must attribute the work by stating your use of KanjiVG in
  your own copyright header and linking to KanjiVG's website
  (http://kanjivg.tagaini.net)
* Share Alike. If you alter, transform, or build upon this work, you may
  distribute the resulting work only under the same or similar license to this
  one.

See http://creativecommons.org/licenses/by-sa/3.0/ for more details.
-->
<!DOCTYPE svg PUBLIC "-//W3C//DTD SVG 1.0//EN" "http://www.w3.org/TR/2001/REC-SVG-20010904/DTD/svg10.dtd" [
<!ATTLIST g
xmlns:kvg CDATA #FIXED "http://kanjivg.tagaini.net"
kvg:element CDATA #IMPLIED
kvg:variant CDATA #IMPLIED
kvg:partial CDATA #IMPLIED
kvg:original CDATA #IMPLIED
kvg:part CDATA #IMPLIED
kvg:number CDATA #IMPLIED
kvg:tradForm CDATA #IMPLIED
kvg:radicalForm CDATA #IMPLIED
kvg:position CDATA #IMPLIED
kvg:radical CDATA #IMPLIED
kvg:phon CDATA #IMPLIED >
<!ATTLIST path
xmlns:kvg CDATA #FIXED "http://kanjivg.tagaini.net"
kvg:type CDATA #IMPLIED >
]>
<svg xmlns="http://www.w3.org/2000/svg" width="109" height="109" viewBox="0 0 109 109">
<g id="kvg:StrokePaths_060ef" style="fill:none;stroke:#000000;stroke-width:3;stroke-linecap:round;stroke-linejoin:round;">
<g id="kvg:060ef" kvg:element="惯">
	<g id="kvg:060ef-g1" kvg:element="忄" kvg:variant="true" kvg:original="心" kvg:position="left" kvg:radical="general">
		<path id="kvg:060ef-s1" kvg:type="㇔" d="M16.18,38c0,5.88-3.06,14.57-3.86,16.25"/>
		<path id="kvg:060ef-s2" kvg:type="㇔" d="M29.02,35.08c2.84,1.79,7.33,7.35,8.04,10.13"/>
		<path id="kvg:060ef-s3" kvg:type="㇑" d="M22.87,14.5c1.06,1.06,1.46,2.75,1.46,4.25c0,0.87,0.02,51.42,0.03,71.25c0,3.57,0,6.15,0,7.25"/>
	</g>
	<g id="kvg:060ef-g2" kvg:element="贯" kvg:position="right">
		<g id="kvg:060ef-g3" kvg:element="毋" kvg:original="母" kvg:partial="true" kvg:position="top">
			<path id="kvg:060ef-s4" kvg:type="㇛" d="m51.6,15.24c0.83,0.83,1.14,2.12,1.02,3.3-0.74,7.34-1.75,14.09-3.1,18.7-0.5,1.69,0.19,2.75,1.57,2.46,8.11,-1.7,15.02,-2.59,24.42,-3.15,2.09,-0.13,4.3,-0.23,6.68,-0.33"/>
			<path id="kvg:060ef-s5" kvg:type="㇕a/㇆" d="M54.17,17.48c0.8-0.08,24.87-3.59,28.85-3.52c1.55,0.03,2.96,1.15,2.65,3c-0.96,5.81-1.64,11.08-2.84,17.67C82.58,36.03,82.3,37.47,82,39"/>
			<path id="kvg:060ef-s6" kvg:type="㇑a" d="M66.52,16.02c0.73,0.73,0.98,2.1,0.88,3.07c-0.62,5.83-1.02,10.28-1.86,17.1"/>
			<path id="kvg:060ef-s7" kvg:type="㇐" d="M36.88,28.59c2.37,0.41,5.19,0.2,7.63-0.02c11.28-1.02,28.03-2.96,44.5-4.11c2.99-0.21,6.24-0.33,8.61,0.28"/>
		</g>
		<g id="kvg:060ef-g4" kvg:element="贝" kvg:position="bottom">
			<g id="kvg:060ef-g5" kvg:element="冂" kvg:variant="true">
				<path id="kvg:060ef-s8" kvg:type="㇑" d="m49.9 50.57c0.55 0.6 0.85 1.34 0.4 0.75c0.92 4.55 1.8 11.63 1.9 18.39c0.1 0.94 0.18 1.84 0.28 9.23"/>
				<path id="kvg:060ef-s9" kvg:type="㇕" d="m50.31 51.33c9.05 -0.96 22.64 -2.85 32.26 -3.3c2.44 -0.13 3.74 0.94 3.54 2.77c-0.52 4.69 -1.63 11.23 -1.85 17.17c-0.23 0.95 -0.46 3.83 -0.7 9.32"/>
			</g>
			<g id="kvg:060ef-g6" kvg:element="人" kvg:position="bottom" kvg:radical="general">
				<path id="kvg:060ef-s10" kvg:type="㇒" d="m68.9 61.7c0.22 1.07 0.14 2.03 -0.13 3.16c-1.56 6.66 -9.62 23.18 -22.67 30.74"/>
				<path id="kvg:060ef-s11" kvg:type="㇏" d="m63.8 78.96c3.67 3.02 15.31 11.21 21.31 14.99c2.2 1.37 4.16 2.33 6.89 2.78"/>
			</g>
		</g>
	</g>
</g>
</g>
<g id="kvg:StrokeNumbers_060ef" style="font-size:8;fill:#808080">
	<text transform="matrix(1 0 0 1 7.50 39.13)">1</text>
	<text transform="matrix(1 0 0 1 26.25 32.50)">2</text>
	<text transform="matrix(1 0 0 1 15.00 12.50)">3</text>
	<text transform="matrix(1 0 0 1 42.50 20.50)">4</text>
	<text transform="matrix(1 0 0 1 52.50 14.50)">5</text>
	<text transform="matrix(1 0 0 1 64.50 13.50)">6</text>
	<text transform="matrix(1 0 0 1 33.75 25.63)">7</text>
	<text transform="matrix(1 0 0 1 40.75 60.63)">8</text>
	<text transform="matrix(1 0 0 1 48.50 48.03)">9</text>
	<text transform="matrix(1 0 0 1 58.18 59.46)">10</text>
	<text transform="matrix(1 0 0 1 66.44 81.50)">11</text>
</g>
</svg>
