<?xml version="1.0" encoding="UTF-8"?>
<!--
Copyright (C) 2016 François Mizessyn.
This work makes an extensive use of kanjiVG Copyright (C) 2009/2010/2011 Ulrich Apel.
This work is distributed under the conditions of the Creative Commons
Attribution-Share Alike 3.0 Licence. This means you are free:
* to Share - to copy, distribute and transmit the work
* to Remix - to adapt the work

Under the following conditions:
* Attribution. You must attribute the work by stating your use of HanjiVG in
  your own copyright header and linking to HanjiVG's website
  (http://gooo.free.fr/hanziVG/)
* Attribution. You must attribute the work by stating your use of KanjiVG in
  your own copyright header and linking to KanjiVG's website
  (http://kanjivg.tagaini.net)
* Share Alike. If you alter, transform, or build upon this work, you may
  distribute the resulting work only under the same or similar license to this
  one.

See http://creativecommons.org/licenses/by-sa/3.0/ for more details.
-->
<!DOCTYPE svg PUBLIC "-//W3C//DTD SVG 1.0//EN" "http://www.w3.org/TR/2001/REC-SVG-20010904/DTD/svg10.dtd" [
<!ATTLIST g
xmlns:kvg CDATA #FIXED "http://kanjivg.tagaini.net"
kvg:element CDATA #IMPLIED
kvg:variant CDATA #IMPLIED
kvg:partial CDATA #IMPLIED
kvg:original CDATA #IMPLIED
kvg:part CDATA #IMPLIED
kvg:number CDATA #IMPLIED
kvg:tradForm CDATA #IMPLIED
kvg:radicalForm CDATA #IMPLIED
kvg:position CDATA #IMPLIED
kvg:radical CDATA #IMPLIED
kvg:phon CDATA #IMPLIED >
<!ATTLIST path
xmlns:kvg CDATA #FIXED "http://kanjivg.tagaini.net"
kvg:type CDATA #IMPLIED >
]>
<svg xmlns="http://www.w3.org/2000/svg" width="109" height="109" viewBox="0 0 109 109">
<g id="kvg:StrokePaths_061c2" style="fill:none;stroke:#000000;stroke-width:3;stroke-linecap:round;stroke-linejoin:round;">
<g id="kvg:061c2" kvg:element="懂">
	<g id="kvg:061c2-g1" kvg:element="忄" kvg:variant="true" kvg:original="心" kvg:radical="tradit">
		<path id="kvg:061c2-s1" kvg:type="㇔" d="m14.86 36c0 7.78 -1.89 19.28 -2.39 21.5"/>
		<path id="kvg:061c2-s2" kvg:type="㇔" d="m29.98 28.12c1.2 2.54 3.09 10.43 3.4 14.38"/>
		<path id="kvg:061c2-s3" kvg:type="㇑" d="m22.42 10.75c0.85 1.38 1.06 2.62 1.06 4.5c0 0.84 0.02 49.32 0.02 71.12c0 4.69 0 8.14 0 9.63"/>
	</g>
	<g id="kvg:061c2-g2" kvg:element="董">
		<g id="kvg:061c2-g1" kvg:element="艹" kvg:variant="true" kvg:original="艸" kvg:position="top" kvg:radical="general">
			<path id="kvg:061c2-s4" kvg:type="㇐" d="m35.44 23.27c1.13 0.53 2.45 0.56 3.59 0.53c10.41 -0.3 39.73 -2.46 51.73 -2.53c1.89 -0.01 3.03 0.25 3.96 0.51"/>
			<path id="kvg:061c2-s5" kvg:type="㇑a" d="m50.31 13.25c1.31 1.25 1.74 1.63 1.88 2.4c1.31 7.19 1.25 13.74 1.63 16.35"/>
			<path id="kvg:061c2-s6" kvg:type="㇑a" d="m75.9 11.25c0.98 1 1.2 2.52 0.88 4c-0.98 4.5 -2.09 7.5 -3.5 13.25"/>
		</g>
		<g id="kvg:061c2-g3" kvg:element="重" kvg:position="bottom">
			<g id="kvg:061c2-g4" kvg:element="千" kvg:part="1">
				<g id="kvg:061c2-g5" kvg:element="丿">
					<path id="kvg:061c2-s7" kvg:type="㇒" d="m82.59 28.42c0.1 0.31 -0.82 1.96 -1.42 2.29c-4.59 2.56 -15.96 7.54 -36.62 10.35"/>
				</g>
				<g id="kvg:061c2-g6" kvg:element="十" kvg:part="1">
					<path id="kvg:061c2-s8" kvg:type="㇐" d="m34.79 48.27c1.33 0.42 3.78 0.55 5.09 0.42c7.81 -0.77 37.13 -4.06 51.29 -4.44c2.21 -0.06 3.54 0.2 4.65 0.41"/>
				</g>
			</g>
			<g id="kvg:061c2-g7" kvg:element="里">
				<path id="kvg:061c2-s9" kvg:type="㇑" d="m43.91 55.51c0.34 0.33 0.34 0.57 0.53 0.99c1.5 3.47 2.91 13.35 3.84 19.82"/>
				<path id="kvg:061c2-s10" kvg:type="㇕a" d="m45.46 56.38c11.63 -0.87 29.39 -2.07 38.08 -2.8c3.19 -0.27 3.51 2.68 3.35 3.64c-0.6 3.5 -2.52 11.12 -3.97 16.96"/>
				<path id="kvg:061c2-s11" kvg:type="㇐a" d="m46.76 65.13c5.3 -0.13 34.46 -1.84 37.59 -1.98"/>
				<path id="kvg:061c2-s12" kvg:type="㇐a" d="m48 74.35c9.53 -0.85 22.9 -1.24 34.46 -1.84"/>
				<g id="kvg:061c2-g8" kvg:element="千" kvg:part="2">
					<g id="kvg:061c2-g9" kvg:element="十" kvg:part="2">
						<path id="kvg:061c2-s13" kvg:type="㇑" d="m63.21 39.62c1.1 0.39 1.98 2.7 1.98 3.52c0 10.61 0 46.64 -0.21 51.49"/>
					</g>
				</g>
				<path id="kvg:061c2-s14" kvg:type="㇐" d="m44.11 84.97c0.8 0.25 2.28 0.28 3.09 0.25c8.39 -0.29 27.17 -1.69 36.31 -2.27c1.34 -0.08 2.15 0.12 2.81 0.24"/>
				<path id="kvg:061c2-s15" kvg:type="㇐" d="m35.13 95.92c1.3 0.35 3.69 0.41 5 0.35c13.55 -0.59 37.99 -2.62 52.78 -2.93c2.17 -0.05 3.47 0.17 4.56 0.35"/>
			</g>
		</g>
	</g>
</g>
</g>
<g id="kvg:StrokeNumbers_061c2" style="font-size:8;fill:#808080">
	<text transform="matrix(1 0 0 1 8.50 32.50)">1</text>
	<text transform="matrix(1 0 0 1 23.66 33.50)">2</text>
	<text transform="matrix(1 0 0 1 10.50 14.50)">3</text>
	<text transform="matrix(1 0 0 1 30.50 20.50)">4</text>
	<text transform="matrix(1 0 0 1 40.50 12.50)">5</text>
	<text transform="matrix(1 0 0 1 65.50 12.50)">6</text>
	<text transform="matrix(1 0 0 1 83.50 34.50)">7</text>
	<text transform="matrix(1 0 0 1 25.50 52.50)">8</text>
	<text transform="matrix(1 0 0 1 33.50 62.50)">9</text>
	<text transform="matrix(1 0 0 1 41.50 52.50)">10</text>
	<text transform="matrix(1 0 0 1 41.50 66.50)">11</text>
	<text transform="matrix(1 0 0 1 41.50 80.50)">12</text>
	<text transform="matrix(1 0 0 1 55.50 35.50)">13</text>
	<text transform="matrix(1 0 0 1 23.50 83.50)">14</text>
	<text transform="matrix(1 0 0 1 15.50 95.50)">15</text>
</g>
</svg>
