<?xml version="1.0" encoding="UTF-8"?>
<!--
Copyright (C) 2016 François Mizessyn.
This work makes an extensive use of kanjiVG Copyright (C) 2009/2010/2011 Ulrich Apel.
This work is distributed under the conditions of the Creative Commons
Attribution-Share Alike 3.0 Licence. This means you are free:
* to Share - to copy, distribute and transmit the work
* to Remix - to adapt the work

Under the following conditions:
* Attribution. You must attribute the work by stating your use of HanjiVG in
  your own copyright header and linking to HanjiVG's website
  (http://gooo.free.fr/hanziVG/)
* Attribution. You must attribute the work by stating your use of KanjiVG in
  your own copyright header and linking to KanjiVG's website
  (http://kanjivg.tagaini.net)
* Share Alike. If you alter, transform, or build upon this work, you may
  distribute the resulting work only under the same or similar license to this
  one.

See http://creativecommons.org/licenses/by-sa/3.0/ for more details.
-->
<!DOCTYPE svg PUBLIC "-//W3C//DTD SVG 1.0//EN" "http://www.w3.org/TR/2001/REC-SVG-20010904/DTD/svg10.dtd" [
<!ATTLIST g
xmlns:kvg CDATA #FIXED "http://kanjivg.tagaini.net"
kvg:element CDATA #IMPLIED
kvg:variant CDATA #IMPLIED
kvg:partial CDATA #IMPLIED
kvg:original CDATA #IMPLIED
kvg:part CDATA #IMPLIED
kvg:number CDATA #IMPLIED
kvg:tradForm CDATA #IMPLIED
kvg:radicalForm CDATA #IMPLIED
kvg:position CDATA #IMPLIED
kvg:radical CDATA #IMPLIED
kvg:phon CDATA #IMPLIED >
<!ATTLIST path
xmlns:kvg CDATA #FIXED "http://kanjivg.tagaini.net"
kvg:type CDATA #IMPLIED >
]>
<svg xmlns="http://www.w3.org/2000/svg" width="109" height="109" viewBox="0 0 109 109">
<g id="kvg:StrokePaths_0620f" style="fill:none;stroke:#000000;stroke-width:3;stroke-linecap:round;stroke-linejoin:round;">
<g id="kvg:0620f" kvg:element="戏">
	<g id="kvg:0620f-g1" kvg:element="又" kvg:variant="true" kvg:position="left" kvg:radical="general">
		<path id="kvg:0620f-s1" kvg:type="㇇" d="M14.54,31.55c1.18,0.39,3.06,0.63,5.45,0.14c3.01-0.62,12.57-3.5,17.06-4.8c2.72-0.79,5.3,0.19,4.5,3.52C36.6,51.15,28.75,71,9.17,84.5"/>
		<path id="kvg:0620f-s2" kvg:type="㇔/㇏" d="M19.12,46c8.38,5.38,18.28,14.69,24.12,26.25"/>
	</g>
	<g id="kvg:0620f-g2" kvg:element="戈" kvg:position="right">
		<g id="kvg:0620f-g3" kvg:element="弋" kvg:part="1">
			<path id="kvg:0620f-s3" kvg:type="㇐" d="M45.25,41.25c1.36,0.56,3.86,0.79,5.21,0.56c10.45-1.79,24.15-5.14,36.33-8.57c1.7-0.48,2.91-0.3,4.04-0.02"/>
			<path id="kvg:0620f-s4" kvg:type="㇂" d="M62.49,14c1.3,1.69,1.51,2.16,1.79,5.8C66.55,50.24,75,80.75,90.26,93.3c4.85,3.99,4.39,0.73,3.74-6.76"/>
		</g>
		<g id="kvg:0620f-g4" kvg:element="丿">
			<path id="kvg:0620f-s5" kvg:type="㇒" d="M85.71,45.24c0.11,0.93,0.45,2.46-0.22,3.74C80.5,58.5,69.5,76,46.75,85.59"/>
		</g>
		<g id="kvg:0620f-g5" kvg:element="弋" kvg:part="2">
			<g id="kvg:0620f-g8" kvg:element="丶">
				<path id="kvg:0620f-s6" kvg:type="㇔" d="M76.24,16.71c2.48,1.98,6.44,6.5,7.59,9.89"/>
			</g>
		</g>
	</g>
</g>
</g>
<g id="kvg:StrokeNumbers_0620f" style="font-size:8;fill:#808080">
	<text transform="matrix(1 0 0 1 13.50 28.50)">1</text>
	<text transform="matrix(1 0 0 1 17.50 42.50)">2</text>
	<text transform="matrix(1 0 0 1 42.50 38.50)">3</text>
	<text transform="matrix(1 0 0 1 52.25 14.50)">4</text>
	<text transform="matrix(1 0 0 1 75.25 45.50)">5</text>
	<text transform="matrix(1 0 0 1 70.50 13.50)">6</text>
</g>
</svg>
