<?xml version="1.0" encoding="UTF-8"?>
<!--
Copyright (C) 2009/2010/2011 Ulrich Apel.
Glyph modified by François Mizessyn.
This work is distributed under the conditions of the Creative Commons
Attribution-Share Alike 3.0 Licence. This means you are free:
* to Share - to copy, distribute and transmit the work
* to Remix - to adapt the work

Under the following conditions:
* Attribution. You must attribute the work by stating your use of KanjiVG in
  your own copyright header and linking to KanjiVG's website
  (http://kanjivg.tagaini.net)
* Share Alike. If you alter, transform, or build upon this work, you may
  distribute the resulting work only under the same or similar license to this
  one.

See http://creativecommons.org/licenses/by-sa/3.0/ for more details.
-->
<!DOCTYPE svg PUBLIC "-//W3C//DTD SVG 1.0//EN" "http://www.w3.org/TR/2001/REC-SVG-20010904/DTD/svg10.dtd" [
<!ATTLIST g
xmlns:kvg CDATA #FIXED "http://kanjivg.tagaini.net"
kvg:element CDATA #IMPLIED
kvg:variant CDATA #IMPLIED
kvg:partial CDATA #IMPLIED
kvg:original CDATA #IMPLIED
kvg:part CDATA #IMPLIED
kvg:number CDATA #IMPLIED
kvg:tradForm CDATA #IMPLIED
kvg:radicalForm CDATA #IMPLIED
kvg:position CDATA #IMPLIED
kvg:radical CDATA #IMPLIED
kvg:phon CDATA #IMPLIED >
<!ATTLIST path
xmlns:kvg CDATA #FIXED "http://kanjivg.tagaini.net"
kvg:type CDATA #IMPLIED >
]>
<svg xmlns="http://www.w3.org/2000/svg" width="109" height="109" viewBox="0 0 109 109">
<g id="kvg:StrokePaths_0623f" style="fill:none;stroke:#000000;stroke-width:3;stroke-linecap:round;stroke-linejoin:round;">
<g id="kvg:0623f" kvg:element="房">
	<g id="kvg:0623f" kvg:element="户" kvg:radical="general">
		<path id="kvg:0623f-s1" kvg:type="㇔" d="m53.84 12.32c1.15 2.92 1.93 6.12 2.41 9.5"/>
		<g id="kvg:0623f-g1" kvg:element="尸">
			<path id="kvg:0623f-s2" kvg:type="㇕c" d="M29.1,27.88c2.31,0.75,4.52,0.91,6.89,0.57c11.88-1.7,30.63-3.45,40.26-4.27c2.54-0.22,4.74,1.44,3.99,4.07c-0.87,3.04-2.25,7.25-3,9.75"/>
			<path id="kvg:0623f-s3" kvg:type="㇐b" d="M32,42.5c1.25,0,29.38-2.75,41.01-3.97c2.6-0.27,4.91-0.28,6.74-0.28"/>
			<path id="kvg:0623f-s4" kvg:type="㇒" d="M30.94,29.18c1.06,1.06,1.12,2.5,0.9,4.45C29.12,56.62,24.25,75,13,86.75"/>
		</g>
	</g>
	<g id="kvg:0623f-g2" kvg:element="方" kvg:phon="方">
		<g id="kvg:0623f-g3" kvg:element="亠" kvg:position="top">
			<path id="kvg:0623f-s5" kvg:type="㇑a" d="M58.83,46.75c0.9,0.9,1.2,2.12,1.2,3.57c0,1.68-0.03,3.49-0.03,6.05"/>
			<path id="kvg:0623f-s6" kvg:type="㇐" d="M34.71,59.31c2.42,0.56,5.16,0.6,7.78,0.19c9.64-1.5,25.76-2.88,37.13-3.59c2.49-0.16,5.57-0.18,7.92,0.65"/>
		</g>
		<g id="kvg:0623f-g4" kvg:position="bottom">
			<path id="kvg:0623f-s7" kvg:type="㇆a" d="M55.19,66.5c4.81,2,11.44,3.37,18.18,4.59c2.62,0.47,3.1,2.33,2.47,4.56c-1.51,5.32-8.58,17.37-11.53,20.37c-3.06,3.1-5.06,1.98-7.03-0.59"/>
			<path id="kvg:0623f-s8" kvg:type="㇒" d="M55.44,61.21c0.31,1.17,0.05,1.92-0.39,2.93c-3.08,7.01-11.42,19.73-25.55,27.79"/>
		</g>
	</g>
</g>
</g>
<g id="kvg:StrokeNumbers_0623f" style="font-size:8;fill:#808080">
	<text transform="matrix(1 0 0 1 45.50 12.13)">1</text>
	<text transform="matrix(1 0 0 1 31.50 25.50)">2</text>
	<text transform="matrix(1 0 0 1 33.50 39.50)">3</text>
	<text transform="matrix(1 0 0 1 20.50 39.50)">4</text>
	<text transform="matrix(1 0 0 1 49.50 49.50)">5</text>
	<text transform="matrix(1 0 0 1 34.50 56.50)">6</text>
	<text transform="matrix(1 0 0 1 62.50 66.50)">7</text>
	<text transform="matrix(1 0 0 1 45.50 69.50)">8</text>
</g>
</svg>
