<?xml version="1.0" encoding="UTF-8"?>
<!--
Copyright (C) 2009/2010/2011 Ulrich Apel.
Glyph and stroke order modified by François Mizessyn.
This work is distributed under the conditions of the Creative Commons
Attribution-Share Alike 3.0 Licence. This means you are free:
* to Share - to copy, distribute and transmit the work
* to Remix - to adapt the work

Under the following conditions:
* Attribution. You must attribute the work by stating your use of KanjiVG in
  your own copyright header and linking to KanjiVG's website
  (http://kanjivg.tagaini.net)
* Share Alike. If you alter, transform, or build upon this work, you may
  distribute the resulting work only under the same or similar license to this
  one.

See http://creativecommons.org/licenses/by-sa/3.0/ for more details.
-->
<!DOCTYPE svg PUBLIC "-//W3C//DTD SVG 1.0//EN" "http://www.w3.org/TR/2001/REC-SVG-20010904/DTD/svg10.dtd" [
<!ATTLIST g
xmlns:kvg CDATA #FIXED "http://kanjivg.tagaini.net"
kvg:element CDATA #IMPLIED
kvg:variant CDATA #IMPLIED
kvg:partial CDATA #IMPLIED
kvg:original CDATA #IMPLIED
kvg:part CDATA #IMPLIED
kvg:number CDATA #IMPLIED
kvg:tradForm CDATA #IMPLIED
kvg:radicalForm CDATA #IMPLIED
kvg:position CDATA #IMPLIED
kvg:radical CDATA #IMPLIED
kvg:phon CDATA #IMPLIED >
<!ATTLIST path
xmlns:kvg CDATA #FIXED "http://kanjivg.tagaini.net"
kvg:type CDATA #IMPLIED >
]>
<svg xmlns="http://www.w3.org/2000/svg" width="109" height="109" viewBox="0 0 109 109">
<g id="kvg:StrokePaths_06240" style="fill:none;stroke:#000000;stroke-width:3;stroke-linecap:round;stroke-linejoin:round;">
<g id="kvg:06240" kvg:element="所">
	<g id="kvg:06240-g1" kvg:element="戸" kvg:position="left" kvg:radical="general" kvg:phon="戸">
		<path id="kvg:06240-s1" kvg:type="㇐" d="M 39.392889,17.41858 C 39.24938,18.472212 38.81579,19.6639 37.684473,20.379877 33.233199,24.284356 24.097017,30.488778 22.733636,31.129676"/>
		<path id="kvg:06240-s2" kvg:type="㇒" d="M 19.671917,32.238796 C 19.671917,32.238796 20.668525,34.426008 20.668525,35.769233 20.668525,62.51487 20.148411,76.62468 13.887778,88.214457"/>
     	<path id="kvg:06240-s3" kvg:type="㇕c" d="M 23.8,40.62 C 20.05,41.12 21.5,41.07 22.66,40.91 30.28,39.88 38.01,38.23 42.74,37.65 45,37.37 46.38,39.25 46.14,40.76 45.43,45.24 44.07,48.94 42.92,56.48"/>
		<path id="kvg:06240-s4" kvg:type="㇐b" d="M21.47,59.99c5.64-0.64,13.18-1.84,20.53-2.69c1.16-0.13,2.38-0.18,3.49-0.12"/>
	</g>
	<g id="kvg:06240-g2" kvg:element="斤" kvg:position="right">
		<path id="kvg:06240-s5" kvg:type="㇒" d="M79.5,11.88c-0.13,1.38-0.51,2.68-1.56,3.67C73.88,19.38,68.5,24,59.62,28.75"/>
		<path id="kvg:06240-s6" kvg:type="㇒" d="M56.44,30.38c1.15,1.15,1.47,2.63,1.56,4.65c1.12,25.22-2.51,40.22-10.76,48.22"/>
		<path id="kvg:06240-s7" kvg:type="㇐" d="M59.77,42.69c2.35,0.06,4.31-0.34,5.97-0.63c7.51-1.31,16.88-2.56,27.37-4.46c1.65-0.3,3.96-0.46,5.02-0.25"/>
		<path id="kvg:06240-s8" kvg:type="㇑" d="M77.1,43.3c0.93,0.93,1.65,2.94,1.65,4.26c0,2.43,0.05,31.26,0.06,45.94c0,2.33,0,4.3,0,5.75"/>
	</g>
</g>
</g>
<g id="kvg:StrokeNumbers_06240" style="font-size:8;fill:#808080">
	<text transform="matrix(1 0 0 1 45.50 20.63)">1</text>
	<text transform="matrix(1 0 0 1 7.75 48.13)">2</text>
	<text transform="matrix(1 0 0 1 20.50 37.50)">3</text>
	<text transform="matrix(1 0 0 1 25.50 56.50)">4</text>
	<text transform="matrix(1 0 0 1 70.50 12.50)">5</text>
	<text transform="matrix(1 0 0 1 50.50 38.50)">6</text>
	<text transform="matrix(1 0 0 1 63.50 39.50)">7</text>
	<text transform="matrix(1 0 0 1 70.50 51.50)">8</text>
</g>
</svg>
