<?xml version="1.0" encoding="UTF-8"?>
<!--
Copyright (C) 2016 François Mizessyn.
This work makes an extensive use of kanjiVG Copyright (C) 2009/2010/2011 Ulrich Apel.
This work is distributed under the conditions of the Creative Commons
Attribution-Share Alike 3.0 Licence. This means you are free:
* to Share - to copy, distribute and transmit the work
* to Remix - to adapt the work

Under the following conditions:
* Attribution. You must attribute the work by stating your use of HanjiVG in
  your own copyright header and linking to HanjiVG's website
  (http://gooo.free.fr/hanziVG/)
* Attribution. You must attribute the work by stating your use of KanjiVG in
  your own copyright header and linking to KanjiVG's website
  (http://kanjivg.tagaini.net)
* Share Alike. If you alter, transform, or build upon this work, you may
  distribute the resulting work only under the same or similar license to this
  one.

See http://creativecommons.org/licenses/by-sa/3.0/ for more details.
-->
<!DOCTYPE svg PUBLIC "-//W3C//DTD SVG 1.0//EN" "http://www.w3.org/TR/2001/REC-SVG-20010904/DTD/svg10.dtd" [
<!ATTLIST g
xmlns:kvg CDATA #FIXED "http://kanjivg.tagaini.net"
kvg:element CDATA #IMPLIED
kvg:variant CDATA #IMPLIED
kvg:partial CDATA #IMPLIED
kvg:original CDATA #IMPLIED
kvg:part CDATA #IMPLIED
kvg:number CDATA #IMPLIED
kvg:tradForm CDATA #IMPLIED
kvg:radicalForm CDATA #IMPLIED
kvg:position CDATA #IMPLIED
kvg:radical CDATA #IMPLIED
kvg:phon CDATA #IMPLIED >
<!ATTLIST path
xmlns:kvg CDATA #FIXED "http://kanjivg.tagaini.net"
kvg:type CDATA #IMPLIED >
]>
<svg xmlns="http://www.w3.org/2000/svg" width="109" height="109" viewBox="0 0 109 109">
<g id="kvg:StrokePaths_06254" style="fill:none;stroke:#000000;stroke-width:3;stroke-linecap:round;stroke-linejoin:round;">
<g id="kvg:06254" kvg:element="扔">
	<g id="kvg:06254-g1" kvg:element="扌" kvg:variant="true" kvg:original="手" kvg:position="left" kvg:radical="general">
		<path id="kvg:06254-s1" kvg:type="㇐" d="M12.25,38.5c2.18,0.26,4.13,0.42,6.37,0.09c4.93-0.75,12.86-1.64,19.77-2.57c1.11-0.15,2.36-0.18,3.27-0.18"/>
		<path id="kvg:06254-s2" kvg:type="㇚" d="M29.27,14.33c1.01,1.01,1.26,2.42,1.26,4.27c0,14.56-0.01,64.69-0.01,69.65c0,14.25-6.07,3.53-7.52,2"/>
		<path id="kvg:06254-s3" kvg:type="㇀" d="M12.25,67.23c1.66,0.75,3.06,0.37,4.45-0.61c9.18-6.49,13.18-9.24,21.05-15.62"/>
	</g>
	<g id="kvg:06254-g2" kvg:element="乃" kvg:position="right">
		<g id="kvg:06254-g3" kvg:element="丿">
			<path id="kvg:06254-s3" kvg:type="㇒" d="M63.21,22.68c0.43,1.42,0.54,3.64,0.21,5.95c-2.37,17.1-8.02,43.66-25.29,62.03"/>
		</g>
		<path id="kvg:06254-s4" kvg:type="㇌" d="M49.77,19c1.46,0.75,3.56,0.91,5.01,0.75c11.28-1.25,18.48-3,29.35-4.75c2.72-0.44,4.07,1.74,3.13,3.75C81.34,25,75.82,37.5,72.9,44c-0.58,1.28-0.25,3.33,1.46,3c5.14-1,13.03-2.25,17.62-3.25c2.5-0.54,3.69,0.74,3.3,3.25C93,61.75,89,78.75,81.99,89.25c-4.29,6.42-7.52,2.5-9.19-1"/>
	</g>
</g>
</g>
<g id="kvg:StrokeNumbers_06254" style="font-size:8;fill:#808080">
	<text transform="matrix(1 0 0 1 5.50 39.50)">1</text>
	<text transform="matrix(1 0 0 1 19.50 14.50)">2</text>
	<text transform="matrix(1 0 0 1 4.50 69.50)">3</text>
	<text transform="matrix(1 0 0 1 51.50 34.50)">4</text>
	<text transform="matrix(1 0 0 1 44.50 15.50)">5</text>
</g>
</svg>
