<?xml version="1.0" encoding="UTF-8"?>
<!--
Copyright (C) 2016 François Mizessyn.
This work makes an extensive use of kanjiVG Copyright (C) 2009/2010/2011 Ulrich Apel.
This work is distributed under the conditions of the Creative Commons
Attribution-Share Alike 3.0 Licence. This means you are free:
* to Share - to copy, distribute and transmit the work
* to Remix - to adapt the work

Under the following conditions:
* Attribution. You must attribute the work by stating your use of HanjiVG in
  your own copyright header and linking to HanjiVG's website
  (http://gooo.free.fr/hanziVG/)
* Share Alike. If you alter, transform, or build upon this work, you may
  distribute the resulting work only under the same or similar license to this
  one.

See http://creativecommons.org/licenses/by-sa/3.0/ for more details.
-->
<!DOCTYPE svg PUBLIC "-//W3C//DTD SVG 1.0//EN" "http://www.w3.org/TR/2001/REC-SVG-20010904/DTD/svg10.dtd" [
<!ATTLIST g
xmlns:kvg CDATA #FIXED "http://kanjivg.tagaini.net"
kvg:element CDATA #IMPLIED
kvg:variant CDATA #IMPLIED
kvg:partial CDATA #IMPLIED
kvg:original CDATA #IMPLIED
kvg:part CDATA #IMPLIED
kvg:number CDATA #IMPLIED
kvg:tradForm CDATA #IMPLIED
kvg:radicalForm CDATA #IMPLIED
kvg:position CDATA #IMPLIED
kvg:radical CDATA #IMPLIED
kvg:phon CDATA #IMPLIED >
<!ATTLIST path
xmlns:kvg CDATA #FIXED "http://kanjivg.tagaini.net"
kvg:type CDATA #IMPLIED >
]>
<svg xmlns="http://www.w3.org/2000/svg" width="109" height="109" viewBox="0 0 109 109">
<g id="kvg:StrokePaths_06251" style="fill:none;stroke:#000000;stroke-width:3;stroke-linecap:round;stroke-linejoin:round;">
<g id="kvg:06251" kvg:element="扑">
	<g id="kvg:06251-g1" kvg:element="扌" kvg:variant="true" kvg:original="手" kvg:position="left" kvg:radical="general">
		<path id="kvg:06251-s1" kvg:type="㇐" d="M13.5,35.47c2,0.78,2.21,0.92,4.84,0.7c6.83-0.59,18.74-2.47,30.11-3.39"/>
		<path id="kvg:06251-s2" kvg:type="㇚" d="M31.33,14c0.5,0.95,1.73,2.58,1.82,5.72c0.42,15.1,0.25,65.28,0.25,70.42c0,14.78-6.56,3.66-8.05,2.07"/>
		<path id="kvg:06251-s3" kvg:type="㇀" d="M12.5,67.38c2.76,1.84,4.53,1,7.29-0.58c1.63-0.93,19.56-12.17,26.46-16.63"/>
	</g>
	<g id="kvg:06251-g2" kvg:element="卜" kvg:original="ト" kvg:position="right">
		<path id="kvg:06251-s4" kvg:type="㇑" d="M65.56,12.13c1.09,1.09,1.76,2.87,1.76,5.25c0,0.78-0.07,54.62-0.19,73.62c-0.02,3.16-0.04,5.33-0.06,6.13"/>
		<path id="kvg:06251-s5" kvg:type="㇔" d="M71.5,42.5c7.85,3.75,20.29,15.42,22.25,21.25"/>
	</g>
</g>
</g>
<g id="kvg:StrokeNumbers_06251" style="font-size:8;fill:#808080">
	<text transform="matrix(1 0 0 1 7.50 35.50)">1</text>
	<text transform="matrix(1 0 0 1 22.50 13.30)">2</text>
	<text transform="matrix(1 0 0 1 4.50 70.50)">3</text>
	<text transform="matrix(1 0 0 1 57.50 11.50)">4</text>
	<text transform="matrix(1 0 0 1 74.25 40.63)">5</text>
</g>
</svg>
