<?xml version="1.0" encoding="UTF-8"?>
<!--
Copyright (C) 2016 François Mizessyn.
This work makes an extensive use of kanjiVG Copyright (C) 2009/2010/2011 Ulrich Apel.
This work is distributed under the conditions of the Creative Commons
Attribution-Share Alike 3.0 Licence. This means you are free:
* to Share - to copy, distribute and transmit the work
* to Remix - to adapt the work

Under the following conditions:
* Attribution. You must attribute the work by stating your use of HanjiVG in
  your own copyright header and linking to HanjiVG's website
  (http://gooo.free.fr/hanziVG/)
* Attribution. You must attribute the work by stating your use of KanjiVG in
  your own copyright header and linking to KanjiVG's website
  (http://kanjivg.tagaini.net)
* Share Alike. If you alter, transform, or build upon this work, you may
  distribute the resulting work only under the same or similar license to this
  one.

See http://creativecommons.org/licenses/by-sa/3.0/ for more details.
-->
<!DOCTYPE svg PUBLIC "-//W3C//DTD SVG 1.0//EN" "http://www.w3.org/TR/2001/REC-SVG-20010904/DTD/svg10.dtd" [
<!ATTLIST g
xmlns:kvg CDATA #FIXED "http://kanjivg.tagaini.net"
kvg:element CDATA #IMPLIED
kvg:variant CDATA #IMPLIED
kvg:partial CDATA #IMPLIED
kvg:original CDATA #IMPLIED
kvg:part CDATA #IMPLIED
kvg:number CDATA #IMPLIED
kvg:tradForm CDATA #IMPLIED
kvg:radicalForm CDATA #IMPLIED
kvg:position CDATA #IMPLIED
kvg:radical CDATA #IMPLIED
kvg:phon CDATA #IMPLIED >
<!ATTLIST path
xmlns:kvg CDATA #FIXED "http://kanjivg.tagaini.net"
kvg:type CDATA #IMPLIED >
]>
<svg xmlns="http://www.w3.org/2000/svg" width="109" height="109" viewBox="0 0 109 109">
<g id="kvg:StrokePaths_0626b" style="fill:none;stroke:#000000;stroke-width:3;stroke-linecap:round;stroke-linejoin:round;">
<g id="kvg:0626b" kvg:element="扫">
	<g id="kvg:0626b-g1" kvg:element="扌" kvg:variant="true" kvg:original="手" kvg:position="left" kvg:radical="general">
		<path id="kvg:0626b-s1" kvg:type="㇐" d="M13.5,35.47c2,0.78,2.21,0.92,4.84,0.7c6.83-0.59,18.74-2.47,30.11-3.39"/>
		<path id="kvg:0626b-s2" kvg:type="㇚" d="M31.33,14c0.5,0.95,1.73,2.58,1.82,5.72c0.42,15.1,0.25,65.28,0.25,70.42c0,14.78-6.56,3.66-8.05,2.07"/>
		<path id="kvg:0626b-s3" kvg:type="㇀" d="M12.5,67.38c2.76,1.84,4.53,1,7.29-0.58c1.63-0.93,19.56-12.17,26.46-16.63"/>
	</g>
	<g id="kvg:0626b-g2" kvg:element="彐" kvg:variant="true" kvg:original="彑" kvg:radical="tradit">
		<path id="kvg:0626b-s4" kvg:type="㇕" d="m53.73 28.35c1.75 0.18 2.59 0.46 4.2 0.35c9.8 -0.7 21.7 -2.27 29.4 -2.27c2.28 0 3.85 3.43 3.5 10.26c-0.92 17.86 -1.57 26.6 -2.8 57.33"/>
		<path id="kvg:0626b-s5" kvg:type="㇐" d="m55.19 58.31c0.97 0.11 1.73 0.32 2.79 0.21c9.35 -0.86 20.32 -2.36 27.74 -2.69c1.18 -0.05 2.15 0.21 2.69 0.33"/>
		<path id="kvg:0626b-s6" kvg:type="㇐c" d="m53.78 86.15c0.88 0.11 2.46 0.38 3.5 0.32c9.63 -0.53 19.42 -1.39 28.17 -1.6c1.4 -0.03 2.28 0 3.33 0.11"/>
	</g>
</g>
</g>
<g id="kvg:StrokeNumbers_0626b" style="font-size:8;fill:#808080">
	<text transform="matrix(1 0 0 1 4.50 35.50)">1</text>
	<text transform="matrix(1 0 0 1 20.50 12.30)">2</text>
	<text transform="matrix(1 0 0 1 1.50 70.50)">3</text>
	<text transform="matrix(1 0 0 1 51.00 25.25)">4</text>
	<text transform="matrix(1 0 0 1 53.00 55.25)">5</text>
	<text transform="matrix(1 0 0 1 51.25 83.25)">6</text>
</g>
</svg>
