<?xml version="1.0" encoding="UTF-8"?>
<!--
Copyright (C) 2016 François Mizessyn.
This work makes an extensive use of kanjiVG Copyright (C) 2009/2010/2011 Ulrich Apel.
This work is distributed under the conditions of the Creative Commons
Attribution-Share Alike 3.0 Licence. This means you are free:
* to Share - to copy, distribute and transmit the work
* to Remix - to adapt the work

Under the following conditions:
* Attribution. You must attribute the work by stating your use of HanjiVG in
  your own copyright header and linking to HanjiVG's website
  (http://gooo.free.fr/hanziVG/)
* Attribution. You must attribute the work by stating your use of KanjiVG in
  your own copyright header and linking to KanjiVG's website
  (http://kanjivg.tagaini.net)
* Share Alike. If you alter, transform, or build upon this work, you may
  distribute the resulting work only under the same or similar license to this
  one.

See http://creativecommons.org/licenses/by-sa/3.0/ for more details.
-->
<!DOCTYPE svg PUBLIC "-//W3C//DTD SVG 1.0//EN" "http://www.w3.org/TR/2001/REC-SVG-20010904/DTD/svg10.dtd" [
<!ATTLIST g
xmlns:kvg CDATA #FIXED "http://kanjivg.tagaini.net"
kvg:element CDATA #IMPLIED
kvg:variant CDATA #IMPLIED
kvg:partial CDATA #IMPLIED
kvg:original CDATA #IMPLIED
kvg:part CDATA #IMPLIED
kvg:number CDATA #IMPLIED
kvg:tradForm CDATA #IMPLIED
kvg:radicalForm CDATA #IMPLIED
kvg:position CDATA #IMPLIED
kvg:radical CDATA #IMPLIED
kvg:phon CDATA #IMPLIED >
<!ATTLIST path
xmlns:kvg CDATA #FIXED "http://kanjivg.tagaini.net"
kvg:type CDATA #IMPLIED >
]>
<svg xmlns="http://www.w3.org/2000/svg" width="109" height="109" viewBox="0 0 109 109">
<g id="kvg:StrokePaths_06270" style="fill:none;stroke:#000000;stroke-width:3;stroke-linecap:round;stroke-linejoin:round;">
<g id="kvg:06270" kvg:element="扰">
	<g id="kvg:06270-g1" kvg:element="扌" kvg:variant="true" kvg:original="手" kvg:position="left" kvg:radical="general">
		<path id="kvg:06270-s1" kvg:type="㇐" d="M12.75,38.67c1.88,0.71,3.8,0.7,6.01,0.42c4.82-0.63,12.76-1.97,19.49-2.81c1.38-0.17,3.12-0.27,4.41-0.02"/>
		<path id="kvg:06270-s2" kvg:type="㇚" d="M29.52,15.25c1.18,1.18,1.51,2.75,1.51,5.02c0,15.23,0.24,54.71,0.24,66.15c0,14.25-6.32,3.53-7.77,2"/>
		<path id="kvg:06270-s3" kvg:type="㇀" d="M12.5,67.18c1.41,1.41,2.62,1.07,4.25,0.07c5.13-3.16,9.38-5.75,21.5-13.33"/>
	</g>
	<g id="kvg:06270-g2" kvg:element="尤" kvg:position="right">
		<g id="kvg:06270-g3" kvg:element="尢">
			<path id="kvg:06270-s4" kvg:type="㇐" d="M44.5,42.18c1.5,0.32,3.79,0.98,6.25,0.57c9-1.51,30.47-4.24,40.49-4.23c1.55,0,3.57,0.71,4.35,0.93"/>
			<g id="kvg:06270-g4" kvg:element="儿" kvg:original="八">
				<g id="kvg:06270-g5" kvg:element="丿">
					<path id="kvg:06270-s5" kvg:type="㇒" d="M65.58,13.92c1.42,1.33,1.5,3.08,1.5,4.83c0,33.5-3.33,63.25-25,76.5"/>
				</g>
				<path id="kvg:06270-s6" kvg:type="㇟" d="M70.75,45.42c1,1.08,1.14,1.8,1.17,4.17c0.13,10.57,0.12,26.35,0.12,33.54c0,9.13,1.22,10.96,11.05,10.96c11.92,0,12.83-2.58,12.83-11.33"/>
			</g>
		</g>
		<g id="kvg:06270-g6" kvg:element="丶">
			<path id="kvg:06270-s7" kvg:type="㇔" d="M77.58,21.25c3.97,1.63,10.17,6.96,11.17,9.5"/>
		</g>
	</g>
</g>
</g>
<g id="kvg:StrokeNumbers_06270" style="font-size:8;fill:#808080">
	<text transform="matrix(1 0 0 1 3.75 40.50)">1</text>
	<text transform="matrix(1 0 0 1 17.50 15.50)">2</text>
	<text transform="matrix(1 0 0 1 1.50 71.50)">3</text>
	<text transform="matrix(1 0 0 1 45.25 39.75)">4</text>
	<text transform="matrix(1 0 0 1 56.25 13.25)">5</text>
	<text transform="matrix(1 0 0 1 74.25 53.25)">6</text>
	<text transform="matrix(1 0 0 1 76.25 18.25)">7</text>
</g>
</svg>
