<?xml version="1.0" encoding="UTF-8"?>
<!--
Copyright (C) 2009/2010/2011 Ulrich Apel.
This work is distributed under the conditions of the Creative Commons
Attribution-Share Alike 3.0 Licence. This means you are free:
* to Share - to copy, distribute and transmit the work
* to Remix - to adapt the work

Under the following conditions:
* Attribution. You must attribute the work by stating your use of KanjiVG in
  your own copyright header and linking to KanjiVG's website
  (http://kanjivg.tagaini.net)
* Share Alike. If you alter, transform, or build upon this work, you may
  distribute the resulting work only under the same or similar license to this
  one.

See http://creativecommons.org/licenses/by-sa/3.0/ for more details.
-->
<!DOCTYPE svg PUBLIC "-//W3C//DTD SVG 1.0//EN" "http://www.w3.org/TR/2001/REC-SVG-20010904/DTD/svg10.dtd" [
<!ATTLIST g
xmlns:kvg CDATA #FIXED "http://kanjivg.tagaini.net"
kvg:element CDATA #IMPLIED
kvg:variant CDATA #IMPLIED
kvg:partial CDATA #IMPLIED
kvg:original CDATA #IMPLIED
kvg:part CDATA #IMPLIED
kvg:number CDATA #IMPLIED
kvg:tradForm CDATA #IMPLIED
kvg:radicalForm CDATA #IMPLIED
kvg:position CDATA #IMPLIED
kvg:radical CDATA #IMPLIED
kvg:phon CDATA #IMPLIED >
<!ATTLIST path
xmlns:kvg CDATA #FIXED "http://kanjivg.tagaini.net"
kvg:type CDATA #IMPLIED >
]>
<svg xmlns="http://www.w3.org/2000/svg" width="109" height="109" viewBox="0 0 109 109">
<g id="kvg:StrokePaths_062a5" style="fill:none;stroke:#000000;stroke-width:3;stroke-linecap:round;stroke-linejoin:round;">
<g id="kvg:062a5" kvg:element="报">
	<g id="kvg:062a5-g1" kvg:element="扌" kvg:variant="true" kvg:original="手" kvg:radical="tradit">
		<path id="kvg:062a5-s1" kvg:type="㇐" d="m12.96 34.73c2.13 0.98 4.05 0.86 6.18 0.37c5.19 -1.17 12.73 -3.26 19.76 -4.84c1.77 -0.4 4.23 -0.6 5.93 -0.12"/>
		<path id="kvg:062a5-s2" kvg:type="㇚" d="m29.55 11.92c1.02 1.14 1.5 2.89 1.5 5.24c0 13.83 -0.01 66.89 -0.01 71.6c0 10.6 -5.54 3.24 -8.68 0"/>
		<path id="kvg:062a5-s3" kvg:type="㇀" d="m11.48 66.56c1.8 1.32 3.91 1.23 6.11 -0.61c6.96 -5.79 15.78 -13.15 24.28 -20.27"/>
	</g>
	<g id="kvg:062a5-g2" kvg:position="right" kvg:phon="𠬝">
		<g id="kvg:062a5-g3" kvg:element="卩">
		</g>
		<g id="kvg:062a5-g4" kvg:element="又">
			<path id="kvg:062a5-s4" kvg:type="㇆" d="m50.73 17c0.85 0.47 2.53 1.38 4.65 1.13c9.26 -1.13 22.93 -2.93 24.97 -3.13c2.58 -0.25 7.63 -0.15 5.67 4.75c-1.8 4.5 -3.23 8.91 -5.15 12.75c-4.12 8.25 -7.98 3.75 -10.04 1.25"/>
			<path id="kvg:062a5-s5" kvg:type="㇑" d="m53.43 18.25c0.65 0.63 0.99 2.23 0.99 3.25c0 2.93 -0.15 45.78 -0.21 65.25c-0.01 3.79 -0.02 6.7 -0.02 8.25"/>
			<path id="kvg:062a5-s6" kvg:type="㇇" d="m58.03 50.35c2.09 0.53 3.89 0.51 5.78 0.05c1.88 -0.45 17.21 -4.66 18.51 -5.1c2.96 -0.99 4.62 1.17 4.08 3.33c-4 16.12 -14.04 31.87 -24.08 41.37"/>
			<path id="kvg:062a5-s7" kvg:type="㇏" d="m61.18 58.98c3 0.74 16.39 17.85 27.51 27.92c2.48 2.25 4.52 4.23 7.87 6.04"/>
		</g>
	</g>
</g>
</g>
<g id="kvg:StrokeNumbers_062a5" style="font-size:8;fill:#808080">
	<text transform="matrix(1 0 0 1 5.25 30.70)">1</text>
	<text transform="matrix(1 0 0 1 18 14)">2</text>
	<text transform="matrix(1 0 0 1 5.25 63.70)">3</text>
	<text transform="matrix(1 0 0 1 53.25 14.50)">4</text>
	<text transform="matrix(1 0 0 1 44.50 26.50)">5</text>
	<text transform="matrix(1 0 0 1 57.75 47.50)">6</text>
	<text transform="matrix(1 0 0 1 64.50 62.13)">7</text>
</g>
</svg>
