<?xml version="1.0" encoding="UTF-8"?>
<!--
Copyright (C) 2016 François Mizessyn.
This work makes an extensive use of kanjiVG Copyright (C) 2009/2010/2011 Ulrich Apel.
This work is distributed under the conditions of the Creative Commons
Attribution-Share Alike 3.0 Licence. This means you are free:
* to Share - to copy, distribute and transmit the work
* to Remix - to adapt the work

Under the following conditions:
* Attribution. You must attribute the work by stating your use of HanjiVG in
  your own copyright header and linking to HanjiVG's website
  (http://gooo.free.fr/hanziVG/)
* Attribution. You must attribute the work by stating your use of KanjiVG in
  your own copyright header and linking to KanjiVG's website
  (http://kanjivg.tagaini.net)
* Share Alike. If you alter, transform, or build upon this work, you may
  distribute the resulting work only under the same or similar license to this
  one.

See http://creativecommons.org/licenses/by-sa/3.0/ for more details.
-->
<!DOCTYPE svg PUBLIC "-//W3C//DTD SVG 1.0//EN" "http://www.w3.org/TR/2001/REC-SVG-20010904/DTD/svg10.dtd" [
<!ATTLIST g
xmlns:kvg CDATA #FIXED "http://kanjivg.tagaini.net"
kvg:element CDATA #IMPLIED
kvg:variant CDATA #IMPLIED
kvg:partial CDATA #IMPLIED
kvg:original CDATA #IMPLIED
kvg:part CDATA #IMPLIED
kvg:number CDATA #IMPLIED
kvg:tradForm CDATA #IMPLIED
kvg:radicalForm CDATA #IMPLIED
kvg:position CDATA #IMPLIED
kvg:radical CDATA #IMPLIED
kvg:phon CDATA #IMPLIED >
<!ATTLIST path
xmlns:kvg CDATA #FIXED "http://kanjivg.tagaini.net"
kvg:type CDATA #IMPLIED >
]>
<svg xmlns="http://www.w3.org/2000/svg" width="109" height="109" viewBox="0 0 109 109">
<g id="kvg:StrokePaths_062a4" style="fill:none;stroke:#000000;stroke-width:3;stroke-linecap:round;stroke-linejoin:round;">
<g id="kvg:062a4" kvg:element="护">
	<g id="kvg:062a4-g1" kvg:element="扌" kvg:variant="true" kvg:original="手" kvg:position="left" kvg:radical="general">
		<path id="kvg:062a4-s1" kvg:type="㇐" d="M12.75,38.67c1.88,0.71,3.8,0.7,6.01,0.42c4.82-0.63,12.76-1.97,19.49-2.81c1.38-0.17,3.12-0.27,4.41-0.02"/>
		<path id="kvg:062a4-s2" kvg:type="㇚" d="M29.52,15.25c1.18,1.18,1.51,2.75,1.51,5.02c0,15.23,0.24,54.71,0.24,66.15c0,14.25-6.32,3.53-7.77,2"/>
		<path id="kvg:062a4-s3" kvg:type="㇀" d="M12.5,67.18c1.41,1.41,2.62,1.07,4.25,0.07c5.13-3.16,9.38-5.75,21.5-13.33"/>
	</g>
	<g id="kvg:062a4-g2" kvg:element="户" kvg:position="right" kvg:phon="尺">
		<path id="kvg:062a4-s4" kvg:type="㇔" d="m68.84 15.18c1.15 3.5 1.93 7.34 2.41 11.4"/>
		<g id="kvg:062a4-g3" kvg:element="尸">
			<path id="kvg:062a4-s5" kvg:type="㇕c" d="m55.15 30.76c1.22 0.61 2.39 1.09 4.15 0.94c10.27 -0.89 23.58 -2.25 27.37 -2.67c3.26 -0.36 5.14 1.52 4.63 3.55c-1.1 4.43 -2.47 9.38 -4.4 16.8"/>
			<path id="kvg:062a4-s6" kvg:type="㇐b" d="m57.75 52.98c3.7 -0.18 17.75 -1.72 26.4 -2.5c2.48 -0.22 4.47 -0.16 5.57 -0.22"/>
			<path id="kvg:062a4-s7" kvg:type="㇒" d="m56.65 31.71c1.1 0.9 1.38 1.8 1.38 3.6c0 19.39 -0.42 45 -17.05 59.06"/>
		</g>
	</g>
</g>
</g>
<g id="kvg:StrokeNumbers_062a4" style="font-size:8;fill:#808080">
	<text transform="matrix(1 0 0 1 3.75 40.50)">1</text>
	<text transform="matrix(1 0 0 1 17.50 15.50)">2</text>
	<text transform="matrix(1 0 0 1 1.50 71.50)">3</text>
	<text transform="matrix(1 0 0 1 68.50 12.50)">4</text>
	<text transform="matrix(1 0 0 1 52.50 27.50)">5</text>
	<text transform="matrix(1 0 0 1 60.75 48.55)">6</text>
	<text transform="matrix(1 0 0 1 43.90 34.50)">7</text>
</g>
</svg>
