<?xml version="1.0" encoding="UTF-8"?>
<!--
Copyright (C) 2016 François Mizessyn.
This work makes an extensive use of kanjiVG Copyright (C) 2009/2010/2011 Ulrich Apel.
This work is distributed under the conditions of the Creative Commons
Attribution-Share Alike 3.0 Licence. This means you are free:
* to Share - to copy, distribute and transmit the work
* to Remix - to adapt the work

Under the following conditions:
* Attribution. You must attribute the work by stating your use of HanjiVG in
  your own copyright header and linking to HanjiVG's website
  (http://gooo.free.fr/hanziVG/)
* Attribution. You must attribute the work by stating your use of KanjiVG in
  your own copyright header and linking to KanjiVG's website
  (http://kanjivg.tagaini.net)
* Share Alike. If you alter, transform, or build upon this work, you may
  distribute the resulting work only under the same or similar license to this
  one.

See http://creativecommons.org/licenses/by-sa/3.0/ for more details.
-->
<!DOCTYPE svg PUBLIC "-//W3C//DTD SVG 1.0//EN" "http://www.w3.org/TR/2001/REC-SVG-20010904/DTD/svg10.dtd" [
<!ATTLIST g
xmlns:kvg CDATA #FIXED "http://kanjivg.tagaini.net"
kvg:element CDATA #IMPLIED
kvg:variant CDATA #IMPLIED
kvg:partial CDATA #IMPLIED
kvg:original CDATA #IMPLIED
kvg:part CDATA #IMPLIED
kvg:number CDATA #IMPLIED
kvg:tradForm CDATA #IMPLIED
kvg:radicalForm CDATA #IMPLIED
kvg:position CDATA #IMPLIED
kvg:radical CDATA #IMPLIED
kvg:phon CDATA #IMPLIED >
<!ATTLIST path
xmlns:kvg CDATA #FIXED "http://kanjivg.tagaini.net"
kvg:type CDATA #IMPLIED >
]>
<svg xmlns="http://www.w3.org/2000/svg" width="109" height="109" viewBox="0 0 109 109">
<g id="kvg:StrokePaths_062e9" style="fill:none;stroke:#000000;stroke-width:3;stroke-linecap:round;stroke-linejoin:round;">
<g id="kvg:062e9" kvg:element="择">
	<g id="kvg:062e9-g1" kvg:element="扌" kvg:variant="true" kvg:original="手" kvg:position="left" kvg:radical="tradit">
		<path id="kvg:062e9-s1" kvg:type="㇐" d="m11.5 35.92c2.08 0.3 1.25 0.3 3.5 0.3c4.26 0 17.5 -2.97 26.67 -4.35"/>
		<path id="kvg:062e9-s2" kvg:type="㇚" d="m27.89 14.83c0.51 0.97 1.77 2.63 1.85 5.83c0.43 15.38 -0.27 63.55 -0.27 68.79c0 10.8 -6.56 2.64 -8.14 1.32"/>
		<path id="kvg:062e9-s3" kvg:type="㇀" d="m13.5 65.87c1.9 1.56 3.13 0.85 5.03 -0.49c1.12 -0.79 14.15 -10.83 18.91 -14.63"/>
	</g>
	<g id="kvg:062e9-g2" kvg:position="right">
		<g id="kvg:062e9-g3" kvg:element="又" kvg:position="top">
			<path id="kvg:062e9-s4" kvg:type="㇇" d="m55.73 19.74c1.28 0.28 2.44 0.45 4.99 0.03c2.56 -0.42 16.43 -3.25 18.18 -3.71c2.6 -0.68 3.72 0.94 2.65 3.31c-8.12 17.85 -18.93 30.38 -33.64 37.73"/>
			<path id="kvg:062e9-s5" kvg:type="㇏" d="m56 29.12c3.38 0.66 18.3 16.24 30.49 24.56c2.29 1.57 4.76 3.31 7.51 3.92"/>
		</g>
		<g id="kvg:062e9-g4">
			<g id="kvg:062e9-g5" kvg:element="二">
				<path id="kvg:062e9-s6" kvg:type="㇐" d="m49.86 66.42c0.61 0.3 4.73 0.83 5.35 0.8c6.37 -0.34 19.9 -2.71 30 -3.93c1.01 -0.12 2.83 0.14 3.35 0.29"/>
				<path id="kvg:062e9-s7" kvg:type="㇐" d="m45.01 81.17c0.58 0.28 4.3 0.82 5.84 0.82c8.08 0.01 26.44 -2.74 39.59 -3.84c1.54 -0.13 2.9 0.28 3.89 0.55"/>
			</g>
				<path id="kvg:062e9-s8" kvg:type="㇑" d="m68.81 53.1c1.03 1.25 1.04 2.7 1.04 4.3c0 0.95 -0.05 19.82 -0.08 31.85c-0.01 3.56 -0.01 6.54 -0.01 8.26"/>
		</g>
	</g>
</g>
</g>
<g id="kvg:StrokeNumbers_062e9" style="font-size:8;fill:#808080">
	<text transform="matrix(1 0 0 1 5.50 36.50)">1</text>
	<text transform="matrix(1 0 0 1 19.50 14.55)">2</text>
	<text transform="matrix(1 0 0 1 5.50 66.50)">3</text>
	<text transform="matrix(1 0 0 1 45.75 22.77)">4</text>
	<text transform="matrix(1 0 0 1 45.25 37.13)">5</text>
	<text transform="matrix(1 0 0 1 38.50 69.50)">6</text>
	<text transform="matrix(1 0 0 1 36.25 85.50)">7</text>
	<text transform="matrix(1 0 0 1 63.50 50.50)">8</text>
</g>
</svg>
