<?xml version="1.0" encoding="UTF-8"?>
<!--
Copyright (C) 2016 François Mizessyn.
This work makes an extensive use of kanjiVG Copyright (C) 2009/2010/2011 Ulrich Apel.
This work is distributed under the conditions of the Creative Commons
Attribution-Share Alike 3.0 Licence. This means you are free:
* to Share - to copy, distribute and transmit the work
* to Remix - to adapt the work

Under the following conditions:
* Attribution. You must attribute the work by stating your use of HanjiVG in
  your own copyright header and linking to HanjiVG's website
  (http://gooo.free.fr/hanziVG/)
* Attribution. You must attribute the work by stating your use of KanjiVG in
  your own copyright header and linking to KanjiVG's website
  (http://kanjivg.tagaini.net)
* Share Alike. If you alter, transform, or build upon this work, you may
  distribute the resulting work only under the same or similar license to this
  one.

See http://creativecommons.org/licenses/by-sa/3.0/ for more details.
-->
<!DOCTYPE svg PUBLIC "-//W3C//DTD SVG 1.0//EN" "http://www.w3.org/TR/2001/REC-SVG-20010904/DTD/svg10.dtd" [
<!ATTLIST g
xmlns:kvg CDATA #FIXED "http://kanjivg.tagaini.net"
kvg:element CDATA #IMPLIED
kvg:variant CDATA #IMPLIED
kvg:partial CDATA #IMPLIED
kvg:original CDATA #IMPLIED
kvg:part CDATA #IMPLIED
kvg:number CDATA #IMPLIED
kvg:tradForm CDATA #IMPLIED
kvg:radicalForm CDATA #IMPLIED
kvg:position CDATA #IMPLIED
kvg:radical CDATA #IMPLIED
kvg:phon CDATA #IMPLIED >
<!ATTLIST path
xmlns:kvg CDATA #FIXED "http://kanjivg.tagaini.net"
kvg:type CDATA #IMPLIED >
]>
<svg xmlns="http://www.w3.org/2000/svg" width="109" height="109" viewBox="0 0 109 109">
<g id="kvg:StrokePaths_06362" style="fill:none;stroke:#000000;stroke-width:3;stroke-linecap:round;stroke-linejoin:round;">
<g id="kvg:06362" kvg:element="换">
	<g id="kvg:06362-g1" kvg:element="扌" kvg:variant="true" kvg:original="手" kvg:position="left" kvg:radical="general">
		<path id="kvg:06362-s1" kvg:type="㇐" d="M11.5,39.42c2.08,0.25,1.77,0.55,4,0.25c5.5-0.75,13-2.5,22.17-3.67"/>
		<path id="kvg:06362-s2" kvg:type="㇚" d="M26.27,13.5c0.48,0.92,1.67,2.49,1.76,5.52c0.4,14.55,0.24,63.44,0.24,68.4c0,14.25-6.32,3.53-7.77,2"/>
		<path id="kvg:06362-s3" kvg:type="㇀" d="M10.5,66.22c2.73,2.12,4.49,1.15,7.22-0.67c1.61-1.07,11.45-8.25,18.28-13.39"/>
	</g>
	<g id="kvg:06362-g2" kvg:element="奂" kvg:position="right">
		<g id="kvg:06362-g3" kvg:position="top">
			<g id="kvg:06362-g4" kvg:element="𠂊" kvg:variant="true" kvg:original="勹">
				<path id="kvg:06362-s4" kvg:type="㇒" d="M59.89,14.4c0.04,0.48,0.08,1.25-0.08,1.95c-0.95,4.1-6.4,13.11-13.87,18.62"/>
				<path id="kvg:06362-s5" kvg:type="㇇" d="M57.85,22.5c2.05,0,16.29-2.59,18.44-2.83c1.85-0.2,2.8,1.69,2.03,2.71c-3.25,4.27-7.55,8.38-12.69,15.22"/>
			</g>
			<path id="kvg:06362-s6" kvg:type="㇑" d="M46.51,40.6c0.38,0.47,0.78,0.86,0.94,1.45c1.33,4.66,2.26,10.32,3.17,18.69"/>
			<path id="kvg:06362-s7" kvg:type="㇕" d="M47.4,42.71c9.4-1.96,32.8-5.53,37.65-6.19c1.77-0.24,2.84,2.43,2.58,3.85c-1.05,5.87-2.4,10.13-5.5,18.4"/>
		</g>
		<g id="kvg:06362-g5" kvg:element="大">
			<path id="kvg:06362-s8" kvg:type="㇐" d="M43.12,61.39c0.87,0.2,3.11,0.34,4.06,0.27c13.37-0.99,21.18-2.33,37.8-2.52c1.21-0.02,2.92,0.08,5.62,0.41"/>
			<g id="kvg:06362-g4" kvg:element="人">
				<path id="kvg:06362-s9" kvg:type="㇒" d="m65.01 40.33c0.54 0.69 1.56 1.43 1.56 2.87c0 26.01 -1.81 42.98 -24.81 53.66"/>
				<path id="kvg:06362-s10" kvg:type="㇏" d="M66.72,58.46C73,70.5,81.75,84,92.23,92c2.39,1.82,3.01,2.31,4.02,2.5"/>
			</g>
		</g>
	</g>
</g>
</g>
<g id="kvg:StrokeNumbers_06362" style="font-size:8;fill:#808080">
	<text transform="matrix(1 0 0 1 5.50 40.50)">1</text>
	<text transform="matrix(1 0 0 1 18.19 13.50)">2</text>
	<text transform="matrix(1 0 0 1 2.50 67.50)">3</text>
	<text transform="matrix(1 0 0 1 49.50 15.50)">4</text>
	<text transform="matrix(1 0 0 1 63.19 18.45)">5</text>
	<text transform="matrix(1 0 0 1 37.44 48.50)">6</text>
	<text transform="matrix(1 0 0 1 47.50 39.50)">7</text>
	<text transform="matrix(1 0 0 1 38.50 66.50)">8</text>
	<text transform="matrix(1 0 0 1 62.19 43.97)">9</text>
	<text transform="matrix(1 0 0 1 70 66)">10</text>
</g>
</svg>
