<?xml version="1.0" encoding="UTF-8"?>
<!--
Copyright (C) 2016 François Mizessyn.
This work makes an extensive use of kanjiVG Copyright (C) 2009/2010/2011 Ulrich Apel.
This work is distributed under the conditions of the Creative Commons
Attribution-Share Alike 3.0 Licence. This means you are free:
* to Share - to copy, distribute and transmit the work
* to Remix - to adapt the work

Under the following conditions:
* Attribution. You must attribute the work by stating your use of HanjiVG in
  your own copyright header and linking to HanjiVG's website
  (http://gooo.free.fr/hanziVG/)
* Attribution. You must attribute the work by stating your use of KanjiVG in
  your own copyright header and linking to KanjiVG's website
  (http://kanjivg.tagaini.net)
* Share Alike. If you alter, transform, or build upon this work, you may
  distribute the resulting work only under the same or similar license to this
  one.

See http://creativecommons.org/licenses/by-sa/3.0/ for more details.
-->
<!DOCTYPE svg PUBLIC "-//W3C//DTD SVG 1.0//EN" "http://www.w3.org/TR/2001/REC-SVG-20010904/DTD/svg10.dtd" [
<!ATTLIST g
xmlns:kvg CDATA #FIXED "http://kanjivg.tagaini.net"
kvg:element CDATA #IMPLIED
kvg:variant CDATA #IMPLIED
kvg:partial CDATA #IMPLIED
kvg:original CDATA #IMPLIED
kvg:part CDATA #IMPLIED
kvg:number CDATA #IMPLIED
kvg:tradForm CDATA #IMPLIED
kvg:radicalForm CDATA #IMPLIED
kvg:position CDATA #IMPLIED
kvg:radical CDATA #IMPLIED
kvg:phon CDATA #IMPLIED >
<!ATTLIST path
xmlns:kvg CDATA #FIXED "http://kanjivg.tagaini.net"
kvg:type CDATA #IMPLIED >
]>
<svg xmlns="http://www.w3.org/2000/svg" width="109" height="109" viewBox="0 0 109 109">
<g id="kvg:StrokePaths_00672f" style="fill:none;stroke:#000000;stroke-width:3;stroke-linecap:round;stroke-linejoin:round;">
<g id="kvg:00672f" kvg:element="术" kvg:radical="general">
	<g id="kvg:00672f" kvg:element="木" kvg:radical="general">
		<path id="kvg:00672f-s1" kvg:type="㇐" d="M19.5,39.86c2.45,0.57,5.23,0.8,8.04,0.57C40.75,39.38,63,36.5,79.78,36.15c2.8-0.06,4.54,0.1,7.34,0.5"/>
		<path id="kvg:00672f-s2" kvg:type="㇑" d="M51.75,10.5c1.19,1.19,2,3,2,5c0,8.65,0,55.15-0.14,74.75c-0.03,4.19-0.07,7.15-0.11,8.25"/>
		<path id="kvg:00672f-s3" kvg:type="㇒" d="M50.75,39.5c0,1.12-0.61,2.44-1.42,3.95C41.75,57.5,26.7,73.93,15.75,80.25"/>
		<path id="kvg:00672f-s4" kvg:type="㇏" d="M54.5,39c4.62,6,23,25.75,31.76,34.61c2.27,2.29,4.61,4.39,7.49,5.64"/>
	</g>
	<path id="kvg:06bcf-s5" kvg:type="㇔" d="m68.67 19.33c2.65 1.37 6.86 5.65 7.53 7.78"/>
</g>
</g>
<g id="kvg:StrokeNumbers_00672f" style="font-size:8;fill:#808080">
	<text transform="matrix(1 0 0 1 10.50 41.50)">1</text>
	<text transform="matrix(1 0 0 1 41.50 11.50)">2</text>
	<text transform="matrix(1 0 0 1 37.50 50.50)">3</text>
	<text transform="matrix(1 0 0 1 66.50 49.50)">4</text>
	<text transform="matrix(1 0 0 1 62.50 16.50)">5</text>
</g>
</svg>
