<?xml version="1.0" encoding="UTF-8"?>
<!--
Copyright (C) 2016 François Mizessyn.
This work makes an extensive use of kanjiVG Copyright (C) 2009/2010/2011 Ulrich Apel.
This work is distributed under the conditions of the Creative Commons
Attribution-Share Alike 3.0 Licence. This means you are free:
* to Share - to copy, distribute and transmit the work
* to Remix - to adapt the work

Under the following conditions:
* Attribution. You must attribute the work by stating your use of HanjiVG in
  your own copyright header and linking to HanjiVG's website
  (http://gooo.free.fr/hanziVG/)
* Attribution. You must attribute the work by stating your use of KanjiVG in
  your own copyright header and linking to KanjiVG's website
  (http://kanjivg.tagaini.net)
* Share Alike. If you alter, transform, or build upon this work, you may
  distribute the resulting work only under the same or similar license to this
  one.

See http://creativecommons.org/licenses/by-sa/3.0/ for more details.
-->
<!DOCTYPE svg PUBLIC "-//W3C//DTD SVG 1.0//EN" "http://www.w3.org/TR/2001/REC-SVG-20010904/DTD/svg10.dtd" [
<!ATTLIST g
xmlns:kvg CDATA #FIXED "http://kanjivg.tagaini.net"
kvg:element CDATA #IMPLIED
kvg:variant CDATA #IMPLIED
kvg:partial CDATA #IMPLIED
kvg:original CDATA #IMPLIED
kvg:part CDATA #IMPLIED
kvg:number CDATA #IMPLIED
kvg:tradForm CDATA #IMPLIED
kvg:radicalForm CDATA #IMPLIED
kvg:position CDATA #IMPLIED
kvg:radical CDATA #IMPLIED
kvg:phon CDATA #IMPLIED >
<!ATTLIST path
xmlns:kvg CDATA #FIXED "http://kanjivg.tagaini.net"
kvg:type CDATA #IMPLIED >
]>
<svg xmlns="http://www.w3.org/2000/svg" width="109" height="109" viewBox="0 0 109 109">
<g id="kvg:StrokePaths_06735" style="fill:none;stroke:#000000;stroke-width:3;stroke-linecap:round;stroke-linejoin:round;">
<g id="kvg:06735" kvg:element="朵" kvg:radical="general">
	<g id="kvg:06735-g1" kvg:element="几" kvg:position="top">
		<g id="kvg:06735-g2" kvg:element="丿">
			<path id="kvg:06735-s1" kvg:type="㇒" d="M37.77,13.64c0.48,0.86,0.96,2.74,0.92,4c-0.35,13.02-4.02,28.02-14.8,33.49"/>
		</g>
		<path id="kvg:06735-s2" kvg:type="㇈b" d="M39.67,16c3.33,0.33,20.77-1.66,23-2.33c3.33-1,5.01,2.12,4.67,4.33c-0.67,4.33-1,11.67-1,16c0,6,1.67,10.33,12.67,10.33c13,0,12.67-0.67,12.67-13"/>
	</g>
	<g id="kvg:06735-Kaisho-g3" kvg:element="木" kvg:position="bottom">
		<path id="kvg:06735-Kaisho-s3" kvg:type="㇐" d="M19.15,59.08c1.55,0,3.89,0.32,5.96,0.2c9.4-0.53,46.3-3.04,60.54-4.06c2.06-0.15,2.59-0.2,3.89,0"/>
		<path id="kvg:06735-Kaisho-s4" kvg:type="㇑" d="M52.25,46.25c1.25,0.5,2.25,3.22,2.25,4.25c0,7-0.25,42.73-0.25,44c0,10-5.25,2.5-6.75,1.25"/>
		<path id="kvg:06735-Kaisho-s5" kvg:type="㇒" d="M52.28,58.68C45.81,69.44,28.97,84.66,15.5,90.75"/>
		<path id="kvg:06735-Kaisho-s6" kvg:type="㇏" d="M55.21,58.48c4.92,4.26,26.51,24.42,31.86,28.62c1.81,1.42,3.37,2.03,5.18,2.44"/>
	</g>
</g>
</g>
<g id="kvg:StrokeNumbers_06735" style="font-size:8;fill:#808080">
	<text transform="matrix(1 0 0 1 28.50 20.50)">1</text>
	<text transform="matrix(1 0 0 1 39.50 12.50)">2</text>
	<text transform="matrix(1 0 0 1 10.50 56.50)">3</text>
	<text transform="matrix(1 0 0 1 45.25 43.33)">4</text>
	<text transform="matrix(1 0 0 1 36.25 67.25)">5</text>
	<text transform="matrix(1 0 0 1 66.50 68.18)">6</text>
</g>
</svg>
