<?xml version="1.0" encoding="UTF-8"?>
<!--
Copyright (C) 2016 François Mizessyn.
This work makes an extensive use of kanjiVG Copyright (C) 2009/2010/2011 Ulrich Apel.
This work is distributed under the conditions of the Creative Commons
Attribution-Share Alike 3.0 Licence. This means you are free:
* to Share - to copy, distribute and transmit the work
* to Remix - to adapt the work

Under the following conditions:
* Attribution. You must attribute the work by stating your use of HanjiVG in
  your own copyright header and linking to HanjiVG's website
  (http://gooo.free.fr/hanziVG/)
* Attribution. You must attribute the work by stating your use of KanjiVG in
  your own copyright header and linking to KanjiVG's website
  (http://kanjivg.tagaini.net)
* Share Alike. If you alter, transform, or build upon this work, you may
  distribute the resulting work only under the same or similar license to this
  one.

See http://creativecommons.org/licenses/by-sa/3.0/ for more details.
-->
<!DOCTYPE svg PUBLIC "-//W3C//DTD SVG 1.0//EN" "http://www.w3.org/TR/2001/REC-SVG-20010904/DTD/svg10.dtd" [
<!ATTLIST g
xmlns:kvg CDATA #FIXED "http://kanjivg.tagaini.net"
kvg:element CDATA #IMPLIED
kvg:variant CDATA #IMPLIED
kvg:partial CDATA #IMPLIED
kvg:original CDATA #IMPLIED
kvg:part CDATA #IMPLIED
kvg:number CDATA #IMPLIED
kvg:tradForm CDATA #IMPLIED
kvg:radicalForm CDATA #IMPLIED
kvg:position CDATA #IMPLIED
kvg:radical CDATA #IMPLIED
kvg:phon CDATA #IMPLIED >
<!ATTLIST path
xmlns:kvg CDATA #FIXED "http://kanjivg.tagaini.net"
kvg:type CDATA #IMPLIED >
]>
<svg xmlns="http://www.w3.org/2000/svg" width="109" height="109" viewBox="0 0 109 109">
<g id="kvg:StrokePaths_06742" style="fill:none;stroke:#000000;stroke-width:3;stroke-linecap:round;stroke-linejoin:round;">
<g id="kvg:06742" kvg:element="杂">
	<g id="kvg:06742-g1" kvg:element="九" kvg:position="top">
		<path id="kvg:06742-s1" kvg:type="㇒" d="m49.74 14.01c0.39 0.79 0.71 1.63 0.64 2.24c-2.26 19.03 -11.88 32.08 -30.26 38.6"/>
		<g id="kvg:06742-g2" kvg:element="乙">
			<path id="kvg:06742-s2" kvg:type="㇈" d="m22.5 28.9c0.95 0.36 4.52 0.12 5.71 0c1.19 -0.12 39.88 -4.54 40.95 -4.56c2.38 -0.06 3.77 1.81 3.04 3.14c-1.07 1.97 -3.7 9.76 -3.7 14.78c0 8.1 3 9 12.5 9c10.25 0 11.25 -1.12 11.25 -5.85"/>
		</g>
	</g>
	<g id="kvg:06742-g3" kvg:element="木" kvg:position="bottom">
		<path id="kvg:06742-s3" kvg:type="㇐" d="m19.15 62.01c1.55 0 3.89 0.28 5.96 0.17c9.4 -0.46 46.3 -2.6 60.54 -3.47c2.06 -0.12 2.59 -0.17 3.89 0"/>
		<path id="kvg:06742-s4" kvg:type="㇑" d="m52.25 51.05c1.25 0.43 2.25 2.76 2.25 3.64c0 5.99 -0.25 36.54 -0.25 37.62c0 8.55 -5.25 2.14 -6.75 1.07"/>
		<path id="kvg:06742-s5" kvg:type="㇒" d="m52.28 61.67c-6.47 9.2 -23.31 22.21 -36.78 27.42"/>
		<path id="kvg:06742-s6" kvg:type="㇏" d="m55.21 61.5c4.92 3.64 26.51 20.88 31.86 24.47c1.81 1.22 3.37 1.74 5.18 2.09"/>
	</g>
</g>
</g>
<g id="kvg:StrokeNumbers_06742" style="font-size:8;fill:#808080">
	<text transform="matrix(1 0 0 1 41.50 12.50)">1</text>
	<text transform="matrix(1 0 0 1 12.50 33.50)">2</text>
	<text transform="matrix(1 0 0 1 8.50 67.50)">3</text>
	<text transform="matrix(1 0 0 1 45.25 49.33)">4</text>
	<text transform="matrix(1 0 0 1 36.25 67.25)">5</text>
	<text transform="matrix(1 0 0 1 66.50 68.18)">6</text>
</g>
</svg>
