<?xml version="1.0" encoding="UTF-8"?>
<!--
Copyright (C) 2016 François Mizessyn.
This work makes an extensive use of kanjiVG Copyright (C) 2009/2010/2011 Ulrich Apel.
This work is distributed under the conditions of the Creative Commons
Attribution-Share Alike 3.0 Licence. This means you are free:
* to Share - to copy, distribute and transmit the work
* to Remix - to adapt the work

Under the following conditions:
* Attribution. You must attribute the work by stating your use of HanjiVG in
  your own copyright header and linking to HanjiVG's website
  (http://gooo.free.fr/hanziVG/)
* Attribution. You must attribute the work by stating your use of KanjiVG in
  your own copyright header and linking to KanjiVG's website
  (http://kanjivg.tagaini.net)
* Share Alike. If you alter, transform, or build upon this work, you may
  distribute the resulting work only under the same or similar license to this
  one.

See http://creativecommons.org/licenses/by-sa/3.0/ for more details.
-->
<!DOCTYPE svg PUBLIC "-//W3C//DTD SVG 1.0//EN" "http://www.w3.org/TR/2001/REC-SVG-20010904/DTD/svg10.dtd" [
<!ATTLIST g
xmlns:kvg CDATA #FIXED "http://kanjivg.tagaini.net"
kvg:element CDATA #IMPLIED
kvg:variant CDATA #IMPLIED
kvg:partial CDATA #IMPLIED
kvg:original CDATA #IMPLIED
kvg:part CDATA #IMPLIED
kvg:number CDATA #IMPLIED
kvg:tradForm CDATA #IMPLIED
kvg:radicalForm CDATA #IMPLIED
kvg:position CDATA #IMPLIED
kvg:radical CDATA #IMPLIED
kvg:phon CDATA #IMPLIED >
<!ATTLIST path
xmlns:kvg CDATA #FIXED "http://kanjivg.tagaini.net"
kvg:type CDATA #IMPLIED >
]>
<svg xmlns="http://www.w3.org/2000/svg" width="109" height="109" viewBox="0 0 109 109">
<g id="kvg:StrokePaths_06740" style="fill:none;stroke:#000000;stroke-width:3;stroke-linecap:round;stroke-linejoin:round;">
<g id="kvg:06740" kvg:element="杀">
	<g id="kvg:06740-g1" kvg:element="乂" kvg:position="top">
		<g id="kvg:06740-g2" kvg:element="丿">
			<path id="kvg:06740-s1" kvg:type="㇒" d="m75.88 12.46c0.65 1.33 0.42 2.45 -0.91 3.82c-12.01 12.24 -26.74 22.69 -49.27 30.83"/>
		</g>
		<path id="kvg:06740-s2" kvg:type="㇔/㇏" d="m21.76 18.7c16.9 2.15 43.97 13.05 58.11 29.16"/>
	</g>
	<g id="kvg:06740-g3" kvg:element="木" kvg:position="bottom">
		<path id="kvg:06740-s3" kvg:type="㇐" d="m20.32 61.72c4.8 0.71 11.69 0.18 15.64 -0.14c12.61 -1.02 33.18 -3.23 46.46 -4.28c2.36 -0.18 5.53 -0.26 7 0"/>
		<path id="kvg:06740-s4" kvg:type="㇑" d="m53.39 44.1c2.47 1.23 3.35 3.15 3.35 4.65c0 0.71 -0.14 27.84 -0.18 41.02c-0.01 2.76 -0.01 4.91 -0.01 6.08"/>
		<path id="kvg:06740-s5" kvg:type="㇒" d="m54.4 59.8c0 0.87 -0.36 1.88 -0.95 2.58c-10.58 12.1 -17.9 19.83 -34.25 28.52"/>
		<path id="kvg:06740-s6" kvg:type="㇔/㇏" d="m62.36 65.99c8.76 2.73 23.09 11.61 30.46 16.89"/>
	</g>
</g>
</g>
<g id="kvg:StrokeNumbers_06740" style="font-size:8;fill:#808080">
	<text transform="matrix(1 0 0 1 76.50 16.13)">1</text>
	<text transform="matrix(1 0 0 1 10.75 23.50)">2</text>
	<text transform="matrix(1 0 0 1 9.50 66.50)">3</text>
	<text transform="matrix(1 0 0 1 57.50 46.50)">4</text>
	<text transform="matrix(1 0 0 1 32.75 72.63)">5</text>
	<text transform="matrix(1 0 0 1 66.25 65.50)">6</text>
</g>
</svg>
