<?xml version="1.0" encoding="UTF-8"?>
<!--
Copyright (C) 2016 François Mizessyn.
This work makes an extensive use of kanjiVG Copyright (C) 2009/2010/2011 Ulrich Apel.
This work is distributed under the conditions of the Creative Commons
Attribution-Share Alike 3.0 Licence. This means you are free:
* to Share - to copy, distribute and transmit the work
* to Remix - to adapt the work

Under the following conditions:
* Attribution. You must attribute the work by stating your use of HanjiVG in
  your own copyright header and linking to HanjiVG's website
  (http://gooo.free.fr/hanziVG/)
* Attribution. You must attribute the work by stating your use of KanjiVG in
  your own copyright header and linking to KanjiVG's website
  (http://kanjivg.tagaini.net)
* Share Alike. If you alter, transform, or build upon this work, you may
  distribute the resulting work only under the same or similar license to this
  one.

See http://creativecommons.org/licenses/by-sa/3.0/ for more details.
-->
<!DOCTYPE svg PUBLIC "-//W3C//DTD SVG 1.0//EN" "http://www.w3.org/TR/2001/REC-SVG-20010904/DTD/svg10.dtd" [
<!ATTLIST g
xmlns:kvg CDATA #FIXED "http://kanjivg.tagaini.net"
kvg:element CDATA #IMPLIED
kvg:variant CDATA #IMPLIED
kvg:partial CDATA #IMPLIED
kvg:original CDATA #IMPLIED
kvg:part CDATA #IMPLIED
kvg:number CDATA #IMPLIED
kvg:tradForm CDATA #IMPLIED
kvg:radicalForm CDATA #IMPLIED
kvg:position CDATA #IMPLIED
kvg:radical CDATA #IMPLIED
kvg:phon CDATA #IMPLIED >
<!ATTLIST path
xmlns:kvg CDATA #FIXED "http://kanjivg.tagaini.net"
kvg:type CDATA #IMPLIED >
]>
<svg xmlns="http://www.w3.org/2000/svg" width="109" height="109" viewBox="0 0 109 109">
<g id="kvg:StrokePaths_067e5" style="fill:none;stroke:#000000;stroke-width:3;stroke-linecap:round;stroke-linejoin:round;">
<g id="kvg:067e5" kvg:element="查">
	<g id="kvg:067e5-g1" kvg:element="木" kvg:position="top" kvg:radical="general">
		<path id="kvg:067e5-s1" kvg:type="㇐" d="m19.5 26.39c1.98 0.38 4.23 0.51 6.51 0.38c11.6 -0.63 39.76 -2.42 57.3 -3.15c2.26 -0.09 3.68 0.07 5.94 0.34"/>
		<path id="kvg:067e5-s2" kvg:type="㇑" d="m52.59 13.13c1.02 0.42 1.83 1.84 1.83 2.7c0 8.72 0 31.33 -0.2 36.52"/>
		<path id="kvg:067e5-s3" kvg:type="㇒" d="m52 25.58c-8.75 10.38 -19.25 19.3 -38.75 25.73"/>
		<path id="kvg:067e5-s4" kvg:type="㇏" d="m54.75 24.54c5.5 4.15 27 19.3 34.2 22.25c2.02 0.83 3.45 1.51 5.3 1.82"/>
	</g>
	<g id="kvg:067e5-g3" kvg:element="旦" kvg:position="top">
		<g id="kvg:067e5-g4" kvg:element="日" kvg:position="top">
			<path id="kvg:067e5-s5" kvg:type="㇑" d="m29.99 57.83c0.34 0.42 0.9 2.12 1 2.69c1.11 5.81 3.01 16.13 3.96 24.37"/>
			<path id="kvg:067e5-s6" kvg:type="㇕a" d="m31.08 59.44c11.9 -1.11 34.77 -2.17 43.65 -3.1c3.26 -0.34 4.99 0.64 4.77 3.04c-0.47 5 -3.5 16.43 -5.62 23.57"/>
			<path id="kvg:067e5-s7" kvg:type="㇐a" d="m33.34 69.99c3.88 -0.43 39.91 -2.07 44.57 -2.08"/>
			<path id="kvg:067e5-s8" kvg:type="㇐a" d="m34.64 82.68c10.38 -1.14 26.24 -1.73 39.24 -1.93"/>
		</g>
		<g id="kvg:067e5-g5" kvg:element="一" kvg:position="bottom">
			<path id="kvg:067e5-s9" kvg:type="㇐" d="M19.5,94.98c1.98,0.46,4.23,0.61,6.51,0.46c11.6-0.76,39.76-2.91,57.3-3.8c2.26-0.11,3.68,0.08,5.94,0.41"/>
		</g>
	</g>
</g>
</g>
<g id="kvg:StrokeNumbers_067e5" style="font-size:8;fill:#808080">
	<text transform="matrix(1 0 0 1 10.50 26.50)">1</text>
	<text transform="matrix(1 0 0 1 41.50 13.55)">2</text>
	<text transform="matrix(1 0 0 1 35.50 36.48)">3</text>
	<text transform="matrix(1 0 0 1 65.50 34.40)">4</text>
	<text transform="matrix(1 0 0 1 19.50 65.50)">5</text>
	<text transform="matrix(1 0 0 1 34.50 63.50)">6</text>
	<text transform="matrix(1 0 0 1 37.50 76.50)">7</text>
	<text transform="matrix(1 0 0 1 39.50 88.10)">8</text>
	<text transform="matrix(1 0 0 1 12.50 90.50)">9</text>
</g>
</svg>
