<?xml version="1.0" encoding="UTF-8"?>
<!--
Copyright (C) 2016 François Mizessyn.
This work makes an extensive use of kanjiVG Copyright (C) 2009/2010/2011 Ulrich Apel.
This work is distributed under the conditions of the Creative Commons
Attribution-Share Alike 3.0 Licence. This means you are free:
* to Share - to copy, distribute and transmit the work
* to Remix - to adapt the work

Under the following conditions:
* Attribution. You must attribute the work by stating your use of HanjiVG in
  your own copyright header and linking to HanjiVG's website
  (http://gooo.free.fr/hanziVG/)
* Attribution. You must attribute the work by stating your use of KanjiVG in
  your own copyright header and linking to KanjiVG's website
  (http://kanjivg.tagaini.net)
* Share Alike. If you alter, transform, or build upon this work, you may
  distribute the resulting work only under the same or similar license to this
  one.

See http://creativecommons.org/licenses/by-sa/3.0/ for more details.
-->
<!DOCTYPE svg PUBLIC "-//W3C//DTD SVG 1.0//EN" "http://www.w3.org/TR/2001/REC-SVG-20010904/DTD/svg10.dtd" [
<!ATTLIST g
xmlns:kvg CDATA #FIXED "http://kanjivg.tagaini.net"
kvg:element CDATA #IMPLIED
kvg:variant CDATA #IMPLIED
kvg:partial CDATA #IMPLIED
kvg:original CDATA #IMPLIED
kvg:part CDATA #IMPLIED
kvg:number CDATA #IMPLIED
kvg:tradForm CDATA #IMPLIED
kvg:radicalForm CDATA #IMPLIED
kvg:position CDATA #IMPLIED
kvg:radical CDATA #IMPLIED
kvg:phon CDATA #IMPLIED >
<!ATTLIST path
xmlns:kvg CDATA #FIXED "http://kanjivg.tagaini.net"
kvg:type CDATA #IMPLIED >
]>
<svg xmlns="http://www.w3.org/2000/svg" width="109" height="109" viewBox="0 0 109 109">
<g id="kvg:StrokePaths_06807" style="fill:none;stroke:#000000;stroke-width:3;stroke-linecap:round;stroke-linejoin:round;">
<g id="kvg:06807" kvg:element="标">
	<g id="kvg:06807-g1" kvg:element="木" kvg:position="left" kvg:radical="general">
		<path id="kvg:06807-s1" kvg:type="㇐" d="M12.28,36.97c2.1,0.53,4.24,0.33,5.5,0.23c5.78-0.44,14.74-2.75,20.99-3.83c1.01-0.17,2.37-0.24,3,0"/>
		<path id="kvg:06807-s2" kvg:type="㇑" d="M28.86,15.5c1.07,1.07,1.79,3,1.79,4.92c0,2.51-0.04,43.57-0.05,62.95c0,4.38,0,7.65,0,9.12"/>
		<path id="kvg:06807-s3" kvg:type="㇒" d="M29.94,36.53c0,1.34-0.32,3.19-0.73,4.25c-5.53,14.4-10.59,24.31-17.46,33.97"/>
		<path id="kvg:06807-s4" kvg:type="㇔/㇏" d="M33.25,44.62c2.37,1.64,6.26,6.95,8.25,10.12"/>
	</g>
	<g id="kvg:06807-g2" kvg:element="示" kvg:position="right">
		<g id="kvg:06807-g3" kvg:element="二" kvg:position="top">
			<path id="kvg:06807-s5" kvg:type="㇐" d="m55.94 21.02c0.88 0.66 2.51 0.84 3.39 0.66c5.64 -1.14 14.8 -4.16 20.78 -4.78c1.47 -0.16 2.36 0.32 3.1 0.64"/>
			<path id="kvg:06807-s6" kvg:type="㇐" d="m45.63 45.6c2.05 0.94 5.82 0.92 7.85 0.44c11.83 -2.78 25.71 -6.02 34.62 -6.98c3.41 -0.36 5.46 0.44 7.17 0.92"/>
		</g>
		<g id="kvg:06807-g4" kvg:element="小" kvg:position="bottom">
			<path id="kvg:06807-s7" kvg:type="㇑" d="m68.46 49.72c1.15 2.3 1.67 5.04 1.67 9.32c0 13.42 0.24 20.46 0.24 29.86c0 12.78 -4.12 6.36 -6.75 1.04"/>
			<path id="kvg:06807-s8" kvg:type="㇒" d="m54.89 63.54c0.03 0.72 0.06 1.88 -0.06 2.92c-0.71 6.18 -5.57 17.02 -12.83 26.04"/>
			<path id="kvg:06807-s9" kvg:type="㇔" d="m83.19 63.1c3.77 4.46 9.93 17.86 10.87 24.82"/>
		</g>
	</g>
</g>
</g>
<g id="kvg:StrokeNumbers_06807" style="font-size:8;fill:#808080">
	<text transform="matrix(1 0 0 1 6.50 38.50)">1</text>
	<text transform="matrix(1 0 0 1 19.50 16.50)">2</text>
	<text transform="matrix(1 0 0 1 20.50 47.50)">3</text>
	<text transform="matrix(1 0 0 1 35.25 45.50)">4</text>
	<text transform="matrix(1 0 0 1 54.75 17.50)">5</text>
	<text transform="matrix(1 0 0 1 45.75 42.63)">6</text>
	<text transform="matrix(1 0 0 1 57.50 59.50)">7</text>
	<text transform="matrix(1 0 0 1 43.50 67.50)">8</text>
	<text transform="matrix(1 0 0 1 75.50 60.50)">9</text>
</g>
</svg>
