<?xml version="1.0" encoding="UTF-8"?>
<!--
Copyright (C) 2016 François Mizessyn.
This work makes an extensive use of kanjiVG Copyright (C) 2009/2010/2011 Ulrich Apel.
This work is distributed under the conditions of the Creative Commons
Attribution-Share Alike 3.0 Licence. This means you are free:
* to Share - to copy, distribute and transmit the work
* to Remix - to adapt the work

Under the following conditions:
* Attribution. You must attribute the work by stating your use of KanjiVG in
  your own copyright header and linking to KanjiVG's website
  (http://kanjivg.tagaini.net)
* Share Alike. If you alter, transform, or build upon this work, you may
  distribute the resulting work only under the same or similar license to this
  one.

See http://creativecommons.org/licenses/by-sa/3.0/ for more details.
-->
<!DOCTYPE svg PUBLIC "-//W3C//DTD SVG 1.0//EN" "http://www.w3.org/TR/2001/REC-SVG-20010904/DTD/svg10.dtd" [
<!ATTLIST g
xmlns:kvg CDATA #FIXED "http://kanjivg.tagaini.net"
kvg:element CDATA #IMPLIED
kvg:variant CDATA #IMPLIED
kvg:partial CDATA #IMPLIED
kvg:original CDATA #IMPLIED
kvg:part CDATA #IMPLIED
kvg:number CDATA #IMPLIED
kvg:tradForm CDATA #IMPLIED
kvg:radicalForm CDATA #IMPLIED
kvg:position CDATA #IMPLIED
kvg:radical CDATA #IMPLIED
kvg:phon CDATA #IMPLIED >
<!ATTLIST path
xmlns:kvg CDATA #FIXED "http://kanjivg.tagaini.net"
kvg:type CDATA #IMPLIED >
]>
<svg xmlns="http://www.w3.org/2000/svg" width="109" height="109" viewBox="0 0 109 109">
<g id="kvg:StrokePaths_06811" style="fill:none;stroke:#000000;stroke-width:3;stroke-linecap:round;stroke-linejoin:round;">
<g id="kvg:06811" kvg:element="树">
	<g id="kvg:06811-g1" kvg:element="木" kvg:position="left" kvg:radical="general">
		<path id="kvg:06811-s1" kvg:type="㇐" d="M11.53,36.28c0.37,0.26,2.55,0.44,3.52,0.33c4.2-0.43,15.31-1.28,22.06-2.57c0.98-0.19,2.29-0.26,2.91,0"/>
		<path id="kvg:06811-s2" kvg:type="㇑" d="M27.36,14.5c0.91,0.47,2.04,2,2.04,4.42c0,0.95-0.12,69.75-0.3,75.58"/>
		<path id="kvg:06811-s3" kvg:type="㇒" d="M28.94,40.28c-5.1,15.04-7.94,21.4-15.83,34.56"/>
		<path id="kvg:06811-s4" kvg:type="㇔/㇏" d="M31.47,46.9c2.37,1.59,6.28,6.76,8.28,9.85"/>
	</g>
	<g id="kvg:06811-g2" kvg:element="对" kvg:radical="general">
		<g id="kvg:06811-g3" kvg:element="又" kvg:radical="general">
			<path id="kvg:06811-s5" kvg:type="㇇" d="M45.79 29.8c0.73 0.4 1.64 0.6 3.09 0s11.53 -5.4 12.53 -6s1.84 1.62 1.45 3.8c-4.4 25 -11.3 45.6 -21.05 57.4"/>
			<path id="kvg:06811-s6" kvg:type="㇏" d="M44.7 40.2c2.13 0.9 11.17 21.94 19.13 34.86c1.73 2.82 3.52 5.68 5.56 7.34"/>
		</g>
		<g id="kvg:06811-g4" kvg:element="寸" kvg:position="right">
			<path id="kvg:06811-s7" kvg:type="㇐" d="M69.88,41.15c2.5,0.35,4.41,0.3,6.28-0.01c6.2-1.02,12.47-1.64,17.64-2.72c1.49-0.31,3.08-0.54,4.2-0.3"/>
			<path id="kvg:06811-s8" kvg:type="㇚" d="M85.02,15.58c1.14,1.14,2.01,2.79,2.01,5.02c0,20.4-0.01,61.91-0.01,66.87c0,12.03-6.27,2.78-7.96,0.75"/>
			<path id="kvg:06811-s9" kvg:type="㇔" d="M71.96,56.37c2.29,1.85,5.93,7.62,6.5,10.5"/>
		</g>
	</g>
</g>
</g>
<g id="kvg:StrokeNumbers_06811" style="font-size:8;fill:#808080">
	<text transform="matrix(1 0 0 1 6.50 33.50)">1</text>
	<text transform="matrix(1 0 0 1 17.50 14.50)">2</text>
	<text transform="matrix(1 0 0 1 16.50 49.50)">3</text>
	<text transform="matrix(1 0 0 1 33.50 46.50)">4</text>
	<text transform="matrix(1 0 0 1 39.50 26.50)">5</text>
	<text transform="matrix(1 0 0 1 47.50 42.50)">6</text>
	<text transform="matrix(1 0 0 1 69.50 37.50)">7</text>
	<text transform="matrix(1 0 0 1 74.50 16.50)">8</text>
	<text transform="matrix(1 0 0 1 68.50 53.91)">9</text>
</g>
</svg>
