<?xml version="1.0" encoding="UTF-8"?>
<!--
Copyright (C) 2016 François Mizessyn.
This work makes an extensive use of kanjiVG Copyright (C) 2009/2010/2011 Ulrich Apel.
This work is distributed under the conditions of the Creative Commons
Attribution-Share Alike 3.0 Licence. This means you are free:
* to Share - to copy, distribute and transmit the work
* to Remix - to adapt the work

Under the following conditions:
* Attribution. You must attribute the work by stating your use of HanjiVG in
  your own copyright header and linking to HanjiVG's website
  (http://gooo.free.fr/hanziVG/)
* Attribution. You must attribute the work by stating your use of KanjiVG in
  your own copyright header and linking to KanjiVG's website
  (http://kanjivg.tagaini.net)
* Share Alike. If you alter, transform, or build upon this work, you may
  distribute the resulting work only under the same or similar license to this
  one.

See http://creativecommons.org/licenses/by-sa/3.0/ for more details.
-->
<!DOCTYPE svg PUBLIC "-//W3C//DTD SVG 1.0//EN" "http://www.w3.org/TR/2001/REC-SVG-20010904/DTD/svg10.dtd" [
<!ATTLIST g
xmlns:kvg CDATA #FIXED "http://kanjivg.tagaini.net"
kvg:element CDATA #IMPLIED
kvg:variant CDATA #IMPLIED
kvg:partial CDATA #IMPLIED
kvg:original CDATA #IMPLIED
kvg:part CDATA #IMPLIED
kvg:number CDATA #IMPLIED
kvg:tradForm CDATA #IMPLIED
kvg:radicalForm CDATA #IMPLIED
kvg:position CDATA #IMPLIED
kvg:radical CDATA #IMPLIED
kvg:phon CDATA #IMPLIED >
<!ATTLIST path
xmlns:kvg CDATA #FIXED "http://kanjivg.tagaini.net"
kvg:type CDATA #IMPLIED >
]>
<svg xmlns="http://www.w3.org/2000/svg" width="109" height="109" viewBox="0 0 109 109">
<g id="kvg:StrokePaths_06837" style="fill:none;stroke:#000000;stroke-width:3;stroke-linecap:round;stroke-linejoin:round;">
<g id="kvg:06837" kvg:element="样">
	<g id="kvg:06837-g1" kvg:element="木" kvg:position="left" kvg:radical="general">
		<path id="kvg:06837-s1" kvg:type="㇐" d="M12.28,38.22c2.1,0.53,4.3,0.27,5.73,0.11c6.1-0.67,16.88-2.7,23.01-3.87c1.26-0.24,3.11-0.58,4.5-0.34"/>
		<path id="kvg:06837-s2" kvg:type="㇑" d="M29.61,15c1.19,1.19,1.54,2.88,1.54,4.92c0,0.8-0.01,48.28-0.02,69.08c0,3.78,0,6.67,0,8.25"/>
		<path id="kvg:06837-s3" kvg:type="㇒" d="M30.69,38.53c0,1.47-0.62,3.64-1.16,4.86c-5.17,11.73-9.05,17.54-17.67,28.95"/>
		<path id="kvg:06837-s4" kvg:type="㇔/㇏" d="M33.97,44.65c3.23,1.59,7.15,5.6,10.78,11.35"/>
	</g>
	<g id="kvg:06837-g2" kvg:element="羊" kvg:position="right" kvg:phon="羊">
<path id="kvg:06837-s5" kvg:type="㇔" d="m54.13 13.25c2.45 1.94 6.33 7.96 6.94 10.97"/>
<path id="kvg:06837-s6" kvg:type="㇒" d="m85.37 10.75c0.04 0.44 0.15 1.17 -0.07 1.78c-1.44 3.97 -4.25 8.6 -9.32 14.04"/>
<path id="kvg:06837-s7" kvg:type="㇐" d="m49.9 31.89c2.03 0.49 4.67 0.2 6.5 0.01c7.7 -0.8 20.59 -2.48 28.01 -3.06c2.13 -0.17 4.58 -0.57 6.66 0.17"/>
<path id="kvg:06837-s8" kvg:type="㇐" d="m54.49 49.89c2.28 0.49 4.45 0.35 6.25 0.24c6.56 -0.44 14.67 -1.75 21.01 -2.56c1.88 -0.24 3.85 -0.64 5.74 -0.3"/>
<path id="kvg:06837-s9" kvg:type="㇐" d="m45.44 71.45c2.2 0.55 4.66 0.53 6.81 0.19c9.47 -1.51 26.67 -3.45 37.52 -4.38c2.14 -0.18 5.02 -0.1 7.15 0.25"/>
<path id="kvg:06837-s10" kvg:type="㇑" d="m69.43 33.25c0.82 0.93 1.28 2.23 1.28 3.25c0 2.83 -0.11 37.06 -0.15 53.5c-0.01 3.86 -0.02 6.74 -0.02 8"/>
	</g>
</g>
</g>
<g id="kvg:StrokeNumbers_06837" style="font-size:8;fill:#808080">
	<text transform="matrix(1 0 0 1 5.25 35.63)">1</text>
	<text transform="matrix(1 0 0 1 20.25 13.63)">2</text>
	<text transform="matrix(1 0 0 1 16.50 50.50)">3</text>
	<text transform="matrix(1 0 0 1 37.50 45.50)">4</text>
	<text transform="matrix(1 0 0 1 45.25 13.13)">5</text>
	<text transform="matrix(1 0 0 1 73.75 14.13)">6</text>
	<text transform="matrix(1 0 0 1 40.75 28.63)">7</text>
	<text transform="matrix(1 0 0 1 46.75 49.97)">8</text>
	<text transform="matrix(1 0 0 1 41.25 69.77)">9</text>
	<text transform="matrix(1 0 0 1 72.25 43.63)">10</text>
</g>
</svg>
