<?xml version="1.0" encoding="UTF-8"?>
<!--
Copyright (C) 2016 François Mizessyn.
This work makes an extensive use of kanjiVG Copyright (C) 2009/2010/2011 Ulrich Apel.
This work is distributed under the conditions of the Creative Commons
Attribution-Share Alike 3.0 Licence. This means you are free:
* to Share - to copy, distribute and transmit the work
* to Remix - to adapt the work

Under the following conditions:
* Attribution. You must attribute the work by stating your use of HanjiVG in
  your own copyright header and linking to HanjiVG's website
  (http://gooo.free.fr/hanziVG/)
* Attribution. You must attribute the work by stating your use of KanjiVG in
  your own copyright header and linking to KanjiVG's website
  (http://kanjivg.tagaini.net)
* Share Alike. If you alter, transform, or build upon this work, you may
  distribute the resulting work only under the same or similar license to this
  one.

See http://creativecommons.org/licenses/by-sa/3.0/ for more details.
-->
<!DOCTYPE svg PUBLIC "-//W3C//DTD SVG 1.0//EN" "http://www.w3.org/TR/2001/REC-SVG-20010904/DTD/svg10.dtd" [
<!ATTLIST g
xmlns:kvg CDATA #FIXED "http://kanjivg.tagaini.net"
kvg:element CDATA #IMPLIED
kvg:variant CDATA #IMPLIED
kvg:partial CDATA #IMPLIED
kvg:original CDATA #IMPLIED
kvg:part CDATA #IMPLIED
kvg:number CDATA #IMPLIED
kvg:tradForm CDATA #IMPLIED
kvg:radicalForm CDATA #IMPLIED
kvg:position CDATA #IMPLIED
kvg:radical CDATA #IMPLIED
kvg:phon CDATA #IMPLIED >
<!ATTLIST path
xmlns:kvg CDATA #FIXED "http://kanjivg.tagaini.net"
kvg:type CDATA #IMPLIED >
]>
<svg xmlns="http://www.w3.org/2000/svg" width="109" height="109" viewBox="0 0 109 109">
<g id="kvg:StrokePaths_0684c" style="fill:none;stroke:#000000;stroke-width:3;stroke-linecap:round;stroke-linejoin:round;">
<g id="kvg:0684c" kvg:element="桌">
	<g id="kvg:0684c-g1" kvg:element="卜" kvg:original="ト">
		<path id="kvg:0684c-s1" kvg:type="㇑a" d="M50.27,10.73c0.75,0.75,1.16,1.9,1.16,3.12c0,0.76-0.06,32.95-0.06,10.78"/>
		<path id="kvg:0684c-s2" kvg:type="㇐b" d="M52.62,22.25c4.52-1.16,7.75-2,11.88-2.96c0.97-0.17,1.96-0.21,2.95-0.12"/>
	</g>
	<g id="kvg:0684c-g2" kvg:element="日">
		<path id="kvg:0684c-s3" kvg:type="㇑" d="M32.16,32.88c0.32,0.43,0.33,0.72,0.5,1.26c1.44,4.42,3.29,16.58,4.18,24.82"/>
		<path id="kvg:0684c-s4" kvg:type="㇕a" d="M33.65,33.97c11.12-1.11,30.68-3.5,38.99-4.43c3.05-0.34,4.11,1.37,3.96,2.58c-0.58,4.46-3.49,15.09-4.89,22.53"/>
		<path id="kvg:0684c-s5" kvg:type="㇐a" d="M34.72,45.4c3.62-0.43,36.95-3.62,39.94-3.8"/>
		<path id="kvg:0684c-s6" kvg:type="㇐a" d="M36.91,57.76c8.01-0.47,25.74-2.45,36.79-3.23"/>
	</g>
	<g id="kvg:0684c-g3" kvg:element="木" kvg:position="bottom" kvg:radical="general">
		<path id="kvg:0684c-s7" kvg:type="㇐" d="M15.25,70c2.08,0.68,4.44,0.9,6.83,0.68c12.18-1.11,47.52-2.97,65.93-4.27c2.37-0.17,3.86,0.12,6.24,0.59"/>
		<path id="kvg:0684c-s8" kvg:type="㇑" d="M51.25,56.75c1.25,0.5,2.25,2.22,2.25,3.25c0,10.5,0,38.25-0.25,38.5"/>
		<path id="kvg:0684c-s9" kvg:type="㇒" d="M52.75,70.25C45.2,75.89,31,85.5,11,94"/>
		<path id="kvg:0684c-s10" kvg:type="㇏" d="M54.5,70c4.94,3.17,28.18,19.07,30.55,19.19c1.82,1.06,3.38,1.51,5.2,1.81"/>
	</g>
</g>
</g>
<g id="kvg:StrokeNumbers_0684c" style="font-size:8;fill:#808080">
	<text transform="matrix(1 0 0 1 41.50 13.63)">1</text>
	<text transform="matrix(1 0 0 1 53.50 16.50)">2</text>
	<text transform="matrix(1 0 0 1 23.00 36.23)">3</text>
	<text transform="matrix(1 0 0 1 33.50 30.90)">4</text>
	<text transform="matrix(1 0 0 1 24.50 48.50)">5</text>
	<text transform="matrix(1 0 0 1 25.50 61.50)">6</text>
	<text transform="matrix(1 0 0 1 7.50 69.50)">7</text>
	<text transform="matrix(1 0 0 1 46.75 54.78)">8</text>
	<text transform="matrix(1 0 0 1 27.50 81.50)">9</text>
	<text transform="matrix(1 0 0 1 70.50 79.63)">10</text>
</g>
</svg>
