<?xml version="1.0" encoding="UTF-8"?>
<!--
Copyright (C) 2016 François Mizessyn.
This work makes an extensive use of kanjiVG Copyright (C) 2009/2010/2011 Ulrich Apel.
This work is distributed under the conditions of the Creative Commons
Attribution-Share Alike 3.0 Licence. This means you are free:
* to Share - to copy, distribute and transmit the work
* to Remix - to adapt the work

Under the following conditions:
* Attribution. You must attribute the work by stating your use of HanjiVG in
  your own copyright header and linking to HanjiVG's website
  (http://gooo.free.fr/hanziVG/)
* Attribution. You must attribute the work by stating your use of KanjiVG in
  your own copyright header and linking to KanjiVG's website
  (http://kanjivg.tagaini.net)
* Share Alike. If you alter, transform, or build upon this work, you may
  distribute the resulting work only under the same or similar license to this
  one.

See http://creativecommons.org/licenses/by-sa/3.0/ for more details.
-->
<!DOCTYPE svg PUBLIC "-//W3C//DTD SVG 1.0//EN" "http://www.w3.org/TR/2001/REC-SVG-20010904/DTD/svg10.dtd" [
<!ATTLIST g
xmlns:kvg CDATA #FIXED "http://kanjivg.tagaini.net"
kvg:element CDATA #IMPLIED
kvg:variant CDATA #IMPLIED
kvg:partial CDATA #IMPLIED
kvg:original CDATA #IMPLIED
kvg:part CDATA #IMPLIED
kvg:number CDATA #IMPLIED
kvg:tradForm CDATA #IMPLIED
kvg:radicalForm CDATA #IMPLIED
kvg:position CDATA #IMPLIED
kvg:radical CDATA #IMPLIED
kvg:phon CDATA #IMPLIED >
<!ATTLIST path
xmlns:kvg CDATA #FIXED "http://kanjivg.tagaini.net"
kvg:type CDATA #IMPLIED >
]>
<svg xmlns="http://www.w3.org/2000/svg" width="109" height="109" viewBox="0 0 109 109">
<g id="kvg:StrokePaths_068c0" style="fill:none;stroke:#000000;stroke-width:3;stroke-linecap:round;stroke-linejoin:round;">
<g id="kvg:068c0" kvg:element="检">
	<g id="kvg:068c0-g1" kvg:element="木" kvg:position="left" kvg:radical="general">
		<path id="kvg:068c0-s1" kvg:type="㇐" d="m13.02 36.5c0.3 0.23 2.04 0.38 2.82 0.29c3.37 -0.38 14.22 -2.07 19.63 -3.2c0.78 -0.16 1.84 -0.23 2.33 0"/>
		<path id="kvg:068c0-s2" kvg:type="㇑" d="m25.09 14.5c0.73 0.47 2.03 2.25 2.03 4.42c0 0.95 -0.24 68.73 -0.24 69.58c0 11.5 -4.18 2.88 -5.28 1.5"/>
		<path id="kvg:068c0-s3" kvg:type="㇒" d="m26.75 39.28c-4.78 15.91 -7.45 22.63 -14.86 36.56"/>
		<path id="kvg:068c0-s4" kvg:type="㇔/㇏" d="m29.58 45.9c1.9 1.59 6.22 8.1 7.42 11.85"/>
	</g>
	<g id="kvg:068c0-g2" kvg:element="佥" kvg:position="right">
		<g id="kvg:06de6-g3" kvg:element="人" kvg:position="top">
			<path id="kvg:068c0-s5" kvg:type="㇒" d="m65.16 15.35c0 0.89 0.07 1.59 -0.2 2.66c-1.37 5.56 -13.3 26.24 -24.44 34.46"/>
			<path id="kvg:068c0-s6" kvg:type="㇏" d="m65.38 19.18c6.14 4.45 22.55 24.46 24.55 25.86c2.04 1.42 2.71 1.68 3.61 1.82"/>
		</g>
		<path id="kvg:068c0-s7" kvg:type="㇐" d="M54.27,49.83c0.67,0.31,2.85,0.41,3.53,0.32c3.15-0.42,9.32-1.36,22.38-2.46c1.03-0.09,1.97,0.06,2.83,0.32"/>
		<path id="kvg:068c0-s8" kvg:type="㇔" d="m46.42 66.5c2.51 1.64 8.97 10.93 9.5 14"/>
		<path id="kvg:068c0-s9" kvg:type="㇔" d="m60.5 62.14c3.26 2.93 8.43 12.06 9.25 16.62"/>
		<path id="kvg:068c0-s10" kvg:type="㇒" d="m86 65.74c0.03 1.18 -0.32 2.54 -0.53 3.23c-1.57 5.16 -4.89 12.36 -10.07 19.38"/>
		<path id="kvg:068c0-s11" kvg:type="㇐" d="m44.38 92.69c0.51 0.22 3.09 0.85 4.22 0.71c5.51 -0.66 22.4 -2.89 38.6 -2.89c1.54 0 3.4 0.29 4.17 0.56"/>
	</g>
</g>
</g>
<g id="kvg:StrokeNumbers_068c0" style="font-size:8;fill:#808080">
	<text transform="matrix(1 0 0 1 4.50 42.50)">1</text>
	<text transform="matrix(1 0 0 1 15.50 15.50)">2</text>
	<text transform="matrix(1 0 0 1 14.50 47.50)">3</text>
	<text transform="matrix(1 0 0 1 29.54 45.50)">4</text>
	<text transform="matrix(1 0 0 1 54.50 17.50)">5</text>
	<text transform="matrix(1 0 0 1 67.25 19.63)">6</text>
	<text transform="matrix(1 0 0 1 51.50 47.50)">7</text>
	<text transform="matrix(1 0 0 1 46.50 65.50)">8</text>
	<text transform="matrix(1 0 0 1 62.50 63.50)">9</text>
	<text transform="matrix(1 0 0 1 77.50 64.50)">10</text>
	<text transform="matrix(1 0 0 1 37.50 90.50)">11</text>
</g>
</svg>
