<?xml version="1.0" encoding="UTF-8" standalone="no"?>
<!--
Copyright (C) 2016 François Mizessyn.
This work makes an extensive use of kanjiVG Copyright (C) 2009/2010/2011 Ulrich Apel.
This work is distributed under the conditions of the Creative Commons
Attribution-Share Alike 3.0 Licence. This means you are free:
* to Share - to copy, distribute and transmit the work
* to Remix - to adapt the work

Under the following conditions:
* Attribution. You must attribute the work by stating your use of HanjiVG in
  your own copyright header and linking to HanjiVG's website
  (http://gooo.free.fr/hanziVG/)
* Attribution. You must attribute the work by stating your use of KanjiVG in
  your own copyright header and linking to KanjiVG's website
  (http://kanjivg.tagaini.net)
* Share Alike. If you alter, transform, or build upon this work, you may
  distribute the resulting work only under the same or similar license to this
  one.

See http://creativecommons.org/licenses/by-sa/3.0/ for more details.
-->
<!DOCTYPE svg PUBLIC "-//W3C//DTD SVG 1.0//EN" "http://www.w3.org/TR/2001/REC-SVG-20010904/DTD/svg10.dtd" [
<!ATTLIST g
xmlns:kvg CDATA #FIXED "http://kanjivg.tagaini.net"
kvg:element CDATA #IMPLIED
kvg:variant CDATA #IMPLIED
kvg:partial CDATA #IMPLIED
kvg:original CDATA #IMPLIED
kvg:part CDATA #IMPLIED
kvg:number CDATA #IMPLIED
kvg:tradForm CDATA #IMPLIED
kvg:radicalForm CDATA #IMPLIED
kvg:position CDATA #IMPLIED
kvg:radical CDATA #IMPLIED
kvg:phon CDATA #IMPLIED >
<!ATTLIST path
xmlns:kvg CDATA #FIXED "http://kanjivg.tagaini.net"
kvg:type CDATA #IMPLIED >
]>
<svg xmlns="http://www.w3.org/2000/svg" width="109" height="109" viewBox="0 0 109 109">
<g id="kvg:StrokePaths_06b22" style="fill:none;stroke:#000000;stroke-width:3;stroke-linecap:round;stroke-linejoin:round;">
<g id="kvg:06b22" kvg:element="欢">
	<g id="kvg:06b22-g1" kvg:element="又" kvg:variant="true" kvg:position="left" kvg:radical="general">
		<path id="kvg:06b22-s1" kvg:type="㇇" d="m16.54 31.55c1.18 0.39 3.06 0.63 5.45 0.14c3.01 -0.62 12.57 -3.5 17.06 -4.8c2.72 -0.79 5.3 0.19 4.5 3.52c-4.95 20.74 -12.8 40.59 -32.38 54.09"/>
		<path id="kvg:06b22-s2" kvg:type="㇔/㇏" d="M21.12,46c8.38,5.38,18.28,14.69,24.12,26.25"/>
	</g>
	<g id="kvg:06b22-g2" kvg:element="欠" kvg:position="right">
		<g id="kvg:06b22-g3" kvg:position="top">
<path id="kvg:06b22-s3" kvg:type="㇒" d="m60.75 13.5c0.04 0.91 0.08 2.34 -0.08 3.64c-0.95 7.69 -6.37 24.54 -13.78 34.86"/>
<path id="kvg:06b22-s4" kvg:type="㇖a" d="m59.22 34.27c1.03 0.31 2.47 0.25 4.04 0.03c3.99 -0.55 25.02 -4.39 26.82 -4.56c9.05 -0.86 -1 9.36 -2.89 11.01"/>
		</g>
		<g id="kvg:0574e-g4" kvg:position="bottom">
<path id="kvg:06b22-s5" kvg:type="㇒" d="m64.6 42c0.65 1.25 0.88 2.41 0.86 4.37c-0.21 20.13 -4.71 40.38 -24.46 51.88"/>
<path id="kvg:06b22-s6" kvg:type="㇏" d="m64.92 59.5c4.49 8.3 20.73 27.86 28.11 34.73c1.56 1.45 2.74 2.31 4.21 2.77"/>
		</g>
	</g>
</g>
</g>
<g id="kvg:StrokeNumbers_0574e" style="font-size:8;fill:#808080">
	<text transform="matrix(1 0 0 1 13.50 28.50)">1</text>
	<text transform="matrix(1 0 0 1 17.50 42.50)">2</text>
	<text transform="matrix(1 0 0 1 50.50 13.50)">3</text>
	<text transform="matrix(1 0 0 1 61.50 30.58)">4</text>
	<text transform="matrix(1 0 0 1 54.50 48.50)">5</text>
	<text transform="matrix(1 0 0 1 68.50 62.50)">6</text>
</g>
</svg>
