<?xml version="1.0" encoding="UTF-8"?>
<!--
Copyright (C) 2016 François Mizessyn.
This work makes an extensive use of kanjiVG Copyright (C) 2009/2010/2011 Ulrich Apel.
This work is distributed under the conditions of the Creative Commons
Attribution-Share Alike 3.0 Licence. This means you are free:
* to Share - to copy, distribute and transmit the work
* to Remix - to adapt the work

Under the following conditions:
* Attribution. You must attribute the work by stating your use of HanjiVG in
  your own copyright header and linking to HanjiVG's website
  (http://gooo.free.fr/hanziVG/)
* Attribution. You must attribute the work by stating your use of KanjiVG in
  your own copyright header and linking to KanjiVG's website
  (http://kanjivg.tagaini.net)
* Share Alike. If you alter, transform, or build upon this work, you may
  distribute the resulting work only under the same or similar license to this
  one.

See http://creativecommons.org/licenses/by-sa/3.0/ for more details.
-->
<!DOCTYPE svg PUBLIC "-//W3C//DTD SVG 1.0//EN" "http://www.w3.org/TR/2001/REC-SVG-20010904/DTD/svg10.dtd" [
<!ATTLIST g
xmlns:kvg CDATA #FIXED "http://kanjivg.tagaini.net"
kvg:element CDATA #IMPLIED
kvg:variant CDATA #IMPLIED
kvg:partial CDATA #IMPLIED
kvg:original CDATA #IMPLIED
kvg:part CDATA #IMPLIED
kvg:number CDATA #IMPLIED
kvg:tradForm CDATA #IMPLIED
kvg:radicalForm CDATA #IMPLIED
kvg:position CDATA #IMPLIED
kvg:radical CDATA #IMPLIED
kvg:phon CDATA #IMPLIED >
<!ATTLIST path
xmlns:kvg CDATA #FIXED "http://kanjivg.tagaini.net"
kvg:type CDATA #IMPLIED >
]>
<svg xmlns="http://www.w3.org/2000/svg" width="109" height="109" viewBox="0 0 109 109">
<g id="kvg:StrokePaths_06b65" style="fill:none;stroke:#000000;stroke-width:3;stroke-linecap:round;stroke-linejoin:round;">
<g id="kvg:06b65" kvg:element="步">
	<g id="kvg:06b65-g1" kvg:element="止" kvg:position="top" kvg:radical="general">
		<g id="kvg:06b65-g2" kvg:element="卜" kvg:original="ト">
			<path id="kvg:06b65-s1" kvg:type="㇑a" d="m54.39 12.36c1.37 1.29 2.13 2.88 2.13 4.76c0 5.59 0.22 15.94 0.22 26.42"/>
			<path id="kvg:06b65-s2" kvg:type="㇐b/㇔" d="m57.65 28.07c8.23 -1.62 12.73 -2.48 19.44 -3.65c1.66 -0.29 3.1 -0.28 4.15 -0.05"/>
		</g>
		<path id="kvg:06b65-s3" kvg:type="㇑a" d="m32.24 25.28c0.76 0.89 1.81 2.21 1.91 3.23c0.35 3.68 0.6 10.44 0.77 17.45"/>
		<path id="kvg:06b65-s4" kvg:type="㇐" d="m18 47.72c2.84 0.79 5.62 0.78 8.51 0.46c14.37 -1.61 40.92 -4.91 56.01 -6.43c3.09 -0.31 6.08 -0.33 9.16 0.22"/>
	</g>
	<path id="kvg:06b65-s5" kvg:type="㇚" d="m56.13 47.8c0.75 0.68 1.22 1.79 1.22 3.15c0 7.65 0 16.62 0 18.85c0 6.35 -3.73 2.86 -7.1 -0.17"/>
	<path id="kvg:06b65-s6" kvg:type="㇒" d="m38.75 55.68c0.12 0.99 -0.06 1.58 -0.62 2.46c-2.53 3.98 -8.88 9.02 -16.13 13.74"/>
	<g id="kvg:06b65-g5" kvg:element="丿">
		<path id="kvg:06b65-s7" kvg:type="㇒" d="m86.98 52.09c0.17 1.04 -0.11 2.74 -0.94 4.22c-6.86 12.3 -33.28 38.48 -60.07 40.45"/>
	</g>
</g>
</g>
<g id="kvg:StrokeNumbers_06b65" style="font-size:8;fill:#808080">
	<text transform="matrix(1 0 0 1 45.50 11.50)">1</text>
	<text transform="matrix(1 0 0 1 59.50 22.50)">2</text>
	<text transform="matrix(1 0 0 1 22.50 22.50)">3</text>
	<text transform="matrix(1 0 0 1 11.50 42.13)">4</text>
	<text transform="matrix(1 0 0 1 44.50 60.50)">5</text>
	<text transform="matrix(1 0 0 1 25.50 60.50)">6</text>
	<text transform="matrix(1 0 0 1 74.50 58.50)">7</text>
</g>
</svg>
