<?xml version="1.0" encoding="UTF-8"?>
<!--
Copyright (C) 2016 François Mizessyn.
This work makes an extensive use of kanjiVG Copyright (C) 2009/2010/2011 Ulrich Apel.
This work is distributed under the conditions of the Creative Commons
Attribution-Share Alike 3.0 Licence. This means you are free:
* to Share - to copy, distribute and transmit the work
* to Remix - to adapt the work

Under the following conditions:
* Attribution. You must attribute the work by stating your use of HanjiVG in
  your own copyright header and linking to HanjiVG's website
  (http://gooo.free.fr/hanziVG/)
* Attribution. You must attribute the work by stating your use of KanjiVG in
  your own copyright header and linking to KanjiVG's website
  (http://kanjivg.tagaini.net)
* Share Alike. If you alter, transform, or build upon this work, you may
  distribute the resulting work only under the same or similar license to this
  one.

See http://creativecommons.org/licenses/by-sa/3.0/ for more details.
-->
<!DOCTYPE svg PUBLIC "-//W3C//DTD SVG 1.0//EN" "http://www.w3.org/TR/2001/REC-SVG-20010904/DTD/svg10.dtd" [
<!ATTLIST g
xmlns:kvg CDATA #FIXED "http://kanjivg.tagaini.net"
kvg:element CDATA #IMPLIED
kvg:variant CDATA #IMPLIED
kvg:partial CDATA #IMPLIED
kvg:original CDATA #IMPLIED
kvg:part CDATA #IMPLIED
kvg:number CDATA #IMPLIED
kvg:tradForm CDATA #IMPLIED
kvg:radicalForm CDATA #IMPLIED
kvg:position CDATA #IMPLIED
kvg:radical CDATA #IMPLIED
kvg:phon CDATA #IMPLIED >
<!ATTLIST path
xmlns:kvg CDATA #FIXED "http://kanjivg.tagaini.net"
kvg:type CDATA #IMPLIED >
]>
<svg xmlns="http://www.w3.org/2000/svg" width="109" height="109" viewBox="0 0 109 109">
<g id="kvg:StrokePaths_06bd5" style="fill:none;stroke:#000000;stroke-width:3;stroke-linecap:round;stroke-linejoin:round;">
<g id="kvg:06bd5" kvg:element="毕">
	<g id="kvg:06bd5-g1" kvg:element="比" kvg:position="top" kvg:radical="nelson">
		<g id="kvg:06bd5-g2" kvg:position="left">
			<path id="kvg:06bd5-s1" kvg:type="㇐b" d="M27.5,31c5.62-0.75,9.25-1.5,18-3c1.48-0.25,3-0.25,4,0"/>
			<path id="kvg:06bd5-s2" kvg:type="㇙" d="M25,14.89c0.87,0.87,1.26,2.11,1.26,3.8c0,6.81-0.01,27.43-0.01,31.81c0,3.14,0.75,3.62,3.75,1.68c6.31-4.09,8.83-5.85,13.25-8.43"/>
		</g>
		<g id="kvg:06bd5-g3" kvg:element="匕" kvg:position="right">
			<path id="kvg:06bd5-s3" kvg:type="㇒" d="M87.07,18.9c0.18,1.35-0.24,2.19-1.28,3C80.5,26,75.5,29.25,66.03,32.93"/>
			<path id="kvg:06bd5-s4" kvg:type="㇟" d="M61.25,12.25c1.06,1.06,1.59,2.38,1.59,4.14c0,7.11,0.01,21.82,0.01,24.23c0,8.38,1.15,9.71,14.93,9.71c14.47,0,15.76-1.58,15.76-8.32"/>
		</g>
	</g>
	<g id="kvg:06bd5-g4" kvg:element="十" kvg:position="bottom" kvg:radical="general">
		<path id="kvg:06bd5-s5" kvg:type="㇐" d="M12.38,68.98c1.52,0.54,4.31,0.68,5.82,0.54c19.3-1.77,56.3-5.02,69.61-5.23c2.53-0.04,4.05,0.26,5.31,0.53"/>
		<path id="kvg:06bd5-s6" kvg:type="㇑" d="M53.71,49.88c0.52,0.41,1.62,3.11,1.73,3.93c0.11,0.83-0.07,38.63-0.17,43.82"/>
	</g>
</g>
</g>
<g id="kvg:StrokeNumbers_06bd5" style="font-size:8;fill:#808080">
	<text transform="matrix(1 0 0 1 29.50 27.00)">1</text>
	<text transform="matrix(1 0 0 1 17.25 16.63)">2</text>
	<text transform="matrix(1 0 0 1 78.75 18.13)">3</text>
	<text transform="matrix(1 0 0 1 53.75 13.63)">4</text>
	<text transform="matrix(1 0 0 1 5.50 69.50)">5</text>
	<text transform="matrix(1 0 0 1 46.50 51.50)">6</text>
</g>
</svg>
