<?xml version="1.0" encoding="UTF-8"?>
<!--
Copyright (C) 2016 François Mizessyn.
This work makes an extensive use of kanjiVG Copyright (C) 2009/2010/2011 Ulrich Apel.
This work is distributed under the conditions of the Creative Commons
Attribution-Share Alike 3.0 Licence. This means you are free:
* to Share - to copy, distribute and transmit the work
* to Remix - to adapt the work

Under the following conditions:
* Attribution. You must attribute the work by stating your use of HanjiVG in
  your own copyright header and linking to HanjiVG's website
  (http://gooo.free.fr/hanziVG/)
* Attribution. You must attribute the work by stating your use of KanjiVG in
  your own copyright header and linking to KanjiVG's website
  (http://kanjivg.tagaini.net)
* Share Alike. If you alter, transform, or build upon this work, you may
  distribute the resulting work only under the same or similar license to this
  one.

See http://creativecommons.org/licenses/by-sa/3.0/ for more details.
-->
<!DOCTYPE svg PUBLIC "-//W3C//DTD SVG 1.0//EN" "http://www.w3.org/TR/2001/REC-SVG-20010904/DTD/svg10.dtd" [
<!ATTLIST g
xmlns:kvg CDATA #FIXED "http://kanjivg.tagaini.net"
kvg:element CDATA #IMPLIED
kvg:variant CDATA #IMPLIED
kvg:partial CDATA #IMPLIED
kvg:original CDATA #IMPLIED
kvg:part CDATA #IMPLIED
kvg:number CDATA #IMPLIED
kvg:tradForm CDATA #IMPLIED
kvg:radicalForm CDATA #IMPLIED
kvg:position CDATA #IMPLIED
kvg:radical CDATA #IMPLIED
kvg:phon CDATA #IMPLIED >
<!ATTLIST path
xmlns:kvg CDATA #FIXED "http://kanjivg.tagaini.net"
kvg:type CDATA #IMPLIED >
]>
<svg xmlns="http://www.w3.org/2000/svg" width="109" height="109" viewBox="0 0 109 109">
<g id="kvg:StrokePaths_06c64" style="fill:none;stroke:#000000;stroke-width:3;stroke-linecap:round;stroke-linejoin:round;">
<g id="kvg:06c64" kvg:element="汤">
	<g id="kvg:06c64-g1" kvg:element="氵" kvg:variant="true" kvg:original="水" kvg:position="left" kvg:radical="general">
		<path id="kvg:06c64-s1" kvg:type="㇔" d="M21.76,17.5c3.79,1.38,9.79,5.69,10.74,7.84"/>
		<path id="kvg:06c64-s2" kvg:type="㇔" d="M15.62,43.75C19.64,45.12,26,49.37,27,51.5"/>
		<path id="kvg:06c64-s3" kvg:type="㇀" d="M17.41,90.95c1.34,0.3,2.96,0.02,3.59-1.24c3.12-6.33,5.75-12.2,8.25-18.2"/>
	</g>
	<g id="kvg:06c64-g2" kvg:element="𠃓" kvg:position="right">
		<path id="kvg:06c64-s4" kvg:type="㇎" d="m47.13 21.76c2 0.78 4.13 0.66 6.2 0.43c8.67 -0.93 17.88 -3.21 26.45 -4.81c2.37 -0.45 5 -0.48 6.21 -0.19c0.17 1.73 -0.34 3.38 -1.29 4.89c-4.57 7.41 -12.45 15.65 -32.08 26.29c9.2 -0.66 30.8 -4.29 36.42 -4.93c4.32 -0.49 6.58 1.39 5.87 5.65c-1.75 10.81 -8.15 33.53 -17.7 45.18c-2.86 3.5 -4.49 -0.58 -7.05 -3.13"/>
		<g id="kvg:06c64-g3" kvg:element="丿">
			<path id="kvg:06c64-s5" kvg:type="㇒" d="m64.3 51.01c0.15 1.26 -0.11 2.1 -0.64 3.22c-3.45 7.13 -11.7 17.12 -23.3 26.75"/>
			<path id="kvg:06c64-s6" kvg:type="㇒" d="m80.11 48.83c0.13 1.16 -0.05 2.97 -0.57 4.62c-3.01 9.75 -15.62 27.79 -32.05 40.36"/>
		</g>
		<g id="kvg:06c64-g10" kvg:element="丿">
		</g>
	</g>
</g>
</g>
<g id="kvg:StrokeNumbers_06c64" style="font-size:8;fill:#808080">
	<text transform="matrix(1 0 0 1 13.50 18.50)">1</text>
	<text transform="matrix(1 0 0 1 8.25 45.13)">2</text>
	<text transform="matrix(1 0 0 1 8.50 94.50)">3</text>
	<text transform="matrix(1 0 0 1 38.75 18.50)">4</text>
	<text transform="matrix(1 0 0 1 50.50 61.50)">5</text>
	<text transform="matrix(1 0 0 1 66.46 61.63)">6</text>
</g>
</svg>
