<?xml version="1.0" encoding="UTF-8"?>
<!--
Copyright (C) 2016 François Mizessyn.
This work makes an extensive use of kanjiVG Copyright (C) 2009/2010/2011 Ulrich Apel.
This work is distributed under the conditions of the Creative Commons
Attribution-Share Alike 3.0 Licence. This means you are free:
* to Share - to copy, distribute and transmit the work
* to Remix - to adapt the work

Under the following conditions:
* Attribution. You must attribute the work by stating your use of HanjiVG in
  your own copyright header and linking to HanjiVG's website
  (http://gooo.free.fr/hanziVG/)
* Attribution. You must attribute the work by stating your use of KanjiVG in
  your own copyright header and linking to KanjiVG's website
  (http://kanjivg.tagaini.net)
* Share Alike. If you alter, transform, or build upon this work, you may
  distribute the resulting work only under the same or similar license to this
  one.

See http://creativecommons.org/licenses/by-sa/3.0/ for more details.
-->
<!DOCTYPE svg PUBLIC "-//W3C//DTD SVG 1.0//EN" "http://www.w3.org/TR/2001/REC-SVG-20010904/DTD/svg10.dtd" [
<!ATTLIST g
xmlns:kvg CDATA #FIXED "http://kanjivg.tagaini.net"
kvg:element CDATA #IMPLIED
kvg:variant CDATA #IMPLIED
kvg:partial CDATA #IMPLIED
kvg:original CDATA #IMPLIED
kvg:part CDATA #IMPLIED
kvg:number CDATA #IMPLIED
kvg:tradForm CDATA #IMPLIED
kvg:radicalForm CDATA #IMPLIED
kvg:position CDATA #IMPLIED
kvg:radical CDATA #IMPLIED
kvg:phon CDATA #IMPLIED >
<!ATTLIST path
xmlns:kvg CDATA #FIXED "http://kanjivg.tagaini.net"
kvg:type CDATA #IMPLIED >
]>
<svg xmlns="http://www.w3.org/2000/svg" width="109" height="109" viewBox="0 0 109 109">
<g id="kvg:StrokePaths_06d77" style="fill:none;stroke:#000000;stroke-width:3;stroke-linecap:round;stroke-linejoin:round;">
<g id="kvg:06d77" kvg:element="海">
	<g id="kvg:06d77-g1" kvg:element="氵" kvg:variant="true" kvg:original="水" kvg:position="left" kvg:radical="general">
		<path id="kvg:06d77-s1" kvg:type="㇔" d="M20.38,14.75c3.31,1.47,8.54,6.05,9.37,8.34"/>
		<path id="kvg:06d77-s2" kvg:type="㇔" d="M14.75,39.5c3.79,1.15,9.8,4.72,10.75,6.5"/>
		<path id="kvg:06d77-s3" kvg:type="㇀" d="M13.75,89.21C16,90,17.06,89.57,18,87.95c2.75-4.7,5.5-10.45,8-16.45"/>
	</g>
	<g id="kvg:06d77-g2" kvg:element="每" kvg:position="right">
		<g id="kvg:06d77-g3" kvg:position="top">
			<g id="kvg:06d77-g4" kvg:element="丿">
				<path id="kvg:06d77-s4" kvg:type="㇒" d="M53,11c0.12,1.68-0.19,3.03-0.83,4.57C49.7,21.44,43.05,31.26,37.75,37"/>
			</g>
			<path id="kvg:06d77-s5" kvg:type="㇐" d="M51.13,24.03c0.94,0.29,3.67,0.41,4.6,0.29c7.65-0.94,18.52-3.07,26.02-4.84c1.51-0.36,3.5-0.36,4.29-0.21"/>
		</g>
		<g id="kvg:06d77-g5" kvg:element="母" kvg:position="bottom" kvg:radical="general">
			<path id="kvg:06d77-s6" kvg:type="㇛" d="m52.95 34.87c0.93 0.91 1.67 3.97 1.16 6.3c-2.26 10.33 -8.2 25.83 -11.42 31.57c-1.69 2.99 -0.44 4.58 1.33 4.62c10.17 0.26 21.32 1.88 32.22 5.72c5.02 1.77 9.58 4.6 13.39 7.92"/>
			<path id="kvg:06d77-s7" kvg:type="㇆a" d="m55.25 37.32c7.78 -1.07 18.77 -2.57 24.27 -3.32c3.31 -0.45 5.41 2.01 5.19 5.12c-1.23 17.51 -4.09 42.51 -9.61 56.07c-2.53 6.22 -5.51 -1.15 -6.38 -2.27"/>
			<path id="kvg:06d77-s8" kvg:type="㇔" d="m64.1 42.33c2.25 1.37 5.82 5.65 6.39 7.78"/>
			<path id="kvg:06d77-s9" kvg:type="㇐" d="m33.88 59.14c1.77 0.48 5.04 0.42 6.81 0.26c15.19 -1.31 32.33 -2.91 50.01 -3.3c2.98 -0.07 4.74 0.22 6.21 0.46"/>
			<path id="kvg:06d77-s10" kvg:type="㇔" d="m60.7 64.33c2.25 1.37 5.82 5.65 6.39 7.78"/>
		</g>
	</g>
</g>
</g>
<g id="kvg:StrokeNumbers_06d77" style="font-size:8;fill:#808080">
	<text transform="matrix(1 0 0 1 12.75 16.63)">1</text>
	<text transform="matrix(1 0 0 1 6.75 40.63)">2</text>
	<text transform="matrix(1 0 0 1 6.75 94.63)">3</text>
	<text transform="matrix(1 0 0 1 42.75 12.13)">4</text>
	<text transform="matrix(1 0 0 1 54.75 21.13)">5</text>
	<text transform="matrix(1 0 0 1 42.25 40.13)">6</text>
	<text transform="matrix(1 0 0 1 53.25 34.63)">7</text>
	<text transform="matrix(1 0 0 1 57.25 47.63)">8</text>
	<text transform="matrix(1 0 0 1 31.75 56.63)">9</text>
	<text transform="matrix(1 0 0 1 47.75 70.63)">10</text>
</g>
</svg>
