<?xml version="1.0" encoding="UTF-8"?>
<!--
Copyright (C) 2009/2010/2011 Ulrich Apel.
Stroke order and glyph modified by François Mizessyn.
This work is distributed under the conditions of the Creative Commons
Attribution-Share Alike 3.0 Licence. This means you are free:
* to Share - to copy, distribute and transmit the work
* to Remix - to adapt the work

Under the following conditions:
* Attribution. You must attribute the work by stating your use of KanjiVG in
  your own copyright header and linking to KanjiVG's website
  (http://kanjivg.tagaini.net)
* Share Alike. If you alter, transform, or build upon this work, you may
  distribute the resulting work only under the same or similar license to this
  one.

See http://creativecommons.org/licenses/by-sa/3.0/ for more details.
-->
<!DOCTYPE svg PUBLIC "-//W3C//DTD SVG 1.0//EN" "http://www.w3.org/TR/2001/REC-SVG-20010904/DTD/svg10.dtd" [
<!ATTLIST g
xmlns:kvg CDATA #FIXED "http://kanjivg.tagaini.net"
kvg:element CDATA #IMPLIED
kvg:variant CDATA #IMPLIED
kvg:partial CDATA #IMPLIED
kvg:original CDATA #IMPLIED
kvg:part CDATA #IMPLIED
kvg:number CDATA #IMPLIED
kvg:tradForm CDATA #IMPLIED
kvg:radicalForm CDATA #IMPLIED
kvg:position CDATA #IMPLIED
kvg:radical CDATA #IMPLIED
kvg:phon CDATA #IMPLIED >
<!ATTLIST path
xmlns:kvg CDATA #FIXED "http://kanjivg.tagaini.net"
kvg:type CDATA #IMPLIED >
]>
<svg xmlns="http://www.w3.org/2000/svg" width="109" height="109" viewBox="0 0 109 109">
<g id="kvg:StrokePaths_06e05" style="fill:none;stroke:#000000;stroke-width:3;stroke-linecap:round;stroke-linejoin:round;">
<g id="kvg:06e05" kvg:element="清">
	<g id="kvg:06e05-g1" kvg:element="氵" kvg:variant="true" kvg:original="水" kvg:position="left" kvg:radical="general">
		<path id="kvg:06e05-s1" kvg:type="㇔" d="M21.38,14.75c3.66,1.6,9.45,6.6,10.37,9.09"/>
		<path id="kvg:06e05-s2" kvg:type="㇔" d="M14.25,39.5c3.79,1.15,9.8,4.72,10.75,6.5"/>
		<path id="kvg:06e05-s3" kvg:type="㇀" d="M13.1,89.3c1.17,0.34,2.3,0,3-1.15c2.97-4.9,5.95-10.9,8.65-17.15"/>
	</g>
	<g id="kvg:06e05-g2" kvg:element="青" kvg:position="right">
		<g id="kvg:06e05-g3" kvg:element="龶" kvg:position="top">
			<path id="kvg:06e05-s4" kvg:type="㇐" d="m45.69 22.35c2.01 0.76 5 0.43 7.07 0.22c8.16 -0.84 22.72 -2.24 30.06 -2.88c1.98 -0.17 4.21 -0.2 6.2 -0.06"/>
			<path id="kvg:06e05-s5" kvg:type="㇐" d="m46.86 33.57c2.3 0.64 4.88 0.12 7.2 -0.11c7.26 -0.73 18.21 -1.91 24.29 -2.45c2.03 -0.18 4.04 -0.34 6.08 -0.23"/>
			<path id="kvg:06e05-s6" kvg:type="㇑a" d="m64.78 11.88c1.07 1.02 1.65 2.74 1.65 3.93c0 5.93 -0.19 19.83 -0.12 27.16"/>
			<path id="kvg:06e05-s7" kvg:type="㇐" d="m38.97 45.39c3.11 0.6 6.22 0.51 9.31 0.14c12.99 -1.53 27.69 -2.91 39.77 -3.8c3.02 -0.22 5.24 -0.36 7.74 0.18"/>
		</g>
		<g id="kvg:06e05-g4" kvg:element="月" kvg:position="bottom">
			<path id="kvg:06e05-s8" kvg:type="㇑/㇒" d="m51.28 55.03c0.91 0.87 1.56 2.35 1.56 3.65c0 3.7 -0.14 21.37 -0.09 31.7c0.01 2.44 0.01 3.83 0.01 5.12"/>
			<path id="kvg:06e05-s9" kvg:type="㇆a" d="m53.36 55.83c5.04 -0.7 23.28 -2.69 25.21 -2.86c2.54 -0.22 3.8 1.28 3.8 2.86c0 3.42 0.24 24.24 0.14 35.35c-0.09 9.82 -4.92 2.42 -5.79 1.73"/>
			<path id="kvg:06e05-s10" kvg:type="㇐a" d="m53.88 66.61c8.72 -0.99 18.03 -1.36 27.5 -1.97"/>
			<path id="kvg:06e05-s11" kvg:type="㇐a" d="m54 77.99c7.28 -0.49 19.23 -1.24 27.2 -1.67"/>
		</g>
	</g>
</g>
</g>
<g id="kvg:StrokeNumbers_06e05" style="font-size:8;fill:#808080">
	<text transform="matrix(1 0 0 1 14.50 15.13)">1</text>
	<text transform="matrix(1 0 0 1 6.50 40.50)">2</text>
	<text transform="matrix(1 0 0 1 5.50 91.50)">3</text>
	<text transform="matrix(1 0 0 1 41.25 21.13)">4</text>
	<text transform="matrix(1 0 0 1 38.25 33.13)">5</text>
	<text transform="matrix(1 0 0 1 54.50 12.50)">6</text>
	<text transform="matrix(1 0 0 1 31.50 44.50)">7</text>
	<text transform="matrix(1 0 0 1 40.50 61.63)">8</text>
	<text transform="matrix(1 0 0 1 51.50 52.63)">9</text>
	<text transform="matrix(1 0 0 1 51.50 64.50)">10</text>
	<text transform="matrix(1 0 0 1 51.50 76.50)">11</text>
</g>
</svg>
