<?xml version="1.0" encoding="UTF-8"?>
<!--
Copyright (C) 2016 François Mizessyn.
This work makes an extensive use of kanjiVG Copyright (C) 2009/2010/2011 Ulrich Apel.
This work is distributed under the conditions of the Creative Commons
Attribution-Share Alike 3.0 Licence. This means you are free:
* to Share - to copy, distribute and transmit the work
* to Remix - to adapt the work

Under the following conditions:
* Attribution. You must attribute the work by stating your use of HanjiVG in
  your own copyright header and linking to HanjiVG's website
  (http://gooo.free.fr/hanziVG/)
* Attribution. You must attribute the work by stating your use of KanjiVG in
  your own copyright header and linking to KanjiVG's website
  (http://kanjivg.tagaini.net)
* Share Alike. If you alter, transform, or build upon this work, you may
  distribute the resulting work only under the same or similar license to this
  one.

See http://creativecommons.org/licenses/by-sa/3.0/ for more details.
-->
<!DOCTYPE svg PUBLIC "-//W3C//DTD SVG 1.0//EN" "http://www.w3.org/TR/2001/REC-SVG-20010904/DTD/svg10.dtd" [
<!ATTLIST g
xmlns:kvg CDATA #FIXED "http://kanjivg.tagaini.net"
kvg:element CDATA #IMPLIED
kvg:variant CDATA #IMPLIED
kvg:partial CDATA #IMPLIED
kvg:original CDATA #IMPLIED
kvg:part CDATA #IMPLIED
kvg:number CDATA #IMPLIED
kvg:tradForm CDATA #IMPLIED
kvg:radicalForm CDATA #IMPLIED
kvg:position CDATA #IMPLIED
kvg:radical CDATA #IMPLIED
kvg:phon CDATA #IMPLIED >
<!ATTLIST path
xmlns:kvg CDATA #FIXED "http://kanjivg.tagaini.net"
kvg:type CDATA #IMPLIED >
]>
<svg xmlns="http://www.w3.org/2000/svg" width="109" height="109" viewBox="0 0 109 109">
<g id="kvg:StrokePaths_06e34" style="fill:none;stroke:#000000;stroke-width:3;stroke-linecap:round;stroke-linejoin:round;">
<g id="kvg:06e34" kvg:element="渴">
	<g id="kvg:06e34-g1" kvg:element="氵" kvg:variant="true" kvg:original="水" kvg:position="left" kvg:radical="general">
		<path id="kvg:06e34-s1" kvg:type="㇔" d="M21.76,17.5c3.79,1.38,9.79,5.69,10.74,7.84"/>
		<path id="kvg:06e34-s2" kvg:type="㇔" d="M15.62,43.75C19.64,45.12,26,49.37,27,51.5"/>
		<path id="kvg:06e34-s3" kvg:type="㇀" d="M17.41,90.95c1.34,0.3,2.96,0.02,3.59-1.24c3.12-6.33,5.75-12.2,8.25-18.2"/>
	</g>
	<g id="kvg:06e34-g2" kvg:element="曷" kvg:position="right">
		<g id="kvg:06e34-g3" kvg:element="曰" kvg:position="top" kvg:radical="general">
			<path id="kvg:06e34-s4" kvg:type="㇑" d="m43.94 20.02c0.29 0.41 0.3 0.7 0.45 1.22c1.3 4.26 1.87 18.04 2.68 26"/>
			<path id="kvg:06e34-s5" kvg:type="㇕" d="m45.6 21.35c11.22 -0.84 27.47 -1.72 37.38 -2.05c2.8 -0.09 4.17 0.84 4.03 2.02c-0.52 4.3 -2.89 17.57 -5.34 24.7"/>
			<path id="kvg:06e34-s6" kvg:type="㇐" d="m46.18 32.88c3.98 -0.37 20.71 -1.25 27.15 -1.8c2.02 -0.12 3.43 0.17 3.94 0.14"/>
			<path id="kvg:06e34-s7" kvg:type="㇐" d="m47.25 45.57c8.1 -0.2 24.19 -1.07 34.41 -1.37"/>
		</g>
		<g id="kvg:06e34-g4" kvg:element="匃" kvg:position="bottom">
			<g id="kvg:06e34-g5" kvg:element="勹">
				<g id="kvg:06e34-g6" kvg:element="丿">
					<path id="kvg:06e34-s8" kvg:type="㇒" d="m56.35 45.15c0.27 0.7 0.07 1.62 -0.34 2.45c-2.76 5.68 -7.01 13.3 -15.26 21.2"/>
				</g>
				<path id="kvg:06e34-s9" kvg:type="㇆" d="m52.96 58.58c1.91 0.37 3.08 0.36 4.56 0.16c3.1 -0.41 20.46 -3.52 30.38 -4.04c3.59 -0.48 5.84 1.01 5.6 4.02c-0.48 5.9 -3.88 26.47 -12.32 36.68c-2.34 2.83 -5.34 1.27 -7.45 -0.85"/>
			</g>
			<g id="kvg:06e34-g7" kvg:element="人" kvg:radical="general">
				<path id="kvg:06e34-s10" kvg:type="㇒" d="m68.35 61c0.11 0.64 0.07 1.21 -0.07 1.88c-0.78 3.96 -4.81 13.79 -11.33 18.29"/>
				<path id="kvg:06e34-s11" kvg:type="㇏" d="m65.8 71.27c1.84 1.8 7.65 6.67 10.66 8.92c1.1 0.82 2.08 1.39 3.44 1.66"/>
			</g>
			<path id="kvg:06e34-s12" kvg:type="㇗" d="m46.5 69.63c0.5 0.63 0.75 0.88 0.75 2.13s0.33 14.92 0 16c-0.37 1.25 0.13 1.99 1.63 1.88c6.88 -0.5 16.5 -1.5 23.25 -1.62c1.38 -0.02 2.63 0 3.63 0.25"/>
		</g>
	</g>
</g>
</g>
<g id="kvg:StrokeNumbers_06e34" style="font-size:8;fill:#808080">
	<text transform="matrix(1 0 0 1 13.50 18.50)">1</text>
	<text transform="matrix(1 0 0 1 8.25 45.13)">2</text>
	<text transform="matrix(1 0 0 1 8.50 94.50)">3</text>
	<text transform="matrix(1 0 0 1 35.50 28.50)">4</text>
	<text transform="matrix(1 0 0 1 43.50 18.56)">5</text>
	<text transform="matrix(1 0 0 1 44.99 32.91)">6</text>
	<text transform="matrix(1 0 0 1 46.25 45.63)">7</text>
	<text transform="matrix(1 0 0 1 54.50 47.50)">8</text>
	<text transform="matrix(1 0 0 1 52.50 60.50)">9</text>
	<text transform="matrix(1 0 0 1 62.25 62.63)">10</text>
	<text transform="matrix(1 0 0 1 64.50 76.50)">11</text>
	<text transform="matrix(1 0 0 1 35.50 75.50)">12</text>
</g>
</svg>
