<?xml version="1.0" encoding="UTF-8"?>
<!--
Copyright (C) 2016 François Mizessyn.
This work makes an extensive use of kanjiVG Copyright (C) 2009/2010/2011 Ulrich Apel.
This work is distributed under the conditions of the Creative Commons
Attribution-Share Alike 3.0 Licence. This means you are free:
* to Share - to copy, distribute and transmit the work
* to Remix - to adapt the work

Under the following conditions:
* Attribution. You must attribute the work by stating your use of HanjiVG in
  your own copyright header and linking to HanjiVG's website
  (http://gooo.free.fr/hanziVG/)
* Attribution. You must attribute the work by stating your use of KanjiVG in
  your own copyright header and linking to KanjiVG's website
  (http://kanjivg.tagaini.net)
* Share Alike. If you alter, transform, or build upon this work, you may
  distribute the resulting work only under the same or similar license to this
  one.

See http://creativecommons.org/licenses/by-sa/3.0/ for more details.
-->
<!DOCTYPE svg PUBLIC "-//W3C//DTD SVG 1.0//EN" "http://www.w3.org/TR/2001/REC-SVG-20010904/DTD/svg10.dtd" [
<!ATTLIST g
xmlns:kvg CDATA #FIXED "http://kanjivg.tagaini.net"
kvg:element CDATA #IMPLIED
kvg:variant CDATA #IMPLIED
kvg:partial CDATA #IMPLIED
kvg:original CDATA #IMPLIED
kvg:part CDATA #IMPLIED
kvg:number CDATA #IMPLIED
kvg:tradForm CDATA #IMPLIED
kvg:radicalForm CDATA #IMPLIED
kvg:position CDATA #IMPLIED
kvg:radical CDATA #IMPLIED
kvg:phon CDATA #IMPLIED >
<!ATTLIST path
xmlns:kvg CDATA #FIXED "http://kanjivg.tagaini.net"
kvg:type CDATA #IMPLIED >
]>
<svg xmlns="http://www.w3.org/2000/svg" width="109" height="109" viewBox="0 0 109 109">
<g id="kvg:StrokePaths_06ee1" style="fill:none;stroke:#000000;stroke-width:3;stroke-linecap:round;stroke-linejoin:round;">
<g id="kvg:06ee1" kvg:element="满">
	<g id="kvg:06ee1-g1" kvg:element="氵" kvg:variant="true" kvg:original="水" kvg:position="left" kvg:radical="tradit">
		<path id="kvg:06ee1-s1" kvg:type="㇔" d="M18.38,14.75c4.19,1.65,10.82,6.78,11.87,9.34"/>
		<path id="kvg:06ee1-s2" kvg:type="㇔" d="M14,42.5c4.77,1.85,12.31,7.62,13.5,10.5"/>
		<path id="kvg:06ee1-s3" kvg:type="㇀" d="M14.75,90.68c1.65,1.34,4.14,0.9,5.18-0.76c3.03-4.84,5.56-10.25,8.32-16.42"/>
	</g>
	<g id="kvg:06ee1-g2" kvg:position="right">
		<g id="kvg:06ee1-g3" kvg:element="艹" kvg:variant="true" kvg:original="艸" kvg:position="top" kvg:radical="general">
			<path id="kvg:06ee1-s4" kvg:type="㇐" d="m37.44 24.27c1.13 0.53 2.45 0.56 3.59 0.53c10.41 -0.3 39.73 -2.46 51.73 -2.53c1.89 -0.01 3.03 0.25 3.96 0.51"/>
			<path id="kvg:06ee1-s5" kvg:type="㇑a" d="m52.31 14.25c1.31 1.25 1.74 1.63 1.88 2.4c1.31 7.19 1.25 13.74 1.63 16.35"/>
			<path id="kvg:06ee1-s6" kvg:type="㇑a" d="m77.9 12.25c0.98 1 1.2 2.52 0.88 4c-0.98 4.5 -2.09 7.5 -3.5 13.25"/>
		</g>
		<g id="kvg:06ee1-g4" kvg:element="两">
			<g id="kvg:06ee1-g5" kvg:element="一" kvg:radical="general">
				<path id="kvg:06ee1-s7" kvg:type="㇐" d="m37.12 40.14c2.66 0.89 6.01 0.59 8.75 0.32c9.37 -0.94 30.77 -2.87 41.89 -3.2c2.49 -0.07 5.01 0.04 7.46 0.55"/>
			</g>
			<g id="kvg:06ee1-g6" kvg:element="冂">
				<path id="kvg:06ee1-s8" kvg:type="㇑" d="m37.7 57.62c0.5 0.64 0.94 1.98 1.01 3.14c0.27 4.25 0.77 20.45 1.01 29.18c0.08 2.99 0.13 5.11 0.13 5.56"/>
				<path id="kvg:06ee1-s9" kvg:type="㇆a" d="m39.14 59.42c15.15 -1.23 38.95 -4.47 50.5 -5.19c2.81 -0.22 4.47 1.52 4.34 5.56c-0.3 9.29 -2.14 24.81 -4.22 32.85c-1.56 6.04 -3.35 3.25 -5.23 0.25"/>
			</g>
			<g id="kvg:06ee1-g7" kvg:element="从">
				<g id="kvg:06ee1-g8" kvg:element="人" kvg:position="left" kvg:radical="general">
					<path id="kvg:06ee1-s10" kvg:type="㇒" d="m57.14 40.36c0.28 0.74 0.22 2.22 0.19 3.71c-0.19 12.09 -3.27 34.4 -11.13 45.03"/>
					<path id="kvg:06ee1-s11" kvg:type="㇏" d="m55.82 63.74c3.42 2.33 7.78 8.51 9.44 14.38"/>
				</g>
				<g id="kvg:06ee1-g9" kvg:element="人" kvg:position="right" kvg:radical="general">
					<path id="kvg:06ee1-s12" kvg:type="㇒" d="m78.84 38.74c0.28 0.74 0.22 2.22 0.19 3.71c-0.19 12.09 -3.27 34.4 -11.13 45.03"/>
					<path id="kvg:06ee1-s13" kvg:type="㇏" d="m76.12 67.44c3.42 2.33 7.78 8.51 9.44 14.38"/>
				</g>
			</g>
		</g>
	</g>
</g>
</g>
<g id="kvg:StrokeNumbers_06ee1" style="font-size:8;fill:#808080">
	<text transform="matrix(1 0 0 1 11.50 14.50)">1</text>
	<text transform="matrix(1 0 0 1 6.50 42.50)">2</text>
	<text transform="matrix(1 0 0 1 7.50 92.50)">3</text>
	<text transform="matrix(1 0 0 1 31.50 21.50)">4</text>
	<text transform="matrix(1 0 0 1 43.50 12.50)">5</text>
	<text transform="matrix(1 0 0 1 67.50 12.50)">6</text>
	<text transform="matrix(1 0 0 1 28.75 42.93)">7</text>
	<text transform="matrix(1 0 0 1 27.50 64.50)">8</text>
	<text transform="matrix(1 0 0 1 38.50 56.50)">9</text>
	<text transform="matrix(1 0 0 1 57.50 52.50)">10</text>
	<text transform="matrix(1 0 0 1 54.50 71.50)">11</text>
	<text transform="matrix(1 0 0 1 78.50 51.50)">12</text>
	<text transform="matrix(1 0 0 1 74.50 71.50)">13</text>
</g>
</svg>
