<?xml version="1.0" encoding="UTF-8"?>
<!--
Copyright (C) 2016 François Mizessyn.
This work makes an extensive use of kanjiVG Copyright (C) 2009/2010/2011 Ulrich Apel.
This work is distributed under the conditions of the Creative Commons
Attribution-Share Alike 3.0 Licence. This means you are free:
* to Share - to copy, distribute and transmit the work
* to Remix - to adapt the work

Under the following conditions:
* Attribution. You must attribute the work by stating your use of HanjiVG in
  your own copyright header and linking to HanjiVG's website
  (http://gooo.free.fr/hanziVG/)
* Attribution. You must attribute the work by stating your use of KanjiVG in
  your own copyright header and linking to KanjiVG's website
  (http://kanjivg.tagaini.net)
* Share Alike. If you alter, transform, or build upon this work, you may
  distribute the resulting work only under the same or similar license to this
  one.

See http://creativecommons.org/licenses/by-sa/3.0/ for more details.
-->
<!DOCTYPE svg PUBLIC "-//W3C//DTD SVG 1.0//EN" "http://www.w3.org/TR/2001/REC-SVG-20010904/DTD/svg10.dtd" [
<!ATTLIST g
xmlns:kvg CDATA #FIXED "http://kanjivg.tagaini.net"
kvg:element CDATA #IMPLIED
kvg:variant CDATA #IMPLIED
kvg:partial CDATA #IMPLIED
kvg:original CDATA #IMPLIED
kvg:part CDATA #IMPLIED
kvg:number CDATA #IMPLIED
kvg:tradForm CDATA #IMPLIED
kvg:radicalForm CDATA #IMPLIED
kvg:position CDATA #IMPLIED
kvg:radical CDATA #IMPLIED
kvg:phon CDATA #IMPLIED >
<!ATTLIST path
xmlns:kvg CDATA #FIXED "http://kanjivg.tagaini.net"
kvg:type CDATA #IMPLIED >
]>
<svg xmlns="http://www.w3.org/2000/svg" width="109" height="109" viewBox="0 0 109 109">
<g id="kvg:StrokePaths_070bc" style="fill:none;stroke:#000000;stroke-width:3;stroke-linecap:round;stroke-linejoin:round;">
<g id="kvg:070bc" kvg:element="炼">
	<g id="kvg:070bc-g1" kvg:element="火" kvg:position="left" kvg:radical="tradit">
		<path id="kvg:070bc-s1" kvg:type="㇔" d="m14.01 32c1.35 3.57 3.31 13.68 3.67 17.25"/>
		<path id="kvg:070bc-s2" kvg:type="㇒" d="m40.22 26.75c0.42 1.25 0.54 2.28 -0.07 3.47c-0.61 1.19 -6.4 10 -9.43 12.78"/>
		<path id="kvg:070bc-s3" kvg:type="㇒" d="m26.91 11.25c0.73 0.81 1.44 2.4 1.45 3.75c0.21 55.81 -1.68 67.25 -15.43 80.5"/>
		<path id="kvg:070bc-s4" kvg:type="㇔/㇏" d="m29.7 72c4.69 2.82 10.59 11.75 11.83 15.75"/>
	</g>
	<g id="kvg:070bc-g2" kvg:position="right">
		<path id="kvg:070bc-s5" kvg:type="㇐" d="m46.91 31.1c2.16 0.89 4.23 0.85 6.44 0.64c10.1 -0.95 22.64 -2.99 33.53 -3.6c2 -0.11 3.95 -0.09 5.9 0.69"/>
		<path id="kvg:070bc-s6" kvg:type="㇜" d="m70.6 17.92c0.56 0.5 1.26 2.39 -20 43.05c11.81 -1 26.48 -3.15 35.77 -3.79c2.22 -0.11 4.39 -0.09 5.86 0.43"/>
		<path id="kvg:070bc-s7" kvg:type="㇆" d="m46.43 45.99c2.27 0.71 3.87 0.91 5.87 0.52c4.44 -0.87 14.12 -3.02 17.66 -3.9c2.92 -0.71 4.75 0.85 4.75 4.97c0 8.66 -0.12 34.71 -0.12 43.42c0 9.67 -6.06 1.46 -6.78 0.83"/>
		<path id="kvg:070bc-s8" kvg:type="㇒" d="m58.76 70.82c0.02 0.43 0.06 1.12 -0.05 1.74c-0.63 3.66 -4.22 11.7 -13.96 20.62"/>
		<path id="kvg:070bc-s9" kvg:type="㇔" d="m82.78 70.21c3.5 2.74 9.02 11.27 14.02 20.54"/>
	</g>
</g>
</g>
<g id="kvg:StrokeNumbers_070bc" style="font-size:8;fill:#808080">
	<text transform="matrix(1 0 0 1 4.50 33.50)">1</text>
	<text transform="matrix(1 0 0 1 34.50 25.50)">2</text>
	<text transform="matrix(1 0 0 1 15.50 14.50)">3</text>
	<text transform="matrix(1 0 0 1 28.50 71.50)">4</text>
	<text transform="matrix(1 0 0 1 45.50 28.50)">5</text>
	<text transform="matrix(1 0 0 1 60.50 16.50)">6</text>
	<text transform="matrix(1 0 0 1 46.07 44.13)">7</text>
	<text transform="matrix(1 0 0 1 49.25 76.50)">8</text>
	<text transform="matrix(1 0 0 1 86.25 71.50)">9</text>
</g>
</svg>
