<?xml version="1.0" encoding="UTF-8"?>
<!--
Copyright (C) 2016 François Mizessyn.
This work makes an extensive use of kanjiVG Copyright (C) 2009/2010/2011 Ulrich Apel.
This work is distributed under the conditions of the Creative Commons
Attribution-Share Alike 3.0 Licence. This means you are free:
* to Share - to copy, distribute and transmit the work
* to Remix - to adapt the work

Under the following conditions:
* Attribution. You must attribute the work by stating your use of HanjiVG in
  your own copyright header and linking to HanjiVG's website
  (http://gooo.free.fr/hanziVG/)
* Attribution. You must attribute the work by stating your use of KanjiVG in
  your own copyright header and linking to KanjiVG's website
  (http://kanjivg.tagaini.net)
* Share Alike. If you alter, transform, or build upon this work, you may
  distribute the resulting work only under the same or similar license to this
  one.

See http://creativecommons.org/licenses/by-sa/3.0/ for more details.
-->
<!DOCTYPE svg PUBLIC "-//W3C//DTD SVG 1.0//EN" "http://www.w3.org/TR/2001/REC-SVG-20010904/DTD/svg10.dtd" [
<!ATTLIST g
xmlns:kvg CDATA #FIXED "http://kanjivg.tagaini.net"
kvg:element CDATA #IMPLIED
kvg:variant CDATA #IMPLIED
kvg:partial CDATA #IMPLIED
kvg:original CDATA #IMPLIED
kvg:part CDATA #IMPLIED
kvg:number CDATA #IMPLIED
kvg:tradForm CDATA #IMPLIED
kvg:radicalForm CDATA #IMPLIED
kvg:position CDATA #IMPLIED
kvg:radical CDATA #IMPLIED
kvg:phon CDATA #IMPLIED >
<!ATTLIST path
xmlns:kvg CDATA #FIXED "http://kanjivg.tagaini.net"
kvg:type CDATA #IMPLIED >
]>
<svg xmlns="http://www.w3.org/2000/svg" width="109" height="109" viewBox="0 0 109 109">
<g id="kvg:StrokePaths_08111" style="fill:none;stroke:#000000;stroke-width:3;stroke-linecap:round;stroke-linejoin:round;">
<g id="kvg:08111-g1" kvg:element="热" kvg:position="top" kvg:phon="热">
	<g id="kvg:08111-g2" kvg:element="扌" kvg:variant="true" kvg:original="手" kvg:position="left">
		<path id="kvg:08111-s1" kvg:type="㇐" d="M15,27.66c2.22,0.14,1.33,0.14,3.73,0.14c4.54,0,18.66-1.82,28.43-2.9"/>
		<path id="kvg:08111-s2" kvg:type="㇚" d="M31.16,11.33c0.46,0.73,1.59,1.97,1.67,4.37c0.38,11.53-0.24,39.09-0.24,53.02c0,10.13-5.89,1.98-7.32,0.99"/>
		<path id="kvg:08111-s3" kvg:type="㇀" d="M13.5,50.93c1.49,0.73,2.48,1.11,4.71,0.36c1.74-0.58,18.13-7.31,25.29-10.48"/>
	</g>
	<g id="kvg:08111-g3" kvg:element="丸" kvg:position="right">
		<g id="kvg:08111-g4" kvg:element="九">
			<path id="kvg:08111-s4" kvg:type="㇒" d="M66.91,13.54c0.58,0.59,0.92,2.05,0.92,3.04C67.75,43.5,60.75,65,44.74,76.3"/>
			<g id="kvg:08111-g5" kvg:element="乙">
				<path id="kvg:08111-s5" kvg:type="㇈" d="M53.26,36.42c1.86,0.21,3.9-0.03,4.79-0.25c2.7-0.67,17.07-5.92,19.96-7c1.96-0.73,3.36,0.79,3.04,3.27c-0.56,4.31-1.78,14.16-2.85,22.44C76.5,68,78,70.13,85.63,70.13c8.49,0,9.12-1.51,9.12-7.38"/>
			</g>
		</g>
		<g id="kvg:08111-g6" kvg:element="丶">
			<path id="kvg:08111-s6" kvg:type="㇔" d="M54.88,49.38c5.77,1.83,14.9,7.51,16.34,10.35"/>
		</g>
	</g>
	<g id="kvg:08111-g7" kvg:element="灬" kvg:variant="true" kvg:original="火" kvg:position="bottom" kvg:radical="general">
		<path id="kvg:08111-s7" kvg:type="㇔" d="M20.38,83.12c0,5.11-5.25,12.66-6.62,14.12"/>
		<path id="kvg:08111-s8" kvg:type="㇔" d="M37.5,83.75c2.93,2.26,5.72,8.46,6.45,11.97"/>
		<path id="kvg:08111-s9" kvg:type="㇔" d="M57.87,82.08c3.42,2.32,8.83,9.53,9.68,13.13"/>
		<path id="kvg:08111-s10" kvg:type="㇔" d="M81.27,81.83c4.16,2.63,10.75,10.8,11.79,14.88"/>
	</g>
</g>
</g>
<g id="kvg:StrokeNumbers_08111" style="font-size:8;fill:#808080">
	<text transform="matrix(1 0 0 1 23.50 14.50)">1</text>
	<text transform="matrix(1 0 0 1 6.75 24.50)">2</text>
	<text transform="matrix(1 0 0 1 8.25 48.50)">3</text>
	<text transform="matrix(1 0 0 1 56.50 14.50)">4</text>
	<text transform="matrix(1 0 0 1 51.50 33.50)">5</text>
	<text transform="matrix(1 0 0 1 50.50 47.98)">6</text>
	<text transform="matrix(1 0 0 1 10.50 86.50)">7</text>
	<text transform="matrix(1 0 0 1 28.50 88.25)">8</text>
	<text transform="matrix(1 0 0 1 48.50 88.25)">9</text>
	<text transform="matrix(1 0 0 1 65.50 87.50)">10</text>
</g>
</svg>
