<?xml version="1.0" encoding="UTF-8"?>
<!--
Copyright (C) 2016 François Mizessyn.
This work makes an extensive use of kanjiVG Copyright (C) 2009/2010/2011 Ulrich Apel.
This work is distributed under the conditions of the Creative Commons
Attribution-Share Alike 3.0 Licence. This means you are free:
* to Share - to copy, distribute and transmit the work
* to Remix - to adapt the work

Under the following conditions:
* Attribution. You must attribute the work by stating your use of HanjiVG in
  your own copyright header and linking to HanjiVG's website
  (http://gooo.free.fr/hanziVG/)
* Attribution. You must attribute the work by stating your use of KanjiVG in
  your own copyright header and linking to KanjiVG's website
  (http://kanjivg.tagaini.net)
* Share Alike. If you alter, transform, or build upon this work, you may
  distribute the resulting work only under the same or similar license to this
  one.

See http://creativecommons.org/licenses/by-sa/3.0/ for more details.
-->
<!DOCTYPE svg PUBLIC "-//W3C//DTD SVG 1.0//EN" "http://www.w3.org/TR/2001/REC-SVG-20010904/DTD/svg10.dtd" [
<!ATTLIST g
xmlns:kvg CDATA #FIXED "http://kanjivg.tagaini.net"
kvg:element CDATA #IMPLIED
kvg:variant CDATA #IMPLIED
kvg:partial CDATA #IMPLIED
kvg:original CDATA #IMPLIED
kvg:part CDATA #IMPLIED
kvg:number CDATA #IMPLIED
kvg:tradForm CDATA #IMPLIED
kvg:radicalForm CDATA #IMPLIED
kvg:position CDATA #IMPLIED
kvg:radical CDATA #IMPLIED
kvg:phon CDATA #IMPLIED >
<!ATTLIST path
xmlns:kvg CDATA #FIXED "http://kanjivg.tagaini.net"
kvg:type CDATA #IMPLIED >
]>
<svg xmlns="http://www.w3.org/2000/svg" width="109" height="109" viewBox="0 0 109 109">
<g id="kvg:StrokePaths_07223" style="fill:none;stroke:#000000;stroke-width:3;stroke-linecap:round;stroke-linejoin:round;">
<g id="kvg:07223" kvg:element="爱">
	<g id="kvg:07223-g1" kvg:element="⺤" kvg:variant="true" kvg:original="爪" kvg:position="top" kvg:radical="nelson">
		<path id="kvg:07223-s1" kvg:type="㇒" d="M69.38,8.75c-0.21,0.82-0.79,1.64-1.47,2.17c-3.13,2.42-12.8,6.29-33.36,8.97"/>
		<path id="kvg:07223-s2" kvg:type="㇔" d="M32.12,26.38c3.07,1.58,7.54,5.46,8.31,7.92"/>
		<path id="kvg:07223-s3" kvg:type="㇔" d="M48.17,25.31c2.68,1.28,6.93,5.28,7.6,7.28"/>
		<path id="kvg:07223-s4" kvg:type="㇒" d="M75.86,21.37c0.12,0.96-0.09,1.34-0.68,2.14c-2.05,2.78-6.53,6.83-12.91,10.99"/>
	</g>
	<g id="kvg:07223-g2" kvg:position="bottom">
		<g id="kvg:07223-g3" kvg:element="冖">
			<path id="kvg:07223-s5" kvg:type="㇔" d="M17.99,41.24c-0.1,3.62-1.86,11.86-2.72,14.08"/>
			<path id="kvg:07223-s6" kvg:type="㇖b" d="M18.36,42.68c18.14-1.93,48.77-6.31,68.68-7.1c13.73-0.55,3.22,6.92-0.68,9.26"/>
		</g>
		<g id="kvg:07223-g4" kvg:element="友">
			<path id="kvg:07223-s7" kvg:type="㇐" d="M23.88,56.98c1.52,0.54,4.3,0.63,5.82,0.54c15.8-0.91,37.05-3.52,48.11-3.73c2.53-0.03,4.05,0.26,5.31,0.53"/>
			<path id="kvg:07223-s8" kvg:type="㇒" d="M46.72,44.64c0.28,0.86,0.53,1.78,0.33,3.34C45.65,59.03,37,79.75,17.75,90.5"/>
			<g id="kvg:07223-g5" kvg:element="又">
				<path id="kvg:07223-s9" kvg:type="㇇" d="M42.85,67.86c0.34,0.04,2.7-0.04,3.67-0.11c4.38-0.3,14.72-2.82,19.3-3.88c3.15-0.73,3.54,1.33,2.74,3.3C64.16,77.99,42.14,96.43,22.5,102"/>
				<path id="kvg:07223-s10" kvg:type="㇏" d="M37.75,72.5c4.5,0.75,26.43,19.27,35.75,23c6.25,2.5,11.95,3.63,14.25,4"/>
			</g>
		</g>
	</g>
</g>
</g>
<g id="kvg:StrokeNumbers_07223" style="font-size:8;fill:#808080">
	<text transform="matrix(1 0 0 1 70.50 12.50)">1</text>
	<text transform="matrix(1 0 0 1 23.50 29.50)">2</text>
	<text transform="matrix(1 0 0 1 38.75 29.50)">3</text>
	<text transform="matrix(1 0 0 1 65.50 22.63)">4</text>
	<text transform="matrix(1 0 0 1 7.25 45.50)">5</text>
	<text transform="matrix(1 0 0 1 15.50 39.13)">6</text>
	<text transform="matrix(1 0 0 1 17.50 57.25)">7</text>
	<text transform="matrix(1 0 0 1 37.25 51.18)">8</text>
	<text transform="matrix(1 0 0 1 48.50 64.50)">9</text>
	<text transform="matrix(1 0 0 1 46.50 77.50)">10</text>
</g>
</svg>
