<?xml version="1.0" encoding="UTF-8"?>
<!--
Copyright (C) 2016 François Mizessyn.
This work makes an extensive use of kanjiVG Copyright (C) 2009/2010/2011 Ulrich Apel.
This work is distributed under the conditions of the Creative Commons
Attribution-Share Alike 3.0 Licence. This means you are free:
* to Share - to copy, distribute and transmit the work
* to Remix - to adapt the work

Under the following conditions:
* Attribution. You must attribute the work by stating your use of HanjiVG in
  your own copyright header and linking to HanjiVG's website
  (http://gooo.free.fr/hanziVG/)
* Attribution. You must attribute the work by stating your use of KanjiVG in
  your own copyright header and linking to KanjiVG's website
  (http://kanjivg.tagaini.net)
* Share Alike. If you alter, transform, or build upon this work, you may
  distribute the resulting work only under the same or similar license to this
  one.

See http://creativecommons.org/licenses/by-sa/3.0/ for more details.
-->
<!DOCTYPE svg PUBLIC "-//W3C//DTD SVG 1.0//EN" "http://www.w3.org/TR/2001/REC-SVG-20010904/DTD/svg10.dtd" [
<!ATTLIST g
xmlns:kvg CDATA #FIXED "http://kanjivg.tagaini.net"
kvg:element CDATA #IMPLIED
kvg:variant CDATA #IMPLIED
kvg:partial CDATA #IMPLIED
kvg:original CDATA #IMPLIED
kvg:part CDATA #IMPLIED
kvg:number CDATA #IMPLIED
kvg:tradForm CDATA #IMPLIED
kvg:radicalForm CDATA #IMPLIED
kvg:position CDATA #IMPLIED
kvg:radical CDATA #IMPLIED
kvg:phon CDATA #IMPLIED >
<!ATTLIST path
xmlns:kvg CDATA #FIXED "http://kanjivg.tagaini.net"
kvg:type CDATA #IMPLIED >
]>
<svg xmlns="http://www.w3.org/2000/svg" width="109" height="109" viewBox="0 0 109 109">
<g id="kvg:StrokePaths_07238" style="fill:none;stroke:#000000;stroke-width:3;stroke-linecap:round;stroke-linejoin:round;">
<g id="kvg:07238" kvg:element="爸">
	<g id="kvg:07238-g1" kvg:element="父" kvg:position="top" kvg:radical="nelson">
		<g id="kvg:07238-g2" kvg:position="top">
			<path id="kvg:07238-s1" kvg:type="㇒" d="m35.34 11.86c0.43 0.75 0.08 1.56 -0.65 2.25c-6.49 6.21 -12.74 9.03 -21.07 12.53"/>
			<path id="kvg:07238-s2" kvg:type="㇔" d="m69.32 12.53c7.98 2.16 15.72 5.23 20.77 8.37"/>
		</g>
		<g id="kvg:07238-g3" kvg:position="bottom">
			<path id="kvg:07238-s3" kvg:type="㇒" d="m67.47 23.43c0.61 0.85 0.34 2.05 -0.46 3.2c-7.31 10.4 -21.21 18.71 -48.71 24.11"/>
			<path id="kvg:07238-s4" kvg:type="㇏" d="m30.68 27.38c5.31 0 31.9 13.71 50.59 19.99c3.89 1.31 8.13 2.46 12.66 3.11"/>
		</g>
	</g>
	<g id="kvg:07238-g4" kvg:element="巴" kvg:position="bottom">
		<g id="kvg:07238-g5" kvg:element="己" kvg:part="1" kvg:original="巳">
			<path id="kvg:07238-s5" kvg:type="㇕c" d="M30.12,55.07c15.95-1.9,39.01-3.15,48.85-3.83c3.59-0.25,4.43,2.27,4.22,3.8c-0.81,5.8-1.98,10.71-3.6,14.97"/>
			<path id="kvg:07238-s6" kvg:type="㇑a" d="M53.66,53.67c0.78,0.38,1.55,2.85,1.55,3.62c0,4.82-0.26,8.47-0.26,11.39"/>
		</g>
		<g id="kvg:07238-g6" kvg:element="己" kvg:part="2" kvg:original="巳">
			<path id="kvg:07238-s7" kvg:type="㇐c" d="M31.43,70.6c5.36-0.43,41.51-2.13,47.64-2.56"/>
			<path id="kvg:07238-s8" kvg:type="㇟" d="M28.5,52.7c0.85,1.15,1.52,2.51,1.57,4.29c0.23,7.93-0.43,14.66-0.43,20.01c0,18.33-0.77,19,32.15,19c37.1,0,30.03-8.03,30.32-11.42"/>
		</g>
	</g>
</g>
</g>
<g id="kvg:StrokeNumbers_07238" style="font-size:8;fill:#808080">
	<text transform="matrix(1 0 0 1 33.50 11.50)">1</text>
	<text transform="matrix(1 0 0 1 71.50 11.50)">2</text>
	<text transform="matrix(1 0 0 1 57.50 23.50)">3</text>
	<text transform="matrix(1 0 0 1 34.50 26.50)">4</text>
	<text transform="matrix(1 0 0 1 34.50 50.50)">5</text>
	<text transform="matrix(1 0 0 1 50.50 48.50)">6</text>
	<text transform="matrix(1 0 0 1 34.25 66.50)">7</text>
	<text transform="matrix(1 0 0 1 19.50 62.50)">8</text>
</g>
</svg>
