<?xml version="1.0" encoding="UTF-8"?>
<!--
Copyright (C) 2016 François Mizessyn.
This work makes an extensive use of kanjiVG Copyright (C) 2009/2010/2011 Ulrich Apel.
This work is distributed under the conditions of the Creative Commons
Attribution-Share Alike 3.0 Licence. This means you are free:
* to Share - to copy, distribute and transmit the work
* to Remix - to adapt the work

Under the following conditions:
* Attribution. You must attribute the work by stating your use of HanjiVG in
  your own copyright header and linking to HanjiVG's website
  (http://gooo.free.fr/hanziVG/)
* Attribution. You must attribute the work by stating your use of KanjiVG in
  your own copyright header and linking to KanjiVG's website
  (http://kanjivg.tagaini.net)
* Share Alike. If you alter, transform, or build upon this work, you may
  distribute the resulting work only under the same or similar license to this
  one.

See http://creativecommons.org/licenses/by-sa/3.0/ for more details.
-->
<!DOCTYPE svg PUBLIC "-//W3C//DTD SVG 1.0//EN" "http://www.w3.org/TR/2001/REC-SVG-20010904/DTD/svg10.dtd" [
<!ATTLIST g
xmlns:kvg CDATA #FIXED "http://kanjivg.tagaini.net"
kvg:element CDATA #IMPLIED
kvg:variant CDATA #IMPLIED
kvg:partial CDATA #IMPLIED
kvg:original CDATA #IMPLIED
kvg:part CDATA #IMPLIED
kvg:number CDATA #IMPLIED
kvg:tradForm CDATA #IMPLIED
kvg:radicalForm CDATA #IMPLIED
kvg:position CDATA #IMPLIED
kvg:radical CDATA #IMPLIED
kvg:phon CDATA #IMPLIED >
<!ATTLIST path
xmlns:kvg CDATA #FIXED "http://kanjivg.tagaini.net"
kvg:type CDATA #IMPLIED >
]>
<svg xmlns="http://www.w3.org/2000/svg" width="109" height="109" viewBox="0 0 109 109">
<g id="kvg:StrokePaths_0739b" style="fill:none;stroke:#000000;stroke-width:3;stroke-linecap:round;stroke-linejoin:round;">
<g id="kvg:0739b" kvg:element="玛">
	<g id="kvg:0739b-g1" kvg:element="王" kvg:original="玉" kvg:partial="true" kvg:position="left" kvg:radical="general">
		<path id="kvg:0739b-s1" kvg:type="㇐" d="M11.1,21.75c0.67,0.37,3.8,0.42,4.49,0.34c7.66-0.84,15.98-1.59,23.56-2.14c1.03-0.07,2.95-0.26,3.8,0.04"/>
		<path id="kvg:0739b-s2" kvg:type="㇐" d="M12.52,50c0.59,0.4,4.75,0.46,5.36,0.37c3.47-0.53,13.78-2.12,18.58-2.69c0.74-0.09,3.44-0.16,4.54,0.19"/>
		<path id="kvg:0739b-s3" kvg:type="㇑a" d="M26.05,24.02c0.93,0.88,1.58,2.78,1.58,3.48c0,5.95,0.05,47.12-0.13,51.07"/>
		<path id="kvg:0739b-s4" kvg:type="㇐" d="M11.75,85.25c1.25,1,3.9,1,4.74,0.5c6.76-4,15.26-9.5,24.17-15.5"/>
	</g>
	<g id="kvg:0739b-g2" kvg:element="马" kvg:position="right">
		<path kvg:type="㇕" id="kvg:0739b-s5" d="M50.94 18.6C52.53 18.48 76.3 14.4 77.85 14.4C80.14 14.4 81.27 16.38 81.06 18.33C80.93 19.51 79.34 27.62 77.65 41.38"/>
		<path kvg:type="㇉" id="kvg:0739b-s6" d="M52.56 18.98C52.89 19.42 53.25 21.74 53.25 22.47C53.22 29.8 53.12 59.02 52.86 57.08C63.36 55.15 85.58 52.34 91.4 51.75C95.18 51.37 96.81 52.7 96.41 57.04C94.99 72.29 91.94 83.51 89.57 89.56C85.46 100.06 83.69 96.13 79.87 90.03"/>
		<path kvg:type="㇐b" id="kvg:0739b-s7" d="M52.23 73.86C60.52 72.96 79.89 70.31 83.45 69.75C84.69 69.57 86.8 69.39 87.43 69.64"/>
	</g>
</g>
</g>
<g id="kvg:StrokeNumbers_0739b" style="font-size:8;fill:#808080">
	<text transform="matrix(1 0 0 1 6.50 18.85)">1</text>
	<text transform="matrix(1 0 0 1 6.50 47.50)">2</text>
	<text transform="matrix(1 0 0 1 16.50 36.50)">3</text>
	<text transform="matrix(1 0 0 1 5.54 82.50)">4</text>
	<text transform="matrix(1 0 0 1 50.50 15.50)">5</text>
	<text transform="matrix(1 0 0 1 42.50 31.50)">6</text>
	<text transform="matrix(1 0 0 1 46.50 70.95)">7</text>
</g>
</svg>
