<?xml version="1.0" encoding="UTF-8"?>
<!--
Copyright (C) 2016 François Mizessyn.
This work makes an extensive use of kanjiVG Copyright (C) 2009/2010/2011 Ulrich Apel.
This work is distributed under the conditions of the Creative Commons
Attribution-Share Alike 3.0 Licence. This means you are free:
* to Share - to copy, distribute and transmit the work
* to Remix - to adapt the work

Under the following conditions:
* Attribution. You must attribute the work by stating your use of HanjiVG in
  your own copyright header and linking to HanjiVG's website
  (http://gooo.free.fr/hanziVG/)
* Attribution. You must attribute the work by stating your use of KanjiVG in
  your own copyright header and linking to KanjiVG's website
  (http://kanjivg.tagaini.net)
* Share Alike. If you alter, transform, or build upon this work, you may
  distribute the resulting work only under the same or similar license to this
  one.

See http://creativecommons.org/licenses/by-sa/3.0/ for more details.
-->
<!DOCTYPE svg PUBLIC "-//W3C//DTD SVG 1.0//EN" "http://www.w3.org/TR/2001/REC-SVG-20010904/DTD/svg10.dtd" [
<!ATTLIST g
xmlns:kvg CDATA #FIXED "http://kanjivg.tagaini.net"
kvg:element CDATA #IMPLIED
kvg:variant CDATA #IMPLIED
kvg:partial CDATA #IMPLIED
kvg:original CDATA #IMPLIED
kvg:part CDATA #IMPLIED
kvg:number CDATA #IMPLIED
kvg:tradForm CDATA #IMPLIED
kvg:radicalForm CDATA #IMPLIED
kvg:position CDATA #IMPLIED
kvg:radical CDATA #IMPLIED
kvg:phon CDATA #IMPLIED >
<!ATTLIST path
xmlns:kvg CDATA #FIXED "http://kanjivg.tagaini.net"
kvg:type CDATA #IMPLIED >
]>
<svg xmlns="http://www.w3.org/2000/svg" width="109" height="109" viewBox="0 0 109 109">
<g id="kvg:StrokePaths_073af" style="fill:none;stroke:#000000;stroke-width:3;stroke-linecap:round;stroke-linejoin:round;">
<g id="kvg:073af" kvg:element="环">
	<g id="kvg:073af-g1" kvg:element="王" kvg:original="玉" kvg:partial="true" kvg:position="left" kvg:radical="general">
		<path id="kvg:073af-s1" kvg:type="㇐" d="M11.75,26.25c0.69,0.37,4.46,0.45,5.16,0.34c3.27-0.5,16.55-2.09,24.4-2.64c1.07-0.07,3.05-0.26,3.94,0.04"/>
		<path id="kvg:073af-s3" kvg:type="㇐" d="M13,53.19c0.58,0.22,4.64,0.25,5.23,0.2c3.39-0.28,15.89-1.94,20.58-2.25c0.72-0.05,3.35-0.09,4.43,0.1"/>
		<path id="kvg:073af-s2" kvg:type="㇑a" d="M27.57,28.52c0.87,0.88,1.48,2.78,1.48,3.48c0,5.95,0.52,44.62,0.35,48.57"/>
		<path id="kvg:073af-s4" kvg:type="㇐" d="M12.25,87.75c1.25,0.75,2.65,0.97,4.5,0C22,85,33.5,78.5,41.5,73.75"/>
	</g>
	<g id="kvg:073af-g2" kvg:element="不" kvg:position="right">
		<g id="kvg:073af-g3" kvg:element="一">
			<path id="kvg:073af-s5" kvg:type="㇐" d="m52.38 22.96c0.96 0.52 2.73 0.65 3.7 0.52c9.22 -1.23 25.89 -3.53 36.48 -4.47c1.6 -0.14 2.57 0.25 3.38 0.51"/>
		</g>
		<g id="kvg:073af-g4" kvg:element="丿">
			<path id="kvg:073af-s6" kvg:type="㇒" d="m75.25 23.66c0.06 1.15 0.37 3.05 -0.14 4.61c-3.11 9.73 -11.71 30.23 -23.62 44.15"/>
		</g>
		<g id="kvg:073af-g5" kvg:element="丨">
			<path id="kvg:073af-s7" kvg:type="㇑" d="m70.9 44.75c1.15 1.2 1.52 2.88 1.52 4.91c0 4.45 -0.09 33 -0.09 48.84"/>
		</g>
		<path id="kvg:073af-s8" kvg:type="㇔" d="m80.11 49.25c5.5 3.92 14.21 16.11 15.59 22.2"/>
	</g>
</g>
</g>
<g id="kvg:StrokeNumbers_073af" style="font-size:8;fill:#808080">
	<text transform="matrix(1 0 0 1 5.50 23.50)">1</text>
	<text transform="matrix(1 0 0 1 5.50 50.50)">2</text>
	<text transform="matrix(1 0 0 1 21.50 21.50)">3</text>
	<text transform="matrix(1 0 0 1 4.54 83.50)">4</text>
	<text transform="matrix(1 0 0 1 41.50 20.50)">5</text>
	<text transform="matrix(1 0 0 1 62.50 32.08)">6</text>
	<text transform="matrix(1 0 0 1 60.50 60.50)">7</text>
	<text transform="matrix(1 0 0 1 74.50 45.50)">8</text>
</g>
</svg>
