<?xml version="1.0" encoding="UTF-8"?>
<!--
Copyright (C) 2016 François Mizessyn.
This work makes an extensive use of kanjiVG Copyright (C) 2009/2010/2011 Ulrich Apel.
This work is distributed under the conditions of the Creative Commons
Attribution-Share Alike 3.0 Licence. This means you are free:
* to Share - to copy, distribute and transmit the work
* to Remix - to adapt the work

Under the following conditions:
* Attribution. You must attribute the work by stating your use of HanjiVG in
  your own copyright header and linking to HanjiVG's website
  (http://gooo.free.fr/hanziVG/)
* Attribution. You must attribute the work by stating your use of KanjiVG in
  your own copyright header and linking to KanjiVG's website
  (http://kanjivg.tagaini.net)
* Share Alike. If you alter, transform, or build upon this work, you may
  distribute the resulting work only under the same or similar license to this
  one.

See http://creativecommons.org/licenses/by-sa/3.0/ for more details.
-->
<!DOCTYPE svg PUBLIC "-//W3C//DTD SVG 1.0//EN" "http://www.w3.org/TR/2001/REC-SVG-20010904/DTD/svg10.dtd" [
<!ATTLIST g
xmlns:kvg CDATA #FIXED "http://kanjivg.tagaini.net"
kvg:element CDATA #IMPLIED
kvg:variant CDATA #IMPLIED
kvg:partial CDATA #IMPLIED
kvg:original CDATA #IMPLIED
kvg:part CDATA #IMPLIED
kvg:number CDATA #IMPLIED
kvg:tradForm CDATA #IMPLIED
kvg:radicalForm CDATA #IMPLIED
kvg:position CDATA #IMPLIED
kvg:radical CDATA #IMPLIED
kvg:phon CDATA #IMPLIED >
<!ATTLIST path
xmlns:kvg CDATA #FIXED "http://kanjivg.tagaini.net"
kvg:type CDATA #IMPLIED >
]>
<svg xmlns="http://www.w3.org/2000/svg" width="109" height="109" viewBox="0 0 109 109">
<g id="kvg:StrokePaths_07535" style="fill:none;stroke:#000000;stroke-width:3;stroke-linecap:round;stroke-linejoin:round;">
<g id="kvg:07535" kvg:element="电">
	<g id="kvg:07535-g1" kvg:position="bottom" kvg:phon="申V">
		<g id="kvg:07535-g2" kvg:element="日">
			<path id="kvg:07535-s1" kvg:type="㇑" d="M21.5,29.62c1.19,1.19,1.94,2.25,2.19,3.96c1.29,9.01,2.73,19.81,4.19,32.77c0.17,1.48,0.33,2.99,0.5,4.53"/>
			<path id="kvg:07535-s2" kvg:type="㇕a" d="M24.6,31.18c17.65-1.68,45.19-3.9,56.93-4.59c4.55-0.27,6.58,1.68,5.96,5.94c-1,6.91-3.3,19.86-5.18,29.76c-0.35,1.83-0.68,3.56-0.99,5.12"/>
			<path id="kvg:07535-s3" kvg:type="㇐a" d="M26.9,48.95c15.47-1.33,39.22-2.83,57.36-3.38"/>
			<path id="kvg:07535-s4" kvg:type="㇐a" d="M29.44,67.56c12.93-0.94,34.43-2.56,51.27-3"/>
		</g>
		<path id="kvg:07535-s5" kvg:type="㇟" d="M53.42,12.62c1.08,1.13,1.45,2.8,1.45,4.78c0,4.85-0.1,12.75-0.1,63.85c0,12.75,1.48,14.5,15.5,14.5c19.23,0,20.18-2.75,20.18-10.82"/>
	</g>
</g>
</g>
<g id="kvg:StrokeNumbers_07535" style="font-size:8;fill:#808080">
	<text transform="matrix(1 0 0 1 12.50 35.50)">1</text>
	<text transform="matrix(1 0 0 1 21.50 26.50)">2</text>
	<text transform="matrix(1 0 0 1 27.50 45.50)">3</text>
	<text transform="matrix(1 0 0 1 29.50 64.50)">4</text>
	<text transform="matrix(1 0 0 1 43.50 12.50)">5</text>
</g>
</svg>
