<?xml version="1.0" encoding="UTF-8"?>
<!--
Copyright (C) 2016 François Mizessyn.
This work makes an extensive use of kanjiVG Copyright (C) 2009/2010/2011 Ulrich Apel.
This work is distributed under the conditions of the Creative Commons
Attribution-Share Alike 3.0 Licence. This means you are free:
* to Share - to copy, distribute and transmit the work
* to Remix - to adapt the work

Under the following conditions:
* Attribution. You must attribute the work by stating your use of HanjiVG in
  your own copyright header and linking to HanjiVG's website
  (http://gooo.free.fr/hanziVG/)
* Attribution. You must attribute the work by stating your use of KanjiVG in
  your own copyright header and linking to KanjiVG's website
  (http://kanjivg.tagaini.net)
* Share Alike. If you alter, transform, or build upon this work, you may
  distribute the resulting work only under the same or similar license to this
  one.

See http://creativecommons.org/licenses/by-sa/3.0/ for more details.
-->
<!DOCTYPE svg PUBLIC "-//W3C//DTD SVG 1.0//EN" "http://www.w3.org/TR/2001/REC-SVG-20010904/DTD/svg10.dtd" [
<!ATTLIST g
xmlns:kvg CDATA #FIXED "http://kanjivg.tagaini.net"
kvg:element CDATA #IMPLIED
kvg:variant CDATA #IMPLIED
kvg:partial CDATA #IMPLIED
kvg:original CDATA #IMPLIED
kvg:part CDATA #IMPLIED
kvg:number CDATA #IMPLIED
kvg:tradForm CDATA #IMPLIED
kvg:radicalForm CDATA #IMPLIED
kvg:position CDATA #IMPLIED
kvg:radical CDATA #IMPLIED
kvg:phon CDATA #IMPLIED >
<!ATTLIST path
xmlns:kvg CDATA #FIXED "http://kanjivg.tagaini.net"
kvg:type CDATA #IMPLIED >
]>
<svg xmlns="http://www.w3.org/2000/svg" width="109" height="109" viewBox="0 0 109 109">
<g id="kvg:StrokePaths_07626" style="fill:none;stroke:#000000;stroke-width:3;stroke-linecap:round;stroke-linejoin:round;">
<g id="kvg:07626" kvg:element="瘦" kvg:radical="tradit">
	<g id="kvg:07626-g1" kvg:element="疒" kvg:radical="tradit">
		<path id="kvg:07626-s1" kvg:type="㇑a" d="M57.55,11.88c2.19,0.77,6.84,5.77,7.28,7.3"/>
		<path id="kvg:07626-s2" kvg:type="㇐" d="M30.38,26.48c1.52,0.54,4.3,0.63,5.82,0.54c15.8-0.91,36.05-3.52,50.11-4.23c2.53-0.13,4.05,0.26,5.31,0.53"/>
		<path id="kvg:07626-s3" kvg:type="㇒" d="M33.74,28.25c0,35.75-1.24,53.5-14.69,66.97"/>
		<path id="kvg:07626-s4" kvg:type="㇔" d="M17,39.75c2.74,1.63,7.07,6.71,7.75,9.25"/>
		<path id="kvg:07626-s5" kvg:type="㇀" d="M14.42,71.72c1.58,0.78,2.07,0.55,3.46-0.39c5.62-3.83,8.87-6.27,13.12-9.58"/>
	</g>
	<g id="kvg:07626-g2" kvg:element="叟" kvg:position="right">
		<g id="kvg:07626-g3" kvg:element="臼" kvg:variant="true">
			<path id="kvg:07626-s6" kvg:type="㇒" d="m54.81 32.57c0.04 0.2 -0.22 0.99 -0.48 1.22c-3.42 2.9 -6.61 5.08 -14.41 7.38"/>
			<path id="kvg:07626-s7" kvg:type="㇑" d="m39.39 39.94c0.67 0.6 0.95 1.94 1.12 3.17c0.61 4.49 2.14 13.22 2.75 19.3"/>
			<path id="kvg:07626-s8" kvg:type="㇕" d="m70.32 34.97c0.79 0.14 1.43 0.41 2.54 0.41s12.08 -1.64 13.35 -1.78s2.33 0.67 2.22 1.5c-0.95 7.91 -3.58 23.65 -3.74 24.19"/>
			<path id="kvg:07626-s9" kvg:type="㇐" d="m41.67 49.33c3.34 -0.27 10.96 -1.77 11.75 -1.77s1.9 0 2.54 0"/>
			<path id="kvg:07626-s10" kvg:type="㇐" d="m70.24 46.62c0.79 0.14 1.43 0.41 2.54 0.41s12.56 -0.69 13.83 -0.83"/>
			<path id="kvg:07626-s11" kvg:type="㇐" d="m43.42 60.88c3.98 -0.48 36.58 -3.08 41.44 -3.11"/>
		</g>
		<g id="kvg:07626-g4" kvg:element="丨">
			<path id="kvg:07626-s12" kvg:type="㇑" d="m61.8 31.2c1 0.4 1.6 1.8 1.8 2.6s0 33.4 -0.2 35.4"/>
		</g>
		<g id="kvg:07626-g5" kvg:element="又" kvg:position="bottom">
			<path id="kvg:07626-s13" kvg:type="㇇" d="m47.98 71.32c1.58 0.23 3.02 0.44 6.17 0.08c3.15 -0.35 19.4 -2.05 21.57 -2.4c2.17 -0.35 4.28 0.95 3.3 2.21c-7.9 10.19 -18.77 19.49 -39.93 25.53"/>
			<path id="kvg:07626-s14" kvg:type="㇏" d="m46.94 74.16c5.31 0.64 21.27 11.42 36.45 17.95c3.72 1.7 7.75 3.09 12.08 4.15"/>
		</g>
	</g>
</g>
</g>
<g id="kvg:StrokeNumbers_07626" style="font-size:8;fill:#808080">
	<text transform="matrix(1 0 0 1 52.33 12.55)">1</text>
	<text transform="matrix(1 0 0 1 32.25 23.25)">2</text>
	<text transform="matrix(1 0 0 1 27.25 35.25)">3</text>
	<text transform="matrix(1 0 0 1 10.25 37.25)">4</text>
	<text transform="matrix(1 0 0 1 10 68.25)">5</text>
	<text transform="matrix(1 0 0 1 46.75 34.50)">6</text>
	<text transform="matrix(1 0 0 1 37.50 37.50)">7</text>
	<text transform="matrix(1 0 0 1 41.50 47.50)">8</text>
	<text transform="matrix(1 0 0 1 69.50 32.66)">9</text>
	<text transform="matrix(1 0 0 1 65.50 45.50)">10</text>
	<text transform="matrix(1 0 0 1 52.69 30.50)">11</text>
	<text transform="matrix(1 0 0 1 32.50 62.68)">12</text>
	<text transform="matrix(1 0 0 1 32.50 76.50)">13</text>
	<text transform="matrix(1 0 0 1 47.50 84.50)">14</text>
</g>
</svg>
