<?xml version="1.0" encoding="UTF-8"?>
<!--
Copyright (C) 2016 François Mizessyn.
Stroke order modified by François Mizessyn.
This work makes an extensive use of kanjiVG Copyright (C) 2009/2010/2011 Ulrich Apel.
This work is distributed under the conditions of the Creative Commons
Attribution-Share Alike 3.0 Licence. This means you are free:
* to Share - to copy, distribute and transmit the work
* to Remix - to adapt the work

Under the following conditions:
* Attribution. You must attribute the work by stating your use of HanjiVG in
  your own copyright header and linking to HanjiVG's website
  (http://gooo.free.fr/hanziVG/)
* Attribution. You must attribute the work by stating your use of KanjiVG in
  your own copyright header and linking to KanjiVG's website
  (http://kanjivg.tagaini.net)
* Share Alike. If you alter, transform, or build upon this work, you may
  distribute the resulting work only under the same or similar license to this
  one.

See http://creativecommons.org/licenses/by-sa/3.0/ for more details.
-->
<!DOCTYPE svg PUBLIC "-//W3C//DTD SVG 1.0//EN" "http://www.w3.org/TR/2001/REC-SVG-20010904/DTD/svg10.dtd" [
<!ATTLIST g
xmlns:kvg CDATA #FIXED "http://kanjivg.tagaini.net"
kvg:element CDATA #IMPLIED
kvg:variant CDATA #IMPLIED
kvg:partial CDATA #IMPLIED
kvg:original CDATA #IMPLIED
kvg:part CDATA #IMPLIED
kvg:number CDATA #IMPLIED
kvg:tradForm CDATA #IMPLIED
kvg:radicalForm CDATA #IMPLIED
kvg:position CDATA #IMPLIED
kvg:radical CDATA #IMPLIED
kvg:phon CDATA #IMPLIED >
<!ATTLIST path
xmlns:kvg CDATA #FIXED "http://kanjivg.tagaini.net"
kvg:type CDATA #IMPLIED >
]>
<svg xmlns="http://www.w3.org/2000/svg" width="109" height="109" viewBox="0 0 109 109">
<g id="kvg:StrokePaths_076d8" style="fill:none;stroke:#000000;stroke-width:3;stroke-linecap:round;stroke-linejoin:round;">
<g id="kvg:076d8" kvg:element="盘">
	<g id="kvg:076d8-g2" kvg:element="舟" kvg:position="left">
		<path id="kvg:076d8-s1" kvg:type="㇒" d="m55.98 13.25c0.6 0.92 0.02 1.62 -1 2.56c-1.88 1.73 -4.72 3.94 -10.34 7.22"/>
		<path id="kvg:076d8-s2" kvg:type="㇒" d="m35.76 24.91c1.84 0.92 1.8 2.11 1.92 3.18c1.84 16.15 -2.16 32.15 -17.54 41.38"/>
		<path id="kvg:076d8-s3" kvg:type="㇆a" d="m38.78 25.6c6.7 -0.39 23.06 -1.97 31.54 -2.64c7.48 -0.59 9.46 -0.23 9.46 3.41c0 6.28 -0.04 34.23 -0.04 36.25c0 6.66 -9.78 1.33 -11.22 0.89"/>
		<path id="kvg:076d8-s4" kvg:type="㇔" d="m51.64 30.08c3.86 1.3 8.12 3.67 11.04 5.86"/>
		<path id="kvg:076d8-s5" kvg:type="㇀/㇐" d="m19 46.13c2.12 1.06 4.56 1.12 7.46 0.66c16.04 -2.54 53.8 -8.37 61.12 -9.61"/>
		<path id="kvg:076d8-s6" kvg:type="㇑" d="m55.52 43.22c1.8 1.11 2.18 1.77 2.18 2.66c0 0.6 0 4.95 -0.22 8.38c-0.1 1.62 -0.26 3.02 -0.5 3.73"/>
	</g>
	<g id="kvg:076d8-g7" kvg:element="皿" kvg:position="bottom" kvg:radical="general">
		<path id="kvg:076d8-s7" kvg:type="㇑a" d="M29.83,74.2c0.8,0.8,1.05,1.8,1.21,2.94c0.63,4.6,0.84,8.73,1.36,14.61"/>
		<path id="kvg:076d8-s8" kvg:type="㇕b" d="M31.34,75.49c12.02-1.25,37.99-3.83,45.78-4.3c3.25-0.2,4.38,1.68,3.93,4.66c-0.61,4.07-1.03,8.62-2.05,14.18"/>
		<path id="kvg:076d8-s9" kvg:type="㇑a" d="M45.79,76.02c0.66,0.66,0.91,1.35,0.95,2.47c0.14,4.25,0.27,7,0.37,12.48"/>
		<path id="kvg:076d8-s10" kvg:type="㇑a" d="M62.83,74.25c0.77,0.77,1.01,1.62,0.93,2.76c-0.38,5.36-0.84,10.21-1,13.36"/>
		<path id="kvg:076d8-s11" kvg:type="㇐" d="M14.63,93.23c2.55,0.96,6.19,0.79,8.87,0.58c15.5-1.19,38.65-2.88,62.63-3.22c3.49-0.05,6.63,0.21,10,0.97"/>
	</g>
</g>
</g>
<g id="kvg:StrokeNumbers_076d8" style="font-size:8;fill:#808080">
	<text transform="matrix(1 0 0 1 54.50 12.50)">1</text>
	<text transform="matrix(1 0 0 1 24.50 31.50)">2</text>
	<text transform="matrix(1 0 0 1 33.50 22.50)">3</text>
	<text transform="matrix(1 0 0 1 41.25 31.55)">4</text>
	<text transform="matrix(1 0 0 1 59.50 54.50)">5</text>
	<text transform="matrix(1 0 0 1 11.50 43.50)">6</text>
	<text transform="matrix(1 0 0 1 20.50 80.50)">7</text>
	<text transform="matrix(1 0 0 1 30.25 72.13)">8</text>
	<text transform="matrix(1 0 0 1 41.50 82.05)">9</text>
	<text transform="matrix(1 0 0 1 53.50 80.50)">10</text>
	<text transform="matrix(1 0 0 1 4.50 90.50)">11</text>
</g>
</svg>
