<?xml version="1.0" encoding="UTF-8"?>
<!--
Copyright (C) 2009/2010/2011 Ulrich Apel.
Glyph modified by François Mizessyn.
This work is distributed under the conditions of the Creative Commons
Attribution-Share Alike 3.0 Licence. This means you are free:
* to Share - to copy, distribute and transmit the work
* to Remix - to adapt the work

Under the following conditions:
* Attribution. You must attribute the work by stating your use of KanjiVG in
  your own copyright header and linking to KanjiVG's website
  (http://kanjivg.tagaini.net)
* Share Alike. If you alter, transform, or build upon this work, you may
  distribute the resulting work only under the same or similar license to this
  one.

See http://creativecommons.org/licenses/by-sa/3.0/ for more details.
-->
<!DOCTYPE svg PUBLIC "-//W3C//DTD SVG 1.0//EN" "http://www.w3.org/TR/2001/REC-SVG-20010904/DTD/svg10.dtd" [
<!ATTLIST g
xmlns:kvg CDATA #FIXED "http://kanjivg.tagaini.net"
kvg:element CDATA #IMPLIED
kvg:variant CDATA #IMPLIED
kvg:partial CDATA #IMPLIED
kvg:original CDATA #IMPLIED
kvg:part CDATA #IMPLIED
kvg:number CDATA #IMPLIED
kvg:tradForm CDATA #IMPLIED
kvg:radicalForm CDATA #IMPLIED
kvg:position CDATA #IMPLIED
kvg:radical CDATA #IMPLIED
kvg:phon CDATA #IMPLIED >
<!ATTLIST path
xmlns:kvg CDATA #FIXED "http://kanjivg.tagaini.net"
kvg:type CDATA #IMPLIED >
]>
<svg xmlns="http://www.w3.org/2000/svg" width="109" height="109" viewBox="0 0 109 109">
<g id="kvg:StrokePaths_076f4" style="fill:none;stroke:#000000;stroke-width:3;stroke-linecap:round;stroke-linejoin:round;">
<g id="kvg:076f4" kvg:element="直" kvg:position="right" kvg:phon="直">
	<g id="kvg:076f4-g1" kvg:element="十">
		<path id="kvg:076f4-s1" kvg:type="㇐" d="m22.97 31.72c2.46 0.28 6.38 0.23 8.89 0.09c15.66 -0.87 27.04 -1.5 45.68 -2.18c2.72 -0.1 5.52 -0.15 8.22 0.01"/>
		<path id="kvg:076f4-s2" kvg:type="㇑a" d="m53.44 15.5c0.54 0.86 0.72 1.97 0.67 3.03c-0.48 10.08 -0.82 14.42 -1.58 23.52"/>
	</g>
	<g id="kvg:076f4-g2" kvg:element="目">
		<path id="kvg:076f4-s3" kvg:type="㇑" d="m31.6 43.48c0.95 0.76 1.66 2.46 1.66 3.68c0 0.91 -0.01 22.53 -0.02 41.35c0 1.94 0 3.54 0 4.6"/>
		<path id="kvg:076f4-s4" kvg:type="㇕a" d="m34.43 44.95c5.33 -0.54 33.64 -1.98 37.32 -2.3c2.88 -0.25 4.91 1.01 4.91 2.72c0 2.75 -0.12 29.91 -0.12 42.11c0 2 0 3.89 0 5.59"/>
		<path id="kvg:076f4-s5" kvg:type="㇐a" d="m34.63 57.26c7.6 -0.48 33.89 -2.14 40.1 -2.36"/>
		<path id="kvg:076f4-s6" kvg:type="㇐a" d="m34.94 69.55c10.14 -0.88 29.83 -1.87 39.68 -2.22"/>
		<path id="kvg:076f4-s7" kvg:type="㇐a" d="m34.54 82.27c11.83 -1.23 35.86 -1.9 40.94 -2.09"/>
	</g>
	<path id="kvg:076f4-s8" kvg:type="㇐" d="m18.28 95.85c2.9 0.31 7.55 0.26 10.52 0.1c18.5 -0.99 31.95 -1.72 53.99 -2.49c3.21 -0.11 6.53 -0.17 9.72 0.01"/>
</g>
</g>
<g id="kvg:StrokeNumbers_076f4" style="font-size:8;fill:#808080">
	<text transform="matrix(1 0 0 1 18.50 28.50)">1</text>
	<text transform="matrix(1 0 0 1 43.50 12.50)">2</text>
	<text transform="matrix(1 0 0 1 20.50 50.50)">3</text>
	<text transform="matrix(1 0 0 1 28.25 42.13)">4</text>
	<text transform="matrix(1 0 0 1 34.75 54.63)">5</text>
	<text transform="matrix(1 0 0 1 34.75 67.50)">6</text>
	<text transform="matrix(1 0 0 1 34.75 82.50)">7</text>
	<text transform="matrix(1 0 0 1 15.50 93.50)">8</text>
</g>
</svg>
