<?xml version="1.0" encoding="UTF-8"?>
<!--
Copyright (C) 2016 François Mizessyn.
This work makes an extensive use of kanjiVG Copyright (C) 2009/2010/2011 Ulrich Apel.
This work is distributed under the conditions of the Creative Commons
Attribution-Share Alike 3.0 Licence. This means you are free:
* to Share - to copy, distribute and transmit the work
* to Remix - to adapt the work

Under the following conditions:
* Attribution. You must attribute the work by stating your use of HanjiVG in
  your own copyright header and linking to HanjiVG's website
  (http://gooo.free.fr/hanziVG/)
* Attribution. You must attribute the work by stating your use of KanjiVG in
  your own copyright header and linking to KanjiVG's website
  (http://kanjivg.tagaini.net)
* Share Alike. If you alter, transform, or build upon this work, you may
  distribute the resulting work only under the same or similar license to this
  one.

See http://creativecommons.org/licenses/by-sa/3.0/ for more details.
-->
<!DOCTYPE svg PUBLIC "-//W3C//DTD SVG 1.0//EN" "http://www.w3.org/TR/2001/REC-SVG-20010904/DTD/svg10.dtd" [
<!ATTLIST g
xmlns:kvg CDATA #FIXED "http://kanjivg.tagaini.net"
kvg:element CDATA #IMPLIED
kvg:variant CDATA #IMPLIED
kvg:partial CDATA #IMPLIED
kvg:original CDATA #IMPLIED
kvg:part CDATA #IMPLIED
kvg:number CDATA #IMPLIED
kvg:tradForm CDATA #IMPLIED
kvg:radicalForm CDATA #IMPLIED
kvg:position CDATA #IMPLIED
kvg:radical CDATA #IMPLIED
kvg:phon CDATA #IMPLIED >
<!ATTLIST path
xmlns:kvg CDATA #FIXED "http://kanjivg.tagaini.net"
kvg:type CDATA #IMPLIED >
]>
<svg xmlns="http://www.w3.org/2000/svg" width="109" height="109" viewBox="0 0 109 109">
<g id="kvg:StrokePaths_0786e" style="fill:none;stroke:#000000;stroke-width:3;stroke-linecap:round;stroke-linejoin:round;">
<g id="kvg:0786e" kvg:element="确">
	<g id="kvg:0786e-g1" kvg:element="石" kvg:position="left">
		<path id="kvg:0786e-s1" kvg:type="㇐" d="M14.38,28.22c0.73,0.19,2.08,0.24,2.81,0.19c9.18-0.66,15.61-2.06,27.87-3.21c1.22-0.11,1.96,0.09,2.57,0.19"/>
		<path id="kvg:0786e-s2" kvg:type="㇒" d="M26.95,29.68c0.05,1.05,0.1,2.71-0.1,4.22c-1.14,8.89-7.67,28.41-16.61,40.36"/>
		<g id="kvg:0786e-g2" kvg:element="口">
			<path id="kvg:0786e-s3" kvg:type="㇑" d="M21.5,57.53c0.3,0.5,0.61,0.91,0.74,1.54c1.05,4.94,2.3,18.56,3.02,27.43"/>
			<path id="kvg:0786e-s4" kvg:type="㇕b" d="M23.38,59.7c7.35-1.92,15.28-2.56,18.82-3.2c1.29-0.24,2.07,1.41,1.88,2.8c-0.77,5.77-2.25,13.74-3.38,21.71"/>
			<path id="kvg:0786e-s5" kvg:type="㇐b" d="M25.4,83.35c6.1-0.6,9.35-0.85,17.67-1.63"/>
		</g>
	</g>
	<g id="kvg:0786e-g3" kvg:element="角" kvg:position="right">
		<g id="kvg:0786e-g4" kvg:element="𠂊" kvg:variant="true" kvg:original="勹" kvg:position="top">
			<path id="kvg:0786e-s6" kvg:type="㇒" d="m63.7 12.5c0.05 0.63 0.1 1.63 -0.09 2.53c-1.08 5.34 -7.75 17.05 -16.29 24.22"/>
			<path id="kvg:0786e-s7" kvg:type="㇇a" d="m62.47 19.54c2.38 0 15.83 -2.52 18.2 -3.33c2.38 -0.81 3.47 1.14 2.38 2.65c-3.56 4.87 -6.51 9.14 -11 18.14"/>
		</g>
		<g id="kvg:0786e-g5" kvg:position="bottom">
			<path id="kvg:0786e-s8" kvg:type="㇒" d="m53.4 37.5c0.62 0.77 1.23 2.94 1.23 3.76c0 3.18 -0.1 17.9 -0.1 19.64c0 11.85 -2.96 24.92 -8.15 31.85"/>
			<path id="kvg:0786e-s9" kvg:type="㇆a" d="m54.84 40.19c2.88 -0.19 30.43 -4.25 32.57 -4.45c3.84 -0.37 5.2 3.15 4.8 5.35c-0.22 1.18 -0.72 29.69 -0.72 44.86c0 12.91 -4.8 5.27 -7.01 2.35"/>
			<path id="kvg:0786e-s10" kvg:type="㇐a" d="m54.84 54.35c4.96 0 28.02 -2.85 36.63 -2.85"/>
			<path id="kvg:0786e-s11" kvg:type="㇐a" d="m53.88 70.75c7.46 -0.25 27.93 -2.5 37.07 -2.5"/>
			<path id="kvg:0786e-s12" kvg:type="㇑a" d="m70.93 40.87c0.06 0.24 0.81 1.25 0.86 2.77c0.28 7.29 -0.18 23.38 -0.18 43.87"/>
		</g>
	</g>
</g>
</g>
<g id="kvg:StrokeNumbers_0786e" style="font-size:8;fill:#808080">
	<text transform="matrix(1 0 0 1 8.50 27.50)">1</text>
	<text transform="matrix(1 0 0 1 18.50 37.50)">2</text>
	<text transform="matrix(1 0 0 1 16.50 73.50)">3</text>
	<text transform="matrix(1 0 0 1 27.50 55.50)">4</text>
	<text transform="matrix(1 0 0 1 28.50 79.50)">5</text>
	<text transform="matrix(1 0 0 1 52.50 13.50)">6</text>
	<text transform="matrix(1 0 0 1 66.50 15.50)">7</text>
	<text transform="matrix(1 0 0 1 43.50 48.50)">8</text>
	<text transform="matrix(1 0 0 1 55.25 36.50)">9</text>
	<text transform="matrix(1 0 0 1 54.50 51.50)">10</text>
	<text transform="matrix(1 0 0 1 54.50 67.50)">11</text>
	<text transform="matrix(1 0 0 1 72.50 46.03)">12</text>
</g>
</svg>
