<?xml version="1.0" encoding="UTF-8"?>
<!--
Copyright (C) 2016 François Mizessyn.
This work makes an extensive use of kanjiVG Copyright (C) 2009/2010/2011 Ulrich Apel.
This work is distributed under the conditions of the Creative Commons
Attribution-Share Alike 3.0 Licence. This means you are free:
* to Share - to copy, distribute and transmit the work
* to Remix - to adapt the work

Under the following conditions:
* Attribution. You must attribute the work by stating your use of HanjiVG in
  your own copyright header and linking to HanjiVG's website
  (http://gooo.free.fr/hanziVG/)
* Attribution. You must attribute the work by stating your use of KanjiVG in
  your own copyright header and linking to KanjiVG's website
  (http://kanjivg.tagaini.net)
* Share Alike. If you alter, transform, or build upon this work, you may
  distribute the resulting work only under the same or similar license to this
  one.

See http://creativecommons.org/licenses/by-sa/3.0/ for more details.
-->
<!DOCTYPE svg PUBLIC "-//W3C//DTD SVG 1.0//EN" "http://www.w3.org/TR/2001/REC-SVG-20010904/DTD/svg10.dtd" [
<!ATTLIST g
xmlns:kvg CDATA #FIXED "http://kanjivg.tagaini.net"
kvg:element CDATA #IMPLIED
kvg:variant CDATA #IMPLIED
kvg:partial CDATA #IMPLIED
kvg:original CDATA #IMPLIED
kvg:part CDATA #IMPLIED
kvg:number CDATA #IMPLIED
kvg:tradForm CDATA #IMPLIED
kvg:radicalForm CDATA #IMPLIED
kvg:position CDATA #IMPLIED
kvg:radical CDATA #IMPLIED
kvg:phon CDATA #IMPLIED >
<!ATTLIST path
xmlns:kvg CDATA #FIXED "http://kanjivg.tagaini.net"
kvg:type CDATA #IMPLIED >
]>
<svg xmlns="http://www.w3.org/2000/svg" width="109" height="109" viewBox="0 0 109 109">
<g id="kvg:StrokePaths_079cd" style="fill:none;stroke:#000000;stroke-width:3;stroke-linecap:round;stroke-linejoin:round;">
<g id="kvg:079cd" kvg:element="种">
	<g id="kvg:079cd-g1" kvg:element="禾" kvg:position="left" kvg:radical="nelson" kvg:phon="禾">
		<g id="kvg:079cd-g2" kvg:element="丿" kvg:position="top">
			<path id="kvg:079cd-s1" kvg:type="㇒" d="m41.38 15.5c0.03 0.72 -0.23 1.64 -0.85 2.34c-2.7 3.12 -10.9 7.99 -21.73 11.41"/>
		</g>
		<g id="kvg:079cd-g3" kvg:element="木" kvg:position="bottom">
			<path id="kvg:079cd-s2" kvg:type="㇐" d="m12.49 45.38c1.87 0.62 4.15 0.6 6.12 0.27c6.98 -1.15 15.6 -3.15 23.18 -4.27c1.34 -0.2 3.44 -0.12 4.76 0.33"/>
			<path id="kvg:079cd-s3" kvg:type="㇑" d="m32.29 27.2c0.77 0.96 1.22 1.93 1.22 2.8c0 2.94 0 43.09 -0.05 58.99c-0.02 3.01 -0.03 5.15 -0.05 6.01"/>
			<path id="kvg:079cd-s4" kvg:type="㇒" d="m32.81 44.02c0 1.23 -0.21 2.66 -0.44 3.39c-3.79 11.92 -11.77 26.71 -19.03 32.9"/>
			<path id="kvg:079cd-s5" kvg:type="㇔/㇏" d="m35.33 53.81c3.55 1.75 7.99 7.12 9.56 10.63"/>
		</g>
	</g>
	<g id="kvg:079cd-g4" kvg:element="中" kvg:position="right">
		<g id="kvg:079cd-g5" kvg:element="口">
			<path id="kvg:079cd-s6" kvg:type="㇑" d="m52.85 39.82c0.38 0.25 1.14 0.82 1.26 1.48c0.87 4.69 1.93 13.02 3.16 21.92"/>
			<path id="kvg:079cd-s7" kvg:type="㇕b" d="m54.36 40.93c10.84 -1.95 31.74 -4.24 38.7 -4.61c2.71 -0.15 3.26 2.33 2.92 3.76c-1.15 4.9 -2.06 9.64 -3.94 17.79"/>
			<path id="kvg:079cd-s8" kvg:type="㇐b" d="m57.38 61.75c7.8 -1.26 25.58 -2.64 36.5 -3.96"/>
		</g>
		<g id="kvg:079cd-g6" kvg:element="丨">
			<path id="kvg:079cd-s9" kvg:type="㇑" d="m72.53 13.29c0.97 0.47 1.55 2.14 1.74 3.09c0.19 0.95 0 74.79 -0.19 80.71"/>
		</g>
	</g>
</g>
</g>
<g id="kvg:StrokeNumbers_079cd" style="font-size:8;fill:#808080">
	<text transform="matrix(1 0 0 1 40.50 14.50)">1</text>
	<text transform="matrix(1 0 0 1 2.50 49.50)">2</text>
	<text transform="matrix(1 0 0 1 28.50 36.13)">3</text>
	<text transform="matrix(1 0 0 1 20.50 59.50)">4</text>
	<text transform="matrix(1 0 0 1 35.50 57.63)">5</text>
	<text transform="matrix(1 0 0 1 42.50 47.50)">6</text>
	<text transform="matrix(1 0 0 1 51.50 37.50)">7</text>
	<text transform="matrix(1 0 0 1 58.50 57.33)">8</text>
	<text transform="matrix(1 0 0 1 61.25 13.50)">9</text>
</g>
</svg>
