<?xml version="1.0" encoding="UTF-8"?>
<!--
Copyright (C) 2016 François Mizessyn.
This work makes an extensive use of kanjiVG Copyright (C) 2009/2010/2011 Ulrich Apel.
This work is distributed under the conditions of the Creative Commons
Attribution-Share Alike 3.0 Licence. This means you are free:
* to Share - to copy, distribute and transmit the work
* to Remix - to adapt the work

Under the following conditions:
* Attribution. You must attribute the work by stating your use of HanjiVG in
  your own copyright header and linking to HanjiVG's website
  (http://gooo.free.fr/hanziVG/)
* Attribution. You must attribute the work by stating your use of KanjiVG in
  your own copyright header and linking to KanjiVG's website
  (http://kanjivg.tagaini.net)
* Share Alike. If you alter, transform, or build upon this work, you may
  distribute the resulting work only under the same or similar license to this
  one.

See http://creativecommons.org/licenses/by-sa/3.0/ for more details.
-->
<!DOCTYPE svg PUBLIC "-//W3C//DTD SVG 1.0//EN" "http://www.w3.org/TR/2001/REC-SVG-20010904/DTD/svg10.dtd" [
<!ATTLIST g
xmlns:kvg CDATA #FIXED "http://kanjivg.tagaini.net"
kvg:element CDATA #IMPLIED
kvg:variant CDATA #IMPLIED
kvg:partial CDATA #IMPLIED
kvg:original CDATA #IMPLIED
kvg:part CDATA #IMPLIED
kvg:number CDATA #IMPLIED
kvg:tradForm CDATA #IMPLIED
kvg:radicalForm CDATA #IMPLIED
kvg:position CDATA #IMPLIED
kvg:radical CDATA #IMPLIED
kvg:phon CDATA #IMPLIED >
<!ATTLIST path
xmlns:kvg CDATA #FIXED "http://kanjivg.tagaini.net"
kvg:type CDATA #IMPLIED >
]>
<svg xmlns="http://www.w3.org/2000/svg" width="109" height="109" viewBox="0 0 109 109">
<g id="kvg:StrokePaths_07b7e" style="fill:none;stroke:#000000;stroke-width:3;stroke-linecap:round;stroke-linejoin:round;">
<g id="kvg:07b7e" kvg:element="签">
	<g id="kvg:07b7e-g1" kvg:element="竹" kvg:variant="true" kvg:position="top" kvg:radical="general">
		<g id="kvg:07b7e-g2" kvg:position="left">
			<path id="kvg:07b7e-s1" kvg:type="㇒" d="M29.24,10.75c0.04,0.56,0.09,1.46-0.09,2.27c-1.06,4.79-7.11,15.29-15.4,21.73"/>
			<path id="kvg:07b7e-s2" kvg:type="㇐b" d="M27.75,21.48c4.31,0,18.16-2.22,23-2.22"/>
			<path id="kvg:07b7e-s3" kvg:type="㇔/㇑" d="M32.5,22.25c2.91,1.85,7.52,7.62,8.25,10.5"/>
		</g>
		<g id="kvg:07b7e-g3" kvg:position="right">
			<path id="kvg:07b7e-s4" kvg:type="㇒" d="M63.24,10.25c0.03,0.37,0.11,0.97-0.05,1.49c-1.27,3.9-4.78,9.47-9.44,14.26"/>
			<path id="kvg:07b7e-s5" kvg:type="㇐b" d="M62.75,19.92c5.34,0,24.89-3.01,30.88-3.01"/>
			<path id="kvg:07b7e-s6" kvg:type="㇒/㇚" d="M78.01,22c0.03,0.26,0.07,0.67-0.06,1.04c-0.77,2.19-5.17,7.01-11.2,9.96"/>
		</g>
	</g>
	<g id="kvg:07b7e-g4" kvg:element="佥" kvg:position="right">
		<g id="kvg:07b7e-g5" kvg:element="人" kvg:position="top">
			<path id="kvg:07b7e-s4" kvg:type="㇒" d="m53.26 36.18c0 0.65 0.1 1.17 -0.3 1.95c-2.06 4.09 -20.11 19.29 -36.96 25.33"/>
			<path id="kvg:07b7e-s5" kvg:type="㇏" d="m53.59 39c9.3 3.27 34.11 17.98 37.14 19.01c3.09 1.04 4.1 1.23 5.46 1.34"/>
		</g>
		<path id="kvg:07b7e-s6" kvg:type="㇐" d="m36.79 61.52c1.01 0.23 4.32 0.3 5.34 0.24c4.77 -0.31 14.1 -1 33.84 -1.81c1.57 -0.06 2.98 0.04 4.29 0.24"/>
		<path id="kvg:07b7e-s7" kvg:type="㇔" d="m24.92 73.78c3.79 1.2 13.55 8.04 14.37 10.29"/>
		<path id="kvg:07b7e-s8" kvg:type="㇔" d="m46.22 70.58c4.93 2.16 12.75 8.86 14 12.21"/>
		<path id="kvg:07b7e-s9" kvg:type="㇒" d="m84.78 73.22c0.05 0.87 -0.48 1.87 -0.8 2.37c-2.37 3.79 -7.39 9.09 -15.22 14.25"/>
		<path id="kvg:07b7e-s10" kvg:type="㇐" d="m21.83 93.02c0.77 0.16 4.67 0.62 6.38 0.52c8.34 -0.48 33.87 -2.12 58.37 -2.12c2.34 0 5.14 0.21 6.3 0.41"/>
	</g>
</g>
</g>
<g id="kvg:StrokeNumbers_07b7e" style="font-size:8;fill:#808080">
	<text transform="matrix(1 0 0 1 21.50 10.50)">1</text>
	<text transform="matrix(1 0 0 1 34.50 17.50)">2</text>
	<text transform="matrix(1 0 0 1 27.50 30.85)">3</text>
	<text transform="matrix(1 0 0 1 54.50 10.50)">4</text>
	<text transform="matrix(1 0 0 1 67.50 16.50)">5</text>
	<text transform="matrix(1 0 0 1 65.50 28.50)">6</text>
	<text transform="matrix(1 0 0 1 45.50 39.50)">7</text>
	<text transform="matrix(1 0 0 1 55.25 37.63)">8</text>
	<text transform="matrix(1 0 0 1 31.50 58.50)">9</text>
	<text transform="matrix(1 0 0 1 22.50 72.50)">10</text>
	<text transform="matrix(1 0 0 1 48.50 72.50)">11</text>
	<text transform="matrix(1 0 0 1 83.50 74.50)">12</text>
	<text transform="matrix(1 0 0 1 1.50 96.50)">13</text>
</g>
</svg>
