<?xml version="1.0" encoding="UTF-8"?>
<!--
Copyright (C) 2016 François Mizessyn.
This work makes an extensive use of kanjiVG Copyright (C) 2009/2010/2011 Ulrich Apel.
This work is distributed under the conditions of the Creative Commons
Attribution-Share Alike 3.0 Licence. This means you are free:
* to Share - to copy, distribute and transmit the work
* to Remix - to adapt the work

Under the following conditions:
* Attribution. You must attribute the work by stating your use of HanjiVG in
  your own copyright header and linking to HanjiVG's website
  (http://gooo.free.fr/hanziVG/)
* Attribution. You must attribute the work by stating your use of KanjiVG in
  your own copyright header and linking to KanjiVG's website
  (http://kanjivg.tagaini.net)
* Share Alike. If you alter, transform, or build upon this work, you may
  distribute the resulting work only under the same or similar license to this
  one.

See http://creativecommons.org/licenses/by-sa/3.0/ for more details.
-->
<!DOCTYPE svg PUBLIC "-//W3C//DTD SVG 1.0//EN" "http://www.w3.org/TR/2001/REC-SVG-20010904/DTD/svg10.dtd" [
<!ATTLIST g
xmlns:kvg CDATA #FIXED "http://kanjivg.tagaini.net"
kvg:element CDATA #IMPLIED
kvg:variant CDATA #IMPLIED
kvg:partial CDATA #IMPLIED
kvg:original CDATA #IMPLIED
kvg:part CDATA #IMPLIED
kvg:number CDATA #IMPLIED
kvg:tradForm CDATA #IMPLIED
kvg:radicalForm CDATA #IMPLIED
kvg:position CDATA #IMPLIED
kvg:radical CDATA #IMPLIED
kvg:phon CDATA #IMPLIED >
<!ATTLIST path
xmlns:kvg CDATA #FIXED "http://kanjivg.tagaini.net"
kvg:type CDATA #IMPLIED >
]>
<svg xmlns="http://www.w3.org/2000/svg" width="109" height="109" viewBox="0 0 109 109">
<g id="kvg:StrokePaths_07b80" style="fill:none;stroke:#000000;stroke-width:3;stroke-linecap:round;stroke-linejoin:round;">
<g id="kvg:07b80" kvg:element="简">
	<g id="kvg:07b80-g1" kvg:element="竹" kvg:variant="true" kvg:position="top" kvg:radical="general">
		<g id="kvg:07b80-g2" kvg:position="left">
			<path id="kvg:07b80-s1" kvg:type="㇒" d="M30.5,11.75c0.07,1.02,0,1.77-0.4,2.72C28.48,18.33,24.25,24.5,17.75,31"/>
			<path id="kvg:07b80-s2" kvg:type="㇐b" d="M28.48,22.79c2.95,0,11.72-1.77,17.28-2.49c1.43-0.19,2.64-0.3,3.49-0.3"/>
			<path id="kvg:07b80-s3" kvg:type="㇔/㇑" d="M35,24.75c1.96,1.23,5.07,5.06,5.56,6.97"/>
		</g>
		<g id="kvg:07b80-g3" kvg:position="right">
			<path id="kvg:07b80-s4" kvg:type="㇒" d="M66.74,10c0.08,0.95-0.04,1.58-0.43,2.46c-1.74,4.01-5.69,9.38-10.81,14.04"/>
			<path id="kvg:07b80-s5" kvg:type="㇐b" d="M65.48,20.41c3.89,0,16.07-2.17,23.32-3.02c1.56-0.19,2.89-0.3,3.83-0.3"/>
			<path id="kvg:07b80-s6" kvg:type="㇒/㇚" d="M76.78,22.5c0.05,0.5,0.04,1-0.2,1.44c-1.08,1.94-2.95,4.56-5.08,6.31"/>
		</g>
	</g>
	<g id="kvg:07b80-g4" kvg:element="间" kvg:position="bottom" kvg:phon="間">
		<g id="kvg:07b80-g5" kvg:element="门" kvg:radical="general">
			<path id="kvg:07b80-s7" kvg:type="㇔" d="m25.42 39.63c2.51 0.96 8.97 6.38 9.5 8.17"/>
			<path id="kvg:07b80-s8" kvg:type="㇑" d="m23.94 50.3c0.74 0.53 0.95 1.72 0.95 2.83c0 11.4 -0.36 29.32 -0.36 43.99"/>
			<path id="kvg:07b80-s9" kvg:type="㇆a" d="m45 42.48c11.75 -1.28 28.68 -3.26 35 -3.79c3.5 -0.29 5.25 0.58 5.25 3.62c0 1.63 0.08 49.18 0.08 51.51c0 7.76 -6.08 2.86 -8.58 1.11"/>
		</g>
		<g id="kvg:07b80-g6" kvg:element="日">
			<path id="kvg:07b80-s10" kvg:type="㇑" d="m40.56 55.17c0.74 0.52 1.04 1.35 1.04 2.09c0 0.58 -0.08 14.59 -0.05 20.34c0.01 1.58 0.02 1.94 0.05 2.1"/>
			<path id="kvg:07b80-s11" kvg:type="㇕a" d="m42.26 55.96c5.56 -0.34 19.71 -1.39 21.3 -1.47c1.68 -0.09 2.76 1.02 2.63 1.57c-0.21 0.87 -0.41 14.46 -0.48 20.31c-0.02 1.6 -0.03 2.66 -0.03 2.78"/>
			<path id="kvg:07b80-s12" kvg:type="㇐a" d="m42.64 66.12c5.11 -0.34 17.36 -1.21 21.88 -1.45"/>
			<path id="kvg:07b80-s13" kvg:type="㇐a" d="m42.25 77.46c5.13 -0.21 17 -1.08 22.26 -1.43"/>
		</g>
	</g>
</g>
</g>
<g id="kvg:StrokeNumbers_07b80" style="font-size:8;fill:#808080">
	<text transform="matrix(1 0 0 1 20.50 13.50)">1</text>
	<text transform="matrix(1 0 0 1 14.50 20.50)">2</text>
	<text transform="matrix(1 0 0 1 30.50 24.50)">3</text>
	<text transform="matrix(1 0 0 1 66.50 12.50)">4</text>
	<text transform="matrix(1 0 0 1 53.50 17.50)">5</text>
	<text transform="matrix(1 0 0 1 75.50 22.05)">6</text>
	<text transform="matrix(1 0 0 1 15.50 45.63)">7</text>
	<text transform="matrix(1 0 0 1 12.50 62.50)">8</text>
	<text transform="matrix(1 0 0 1 36.75 43.63)">9</text>
	<text transform="matrix(1 0 0 1 23.50 62.50)">10</text>
	<text transform="matrix(1 0 0 1 40.75 56.50)">11</text>
	<text transform="matrix(1 0 0 1 40.50 69.50)">12</text>
	<text transform="matrix(1 0 0 1 40.31 82.50)">13</text>
</g>
</svg>
