<?xml version="1.0" encoding="UTF-8"?>
<!--
Copyright (C) 2016 François Mizessyn.
This work makes an extensive use of kanjiVG Copyright (C) 2009/2010/2011 Ulrich Apel.
This work is distributed under the conditions of the Creative Commons
Attribution-Share Alike 3.0 Licence. This means you are free:
* to Share - to copy, distribute and transmit the work
* to Remix - to adapt the work

Under the following conditions:
* Attribution. You must attribute the work by stating your use of HanjiVG in
  your own copyright header and linking to HanjiVG's website
  (http://gooo.free.fr/hanziVG/)
* Attribution. You must attribute the work by stating your use of KanjiVG in
  your own copyright header and linking to KanjiVG's website
  (http://kanjivg.tagaini.net)
* Share Alike. If you alter, transform, or build upon this work, you may
  distribute the resulting work only under the same or similar license to this
  one.

See http://creativecommons.org/licenses/by-sa/3.0/ for more details.
-->
<!DOCTYPE svg PUBLIC "-//W3C//DTD SVG 1.0//EN" "http://www.w3.org/TR/2001/REC-SVG-20010904/DTD/svg10.dtd" [
<!ATTLIST g
xmlns:kvg CDATA #FIXED "http://kanjivg.tagaini.net"
kvg:element CDATA #IMPLIED
kvg:variant CDATA #IMPLIED
kvg:partial CDATA #IMPLIED
kvg:original CDATA #IMPLIED
kvg:part CDATA #IMPLIED
kvg:number CDATA #IMPLIED
kvg:tradForm CDATA #IMPLIED
kvg:radicalForm CDATA #IMPLIED
kvg:position CDATA #IMPLIED
kvg:radical CDATA #IMPLIED
kvg:phon CDATA #IMPLIED >
<!ATTLIST path
xmlns:kvg CDATA #FIXED "http://kanjivg.tagaini.net"
kvg:type CDATA #IMPLIED >
]>
<svg xmlns="http://www.w3.org/2000/svg" width="109" height="109" viewBox="0 0 109 109">
<g id="kvg:StrokePaths_07bee" style="fill:none;stroke:#000000;stroke-width:3;stroke-linecap:round;stroke-linejoin:round;">
<g id="kvg:07bee" kvg:element="篮">
	<g id="kvg:07bee-g1" kvg:element="竹" kvg:variant="true" kvg:position="top" kvg:radical="general">
		<g id="kvg:07bee-g2" kvg:position="left">
			<path id="kvg:07bee-s1" kvg:type="㇒" d="M30.75,12.5c0.12,1.03,0.02,2.03-0.42,2.95C28,20.38,23.75,26.38,16.5,32.25"/>
			<path id="kvg:07bee-s2" kvg:type="㇐b" d="M29.23,24.29c1.06,0,2.72-0.17,4.68-0.42c3.56-0.46,8.11-1.19,11.83-1.66c2.14-0.27,4.01-0.46,5.25-0.46"/>
			<path id="kvg:07bee-s3" kvg:type="㇔/㇑" d="M34.52,26.58c1.43,1.57,2.19,6.45,2.54,8.88"/>
		</g>
		<g id="kvg:07bee-g3" kvg:position="right">
			<path id="kvg:07bee-s4" kvg:type="㇒" d="M63.74,12c0,1.38-0.26,2.23-0.68,3.15C61.46,19.7,57.63,25.49,53,30.75"/>
			<path id="kvg:07bee-s5" kvg:type="㇐b" d="M63.98,21.91c1.04,0,2.68,0.09,4.66-0.16c4.97-0.62,12.1-1.93,17.36-2.65c2.24-0.31,4.14-0.51,5.38-0.51"/>
			<path id="kvg:07bee-s11" kvg:type="㇔/㇑" d="m70.66 23.58c3.2 2.1 7.52 7.87 8.31 11.13"/>
		</g>
	</g>
	<g id="kvg:07bee-g4" kvg:element="监" kvg:position="bottom">
		<g id="kvg:07bee-g5" kvg:position="top">
			<g id="kvg:07bee-g6" kvg:element="刂" kvg:variant="true" kvg:original="刀" kvg:position="right" kvg:radical="general">
				<path id="kvg:07bee-s7" kvg:type="㇑" d="m28.51 37.67c0.49 0.46 0.88 1.34 0.88 2.51c0 3.52 0 14.29 -0.01 20.08c0 1.63 0 2.88 0 3.5"/>
				<path id="kvg:07bee-s8" kvg:type="㇚" d="m43.51 37.17c0.63 0.63 0.88 1.4 0.88 2.51c0 7.28 0 22.08 0 24.56c0 6.57 -3.6 0.75 -4.36 0.13"/>
			</g>
			<g id="kvg:07bee-g7" kvg:position="right">
				<path id="kvg:07bee-s9" kvg:type="㇒" d="M67.27,37.75c0.1,1.43-0.09,1.97-0.79,3.31c-2.41,4.61-6.35,11.02-11.73,16.83"/>
				<path id="kvg:07bee-s10" kvg:type="㇐" d="M65,48.57c2.12,0.43,3.74,0.22,5.13,0.13c4.21-0.26,8.93-1.28,12.78-2.01c2.04-0.38,3.83-0.44,5.83,0.04"/>
				<path id="kvg:07bee-s11" kvg:type="㇔/㇑" d="m69.66 50.58c3.2 2.1 7.52 7.87 8.31 11.13"/>
			</g>
		</g>
		<g id="kvg:07bee-g8" kvg:element="皿" kvg:position="bottom">
			<path id="kvg:07bee-s12" kvg:type="㇑a" d="M28.21,74.33c0.7,0.92,1.03,1.79,1.11,2.67c0.63,7,0.73,9.5,1.29,17.56"/>
			<path id="kvg:07bee-s13" kvg:type="㇕b" d="M30.1,76.23c10.6-0.94,38.89-3.16,47.27-3.74c3.05-0.21,5.26,0.08,4.53,3.77c-0.91,4.62-1.63,9.01-3.12,15.96"/>
			<path id="kvg:07bee-s14" kvg:type="㇑a" d="M44.86,76.69c0.51,0.68,0.76,1.31,0.91,2.31c0.74,5.01,1.41,8.72,2.07,14.92"/>
			<path id="kvg:07bee-s15" kvg:type="㇑a" d="M63.54,75.26c0.46,0.86,0.59,1.86,0.44,2.99c-0.76,5.69-0.82,7.11-1.83,14.38"/>
			<path id="kvg:07bee-s16" kvg:type="㇐" d="M14.5,95.3c3.95,1.16,8.19,0.87,12.25,0.61c13.96-0.89,39.38-2.16,58.27-2.85c3.93-0.14,7.76,0.43,11.59,1.07"/>
		</g>
	</g>
</g>
</g>
<g id="kvg:StrokeNumbers_07bee" style="font-size:8;fill:#808080">
	<text transform="matrix(1 0 0 1 23.50 12.50)">1</text>
	<text transform="matrix(1 0 0 1 35.50 20.85)">2</text>
	<text transform="matrix(1 0 0 1 28.50 32.50)">3</text>
	<text transform="matrix(1 0 0 1 55.50 12.50)">4</text>
	<text transform="matrix(1 0 0 1 68.50 18.50)">5</text>
	<text transform="matrix(1 0 0 1 64.25 30.50)">6</text>
	<text transform="matrix(1 0 0 1 17.25 45.65)">7</text>
	<text transform="matrix(1 0 0 1 33.25 45.25)">8</text>
	<text transform="matrix(1 0 0 1 56.25 42.13)">9</text>
	<text transform="matrix(1 0 0 1 66.00 44.25)">10</text>
	<text transform="matrix(1 0 0 1 60.25 56.25)">11</text>
	<text transform="matrix(1 0 0 1 17.25 80.25)">12</text>
	<text transform="matrix(1 0 0 1 24.25 72.25)">13</text>
	<text transform="matrix(1 0 0 1 36.00 85.25)">14</text>
	<text transform="matrix(1 0 0 1 54.25 84.25)">15</text>
	<text transform="matrix(1 0 0 1 5.25 93.25)">16</text>
</g>
</svg>
