<?xml version="1.0" encoding="UTF-8"?>
<!--
Copyright (C) 2016 François Mizessyn.
This work makes an extensive use of kanjiVG Copyright (C) 2009/2010/2011 Ulrich Apel.
This work is distributed under the conditions of the Creative Commons
Attribution-Share Alike 3.0 Licence. This means you are free:
* to Share - to copy, distribute and transmit the work
* to Remix - to adapt the work

Under the following conditions:
* Attribution. You must attribute the work by stating your use of HanjiVG in
  your own copyright header and linking to HanjiVG's website
  (http://gooo.free.fr/hanziVG/)
* Attribution. You must attribute the work by stating your use of KanjiVG in
  your own copyright header and linking to KanjiVG's website
  (http://kanjivg.tagaini.net)
* Share Alike. If you alter, transform, or build upon this work, you may
  distribute the resulting work only under the same or similar license to this
  one.

See http://creativecommons.org/licenses/by-sa/3.0/ for more details.
-->
<!DOCTYPE svg PUBLIC "-//W3C//DTD SVG 1.0//EN" "http://www.w3.org/TR/2001/REC-SVG-20010904/DTD/svg10.dtd" [
<!ATTLIST g
xmlns:kvg CDATA #FIXED "http://kanjivg.tagaini.net"
kvg:element CDATA #IMPLIED
kvg:variant CDATA #IMPLIED
kvg:partial CDATA #IMPLIED
kvg:original CDATA #IMPLIED
kvg:part CDATA #IMPLIED
kvg:number CDATA #IMPLIED
kvg:tradForm CDATA #IMPLIED
kvg:radicalForm CDATA #IMPLIED
kvg:position CDATA #IMPLIED
kvg:radical CDATA #IMPLIED
kvg:phon CDATA #IMPLIED >
<!ATTLIST path
xmlns:kvg CDATA #FIXED "http://kanjivg.tagaini.net"
kvg:type CDATA #IMPLIED >
]>
<svg xmlns="http://www.w3.org/2000/svg" width="109" height="109" viewBox="0 0 109 109">
<g id="kvg:StrokePaths_07cd5" style="fill:none;stroke:#000000;stroke-width:3;stroke-linecap:round;stroke-linejoin:round;">
<g id="kvg:07cd5" kvg:element="糕">
	<g id="kvg:07cd5-g1" kvg:element="米" kvg:variant="true" kvg:position="left" kvg:radical="general">
		<path id="kvg:07cd5-s1" kvg:type="㇔" d="M14.19,26.14c2.65,2.21,6.65,8.47,7.31,11.91"/>
		<path id="kvg:07cd5-s2" kvg:type="㇒" d="M44.26,22.47c0.02,0.31,0.04,0.81-0.04,1.26c-0.51,2.66-3.42,8.49-7.4,12.06"/>
		<path id="kvg:07cd5-s3" kvg:type="㇐" d="M11.35,45.2c0.56,0.19,2.05,0.66,3.53,0.56c5.33-0.37,21.15-2.21,27.18-2.81c1.48-0.15,1.86-0.19,2.79,0"/>
		<path id="kvg:07cd5-s4" kvg:type="㇑" d="M29.02,16.46c0.88,0.45,1.41,2.03,1.59,2.94s0,69.74-0.18,75.39"/>
		<path id="kvg:07cd5-s5" kvg:type="㇒" d="M30.52,44.96C26.69,56.45,17.37,72.59,8.75,79.23"/>
		<path id="kvg:07cd5-s6" kvg:type="㇔/㇏" d="M33.37,51.32c4.46,2.97,7.74,6.39,9.4,11.4"/>
	</g>
	<g id="kvg:07cd5-g2" kvg:element="羔">
		<g id="kvg:07cd5-g3" kvg:element="羊" kvg:variant="true" kvg:position="top" kvg:radical="general">
			<path id="kvg:07cd5-s7" kvg:type="㇔" d="m59.31 15.65c2.07 2.36 5.7 9.71 6.22 13.39"/>
			<path id="kvg:07cd5-s8" kvg:type="㇒" d="m92.19 12.75c0.02 0.34 0.03 0.87 -0.03 1.37c-0.38 2.88 -3.31 10.83 -6.14 15.23"/>
			<path id="kvg:07cd5-s9" kvg:type="㇐" d="m51.82 35.33c0.77 0.33 2.2 0.4 2.97 0.33c7.64 -0.7 28.1 -4.63 35.09 -4.51c1.29 0.02 2.07 0.16 2.71 0.32"/>
			<path id="kvg:07cd5-s10" kvg:type="㇐" d="m55.67 50.16c0.86 0.33 2.43 0.38 3.29 0.33c8.99 -0.56 19.15 -3.28 27.61 -3.62c1.43 -0.06 2.29 0.16 3 0.32"/>
			<path id="kvg:07cd5-s11" kvg:type="㇑a" d="m71.18 33.76c0.73 0.45 1.32 2.01 1.32 2.95c0 7.73 -0.01 20.34 -0.01 28.43"/>
			<path id="kvg:07cd5-s12" kvg:type="㇐" d="m49.92 67.67c1.03 0.42 2.91 0.55 3.92 0.42c7 -0.89 27.11 -3.65 38.35 -4.5c1.7 -0.13 2.73 0.2 3.58 0.41"/>
		</g>
		<g id="kvg:07cd5-g4" kvg:element="灬" kvg:variant="true" kvg:original="火" kvg:position="bottom">
			<path id="kvg:07cd5-s13" kvg:type="㇔" d="m54.55 77.95c0 6.45 -3.8 15.96 -4.8 17.8"/>
			<path id="kvg:07cd5-s14" kvg:type="㇔" d="m64.46 74.61c1.89 3.91 3.69 14.66 4.16 20.74"/>
			<path id="kvg:07cd5-s15" kvg:type="㇔" d="m77.42 74.58c1.52 3.6 3.93 14.81 4.31 20.41"/>
			<path id="kvg:07cd5-s16" kvg:type="㇔" d="m88.61 74.61c2.5 3.72 6.45 15.31 7.07 21.1"/>
		</g>
	</g>
</g>
</g>
<g id="kvg:StrokeNumbers_07cd5" style="font-size:8;fill:#808080">
	<text transform="matrix(1 0 0 1 7.50 25.50)">1</text>
	<text transform="matrix(1 0 0 1 36.66 19.50)">2</text>
	<text transform="matrix(1 0 0 1 4.50 45.85)">3</text>
	<text transform="matrix(1 0 0 1 19.50 16.50)">4</text>
	<text transform="matrix(1 0 0 1 19.72 55.50)">5</text>
	<text transform="matrix(1 0 0 1 38.50 52.50)">6</text>
	<text transform="matrix(1 0 0 1 60.25 14.25)">7</text>
	<text transform="matrix(1 0 0 1 80.25 13.25)">8</text>
	<text transform="matrix(1 0 0 1 50.25 31.25)">9</text>
	<text transform="matrix(1 0 0 1 48.25 48.25)">10</text>
	<text transform="matrix(1 0 0 1 66.19 30.25)">11</text>
	<text transform="matrix(1 0 0 1 44.19 64.25)">12</text>
	<text transform="matrix(1 0 0 1 38.25 78.43)">13</text>
	<text transform="matrix(1 0 0 1 54.25 77.25)">14</text>
	<text transform="matrix(1 0 0 1 69.25 76.25)">15</text>
	<text transform="matrix(1 0 0 1 85.19 75.21)">16</text>
</g>
</svg>
