<?xml version="1.0" encoding="UTF-8" standalone="no"?>
<!--
Copyright (C) 2016 François Mizessyn.
This work makes an extensive use of kanjiVG Copyright (C) 2009/2010/2011 Ulrich Apel.
This work is distributed under the conditions of the Creative Commons
Attribution-Share Alike 3.0 Licence. This means you are free:
* to Share - to copy, distribute and transmit the work
* to Remix - to adapt the work

Under the following conditions:
* Attribution. You must attribute the work by stating your use of HanjiVG in
  your own copyright header and linking to HanjiVG's website
  (http://gooo.free.fr/hanziVG/)
* Attribution. You must attribute the work by stating your use of KanjiVG in
  your own copyright header and linking to KanjiVG's website
  (http://kanjivg.tagaini.net)
* Share Alike. If you alter, transform, or build upon this work, you may
  distribute the resulting work only under the same or similar license to this
  one.

See http://creativecommons.org/licenses/by-sa/3.0/ for more details.
-->
<!DOCTYPE svg PUBLIC "-//W3C//DTD SVG 1.0//EN" "http://www.w3.org/TR/2001/REC-SVG-20010904/DTD/svg10.dtd" [
<!ATTLIST g
xmlns:kvg CDATA #FIXED "http://kanjivg.tagaini.net"
kvg:element CDATA #IMPLIED
kvg:variant CDATA #IMPLIED
kvg:partial CDATA #IMPLIED
kvg:original CDATA #IMPLIED
kvg:part CDATA #IMPLIED
kvg:number CDATA #IMPLIED
kvg:tradForm CDATA #IMPLIED
kvg:radicalForm CDATA #IMPLIED
kvg:position CDATA #IMPLIED
kvg:radical CDATA #IMPLIED
kvg:phon CDATA #IMPLIED >
<!ATTLIST path
xmlns:kvg CDATA #FIXED "http://kanjivg.tagaini.net"
kvg:type CDATA #IMPLIED >
]>
<svg xmlns="http://www.w3.org/2000/svg" width="109" height="109" viewBox="0 0 109 109">
<g id="kvg:StrokePaths_07d27" style="fill:none;stroke:#000000;stroke-width:3;stroke-linecap:round;stroke-linejoin:round;">
<g id="kvg:07d27" kvg:element="紧">
	<g id="kvg:07d27-g1" kvg:position="top">
		<g id="kvg:07d27-g2" kvg:position="left">
			<path id="kvg:07d27-s1" kvg:type="㇑" d="M21.46,20.12c0.71,0.71,1.26,1.65,1.26,2.99c0,5.61-0.08,13.76-0.12,17.77c-0.01,1.77-0.02,3.35-0.02,4.63"/>
			<path id="kvg:07d27-s2" kvg:type="㇑" d="M37.46,17.12c0.71,0.71,1.26,1.65,1.26,2.99c0,5.61-0.08,13.76-0.12,22.77c-0.01,1.77-0.02,3.35-0.02,4.63"/>
		</g>
		<g id="kvg:07d27-g3" kvg:element="又" kvg:position="right">
			<path id="kvg:07d27-s3" kvg:type="㇇" d="M57.91,16.35c1.71,0.37,3.5,0.39,5.24,0.06c4.04-0.76,12.2-3.01,15.9-3.82c2.55-0.56,4.38,0.71,3.04,3.75C76.28,29.63,66.55,39.7,55.75,44.75"/>
			<path id="kvg:07d27-s4" kvg:type="㇏" d="M57.07,22.82c2.99,0.5,15.35,11.82,26.47,18.69c2.47,1.53,5.07,3.26,7.7,4.51"/>
		</g>
	</g>
	<g id="kvg:07d27-g4" kvg:element="糸" kvg:position="bottom" kvg:radical="general">
		<path id="kvg:07d27-s5" kvg:type="㇜" d="M50.16,50c0.22,1.5-0.23,2.2-1.49,3.03c-5.67,3.72-8.54,5.47-14.28,9.02c-0.94,0.58-0.87,2.23,1,1.96c7.74-1.14,14.49-1.89,21.36-2.01"/>
		<path id="kvg:07d27-s6" kvg:type="㇜" d="M69.2,53.47c0.05,0.9-0.57,2.4-1.75,3.12C56.98,62.95,49.5,66.75,32.1,75.91c-1.69,0.89-1.48,2.14,0.48,1.81c8.16-1.37,31.78-4.51,42.26-5.82"/>
		<path id="kvg:07d27-s7" kvg:type="㇔" d="M69.87,64.98c4.34,2.4,11.21,9.87,12.29,13.6"/>
		<path id="kvg:07d27-s8" kvg:type="㇑" d="M54.37,77.57c0.59,0.59,0.97,1.56,0.97,2.71c0,2.59-0.05,8.89-0.08,14.22c-0.01,1.64-0.01,3.18-0.01,4.5"/>
		<path id="kvg:07d27-s9" kvg:type="㇒" d="M38.33,83.93c0.17,0.82-0.2,1.7-1.08,2.48c-3.73,3.31-13.38,9.07-19,11.66"/>
		<path id="kvg:07d27-s10" kvg:type="㇔" d="M71,82.88c5.54,2.78,15.02,10.19,17,12.97"/>
	</g>
</g>
</g>
<g id="kvg:StrokeNumbers_07d27" style="font-size:8;fill:#808080">
	<text transform="matrix(1 0 0 1 12.50 22.50)">1</text>
	<text transform="matrix(1 0 0 1 27.50 15.50)">2</text>
	<text transform="matrix(1 0 0 1 57.50 13.50)">3</text>
	<text transform="matrix(1 0 0 1 45.75 25.55)">4</text>
	<text transform="matrix(1 0 0 1 43.50 47.50)">5</text>
	<text transform="matrix(1 0 0 1 65.25 50.63)">6</text>
	<text transform="matrix(1 0 0 1 60.50 68.50)">7</text>
	<text transform="matrix(1 0 0 1 44.25 84.50)">8</text>
	<text transform="matrix(1 0 0 1 24.50 87.13)">9</text>
	<text transform="matrix(1 0 0 1 66.50 81.13)">10</text>
</g>
</svg>
