<?xml version="1.0" encoding="UTF-8"?>
<!--
Copyright (C) 2016 François Mizessyn.
This work makes an extensive use of kanjiVG Copyright (C) 2009/2010/2011 Ulrich Apel.
This work is distributed under the conditions of the Creative Commons
Attribution-Share Alike 3.0 Licence. This means you are free:
* to Share - to copy, distribute and transmit the work
* to Remix - to adapt the work

Under the following conditions:
* Attribution. You must attribute the work by stating your use of HanjiVG in
  your own copyright header and linking to HanjiVG's website
  (http://gooo.free.fr/hanziVG/)
* Attribution. You must attribute the work by stating your use of KanjiVG in
  your own copyright header and linking to KanjiVG's website
  (http://kanjivg.tagaini.net)
* Share Alike. If you alter, transform, or build upon this work, you may
  distribute the resulting work only under the same or similar license to this
  one.

See http://creativecommons.org/licenses/by-sa/3.0/ for more details.
-->
<!DOCTYPE svg PUBLIC "-//W3C//DTD SVG 1.0//EN" "http://www.w3.org/TR/2001/REC-SVG-20010904/DTD/svg10.dtd" [
<!ATTLIST g
xmlns:kvg CDATA #FIXED "http://kanjivg.tagaini.net"
kvg:element CDATA #IMPLIED
kvg:variant CDATA #IMPLIED
kvg:partial CDATA #IMPLIED
kvg:original CDATA #IMPLIED
kvg:part CDATA #IMPLIED
kvg:number CDATA #IMPLIED
kvg:tradForm CDATA #IMPLIED
kvg:radicalForm CDATA #IMPLIED
kvg:position CDATA #IMPLIED
kvg:radical CDATA #IMPLIED
kvg:phon CDATA #IMPLIED >
<!ATTLIST path
xmlns:kvg CDATA #FIXED "http://kanjivg.tagaini.net"
kvg:type CDATA #IMPLIED >
]>
<svg xmlns="http://www.w3.org/2000/svg" width="109" height="109" viewBox="0 0 109 109">
<g id="kvg:StrokePaths_07ea6" style="fill:none;stroke:#000000;stroke-width:3;stroke-linecap:round;stroke-linejoin:round;">
<g id="kvg:07ea6" kvg:element="约">
	<g id="kvg:07ea6-g1" kvg:element="纟" kvg:position="left" kvg:radical="general">
		<path id="kvg:07ea6-s1" kvg:type="㇜" d="m30.08 15.2c0.29 1.37 0.23 3.08 -0.4 4.49c-2.73 6.11 -6 12.55 -10.03 18.32c-0.9 1.28 -0.8 3.04 0.35 3.54c3.09 1.33 6.62 2.7 9.12 4.79"/>
		<path id="kvg:07ea6-s2" kvg:type="㇜" d="m41.8 26.32c0.2 0.98 -0.07 3 -0.5 3.71c-6.8 11.08 -15.55 24.13 -23.48 34.43c-2.45 3.19 -1.27 5.69 1.65 4.61c6.65 -2.46 11.53 -4.72 21.55 -8.74"/>
		<path id="kvg:07ea6-s3" kvg:type="㇐" d="m12.75 86.15c2.12 0.55 4.54 0.58 6.14 0.25c5.84 -1.18 18.54 -4.14 24.61 -5.1c1.53 -0.24 3.5 -0.31 5 0.22"/>
	</g>
	<g id="kvg:07ea6-g2" kvg:element="勺" kvg:position="right">
		<g id="kvg:07ea6-g3" kvg:element="勹">
			<g id="kvg:07ea6-g4" kvg:element="丿">
				<path id="kvg:07ea6-s4" kvg:type="㇒" d="M64.35,14.5c0.27,1,0.07,2.31-0.34,3.5C61.25,26.12,57,37,48.75,48.29"/>
			</g>
			<path id="kvg:07ea6-s5" kvg:type="㇆" d="M58.96,37.97c1.91,0.53,3.08,0.51,4.56,0.23c3.1-0.58,20.46-5.03,24.38-5.77c3.59-0.68,5.84,1.44,5.6,5.75c-0.48,8.43-3.88,37.82-12.32,52.4c-2.34,4.05-5.34,1.81-7.45-1.21"/>
		</g>
		<g id="kvg:07ea6-g5" kvg:element="丶">
			<path id="kvg:07ea6-s6" kvg:type="㇔" d="M61.52,54.28c3.22,2.23,8.33,9.17,9.13,12.64"/>
		</g>
	</g>
</g>
</g>
<g id="kvg:StrokeNumbers_07ea6" style="font-size:8;fill:#808080">
	<text transform="matrix(1 0 0 1 20.50 18.50)">1</text>
	<text transform="matrix(1 0 0 1 35.50 23.56)">2</text>
	<text transform="matrix(1 0 0 1 12.99 83.91)">3</text>
	<text transform="matrix(1 0 0 1 55.25 12.63)">4</text>
	<text transform="matrix(1 0 0 1 64.50 34.50)">5</text>
	<text transform="matrix(1 0 0 1 55.50 54.50)">6</text>
</g>
</svg>
