<?xml version="1.0" encoding="UTF-8"?>
<!--
Copyright (C) 2016 François Mizessyn.
This work makes an extensive use of kanjiVG Copyright (C) 2009/2010/2011 Ulrich Apel.
This work is distributed under the conditions of the Creative Commons
Attribution-Share Alike 3.0 Licence. This means you are free:
* to Share - to copy, distribute and transmit the work
* to Remix - to adapt the work

Under the following conditions:
* Attribution. You must attribute the work by stating your use of HanjiVG in
  your own copyright header and linking to HanjiVG's website
  (http://gooo.free.fr/hanziVG/)
* Attribution. You must attribute the work by stating your use of KanjiVG in
  your own copyright header and linking to KanjiVG's website
  (http://kanjivg.tagaini.net)
* Share Alike. If you alter, transform, or build upon this work, you may
  distribute the resulting work only under the same or similar license to this
  one.

See http://creativecommons.org/licenses/by-sa/3.0/ for more details.
-->
<!DOCTYPE svg PUBLIC "-//W3C//DTD SVG 1.0//EN" "http://www.w3.org/TR/2001/REC-SVG-20010904/DTD/svg10.dtd" [
<!ATTLIST g
xmlns:kvg CDATA #FIXED "http://kanjivg.tagaini.net"
kvg:element CDATA #IMPLIED
kvg:variant CDATA #IMPLIED
kvg:partial CDATA #IMPLIED
kvg:original CDATA #IMPLIED
kvg:part CDATA #IMPLIED
kvg:number CDATA #IMPLIED
kvg:tradForm CDATA #IMPLIED
kvg:radicalForm CDATA #IMPLIED
kvg:position CDATA #IMPLIED
kvg:radical CDATA #IMPLIED
kvg:phon CDATA #IMPLIED >
<!ATTLIST path
xmlns:kvg CDATA #FIXED "http://kanjivg.tagaini.net"
kvg:type CDATA #IMPLIED >
]>
<svg xmlns="http://www.w3.org/2000/svg" width="109" height="109" viewBox="0 0 109 109">
<g id="kvg:StrokePaths_07eaa" style="fill:none;stroke:#000000;stroke-width:3;stroke-linecap:round;stroke-linejoin:round;">
<g id="kvg:07eaa" kvg:element="纪">
	<g id="kvg:07ecf-g1" kvg:element="纟" kvg:position="left" kvg:radical="general">
		<path id="kvg:07ea2-s1" kvg:type="㇜" d="m30.08 15.2c0.29 1.37 0.23 3.08 -0.4 4.49c-2.73 6.11 -6 12.55 -10.03 18.32c-0.9 1.28 -0.8 3.04 0.35 3.54c3.09 1.33 6.62 2.7 9.12 4.79"/>
		<path id="kvg:07ea2-s2" kvg:type="㇜" d="m41.8 26.32c0.2 0.98 -0.07 3 -0.5 3.71c-6.8 11.08 -15.55 24.13 -23.48 34.43c-2.45 3.19 -1.27 5.69 1.65 4.61c6.65 -2.46 11.53 -4.72 21.55 -8.74"/>
		<path id="kvg:07ea2-s3" kvg:type="㇐" d="m12.75 86.15c2.12 0.55 4.54 0.58 6.14 0.25c5.84 -1.18 18.54 -4.14 24.61 -5.1c1.53 -0.24 3.5 -0.31 5 0.22"/>
	</g>
	<g id="kvg:07eaa-g2" kvg:element="己" kvg:position="right" kvg:phon="己">
		<path id="kvg:07eaa-s4" kvg:type="㇕c" d="M53.76,26.93c1.74,0.82,2.85,0.92,5.12,0.59c5.07-0.74,19.27-2.65,23.64-3.21c3.1-0.4,4.51,1.26,3.86,4.46c-0.2,0.96-2.19,7.86-3.49,17.12"/>
		<path id="kvg:07eaa-s5" kvg:type="㇐" d="M54.44,48.9c1.83,0.6,3.45,0.85,5.32,0.66c6.1-0.62,12.37-1.56,21.27-2.5c1.21-0.13,2.35-0.44,3.59-0.29"/>
		<path id="kvg:07eaa-s6" kvg:type="㇟" d="M55.49,49.65c0.81,0.81,1.27,1.98,1.27,3.67c0,7.43,0.1,13.31,0.1,20.06c0,16.87,1.14,17.97,18.07,17.97c18.08,0,18.83-1.59,18.83-11.07"/>
	</g>
</g>
</g>
<g id="kvg:StrokeNumbers_07eaa" style="font-size:8;fill:#808080">
	<text transform="matrix(1 0 0 1 20.50 18.50)">1</text>
	<text transform="matrix(1 0 0 1 35.50 23.56)">2</text>
	<text transform="matrix(1 0 0 1 12.99 83.91)">3</text>
	<text transform="matrix(1 0 0 1 55.99 24.50)">4</text>
	<text transform="matrix(1 0 0 1 55.99 46.50)">5</text>
	<text transform="matrix(1 0 0 1 59.50 62.53)">6</text>
</g>
</svg>
