<?xml version="1.0" encoding="UTF-8"?>
<!--
Copyright (C) 2016 François Mizessyn.
This work makes an extensive use of kanjiVG Copyright (C) 2009/2010/2011 Ulrich Apel.
This work is distributed under the conditions of the Creative Commons
Attribution-Share Alike 3.0 Licence. This means you are free:
* to Share - to copy, distribute and transmit the work
* to Remix - to adapt the work

Under the following conditions:
* Attribution. You must attribute the work by stating your use of HanjiVG in
  your own copyright header and linking to HanjiVG's website
  (http://gooo.free.fr/hanziVG/)
* Attribution. You must attribute the work by stating your use of KanjiVG in
  your own copyright header and linking to KanjiVG's website
  (http://kanjivg.tagaini.net)
* Share Alike. If you alter, transform, or build upon this work, you may
  distribute the resulting work only under the same or similar license to this
  one.

See http://creativecommons.org/licenses/by-sa/3.0/ for more details.
-->
<!DOCTYPE svg PUBLIC "-//W3C//DTD SVG 1.0//EN" "http://www.w3.org/TR/2001/REC-SVG-20010904/DTD/svg10.dtd" [
<!ATTLIST g
xmlns:kvg CDATA #FIXED "http://kanjivg.tagaini.net"
kvg:element CDATA #IMPLIED
kvg:variant CDATA #IMPLIED
kvg:partial CDATA #IMPLIED
kvg:original CDATA #IMPLIED
kvg:part CDATA #IMPLIED
kvg:number CDATA #IMPLIED
kvg:tradForm CDATA #IMPLIED
kvg:radicalForm CDATA #IMPLIED
kvg:position CDATA #IMPLIED
kvg:radical CDATA #IMPLIED
kvg:phon CDATA #IMPLIED >
<!ATTLIST path
xmlns:kvg CDATA #FIXED "http://kanjivg.tagaini.net"
kvg:type CDATA #IMPLIED >
]>
<svg xmlns="http://www.w3.org/2000/svg" width="109" height="109" viewBox="0 0 109 109">
<g id="kvg:StrokePaths_07ea7" style="fill:none;stroke:#000000;stroke-width:3;stroke-linecap:round;stroke-linejoin:round;">
<g id="kvg:07ea7" kvg:element="级">
	<g id="kvg:07ea7-g1" kvg:element="纟" kvg:position="left" kvg:radical="general">
		<path id="kvg:07ea7-s1" kvg:type="㇜" d="m30.08 15.2c0.29 1.37 0.23 3.08 -0.4 4.49c-2.73 6.11 -6 12.55 -10.03 18.32c-0.9 1.28 -0.8 3.04 0.35 3.54c3.09 1.33 6.62 2.7 9.12 4.79"/>
		<path id="kvg:07ea7-s2" kvg:type="㇜" d="m41.8 26.32c0.2 0.98 -0.07 3 -0.5 3.71c-6.8 11.08 -15.55 24.13 -23.48 34.43c-2.45 3.19 -1.27 5.69 1.65 4.61c6.65 -2.46 11.53 -4.72 21.55 -8.74"/>
		<path id="kvg:07ea7-s3" kvg:type="㇐" d="m12.2 86.15c1.7 0.55 3.63 0.58 4.91 0.25c4.67 -1.18 14.83 -4.14 19.69 -5.1c1.22 -0.24 2.8 -0.31 4 0.22"/>
	</g>
	<g id="kvg:07ea7-g2" kvg:element="及" kvg:position="right">
		<g id="kvg:07ea7-g3" kvg:element="丿">
		</g>
		<g id="kvg:07ea7-g4" kvg:element="又" kvg:variant="true">
			<path id="kvg:07ea7-s5" kvg:type="㇒" d="m64.86 28.78c0.54 1.42 0.56 3.27 0.34 5.24c-1.59 14.06 -8.79 42.66 -25.29 56.05"/>
			<path id="kvg:07ea7-s6" kvg:type="㇋" d="m51.65 26.58c1.98 0.55 4.28 0.72 6.89 0.26c6.09 -1.07 21.11 -5.81 25.2 -7.08s5.27 1.31 3.62 4.29c-15.86 28.7 -16.98 23.57 -0.36 20.6c2.65 -0.47 3.97 1.32 3.07 3.55c-7.82 19.3 -18.32 32.55 -38.07 42.57"/>
			<path id="kvg:07ea7-s7" kvg:type="㇏" d="m61.52 53.7c5.22 6.52 17.94 24.23 25.91 32.69c2.59 2.76 5.46 5.23 8.37 7.32"/>
		</g>
	</g>
</g>
</g>
<g id="kvg:StrokeNumbers_07ea7" style="font-size:8;fill:#808080">
	<text transform="matrix(1 0 0 1 20.50 18.50)">1</text>
	<text transform="matrix(1 0 0 1 35.50 23.56)">2</text>
	<text transform="matrix(1 0 0 1 12.99 83.91)">3</text>
	<text transform="matrix(1 0 0 1 54.25 40.50)">4</text>
	<text transform="matrix(1 0 0 1 45.50 24.50)">5</text>
	<text transform="matrix(1 0 0 1 50.50 56.50)">6</text>
</g>
</svg>
