<?xml version="1.0" encoding="UTF-8"?>
<!--
Copyright (C) 2016 François Mizessyn.
This work makes an extensive use of kanjiVG Copyright (C) 2009/2010/2011 Ulrich Apel.
This work is distributed under the conditions of the Creative Commons
Attribution-Share Alike 3.0 Licence. This means you are free:
* to Share - to copy, distribute and transmit the work
* to Remix - to adapt the work

Under the following conditions:
* Attribution. You must attribute the work by stating your use of HanjiVG in
  your own copyright header and linking to HanjiVG's website
  (http://gooo.free.fr/hanziVG/)
* Attribution. You must attribute the work by stating your use of KanjiVG in
  your own copyright header and linking to KanjiVG's website
  (http://kanjivg.tagaini.net)
* Share Alike. If you alter, transform, or build upon this work, you may
  distribute the resulting work only under the same or similar license to this
  one.

See http://creativecommons.org/licenses/by-sa/3.0/ for more details.
-->
<!DOCTYPE svg PUBLIC "-//W3C//DTD SVG 1.0//EN" "http://www.w3.org/TR/2001/REC-SVG-20010904/DTD/svg10.dtd" [
<!ATTLIST g
xmlns:kvg CDATA #FIXED "http://kanjivg.tagaini.net"
kvg:element CDATA #IMPLIED
kvg:variant CDATA #IMPLIED
kvg:partial CDATA #IMPLIED
kvg:original CDATA #IMPLIED
kvg:part CDATA #IMPLIED
kvg:number CDATA #IMPLIED
kvg:tradForm CDATA #IMPLIED
kvg:radicalForm CDATA #IMPLIED
kvg:position CDATA #IMPLIED
kvg:radical CDATA #IMPLIED
kvg:phon CDATA #IMPLIED >
<!ATTLIST path
xmlns:kvg CDATA #FIXED "http://kanjivg.tagaini.net"
kvg:type CDATA #IMPLIED >
]>
<svg xmlns="http://www.w3.org/2000/svg" width="109" height="109" viewBox="0 0 109 109">
<g id="kvg:StrokePaths_07eb8" style="fill:none;stroke:#000000;stroke-width:3;stroke-linecap:round;stroke-linejoin:round;">
<g id="kvg:07eb8" kvg:element="纸">
	<g id="kvg:07eb8-g1" kvg:element="纟" kvg:position="left" kvg:radical="general">
		<path id="kvg:07eb8-s1" kvg:type="㇜" d="m30.08 15.2c0.29 1.37 0.23 3.08 -0.4 4.49c-2.73 6.11 -6 12.55 -10.03 18.32c-0.9 1.28 -0.8 3.04 0.35 3.54c3.09 1.33 6.62 2.7 9.12 4.79"/>
		<path id="kvg:07eb8-s2" kvg:type="㇜" d="m41.8 26.32c0.2 0.98 -0.07 3 -0.5 3.71c-6.8 11.08 -15.55 24.13 -23.48 34.43c-2.45 3.19 -1.27 5.69 1.65 4.61c6.65 -2.46 11.53 -4.72 21.55 -8.74"/>
		<path id="kvg:07eb8-s3" kvg:type="㇐" d="m15.2 88.92c1.7 0.44 3.63 0.46 4.91 0.2c4.67 -0.94 14.83 -3.31 19.69 -4.08c1.22 -0.19 2.8 -0.25 4 0.18"/>
	</g>
	<g id="kvg:07eb8-g2" kvg:element="氏" kvg:position="right" kvg:phon="氏">
		<path id="kvg:07eb8-s4" kvg:type="㇒" d="M79.5,15c0,1.12-0.73,2.38-1.64,3.04C71.62,22.5,61.38,28,52.41,31.75"/>
		<path id="kvg:07eb8-s5" kvg:type="㇙" d="M50.16,32c1.42,1.42,2.25,3.25,2.25,5.5s-0.66,46.25-0.66,49.75s-0.25,4.5,3,2S67.41,80,69.41,78.5"/>
		<path id="kvg:07eb8-s6" kvg:type="㇐" d="M55.04,51.38c1.71,0.24,4.01-0.03,5.58-0.34c8.5-1.67,15.5-3.17,26.29-4.8c2.66-0.4,4.32-0.05,5.66,0.15"/>
		<path id="kvg:07eb8-s7" kvg:type="㇂" d="M67.91,27.75c1.34,1.69,1.86,3.7,2.02,5.74C71.75,56.25,79.31,80.13,93.25,91c6.2,4.83,4.53-4.81,4.53-7.84"/>
	</g>
</g>
</g>
<g id="kvg:StrokeNumbers_07eb8" style="font-size:8;fill:#808080">
	<text transform="matrix(1 0 0 1 20.50 18.50)">1</text>
	<text transform="matrix(1 0 0 1 35.50 23.56)">2</text>
	<text transform="matrix(1 0 0 1 12.99 83.91)">3</text>
	<text transform="matrix(1 0 0 1 71.50 13.50)">4</text>
	<text transform="matrix(1 0 0 1 43.50 40.63)">5</text>
	<text transform="matrix(1 0 0 1 56.50 48.50)">6</text>
	<text transform="matrix(1 0 0 1 73.50 32.50)">7</text>
</g>
</svg>
