<?xml version="1.0" encoding="UTF-8" standalone="no"?>
<!--
Copyright (C) 2016 François Mizessyn.
This work makes an extensive use of kanjiVG Copyright (C) 2009/2010/2011 Ulrich Apel.
This work is distributed under the conditions of the Creative Commons
Attribution-Share Alike 3.0 Licence. This means you are free:
* to Share - to copy, distribute and transmit the work
* to Remix - to adapt the work

Under the following conditions:
* Attribution. You must attribute the work by stating your use of HanjiVG in
  your own copyright header and linking to HanjiVG's website
  (http://gooo.free.fr/hanziVG/)
* Attribution. You must attribute the work by stating your use of KanjiVG in
  your own copyright header and linking to KanjiVG's website
  (http://kanjivg.tagaini.net)
* Share Alike. If you alter, transform, or build upon this work, you may
  distribute the resulting work only under the same or similar license to this
  one.

See http://creativecommons.org/licenses/by-sa/3.0/ for more details.
-->
<!DOCTYPE svg PUBLIC "-//W3C//DTD SVG 1.0//EN" "http://www.w3.org/TR/2001/REC-SVG-20010904/DTD/svg10.dtd" [
<!ATTLIST g
xmlns:kvg CDATA #FIXED "http://kanjivg.tagaini.net"
kvg:element CDATA #IMPLIED
kvg:variant CDATA #IMPLIED
kvg:partial CDATA #IMPLIED
kvg:original CDATA #IMPLIED
kvg:part CDATA #IMPLIED
kvg:number CDATA #IMPLIED
kvg:tradForm CDATA #IMPLIED
kvg:radicalForm CDATA #IMPLIED
kvg:position CDATA #IMPLIED
kvg:radical CDATA #IMPLIED
kvg:phon CDATA #IMPLIED >
<!ATTLIST path
xmlns:kvg CDATA #FIXED "http://kanjivg.tagaini.net"
kvg:type CDATA #IMPLIED >
]>
<svg xmlns="http://www.w3.org/2000/svg" width="109" height="109" viewBox="0 0 109 109">
<g id="kvg:StrokePaths_07ebf" style="fill:none;stroke:#000000;stroke-width:3;stroke-linecap:round;stroke-linejoin:round;">
<g id="kvg:07ebf" kvg:element="线">
	<g id="kvg:07ebf-g1" kvg:element="纟" kvg:position="left" kvg:radical="general">
		<path id="kvg:07ebf-s1" kvg:type="㇜" d="m30.08 15.2c0.29 1.37 0.23 3.08 -0.4 4.49c-2.73 6.11 -6 12.55 -10.03 18.32c-0.9 1.28 -0.8 3.04 0.35 3.54c3.09 1.33 6.62 2.7 9.12 4.79"/>
		<path id="kvg:07ebf-s2" kvg:type="㇜" d="m41.8 26.32c0.2 0.98 -0.07 3 -0.5 3.71c-6.8 11.08 -15.55 24.13 -23.48 34.43c-2.45 3.19 -1.27 5.69 1.65 4.61c6.65 -2.46 11.53 -4.72 21.55 -8.74"/>
		<path id="kvg:07ebf-s3" kvg:type="㇐" d="m12.2 86.15c1.7 0.55 3.63 0.58 4.91 0.25c4.67 -1.18 14.83 -4.14 19.69 -5.1c1.22 -0.24 2.8 -0.31 4 0.22"/>
	</g>
	<g id="kvg:07ebf-g2" kvg:element="戋" kvg:variant="true" kvg:original="戔" kvg:position="right" kvg:phon="戋/戔V">
		<g id="kvg:07ebf-g3" kvg:element="三" kvg:part="1">
			<g id="kvg:07ebf-g4" kvg:element="一" kvg:position="bottom">
				<path id="kvg:07ebf-s4" kvg:type="㇐" d="M49.07,33.1c1.92,0.74,4.57,0.56,6.56,0.18c6.16-1.17,14.45-3.34,23.36-4.21c1.67-0.25,3.59-0.58,5.26-0.07"/>
			</g>
			<g id="kvg:07ebf-g5" kvg:element="戈">
				<g id="kvg:07ebf-g6" kvg:element="弋" kvg:part="1">
					<path id="kvg:07ebf-s5" kvg:type="㇐" d="M49.25,53.7c1.66,0.57,4.72,0.59,6.36,0.32c5.2-0.85,22.78-4.52,32.27-5.39c1.79-0.16,4.13-0.55,5.88,0.13"/>
					<path id="kvg:07ebf-s6" kvg:type="㇂" d="M57.77,11.5c1.64,1.83,2.31,2.33,2.66,6.26c3.07,34.36,11.2,61.49,30.27,75.67c6.04,4.49,5.28,0.78,4.46-7.31"/>
				</g>
				<g id="kvg:07ebf-g7" kvg:element="丿">
					<path id="kvg:07ebf-s7" kvg:type="㇒" d="M86.95,60.63c0.1,0.8-0.04,2.07-0.45,3.22c-2.4,6.78-15.26,22.53-34.95,31.52"/>
				</g>
				<g id="kvg:07ebf-g8" kvg:element="弋" kvg:part="2">
					<g id="kvg:07ebf-g9" kvg:element="丶">
						<path id="kvg:07ebf-s8" kvg:type="㇔" d="M72.87,13.03c2.91,1.5,7.06,4.44,8.41,7.02"/>
					</g>
				</g>
			</g>
		</g>
	</g>
</g>
</g>
<g id="kvg:StrokeNumbers_07ebf" style="font-size:8;fill:#808080">
	<text transform="matrix(1 0 0 1 20.50 18.50)">1</text>
	<text transform="matrix(1 0 0 1 35.50 23.56)">2</text>
	<text transform="matrix(1 0 0 1 12.99 83.91)">3</text>
	<text transform="matrix(1 0 0 1 49.20 30.50)">4</text>
	<text transform="matrix(1 0 0 1 50.50 50.50)">5</text>
	<text transform="matrix(1 0 0 1 47.50 12.50)">6</text>
	<text transform="matrix(1 0 0 1 76.50 64.50)">7</text>
	<text transform="matrix(1 0 0 1 63.50 12.50)">8</text>
</g>
</svg>
