<?xml version="1.0" encoding="UTF-8"?>
<!--
Copyright (C) 2016 François Mizessyn.
This work makes an extensive use of kanjiVG Copyright (C) 2009/2010/2011 Ulrich Apel.
This work is distributed under the conditions of the Creative Commons
Attribution-Share Alike 3.0 Licence. This means you are free:
* to Share - to copy, distribute and transmit the work
* to Remix - to adapt the work

Under the following conditions:
* Attribution. You must attribute the work by stating your use of HanjiVG in
  your own copyright header and linking to HanjiVG's website
  (http://gooo.free.fr/hanziVG/)
* Attribution. You must attribute the work by stating your use of KanjiVG in
  your own copyright header and linking to KanjiVG's website
  (http://kanjivg.tagaini.net)
* Share Alike. If you alter, transform, or build upon this work, you may
  distribute the resulting work only under the same or similar license to this
  one.

See http://creativecommons.org/licenses/by-sa/3.0/ for more details.
-->
<!DOCTYPE svg PUBLIC "-//W3C//DTD SVG 1.0//EN" "http://www.w3.org/TR/2001/REC-SVG-20010904/DTD/svg10.dtd" [
<!ATTLIST g
xmlns:kvg CDATA #FIXED "http://kanjivg.tagaini.net"
kvg:element CDATA #IMPLIED
kvg:variant CDATA #IMPLIED
kvg:partial CDATA #IMPLIED
kvg:original CDATA #IMPLIED
kvg:part CDATA #IMPLIED
kvg:number CDATA #IMPLIED
kvg:tradForm CDATA #IMPLIED
kvg:radicalForm CDATA #IMPLIED
kvg:position CDATA #IMPLIED
kvg:radical CDATA #IMPLIED
kvg:phon CDATA #IMPLIED >
<!ATTLIST path
xmlns:kvg CDATA #FIXED "http://kanjivg.tagaini.net"
kvg:type CDATA #IMPLIED >
]>
<svg xmlns="http://www.w3.org/2000/svg" width="109" height="109" viewBox="0 0 109 109">
<g id="kvg:StrokePaths_07ec8" style="fill:none;stroke:#000000;stroke-width:3;stroke-linecap:round;stroke-linejoin:round;">
<g id="kvg:07ec8" kvg:element="终">
	<g id="kvg:07ec8-g1" kvg:element="纟" kvg:position="left" kvg:radical="general">
		<path id="kvg:07ec8-s1" kvg:type="㇜" d="m30.08 15.2c0.29 1.37 0.23 3.08 -0.4 4.49c-2.73 6.11 -6 12.55 -10.03 18.32c-0.9 1.28 -0.8 3.04 0.35 3.54c3.09 1.33 6.62 2.7 9.12 4.79"/>
		<path id="kvg:07ec8-s2" kvg:type="㇜" d="m41.8 26.32c0.2 0.98 -0.07 3 -0.5 3.71c-6.8 11.08 -15.55 24.13 -23.48 34.43c-2.45 3.19 -1.27 5.69 1.65 4.61c6.65 -2.46 11.53 -4.72 21.55 -8.74"/>
		<path id="kvg:07ec8-s3" kvg:type="㇐" d="m12.75 86.15c2.12 0.55 4.54 0.58 6.14 0.25c5.84 -1.18 18.54 -4.14 24.61 -5.1c1.53 -0.24 3.5 -0.31 5 0.22"/>
	</g>
	<g id="kvg:07ec8-g2" kvg:element="冬" kvg:position="right" kvg:phon="冬">
		<g id="kvg:07ec8-g3" kvg:element="夂">
			<path id="kvg:07ec8-s4" kvg:type="㇒" d="m65.47 17.92c0.06 0.62 0.2 1.64 -0.1 2.51c-2.08 5.95 -7.9 14.7 -17.3 23.24"/>
			<path id="kvg:07ec8-s5" kvg:type="㇇" d="m67.86 22.23c0.89 0.4 1.83 0.35 2.68 0.26c3.56 -0.37 7 -1.49 10 -2.69c2.91 -1.16 4.36 0.7 3.12 3.55c-7.15 16.4 -16.93 30.15 -34.87 39.81"/>
			<path id="kvg:07ec8-s6" kvg:type="㇏" d="m58.38 34.9c6.1 0.6 20.47 14.72 28.91 20.77c2.89 2.07 5.58 3.7 8.43 4.58"/>
		</g>
		<g id="kvg:07ec8-g4" kvg:element="冫" kvg:original="氷">
			<path id="kvg:07ec8-s7" kvg:type="㇔" d="m64.24 62.25c5.46 1.88 12.46 5.12 14.96 8"/>
			<path id="kvg:07ec8-s8" kvg:type="㇔/㇀" d="m61.26 80.75c8.32 3.63 16.87 9.75 20.55 14.25"/>
		</g>
	</g>
</g>
</g>
<g id="kvg:StrokeNumbers_07ec8" style="font-size:8;fill:#808080">
	<text transform="matrix(1 0 0 1 20.50 18.50)">1</text>
	<text transform="matrix(1 0 0 1 35.50 23.56)">2</text>
	<text transform="matrix(1 0 0 1 12.99 83.91)">3</text>
	<text transform="matrix(1 0 0 1 54.50 19.50)">4</text>
	<text transform="matrix(1 0 0 1 66.50 17.50)">5</text>
	<text transform="matrix(1 0 0 1 47.75 33.13)">6</text>
	<text transform="matrix(1 0 0 1 54.50 66.50)">7</text>
	<text transform="matrix(1 0 0 1 50.50 80.50)">8</text>
</g>
</svg>
