<?xml version="1.0" encoding="UTF-8"?>
<!--
Copyright (C) 2016 François Mizessyn.
This work makes an extensive use of kanjiVG Copyright (C) 2009/2010/2011 Ulrich Apel.
This work is distributed under the conditions of the Creative Commons
Attribution-Share Alike 3.0 Licence. This means you are free:
* to Share - to copy, distribute and transmit the work
* to Remix - to adapt the work

Under the following conditions:
* Attribution. You must attribute the work by stating your use of HanjiVG in
  your own copyright header and linking to HanjiVG's website
  (http://gooo.free.fr/hanziVG/)
* Attribution. You must attribute the work by stating your use of KanjiVG in
  your own copyright header and linking to KanjiVG's website
  (http://kanjivg.tagaini.net)
* Share Alike. If you alter, transform, or build upon this work, you may
  distribute the resulting work only under the same or similar license to this
  one.

See http://creativecommons.org/licenses/by-sa/3.0/ for more details.
-->
<!DOCTYPE svg PUBLIC "-//W3C//DTD SVG 1.0//EN" "http://www.w3.org/TR/2001/REC-SVG-20010904/DTD/svg10.dtd" [
<!ATTLIST g
xmlns:kvg CDATA #FIXED "http://kanjivg.tagaini.net"
kvg:element CDATA #IMPLIED
kvg:variant CDATA #IMPLIED
kvg:partial CDATA #IMPLIED
kvg:original CDATA #IMPLIED
kvg:part CDATA #IMPLIED
kvg:number CDATA #IMPLIED
kvg:tradForm CDATA #IMPLIED
kvg:radicalForm CDATA #IMPLIED
kvg:position CDATA #IMPLIED
kvg:radical CDATA #IMPLIED
kvg:phon CDATA #IMPLIED >
<!ATTLIST path
xmlns:kvg CDATA #FIXED "http://kanjivg.tagaini.net"
kvg:type CDATA #IMPLIED >
]>
<svg xmlns="http://www.w3.org/2000/svg" width="109" height="109" viewBox="0 0 109 109">
<g id="kvg:StrokePaths_07ec3" style="fill:none;stroke:#000000;stroke-width:3;stroke-linecap:round;stroke-linejoin:round;">
<g id="kvg:07ec3" kvg:element="练">
	<g id="kvg:07ec3-g1" kvg:element="纟" kvg:position="left" kvg:radical="general">
		<path id="kvg:07ec3-s1" kvg:type="㇜" d="m30.08 15.2c0.29 1.37 0.23 3.08 -0.4 4.49c-2.73 6.11 -6 12.55 -10.03 18.32c-0.9 1.28 -0.8 3.04 0.35 3.54c3.09 1.33 6.62 2.7 9.12 4.79"/>
		<path id="kvg:07ec3-s2" kvg:type="㇜" d="m41.8 26.32c0.2 0.98 -0.07 3 -0.5 3.71c-6.8 11.08 -15.55 24.13 -23.48 34.43c-2.45 3.19 -1.27 5.69 1.65 4.61c6.65 -2.46 11.53 -4.72 21.55 -8.74"/>
		<path id="kvg:07ec3-s3" kvg:type="㇐" d="m12.2 86.15c1.7 0.55 3.63 0.58 4.91 0.25c4.67 -1.18 14.83 -4.14 19.69 -5.1c1.22 -0.24 2.8 -0.31 4 0.22"/>
	</g>
	<g id="kvg:07ec3-g2" kvg:position="right">
		<path id="kvg:07ec3-s4" kvg:type="㇐" d="m46.91 31.1c2.16 0.89 4.23 0.85 6.44 0.64c10.1 -0.95 22.64 -2.99 33.53 -3.6c2 -0.11 3.95 -0.09 5.9 0.69"/>
		<path id="kvg:07ec3-s5" kvg:type="㇜" d="m70.6 17.92c0.56 0.5 1.26 2.39 -20 43.05c11.81 -1 26.48 -3.15 35.77 -3.79c2.22 -0.11 4.39 -0.09 5.86 0.43"/>
		<path id="kvg:07ec3-s6" kvg:type="㇆" d="m46.43 45.99c2.27 0.71 3.87 0.91 5.87 0.52c4.44 -0.87 14.12 -3.02 17.66 -3.9c2.92 -0.71 4.75 0.85 4.75 4.97c0 8.66 -0.12 34.71 -0.12 43.42c0 9.67 -6.06 1.46 -6.78 0.83"/>
		<path id="kvg:07ec3-s7" kvg:type="㇒" d="m58.76 70.82c0.02 0.43 0.06 1.12 -0.05 1.74c-0.63 3.66 -4.22 11.7 -13.96 20.62"/>
		<path id="kvg:07ec3-s8" kvg:type="㇔" d="m82.78 70.21c3.5 2.74 9.02 11.27 14.02 20.54"/>
	</g>
</g>
</g>
<g id="kvg:StrokeNumbers_07ec3" style="font-size:8;fill:#808080">
	<text transform="matrix(1 0 0 1 20.50 18.50)">1</text>
	<text transform="matrix(1 0 0 1 34.50 23.56)">2</text>
	<text transform="matrix(1 0 0 1 12.99 83.91)">3</text>
	<text transform="matrix(1 0 0 1 45.50 28.50)">4</text>
	<text transform="matrix(1 0 0 1 60.50 16.50)">5</text>
	<text transform="matrix(1 0 0 1 46.07 44.13)">6</text>
	<text transform="matrix(1 0 0 1 49.25 76.50)">7</text>
	<text transform="matrix(1 0 0 1 86.25 71.50)">8</text>
</g>
</svg>
