<?xml version="1.0" encoding="UTF-8"?>
<!--
Copyright (C) 2016 François Mizessyn.
This work makes an extensive use of kanjiVG Copyright (C) 2009/2010/2011 Ulrich Apel.
This work is distributed under the conditions of the Creative Commons
Attribution-Share Alike 3.0 Licence. This means you are free:
* to Share - to copy, distribute and transmit the work
* to Remix - to adapt the work

Under the following conditions:
* Attribution. You must attribute the work by stating your use of HanjiVG in
  your own copyright header and linking to HanjiVG's website
  (http://gooo.free.fr/hanziVG/)
* Attribution. You must attribute the work by stating your use of KanjiVG in
  your own copyright header and linking to KanjiVG's website
  (http://kanjivg.tagaini.net)
* Share Alike. If you alter, transform, or build upon this work, you may
  distribute the resulting work only under the same or similar license to this
  one.

See http://creativecommons.org/licenses/by-sa/3.0/ for more details.
-->
<!DOCTYPE svg PUBLIC "-//W3C//DTD SVG 1.0//EN" "http://www.w3.org/TR/2001/REC-SVG-20010904/DTD/svg10.dtd" [
<!ATTLIST g
xmlns:kvg CDATA #FIXED "http://kanjivg.tagaini.net"
kvg:element CDATA #IMPLIED
kvg:variant CDATA #IMPLIED
kvg:partial CDATA #IMPLIED
kvg:original CDATA #IMPLIED
kvg:part CDATA #IMPLIED
kvg:number CDATA #IMPLIED
kvg:tradForm CDATA #IMPLIED
kvg:radicalForm CDATA #IMPLIED
kvg:position CDATA #IMPLIED
kvg:radical CDATA #IMPLIED
kvg:phon CDATA #IMPLIED >
<!ATTLIST path
xmlns:kvg CDATA #FIXED "http://kanjivg.tagaini.net"
kvg:type CDATA #IMPLIED >
]>
<svg xmlns="http://www.w3.org/2000/svg" width="109" height="109" viewBox="0 0 109 109">
<g id="kvg:StrokePaths_07ec6" style="fill:none;stroke:#000000;stroke-width:3;stroke-linecap:round;stroke-linejoin:round;">
<g id="kvg:07ec6" kvg:element="细">
	<g id="kvg:07ec6-g1" kvg:element="纟" kvg:position="left" kvg:radical="general">
		<path id="kvg:07ec6-s1" kvg:type="㇜" d="m30.08 15.2c0.29 1.37 0.23 3.08 -0.4 4.49c-2.73 6.11 -6 12.55 -10.03 18.32c-0.9 1.28 -0.8 3.04 0.35 3.54c3.09 1.33 6.62 2.7 9.12 4.79"/>
		<path id="kvg:07ec6-s2" kvg:type="㇜" d="m41.8 26.32c0.2 0.98 -0.07 3 -0.5 3.71c-6.8 11.08 -15.55 24.13 -23.48 34.43c-2.45 3.19 -1.27 5.69 1.65 4.61c6.65 -2.46 11.53 -4.72 21.55 -8.74"/>
		<path id="kvg:07ec6-s3" kvg:type="㇐" d="m15.2 88.92c1.7 0.44 3.63 0.46 4.91 0.2c4.67 -0.94 14.83 -3.31 19.69 -4.08c1.22 -0.19 2.8 -0.25 4 0.18"/>
	</g>
	<g id="kvg:07ec6-g2" kvg:element="田" kvg:position="right" kvg:phon="田">
		<path id="kvg:07ec6-s4" kvg:type="㇑" d="M52.5,36.59c1.02,1.02,1.75,2.42,1.86,3.61c1.02,11.92,1.02,26.96,1.58,41.55c0.06,1.64,0.13,3.23,0.2,4.75"/>
		<path id="kvg:07ec6-s5" kvg:type="㇕a" d="M55.02,38.49c10.16-0.97,27.78-3.28,34.38-4c2.8-0.31,4.22,2.17,4.07,4.47c-0.5,7.61-1.33,27.22-1.9,40.55c-0.06,1.4-0.12,2.73-0.17,3.98"/>
		<path id="kvg:07ec6-s6" kvg:type="㇐a" d="M56.43,59.6c9.57-1.23,26.2-2.85,35-3.16"/>
		<path id="kvg:07ec6-s7" kvg:type="㇑a" d="M71.27,39.4c0.92,0.92,1.46,2.35,1.46,4.35c0,8.59,0.18,35.76,0.18,36.48"/>
		<path id="kvg:07ec6-s8" kvg:type="㇐a" d="M57.18,82.78c9.32-0.65,22.57-1.78,33.06-2.14"/>
	</g>
</g>
</g>
<g id="kvg:StrokeNumbers_07ec6" style="font-size:8;fill:#808080">
	<text transform="matrix(1 0 0 1 21.50 14.50)">1</text>
	<text transform="matrix(1 0 0 1 37.75 23.50)">2</text>
	<text transform="matrix(1 0 0 1 9.75 85.63)">3</text>
	<text transform="matrix(1 0 0 1 43.25 46.50)">4</text>
	<text transform="matrix(1 0 0 1 53.50 34.63)">5</text>
	<text transform="matrix(1 0 0 1 57.50 55.50)">6</text>
	<text transform="matrix(1 0 0 1 74.00 49.50)">7</text>
	<text transform="matrix(1 0 0 1 58.50 78.50)">8</text>
</g>
</svg>
