<?xml version="1.0" encoding="UTF-8"?>
<!--
Copyright (C) 2016 François Mizessyn.
This work makes an extensive use of kanjiVG Copyright (C) 2009/2010/2011 Ulrich Apel.
This work is distributed under the conditions of the Creative Commons
Attribution-Share Alike 3.0 Licence. This means you are free:
* to Share - to copy, distribute and transmit the work
* to Remix - to adapt the work

Under the following conditions:
* Attribution. You must attribute the work by stating your use of HanjiVG in
  your own copyright header and linking to HanjiVG's website
  (http://gooo.free.fr/hanziVG/)
* Attribution. You must attribute the work by stating your use of KanjiVG in
  your own copyright header and linking to KanjiVG's website
  (http://kanjivg.tagaini.net)
* Share Alike. If you alter, transform, or build upon this work, you may
  distribute the resulting work only under the same or similar license to this
  one.

See http://creativecommons.org/licenses/by-sa/3.0/ for more details.
-->
<!DOCTYPE svg PUBLIC "-//W3C//DTD SVG 1.0//EN" "http://www.w3.org/TR/2001/REC-SVG-20010904/DTD/svg10.dtd" [
<!ATTLIST g
xmlns:kvg CDATA #FIXED "http://kanjivg.tagaini.net"
kvg:element CDATA #IMPLIED
kvg:variant CDATA #IMPLIED
kvg:partial CDATA #IMPLIED
kvg:original CDATA #IMPLIED
kvg:part CDATA #IMPLIED
kvg:number CDATA #IMPLIED
kvg:tradForm CDATA #IMPLIED
kvg:radicalForm CDATA #IMPLIED
kvg:position CDATA #IMPLIED
kvg:radical CDATA #IMPLIED
kvg:phon CDATA #IMPLIED >
<!ATTLIST path
xmlns:kvg CDATA #FIXED "http://kanjivg.tagaini.net"
kvg:type CDATA #IMPLIED >
]>
<svg xmlns="http://www.w3.org/2000/svg" width="109" height="109" viewBox="0 0 109 109">
<g id="kvg:StrokePaths_07ecd" style="fill:none;stroke:#000000;stroke-width:3;stroke-linecap:round;stroke-linejoin:round;">
<g id="kvg:07ecd" kvg:element="绍">
	<g id="kvg:07ecd-g1" kvg:element="纟" kvg:position="left" kvg:radical="general">
		<path id="kvg:07ecd-s1" kvg:type="㇜" d="m30.08 15.2c0.29 1.37 0.23 3.08 -0.4 4.49c-2.73 6.11 -6 12.55 -10.03 18.32c-0.9 1.28 -0.8 3.04 0.35 3.54c3.09 1.33 6.62 2.7 9.12 4.79"/>
		<path id="kvg:07ecd-s2" kvg:type="㇜" d="m41.8 26.32c0.2 0.98 -0.07 3 -0.5 3.71c-6.8 11.08 -15.55 24.13 -23.48 34.43c-2.45 3.19 -1.27 5.69 1.65 4.61c6.65 -2.46 11.53 -4.72 21.55 -8.74"/>
		<path id="kvg:07ecd-s3" kvg:type="㇐" d="m12.75 86.15c2.12 0.55 4.54 0.58 6.14 0.25c5.84 -1.18 18.54 -4.14 24.61 -5.1c1.53 -0.24 3.5 -0.31 5 0.22"/>
	</g>
	<g id="kvg:07ecd-g2" kvg:element="召" kvg:position="right" kvg:phon="召">
		<g id="kvg:07ecd-g3" kvg:element="刀" kvg:position="top">
			<path id="kvg:07ecd-s4" kvg:type="㇆" d="M52.79,22.42c1.99,1.01,4.85,0.82,6.96,0.6c10.22-1.04,18.97-2.91,25.52-3.58c5.28-0.54,7.41,0.08,6.73,5.55c-0.88,7-2.12,14.25-6.69,23.74c-3.99,8.31-6.96,1.51-7.95,0.53"/>
			<path id="kvg:07ecd-s5" kvg:type="㇒" d="M69.98,24.89c0.05,0.68-0.04,1.76-0.36,2.73C66.75,36.38,62.5,45,51.42,55.1"/>
		</g>
		<g id="kvg:07ecd-g4" kvg:element="口" kvg:position="bottom">
			<path id="kvg:07ecd-s6" kvg:type="㇑" d="M54.64,63.17c0.84,0.84,1.57,1.97,1.75,3.42c0.74,5.91,1.53,12.8,2.46,21.42c0.19,1.75,0.26,3.44,0.38,4.99"/>
			<path id="kvg:07ecd-s7" kvg:type="㇕b" d="M57.12,64.97c11.05-1.45,19.43-2.36,28.34-2.94c2.95-0.19,5.48,0.57,4.53,5.27c-1.37,6.82-2.24,10.82-4.35,20.19"/>
			<path id="kvg:07ecd-s8" kvg:type="㇐b" d="M60.21,90.62c9.04-1,13.01-1.42,22.54-2c1.54-0.09,3.18-0.17,4.94-0.24"/>
		</g>
	</g>
</g>
</g>
<g id="kvg:StrokeNumbers_07ecd" style="font-size:8;fill:#808080">
	<text transform="matrix(1 0 0 1 20.50 18.50)">1</text>
	<text transform="matrix(1 0 0 1 35.50 23.56)">2</text>
	<text transform="matrix(1 0 0 1 12.99 83.91)">3</text>
	<text transform="matrix(1 0 0 1 51.50 19.63)">4</text>
	<text transform="matrix(1 0 0 1 60.50 33.50)">5</text>
	<text transform="matrix(1 0 0 1 48.75 71.98)">6</text>
	<text transform="matrix(1 0 0 1 56.25 61.63)">7</text>
	<text transform="matrix(1 0 0 1 61.50 87.05)">8</text>
</g>
</svg>
