<?xml version="1.0" encoding="UTF-8"?>
<!--
Copyright (C) 2016 François Mizessyn.
This work makes an extensive use of kanjiVG Copyright (C) 2009/2010/2011 Ulrich Apel.
This work is distributed under the conditions of the Creative Commons
Attribution-Share Alike 3.0 Licence. This means you are free:
* to Share - to copy, distribute and transmit the work
* to Remix - to adapt the work

Under the following conditions:
* Attribution. You must attribute the work by stating your use of HanjiVG in
  your own copyright header and linking to HanjiVG's website
  (http://gooo.free.fr/hanziVG/)
* Attribution. You must attribute the work by stating your use of KanjiVG in
  your own copyright header and linking to KanjiVG's website
  (http://kanjivg.tagaini.net)
* Share Alike. If you alter, transform, or build upon this work, you may
  distribute the resulting work only under the same or similar license to this
  one.

See http://creativecommons.org/licenses/by-sa/3.0/ for more details.
-->
<!DOCTYPE svg PUBLIC "-//W3C//DTD SVG 1.0//EN" "http://www.w3.org/TR/2001/REC-SVG-20010904/DTD/svg10.dtd" [
<!ATTLIST g
xmlns:kvg CDATA #FIXED "http://kanjivg.tagaini.net"
kvg:element CDATA #IMPLIED
kvg:variant CDATA #IMPLIED
kvg:partial CDATA #IMPLIED
kvg:original CDATA #IMPLIED
kvg:part CDATA #IMPLIED
kvg:number CDATA #IMPLIED
kvg:tradForm CDATA #IMPLIED
kvg:radicalForm CDATA #IMPLIED
kvg:position CDATA #IMPLIED
kvg:radical CDATA #IMPLIED
kvg:phon CDATA #IMPLIED >
<!ATTLIST path
xmlns:kvg CDATA #FIXED "http://kanjivg.tagaini.net"
kvg:type CDATA #IMPLIED >
]>
<svg xmlns="http://www.w3.org/2000/svg" width="109" height="109" viewBox="0 0 109 109">
<g id="kvg:StrokePaths_07ed3" style="fill:none;stroke:#000000;stroke-width:3;stroke-linecap:round;stroke-linejoin:round;">
<g id="kvg:07ed3" kvg:element="结">
	<g id="kvg:07ed3-g1" kvg:element="纟" kvg:position="left" kvg:radical="general">
		<path id="kvg:07ed3-s1" kvg:type="㇜" d="m30.08 15.2c0.29 1.37 0.23 3.08 -0.4 4.49c-2.73 6.11 -6 12.55 -10.03 18.32c-0.9 1.28 -0.8 3.04 0.35 3.54c3.09 1.33 6.62 2.7 9.12 4.79"/>
		<path id="kvg:07ed3-s2" kvg:type="㇜" d="m41.8 26.32c0.2 0.98 -0.07 3 -0.5 3.71c-6.8 11.08 -15.55 24.13 -23.48 34.43c-2.45 3.19 -1.27 5.69 1.65 4.61c6.65 -2.46 11.53 -4.72 21.55 -8.74"/>
		<path id="kvg:07ed3-s3" kvg:type="㇐" d="m12.75 86.15c2.12 0.55 4.54 0.58 6.14 0.25c5.84 -1.18 18.54 -4.14 24.61 -5.1c1.53 -0.24 3.5 -0.31 5 0.22"/>
	</g>
	<g id="kvg:07ed3-g2" kvg:element="吉" kvg:position="right" kvg:phon="吉">
		<g id="kvg:07ed3-g3" kvg:element="士" kvg:position="top">
			<path id="kvg:07ed3-s4" kvg:type="㇐" d="M48.92,35.5c1.54,0.47,4.39,0.52,5.92,0.29C66.62,34,83.38,32.12,92.6,31.75c2.57-0.1,4.71,0.08,5.99,0.3"/>
			<path id="kvg:07ed3-s5" kvg:type="㇑a" d="M71.69,13.51c1.15,1.15,1.94,2.62,1.94,3.89c0,1.01,0.01,29.06-0.2,35.3"/>
			<path id="kvg:07ed3-s6" kvg:type="㇐" d="M53.63,55.12c2.37,0.5,4.61,0.41,6.62,0.1C68,54,77.5,52.88,89.26,52.01c2-0.15,4.04-0.37,6.03-0.03"/>
		</g>
		<g id="kvg:07ed3-g4" kvg:element="口" kvg:position="bottom">
			<path id="kvg:07ed3-s7" kvg:type="㇑" d="M55.32,69.49c0.83,0.79,1.26,1.76,1.43,2.89c0.79,5.22,1.5,11.23,2.2,17.12c0.19,1.58,0.38,3.16,0.57,4.71"/>
			<path id="kvg:07ed3-s8" kvg:type="㇕b" d="M57.67,70.79c9.63-1.04,22.99-2.2,29.58-2.96c3.87-0.45,5.37,1.05,4.63,3.95c-1.4,5.48-2.67,11.64-3.79,16.75"/>
			<path id="kvg:07ed3-s9" kvg:type="㇐b" d="M60.43,91.23c6.3-0.41,17-1.02,26.57-1.52c1.55-0.08,3.06-0.16,4.52-0.23"/>
		</g>
	</g>
</g>
</g>
<g id="kvg:StrokeNumbers_07ed3" style="font-size:8;fill:#808080">
	<text transform="matrix(1 0 0 1 20.50 18.50)">1</text>
	<text transform="matrix(1 0 0 1 35.50 23.56)">2</text>
	<text transform="matrix(1 0 0 1 12.99 83.91)">3</text>
	<text transform="matrix(1 0 0 1 50.50 32.50)">4</text>
	<text transform="matrix(1 0 0 1 62.50 14.50)">5</text>
	<text transform="matrix(1 0 0 1 53.50 52.03)">6</text>
	<text transform="matrix(1 0 0 1 45.94 74.50)">7</text>
	<text transform="matrix(1 0 0 1 56.50 67.50)">8</text>
	<text transform="matrix(1 0 0 1 62.50 87.80)">9</text>
</g>
</svg>
