<?xml version="1.0" encoding="UTF-8"?>
<!--
Copyright (C) 2016 François Mizessyn.
This work makes an extensive use of kanjiVG Copyright (C) 2009/2010/2011 Ulrich Apel.
This work is distributed under the conditions of the Creative Commons
Attribution-Share Alike 3.0 Licence. This means you are free:
* to Share - to copy, distribute and transmit the work
* to Remix - to adapt the work

Under the following conditions:
* Attribution. You must attribute the work by stating your use of HanjiVG in
  your own copyright header and linking to HanjiVG's website
  (http://gooo.free.fr/hanziVG/)
* Attribution. You must attribute the work by stating your use of KanjiVG in
  your own copyright header and linking to KanjiVG's website
  (http://kanjivg.tagaini.net)
* Share Alike. If you alter, transform, or build upon this work, you may
  distribute the resulting work only under the same or similar license to this
  one.

See http://creativecommons.org/licenses/by-sa/3.0/ for more details.
-->
<!DOCTYPE svg PUBLIC "-//W3C//DTD SVG 1.0//EN" "http://www.w3.org/TR/2001/REC-SVG-20010904/DTD/svg10.dtd" [
<!ATTLIST g
xmlns:kvg CDATA #FIXED "http://kanjivg.tagaini.net"
kvg:element CDATA #IMPLIED
kvg:variant CDATA #IMPLIED
kvg:partial CDATA #IMPLIED
kvg:original CDATA #IMPLIED
kvg:part CDATA #IMPLIED
kvg:number CDATA #IMPLIED
kvg:tradForm CDATA #IMPLIED
kvg:radicalForm CDATA #IMPLIED
kvg:position CDATA #IMPLIED
kvg:radical CDATA #IMPLIED
kvg:phon CDATA #IMPLIED >
<!ATTLIST path
xmlns:kvg CDATA #FIXED "http://kanjivg.tagaini.net"
kvg:type CDATA #IMPLIED >
]>
<svg xmlns="http://www.w3.org/2000/svg" width="109" height="109" viewBox="0 0 109 109">
<g id="kvg:StrokePaths_07edd" style="fill:none;stroke:#000000;stroke-width:3;stroke-linecap:round;stroke-linejoin:round;">
<g id="kvg:07edd" kvg:element="绝">
	<g id="kvg:07edd-g1" kvg:element="纟" kvg:position="left" kvg:radical="general">
		<path id="kvg:07edd-s1" kvg:type="㇜" d="M30.08 15.2c0.29 1.37 0.23 3.08 -0.4 4.49c-2.73 6.11 -6 12.55 -10.03 18.32c-0.9 1.28 -0.8 3.04 0.35 3.54c3.09 1.33 6.62 2.7 9.12 4.79"/>
		<path id="kvg:07edd-s2" kvg:type="㇜" d="M41.8 26.32c0.2 0.98 -0.07 3 -0.5 3.71c-6.8 11.08 -15.55 24.13 -23.48 34.43c-2.45 3.19 -1.27 5.69 1.65 4.61c6.65 -2.46 11.53 -4.72 21.55 -8.74"/>
		<path id="kvg:07edd-s3" kvg:type="㇐" d="M14.2 87.92c1.7 0.44 3.63 0.46 4.91 0.2c4.67 -0.94 14.83 -3.31 19.69 -4.08c1.22 -0.19 2.8 -0.25 4 0.18"/>
	</g>
	<g id="kvg:07edd-g2" kvg:element="色" kvg:position="right">
		<g id="kvg:07edd-g3" kvg:element="𠂊" kvg:variant="true" kvg:original="勹" kvg:position="top">
			<path id="kvg:07edd-s4" kvg:type="㇒" d="M64.65,13.75c0.12,1.52-0.03,2.65-0.63,4.06c-2.87,6.78-10.86,18.2-16.79,24.07"/>
			<path id="kvg:07edd-s5" kvg:type="㇇a" d="M63.32,23.57c5.68-0.32,14.77-1.7,17.24-1.99c2.12-0.25,2.38,1.62,1.5,2.84c-3.72,5.14-8.18,11.08-13.21,18.28"/>
		</g>
		<g id="kvg:07edd-g4" kvg:element="巴" kvg:position="bottom">
			<g id="kvg:07edd-g5" kvg:element="己" kvg:part="1" kvg:original="巳">
				<path id="kvg:07edd-s6" kvg:type="㇕" d="M51.6,45.34c1.15,0.41,2.73,0.26,3.9,0.17c11-0.88,23.37-2.38,31.13-3.52c2.42-0.35,3.09,1.81,2.86,3c-0.57,3.06-1.13,8.47-1.97,13.32c-0.26,1.49-0.54,2.93-0.86,4.23"/>
				<path id="kvg:07edd-s7" kvg:type="㇑a" d="M69.34,44.99c0.83,0.83,1.32,2.01,1.32,3.36c0,4.52-0.05,8.15-0.05,13.12"/>
			</g>
			<g id="kvg:07edd-g6" kvg:element="己" kvg:part="2" kvg:original="巳">
				<path id="kvg:07edd-s8" kvg:type="㇐a" d="M55.1,63.83c3.64-0.34,24.78-2.7,30.34-2.86"/>
				<path id="kvg:07edd-s9" kvg:type="㇟" d="M52.85,46.09c0.9,0.9,1.32,2.21,1.32,3.6c0,14.31,0.08,23.81,0.08,29.06c0,13.5,2,14.87,21.07,14.87c20.31,0,20.95-2.24,20.95-9.16"/>
			</g>
		</g>
	</g>
</g>
</g>
<g id="kvg:StrokeNumbers_07edd" style="font-size:8;fill:#808080">
	<text transform="matrix(1 0 0 1 20.50 18.50)">1</text>
	<text transform="matrix(1 0 0 1 35.50 23.56)">2</text>
	<text transform="matrix(1 0 0 1 12.99 84.91)">3</text>
	<text transform="matrix(1 0 0 1 56.25 13.50)">4</text>
	<text transform="matrix(1 0 0 1 69.75 19.55)">5</text>
	<text transform="matrix(1 0 0 1 56.25 42.50)">6</text>
	<text transform="matrix(1 0 0 1 60.50 52.40)">7</text>
	<text transform="matrix(1 0 0 1 57.50 60.50)">8</text>
	<text transform="matrix(1 0 0 1 44.50 51.50)">9</text>
</g>
</svg>
