<?xml version="1.0" encoding="UTF-8"?>
<!--
Copyright (C) 2016 François Mizessyn.
This work makes an extensive use of kanjiVG Copyright (C) 2009/2010/2011 Ulrich Apel.
This work is distributed under the conditions of the Creative Commons
Attribution-Share Alike 3.0 Licence. This means you are free:
* to Share - to copy, distribute and transmit the work
* to Remix - to adapt the work

Under the following conditions:
* Attribution. You must attribute the work by stating your use of HanjiVG in
  your own copyright header and linking to HanjiVG's website
  (http://gooo.free.fr/hanziVG/)
* Attribution. You must attribute the work by stating your use of KanjiVG in
  your own copyright header and linking to KanjiVG's website
  (http://kanjivg.tagaini.net)
* Share Alike. If you alter, transform, or build upon this work, you may
  distribute the resulting work only under the same or similar license to this
  one.

See http://creativecommons.org/licenses/by-sa/3.0/ for more details.
-->
<!DOCTYPE svg PUBLIC "-//W3C//DTD SVG 1.0//EN" "http://www.w3.org/TR/2001/REC-SVG-20010904/DTD/svg10.dtd" [
<!ATTLIST g
xmlns:kvg CDATA #FIXED "http://kanjivg.tagaini.net"
kvg:element CDATA #IMPLIED
kvg:variant CDATA #IMPLIED
kvg:partial CDATA #IMPLIED
kvg:original CDATA #IMPLIED
kvg:part CDATA #IMPLIED
kvg:number CDATA #IMPLIED
kvg:tradForm CDATA #IMPLIED
kvg:radicalForm CDATA #IMPLIED
kvg:position CDATA #IMPLIED
kvg:radical CDATA #IMPLIED
kvg:phon CDATA #IMPLIED >
<!ATTLIST path
xmlns:kvg CDATA #FIXED "http://kanjivg.tagaini.net"
kvg:type CDATA #IMPLIED >
]>
<svg xmlns="http://www.w3.org/2000/svg" width="109" height="109" viewBox="0 0 109 109">
<g id="kvg:StrokePaths_07ed9" style="fill:none;stroke:#000000;stroke-width:3;stroke-linecap:round;stroke-linejoin:round;">
<g id="kvg:07ed9" kvg:element="给">
	<g id="kvg:07ed9-g1" kvg:element="纟" kvg:position="left" kvg:radical="general">
		<path id="kvg:07ed9-s1" kvg:type="㇜" d="m30.08 15.2c0.29 1.37 0.23 3.08 -0.4 4.49c-2.73 6.11 -6 12.55 -10.03 18.32c-0.9 1.28 -0.8 3.04 0.35 3.54c3.09 1.33 6.62 2.7 9.12 4.79"/>
		<path id="kvg:07ed9-s2" kvg:type="㇜" d="m41.8 26.32c0.2 0.98 -0.07 3 -0.5 3.71c-6.8 11.08 -15.55 24.13 -23.48 34.43c-2.45 3.19 -1.27 5.69 1.65 4.61c6.65 -2.46 11.53 -4.72 21.55 -8.74"/>
		<path id="kvg:07ed9-s3" kvg:type="㇐" d="m12.75 86.15c2.12 0.55 4.54 0.58 6.14 0.25c5.84 -1.18 18.54 -4.14 24.61 -5.1c1.53 -0.24 3.5 -0.31 5 0.22"/>
	</g>
	<g id="kvg:07ed9-g2" kvg:element="合" kvg:position="right">
		<g id="kvg:07ed9-g3" kvg:position="top">
			<g id="kvg:07ed9-g4" kvg:element="人">
				<path id="kvg:07ed9-s4" kvg:type="㇒" d="M67.38 12.75c0.06 1.04 0.05 2.79 -0.33 4.19c-2.57 9.77 -7.97 26.68 -18.72 40.12"/>
				<path id="kvg:07ed9-s5" kvg:type="㇏" d="M67.99 16.58c3.26 6.02 15.95 23.89 21.91 31.76c1.96 2.59 3.93 4.41 6.31 5.97"/>
			</g>
			<g id="kvg:07ed9-g5" kvg:element="一">
				<path id="kvg:07ed9-s6" kvg:type="㇐" d="M58.2 51.64c1.05 0.56 2.79 0.26 3.92 0.13c4.93 -0.59 9.89 -1.43 14.18 -1.98c1.04 -0.13 2.09 -0.21 3.12 0.11"/>
			</g>
		</g>
		<g id="kvg:07ed9-g6" kvg:element="口" kvg:position="bottom">
			<path id="kvg:07ed9-s7" kvg:type="㇑" d="M53.82 67.08c0.84 1.14 1.45 2.19 1.66 3.64c1.2 8.32 2.15 14.41 3 21.17c0.14 1.11 0.28 2.23 0.41 3.39"/>
			<path id="kvg:07ed9-s8" kvg:type="㇕b" d="M56.11 68.34c10.17 -1.59 21.5 -2.77 26.58 -3.54c1.85 -0.28 2.97 1.92 2.71 3.57c-1.1 6.85 -1.76 12.24 -4.02 21.83"/>
			<path id="kvg:07ed9-s9" kvg:type="㇐b" d="M60.01 93.31c5.25 -0.77 12.69 -1.43 20.36 -2.02c1.03 -0.08 2.06 -0.16 3.1 -0.23"/>
		</g>
	</g>
</g>
</g>
<g id="kvg:StrokeNumbers_07ed9" style="font-size:8;fill:#808080">
	<text transform="matrix(1 0 0 1 20.50 18.50)">1</text>
	<text transform="matrix(1 0 0 1 35.50 23.56)">2</text>
	<text transform="matrix(1 0 0 1 12.99 83.91)">3</text>
	<text transform="matrix(1 0 0 1 56.50 18.50)">4</text>
	<text transform="matrix(1 0 0 1 73.50 22.85)">5</text>
	<text transform="matrix(1 0 0 1 59.50 49.50)">6</text>
	<text transform="matrix(1 0 0 1 46.50 75.50)">7</text>
	<text transform="matrix(1 0 0 1 52.50 64.50)">8</text>
	<text transform="matrix(1 0 0 1 57.50 89.30)">9</text>
</g>
</svg>
