<?xml version="1.0" encoding="UTF-8"?>
<!--
Copyright (C) 2016 François Mizessyn.
This work makes an extensive use of kanjiVG Copyright (C) 2009/2010/2011 Ulrich Apel.
This work is distributed under the conditions of the Creative Commons
Attribution-Share Alike 3.0 Licence. This means you are free:
* to Share - to copy, distribute and transmit the work
* to Remix - to adapt the work

Under the following conditions:
* Attribution. You must attribute the work by stating your use of HanjiVG in
  your own copyright header and linking to HanjiVG's website
  (http://gooo.free.fr/hanziVG/)
* Attribution. You must attribute the work by stating your use of KanjiVG in
  your own copyright header and linking to KanjiVG's website
  (http://kanjivg.tagaini.net)
* Share Alike. If you alter, transform, or build upon this work, you may
  distribute the resulting work only under the same or similar license to this
  one.

See http://creativecommons.org/licenses/by-sa/3.0/ for more details.
-->
<!DOCTYPE svg PUBLIC "-//W3C//DTD SVG 1.0//EN" "http://www.w3.org/TR/2001/REC-SVG-20010904/DTD/svg10.dtd" [
<!ATTLIST g
xmlns:kvg CDATA #FIXED "http://kanjivg.tagaini.net"
kvg:element CDATA #IMPLIED
kvg:variant CDATA #IMPLIED
kvg:partial CDATA #IMPLIED
kvg:original CDATA #IMPLIED
kvg:part CDATA #IMPLIED
kvg:number CDATA #IMPLIED
kvg:tradForm CDATA #IMPLIED
kvg:radicalForm CDATA #IMPLIED
kvg:position CDATA #IMPLIED
kvg:radical CDATA #IMPLIED
kvg:phon CDATA #IMPLIED >
<!ATTLIST path
xmlns:kvg CDATA #FIXED "http://kanjivg.tagaini.net"
kvg:type CDATA #IMPLIED >
]>
<svg xmlns="http://www.w3.org/2000/svg" width="109" height="109" viewBox="0 0 109 109">
<g id="kvg:StrokePaths_07ee9" style="fill:none;stroke:#000000;stroke-width:3;stroke-linecap:round;stroke-linejoin:round;">
<g id="kvg:07ee9" kvg:element="绩">
	<g id="kvg:07ee9-g1" kvg:element="纟" kvg:position="left" kvg:radical="general">
		<path id="kvg:07ee9-s1" kvg:type="㇜" d="m30.08 15.2c0.29 1.37 0.23 3.08 -0.4 4.49c-2.73 6.11 -6 12.55 -10.03 18.32c-0.9 1.28 -0.8 3.04 0.35 3.54c3.09 1.33 6.62 2.7 9.12 4.79"/>
		<path id="kvg:07ee9-s2" kvg:type="㇜" d="m41.8 26.32c0.2 0.98 -0.07 3 -0.5 3.71c-6.8 11.08 -15.55 24.13 -23.48 34.43c-2.45 3.19 -1.27 5.69 1.65 4.61c6.65 -2.46 11.53 -4.72 21.55 -8.74"/>
		<path id="kvg:07ee9-s3" kvg:type="㇐" d="m12.2 86.15c1.7 0.55 3.63 0.58 4.91 0.25c4.67 -1.18 14.83 -4.14 19.69 -5.1c1.22 -0.24 2.8 -0.31 4 0.22"/>
	</g>
	<g id="kvg:07ee9-g2" kvg:element="责" kvg:position="right">
		<g id="kvg:07ee9-g3" kvg:element="" kvg:position="top">
			<path id="kvg:07ee9-s4" kvg:type="㇐" d="m51.33 24.16c1.92 0.42 3.93 0.25 5.44 0.05c6.73 -0.9 17.72 -2.35 24.01 -3.28c1.94 -0.28 3.79 -0.15 5.72 0.05"/>
			<path id="kvg:07ee9-s5" kvg:type="㇐" d="m50.55 36.08c1.95 0.36 4.2 0.19 5.69 0.02c6.01 -0.68 18.37 -2.25 24.85 -3.13c1.98 -0.27 4.2 -0.33 6.19 -0.18"/>
			<path id="kvg:07ee9-s6" kvg:type="㇑a" d="m67.58 12.01c0.83 0.94 1.62 2.68 1.62 4.35c0 7.09 0.05 21.47 0.05 29.4"/>
			<path id="kvg:07ee9-s7" kvg:type="㇐" d="m44.88 48.65c2.48 0.67 4.99 0.5 7.48 0.17c11.27 -1.5 27.84 -2.82 37.65 -3.59c2.3 -0.18 4.72 0.01 7 0.56"/>
		</g>
		<g id="kvg:07ee9-g4" kvg:element="贝" kvg:position="bottom" kvg:radical="general">
			<g id="kvg:07ee9-g5" kvg:element="冂" kvg:variant="true" kvg:radical="general">
				<path id="kvg:07ee9-s8" kvg:type="㇑" d="m52.79 59.16c0.55 0.46 0.85 1.01 0.39 0.56c0.91 3.38 1.78 8.64 1.88 13.67c0.1 0.7 0.19 1.37 0.28 6.86"/>
				<path id="kvg:07ee9-s9" kvg:type="㇕" d="m53.19 59.74c8.96 -0.72 22.42 -2.12 31.93 -2.46c2.42 -0.1 3.7 0.7 3.5 2.06c-0.51 3.48 -1.61 8.36 -1.84 12.77c-0.22 0.71 -0.45 2.86 -0.68 6.94"/>
			</g>
			<g id="kvg:07ee9-g6" kvg:element="人" kvg:position="bottom" kvg:radical="general">
				<path id="kvg:07ee9-s10" kvg:type="㇒" d="m72.19 68.02c0.23 0.85 0.14 1.64 -0.13 2.54c-1.55 5.35 -9.51 18.62 -22.44 24.7"/>
				<path id="kvg:07ee9-s11" kvg:type="㇏" d="m67.14 81.9c3.64 2.44 15.16 9.01 21.11 12.04c2.18 1.1 4.12 1.88 6.81 2.24"/>
			</g>
		</g>
	</g>
</g>
</g>
<g id="kvg:StrokeNumbers_07ee9" style="font-size:8;fill:#808080">
	<text transform="matrix(1 0 0 1 20.50 18.50)">1</text>
	<text transform="matrix(1 0 0 1 35.50 23.56)">2</text>
	<text transform="matrix(1 0 0 1 12.99 83.91)">3</text>
	<text transform="matrix(1 0 0 1 46.50 21.50)">4</text>
	<text transform="matrix(1 0 0 1 47.25 34.50)">5</text>
	<text transform="matrix(1 0 0 1 58.50 11.50)">6</text>
	<text transform="matrix(1 0 0 1 42.50 46.50)">7</text>
	<text transform="matrix(1 0 0 1 42.50 64.41)">8</text>
	<text transform="matrix(1 0 0 1 51.50 56.33)">9</text>
	<text transform="matrix(1 0 0 1 62.50 65.25)">10</text>
	<text transform="matrix(1 0 0 1 67.50 83.18)">11</text>
</g>
</svg>
