<?xml version="1.0" encoding="UTF-8"?>
<!--
Copyright (C) 2016 François Mizessyn.
This work makes an extensive use of kanjiVG Copyright (C) 2009/2010/2011 Ulrich Apel.
This work is distributed under the conditions of the Creative Commons
Attribution-Share Alike 3.0 Licence. This means you are free:
* to Share - to copy, distribute and transmit the work
* to Remix - to adapt the work

Under the following conditions:
* Attribution. You must attribute the work by stating your use of HanjiVG in
  your own copyright header and linking to HanjiVG's website
  (http://gooo.free.fr/hanziVG/)
* Attribution. You must attribute the work by stating your use of KanjiVG in
  your own copyright header and linking to KanjiVG's website
  (http://kanjivg.tagaini.net)
* Share Alike. If you alter, transform, or build upon this work, you may
  distribute the resulting work only under the same or similar license to this
  one.

See http://creativecommons.org/licenses/by-sa/3.0/ for more details.
-->
<!DOCTYPE svg PUBLIC "-//W3C//DTD SVG 1.0//EN" "http://www.w3.org/TR/2001/REC-SVG-20010904/DTD/svg10.dtd" [
<!ATTLIST g
xmlns:kvg CDATA #FIXED "http://kanjivg.tagaini.net"
kvg:element CDATA #IMPLIED
kvg:variant CDATA #IMPLIED
kvg:partial CDATA #IMPLIED
kvg:original CDATA #IMPLIED
kvg:part CDATA #IMPLIED
kvg:number CDATA #IMPLIED
kvg:tradForm CDATA #IMPLIED
kvg:radicalForm CDATA #IMPLIED
kvg:position CDATA #IMPLIED
kvg:radical CDATA #IMPLIED
kvg:phon CDATA #IMPLIED >
<!ATTLIST path
xmlns:kvg CDATA #FIXED "http://kanjivg.tagaini.net"
kvg:type CDATA #IMPLIED >
]>
<svg xmlns="http://www.w3.org/2000/svg" width="109" height="109" viewBox="0 0 109 109">
<g id="kvg:StrokePaths_07eed" style="fill:none;stroke:#000000;stroke-width:3;stroke-linecap:round;stroke-linejoin:round;">
<g id="kvg:07eed" kvg:element="续">
	<g id="kvg:07eed-g1" kvg:element="纟" kvg:position="left" kvg:radical="general">
		<path id="kvg:07eed-s1" kvg:type="㇜" d="m30.08 15.2c0.29 1.37 0.23 3.08 -0.4 4.49c-2.73 6.11 -6 12.55 -10.03 18.32c-0.9 1.28 -0.8 3.04 0.35 3.54c3.09 1.33 6.62 2.7 9.12 4.79"/>
		<path id="kvg:07eed-s2" kvg:type="㇜" d="m41.8 26.32c0.2 0.98 -0.07 3 -0.5 3.71c-6.8 11.08 -15.55 24.13 -23.48 34.43c-2.45 3.19 -1.27 5.69 1.65 4.61c6.65 -2.46 11.53 -4.72 21.55 -8.74"/>
		<path id="kvg:07eed-s3" kvg:type="㇐" d="m12.2 86.15c1.7 0.55 3.63 0.58 4.91 0.25c4.67 -1.18 14.83 -4.14 19.69 -5.1c1.22 -0.24 2.8 -0.31 4 0.22"/>
	</g>
	<g id="kvg:07eed-g2" kvg:element="卖" kvg:radical="general">
		<g id="kvg:07eed-g3" kvg:element="十" kvg:position="top" kvg:radical="nelson">
			<path id="kvg:07eed-s4" kvg:type="㇐" d="m51.16 27.92c2.2 0.33 4.08 0.35 5.81 0.08c8.1 -1.25 22.1 -3.03 29.53 -3.46c1.89 -0.11 3.99 -0.1 5.83 0.58"/>
			<path id="kvg:07eed-s5" kvg:type="㇑a" d="m70.28 13c0.7 1 1 2.38 0.86 4.17c-0.5 6.58 -0.5 13.58 -0.36 19.33"/>
		</g>
		<g id="kvg:07eed-g4" kvg:element="买" kvg:radical="general">
			<path id="kvg:07eed-s6" kvg:type="㇖" d="m47.49 40.4c1.88 0.35 3.02 0.62 4.91 0.35c10.8 -1.57 24.96 -4.37 38.93 -4.37c6.46 0 3.76 2.8 -0.46 6.65"/>
			<g id="kvg:07eed-g5" kvg:element="头">
				<path id="kvg:07eed-s7" kvg:type="㇔" d="m62.48 47.75c1.7 1.37 6.06 9.11 5.74 9.67"/>
				<path id="kvg:07eed-s8" kvg:type="㇔" d="m54.38 52.75c1.7 1.37 6.06 9.11 5.74 9.67"/>
				<g id="kvg:07eed-g6" kvg:element="大" kvg:position="bottom" kvg:radical="tradit">
					<path id="kvg:07eed-s9" kvg:type="㇐" d="m46.54 70.57c0.86 0.35 3.19 0.75 5.03 0.6c12.47 -1.03 28.85 -3.09 40.05 -3.58c1.93 -0.08 3.47 -0.04 5.21 0.23"/>
					<path id="kvg:07eed-s10" kvg:type="㇒" d="m73.23 48.25c0.4 0.54 0.59 1.16 0.59 4.87c-0.19 20.11 -9.09 31.79 -29.29 41.14"/>
					<path id="kvg:07eed-s11" kvg:type="㇏" d="m71.16 69.02c5.21 6.18 17.34 21.91 22.55 26.04c1.76 1.4 2.38 1.62 3.19 1.75"/>
				</g>
			</g>
		</g>
	</g>
</g>
</g>
<g id="kvg:StrokeNumbers_07eed" style="font-size:8;fill:#808080">
	<text transform="matrix(1 0 0 1 20.50 18.50)">1</text>
	<text transform="matrix(1 0 0 1 35.50 23.56)">2</text>
	<text transform="matrix(1 0 0 1 12.99 83.91)">3</text>
	<text transform="matrix(1 0 0 1 45.50 24.50)">4</text>
	<text transform="matrix(1 0 0 1 58.50 17.50)">5</text>
	<text transform="matrix(1 0 0 1 42.20 39.53)">6</text>
	<text transform="matrix(1 0 0 1 54.20 50.95)">7</text>
	<text transform="matrix(1 0 0 1 43.20 57.50)">8</text>
	<text transform="matrix(1 0 0 1 34.70 73.50)">9</text>
	<text transform="matrix(1 0 0 1 72.50 50.50)">10</text>
	<text transform="matrix(1 0 0 1 78.50 81.50)">11</text>
</g>
</svg>
