<?xml version="1.0" encoding="UTF-8" standalone="no"?>
<!--
Copyright (C) 2016 François Mizessyn.
This work makes an extensive use of kanjiVG Copyright (C) 2009/2010/2011 Ulrich Apel.
This work is distributed under the conditions of the Creative Commons
Attribution-Share Alike 3.0 Licence. This means you are free:
* to Share - to copy, distribute and transmit the work
* to Remix - to adapt the work

Under the following conditions:
* Attribution. You must attribute the work by stating your use of HanjiVG in
  your own copyright header and linking to HanjiVG's website
  (http://gooo.free.fr/hanziVG/)
* Attribution. You must attribute the work by stating your use of KanjiVG in
  your own copyright header and linking to KanjiVG's website
  (http://kanjivg.tagaini.net)
* Share Alike. If you alter, transform, or build upon this work, you may
  distribute the resulting work only under the same or similar license to this
  one.

See http://creativecommons.org/licenses/by-sa/3.0/ for more details.
-->
<!DOCTYPE svg PUBLIC "-//W3C//DTD SVG 1.0//EN" "http://www.w3.org/TR/2001/REC-SVG-20010904/DTD/svg10.dtd" [
<!ATTLIST g
xmlns:kvg CDATA #FIXED "http://kanjivg.tagaini.net"
kvg:element CDATA #IMPLIED
kvg:variant CDATA #IMPLIED
kvg:partial CDATA #IMPLIED
kvg:original CDATA #IMPLIED
kvg:part CDATA #IMPLIED
kvg:number CDATA #IMPLIED
kvg:tradForm CDATA #IMPLIED
kvg:radicalForm CDATA #IMPLIED
kvg:position CDATA #IMPLIED
kvg:radical CDATA #IMPLIED
kvg:phon CDATA #IMPLIED >
<!ATTLIST path
xmlns:kvg CDATA #FIXED "http://kanjivg.tagaini.net"
kvg:type CDATA #IMPLIED >
]>
<svg xmlns="http://www.w3.org/2000/svg" width="109" height="109" viewBox="0 0 109 109">
<g id="kvg:StrokePaths_07ee7" style="fill:none;stroke:#000000;stroke-width:3;stroke-linecap:round;stroke-linejoin:round;">
<g id="kvg:07ee7" kvg:element="继">
	<g id="kvg:07ee7-g1" kvg:element="纟" kvg:position="left" kvg:radical="general">
		<path id="kvg:07ee7-s1" kvg:type="㇜" d="m30.08 15.2c0.29 1.37 0.23 3.08 -0.4 4.49c-2.73 6.11 -6 12.55 -10.03 18.32c-0.9 1.28 -0.8 3.04 0.35 3.54c3.09 1.33 6.62 2.7 9.12 4.79"/>
		<path id="kvg:07ee7-s2" kvg:type="㇜" d="m41.8 26.32c0.2 0.98 -0.07 3 -0.5 3.71c-6.8 11.08 -15.55 24.13 -23.48 34.43c-2.45 3.19 -1.27 5.69 1.65 4.61c6.65 -2.46 11.53 -4.72 21.55 -8.74"/>
		<path id="kvg:07ee7-s3" kvg:type="㇐" d="m12.2 86.15c1.7 0.55 3.63 0.58 4.91 0.25c4.67 -1.18 14.83 -4.14 19.69 -5.1c1.22 -0.24 2.8 -0.31 4 0.22"/>
	</g>
	<g id="kvg:07ee7-g2" kvg:position="right">
		<g id="kvg:07ee7-g3" kvg:element="米" kvg:variant="true">
			<path id="kvg:07ee7-s4" kvg:type="㇔" d="M58.08,26.05c2.5,2.11,6.29,8.09,6.91,11.38"/>
			<path id="kvg:07ee7-s5" kvg:type="㇒" d="M90.85,22.61c0.02,0.33,0.04,0.86-0.04,1.34c-0.53,2.83-3.58,9.03-7.76,12.83"/>
			<path id="kvg:07ee7-s6" kvg:type="㇐" d="M56.26,45.69c0.58,0.21,2.13,0.43,3.67,0.31c5.53-0.42,25.02-2.73,32.23-2.85c1.55-0.03,1.93-0.21,2.9,0"/>
			<path id="kvg:07ee7-s7" kvg:type="㇑" d="M74.08,16.93c0.61,0.42,0.97,1.87,1.09,2.7c0.12,0.83-0.12,54.44-0.12,59.63c0,10.5-5.92,1.62-7.3,0.25"/>
			<path id="kvg:07ee7-s8" kvg:type="㇒" d="M74.04,46.14c-2.71,7.68-9.29,18.46-15.37,22.89"/>
			<path id="kvg:07ee7-s9" kvg:type="㇔/㇏" d="M77.7,53.27c6.1,4.65,11.38,10.2,15.96,18.94"/>
		</g>
		<path id="kvg:07ee7-s10" kvg:type="㇗" d="m48.02 23.8c1.12 1.12 1.58 3 1.58 4.45c0 1.99 -0.24 52.39 -0.24 62.75c0 3.14 0.76 5.6 3.74 5.1c9.74 -1.66 22.66 -4.06 37.5 -5.4c1.79 -0.17 3.3 0 4.8 0"/>
	</g>
</g>
</g>
<g id="kvg:StrokeNumbers_07ee7" style="font-size:8;fill:#808080">
	<text transform="matrix(1 0 0 1 20.50 18.50)">1</text>
	<text transform="matrix(1 0 0 1 32.50 23.56)">2</text>
	<text transform="matrix(1 0 0 1 12.99 83.91)">3</text>
	<text transform="matrix(1 0 0 1 56.50 22.85)">4</text>
	<text transform="matrix(1 0 0 1 82.50 20.50)">5</text>
	<text transform="matrix(1 0 0 1 52.50 42.50)">6</text>
	<text transform="matrix(1 0 0 1 65.50 16.50)">7</text>
	<text transform="matrix(1 0 0 1 60.75 54.50)">8</text>
	<text transform="matrix(1 0 0 1 79.50 53.50)">9</text>
	<text transform="matrix(1 0 0 1 38.50 22.50)">10</text>
</g>
</svg>
