<?xml version="1.0" encoding="UTF-8"?>
<!--
Copyright (C) 2016 François Mizessyn.
This work makes an extensive use of kanjiVG Copyright (C) 2009/2010/2011 Ulrich Apel.
This work is distributed under the conditions of the Creative Commons
Attribution-Share Alike 3.0 Licence. This means you are free:
* to Share - to copy, distribute and transmit the work
* to Remix - to adapt the work

Under the following conditions:
* Attribution. You must attribute the work by stating your use of HanjiVG in
  your own copyright header and linking to HanjiVG's website
  (http://gooo.free.fr/hanziVG/)
* Attribution. You must attribute the work by stating your use of KanjiVG in
  your own copyright header and linking to KanjiVG's website
  (http://kanjivg.tagaini.net)
* Share Alike. If you alter, transform, or build upon this work, you may
  distribute the resulting work only under the same or similar license to this
  one.

See http://creativecommons.org/licenses/by-sa/3.0/ for more details.
-->
<!DOCTYPE svg PUBLIC "-//W3C//DTD SVG 1.0//EN" "http://www.w3.org/TR/2001/REC-SVG-20010904/DTD/svg10.dtd" [
<!ATTLIST g
xmlns:kvg CDATA #FIXED "http://kanjivg.tagaini.net"
kvg:element CDATA #IMPLIED
kvg:variant CDATA #IMPLIED
kvg:partial CDATA #IMPLIED
kvg:original CDATA #IMPLIED
kvg:part CDATA #IMPLIED
kvg:number CDATA #IMPLIED
kvg:tradForm CDATA #IMPLIED
kvg:radicalForm CDATA #IMPLIED
kvg:position CDATA #IMPLIED
kvg:radical CDATA #IMPLIED
kvg:phon CDATA #IMPLIED >
<!ATTLIST path
xmlns:kvg CDATA #FIXED "http://kanjivg.tagaini.net"
kvg:type CDATA #IMPLIED >
]>
<svg xmlns="http://www.w3.org/2000/svg" width="109" height="109" viewBox="0 0 109 109">
<g id="kvg:StrokePaths_07eff" style="fill:none;stroke:#000000;stroke-width:3;stroke-linecap:round;stroke-linejoin:round;">
<g id="kvg:07eff" kvg:element="绿" kvg:radical="general">
	<g id="kvg:07eff-g1" kvg:element="纟" kvg:position="left" kvg:radical="general">
		<path id="kvg:07eff-s1" kvg:type="㇜" d="m30.08 15.2c0.29 1.37 0.23 3.08 -0.4 4.49c-2.73 6.11 -6 12.55 -10.03 18.32c-0.9 1.28 -0.8 3.04 0.35 3.54c3.09 1.33 6.62 2.7 9.12 4.79"/>
		<path id="kvg:07eff-s2" kvg:type="㇜" d="m41.8 26.32c0.2 0.98 -0.07 3 -0.5 3.71c-6.8 11.08 -15.55 24.13 -23.48 34.43c-2.45 3.19 -1.27 5.69 1.65 4.61c6.65 -2.46 11.53 -4.72 21.55 -8.74"/>
		<path id="kvg:07eff-s3" kvg:type="㇐" d="m12.75 86.15c2.12 0.55 4.54 0.58 6.14 0.25c5.84 -1.18 18.54 -4.14 24.61 -5.1c1.53 -0.24 3.5 -0.31 5 0.22"/>
	</g>
	<g id="kvg:07eff-g2" kvg:element="录" kvg:radical="general">
		<g id="kvg:07eff-g3" kvg:element="彐" kvg:variant="true" kvg:original="彑" kvg:radical="tradit">
			<path id="kvg:07eff-s4" kvg:type="㇕" d="M49,23.5c2.25,0.75,3.7,0.65,6,0.5c7.5-0.5,18.75-2.25,23.75-2.5c3.25-0.16,4.17,1.49,3.75,4c-1.25,7.5-2,15.12-2.5,21"/>
			<path id="kvg:07eff-s5" kvg:type="㇐" d="M49.25,36.3c2,0.32,3.29,0.35,4.84,0.25c9.91-0.67,18.16-1.8,25.51-2.32"/>
			<path id="kvg:07eff-s6" kvg:type="㇐c" d="M42.75,50.25c2.5,0.5,5.48,0.38,8,0.13c10.5-1.01,25.88-3,37.62-3.56c3.07-0.15,6.33-0.08,9.38,0.43"/>
		</g>
		<g id="kvg:07eff-g4" kvg:element="氺" kvg:variant="true" kvg:original="水">
			<path id="kvg:07eff-s7" kvg:type="㇚" d="M68.77,51.08c1.2,1.2,1.76,2.42,1.76,4.27c0,14.56-0.01,33.66-0.01,35.62c0,10.78-5.21,2.25-6.71,1"/>
			<path id="kvg:07eff-s8" kvg:type="㇏" d="M49.5,61.75c3,1.59,7.75,6.53,8.5,9"/>
			<path id="kvg:07eff-s9" kvg:type="㇒" d="M47.25,90.26c1.25,0.37,2.36-0.12,3.39-0.97c0.99-0.82,8.43-7.6,12.61-11.53"/>
			<path id="kvg:07eff-s10" kvg:type="㇒" d="M89.25,57.88c0.09,0.72-0.04,1.4-0.39,2.04c-1.14,2.46-4.38,6.01-9.8,10.3"/>
			<path id="kvg:07eff-s11" kvg:type="㇏" d="M75.25,74.75c2.5,0.75,16.28,14.75,19.57,17.28c1.11,0.86,2.07,1.23,3.18,1.47"/>
		</g>
	</g>
</g>
</g>
<g id="kvg:StrokeNumbers_07eff" style="font-size:8;fill:#808080">
	<text transform="matrix(1 0 0 1 20.50 18.50)">1</text>
	<text transform="matrix(1 0 0 1 35.50 23.56)">2</text>
	<text transform="matrix(1 0 0 1 12.99 83.91)">3</text>
	<text transform="matrix(1 0 0 1 46.00 20.25)">4</text>
	<text transform="matrix(1 0 0 1 49.00 36.25)">5</text>
	<text transform="matrix(1 0 0 1 41.25 49.25)">6</text>
	<text transform="matrix(1 0 0 1 63.99 50.91)">7</text>
	<text transform="matrix(1 0 0 1 47.00 65.25)">8</text>
	<text transform="matrix(1 0 0 1 59.00 75.25)">9</text>
	<text transform="matrix(1 0 0 1 81.25 69.25)">10</text>
	<text transform="matrix(1 0 0 1 71.25 85.25)">11</text>
</g>
</svg>
