<?xml version="1.0" encoding="UTF-8"?>
<!--
Copyright (C) 2016 François Mizessyn.
This work makes an extensive use of kanjiVG Copyright (C) 2009/2010/2011 Ulrich Apel.
This work is distributed under the conditions of the Creative Commons
Attribution-Share Alike 3.0 Licence. This means you are free:
* to Share - to copy, distribute and transmit the work
* to Remix - to adapt the work

Under the following conditions:
* Attribution. You must attribute the work by stating your use of HanjiVG in
  your own copyright header and linking to HanjiVG's website
  (http://gooo.free.fr/hanziVG/)
* Attribution. You must attribute the work by stating your use of KanjiVG in
  your own copyright header and linking to KanjiVG's website
  (http://kanjivg.tagaini.net)
* Share Alike. If you alter, transform, or build upon this work, you may
  distribute the resulting work only under the same or similar license to this
  one.

See http://creativecommons.org/licenses/by-sa/3.0/ for more details.
-->
<!DOCTYPE svg PUBLIC "-//W3C//DTD SVG 1.0//EN" "http://www.w3.org/TR/2001/REC-SVG-20010904/DTD/svg10.dtd" [
<!ATTLIST g
xmlns:kvg CDATA #FIXED "http://kanjivg.tagaini.net"
kvg:element CDATA #IMPLIED
kvg:variant CDATA #IMPLIED
kvg:partial CDATA #IMPLIED
kvg:original CDATA #IMPLIED
kvg:part CDATA #IMPLIED
kvg:number CDATA #IMPLIED
kvg:tradForm CDATA #IMPLIED
kvg:radicalForm CDATA #IMPLIED
kvg:position CDATA #IMPLIED
kvg:radical CDATA #IMPLIED
kvg:phon CDATA #IMPLIED >
<!ATTLIST path
xmlns:kvg CDATA #FIXED "http://kanjivg.tagaini.net"
kvg:type CDATA #IMPLIED >
]>
<svg xmlns="http://www.w3.org/2000/svg" width="109" height="109" viewBox="0 0 109 109">
<g id="kvg:StrokePaths_0804c" style="fill:none;stroke:#000000;stroke-width:3;stroke-linecap:round;stroke-linejoin:round;">
<g id="kvg:0804c" kvg:element="职">
	<g id="kvg:0804c-g1" kvg:element="耳" kvg:position="left">
		<path id="kvg:0804c-s1" kvg:type="㇐" d="M10.19,19.97c1.27,0.43,3.6,0.61,4.87,0.43c8.02-1.15,23.87-2.9,33.37-3.64c2.11-0.17,3.39,0.2,4.45,0.42"/>
		<path id="kvg:0804c-s2" kvg:type="㇑a" d="M19.93,23.07c0.88,0.88,1.28,2.33,1.28,3.72s-0.16,42.55-0.16,47.54"/>
		<path id="kvg:0804c-s3" kvg:type="㇑" d="M41.25,20.5c1.06,1.06,1.6,2.21,1.6,3.6c0,1.2,0.12,45.77,0.15,65.27c0,3.1,0.01,5.57,0.01,7.12"/>
		<path id="kvg:0804c-s4" kvg:type="㇐a" d="M22.55,37.73c9.2-1.73,10.95-1.98,19.08-2.83"/>
		<path id="kvg:0804c-s5" kvg:type="㇐a" d="M22.24,54.2c7.51-1.2,10.51-1.7,19.67-2.55"/>
		<path id="kvg:0804c-s6" kvg:type="㇀" d="M10.7,77.55c1.3,0.7,2.55,0.58,3.99,0.11c7.07-2.3,26.66-8.82,32.69-10.82"/>
	</g>
	<g id="kvg:0804c-g2" kvg:element="只" kvg:position="right">
		<g id="kvg:0804c-g3" kvg:element="口" kvg:position="top">
			<path id="kvg:0804c-s7" kvg:type="㇑" d="m57.26 25.12c0.33 0.58 0.66 1.06 0.8 1.79c1.13 5.75 2.48 21.6 3.26 31.92"/>
			<path id="kvg:0804c-s8" kvg:type="㇕b" d="m58.32 27.55c9.9 -1.7 22.04 -3.31 26.96 -4.05c1.8 -0.27 2.71 1.48 2.36 4.17c-0.93 7.08 -1.79 19.55 -3.38 28.7"/>
			<path id="kvg:0804c-s9" kvg:type="㇐b" d="m61.13 55.8c5.78 -0.84 14.07 -1.3 23.19 -2.07"/>
		</g>
		<g id="kvg:0804c-g4" kvg:element="八" kvg:position="bottom">
			<g id="kvg:0804c-g5" kvg:position="left">
				<path id="kvg:0804c-s10" kvg:type="㇒" d="m65.06 66.74c0.04 0.55 0.2 1.48 -0.08 2.22c-1.98 5.29 -6.58 13.79 -13.94 21.26"/>
			</g>
			<g id="kvg:0804c-g6" kvg:position="right">
				<path id="kvg:0804c-s11" kvg:type="㇏" d="m79.56 67.89c4.48 3.73 11.57 15.33 12.69 21.12"/>
			</g>
		</g>
	</g>
</g>
</g>
<g id="kvg:StrokeNumbers_0804c" style="font-size:8;fill:#808080">
	<text transform="matrix(1 0 0 1 3.75 21.13)">1</text>
	<text transform="matrix(1 0 0 1 13.50 31.94)">2</text>
	<text transform="matrix(1 0 0 1 35.50 28.50)">3</text>
	<text transform="matrix(1 0 0 1 24.50 33.13)">4</text>
	<text transform="matrix(1 0 0 1 25.50 50.50)">5</text>
	<text transform="matrix(1 0 0 1 2.50 80.50)">6</text>
	<text transform="matrix(1 0 0 1 47.50 34.50)">7</text>
	<text transform="matrix(1 0 0 1 56.50 24.50)">8</text>
	<text transform="matrix(1 0 0 1 61.25 52.18)">9</text>
	<text transform="matrix(1 0 0 1 53.50 68.50)">10</text>
	<text transform="matrix(1 0 0 1 73.25 69.50)">11</text>
</g>
</svg>
