<?xml version="1.0" encoding="UTF-8"?>
<!--
Copyright (C) 2016 François Mizessyn.
This work makes an extensive use of kanjiVG Copyright (C) 2009/2010/2011 Ulrich Apel.
This work is distributed under the conditions of the Creative Commons
Attribution-Share Alike 3.0 Licence. This means you are free:
* to Share - to copy, distribute and transmit the work
* to Remix - to adapt the work

Under the following conditions:
* Attribution. You must attribute the work by stating your use of HanjiVG in
  your own copyright header and linking to HanjiVG's website
  (http://gooo.free.fr/hanziVG/)
* Attribution. You must attribute the work by stating your use of KanjiVG in
  your own copyright header and linking to KanjiVG's website
  (http://kanjivg.tagaini.net)
* Share Alike. If you alter, transform, or build upon this work, you may
  distribute the resulting work only under the same or similar license to this
  one.

See http://creativecommons.org/licenses/by-sa/3.0/ for more details.
-->
<!DOCTYPE svg PUBLIC "-//W3C//DTD SVG 1.0//EN" "http://www.w3.org/TR/2001/REC-SVG-20010904/DTD/svg10.dtd" [
<!ATTLIST g
xmlns:kvg CDATA #FIXED "http://kanjivg.tagaini.net"
kvg:element CDATA #IMPLIED
kvg:variant CDATA #IMPLIED
kvg:partial CDATA #IMPLIED
kvg:original CDATA #IMPLIED
kvg:part CDATA #IMPLIED
kvg:number CDATA #IMPLIED
kvg:tradForm CDATA #IMPLIED
kvg:radicalForm CDATA #IMPLIED
kvg:position CDATA #IMPLIED
kvg:radical CDATA #IMPLIED
kvg:phon CDATA #IMPLIED >
<!ATTLIST path
xmlns:kvg CDATA #FIXED "http://kanjivg.tagaini.net"
kvg:type CDATA #IMPLIED >
]>
<svg xmlns="http://www.w3.org/2000/svg" width="109" height="109" viewBox="0 0 109 109">
<g id="kvg:StrokePaths_08054" style="fill:none;stroke:#000000;stroke-width:3;stroke-linecap:round;stroke-linejoin:round;">
<g id="kvg:08054" kvg:element="联">
	<g id="kvg:08054-g1" kvg:element="耳" kvg:position="left" kvg:radical="general">
		<path id="kvg:08054-s1" kvg:type="㇐" d="m10.45 20.81c0.85 0.27 4.11 0.68 4.97 0.65c6.77 -0.26 19.68 -3.03 29.71 -3.51c1.42 -0.07 4.2 0.57 4.91 0.71"/>
		<path id="kvg:08054-s2" kvg:type="㇑a" d="m20.08 24.42c1.1 0.58 1.25 1.98 1.25 3.37c0 1.39 -0.09 39.3 -0.09 44.29"/>
		<path id="kvg:08054-s3" kvg:type="㇑" d="m39.14 22.08c0.74 0.67 1.51 1.38 1.51 2.77s-0.04 59.37 -0.04 70.73"/>
		<path id="kvg:08054-s4" kvg:type="㇐a" d="m22.83 36.42c8.99 -1.33 9.16 -1 17.41 -2"/>
		<path id="kvg:08054-s5" kvg:type="㇐a" d="m22.28 50.42c6.79 -0.88 9.16 -1.17 17.24 -2.17"/>
		<path id="kvg:08054-s6" kvg:type="㇀" d="m12.38 75.78c0.8 0.47 2.07 0.8 2.75 0.47c2.73 -1.35 20.98 -11.5 25.17 -13.66"/>
	</g>
	<g id="kvg:08054-g2" kvg:element="关" kvg:position="right" kvg:phon="关">
		<path id="kvg:08054-s7" kvg:type="㇔" d="m57.9 17.62c2.95 2.55 7.63 10.48 8.38 14.44"/>
		<path id="kvg:08054-s8" kvg:type="㇒" d="m84.6 14.64c0.04 0.58 0.18 1.54 -0.08 2.34c-1.32 4.14 -4.02 9.39 -8.72 16.52"/>
		<g id="kvg:08054-g3" kvg:element="天">
			<path id="kvg:08054-s9" kvg:type="㇐" d="m59.03 39.34c1.57 0.29 3.17 0.31 4.46 0.13c5.02 -0.69 14.38 -2.39 19.52 -3.01c1.58 -0.19 3.1 -0.35 4.67 0.13"/>
			<g id="kvg:08054-g4" kvg:element="大">
				<path id="kvg:08054-s10" kvg:type="㇐" d="m53.39 61.73c2.61 0.77 4.62 0.8 6.91 0.46c9.7 -1.44 20.89 -2.7 28.1 -3.35c2.42 -0.22 4.81 -0.07 7.18 0.64"/>
				<path id="kvg:08054-s11" kvg:type="㇒" d="m70.54 42.12c0.48 0.76 0.62 2.38 0.56 3.84c-1.14 27.29 -9.43 41.04 -23.54 47.41"/>
				<path id="kvg:08054-s12" kvg:type="㇏" d="m70.76 61.89c4.63 5.58 12.68 16.6 18.73 23.76c2.51 2.97 4.81 4.84 6.79 6.14"/>
			</g>
		</g>
	</g>
</g>
</g>
<g id="kvg:StrokeNumbers_08054" style="font-size:8;fill:#808080">
	<text transform="matrix(1 0 0 1 1.25 21.25)">1</text>
	<text transform="matrix(1 0 0 1 10.25 35.25)">2</text>
	<text transform="matrix(1 0 0 1 42.00 32.25)">3</text>
	<text transform="matrix(1 0 0 1 23.25 33.25)">4</text>
	<text transform="matrix(1 0 0 1 23.25 47.25)">5</text>
	<text transform="matrix(1 0 0 1 2.25 75.25)">6</text>
	<text transform="matrix(1 0 0 1 50.50 18.50)">7</text>
	<text transform="matrix(1 0 0 1 74.50 14.50)">8</text>
	<text transform="matrix(1 0 0 1 49.75 39.50)">9</text>
	<text transform="matrix(1 0 0 1 42.50 59.50)">10</text>
	<text transform="matrix(1 0 0 1 71.50 51.50)">11</text>
	<text transform="matrix(1 0 0 1 74.25 71.50)">12</text>
</g>
</svg>
