<?xml version="1.0" encoding="UTF-8"?>
<!--
Copyright (C) 2016 François Mizessyn.
This work makes an extensive use of kanjiVG Copyright (C) 2009/2010/2011 Ulrich Apel.
This work is distributed under the conditions of the Creative Commons
Attribution-Share Alike 3.0 Licence. This means you are free:
* to Share - to copy, distribute and transmit the work
* to Remix - to adapt the work

Under the following conditions:
* Attribution. You must attribute the work by stating your use of HanjiVG in
  your own copyright header and linking to HanjiVG's website
  (http://gooo.free.fr/hanziVG/)
* Attribution. You must attribute the work by stating your use of KanjiVG in
  your own copyright header and linking to KanjiVG's website
  (http://kanjivg.tagaini.net)
* Share Alike. If you alter, transform, or build upon this work, you may
  distribute the resulting work only under the same or similar license to this
  one.

See http://creativecommons.org/licenses/by-sa/3.0/ for more details.
-->
<!DOCTYPE svg PUBLIC "-//W3C//DTD SVG 1.0//EN" "http://www.w3.org/TR/2001/REC-SVG-20010904/DTD/svg10.dtd" [
<!ATTLIST g
xmlns:kvg CDATA #FIXED "http://kanjivg.tagaini.net"
kvg:element CDATA #IMPLIED
kvg:variant CDATA #IMPLIED
kvg:partial CDATA #IMPLIED
kvg:original CDATA #IMPLIED
kvg:part CDATA #IMPLIED
kvg:number CDATA #IMPLIED
kvg:tradForm CDATA #IMPLIED
kvg:radicalForm CDATA #IMPLIED
kvg:position CDATA #IMPLIED
kvg:radical CDATA #IMPLIED
kvg:phon CDATA #IMPLIED >
<!ATTLIST path
xmlns:kvg CDATA #FIXED "http://kanjivg.tagaini.net"
kvg:type CDATA #IMPLIED >
]>
<svg xmlns="http://www.w3.org/2000/svg" width="109" height="109" viewBox="0 0 109 109">
<g id="kvg:StrokePaths_0806a" style="fill:none;stroke:#000000;stroke-width:3;stroke-linecap:round;stroke-linejoin:round;">
<g id="kvg:0806a" kvg:element="聪">
	<g id="kvg:0806a-g1" kvg:element="耳" kvg:position="left" kvg:radical="general">
		<path id="kvg:0806a-s1" kvg:type="㇐" d="M9.5,20.81c0.77,0.27,3.74,0.68,4.52,0.65c6.15-0.26,17.89-3.03,27.01-3.51c1.29-0.07,3.82,0.57,4.46,0.71"/>
		<path id="kvg:0806a-s2" kvg:type="㇑a" d="M18.25,24.42c1,0.58,1.14,1.98,1.14,3.37c0,1.39-0.08,39.3-0.08,44.29"/>
		<path id="kvg:0806a-s3" kvg:type="㇑" d="M35.58,22.08c0.67,0.67,1.37,1.38,1.37,2.77s-0.04,59.37-0.04,70.73"/>
		<path id="kvg:0806a-s4" kvg:type="㇐a" d="M20.75,36.42c8.17-1.33,8.33-1,15.83-2"/>
		<path id="kvg:0806a-s5" kvg:type="㇐a" d="M20.25,50.42c6.17-0.88,8.33-1.17,15.67-2.17"/>
		<path id="kvg:0806a-s6" kvg:type="㇀" d="M11.25,75.78c0.73,0.47,1.88,0.8,2.5,0.47c2.48-1.35,19.07-11.5,22.88-13.66"/>
	</g>
	<g id="kvg:0806a" kvg:element="总" kvg:position="right">
		<g id="kvg:0806a-g1" kvg:element="𠮦" kvg:position="top">
			<g id="kvg:0806a-g2" kvg:element="八" kvg:variant="true" kvg:position="top">
				<path id="kvg:0806a-s7" kvg:type="㇔" d="m59.32 12.14c1.64 2.04 4.26 8.4 4.66 11.58"/>
				<path id="kvg:0806a-s8" kvg:type="㇒" d="m79.23 11.14c0.01 0.37 0.03 0.96 -0.02 1.5c-0.36 3.16 -2.39 10.09 -5.17 14.33"/>
			</g>
			<g id="kvg:0806a-g3" kvg:element="口" kvg:position="bottom">
				<path id="kvg:0806a-s9" kvg:type="㇑" d="m54.26 36.83c0.56 0.7 0.91 1.58 1.02 2.64c0.83 3.95 2.07 11.69 2.75 17.77c0.14 1.18 0.25 2.33 0.36 3.41"/>
				<path id="kvg:0806a-s10" kvg:type="㇕b" d="m55.92 38.65c9.83 -2.65 24.67 -5.73 28.24 -6.1c1.77 -0.18 2.66 2.43 2.45 3.86c-0.47 3.25 -1.72 10.97 -2.51 15.49"/>
				<path id="kvg:0806a-s11" kvg:type="㇐b" d="m58.66 57.44c3.57 -0.54 16.1 -2.7 23.3 -3.87c1.46 -0.24 2.7 -0.43 3.62 -0.54"/>
			</g>
		</g>
		<g id="kvg:0806a-g4" kvg:element="心" kvg:position="bottom" kvg:radical="tradit">
			<path id="kvg:0806a-s12" kvg:type="㇔" d="m50.25 73.88c0.21 2.62 -2.07 14.21 -3.73 18.58"/>
			<path id="kvg:0806a-s13" kvg:type="㇟b" d="m56.32 69.01c4.31 17.11 12.01 28.99 30.02 27.6c4.47 -0.35 4.85 -3.11 1.73 -8.2"/>
			<path id="kvg:0806a-s14" kvg:type="㇔a" d="m69.39 68.17c0.95 4.58 3.54 11.08 4.26 4.28"/>
			<path id="kvg:0806a-s15" kvg:type="㇔" d="m86.97 62.91c2.5 4.09 5.08 8.59 6.91 14.7"/>
		</g>
	</g>
</g>
</g>
<g id="kvg:StrokeNumbers_0806a" style="font-size:8;fill:#808080">
	<text transform="matrix(1 0 0 1 3.25 21.25)">1</text>
	<text transform="matrix(1 0 0 1 8.25 35.25)">2</text>
	<text transform="matrix(1 0 0 1 38.25 32.25)">3</text>
	<text transform="matrix(1 0 0 1 21.25 33.25)">4</text>
	<text transform="matrix(1 0 0 1 21.25 47.25)">5</text>
	<text transform="matrix(1 0 0 1 2.25 75.25)">6</text>
	<text transform="matrix(1 0 0 1 56.25 13.63)">7</text>
	<text transform="matrix(1 0 0 1 79.01 13.01)">8</text>
	<text transform="matrix(1 0 0 1 43.50 45.50)">9</text>
	<text transform="matrix(1 0 0 1 47.00 34.50)">10</text>
	<text transform="matrix(1 0 0 1 55.50 53.13)">11</text>
	<text transform="matrix(1 0 0 1 34.75 70.63)">12</text>
	<text transform="matrix(1 0 0 1 51.50 68.50)">13</text>
	<text transform="matrix(1 0 0 1 67.75 66.50)">14</text>
	<text transform="matrix(1 0 0 1 85.50 63.50)">15</text>
</g>
</svg>
