<?xml version="1.0" encoding="UTF-8"?>
<!--
Copyright (C) 2016 François Mizessyn.
This work makes an extensive use of kanjiVG Copyright (C) 2009/2010/2011 Ulrich Apel.
This work is distributed under the conditions of the Creative Commons
Attribution-Share Alike 3.0 Licence. This means you are free:
* to Share - to copy, distribute and transmit the work
* to Remix - to adapt the work

Under the following conditions:
* Attribution. You must attribute the work by stating your use of HanjiVG in
  your own copyright header and linking to HanjiVG's website
  (http://gooo.free.fr/hanziVG/)
* Attribution. You must attribute the work by stating your use of KanjiVG in
  your own copyright header and linking to KanjiVG's website
  (http://kanjivg.tagaini.net)
* Share Alike. If you alter, transform, or build upon this work, you may
  distribute the resulting work only under the same or similar license to this
  one.

See http://creativecommons.org/licenses/by-sa/3.0/ for more details.
-->
<!DOCTYPE svg PUBLIC "-//W3C//DTD SVG 1.0//EN" "http://www.w3.org/TR/2001/REC-SVG-20010904/DTD/svg10.dtd" [
<!ATTLIST g
xmlns:kvg CDATA #FIXED "http://kanjivg.tagaini.net"
kvg:element CDATA #IMPLIED
kvg:variant CDATA #IMPLIED
kvg:partial CDATA #IMPLIED
kvg:original CDATA #IMPLIED
kvg:part CDATA #IMPLIED
kvg:number CDATA #IMPLIED
kvg:tradForm CDATA #IMPLIED
kvg:radicalForm CDATA #IMPLIED
kvg:position CDATA #IMPLIED
kvg:radical CDATA #IMPLIED
kvg:phon CDATA #IMPLIED >
<!ATTLIST path
xmlns:kvg CDATA #FIXED "http://kanjivg.tagaini.net"
kvg:type CDATA #IMPLIED >
]>
<svg xmlns="http://www.w3.org/2000/svg" width="109" height="109" viewBox="0 0 109 109">
<g id="kvg:StrokePaths_0810f" style="fill:none;stroke:#000000;stroke-width:3;stroke-linecap:round;stroke-linejoin:round;">
<g id="kvg:0810f" kvg:element="脏">
	<g id="kvg:0810f-g1" kvg:element="月" kvg:position="left" kvg:radical="tradit">
		<path id="kvg:0810f-s1" kvg:type="㇒" d="M18.75,20c0.73,0.97,1,3.06,1.25,4c0.24,0.94,0.53,24.36-0.25,32.25c-1.11,11.23-2,23.25-10,36.73"/>
		<path id="kvg:0810f-s2" kvg:type="㇆a" d="M20.2,21.36c2.18-0.06,12.59-1.8,14.21-1.92c2.9-0.23,3.63,1.28,3.63,2.62c0,3.17-0.04,44.44-0.04,62.46c0,12.39-5.14,4.48-6.99,2.99"/>
		<path id="kvg:0810f-s3" kvg:type="㇐a" d="M21.2,41.96c4.3-0.32,12.17-1.39,15.95-1.42"/>
		<path id="kvg:0810f-s4" kvg:type="㇐a" d="M20.5,60.5c3.5-0.08,11.78-1.04,16.53-1.46"/>
	</g>
	<g id="kvg:0810f-g2" kvg:element="庄" kvg:position="right">
		<g id="kvg:0810f-g3" kvg:element="广" kvg:position="tare">
			<path id="kvg:0810f-s5" kvg:type="㇑a" d="m69.35 12.63c0.55 0.31 1.72 2.33 1.83 2.95c0.11 0.62 0.05 8.28 -0.05 12.17"/>
			<g id="kvg:0810f-g4" kvg:element="厂">
				<path id="kvg:0810f-s6" kvg:type="㇐" d="m51.1 29.31c1.06 0.47 3.01 0.55 4.07 0.47c11.05 -0.79 23 -3.58 36.86 -3.76c1.77 -0.02 2.84 0.23 3.72 0.46"/>
				<path id="kvg:0810f-s7" kvg:type="㇒" d="m54.15 30c0.03 1.52 0.06 3.93 -0.05 6.12c-0.68 12.9 -2.56 44.2 -9.94 58.1"/>
			</g>
		</g>
		<g id="kvg:0810f-g5" kvg:element="土">
			<path id="kvg:0810f-s8" kvg:type="㇐" d="m59.75 56.2c1.03 0.44 2.9 0.5 3.92 0.44c6.98 -0.39 20.7 -3.14 25.65 -2.77c1.7 0.13 2.74 0.21 3.59 0.43"/>
			<path id="kvg:0810f-s9" kvg:type="㇑a" d="m72.38 33.62c0.11 0.29 1.59 1.52 1.59 3.39c0 12 0.13 37.5 0.13 53.36"/>
			<path id="kvg:0810f-s10" kvg:type="㇐" d="m52.79 90.93c1.28 0.7 3.62 0.73 4.91 0.7c10.66 -0.3 24.55 -1.97 34.45 -2.08c2.14 -0.03 3.41 0.33 4.48 0.68"/>
		</g>
	</g>
</g>
</g>
<g id="kvg:StrokeNumbers_0810f" style="font-size:8;fill:#808080">
	<text transform="matrix(1 0 0 1 10.25 26.25)">1</text>
	<text transform="matrix(1 0 0 1 20.25 17.25)">2</text>
	<text transform="matrix(1 0 0 1 22.25 38.25)">3</text>
	<text transform="matrix(1 0 0 1 22.00 57.25)">4</text>
	<text transform="matrix(1 0 0 1 59.50 12.50)">5</text>
	<text transform="matrix(1 0 0 1 48.75 26.50)">6</text>
	<text transform="matrix(1 0 0 1 42.50 42.50)">7</text>
	<text transform="matrix(1 0 0 1 55.50 53.50)">8</text>
	<text transform="matrix(1 0 0 1 61.50 42.50)">9</text>
	<text transform="matrix(1 0 0 1 50.50 87.50)">10</text>
</g>
</svg>
