<?xml version="1.0" encoding="UTF-8"?>
<!--
Copyright (C) 2016 François Mizessyn.
This work makes an extensive use of kanjiVG Copyright (C) 2009/2010/2011 Ulrich Apel.
This work is distributed under the conditions of the Creative Commons
Attribution-Share Alike 3.0 Licence. This means you are free:
* to Share - to copy, distribute and transmit the work
* to Remix - to adapt the work

Under the following conditions:
* Attribution. You must attribute the work by stating your use of HanjiVG in
  your own copyright header and linking to HanjiVG's website
  (http://gooo.free.fr/hanziVG/)
* Attribution. You must attribute the work by stating your use of KanjiVG in
  your own copyright header and linking to KanjiVG's website
  (http://kanjivg.tagaini.net)
* Share Alike. If you alter, transform, or build upon this work, you may
  distribute the resulting work only under the same or similar license to this
  one.

See http://creativecommons.org/licenses/by-sa/3.0/ for more details.
-->
<!DOCTYPE svg PUBLIC "-//W3C//DTD SVG 1.0//EN" "http://www.w3.org/TR/2001/REC-SVG-20010904/DTD/svg10.dtd" [
<!ATTLIST g
xmlns:kvg CDATA #FIXED "http://kanjivg.tagaini.net"
kvg:element CDATA #IMPLIED
kvg:variant CDATA #IMPLIED
kvg:partial CDATA #IMPLIED
kvg:original CDATA #IMPLIED
kvg:part CDATA #IMPLIED
kvg:number CDATA #IMPLIED
kvg:tradForm CDATA #IMPLIED
kvg:radicalForm CDATA #IMPLIED
kvg:position CDATA #IMPLIED
kvg:radical CDATA #IMPLIED
kvg:phon CDATA #IMPLIED >
<!ATTLIST path
xmlns:kvg CDATA #FIXED "http://kanjivg.tagaini.net"
kvg:type CDATA #IMPLIED >
]>
<svg xmlns="http://www.w3.org/2000/svg" width="109" height="109" viewBox="0 0 109 109">
<g id="kvg:StrokePaths_08111" style="fill:none;stroke:#000000;stroke-width:3;stroke-linecap:round;stroke-linejoin:round;">
<g id="kvg:08111" kvg:element="脑">
	<g id="kvg:08111-g1" kvg:element="月" kvg:variant="true" kvg:original="肉" kvg:position="left" kvg:radical="general">
		<path id="kvg:08111-s1" kvg:type="㇒" d="M20.57,22.42c0.76,0.76,1,2.03,1.03,2.92c0.98,32.04-1.61,56.32-9.6,65.08"/>
		<path id="kvg:08111-s2" kvg:type="㇆a" d="M22.38,23.94c2.99-0.57,12.94-2.65,14.47-2.85c1.78-0.22,2.94,1.24,2.94,2.54c0,3.07-0.02,44.25-0.02,61.71c0,10.68-5.8,3.38-7.56,1.94"/>
		<path id="kvg:08111-s3" kvg:type="㇐a" d="M22.88,40.25c4.53-0.34,11.8-1.73,15.77-1.75"/>
		<path id="kvg:08111-s4" kvg:type="㇐a" d="M22.33,57.12c3.72-0.08,11.43-0.97,16.48-1.37"/>
	</g>
	<g id="kvg:08111-g2" kvg:position="right" kvg:phon="亠+凶">
		<g id="kvg:08111-g3" kvg:element="亠">
			<path id="kvg:08111-s5" kvg:type="㇑a" d="M 71.56,16.5 c 0.56,0.27 1.48,1.33 1.48,1.87 0,2 -0.18,6.23 -0.07,7.92"/>
			<path id="kvg:08111-s6" kvg:type="㇐" d="M 55.17,28.21 c 1.22,0.22 2.31,0.46 3.71,0.3 8.38,-0.91 21.78,-2.99 31.55,-3.43 1.44,-0.06 2.17,0.03 3.24,0.39"/>
		</g>
		<g id="kvg:08111-g4" kvg:element="凶" kvg:position="bottom">
			<g id="kvg:08111-g5" kvg:element="乂">
				<g id="kvg:08111-g6" kvg:element="丿">
					<path id="kvg:08111-s7" kvg:type="㇒" d="M80.72,36.18c0.37,0.75,0.49,1.85-0.06,3.17c-4.99,11.89-12.41,21.6-23.15,37.82"/>
				</g>
				<path id="kvg:08111-s8" kvg:type="㇔/㇏" d="M60.26,44.97c7.18,3.02,17.76,13.08,21.51,30.26"/>
			</g>
			<g id="kvg:08111-g7" kvg:element="凵" kvg:position="kamae">
				<path id="kvg:08111-s9" kvg:type="㇄a" d="M49.56,49.31c0.69,0.69,1.06,1.94,1.04,3.12c-0.08,3.44,0.14,17.3-0.06,32.56c-0.06,1.74-0.36,3.18,1.86,3.04c8.43-0.5,33.96-2.72,38.78-3"/>
				<path id="kvg:08111-s10" kvg:type="㇑" d="M93.05,44.56c0.76,0.76,0.95,2.06,0.79,3.87c-0.34,3.67-1.5,16.3-2.25,35.06c-0.21,2.45-0.39,4.52-0.51,5.89"/>
			</g>
		</g>
	</g>
</g>
</g>
<g id="kvg:StrokeNumbers_08111" style="font-size:8;fill:#808080">
	<text transform="matrix(1 0 0 1 12.50 30.50)">1</text>
	<text transform="matrix(1 0 0 1 21.25 19.50)">2</text>
	<text transform="matrix(1 0 0 1 24.25 36.05)">3</text>
	<text transform="matrix(1 0 0 1 24.08 53.98)">4</text>
	<text transform="matrix(1 0 0 1 67.50 12.50)">5</text>
	<text transform="matrix(1 0 0 1 50.50 24.50)">6</text>
	<text transform="matrix(1 0 0 1 71.50 40.98)">7</text>
	<text transform="matrix(1 0 0 1 55.75 43.63)">8</text>
	<text transform="matrix(1 0 0 1 45.25 45.50)">9</text>
	<text transform="matrix(1 0 0 1 86.50 41.50)">10</text>
</g>
</svg>
