<?xml version="1.0" encoding="UTF-8"?>
<!--
Copyright (C) 2016 François Mizessyn.
This work makes an extensive use of kanjiVG Copyright (C) 2009/2010/2011 Ulrich Apel.
This work is distributed under the conditions of the Creative Commons
Attribution-Share Alike 3.0 Licence. This means you are free:
* to Share - to copy, distribute and transmit the work
* to Remix - to adapt the work

Under the following conditions:
* Attribution. You must attribute the work by stating your use of HanjiVG in
  your own copyright header and linking to HanjiVG's website
  (http://gooo.free.fr/hanziVG/)
* Attribution. You must attribute the work by stating your use of KanjiVG in
  your own copyright header and linking to KanjiVG's website
  (http://kanjivg.tagaini.net)
* Share Alike. If you alter, transform, or build upon this work, you may
  distribute the resulting work only under the same or similar license to this
  one.

See http://creativecommons.org/licenses/by-sa/3.0/ for more details.
-->
<!DOCTYPE svg PUBLIC "-//W3C//DTD SVG 1.0//EN" "http://www.w3.org/TR/2001/REC-SVG-20010904/DTD/svg10.dtd" [
<!ATTLIST g
xmlns:kvg CDATA #FIXED "http://kanjivg.tagaini.net"
kvg:element CDATA #IMPLIED
kvg:variant CDATA #IMPLIED
kvg:partial CDATA #IMPLIED
kvg:original CDATA #IMPLIED
kvg:part CDATA #IMPLIED
kvg:number CDATA #IMPLIED
kvg:tradForm CDATA #IMPLIED
kvg:radicalForm CDATA #IMPLIED
kvg:position CDATA #IMPLIED
kvg:radical CDATA #IMPLIED
kvg:phon CDATA #IMPLIED >
<!ATTLIST path
xmlns:kvg CDATA #FIXED "http://kanjivg.tagaini.net"
kvg:type CDATA #IMPLIED >
]>
<svg xmlns="http://www.w3.org/2000/svg" width="109" height="109" viewBox="0 0 109 109">
<g id="kvg:StrokePaths_0827a" style="fill:none;stroke:#000000;stroke-width:3;stroke-linecap:round;stroke-linejoin:round;">
<g id="kvg:0827a" kvg:element="艺">
	<g id="kvg:0827a-g1" kvg:element="艹" kvg:variant="true" kvg:original="艸" kvg:position="top" kvg:radical="general">
		<path id="kvg:0827a-s1" kvg:type="㇐" d="m21.25 29.09c2.62 0.69 5.04 0.51 7.5 0.29c12.73 -1.1 38.06 -3.03 51.75 -3.38c2.6 -0.07 5.2 -0.18 7.75 0.53"/>
		<path id="kvg:0827a-s2" kvg:type="㇑a" d="m38 15.96c1.01 0.72 1.87 2.09 1.98 3.08c0.94 8.25 1.85 14.98 2.52 21.57"/>
		<path id="kvg:0827a-s3" kvg:type="㇑a" d="m67.61 13.24c0.62 1.01 0.96 2.45 0.68 4.01c-1.79 10.03 -2.07 12.61 -3.79 22.07"/>
	</g>
	<g id="kvg:0827a-g2" kvg:element="乙" kvg:position="bottom" kvg:radical="general">
		<path id="kvg:0827a-s4" kvg:type="㇈" d="m30 49.64c2.78 1.01 5.42 0.94 8.38 0.48c7.21 -1.15 20.46 -3.27 25.38 -3.92c3.82 -0.51 4.96 1.08 1.9 3.54c-10.56 8.5 -22.2 21.5 -27.38 28.07c-11.9 15.1 8.85 17.86 26.35 17.86c26 0 27.5 -0.63 28.14 -8.45"/>
	</g>
</g>
</g>
<g id="kvg:StrokeNumbers_0827a" style="font-size:8;fill:#808080">
	<text transform="matrix(1 0 0 1 11.50 24.13)">1</text>
	<text transform="matrix(1 0 0 1 26.50 15.50)">2</text>
	<text transform="matrix(1 0 0 1 56.50 13.50)">3</text>
	<text transform="matrix(1 0 0 1 29.50 48.50)">4</text>
</g>
</svg>
