<?xml version="1.0" encoding="UTF-8"?>
<!--
Copyright (C) 2016 François Mizessyn.
This work makes an extensive use of kanjiVG Copyright (C) 2009/2010/2011 Ulrich Apel.
This work is distributed under the conditions of the Creative Commons
Attribution-Share Alike 3.0 Licence. This means you are free:
* to Share - to copy, distribute and transmit the work
* to Remix - to adapt the work

Under the following conditions:
* Attribution. You must attribute the work by stating your use of HanjiVG in
  your own copyright header and linking to HanjiVG's website
  (http://gooo.free.fr/hanziVG/)
* Attribution. You must attribute the work by stating your use of KanjiVG in
  your own copyright header and linking to KanjiVG's website
  (http://kanjivg.tagaini.net)
* Share Alike. If you alter, transform, or build upon this work, you may
  distribute the resulting work only under the same or similar license to this
  one.

See http://creativecommons.org/licenses/by-sa/3.0/ for more details.
-->
<!DOCTYPE svg PUBLIC "-//W3C//DTD SVG 1.0//EN" "http://www.w3.org/TR/2001/REC-SVG-20010904/DTD/svg10.dtd" [
<!ATTLIST g
xmlns:kvg CDATA #FIXED "http://kanjivg.tagaini.net"
kvg:element CDATA #IMPLIED
kvg:variant CDATA #IMPLIED
kvg:partial CDATA #IMPLIED
kvg:original CDATA #IMPLIED
kvg:part CDATA #IMPLIED
kvg:number CDATA #IMPLIED
kvg:tradForm CDATA #IMPLIED
kvg:radicalForm CDATA #IMPLIED
kvg:position CDATA #IMPLIED
kvg:radical CDATA #IMPLIED
kvg:phon CDATA #IMPLIED >
<!ATTLIST path
xmlns:kvg CDATA #FIXED "http://kanjivg.tagaini.net"
kvg:type CDATA #IMPLIED >
]>
<svg xmlns="http://www.w3.org/2000/svg" width="109" height="109" viewBox="0 0 109 109">
<g id="kvg:StrokePaths_08282" style="fill:none;stroke:#000000;stroke-width:3;stroke-linecap:round;stroke-linejoin:round;">
<g id="kvg:08282" kvg:element="节">
	<g id="kvg:08282-g1" kvg:element="艹" kvg:variant="true" kvg:original="艸" kvg:position="top" kvg:radical="general">
		<path id="kvg:08282-s1" kvg:type="㇐" d="m21.25 30.62c2.62 0.73 5.04 0.54 7.5 0.31c12.73 -1.16 38.06 -3.19 51.75 -3.56c2.6 -0.07 5.2 -0.19 7.75 0.56"/>
		<path id="kvg:08282-s2" kvg:type="㇑a" d="m38 16.8c1.01 0.76 1.87 2.2 1.98 3.24c0.94 8.68 1.85 15.77 2.52 22.7"/>
		<path id="kvg:08282-s3" kvg:type="㇑a" d="m67.61 13.94c0.62 1.06 0.96 2.58 0.68 4.22c-1.79 10.56 -2.07 13.27 -3.79 23.23"/>
	</g>
	<g id="kvg:08282-g2">
		<path id="kvg:08282-s4" kvg:type="㇆" d="m23.11 52.21c2.62 0.12 4.7 0.17 7.33 -0.01c6.52 -0.44 22.99 -1.65 45.36 -2.05c5.63 -0.33 8.11 0.14 7.38 2.71c-2.04 7.22 -3.6 14.56 -6.13 23.13c-2.05 1.82 -5.72 1.4 -6.08 -0.33"/>
		<path id="kvg:08282-s5" kvg:type="㇑a" d="m51.39 52.34c0.94 0.42 1.86 3.14 1.86 3.98c0 5.3 -0.31 9.32 -0.31 38.93"/>
	</g>
</g>
</g>
<g id="kvg:StrokeNumbers_08282" style="font-size:8;fill:#808080">
	<text transform="matrix(1 0 0 1 11.50 24.13)">1</text>
	<text transform="matrix(1 0 0 1 26.50 15.50)">2</text>
	<text transform="matrix(1 0 0 1 56.50 13.50)">3</text>
	<text transform="matrix(1 0 0 1 10.50 51.50)">4</text>
	<text transform="matrix(1 0 0 1 40.50 66.50)">5</text>
</g>
</svg>
