<?xml version="1.0" encoding="UTF-8"?>
<!--
Copyright (C) 2016 François Mizessyn.
This work makes an extensive use of kanjiVG Copyright (C) 2009/2010/2011 Ulrich Apel.
This work is distributed under the conditions of the Creative Commons
Attribution-Share Alike 3.0 Licence. This means you are free:
* to Share - to copy, distribute and transmit the work
* to Remix - to adapt the work

Under the following conditions:
* Attribution. You must attribute the work by stating your use of HanjiVG in
  your own copyright header and linking to HanjiVG's website
  (http://gooo.free.fr/hanziVG/)
* Attribution. You must attribute the work by stating your use of KanjiVG in
  your own copyright header and linking to KanjiVG's website
  (http://kanjivg.tagaini.net)
* Share Alike. If you alter, transform, or build upon this work, you may
  distribute the resulting work only under the same or similar license to this
  one.

See http://creativecommons.org/licenses/by-sa/3.0/ for more details.
-->
<!DOCTYPE svg PUBLIC "-//W3C//DTD SVG 1.0//EN" "http://www.w3.org/TR/2001/REC-SVG-20010904/DTD/svg10.dtd" [
<!ATTLIST g
xmlns:kvg CDATA #FIXED "http://kanjivg.tagaini.net"
kvg:element CDATA #IMPLIED
kvg:variant CDATA #IMPLIED
kvg:partial CDATA #IMPLIED
kvg:original CDATA #IMPLIED
kvg:part CDATA #IMPLIED
kvg:number CDATA #IMPLIED
kvg:tradForm CDATA #IMPLIED
kvg:radicalForm CDATA #IMPLIED
kvg:position CDATA #IMPLIED
kvg:radical CDATA #IMPLIED
kvg:phon CDATA #IMPLIED >
<!ATTLIST path
xmlns:kvg CDATA #FIXED "http://kanjivg.tagaini.net"
kvg:type CDATA #IMPLIED >
]>
<svg xmlns="http://www.w3.org/2000/svg" width="109" height="109" viewBox="0 0 109 109">
<g id="kvg:StrokePaths_08354" style="fill:none;stroke:#000000;stroke-width:3;stroke-linecap:round;stroke-linejoin:round;">
<g id="kvg:08354" kvg:element="荔">
	<g id="kvg:08354-g1" kvg:element="艹" kvg:variant="true" kvg:original="艸" kvg:position="top" kvg:radical="general">
		<path id="kvg:08354-s1" kvg:type="㇐" d="M18.5,27.02c2.2,0.53,4.76,0.73,6.96,0.53C41.88,26,68,23.62,82.68,23.01c3.66-0.15,5.87,0.25,7.7,0.51"/>
		<path id="kvg:08354-s2" kvg:type="㇑a" d="M36.75,15.5c1.05,1.18,1.51,1.78,1.76,3.44c1.05,6.91,1.94,13.8,2.24,16.31"/>
		<path id="kvg:08354-s3" kvg:type="㇑a" d="M74.75,12.25c0.41,1.59,0.43,2.77,0.06,4.37c-1.62,7.05-2.18,9.88-4.06,18.13"/>
	</g>
	<g id="kvg:08354-g2" kvg:position="right" kvg:phon="劦">
		<g id="kvg:08354-g3" kvg:element="力" kvg:position="top">
			<path id="kvg:08354-s4" kvg:type="㇆" d="m36.9 45.75c2.34 0.64 4.56 0.78 7.01 0.63c10.49 -0.7 31.24 -3.3 35.06 -3.56c2.78 -0.2 3.55 0.88 3.41 2.26c-0.41 3.62 -7.15 14.05 -11.48 16.5c-3.24 1.83 -4.06 0.99 -7.43 -0.29"/>
			<path id="kvg:08354-s5" kvg:type="㇒" d="m59.64 33.12c0.56 0.83 0.77 1.71 0.48 2.76c-2.15 7.81 -8.76 20.27 -22.82 28.3"/>
		</g>
		<g id="kvg:08354-g4" kvg:position="bottom">
			<g id="kvg:08354-g5" kvg:element="力">
				<path id="kvg:08354-s6" kvg:type="㇆" d="m22.98 77.45c1.03 0.31 4.51 0.5 5.63 0.37c7.37 -0.86 20.11 -2.37 23.14 -2.6c2.26 -0.17 2.88 0.79 2.76 2.01c-0.34 3.24 -7.07 14.57 -10.58 16.76c-2.65 1.65 -3.36 0.86 -6.01 -0.27"/>
				<path id="kvg:08354-s7" kvg:type="㇒" d="m39.4 68.4c0.46 0.91 0.46 1.76 0.17 2.72c-2.11 7.19 -5.87 18.9 -21.01 25.51"/>
			</g>
			<g id="kvg:08354-g6" kvg:element="力">
				<path id="kvg:08354-s8" kvg:type="㇆" d="m62.61 74.63c1 0.35 3.85 0.37 4.99 0.21c7.09 -1.03 19.32 -3.07 22.27 -3.34c2.17 -0.2 3.46 0.7 3.25 2.06c-1.07 6.88 -6.62 16.95 -11.06 21.06c-2.21 2.03 -3.07 1.03 -5.77 -0.29"/>
				<path id="kvg:08354-s9" kvg:type="㇒" d="m76.64 66.12c0.72 0.72 0.71 1.63 0.47 2.65c-1.7 7.19 -7.25 20.39 -23.3 27.23"/>
			</g>
		</g>
	</g>
</g>
</g>
<g id="kvg:StrokeNumbers_08354" style="font-size:8;fill:#808080">
	<text transform="matrix(1 0 0 1 8.50 28.50)">1</text>
	<text transform="matrix(1 0 0 1 24.75 16.50)">2</text>
	<text transform="matrix(1 0 0 1 63.25 15.50)">3</text>
	<text transform="matrix(1 0 0 1 24.50 48.50)">4</text>
	<text transform="matrix(1 0 0 1 47.50 39.50)">5</text>
	<text transform="matrix(1 0 0 1 10.50 82.50)">6</text>
	<text transform="matrix(1 0 0 1 35.50 71.50)">7</text>
	<text transform="matrix(1 0 0 1 50.50 78.50)">8</text>
	<text transform="matrix(1 0 0 1 72.50 67.50)">9</text>
</g>
</svg>
