<?xml version="1.0" encoding="UTF-8"?>
<!--
Copyright (C) 2016 François Mizessyn.
This work makes an extensive use of kanjiVG Copyright (C) 2009/2010/2011 Ulrich Apel.
This work is distributed under the conditions of the Creative Commons
Attribution-Share Alike 3.0 Licence. This means you are free:
* to Share - to copy, distribute and transmit the work
* to Remix - to adapt the work

Under the following conditions:
* Attribution. You must attribute the work by stating your use of HanjiVG in
  your own copyright header and linking to HanjiVG's website
  (http://gooo.free.fr/hanziVG/)
* Attribution. You must attribute the work by stating your use of KanjiVG in
  your own copyright header and linking to KanjiVG's website
  (http://kanjivg.tagaini.net)
* Share Alike. If you alter, transform, or build upon this work, you may
  distribute the resulting work only under the same or similar license to this
  one.

See http://creativecommons.org/licenses/by-sa/3.0/ for more details.
-->
<!DOCTYPE svg PUBLIC "-//W3C//DTD SVG 1.0//EN" "http://www.w3.org/TR/2001/REC-SVG-20010904/DTD/svg10.dtd" [
<!ATTLIST g
xmlns:kvg CDATA #FIXED "http://kanjivg.tagaini.net"
kvg:element CDATA #IMPLIED
kvg:variant CDATA #IMPLIED
kvg:partial CDATA #IMPLIED
kvg:original CDATA #IMPLIED
kvg:part CDATA #IMPLIED
kvg:number CDATA #IMPLIED
kvg:tradForm CDATA #IMPLIED
kvg:radicalForm CDATA #IMPLIED
kvg:position CDATA #IMPLIED
kvg:radical CDATA #IMPLIED
kvg:phon CDATA #IMPLIED >
<!ATTLIST path
xmlns:kvg CDATA #FIXED "http://kanjivg.tagaini.net"
kvg:type CDATA #IMPLIED >
]>
<svg xmlns="http://www.w3.org/2000/svg" width="109" height="109" viewBox="0 0 109 109">
<g id="kvg:StrokePaths_083b7" style="fill:none;stroke:#000000;stroke-width:3;stroke-linecap:round;stroke-linejoin:round;">
<g id="kvg:083b7" kvg:element="获">
	<g id="kvg:083b7-g1" kvg:element="艹" kvg:variant="true" kvg:original="艸" kvg:position="top" kvg:radical="general">
		<path id="kvg:083b7-s1" kvg:type="㇐" d="M17,23.33c1.29,0.53,5.54,1.1,6.83,1c11.9-0.96,46.78-3.43,60.5-3.5c2.16-0.01,6.09,0.4,7.17,0.67"/>
		<path id="kvg:083b7-s2" kvg:type="㇑a" d="M37,11.33c2.33,0.67,2.8,2.16,3,3c1.83,7.87,1.98,14.47,2.5,17.33"/>
		<path id="kvg:083b7-s3" kvg:type="㇑a" d="M66,10c1.62,0.91,2.24,2.07,2,3.5c-0.83,5-1.83,10.67-3.83,16.33"/>
	</g>
	<g id="kvg:083b7-g2" kvg:element="伏" kvg:position="bottom">
		<g id="kvg:083b7-g3" kvg:element="⺨" kvg:variant="true" kvg:original="犬" kvg:position="left">
			<path id="kvg:083b7-s4" kvg:type="㇒" d="m37.56 37.68c0.06 0.44 0.27 1.3 -0.12 1.77c-4.94 6.08 -9.95 10.37 -21.94 16.95"/>
			<path id="kvg:083b7-s5" kvg:type="㇕va" d="m19.5 39.03c26.67 17.78 16.48 64.34 5.43 54.49"/>
			<path id="kvg:083b7-s6" kvg:type="㇒" d="m32.09 56.58c0.04 0.6 0.21 1.76 -0.09 2.41c-3.88 8.27 -7.82 14.11 -17.24 23.06"/>
		</g>
		<g id="kvg:083b7-g4" kvg:element="犬" kvg:position="right">
			<g id="kvg:083b7-g5" kvg:element="大">
				<path id="kvg:083b7-s7" kvg:type="㇐" d="m39 57.7c2 0.68 5 1.13 8 0.9c7.9 -0.59 30.99 -2.25 40.5 -2.25c2.5 0 4.74 0.74 7.17 1.2"/>
				<path id="kvg:083b7-s8" kvg:type="㇒" d="m63.81 40.9c0.74 0.8 1.4 1.91 1.5 3.5c1.3 20.75 -3.56 44.8 -25.9 53.13"/>
				<path id="kvg:083b7-s9" kvg:type="㇏" d="m66.71 62.07c5.27 9.49 15.53 25.54 22.26 32.31c1.77 1.78 2.42 2.01 3.23 2.17"/>
			</g>
			<g id="kvg:083b7-g6" kvg:element="丶">
				<path id="kvg:083b7-s10" kvg:type="㇔" d="m74.25 42.3c7.21 3 9.18 5.29 11.42 8.1"/>
			</g>
		</g>
	</g>
</g>
</g>
<g id="kvg:StrokeNumbers_083b7" style="font-size:8;fill:#808080">
	<text transform="matrix(1 0 0 1 8.50 28.50)">1</text>
	<text transform="matrix(1 0 0 1 26.75 16.50)">2</text>
	<text transform="matrix(1 0 0 1 56.25 15.50)">3</text>
	<text transform="matrix(1 0 0 1 26.25 40.50)">4</text>
	<text transform="matrix(1 0 0 1 8.50 41.50)">5</text>
	<text transform="matrix(1 0 0 1 20.50 64.50)">6</text>
	<text transform="matrix(1 0 0 1 38.50 55.50)">7</text>
	<text transform="matrix(1 0 0 1 52.50 42.50)">8</text>
	<text transform="matrix(1 0 0 1 72.50 71.50)">9</text>
	<text transform="matrix(1 0 0 1 69.50 40.50)">10</text>
</g>
</svg>
