<?xml version="1.0" encoding="UTF-8"?>
<!--
Copyright (C) 2016 François Mizessyn.
This work makes an extensive use of kanjiVG Copyright (C) 2009/2010/2011 Ulrich Apel.
This work is distributed under the conditions of the Creative Commons
Attribution-Share Alike 3.0 Licence. This means you are free:
* to Share - to copy, distribute and transmit the work
* to Remix - to adapt the work

Under the following conditions:
* Attribution. You must attribute the work by stating your use of HanjiVG in
  your own copyright header and linking to HanjiVG's website
  (http://gooo.free.fr/hanziVG/)
* Attribution. You must attribute the work by stating your use of KanjiVG in
  your own copyright header and linking to KanjiVG's website
  (http://kanjivg.tagaini.net)
* Share Alike. If you alter, transform, or build upon this work, you may
  distribute the resulting work only under the same or similar license to this
  one.

See http://creativecommons.org/licenses/by-sa/3.0/ for more details.
-->
<!DOCTYPE svg PUBLIC "-//W3C//DTD SVG 1.0//EN" "http://www.w3.org/TR/2001/REC-SVG-20010904/DTD/svg10.dtd" [
<!ATTLIST g
xmlns:kvg CDATA #FIXED "http://kanjivg.tagaini.net"
kvg:element CDATA #IMPLIED
kvg:variant CDATA #IMPLIED
kvg:partial CDATA #IMPLIED
kvg:original CDATA #IMPLIED
kvg:part CDATA #IMPLIED
kvg:number CDATA #IMPLIED
kvg:tradForm CDATA #IMPLIED
kvg:radicalForm CDATA #IMPLIED
kvg:position CDATA #IMPLIED
kvg:radical CDATA #IMPLIED
kvg:phon CDATA #IMPLIED >
<!ATTLIST path
xmlns:kvg CDATA #FIXED "http://kanjivg.tagaini.net"
kvg:type CDATA #IMPLIED >
]>
<svg xmlns="http://www.w3.org/2000/svg" width="109" height="109" viewBox="0 0 109 109">
<g id="kvg:StrokePaths_0841d" style="fill:none;stroke:#000000;stroke-width:3;stroke-linecap:round;stroke-linejoin:round;">
<g id="kvg:0841d" kvg:element="萝">
	<g id="kvg:0841d-g1" kvg:position="top">
		<g id="kvg:0841d-g2" kvg:element="艹" kvg:variant="true" kvg:original="艸" kvg:radical="nelson">
			<path id="kvg:0841d-s1" kvg:type="㇐" d="M24.28,21.48c1.77,0.72,4.35,0.71,6.23,0.51c12.23-1.36,34.88-3.62,47.86-4.25c2.7-0.13,5.44-0.32,8.09,0.33"/>
			<path id="kvg:0841d-s2" kvg:type="㇑a" d="M39.8,11.62c0.79,0.79,1.45,1.78,1.61,2.38c1.48,5.64,2.74,11.45,3.16,13.5"/>
			<path id="kvg:0841d-s3" kvg:type="㇑a" d="M69.48,10c0.52,0.75,0.62,1.89,0.32,2.87c-1.76,5.76-2.31,7.39-4.23,12.8"/>
		</g>
		<g id="kvg:0841d-g3" kvg:element="罒" kvg:variant="true" kvg:original="网">
			<path id="kvg:0841d-s4" kvg:type="㇑" d="m29 33.44c1 1.01 1.12 2.72 1.31 3.78c0.81 4.53 1.47 7.95 2.08 12.36c0.28 2 0.52 3.93 0.69 5.63"/>
			<path id="kvg:0841d-s5" kvg:type="㇕a" d="m31.04 35.95c13.83 -2.26 38.46 -5.82 49.82 -6.96c2.1 -0.21 4.14 1.52 3.32 5.81c-0.53 2.79 -1.02 5.69 -1.97 9.69c-0.57 2.43 -0.95 3.74 -1.59 5.91"/>
			<path id="kvg:0841d-s6" kvg:type="㇑a" d="m47.31 34.63c0.66 0.99 1.19 2.03 1.41 4.13c0.48 4.57 0.95 8.58 1.08 10.55"/>
			<path id="kvg:0841d-s7" kvg:type="㇑a" d="m64.75 34.21c0.37 0.98 0.44 2.33 0.24 3.81c-0.75 5.79 -1 7.92 -1.29 9.8"/>
			<path id="kvg:0841d-s8" kvg:type="㇐a" d="m34.24 53.18c9.38 -1.48 36.38 -4.49 45.84 -4.81"/>
		</g>
	</g>
	<g id="kvg:0841d-g4" kvg:element="夕" kvg:position="bottom" kvg:radical="tradit">
		<path id="kvg:0841d-s9" kvg:type="㇒" d="m57.27 54.64c0.23 1.36 -0.36 2.73 -0.95 3.49c-3.82 4.87 -12.05 12.78 -22.66 17.85"/>
		<path id="kvg:0841d-s10" kvg:type="㇇" d="m55.49 63.82c1.01 0.18 2.25 0.21 2.99 0.11c3.45 -0.43 8.52 -0.93 14.45 -1.41c3.5 -0.29 4.17 1.76 2.48 3.83c-9.91 12.15 -23.41 23.65 -46.16 31.9"/>
		<path id="kvg:0841d-s11" kvg:type="㇔" d="m49.5 72.38c3.1 1.06 8.01 4.35 8.78 5.99"/>
	</g>
</g>
</g>
<g id="kvg:StrokeNumbers_0841d" style="font-size:8;fill:#808080">
	<text transform="matrix(1 0 0 1 14.50 22.63)">1</text>
	<text transform="matrix(1 0 0 1 28.50 12.50)">2</text>
	<text transform="matrix(1 0 0 1 56.75 12.50)">3</text>
	<text transform="matrix(1 0 0 1 17.50 39.50)">4</text>
	<text transform="matrix(1 0 0 1 29.50 31.33)">5</text>
	<text transform="matrix(1 0 0 1 41.50 40.50)">6</text>
	<text transform="matrix(1 0 0 1 57.50 40.18)">7</text>
	<text transform="matrix(1 0 0 1 20.50 61.10)">8</text>
	<text transform="matrix(1 0 0 1 38.50 63.50)">9</text>
	<text transform="matrix(1 0 0 1 52.50 62.91)">10</text>
	<text transform="matrix(1 0 0 1 44.20 76.50)">11</text>
</g>
</svg>
