<?xml version="1.0" encoding="UTF-8"?>
<!--
Copyright (C) 2016 François Mizessyn.
This work makes an extensive use of kanjiVG Copyright (C) 2009/2010/2011 Ulrich Apel.
This work is distributed under the conditions of the Creative Commons
Attribution-Share Alike 3.0 Licence. This means you are free:
* to Share - to copy, distribute and transmit the work
* to Remix - to adapt the work

Under the following conditions:
* Attribution. You must attribute the work by stating your use of HanjiVG in
  your own copyright header and linking to HanjiVG's website
  (http://gooo.free.fr/hanziVG/)
* Attribution. You must attribute the work by stating your use of KanjiVG in
  your own copyright header and linking to KanjiVG's website
  (http://kanjivg.tagaini.net)
* Share Alike. If you alter, transform, or build upon this work, you may
  distribute the resulting work only under the same or similar license to this
  one.

See http://creativecommons.org/licenses/by-sa/3.0/ for more details.
-->
<!DOCTYPE svg PUBLIC "-//W3C//DTD SVG 1.0//EN" "http://www.w3.org/TR/2001/REC-SVG-20010904/DTD/svg10.dtd" [
<!ATTLIST g
xmlns:kvg CDATA #FIXED "http://kanjivg.tagaini.net"
kvg:element CDATA #IMPLIED
kvg:variant CDATA #IMPLIED
kvg:partial CDATA #IMPLIED
kvg:original CDATA #IMPLIED
kvg:part CDATA #IMPLIED
kvg:number CDATA #IMPLIED
kvg:tradForm CDATA #IMPLIED
kvg:radicalForm CDATA #IMPLIED
kvg:position CDATA #IMPLIED
kvg:radical CDATA #IMPLIED
kvg:phon CDATA #IMPLIED >
<!ATTLIST path
xmlns:kvg CDATA #FIXED "http://kanjivg.tagaini.net"
kvg:type CDATA #IMPLIED >
]>
<svg xmlns="http://www.w3.org/2000/svg" width="109" height="109" viewBox="0 0 109 109">
<g id="kvg:StrokePaths_084dd" style="fill:none;stroke:#000000;stroke-width:3;stroke-linecap:round;stroke-linejoin:round;">
<g id="kvg:084dd" kvg:element="蓝">
	<g id="kvg:084dd-g1" kvg:element="艹" kvg:variant="true" kvg:original="艸" kvg:position="top" kvg:radical="general">
		<path id="kvg:084dd-s1" kvg:type="㇐" d="M18.75,22.69c3.16,1.11,7.5,0.59,10.75,0.23c15-1.67,36.01-2.8,49.74-3.3c3.61-0.13,7.36-0.21,10.92,0.54"/>
		<path id="kvg:084dd-s2" kvg:type="㇑a" d="M38.19,12.2c0.93,0.93,1.36,1.84,1.49,2.61c1.45,8.69,1.7,10.94,2.48,14.94"/>
		<path id="kvg:084dd-s3" kvg:type="㇑a" d="M68.17,10.67c0.36,1.01,0.34,1.98,0,3.25c-1.63,6.08-2.61,8.83-3.88,13.05"/>
	</g>
	<g id="kvg:084dd-g2" kvg:element="监" kvg:position="bottom">
		<g id="kvg:084dd-g3" kvg:position="top">
			<g id="kvg:084dd-g4" kvg:element="刂" kvg:variant="true" kvg:original="刀" kvg:position="right" kvg:radical="general">
				<path id="kvg:084dd-s4" kvg:type="㇑" d="m28.51 37.67c0.49 0.46 0.88 1.34 0.88 2.51c0 3.52 0 14.29 -0.01 20.08c0 1.63 0 2.88 0 3.5"/>
				<path id="kvg:084dd-s5" kvg:type="㇚" d="m43.51 37.17c0.63 0.63 0.88 1.4 0.88 2.51c0 7.28 0 22.08 0 24.56c0 6.57 -3.6 0.75 -4.36 0.13"/>
			</g>
			<g id="kvg:084dd-g5" kvg:position="right">
				<path id="kvg:084dd-s6" kvg:type="㇒" d="M67.27,37.75c0.1,1.43-0.09,1.97-0.79,3.31c-2.41,4.61-6.35,11.02-11.73,16.83"/>
				<path id="kvg:084dd-s7" kvg:type="㇐" d="M65,48.57c2.12,0.43,3.74,0.22,5.13,0.13c4.21-0.26,8.93-1.28,12.78-2.01c2.04-0.38,3.83-0.44,5.83,0.04"/>
				<path id="kvg:084dd-s8" kvg:type="㇔/㇑" d="m69.66 50.58c3.2 2.1 7.52 7.87 8.31 11.13"/>
			</g>
		</g>
		<g id="kvg:084dd-g6" kvg:element="皿" kvg:position="bottom">
			<path id="kvg:084dd-s9" kvg:type="㇑a" d="M28.21,74.33c0.7,0.92,1.03,1.79,1.11,2.67c0.63,7,0.73,9.5,1.29,17.56"/>
			<path id="kvg:084dd-s10" kvg:type="㇕b" d="M30.1,76.23c10.6-0.94,38.89-3.16,47.27-3.74c3.05-0.21,5.26,0.08,4.53,3.77c-0.91,4.62-1.63,9.01-3.12,15.96"/>
			<path id="kvg:084dd-s11" kvg:type="㇑a" d="M44.86,76.69c0.51,0.68,0.76,1.31,0.91,2.31c0.74,5.01,1.41,8.72,2.07,14.92"/>
			<path id="kvg:084dd-s12" kvg:type="㇑a" d="M63.54,75.26c0.46,0.86,0.59,1.86,0.44,2.99c-0.76,5.69-0.82,7.11-1.83,14.38"/>
			<path id="kvg:084dd-s13" kvg:type="㇐" d="M14.5,95.3c3.95,1.16,8.19,0.87,12.25,0.61c13.96-0.89,39.38-2.16,58.27-2.85c3.93-0.14,7.76,0.43,11.59,1.07"/>
		</g>
	</g>
</g>
</g>
<g id="kvg:StrokeNumbers_084dd" style="font-size:8;fill:#808080">
	<text transform="matrix(1 0 0 1 12.25 23.25)">1</text>
	<text transform="matrix(1 0 0 1 27.25 12.25)">2</text>
	<text transform="matrix(1 0 0 1 57.46 12.25)">3</text>
	<text transform="matrix(1 0 0 1 17.25 45.65)">4</text>
	<text transform="matrix(1 0 0 1 33.25 45.25)">5</text>
	<text transform="matrix(1 0 0 1 56.25 42.13)">6</text>
	<text transform="matrix(1 0 0 1 69.00 44.25)">7</text>
	<text transform="matrix(1 0 0 1 60.25 56.25)">8</text>
	<text transform="matrix(1 0 0 1 17.25 80.25)">9</text>
	<text transform="matrix(1 0 0 1 24.25 72.25)">10</text>
	<text transform="matrix(1 0 0 1 36.00 85.25)">11</text>
	<text transform="matrix(1 0 0 1 54.25 84.25)">12</text>
	<text transform="matrix(1 0 0 1 5.25 93.25)">13</text>
</g>
</svg>
