<?xml version="1.0" encoding="UTF-8"?>
<!--
Copyright (C) 2016 François Mizessyn.
This work makes an extensive use of kanjiVG Copyright (C) 2009/2010/2011 Ulrich Apel.
This work is distributed under the conditions of the Creative Commons
Attribution-Share Alike 3.0 Licence. This means you are free:
* to Share - to copy, distribute and transmit the work
* to Remix - to adapt the work

Under the following conditions:
* Attribution. You must attribute the work by stating your use of HanjiVG in
  your own copyright header and linking to HanjiVG's website
  (http://gooo.free.fr/hanziVG/)
* Attribution. You must attribute the work by stating your use of KanjiVG in
  your own copyright header and linking to KanjiVG's website
  (http://kanjivg.tagaini.net)
* Share Alike. If you alter, transform, or build upon this work, you may
  distribute the resulting work only under the same or similar license to this
  one.

See http://creativecommons.org/licenses/by-sa/3.0/ for more details.
-->
<!DOCTYPE svg PUBLIC "-//W3C//DTD SVG 1.0//EN" "http://www.w3.org/TR/2001/REC-SVG-20010904/DTD/svg10.dtd" [
<!ATTLIST g
xmlns:kvg CDATA #FIXED "http://kanjivg.tagaini.net"
kvg:element CDATA #IMPLIED
kvg:variant CDATA #IMPLIED
kvg:partial CDATA #IMPLIED
kvg:original CDATA #IMPLIED
kvg:part CDATA #IMPLIED
kvg:number CDATA #IMPLIED
kvg:tradForm CDATA #IMPLIED
kvg:radicalForm CDATA #IMPLIED
kvg:position CDATA #IMPLIED
kvg:radical CDATA #IMPLIED
kvg:phon CDATA #IMPLIED >
<!ATTLIST path
xmlns:kvg CDATA #FIXED "http://kanjivg.tagaini.net"
kvg:type CDATA #IMPLIED >
]>
<svg xmlns="http://www.w3.org/2000/svg" width="109" height="109" viewBox="0 0 109 109">
<g id="kvg:StrokePaths_0886c" style="fill:none;stroke:#000000;stroke-width:3;stroke-linecap:round;stroke-linejoin:round;">
<g id="kvg:0886c" kvg:element="衬">
	<g id="kvg:0886c-g1" kvg:element="衤" kvg:variant="true" kvg:original="衣" kvg:position="left" kvg:radical="nelson">
		<path id="kvg:0886c-s1" kvg:type="㇔" d="M26.95,11.12c2.85,2.32,6.44,5.81,8.88,9.88"/>
		<path id="kvg:0886c-s2" kvg:type="㇇" d="M13.58,31c1.01,0.45,3.03,0.66,4.76,0.45c5.79-0.69,19.67-4.32,23.24-5.7c2.44-0.94,4.42,1.2,3,3.5c-8.33,13.5-19.83,28.25-32.33,39"/>
		<path id="kvg:0886c-s3" kvg:type="㇑" d="M31.75,49.86c0.76,0.76,1.27,2.02,1.27,3.89c0,8.76,0.03,27.66,0.05,37.38c0,2.77,0.01,4.79,0.01,5.62"/>
		<path id="kvg:0886c-s4" kvg:type="㇒" d="M46.5,42.14c0.2,0.85-0.1,1.83-0.5,2.45c-1.2,1.87-4.65,5.45-7.05,7.66"/>
		<path id="kvg:0886c-s5" kvg:type="㇔" d="M36.75,54.62c3.63,2.45,6.98,5.61,10.08,9.87"/>
	</g>
	<g id="kvg:0886c-g2" kvg:element="寸" kvg:position="right">
		<path id="kvg:0886c-s6" kvg:type="㇐" d="m54.39 42.17c1.77 0.58 3.74 0.55 5.06 0.3c9.69 -1.85 20.67 -4.22 31.62 -5.18c2.2 -0.19 3.52 -0.12 4.62 0.28"/>
		<path id="kvg:0886c-s7" kvg:type="㇚" d="m79.82 12.83c0.96 1.2 1.41 2.92 1.41 4.77c0 14.52 -0.01 67.91 -0.01 72.87c0 9.28 -5.02 3.41 -7.17 0.75"/>
		<path id="kvg:0886c-s8" kvg:type="㇔" d="m62.1 56.62c2.63 2.38 6.81 9.79 7.46 13.49"/>
	</g>
</g>
</g>
<g id="kvg:StrokeNumbers_0886c" style="font-size:8;fill:#808080">
	<text transform="matrix(1 0 0 1 20.50 11.50)">1</text>
	<text transform="matrix(1 0 0 1 5.50 31.50)">2</text>
	<text transform="matrix(1 0 0 1 25.50 65.50)">3</text>
	<text transform="matrix(1 0 0 1 43.25 41.13)">4</text>
	<text transform="matrix(1 0 0 1 36.50 67.50)">5</text>
	<text transform="matrix(1 0 0 1 52.75 39.13)">6</text>
	<text transform="matrix(1 0 0 1 71.50 13.50)">7</text>
	<text transform="matrix(1 0 0 1 50.50 58.63)">8</text>
</g>
</svg>
