<?xml version="1.0" encoding="UTF-8"?>
<!--
Copyright (C) 2016 François Mizessyn.
This work makes an extensive use of kanjiVG Copyright (C) 2009/2010/2011 Ulrich Apel.
This work is distributed under the conditions of the Creative Commons
Attribution-Share Alike 3.0 Licence. This means you are free:
* to Share - to copy, distribute and transmit the work
* to Remix - to adapt the work

Under the following conditions:
* Attribution. You must attribute the work by stating your use of HanjiVG in
  your own copyright header and linking to HanjiVG's website
  (http://gooo.free.fr/hanziVG/)
* Attribution. You must attribute the work by stating your use of KanjiVG in
  your own copyright header and linking to KanjiVG's website
  (http://kanjivg.tagaini.net)
* Share Alike. If you alter, transform, or build upon this work, you may
  distribute the resulting work only under the same or similar license to this
  one.

See http://creativecommons.org/licenses/by-sa/3.0/ for more details.
-->
<!DOCTYPE svg PUBLIC "-//W3C//DTD SVG 1.0//EN" "http://www.w3.org/TR/2001/REC-SVG-20010904/DTD/svg10.dtd" [
<!ATTLIST g
xmlns:kvg CDATA #FIXED "http://kanjivg.tagaini.net"
kvg:element CDATA #IMPLIED
kvg:variant CDATA #IMPLIED
kvg:partial CDATA #IMPLIED
kvg:original CDATA #IMPLIED
kvg:part CDATA #IMPLIED
kvg:number CDATA #IMPLIED
kvg:tradForm CDATA #IMPLIED
kvg:radicalForm CDATA #IMPLIED
kvg:position CDATA #IMPLIED
kvg:radical CDATA #IMPLIED
kvg:phon CDATA #IMPLIED >
<!ATTLIST path
xmlns:kvg CDATA #FIXED "http://kanjivg.tagaini.net"
kvg:type CDATA #IMPLIED >
]>
<svg xmlns="http://www.w3.org/2000/svg" width="109" height="109" viewBox="0 0 109 109">
<g id="kvg:StrokePaths_088e4" style="fill:none;stroke:#000000;stroke-width:3;stroke-linecap:round;stroke-linejoin:round;">
<g id="kvg:088e4" kvg:element="裤">
	<g id="kvg:088e4-g1" kvg:element="衤" kvg:variant="true" kvg:original="衣" kvg:position="left" kvg:radical="nelson">
		<path id="kvg:088e4-s1" kvg:type="㇔" d="m24.56 11.12c2.28 2.32 5.15 5.81 7.1 9.88"/>
		<path id="kvg:088e4-s2" kvg:type="㇇" d="m13.86 31c0.81 0.45 2.42 0.66 3.81 0.45c4.63 -0.69 15.74 -4.32 18.59 -5.7c1.95 -0.94 3.54 1.2 2.4 3.5c-6.66 13.5 -15.86 28.25 -25.86 39"/>
		<path id="kvg:088e4-s3" kvg:type="㇑" d="m28.4 49.86c0.61 0.76 1.02 2.02 1.02 3.89c0 8.76 0.02 27.66 0.04 37.38c0 2.77 0.01 4.79 0.01 5.62"/>
		<path id="kvg:088e4-s4" kvg:type="㇒" d="m40.2 42.14c0.16 0.85 -0.08 1.83 -0.4 2.45c-0.96 1.87 -3.72 5.45 -5.64 7.66"/>
		<path id="kvg:088e4-s5" kvg:type="㇔" d="m32.4 54.62c2.9 2.45 5.58 5.61 8.06 9.87"/>
	</g>
	<g id="kvg:088e4" kvg:element="库" kvg:position="right">
		<g id="kvg:088e4-g2" kvg:element="广" kvg:position="tare" kvg:radical="general">
			<path id="kvg:088e4-s6" kvg:type="㇑a" d="m70.8 13.14c0.67 1.03 1.18 2.75 1.18 4.37c0 0.83 -0.05 4.57 -0.05 8.53"/>
			<g id="kvg:088e4-g3" kvg:element="厂">
				<path id="kvg:088e4-s7" kvg:type="㇐" d="m48.9 29.43c1.28 0.56 3.62 0.74 4.91 0.56c12.22 -1.61 27.78 -4.49 37.91 -5.25c2.14 -0.15 3.41 0.28 4.48 0.55"/>
				<path id="kvg:088e4-s8" kvg:type="㇒" d="m50.6 30.14c0.58 0.88 0.85 1.84 0.82 3.25c-0.42 21.56 -2.32 46.04 -12.83 61.82"/>
			</g>
		</g>
		<g id="kvg:088e4-g4" kvg:element="车">
			<path id="kvg:088e4-s9" kvg:type="㇐" d="m57.03 45.1c1.74 0.65 3.41 0.62 5.19 0.46c8.13 -0.68 18.23 -2.16 27 -2.61c1.61 -0.07 3.19 -0.06 4.75 0.51"/>
			<path id="kvg:088e4-s10" kvg:type="㇜" d="m75.25 34.82c0.41 0.36 0.92 1.74 -14.49 31.22c8.56 -0.72 19.19 -2.28 25.92 -2.74c1.61 -0.07 3.19 -0.06 4.25 0.32"/>
			<path id="kvg:088e4-s11" kvg:type="㇐" d="m54 80.45c1.83 0.68 3.59 0.65 5.47 0.49c8.56 -0.72 19.19 -2.28 32.42 -2.74c1.69 -0.09 3.35 -0.06 5 0.54"/>
			<path id="kvg:088e4-s12" kvg:type="㇑" d="m75.25 53.38c0.68 0.99 1.03 2.02 1.07 4.36c0.02 0.78 -0.04 35.38 -0.09 33.23c-0.01 3.09 -0.02 5.34 -0.04 6.28"/>
		</g>
	</g>
</g>
</g>
<g id="kvg:StrokeNumbers_088e4" style="font-size:8;fill:#808080">
	<text transform="matrix(1 0 0 1 24.50 11.50)">1</text>
	<text transform="matrix(1 0 0 1 2.50 31.50)">2</text>
	<text transform="matrix(1 0 0 1 25.50 65.50)">3</text>
	<text transform="matrix(1 0 0 1 34.25 49.13)">4</text>
	<text transform="matrix(1 0 0 1 34.50 69.50)">5</text>
	<text transform="matrix(1 0 0 1 60.75 12.13)">6</text>
	<text transform="matrix(1 0 0 1 48.25 27.13)">7</text>
	<text transform="matrix(1 0 0 1 42.75 42.94)">8</text>
	<text transform="matrix(1 0 0 1 55.25 42.63)">9</text>
	<text transform="matrix(1 0 0 1 73.75 40.13)">10</text>
	<text transform="matrix(1 0 0 1 51.25 78.13)">11</text>
	<text transform="matrix(1 0 0 1 76.75 59.63)">12</text>
</g>
</svg>
