<?xml version="1.0" encoding="UTF-8" standalone="no"?>
<!--
Copyright (C) 2016 François Mizessyn.
This work makes an extensive use of kanjiVG Copyright (C) 2009/2010/2011 Ulrich Apel.
This work is distributed under the conditions of the Creative Commons
Attribution-Share Alike 3.0 Licence. This means you are free:
* to Share - to copy, distribute and transmit the work
* to Remix - to adapt the work

Under the following conditions:
* Attribution. You must attribute the work by stating your use of HanjiVG in
  your own copyright header and linking to HanjiVG's website
  (http://gooo.free.fr/hanziVG/)
* Attribution. You must attribute the work by stating your use of KanjiVG in
  your own copyright header and linking to KanjiVG's website
  (http://kanjivg.tagaini.net)
* Share Alike. If you alter, transform, or build upon this work, you may
  distribute the resulting work only under the same or similar license to this
  one.

See http://creativecommons.org/licenses/by-sa/3.0/ for more details.
-->
<!DOCTYPE svg PUBLIC "-//W3C//DTD SVG 1.0//EN" "http://www.w3.org/TR/2001/REC-SVG-20010904/DTD/svg10.dtd" [
<!ATTLIST g
xmlns:kvg CDATA #FIXED "http://kanjivg.tagaini.net"
kvg:element CDATA #IMPLIED
kvg:variant CDATA #IMPLIED
kvg:partial CDATA #IMPLIED
kvg:original CDATA #IMPLIED
kvg:part CDATA #IMPLIED
kvg:number CDATA #IMPLIED
kvg:tradForm CDATA #IMPLIED
kvg:radicalForm CDATA #IMPLIED
kvg:position CDATA #IMPLIED
kvg:radical CDATA #IMPLIED
kvg:phon CDATA #IMPLIED >
<!ATTLIST path
xmlns:kvg CDATA #FIXED "http://kanjivg.tagaini.net"
kvg:type CDATA #IMPLIED >
]>
<svg xmlns="http://www.w3.org/2000/svg" width="109" height="109" viewBox="0 0 109 109">
<g id="kvg:StrokePaths_089c1" style="fill:none;stroke:#000000;stroke-width:3;stroke-linecap:round;stroke-linejoin:round;">
<g id="kvg:089c1" kvg:element="见">
	<g id="kvg:089c1-g1" kvg:element="冂" kvg:variant="true" kvg:radical="general">
		<path id="kvg:089c1-s1" kvg:type="㇑" d="m24.83 21.54c0.93 1 1.42 2.22 0.66 1.24c1.53 7.52 3 19.21 3.16 30.39c0.16 1.54 0.31 3.05 0.46 15.27"/>
		<path id="kvg:089c1-s2" kvg:type="㇕" d="m25.51 22.8c15.08 -1.6 37.74 -4.71 53.76 -5.45c4.06 -0.22 6.23 1.56 5.9 4.58c-0.86 7.74 -2.71 18.58 -3.09 28.39c-0.38 1.57 -0.76 6.34 -1.15 15.4"/>
	</g>
	<g id="kvg:089c1-g2">
		<path id="kvg:089c1-s3" kvg:type="㇒" d="m55.95 34.19c0.12 2.18 0.27 2.06 0.27 5.06c0 0.44 0.99 44.44 -41.55 58.11"/>
		<path id="kvg:089c1-s4" kvg:type="㇟" d="m58.48 52.37c0.74 1.57 1.33 3.42 1.38 5.83c0.2 10.79 -0.53 21.27 -0.53 22.61c0 17.14 8.91 15.2 17.67 15.2c9.25 0 15.34 -2.21 16.64 -3.46c2.75 -2.64 2 -3.96 2.25 -8.57"/>
	</g>
</g>
</g>
<g id="kvg:StrokeNumbers_089c1" style="font-size:8;fill:#808080">
	<text transform="matrix(1 0 0 1 15.50 30.50)">1</text>
	<text transform="matrix(1 0 0 1 22.50 18.50)">2</text>
	<text transform="matrix(1 0 0 1 44.50 35.55)">3</text>
	<text transform="matrix(1 0 0 1 58.50 51.50)">4</text>
</g>
</svg>
