<?xml version="1.0" encoding="UTF-8" standalone="no"?>
<!--
Copyright (C) 2016 François Mizessyn.
This work makes an extensive use of kanjiVG Copyright (C) 2009/2010/2011 Ulrich Apel.
This work is distributed under the conditions of the Creative Commons
Attribution-Share Alike 3.0 Licence. This means you are free:
* to Share - to copy, distribute and transmit the work
* to Remix - to adapt the work

Under the following conditions:
* Attribution. You must attribute the work by stating your use of HanjiVG in
  your own copyright header and linking to HanjiVG's website
  (http://gooo.free.fr/hanziVG/)
* Attribution. You must attribute the work by stating your use of KanjiVG in
  your own copyright header and linking to KanjiVG's website
  (http://kanjivg.tagaini.net)
* Share Alike. If you alter, transform, or build upon this work, you may
  distribute the resulting work only under the same or similar license to this
  one.

See http://creativecommons.org/licenses/by-sa/3.0/ for more details.
-->
<!DOCTYPE svg PUBLIC "-//W3C//DTD SVG 1.0//EN" "http://www.w3.org/TR/2001/REC-SVG-20010904/DTD/svg10.dtd" [
<!ATTLIST g
xmlns:kvg CDATA #FIXED "http://kanjivg.tagaini.net"
kvg:element CDATA #IMPLIED
kvg:variant CDATA #IMPLIED
kvg:partial CDATA #IMPLIED
kvg:original CDATA #IMPLIED
kvg:part CDATA #IMPLIED
kvg:number CDATA #IMPLIED
kvg:tradForm CDATA #IMPLIED
kvg:radicalForm CDATA #IMPLIED
kvg:position CDATA #IMPLIED
kvg:radical CDATA #IMPLIED
kvg:phon CDATA #IMPLIED >
<!ATTLIST path
xmlns:kvg CDATA #FIXED "http://kanjivg.tagaini.net"
kvg:type CDATA #IMPLIED >
]>
<svg xmlns="http://www.w3.org/2000/svg" width="109" height="109" viewBox="0 0 109 109">
<g id="kvg:StrokePaths_089c9" style="fill:none;stroke:#000000;stroke-width:3;stroke-linecap:round;stroke-linejoin:round;">
<g id="kvg:089c9" kvg:element="觉">
	<g id="kvg:089c9-g1" kvg:position="top">
		<g id="kvg:089c9-g2" kvg:element="⺌" kvg:variant="true" kvg:original="小" kvg:position="top" kvg:radical="nelson">
			<path id="kvg:089c9-s1" kvg:type="㇑a" d="M52.96,12.37c0.9,0.9,1.51,2.35,1.51,3.99c0,3.14-0.01,8.77-0.01,14.76"/>
			<path id="kvg:089c9-s2" kvg:type="㇔" d="M30.88,17.12c3.24,1.83,8.37,7.5,9.18,10.34"/>
			<path id="kvg:089c9-s3" kvg:type="㇒" d="M74.76,16.25c0,0.75-0.1,1.6-0.3,2.02c-1.58,3.35-3.83,6.73-9.02,11.69"/>
		</g>
		<g id="kvg:089c9-g3" kvg:element="冂" kvg:variant="true" kvg:position="bottom">
			<path id="kvg:089c9-s4" kvg:type="㇔/㇑" d="M16.2,33.5c-0.13,4.04-2.35,13.52-3.45,15.94"/>
			<path id="kvg:089c9-s5" kvg:type="㇖b" d="M17.24,35.18c12.89-1.3,43.89-4.43,74.05-5.12c11.21-0.38,0.4,7.44-1.15,8.7"/>
		</g>
	</g>
	<g id="kvg:089c9-g4" kvg:element="见" kvg:position="bottom">
		<g id="kvg:089c9-g5" kvg:element="冂" kvg:variant="true" kvg:radical="general">
			<path id="kvg:089c9-s6" kvg:type="㇑" d="M26.83,46.94c0.93,0.93,1.42,2.06,0.66,1.15c1.53,6.96,3,17.79,3.16,17.14c-0.16,1.43,0.31,2.82,0.46,9.14"/>
			<path id="kvg:089c9-s7" kvg:type="㇕" d="M27.51,48.11c15.08-1.48,37.74-4.36,47.76-5.05c4.06-0.2,6.23,1.44,5.9,4.24c-0.86,7.17-2.71,17.2-3.09,21.29c-0.38,1.45-0.76,5.87-1.15,4.26"/>
		</g>
		<g id="kvg:089c9-g6" kvg:element="儿" kvg:original="八">
			<g id="kvg:089c9-g7" kvg:element="丿">
				<path id="kvg:089c9-s8" kvg:type="㇒" d="m57.3 58.23c0.11 1.85 0.26 1.75 -0.26 4.3c0.51 -3.88 -5.63 31.82 -38.96 34.94"/>
			</g>
			<path id="kvg:089c9-s9" kvg:type="㇟" d="m57.71 69.16c0.7 1.33 0.31 2.91 0.36 2.41c-1.14 9.17 -0.5 9.58 -0.5 11.12c0 14.57 8.46 12.92 16.79 12.92c8.79 0 14.57 -1.88 15.81 -2.94c2.61 -2.24 1.9 -3.37 2.14 -7.28"/>
		</g>
	</g>
</g>
</g>
<g id="kvg:StrokeNumbers_089c9" style="font-size:8;fill:#808080">
	<text transform="matrix(1 0 0 1 21.50 15.50)">1</text>
	<text transform="matrix(1 0 0 1 42.50 13.50)">2</text>
	<text transform="matrix(1 0 0 1 65.50 14.50)">3</text>
	<text transform="matrix(1 0 0 1 5.50 35.50)">4</text>
	<text transform="matrix(1 0 0 1 16.50 31.50)">5</text>
	<text transform="matrix(1 0 0 1 16.50 52.50)">6</text>
	<text transform="matrix(1 0 0 1 26.50 45.50)">7</text>
	<text transform="matrix(1 0 0 1 46.50 59.50)">8</text>
	<text transform="matrix(1 0 0 1 59.50 70.50)">9</text>
</g>
</svg>
