<?xml version="1.0" encoding="UTF-8"?>
<!--
Copyright (C) 2016 François Mizessyn.
This work makes an extensive use of kanjiVG Copyright (C) 2009/2010/2011 Ulrich Apel.
This work is distributed under the conditions of the Creative Commons
Attribution-Share Alike 3.0 Licence. This means you are free:
* to Share - to copy, distribute and transmit the work
* to Remix - to adapt the work

Under the following conditions:
* Attribution. You must attribute the work by stating your use of HanjiVG in
  your own copyright header and linking to HanjiVG's website
  (http://gooo.free.fr/hanziVG/)
* Attribution. You must attribute the work by stating your use of KanjiVG in
  your own copyright header and linking to KanjiVG's website
  (http://kanjivg.tagaini.net)
* Share Alike. If you alter, transform, or build upon this work, you may
  distribute the resulting work only under the same or similar license to this
  one.

See http://creativecommons.org/licenses/by-sa/3.0/ for more details.
-->
<!DOCTYPE svg PUBLIC "-//W3C//DTD SVG 1.0//EN" "http://www.w3.org/TR/2001/REC-SVG-20010904/DTD/svg10.dtd" [
<!ATTLIST g
xmlns:kvg CDATA #FIXED "http://kanjivg.tagaini.net"
kvg:element CDATA #IMPLIED
kvg:variant CDATA #IMPLIED
kvg:partial CDATA #IMPLIED
kvg:original CDATA #IMPLIED
kvg:part CDATA #IMPLIED
kvg:number CDATA #IMPLIED
kvg:tradForm CDATA #IMPLIED
kvg:radicalForm CDATA #IMPLIED
kvg:position CDATA #IMPLIED
kvg:radical CDATA #IMPLIED
kvg:phon CDATA #IMPLIED >
<!ATTLIST path
xmlns:kvg CDATA #FIXED "http://kanjivg.tagaini.net"
kvg:type CDATA #IMPLIED >
]>
<svg xmlns="http://www.w3.org/2000/svg" width="109" height="109" viewBox="0 0 109 109">
<g id="kvg:StrokePaths_089c4" style="fill:none;stroke:#000000;stroke-width:3;stroke-linecap:round;stroke-linejoin:round;">
<g id="kvg:089c4" kvg:element="规">
	<g id="kvg:089c4-g1" kvg:element="夫" kvg:position="left">
		<path id="kvg:089c4-s1" kvg:type="㇐" d="M15.56,33.93c1.64,0.34,3.91,0.21,5.56,0.02c5.44-0.66,11.65-1.48,18.63-2.82c1.44-0.28,2.83-0.51,4.3-0.33"/>
		<g id="kvg:089c4-g2" kvg:element="大">
			<path id="kvg:089c4-s2" kvg:type="㇐" d="M12.64,51.33c1.92,0.39,3.95,0.12,5.87-0.09c5.54-0.61,14.24-1.86,21.86-2.83c1.96-0.25,3.91-0.26,5.88-0.02"/>
			<path id="kvg:089c4-s3" kvg:type="㇒" d="M30.09,15.25c1.02,1.02,1.44,2.61,1.45,4.73C31.67,59.04,26.5,73.5,12.79,86.5"/>
			<path id="kvg:089c4-s4" kvg:type="㇔/㇏" d="M31.97,60.79c4.38,3.73,8.5,9.65,10.53,14.74"/>
		</g>
	</g>
	<g id="kvg:089c4-g3" kvg:element="见" kvg:variant="true" kvg:position="right" kvg:radical="general">
		<g id="kvg:089c4-g4" kvg:element="冂" kvg:variant="true" kvg:radical="general">
			<path id="kvg:089c4-s5" kvg:type="㇑" d="m51.14 21.54c0.6 1 0.92 2.22 0.43 1.24c0.99 7.52 1.95 19.21 2.05 30.39c0.1 1.54 0.2 3.05 0.3 15.27"/>
			<path id="kvg:089c4-s6" kvg:type="㇕" d="m51.58 22.8c9.8 -1.6 24.53 -4.71 34.94 -5.45c2.64 -0.22 4.05 1.56 3.84 4.58c-0.56 7.74 -1.76 18.58 -2.01 28.39c-0.25 1.57 -0.49 6.34 -0.75 15.4"/>
		</g>
		<g id="kvg:089c4-g5" kvg:element="儿" kvg:original="八">
			<g id="kvg:089c4-g9" kvg:element="丿">
				<path id="kvg:089c4-s7" kvg:type="㇒" d="m71.18 34.19c0.12 2.18 0.27 2.06 0.27 4.06c0.03 6.21 0.66 41.87 -28.18 58.11"/>
			</g>
			<path id="kvg:089c4-s8" kvg:type="㇟" d="m71.61 52.65c0.92 0.98 1.6 2.97 1.6 4.44c0 9.16 -0.09 17.32 -0.09 25.05c0 11.85 1.06 12.9 11.91 12.9c9.63 0 10.98 -0.79 10.98 -10.21"/>
		</g>
	</g>
</g>
</g>
<g id="kvg:StrokeNumbers_089c4" style="font-size:8;fill:#808080">
	<text transform="matrix(1 0 0 1 9.75 35.50)">1</text>
	<text transform="matrix(1 0 0 1 5.25 52.63)">2</text>
	<text transform="matrix(1 0 0 1 21.50 16.50)">3</text>
	<text transform="matrix(1 0 0 1 31.75 62.13)">4</text>
	<text transform="matrix(1 0 0 1 54.50 35.50)">5</text>
	<text transform="matrix(1 0 0 1 50.50 18.50)">6</text>
	<text transform="matrix(1 0 0 1 71.50 36.13)">7</text>
	<text transform="matrix(1 0 0 1 73.50 52.50)">8</text>
</g>
</svg>
