<?xml version="1.0" encoding="UTF-8"?>
<!--
Copyright (C) 2016 François Mizessyn.
This work makes an extensive use of kanjiVG Copyright (C) 2009/2010/2011 Ulrich Apel.
This work is distributed under the conditions of the Creative Commons
Attribution-Share Alike 3.0 Licence. This means you are free:
* to Share - to copy, distribute and transmit the work
* to Remix - to adapt the work

Under the following conditions:
* Attribution. You must attribute the work by stating your use of HanjiVG in
  your own copyright header and linking to HanjiVG's website
  (http://gooo.free.fr/hanziVG/)
* Attribution. You must attribute the work by stating your use of KanjiVG in
  your own copyright header and linking to KanjiVG's website
  (http://kanjivg.tagaini.net)
* Share Alike. If you alter, transform, or build upon this work, you may
  distribute the resulting work only under the same or similar license to this
  one.

See http://creativecommons.org/licenses/by-sa/3.0/ for more details.
-->
<!DOCTYPE svg PUBLIC "-//W3C//DTD SVG 1.0//EN" "http://www.w3.org/TR/2001/REC-SVG-20010904/DTD/svg10.dtd" [
<!ATTLIST g
xmlns:kvg CDATA #FIXED "http://kanjivg.tagaini.net"
kvg:element CDATA #IMPLIED
kvg:variant CDATA #IMPLIED
kvg:partial CDATA #IMPLIED
kvg:original CDATA #IMPLIED
kvg:part CDATA #IMPLIED
kvg:number CDATA #IMPLIED
kvg:tradForm CDATA #IMPLIED
kvg:radicalForm CDATA #IMPLIED
kvg:position CDATA #IMPLIED
kvg:radical CDATA #IMPLIED
kvg:phon CDATA #IMPLIED >
<!ATTLIST path
xmlns:kvg CDATA #FIXED "http://kanjivg.tagaini.net"
kvg:type CDATA #IMPLIED >
]>
<svg xmlns="http://www.w3.org/2000/svg" width="109" height="109" viewBox="0 0 109 109">
<g id="kvg:StrokePaths_089c2" style="fill:none;stroke:#000000;stroke-width:3;stroke-linecap:round;stroke-linejoin:round;">
<g id="kvg:089c2" kvg:element="观">
	<g id="kvg:089c2-g1" kvg:element="又" kvg:variant="true" kvg:position="left" kvg:radical="general">
		<path id="kvg:089c2-s1" kvg:type="㇇" d="M14.54,31.55c1.18,0.39,3.06,0.63,5.45,0.14c3.01-0.62,12.57-3.5,17.06-4.8c2.72-0.79,5.3,0.19,4.5,3.52C36.6,51.15,28.75,71,9.17,84.5"/>
		<path id="kvg:089c2-s2" kvg:type="㇔/㇏" d="M19.12,46c8.38,5.38,18.28,14.69,24.12,26.25"/>
	</g>
	<g id="kvg:089c6-g2" kvg:element="见" kvg:variant="true" kvg:position="right" kvg:radical="general">
		<g id="kvg:089c6-g3" kvg:element="冂" kvg:variant="true" kvg:radical="general">
			<path id="kvg:089c6-s3" kvg:type="㇑" d="m51.14 21.54c0.6 1 0.92 2.22 0.43 1.24c0.99 7.52 1.95 19.21 2.05 30.39c0.1 1.54 0.2 3.05 0.3 15.27"/>
			<path id="kvg:089c6-s4" kvg:type="㇕" d="m51.58 22.8c9.8 -1.6 24.53 -4.71 34.94 -5.45c2.64 -0.22 4.05 1.56 3.84 4.58c-0.56 7.74 -1.76 18.58 -2.01 28.39c-0.25 1.57 -0.49 6.34 -0.75 15.4"/>
		</g>
		<g id="kvg:089c6-g4" kvg:element="儿" kvg:original="八">
			<g id="kvg:089c6-g9" kvg:element="丿">
				<path id="kvg:089c6-s5" kvg:type="㇒" d="m71.18 34.19c0.12 2.18 0.27 2.06 0.27 4.06c0.03 6.21 0.66 41.87 -28.18 58.11"/>
			</g>
			<path id="kvg:089c6-s6" kvg:type="㇟" d="m71.61 52.65c0.92 0.98 1.6 2.97 1.6 4.44c0 9.16 -0.09 17.32 -0.09 25.05c0 11.85 1.06 12.9 11.91 12.9c9.63 0 10.98 -0.79 10.98 -10.21"/>
		</g>
	</g>
</g>
</g>
<g id="kvg:StrokeNumbers_089c2" style="font-size:8;fill:#808080">
	<text transform="matrix(1 0 0 1 13.50 28.50)">1</text>
	<text transform="matrix(1 0 0 1 17.50 42.50)">2</text>
	<text transform="matrix(1 0 0 1 41.50 32.50)">3</text>
	<text transform="matrix(1 0 0 1 50.50 18.50)">4</text>
	<text transform="matrix(1 0 0 1 71.50 36.13)">5</text>
	<text transform="matrix(1 0 0 1 73.50 52.50)">6</text>
</g>
</svg>
