<?xml version="1.0" encoding="UTF-8"?>
<!--
Copyright (C) 2016 François Mizessyn.
This work makes an extensive use of kanjiVG Copyright (C) 2009/2010/2011 Ulrich Apel.
This work is distributed under the conditions of the Creative Commons
Attribution-Share Alike 3.0 Licence. This means you are free:
* to Share - to copy, distribute and transmit the work
* to Remix - to adapt the work

Under the following conditions:
* Attribution. You must attribute the work by stating your use of HanjiVG in
  your own copyright header and linking to HanjiVG's website
  (http://gooo.free.fr/hanziVG/)
* Attribution. You must attribute the work by stating your use of KanjiVG in
  your own copyright header and linking to KanjiVG's website
  (http://kanjivg.tagaini.net)
* Share Alike. If you alter, transform, or build upon this work, you may
  distribute the resulting work only under the same or similar license to this
  one.

See http://creativecommons.org/licenses/by-sa/3.0/ for more details.
-->
<!DOCTYPE svg PUBLIC "-//W3C//DTD SVG 1.0//EN" "http://www.w3.org/TR/2001/REC-SVG-20010904/DTD/svg10.dtd" [
<!ATTLIST g
xmlns:kvg CDATA #FIXED "http://kanjivg.tagaini.net"
kvg:element CDATA #IMPLIED
kvg:variant CDATA #IMPLIED
kvg:partial CDATA #IMPLIED
kvg:original CDATA #IMPLIED
kvg:part CDATA #IMPLIED
kvg:number CDATA #IMPLIED
kvg:tradForm CDATA #IMPLIED
kvg:radicalForm CDATA #IMPLIED
kvg:position CDATA #IMPLIED
kvg:radical CDATA #IMPLIED
kvg:phon CDATA #IMPLIED >
<!ATTLIST path
xmlns:kvg CDATA #FIXED "http://kanjivg.tagaini.net"
kvg:type CDATA #IMPLIED >
]>
<svg xmlns="http://www.w3.org/2000/svg" width="109" height="109" viewBox="0 0 109 109">
<g id="kvg:StrokePaths_08ba8" style="fill:none;stroke:#000000;stroke-width:3;stroke-linecap:round;stroke-linejoin:round;">
<g id="kvg:08ba8" kvg:element="讨">
	<g id="kvg:08ba8-g1" kvg:element="讠" kvg:position="left" kvg:radical="general">
		<path id="kvg:08ba8-s1" kvg:type="㇔" d="M21.42,13.75c2.51,1.37,8.97,9.11,9.5,11.67"/>
		<path id="kvg:08ba8-s2" d="M12.99,41.54c1.33,0.32,2.63,0.07,3.92-0.24c3.04-0.74,9.44-2.27,12.21-3.06c1.65-0.47,3.45,0.54,3.19,2.55c-0.57,4.49-3.19,24.21-4.99,52.01c1.33,0.32,2.63,-5.07,12.92-15.24"/>
	</g>
	<g id="kvg:08ba8-g2" kvg:element="寸" kvg:position="right" kvg:phon="寸">
		<path id="kvg:08ba8-s3" kvg:type="㇐" d="m45.88 42.9c2.29 0.55 4.17 0.49 6.44 0.14c9.75 -1.5 25.23 -3.63 35.84 -4.7c2.14 -0.22 4.98 -0.35 7.34 0.26"/>
		<path id="kvg:08ba8-s4" kvg:type="㇚" d="m79.1 13.58c1.13 1.08 1.85 2.67 1.85 4.77c0 20.4 -0.01 65.15 -0.01 70.62c0 12.03 -7.37 2.03 -9.67 0.5"/>
		<path id="kvg:08ba8-s5" kvg:type="㇔" d="m56.46 56.87c3.33 2.51 6.22 6.01 8.14 11"/>
	</g>
</g>
</g>
<g id="kvg:StrokeNumbers_08ba8" style="font-size:8;fill:#808080">
	<text transform="matrix(1 0 0 1 11.50 15.50)">1</text>
	<text transform="matrix(1 0 0 1 7.50 37.50)">2</text>
	<text transform="matrix(1 0 0 1 49.50 40.50)">3</text>
	<text transform="matrix(1 0 0 1 71.50 14.50)">4</text>
	<text transform="matrix(1 0 0 1 47.50 58.50)">5</text>
</g>
</svg>
