<?xml version="1.0" encoding="UTF-8"?>
<!--
Copyright (C) 2016 François Mizessyn.
This work makes an extensive use of kanjiVG Copyright (C) 2009/2010/2011 Ulrich Apel.
This work is distributed under the conditions of the Creative Commons
Attribution-Share Alike 3.0 Licence. This means you are free:
* to Share - to copy, distribute and transmit the work
* to Remix - to adapt the work

Under the following conditions:
* Attribution. You must attribute the work by stating your use of HanjiVG in
  your own copyright header and linking to HanjiVG's website
  (http://gooo.free.fr/hanziVG/)
* Attribution. You must attribute the work by stating your use of KanjiVG in
  your own copyright header and linking to KanjiVG's website
  (http://kanjivg.tagaini.net)
* Share Alike. If you alter, transform, or build upon this work, you may
  distribute the resulting work only under the same or similar license to this
  one.

See http://creativecommons.org/licenses/by-sa/3.0/ for more details.
-->
<!DOCTYPE svg PUBLIC "-//W3C//DTD SVG 1.0//EN" "http://www.w3.org/TR/2001/REC-SVG-20010904/DTD/svg10.dtd" [
<!ATTLIST g
xmlns:kvg CDATA #FIXED "http://kanjivg.tagaini.net"
kvg:element CDATA #IMPLIED
kvg:variant CDATA #IMPLIED
kvg:partial CDATA #IMPLIED
kvg:original CDATA #IMPLIED
kvg:part CDATA #IMPLIED
kvg:number CDATA #IMPLIED
kvg:tradForm CDATA #IMPLIED
kvg:radicalForm CDATA #IMPLIED
kvg:position CDATA #IMPLIED
kvg:radical CDATA #IMPLIED
kvg:phon CDATA #IMPLIED >
<!ATTLIST path
xmlns:kvg CDATA #FIXED "http://kanjivg.tagaini.net"
kvg:type CDATA #IMPLIED >
]>
<svg xmlns="http://www.w3.org/2000/svg" width="109" height="109" viewBox="0 0 109 109">
<g id="kvg:StrokePaths_08bae" style="fill:none;stroke:#000000;stroke-width:3;stroke-linecap:round;stroke-linejoin:round;">
<g id="kvg:08bae" kvg:element="议">
	<g id="kvg:08bae-g1" kvg:element="讠" kvg:position="left" kvg:radical="general">
		<path id="kvg:08bae-s1" kvg:type="㇔" d="M21.42,13.75c2.51,1.37,8.97,9.11,9.5,11.67"/>
		<path id="kvg:08bae-s2" d="M12.99,41.54c1.33,0.32,2.63,0.07,3.92-0.24c3.04-0.74,9.44-2.27,12.21-3.06c1.65-0.47,3.45,0.54,3.19,2.55c-0.57,4.49-3.19,24.21-4.99,52.01c1.33,0.32,2.63,-5.07,12.92-15.24"/>
	</g>
	<g id="kvg:08bae-g2" kvg:element="义" kvg:position="right">
		<path id="kvg:08bae-s3" kvg:type="㇔" d="m58.7 15.63c3.01 2.06 10.76 13.67 11.4 17.51"/>
		<g id="kvg:08bae-g3" kvg:element="乂" kvg:position="bottom">
			<g id="kvg:08bae-g4" kvg:element="丿">
				<path id="kvg:08bae-s4" kvg:type="㇒" d="m83.3 29.51c0.69 1.58 1.07 2.69 0.35 5.56c-6.54 26.06 -17.8 48.29 -42.97 59.42"/>
			</g>
			<path id="kvg:08bae-s5" kvg:type="㇏" d="m49.71 35.51c8.42 16.62 26.46 42.42 38.89 56.11c2.3 2.52 4.72 4.2 6.65 4.46"/>
		</g>
	</g>
</g>
</g>
<g id="kvg:StrokeNumbers_08bae" style="font-size:8;fill:#808080">
	<text transform="matrix(1 0 0 1 11.50 15.50)">1</text>
	<text transform="matrix(1 0 0 1 7.50 37.50)">2</text>
	<text transform="matrix(1 0 0 1 49.50 14.50)">3</text>
	<text transform="matrix(1 0 0 1 78.50 26.50)">4</text>
	<text transform="matrix(1 0 0 1 41.99 33.03)">5</text>
</g>
</svg>
