<?xml version="1.0" encoding="UTF-8"?>
<!--
Copyright (C) 2016 François Mizessyn.
This work makes an extensive use of kanjiVG Copyright (C) 2009/2010/2011 Ulrich Apel.
This work is distributed under the conditions of the Creative Commons
Attribution-Share Alike 3.0 Licence. This means you are free:
* to Share - to copy, distribute and transmit the work
* to Remix - to adapt the work

Under the following conditions:
* Attribution. You must attribute the work by stating your use of HanjiVG in
  your own copyright header and linking to HanjiVG's website
  (http://gooo.free.fr/hanziVG/)
* Attribution. You must attribute the work by stating your use of KanjiVG in
  your own copyright header and linking to KanjiVG's website
  (http://kanjivg.tagaini.net)
* Share Alike. If you alter, transform, or build upon this work, you may
  distribute the resulting work only under the same or similar license to this
  one.

See http://creativecommons.org/licenses/by-sa/3.0/ for more details.
-->
<!DOCTYPE svg PUBLIC "-//W3C//DTD SVG 1.0//EN" "http://www.w3.org/TR/2001/REC-SVG-20010904/DTD/svg10.dtd" [
<!ATTLIST g
xmlns:kvg CDATA #FIXED "http://kanjivg.tagaini.net"
kvg:element CDATA #IMPLIED
kvg:variant CDATA #IMPLIED
kvg:partial CDATA #IMPLIED
kvg:original CDATA #IMPLIED
kvg:part CDATA #IMPLIED
kvg:number CDATA #IMPLIED
kvg:tradForm CDATA #IMPLIED
kvg:radicalForm CDATA #IMPLIED
kvg:position CDATA #IMPLIED
kvg:radical CDATA #IMPLIED
kvg:phon CDATA #IMPLIED >
<!ATTLIST path
xmlns:kvg CDATA #FIXED "http://kanjivg.tagaini.net"
kvg:type CDATA #IMPLIED >
]>
<svg xmlns="http://www.w3.org/2000/svg" width="109" height="109" viewBox="0 0 109 109">
<g id="kvg:StrokePaths_08ba9" style="fill:none;stroke:#000000;stroke-width:3;stroke-linecap:round;stroke-linejoin:round;">
<g id="kvg:08ba9" kvg:element="让">
	<g id="kvg:08ba9-g1" kvg:element="讠" kvg:position="left" kvg:radical="general">
		<path id="kvg:08ba9-s1" kvg:type="㇔" d="M21.42,13.75c2.51,1.37,8.97,9.11,9.5,11.67"/>
		<path id="kvg:08ba9-s2" d="M12.99,41.54c1.33,0.32,2.63,0.07,3.92-0.24c3.04-0.74,9.44-2.27,12.21-3.06c1.65-0.47,3.45,0.54,3.19,2.55c-0.57,4.49-3.19,24.21-4.99,52.01c1.33,0.32,2.63,-5.07,12.92-15.24"/>
	</g>
	<g id="kvg:08ba9-g2" kvg:element="上" kvg:position="top">
		<g id="kvg:08ba9-g3" kvg:element="卜" kvg:original="ト" kvg:radical="nelson">
			<path id="kvg:08ba9-s3" kvg:type="㇑a" d="M67.31,15.88c1.15,1.15,2.01,3.12,2.01,5.12c0,0.82-0.22,63.62-0.25,64.63"/>
			<path id="kvg:08ba9-s4" kvg:type="㇐b/㇔" d="M73,44.75c7-0.62,14.25-2.5,10.75-1.5c1.38-0.2,3.5-0.38,4.75,0"/>
		</g>
		<g id="kvg:08ba9-g4" kvg:element="一" kvg:radical="tradit">
			<path id="kvg:08ba9-s5" kvg:type="㇐" d="M41.38,88.28c3.6,1.15,7.45,0.62,11.13,0.34c16.23-1.23,41.16-2.66,45.24-2.92"/>
		</g>
	</g>
</g>
</g>
<g id="kvg:StrokeNumbers_08ba9" style="font-size:8;fill:#808080">
	<text transform="matrix(1 0 0 1 11.50 15.50)">1</text>
	<text transform="matrix(1 0 0 1 7.50 37.50)">2</text>
	<text transform="matrix(1 0 0 1 60.50 16.28)">3</text>
	<text transform="matrix(1 0 0 1 60.25 45.50)">4</text>
	<text transform="matrix(1 0 0 1 40.50 85.50)">5</text>
</g>
</svg>
