<?xml version="1.0" encoding="UTF-8"?>
<!--
Copyright (C) 2016 François Mizessyn.
This work makes an extensive use of kanjiVG Copyright (C) 2009/2010/2011 Ulrich Apel.
This work is distributed under the conditions of the Creative Commons
Attribution-Share Alike 3.0 Licence. This means you are free:
* to Share - to copy, distribute and transmit the work
* to Remix - to adapt the work

Under the following conditions:
* Attribution. You must attribute the work by stating your use of HanjiVG in
  your own copyright header and linking to HanjiVG's website
  (http://gooo.free.fr/hanziVG/)
* Attribution. You must attribute the work by stating your use of KanjiVG in
  your own copyright header and linking to KanjiVG's website
  (http://kanjivg.tagaini.net)
* Share Alike. If you alter, transform, or build upon this work, you may
  distribute the resulting work only under the same or similar license to this
  one.

See http://creativecommons.org/licenses/by-sa/3.0/ for more details.
-->
<!DOCTYPE svg PUBLIC "-//W3C//DTD SVG 1.0//EN" "http://www.w3.org/TR/2001/REC-SVG-20010904/DTD/svg10.dtd" [
<!ATTLIST g
xmlns:kvg CDATA #FIXED "http://kanjivg.tagaini.net"
kvg:element CDATA #IMPLIED
kvg:variant CDATA #IMPLIED
kvg:partial CDATA #IMPLIED
kvg:original CDATA #IMPLIED
kvg:part CDATA #IMPLIED
kvg:number CDATA #IMPLIED
kvg:tradForm CDATA #IMPLIED
kvg:radicalForm CDATA #IMPLIED
kvg:position CDATA #IMPLIED
kvg:radical CDATA #IMPLIED
kvg:phon CDATA #IMPLIED >
<!ATTLIST path
xmlns:kvg CDATA #FIXED "http://kanjivg.tagaini.net"
kvg:type CDATA #IMPLIED >
]>
<svg xmlns="http://www.w3.org/2000/svg" width="109" height="109" viewBox="0 0 109 109">
<g id="kvg:StrokePaths_08bb2" style="fill:none;stroke:#000000;stroke-width:3;stroke-linecap:round;stroke-linejoin:round;">
<g id="kvg:08bb2" kvg:element="讲">
	<g id="kvg:08ba9-g1" kvg:element="讠" kvg:position="left" kvg:radical="general">
		<path id="kvg:08ba9-s1" kvg:type="㇔" d="M21.42,13.75c2.51,1.37,8.97,9.11,9.5,11.67"/>
		<path id="kvg:08ba9-s2" d="M12.99,41.54c1.33,0.32,2.63,0.07,3.92-0.24c3.04-0.74,9.44-2.27,12.21-3.06c1.65-0.47,3.45,0.54,3.19,2.55c-0.57,4.49-3.19,24.21-4.99,52.01c1.33,0.32,2.63,-5.07,12.92-15.24"/>
	</g>
	<g id="kvg:08bb2-g2" kvg:element="井" kvg:position="right" kvg:phon="井">
		<path id="kvg:08bb2-s3" kvg:type="㇐" d="m44.56 40.31c2.22 0.5 4.5 0.36 6.74 0.11c12.38 -1.33 25.04 -3.01 34.66 -4c2.56 -0.26 4.82 -0.33 7.38 0.02"/>
		<path id="kvg:08bb2-s4" kvg:type="㇐" d="m39.6 59.88c3.3 0.37 5.75 0.15 8.56 -0.12c9.94 -0.95 30.41 -3.73 42.13 -4.7c2.89 -0.24 5.69 -0.21 8.57 0.19"/>
		<path id="kvg:08bb2-s5" kvg:type="㇒" d="m54.5 21c1.09 0.91 1.55 2.12 1.6 3.43c1.96 50.69 -4.04 57.44 -16.34 67.91"/>
		<path id="kvg:08bb2-s6" kvg:type="㇑" d="m77.11 14.89c1.26 1.05 1.99 2.48 1.99 3.9c0 2.4 -0.13 51.08 -0.18 69.58c-0.01 3.3 -0.01 5.61 -0.01 6.48"/>
	</g>
</g>
</g>
<g id="kvg:StrokeNumbers_08bb2" style="font-size:8;fill:#808080">
	<text transform="matrix(1 0 0 1 11.50 15.50)">1</text>
	<text transform="matrix(1 0 0 1 7.50 37.50)">2</text>
	<text transform="matrix(1 0 0 1 36.50 37.50)">3</text>
	<text transform="matrix(1 0 0 1 35.50 57.05)">4</text>
	<text transform="matrix(1 0 0 1 46.50 18.50)">5</text>
	<text transform="matrix(1 0 0 1 67.00 14.50)">6</text>
</g>
</svg>
