<?xml version="1.0" encoding="UTF-8"?>
<!--
Copyright (C) 2016 François Mizessyn.
This work makes an extensive use of kanjiVG Copyright (C) 2009/2010/2011 Ulrich Apel.
This work is distributed under the conditions of the Creative Commons
Attribution-Share Alike 3.0 Licence. This means you are free:
* to Share - to copy, distribute and transmit the work
* to Remix - to adapt the work

Under the following conditions:
* Attribution. You must attribute the work by stating your use of HanjiVG in
  your own copyright header and linking to HanjiVG's website
  (http://gooo.free.fr/hanziVG/)
* Attribution. You must attribute the work by stating your use of KanjiVG in
  your own copyright header and linking to KanjiVG's website
  (http://kanjivg.tagaini.net)
* Share Alike. If you alter, transform, or build upon this work, you may
  distribute the resulting work only under the same or similar license to this
  one.

See http://creativecommons.org/licenses/by-sa/3.0/ for more details.
-->
<!DOCTYPE svg PUBLIC "-//W3C//DTD SVG 1.0//EN" "http://www.w3.org/TR/2001/REC-SVG-20010904/DTD/svg10.dtd" [
<!ATTLIST g
xmlns:kvg CDATA #FIXED "http://kanjivg.tagaini.net"
kvg:element CDATA #IMPLIED
kvg:variant CDATA #IMPLIED
kvg:partial CDATA #IMPLIED
kvg:original CDATA #IMPLIED
kvg:part CDATA #IMPLIED
kvg:number CDATA #IMPLIED
kvg:tradForm CDATA #IMPLIED
kvg:radicalForm CDATA #IMPLIED
kvg:position CDATA #IMPLIED
kvg:radical CDATA #IMPLIED
kvg:phon CDATA #IMPLIED >
<!ATTLIST path
xmlns:kvg CDATA #FIXED "http://kanjivg.tagaini.net"
kvg:type CDATA #IMPLIED >
]>
<svg xmlns="http://www.w3.org/2000/svg" width="109" height="109" viewBox="0 0 109 109">
<g id="kvg:StrokePaths_08bb0" style="fill:none;stroke:#000000;stroke-width:3;stroke-linecap:round;stroke-linejoin:round;">
<g id="kvg:08bb0" kvg:element="记">
	<g id="kvg:08bb0-g1" kvg:element="讠" kvg:position="left" kvg:radical="general">
		<path id="kvg:08bb0-s1" kvg:type="㇔" d="M21.42,13.75c2.51,1.37,8.97,9.11,9.5,11.67"/>
		<path id="kvg:08bb0-s2" d="M12.99,41.54c1.33,0.32,2.63,0.07,3.92-0.24c3.04-0.74,9.44-2.27,12.21-3.06c1.65-0.47,3.45,0.54,3.19,2.55c-0.57,4.49-3.19,24.21-4.99,52.01c1.33,0.32,2.63,-5.07,12.92-15.24"/>
	</g>
	<g id="kvg:08bb0-g2" kvg:element="己" kvg:position="right" kvg:phon="己">
		<path id="kvg:08bb0-s3" kvg:type="㇕c" d="m48.53 26.84c2.1 0.66 4.14 0.87 6.58 0.61c6.39 -0.7 24.68 -3.36 26.19 -3.45c3.81 -0.23 4.98 2.2 3.97 5.45c-0.95 3.05 -2.87 11.05 -3.92 16.62"/>
		<path id="kvg:08bb0-s4" kvg:type="㇐" d="m50.08 50c1.38 0.5 2.51 0.62 4.15 0.44c7.4 -0.82 16.62 -2.23 23.52 -3.04c2.02 -0.24 3.91 -0.44 5.58 -0.57"/>
		<path id="kvg:08bb0-s5" kvg:type="㇟" d="m52.15 51c0.97 1 0.84 2.38 0.84 4.09c0 4.24 -0.47 14.73 -0.47 18.97c0 17.19 -0.09 17.2 21.62 17.2c16.8 0 18.72 -1.51 18.72 -10.68"/>
	</g>
</g>
</g>
<g id="kvg:StrokeNumbers_08bb0" style="font-size:8;fill:#808080">
	<text transform="matrix(1 0 0 1 11.50 15.50)">1</text>
	<text transform="matrix(1 0 0 1 7.50 37.50)">2</text>
	<text transform="matrix(1 0 0 1 56.25 24.13)">3</text>
	<text transform="matrix(1 0 0 1 59.25 46.63)">4</text>
	<text transform="matrix(1 0 0 1 45.75 58.63)">5</text>
</g>
</svg>
