<?xml version="1.0" encoding="UTF-8"?>
<!--
Copyright (C) 2016 François Mizessyn.
This work makes an extensive use of kanjiVG Copyright (C) 2009/2010/2011 Ulrich Apel.
This work is distributed under the conditions of the Creative Commons
Attribution-Share Alike 3.0 Licence. This means you are free:
* to Share - to copy, distribute and transmit the work
* to Remix - to adapt the work

Under the following conditions:
* Attribution. You must attribute the work by stating your use of HanjiVG in
  your own copyright header and linking to HanjiVG's website
  (http://gooo.free.fr/hanziVG/)
* Attribution. You must attribute the work by stating your use of KanjiVG in
  your own copyright header and linking to KanjiVG's website
  (http://kanjivg.tagaini.net)
* Share Alike. If you alter, transform, or build upon this work, you may
  distribute the resulting work only under the same or similar license to this
  one.

See http://creativecommons.org/licenses/by-sa/3.0/ for more details.
-->
<!DOCTYPE svg PUBLIC "-//W3C//DTD SVG 1.0//EN" "http://www.w3.org/TR/2001/REC-SVG-20010904/DTD/svg10.dtd" [
<!ATTLIST g
xmlns:kvg CDATA #FIXED "http://kanjivg.tagaini.net"
kvg:element CDATA #IMPLIED
kvg:variant CDATA #IMPLIED
kvg:partial CDATA #IMPLIED
kvg:original CDATA #IMPLIED
kvg:part CDATA #IMPLIED
kvg:number CDATA #IMPLIED
kvg:tradForm CDATA #IMPLIED
kvg:radicalForm CDATA #IMPLIED
kvg:position CDATA #IMPLIED
kvg:radical CDATA #IMPLIED
kvg:phon CDATA #IMPLIED >
<!ATTLIST path
xmlns:kvg CDATA #FIXED "http://kanjivg.tagaini.net"
kvg:type CDATA #IMPLIED >
]>
<svg xmlns="http://www.w3.org/2000/svg" width="109" height="109" viewBox="0 0 109 109">
<g id="kvg:StrokePaths_08bbd" style="fill:none;stroke:#000000;stroke-width:3;stroke-linecap:round;stroke-linejoin:round;">
<g id="kvg:08bbd" kvg:element="讽">
	<g id="kvg:08bbd-g1" kvg:element="讠" kvg:position="left" kvg:radical="general">
		<path id="kvg:08bbd-s1" kvg:type="㇔" d="M21.42,13.75c2.51,1.37,8.97,9.11,9.5,11.67"/>
		<path id="kvg:08bbd-s2" d="M12.99,41.54c1.33,0.32,2.63,0.07,3.92-0.24c3.04-0.74,9.44-2.27,12.21-3.06c1.65-0.47,3.45,0.54,3.19,2.55c-0.57,4.49-3.19,24.21-4.99,52.01c1.33,0.32,2.63,-5.07,12.92-15.24"/>
	</g>
	<g id="kvg:08bbd" kvg:element="风">
		<g id="kvg:08bbd-g2" kvg:element="几" kvg:position="kamae" kvg:radical="general">
			<g id="kvg:08bbd-g3" kvg:element="丿">
				<path id="kvg:08bbd-s3" kvg:type="㇒" d="m49.1 20c0.32 1.95 0.78 3.49 0.78 5.92c0 22.27 0.77 50.33 -9.55 65.83"/>
			</g>
			<path id="kvg:08bbd-s4" kvg:type="㇈a" d="m49.77 21.5c7.7 -1.75 31.33 -5.75 34.13 -5.75s4.08 0.94 3.85 4.75c-1.22 20.25 -2.16 47.96 5.6 64.75c5.78 12.5 4.55 7 4.2 -3"/>
		</g>
		<g id="kvg:08bbd-g4" kvg:element="乂" kvg:position="bottom">
			<g id="kvg:08bbd-g5" kvg:element="丿">
				<path id="kvg:08bbd-s5" kvg:type="㇒" d="m76.65 30.61c0.39 1.26 0.6 2.15 0.2 4.45c-3.66 20.85 -9.97 38.63 -24.07 47.54"/>
			</g>
			<path id="kvg:08bbd-s6" kvg:type="㇏" d="m57.84 35.41c4.72 13.3 14.82 33.94 21.78 44.89c1.29 2.02 2.65 3.36 3.72 3.57"/>
		</g>
	</g>
</g>
</g>
<g id="kvg:StrokeNumbers_08bbd" style="font-size:8;fill:#808080">
	<text transform="matrix(1 0 0 1 11.50 15.50)">1</text>
	<text transform="matrix(1 0 0 1 7.50 37.50)">2</text>
	<text transform="matrix(1 0 0 1 48.50 17.50)">3</text>
	<text transform="matrix(1 0 0 1 38.50 32.50)">4</text>
	<text transform="matrix(1 0 0 1 52.50 34.50)">5</text>
	<text transform="matrix(1 0 0 1 65.75 37.13)">6</text>
</g>
</svg>
