<?xml version="1.0" encoding="UTF-8"?>
<!--
Copyright (C) 2016 François Mizessyn.
This work makes an extensive use of kanjiVG Copyright (C) 2009/2010/2011 Ulrich Apel.
This work is distributed under the conditions of the Creative Commons
Attribution-Share Alike 3.0 Licence. This means you are free:
* to Share - to copy, distribute and transmit the work
* to Remix - to adapt the work

Under the following conditions:
* Attribution. You must attribute the work by stating your use of HanjiVG in
  your own copyright header and linking to HanjiVG's website
  (http://gooo.free.fr/hanziVG/)
* Attribution. You must attribute the work by stating your use of KanjiVG in
  your own copyright header and linking to KanjiVG's website
  (http://kanjivg.tagaini.net)
* Share Alike. If you alter, transform, or build upon this work, you may
  distribute the resulting work only under the same or similar license to this
  one.

See http://creativecommons.org/licenses/by-sa/3.0/ for more details.
-->
<!DOCTYPE svg PUBLIC "-//W3C//DTD SVG 1.0//EN" "http://www.w3.org/TR/2001/REC-SVG-20010904/DTD/svg10.dtd" [
<!ATTLIST g
xmlns:kvg CDATA #FIXED "http://kanjivg.tagaini.net"
kvg:element CDATA #IMPLIED
kvg:variant CDATA #IMPLIED
kvg:partial CDATA #IMPLIED
kvg:original CDATA #IMPLIED
kvg:part CDATA #IMPLIED
kvg:number CDATA #IMPLIED
kvg:tradForm CDATA #IMPLIED
kvg:radicalForm CDATA #IMPLIED
kvg:position CDATA #IMPLIED
kvg:radical CDATA #IMPLIED
kvg:phon CDATA #IMPLIED >
<!ATTLIST path
xmlns:kvg CDATA #FIXED "http://kanjivg.tagaini.net"
kvg:type CDATA #IMPLIED >
]>
<svg xmlns="http://www.w3.org/2000/svg" width="109" height="109" viewBox="0 0 109 109">
<g id="kvg:StrokePaths_08bc6" style="fill:none;stroke:#000000;stroke-width:3;stroke-linecap:round;stroke-linejoin:round;">
<g id="kvg:08bc6" kvg:element="识">
	<g id="kvg:08bc6-g1" kvg:element="讠" kvg:position="left" kvg:radical="general">
		<path id="kvg:08bc6-s1" kvg:type="㇔" d="M21.42,13.75c2.51,1.37,8.97,9.11,9.5,11.67"/>
		<path id="kvg:08bc6-s2" d="M12.99,41.54c1.33,0.32,2.63,0.07,3.92-0.24c3.04-0.74,9.44-2.27,12.21-3.06c1.65-0.47,3.45,0.54,3.19,2.55c-0.57,4.49-3.19,24.21-4.99,52.01c1.33,0.32,2.63,-5.07,12.92-15.24"/>
	</g>
	<g id="kvg:08bc6-g2" kvg:element="只" kvg:position="right">
		<g id="kvg:08bc6-g3" kvg:element="口" kvg:position="top">
			<path id="kvg:08bc6-s3" kvg:type="㇑" d="M52.83,25.12c0.41,0.58,0.82,1.06,1,1.79c1.41,5.75,3.1,21.6,4.07,31.92"/>
			<path id="kvg:08bc6-s4" kvg:type="㇕b" d="M54.15,27.55c12.37-1.7,27.55-3.31,33.7-4.05c2.25-0.27,3.39,1.48,2.95,4.17c-1.16,7.08-2.24,19.55-4.22,28.7"/>
			<path id="kvg:08bc6-s5" kvg:type="㇐b" d="M57.66,55.8c7.22-0.84,17.59-1.3,28.99-2.07"/>
		</g>
		<g id="kvg:08bc6-g4" kvg:element="八" kvg:position="bottom">
			<g id="kvg:08bc6-g5" kvg:position="left">
				<path id="kvg:08bc6-s6" kvg:type="㇒" d="M62.58,66.74c0.05,0.55,0.25,1.48-0.1,2.22C60,74.25,54.25,82.75,45.06,90.22"/>
			</g>
			<g id="kvg:08bc6-g6" kvg:position="right">
				<path id="kvg:08bc6-s7" kvg:type="㇏" d="M80.7,67.89c5.6,3.73,14.46,15.33,15.86,21.12"/>
			</g>
		</g>
	</g>
</g>
</g>
<g id="kvg:StrokeNumbers_08bc6" style="font-size:8;fill:#808080">
	<text transform="matrix(1 0 0 1 11.50 15.50)">1</text>
	<text transform="matrix(1 0 0 1 7.50 37.50)">2</text>
	<text transform="matrix(1 0 0 1 43.50 34.50)">3</text>
	<text transform="matrix(1 0 0 1 56.50 24.50)">4</text>
	<text transform="matrix(1 0 0 1 61.25 52.18)">5</text>
	<text transform="matrix(1 0 0 1 50.50 71.50)">6</text>
	<text transform="matrix(1 0 0 1 72.25 69.50)">7</text>
</g>
</svg>
