<?xml version="1.0" encoding="UTF-8"?>
<!--
Copyright (C) 2016 François Mizessyn.
This work makes an extensive use of kanjiVG Copyright (C) 2009/2010/2011 Ulrich Apel.
This work is distributed under the conditions of the Creative Commons
Attribution-Share Alike 3.0 Licence. This means you are free:
* to Share - to copy, distribute and transmit the work
* to Remix - to adapt the work

Under the following conditions:
* Attribution. You must attribute the work by stating your use of HanjiVG in
  your own copyright header and linking to HanjiVG's website
  (http://gooo.free.fr/hanziVG/)
* Attribution. You must attribute the work by stating your use of KanjiVG in
  your own copyright header and linking to KanjiVG's website
  (http://kanjivg.tagaini.net)
* Share Alike. If you alter, transform, or build upon this work, you may
  distribute the resulting work only under the same or similar license to this
  one.

See http://creativecommons.org/licenses/by-sa/3.0/ for more details.
-->
<!DOCTYPE svg PUBLIC "-//W3C//DTD SVG 1.0//EN" "http://www.w3.org/TR/2001/REC-SVG-20010904/DTD/svg10.dtd" [
<!ATTLIST g
xmlns:kvg CDATA #FIXED "http://kanjivg.tagaini.net"
kvg:element CDATA #IMPLIED
kvg:variant CDATA #IMPLIED
kvg:partial CDATA #IMPLIED
kvg:original CDATA #IMPLIED
kvg:part CDATA #IMPLIED
kvg:number CDATA #IMPLIED
kvg:tradForm CDATA #IMPLIED
kvg:radicalForm CDATA #IMPLIED
kvg:position CDATA #IMPLIED
kvg:radical CDATA #IMPLIED
kvg:phon CDATA #IMPLIED >
<!ATTLIST path
xmlns:kvg CDATA #FIXED "http://kanjivg.tagaini.net"
kvg:type CDATA #IMPLIED >
]>
<svg xmlns="http://www.w3.org/2000/svg" width="109" height="109" viewBox="0 0 109 109">
<g id="kvg:StrokePaths_08bc9" style="fill:none;stroke:#000000;stroke-width:3;stroke-linecap:round;stroke-linejoin:round;">
<g id="kvg:08bc9" kvg:element="诉">
	<g id="kvg:08bc9-g1" kvg:element="讠" kvg:position="left" kvg:radical="general">
		<path id="kvg:08bc9-s1" kvg:type="㇔" d="M21.42,13.75c2.51,1.37,8.97,9.11,9.5,11.67"/>
		<path id="kvg:08bc9-s2" d="M12.99,41.54c1.33,0.32,2.63,0.07,3.92-0.24c3.04-0.74,9.44-2.27,12.21-3.06c1.65-0.47,3.45,0.54,3.19,2.55c-0.57,4.49-3.19,24.21-4.99,52.01c1.33,0.32,2.63,-5.07,12.92-15.24"/>
	</g>
	<g id="kvg:08bc9-g2" kvg:element="斥" kvg:position="right">
		<g id="kvg:08bc9-g3" kvg:element="斤">
			<path id="kvg:08bc9-s3" kvg:type="㇒" d="M77.14,12.5c0.15,1.16-0.19,1.91-1.01,2.75c-4.88,5-10.75,9.75-19.83,14.39"/>
			<path id="kvg:08bc9-s4" kvg:type="㇒" d="M52.84,29.79c1.19,1.19,1.35,2.3,1.37,4.29c0.29,33.68-1.76,45.54-8.19,54.7"/>
			<path id="kvg:08bc9-s5" kvg:type="㇐" d="M56.78,42.75c1.97,0,3.28-0.23,4.53-0.39c8.36-1.04,18.98-2.78,27.74-4.27c1.91-0.33,4.07-0.79,6-0.31"/>
			<path id="kvg:08bc9-s6" kvg:type="㇑" d="M76.75,42.6c1.26,1.26,1.56,2.77,1.56,4.49c0,0.73,0.05,27.71,0.06,41.9c0,4.76,0,8.08-0.01,8.5"/>
		</g>
		<g id="kvg:08bc9-g4" kvg:element="丶">
			<path id="kvg:08bc9-s7" kvg:type="㇔" d="M66.91,57.73c9.71,3.27,21.84,9.9,26.58,15.47"/>
		</g>
	</g>
</g>
</g>
<g id="kvg:StrokeNumbers_08bc9" style="font-size:8;fill:#808080">
	<text transform="matrix(1 0 0 1 11.50 15.50)">1</text>
	<text transform="matrix(1 0 0 1 7.50 37.50)">2</text>
	<text transform="matrix(1 0 0 1 65.50 12.50)">3</text>
	<text transform="matrix(1 0 0 1 42.50 34.50)">4</text>
	<text transform="matrix(1 0 0 1 58.75 39.50)">5</text>
	<text transform="matrix(1 0 0 1 80.50 53.55)">6</text>
	<text transform="matrix(1 0 0 1 58.25 59.50)">7</text>
</g>
</svg>
