<?xml version="1.0" encoding="UTF-8"?>
<!--
Copyright (C) 2016 François Mizessyn.
This work makes an extensive use of kanjiVG Copyright (C) 2009/2010/2011 Ulrich Apel.
This work is distributed under the conditions of the Creative Commons
Attribution-Share Alike 3.0 Licence. This means you are free:
* to Share - to copy, distribute and transmit the work
* to Remix - to adapt the work

Under the following conditions:
* Attribution. You must attribute the work by stating your use of HanjiVG in
  your own copyright header and linking to HanjiVG's website
  (http://gooo.free.fr/hanziVG/)
* Attribution. You must attribute the work by stating your use of KanjiVG in
  your own copyright header and linking to KanjiVG's website
  (http://kanjivg.tagaini.net)
* Share Alike. If you alter, transform, or build upon this work, you may
  distribute the resulting work only under the same or similar license to this
  one.

See http://creativecommons.org/licenses/by-sa/3.0/ for more details.
-->
<!DOCTYPE svg PUBLIC "-//W3C//DTD SVG 1.0//EN" "http://www.w3.org/TR/2001/REC-SVG-20010904/DTD/svg10.dtd" [
<!ATTLIST g
xmlns:kvg CDATA #FIXED "http://kanjivg.tagaini.net"
kvg:element CDATA #IMPLIED
kvg:variant CDATA #IMPLIED
kvg:partial CDATA #IMPLIED
kvg:original CDATA #IMPLIED
kvg:part CDATA #IMPLIED
kvg:number CDATA #IMPLIED
kvg:tradForm CDATA #IMPLIED
kvg:radicalForm CDATA #IMPLIED
kvg:position CDATA #IMPLIED
kvg:radical CDATA #IMPLIED
kvg:phon CDATA #IMPLIED >
<!ATTLIST path
xmlns:kvg CDATA #FIXED "http://kanjivg.tagaini.net"
kvg:type CDATA #IMPLIED >
]>
<svg xmlns="http://www.w3.org/2000/svg" width="109" height="109" viewBox="0 0 109 109">
<g id="kvg:StrokePaths_08bc4" style="fill:none;stroke:#000000;stroke-width:3;stroke-linecap:round;stroke-linejoin:round;">
<g id="kvg:08bc4" kvg:element="评">
	<g id="kvg:08bc4-g1" kvg:element="讠" kvg:position="left" kvg:radical="general">
		<path id="kvg:08bc4-s1" kvg:type="㇔" d="M21.42,13.75c2.51,1.37,8.97,9.11,9.5,11.67"/>
		<path id="kvg:08bc4-s2" d="M12.99,41.54c1.33,0.32,2.63,0.07,3.92-0.24c3.04-0.74,9.44-2.27,12.21-3.06c1.65-0.47,3.45,0.54,3.19,2.55c-0.57,4.49-3.19,24.21-4.99,52.01c1.33,0.32,2.63,-5.07,12.92-15.24"/>
	</g>
	<g id="kvg:08bc4-g2" kvg:element="平" kvg:position="right" kvg:phon="平">
		<g id="kvg:08bc4-g3" kvg:element="干" kvg:part="1">
			<path id="kvg:08bc4-s3" kvg:type="㇐" d="m47.76 20.65c2.24 0.35 4.55 0.2 6.49 -0.02c6.48 -0.74 19.92 -2.76 27.38 -3.3c1.79 -0.13 3.65 -0.12 5.42 0.26"/>
		</g>
		<path id="kvg:08bc4-s4" kvg:type="㇔" d="m47.23 35.42c2.91 2.9 6.13 8.99 6.86 13.5"/>
		<path id="kvg:08bc4-s5" kvg:type="㇒" d="m86.09 29.48c0.1 1.01 0.02 2.01 -0.42 2.91c-2.17 4.49 -5.67 9.99 -10.62 14.65"/>
		<g id="kvg:08bc4-g4" kvg:element="干" kvg:part="2">
			<g id="kvg:08bc4-g5" kvg:element="十">
				<path id="kvg:08bc6-s11" kvg:type="㇐" d="m41.75 59.72c2.38 0.83 5.45 0.48 7.89 0.15c10.42 -1.41 24.59 -2.69 37.35 -3.89c2.67 -0.25 5.11 -0.51 7.75 0.04"/>
				<path id="kvg:08bc7-s12" kvg:type="㇑" d="m65.35 22.32c0.91 0.91 1.59 2.43 1.59 4.17c0 0.78 -0.01 43.41 -0.09 61.26c-0.01 3.47 -0.03 5.94 -0.04 6.88"/>
			</g>
		</g>
	</g>
</g>
</g>
<g id="kvg:StrokeNumbers_08bc4" style="font-size:8;fill:#808080">
	<text transform="matrix(1 0 0 1 11.50 15.50)">1</text>
	<text transform="matrix(1 0 0 1 7.50 37.50)">2</text>
	<text transform="matrix(1 0 0 1 46.50 17.50)">3</text>
	<text transform="matrix(1 0 0 1 36.50 35.50)">4</text>
	<text transform="matrix(1 0 0 1 74.50 32.50)">5</text>
	<text transform="matrix(1 0 0 1 40.50 57.50)">6</text>
	<text transform="matrix(1 0 0 1 55.62 36.12)">7</text>
</g>
</svg>
