<?xml version="1.0" encoding="UTF-8"?>
<!--
Copyright (C) 2016 François Mizessyn.
This work makes an extensive use of kanjiVG Copyright (C) 2009/2010/2011 Ulrich Apel.
This work is distributed under the conditions of the Creative Commons
Attribution-Share Alike 3.0 Licence. This means you are free:
* to Share - to copy, distribute and transmit the work
* to Remix - to adapt the work

Under the following conditions:
* Attribution. You must attribute the work by stating your use of HanjiVG in
  your own copyright header and linking to HanjiVG's website
  (http://gooo.free.fr/hanziVG/)
* Attribution. You must attribute the work by stating your use of KanjiVG in
  your own copyright header and linking to KanjiVG's website
  (http://kanjivg.tagaini.net)
* Share Alike. If you alter, transform, or build upon this work, you may
  distribute the resulting work only under the same or similar license to this
  one.

See http://creativecommons.org/licenses/by-sa/3.0/ for more details.
-->
<!DOCTYPE svg PUBLIC "-//W3C//DTD SVG 1.0//EN" "http://www.w3.org/TR/2001/REC-SVG-20010904/DTD/svg10.dtd" [
<!ATTLIST g
xmlns:kvg CDATA #FIXED "http://kanjivg.tagaini.net"
kvg:element CDATA #IMPLIED
kvg:variant CDATA #IMPLIED
kvg:partial CDATA #IMPLIED
kvg:original CDATA #IMPLIED
kvg:part CDATA #IMPLIED
kvg:number CDATA #IMPLIED
kvg:tradForm CDATA #IMPLIED
kvg:radicalForm CDATA #IMPLIED
kvg:position CDATA #IMPLIED
kvg:radical CDATA #IMPLIED
kvg:phon CDATA #IMPLIED >
<!ATTLIST path
xmlns:kvg CDATA #FIXED "http://kanjivg.tagaini.net"
kvg:type CDATA #IMPLIED >
]>
<svg xmlns="http://www.w3.org/2000/svg" width="109" height="109" viewBox="0 0 109 109">
<g id="kvg:StrokePaths_08bc1" style="fill:none;stroke:#000000;stroke-width:3;stroke-linecap:round;stroke-linejoin:round;">
<g id="kvg:08bc1" kvg:element="证">
	<g id="kvg:08bc1-g1" kvg:element="讠" kvg:position="left" kvg:radical="general">
		<path id="kvg:08bc1-s1" kvg:type="㇔" d="M21.42,13.75c2.51,1.37,8.97,9.11,9.5,11.67"/>
		<path id="kvg:08bc1-s2" d="M12.99,41.54c1.33,0.32,2.63,0.07,3.92-0.24c3.04-0.74,9.44-2.27,12.21-3.06c1.65-0.47,3.45,0.54,3.19,2.55c-0.57,4.49-3.19,24.21-4.99,52.01c1.33,0.32,2.63,-5.07,12.92-15.24"/>
	</g>
	<g id="kvg:08bc1-g2" kvg:element="正" kvg:position="right" kvg:phon="正">
		<path id="kvg:08bc1-s3" kvg:type="㇐" d="M47.2,24.79c2.39,0.47,4.65,0.3,7.05,0.09c7.57-0.67,21.68-2.02,30.49-2.46c1.96-0.1,4.01-0.34,5.92,0.22"/>
		<g id="kvg:08bc1-g3" kvg:element="止">
			<g id="kvg:08bc1-g4" kvg:element="卜" kvg:original="ト">
				<path id="kvg:08bc1-s4" kvg:type="㇑a" d="M67.18,27.24c0.82,0.76,2.34,2.41,2.4,5.35c0.29,14.1-0.18,49.5-0.18,54.3"/>
				<path id="kvg:08bc1-s5" kvg:type="㇐b" d="M70.72,54.67c3.52-0.39,9.18-1.06,15.54-1.72c1.23-0.13,2.79-0.36,4.01,0"/>
			</g>
			<path id="kvg:08bc1-s6" kvg:type="㇑a" d="M50,46.84c1.02,1.02,1.97,3.52,1.96,5.07c-0.08,9.72,0.05,33.86,0.05,36.39"/>
			<path id="kvg:08bc1-s7" kvg:type="㇐" d="M41.37,89.29c2.88,0.58,5.71,0.4,8.37,0.11c11.64-1.28,29.08-2.28,39.01-2.5c2.52-0.06,5.5-0.02,7.88,0.67"/>
		</g>
	</g>
</g>
</g>
<g id="kvg:StrokeNumbers_08bc1" style="font-size:8;fill:#808080">
	<text transform="matrix(1 0 0 1 11.50 15.50)">1</text>
	<text transform="matrix(1 0 0 1 7.50 37.50)">2</text>
	<text transform="matrix(1 0 0 1 47.50 21.13)">3</text>
	<text transform="matrix(1 0 0 1 64.50 35.50)">4</text>
	<text transform="matrix(1 0 0 1 77.70 50.98)">5</text>
	<text transform="matrix(1 0 0 1 46.50 43.41)">6</text>
	<text transform="matrix(1 0 0 1 40.50 86.50)">7</text>
</g>
</svg>
