<?xml version="1.0" encoding="UTF-8"?>
<!--
Copyright (C) 2016 François Mizessyn.
This work makes an extensive use of kanjiVG Copyright (C) 2009/2010/2011 Ulrich Apel.
This work is distributed under the conditions of the Creative Commons
Attribution-Share Alike 3.0 Licence. This means you are free:
* to Share - to copy, distribute and transmit the work
* to Remix - to adapt the work

Under the following conditions:
* Attribution. You must attribute the work by stating your use of HanjiVG in
  your own copyright header and linking to HanjiVG's website
  (http://gooo.free.fr/hanziVG/)
* Attribution. You must attribute the work by stating your use of KanjiVG in
  your own copyright header and linking to KanjiVG's website
  (http://kanjivg.tagaini.net)
* Share Alike. If you alter, transform, or build upon this work, you may
  distribute the resulting work only under the same or similar license to this
  one.

See http://creativecommons.org/licenses/by-sa/3.0/ for more details.
-->
<!DOCTYPE svg PUBLIC "-//W3C//DTD SVG 1.0//EN" "http://www.w3.org/TR/2001/REC-SVG-20010904/DTD/svg10.dtd" [
<!ATTLIST g
xmlns:kvg CDATA #FIXED "http://kanjivg.tagaini.net"
kvg:element CDATA #IMPLIED
kvg:variant CDATA #IMPLIED
kvg:partial CDATA #IMPLIED
kvg:original CDATA #IMPLIED
kvg:part CDATA #IMPLIED
kvg:number CDATA #IMPLIED
kvg:tradForm CDATA #IMPLIED
kvg:radicalForm CDATA #IMPLIED
kvg:position CDATA #IMPLIED
kvg:radical CDATA #IMPLIED
kvg:phon CDATA #IMPLIED >
<!ATTLIST path
xmlns:kvg CDATA #FIXED "http://kanjivg.tagaini.net"
kvg:type CDATA #IMPLIED >
]>
<svg xmlns="http://www.w3.org/2000/svg" width="109" height="109" viewBox="0 0 109 109">
<g id="kvg:StrokePaths_08bcd" style="fill:none;stroke:#000000;stroke-width:3;stroke-linecap:round;stroke-linejoin:round;">
<g id="kvg:08bcd" kvg:element="词">
	<g id="kvg:08bcd-g1" kvg:element="讠" kvg:position="left" kvg:radical="general">
		<path id="kvg:08bcd-s1" kvg:type="㇔" d="M21.42,13.75c2.51,1.37,8.97,9.11,9.5,11.67"/>
		<path id="kvg:08bcd-s2" d="M12.99,41.54c1.33,0.32,2.63,0.07,3.92-0.24c3.04-0.74,9.44-2.27,12.21-3.06c1.65-0.47,3.45,0.54,3.19,2.55c-0.57,4.49-3.19,24.21-4.99,52.01c1.33,0.32,2.63,-5.07,12.92-15.24"/>
	</g>
	<g id="kvg:08bcd-g2" kvg:element="司" kvg:position="right" kvg:phon="司">
		<g id="kvg:08bcd-g3" kvg:element="一">
		</g>
		<g id="kvg:08bcd-g4" kvg:element="口">
<path id="kvg:08bcd-s3" kvg:type="㇆" d="m44.45 20.75c2.24 0.43 4.57 0.56 6.85 0.26c14.39 -1.89 31.92 -4.38 35.5 -4.76c3.55 -0.37 5.34 1.44 5.34 5.25c0 3 -0.06 61.75 -0.06 67.5c0 11.88 -8.72 2.88 -11.01 1.25"/>
<path id="kvg:08bcd-s4" kvg:type="㇐" d="m47.74 37.42c1.94 0.29 3.39 0.09 4.96 -0.1c4.68 -0.56 11.66 -1.61 16.62 -2.04c1.75 -0.15 3.26 -0.23 4.94 0.16"/>
<path id="kvg:08bcd-s5" kvg:type="㇑" d="m47.41 52.29c0.9 0.82 1.34 1.78 1.64 2.92c0.76 3 1.79 8.15 2.53 12.75c0.28 1.71 0.51 3.34 0.67 4.76"/>
<path id="kvg:08bcd-s6" kvg:type="㇕b" d="m50.02 53.93c7.72 -1.37 16.25 -2.54 20.61 -3.2c2.9 -0.44 4.3 0.85 3.78 3.52c-0.74 3.76 -1.64 6.38 -3.17 12.77"/>
<path id="kvg:08bcd-s7" kvg:type="㇐b" d="m52.54 69.79c3.4 -0.42 10.47 -1.04 16.67 -1.72c1.57 -0.17 3.17 -0.28 4.47 -0.28"/>
		</g>
	</g>
</g>
</g>
<g id="kvg:StrokeNumbers_08bcd" style="font-size:8;fill:#808080">
	<text transform="matrix(1 0 0 1 12.50 15.50)">1</text>
	<text transform="matrix(1 0 0 1 3.50 39.50)">2</text>
	<text transform="matrix(1 0 0 1 38.75 17.50)">3</text>
	<text transform="matrix(1 0 0 1 41.75 34.55)">4</text>
	<text transform="matrix(1 0 0 1 37.50 60.50)">5</text>
	<text transform="matrix(1 0 0 1 46.50 50.50)">6</text>
	<text transform="matrix(1 0 0 1 52.50 66.50)">7</text>
</g>
</svg>
