<?xml version="1.0" encoding="UTF-8"?>
<!--
Copyright (C) 2016 François Mizessyn.
This work makes an extensive use of kanjiVG Copyright (C) 2009/2010/2011 Ulrich Apel.
This work is distributed under the conditions of the Creative Commons
Attribution-Share Alike 3.0 Licence. This means you are free:
* to Share - to copy, distribute and transmit the work
* to Remix - to adapt the work

Under the following conditions:
* Attribution. You must attribute the work by stating your use of HanjiVG in
  your own copyright header and linking to HanjiVG's website
  (http://gooo.free.fr/hanziVG/)
* Attribution. You must attribute the work by stating your use of KanjiVG in
  your own copyright header and linking to KanjiVG's website
  (http://kanjivg.tagaini.net)
* Share Alike. If you alter, transform, or build upon this work, you may
  distribute the resulting work only under the same or similar license to this
  one.

See http://creativecommons.org/licenses/by-sa/3.0/ for more details.
-->
<!DOCTYPE svg PUBLIC "-//W3C//DTD SVG 1.0//EN" "http://www.w3.org/TR/2001/REC-SVG-20010904/DTD/svg10.dtd" [
<!ATTLIST g
xmlns:kvg CDATA #FIXED "http://kanjivg.tagaini.net"
kvg:element CDATA #IMPLIED
kvg:variant CDATA #IMPLIED
kvg:partial CDATA #IMPLIED
kvg:original CDATA #IMPLIED
kvg:part CDATA #IMPLIED
kvg:number CDATA #IMPLIED
kvg:tradForm CDATA #IMPLIED
kvg:radicalForm CDATA #IMPLIED
kvg:position CDATA #IMPLIED
kvg:radical CDATA #IMPLIED
kvg:phon CDATA #IMPLIED >
<!ATTLIST path
xmlns:kvg CDATA #FIXED "http://kanjivg.tagaini.net"
kvg:type CDATA #IMPLIED >
]>
<svg xmlns="http://www.w3.org/2000/svg" width="109" height="109" viewBox="0 0 109 109">
<g id="kvg:StrokePaths_08bdd" style="fill:none;stroke:#000000;stroke-width:3;stroke-linecap:round;stroke-linejoin:round;">
<g id="kvg:08bdd" kvg:element="话">
	<g id="kvg:08bdd-g1" kvg:element="讠" kvg:position="left" kvg:radical="general">
		<path id="kvg:08bdd-s1" kvg:type="㇔" d="M21.42,13.75c2.51,1.37,8.97,9.11,9.5,11.67"/>
		<path id="kvg:08bdd-s2" d="M12.99,41.54c1.33,0.32,2.63,0.07,3.92-0.24c3.04-0.74,9.44-2.27,12.21-3.06c1.65-0.47,3.45,0.54,3.19,2.55c-0.57,4.49-3.19,24.21-4.99,52.01c1.33,0.32,2.63,-5.07,12.92-15.24"/>
	</g>
	<g id="kvg:08bdd-g3" kvg:element="舌" kvg:position="right" kvg:phon="舌">
		<g id="kvg:08bdd-g4" kvg:position="top">
			<path id="kvg:08bdd-s3" kvg:type="㇒" d="m78.75 13.75c-0.12 1.25 -0.79 2.39 -1.66 3.06c-4.84 3.69 -15.34 9.94 -29.34 14.94"/>
			<path id="kvg:08bdd-s4" kvg:type="㇐" d="m42.39 45.8c1.55 0.34 4.36 0.62 6.73 0.34c10.68 -1.24 24.25 -3.07 38.88 -3.91c2.28 -0.13 4.49 -0.01 6.75 0.29"/>
			<path id="kvg:08bdd-s5" kvg:type="㇑a" d="m65.87 27.19c1.4 1.4 1.85 3.06 1.85 4.88c0 1.44 -0.21 28.18 -0.21 35.16"/>
		</g>
		<g id="kvg:08bdd-g5" kvg:element="口" kvg:position="bottom">
			<path id="kvg:08bdd-s6" kvg:type="㇑" d="m49.07 67.83c0.93 1.17 1.22 1.76 1.35 2.34c1.38 6.2 2.13 12.33 3.08 20.33c0.13 1.14 0.27 2.31 0.42 3.53"/>
			<path id="kvg:08bdd-s7" kvg:type="㇕b" d="m51.62 69.29c12.9 -1.37 25.41 -2.73 32.68 -3.31c2.94 -0.24 3.79 2.4 3.37 3.8c-1.47 4.87 -3.03 11.64 -5.04 18.35"/>
			<path id="kvg:08bdd-s8" kvg:type="㇐b" d="m53.64 91.74c7.5 -0.57 16.99 -1.13 27.14 -1.93c1.37 -0.11 2.75 -0.22 4.13 -0.34"/>
		</g>
	</g>
</g>
</g>
<g id="kvg:StrokeNumbers_08bdd" style="font-size:8;fill:#808080">
	<text transform="matrix(1 0 0 1 11.50 15.50)">1</text>
	<text transform="matrix(1 0 0 1 7.50 37.50)">2</text>
	<text transform="matrix(1 0 0 1 70.50 13.50)">3</text>
	<text transform="matrix(1 0 0 1 38.25 42.50)">4</text>
	<text transform="matrix(1 0 0 1 58.50 39.50)">5</text>
	<text transform="matrix(1 0 0 1 40.50 78.50)">6</text>
	<text transform="matrix(1 0 0 1 50.50 65.50)">7</text>
	<text transform="matrix(1 0 0 1 55.50 88.50)">8</text>
</g>
</svg>
