<?xml version="1.0" encoding="UTF-8"?>
<!--
Copyright (C) 2016 François Mizessyn.
This work makes an extensive use of kanjiVG Copyright (C) 2009/2010/2011 Ulrich Apel.
This work is distributed under the conditions of the Creative Commons
Attribution-Share Alike 3.0 Licence. This means you are free:
* to Share - to copy, distribute and transmit the work
* to Remix - to adapt the work

Under the following conditions:
* Attribution. You must attribute the work by stating your use of HanjiVG in
  your own copyright header and linking to HanjiVG's website
  (http://gooo.free.fr/hanziVG/)
* Attribution. You must attribute the work by stating your use of KanjiVG in
  your own copyright header and linking to KanjiVG's website
  (http://kanjivg.tagaini.net)
* Share Alike. If you alter, transform, or build upon this work, you may
  distribute the resulting work only under the same or similar license to this
  one.

See http://creativecommons.org/licenses/by-sa/3.0/ for more details.
-->
<!DOCTYPE svg PUBLIC "-//W3C//DTD SVG 1.0//EN" "http://www.w3.org/TR/2001/REC-SVG-20010904/DTD/svg10.dtd" [
<!ATTLIST g
xmlns:kvg CDATA #FIXED "http://kanjivg.tagaini.net"
kvg:element CDATA #IMPLIED
kvg:variant CDATA #IMPLIED
kvg:partial CDATA #IMPLIED
kvg:original CDATA #IMPLIED
kvg:part CDATA #IMPLIED
kvg:number CDATA #IMPLIED
kvg:tradForm CDATA #IMPLIED
kvg:radicalForm CDATA #IMPLIED
kvg:position CDATA #IMPLIED
kvg:radical CDATA #IMPLIED
kvg:phon CDATA #IMPLIED >
<!ATTLIST path
xmlns:kvg CDATA #FIXED "http://kanjivg.tagaini.net"
kvg:type CDATA #IMPLIED >
]>
<svg xmlns="http://www.w3.org/2000/svg" width="109" height="109" viewBox="0 0 109 109">
<g id="kvg:StrokePaths_08be5" style="fill:none;stroke:#000000;stroke-width:3;stroke-linecap:round;stroke-linejoin:round;">
<g id="kvg:08be5" kvg:element="该">
	<g id="kvg:08be5-g1" kvg:element="讠" kvg:position="left" kvg:radical="general">
		<path id="kvg:08be5-s1" kvg:type="㇔" d="M21.42,13.75c2.51,1.37,8.97,9.11,9.5,11.67"/>
		<path id="kvg:08be5-s2" d="M12.99,41.54c1.33,0.32,2.63,0.07,3.92-0.24c3.04-0.74,9.44-2.27,12.21-3.06c1.65-0.47,3.45,0.54,3.19,2.55c-0.57,4.49-3.19,24.21-4.99,52.01c1.33,0.32,2.63,-5.07,12.92-15.24"/>
	</g>
	<g id="kvg:08be5-g2" kvg:element="亥" kvg:position="right" kvg:phon="亥">
		<g id="kvg:08be5-g3" kvg:element="亠" kvg:position="top">
			<path id="kvg:08be5-s3" kvg:type="㇑a" d="M69.01,12.24c1.25,1.25,1.6,2.51,1.6,4.23c0,4.26-0.11,6.35-0.11,11.28"/>
			<path id="kvg:08be5-s4" kvg:type="㇐" d="M48,30.31c2.25,0.16,4.47,0.3,6.74,0.08c8.48-0.82,26.09-2.68,35.9-3.27c1.89-0.12,4.05-0.36,5.87,0.31"/>
		</g>
		<path id="kvg:08be5-s5" kvg:type="㇜" d="M67.98,32.37c0.48,1.23-0.02,2.61-0.99,3.97c-3.48,4.91-4.82,7.05-10.05,12.94c-1.3,1.47-1.43,2.59,0.5,3.32c4.87,1.82,6.1,2.77,10.43,5.02"/>
		<path id="kvg:08be5-s6" kvg:type="㇒" d="M82.27,40c0.15,1.38-0.46,2.46-1.21,3.54C73.52,54.35,64.43,64.03,48.5,74"/>
		<g id="kvg:08be5-g4" kvg:element="人" kvg:position="bottom">
			<path id="kvg:08be5-s7" kvg:type="㇒" d="M85.74,59c0.1,0.88-0.51,2.35-1.21,3.27c-9.04,12-19.9,23.48-38.53,33.48"/>
			<path id="kvg:08be5-s8" kvg:type="㇔/㇏" d="M76.25,76.88C82.51,79.98,92.43,89.66,94,94.5"/>
		</g>
	</g>
</g>
</g>
<g id="kvg:StrokeNumbers_08be5" style="font-size:8;fill:#808080">
	<text transform="matrix(1 0 0 1 11.50 15.50)">1</text>
	<text transform="matrix(1 0 0 1 7.50 37.50)">2</text>
	<text transform="matrix(1 0 0 1 60.75 12.13)">3</text>
	<text transform="matrix(1 0 0 1 51.75 27.05)">4</text>
	<text transform="matrix(1 0 0 1 54.50 39.50)">5</text>
	<text transform="matrix(1 0 0 1 71.50 42.50)">6</text>
	<text transform="matrix(1 0 0 1 72.75 63.05)">7</text>
	<text transform="matrix(1 0 0 1 83.50 79.48)">8</text>
</g>
</svg>
