<?xml version="1.0" encoding="UTF-8"?>
<!--
Copyright (C) 2016 François Mizessyn.
This work makes an extensive use of kanjiVG Copyright (C) 2009/2010/2011 Ulrich Apel.
This work is distributed under the conditions of the Creative Commons
Attribution-Share Alike 3.0 Licence. This means you are free:
* to Share - to copy, distribute and transmit the work
* to Remix - to adapt the work

Under the following conditions:
* Attribution. You must attribute the work by stating your use of HanjiVG in
  your own copyright header and linking to HanjiVG's website
  (http://gooo.free.fr/hanziVG/)
* Attribution. You must attribute the work by stating your use of KanjiVG in
  your own copyright header and linking to KanjiVG's website
  (http://kanjivg.tagaini.net)
* Share Alike. If you alter, transform, or build upon this work, you may
  distribute the resulting work only under the same or similar license to this
  one.

See http://creativecommons.org/licenses/by-sa/3.0/ for more details.
-->
<!DOCTYPE svg PUBLIC "-//W3C//DTD SVG 1.0//EN" "http://www.w3.org/TR/2001/REC-SVG-20010904/DTD/svg10.dtd" [
<!ATTLIST g
xmlns:kvg CDATA #FIXED "http://kanjivg.tagaini.net"
kvg:element CDATA #IMPLIED
kvg:variant CDATA #IMPLIED
kvg:partial CDATA #IMPLIED
kvg:original CDATA #IMPLIED
kvg:part CDATA #IMPLIED
kvg:number CDATA #IMPLIED
kvg:tradForm CDATA #IMPLIED
kvg:radicalForm CDATA #IMPLIED
kvg:position CDATA #IMPLIED
kvg:radical CDATA #IMPLIED
kvg:phon CDATA #IMPLIED >
<!ATTLIST path
xmlns:kvg CDATA #FIXED "http://kanjivg.tagaini.net"
kvg:type CDATA #IMPLIED >
]>
<svg xmlns="http://www.w3.org/2000/svg" width="109" height="109" viewBox="0 0 109 109">
<g id="kvg:StrokePaths_08bed" style="fill:none;stroke:#000000;stroke-width:3;stroke-linecap:round;stroke-linejoin:round;">
<g id="kvg:08bed" kvg:element="语">
	<g id="kvg:08bed-g1" kvg:element="讠" kvg:position="left" kvg:radical="general">
		<path id="kvg:08bed-s1" kvg:type="㇔" d="M21.42,13.75c2.51,1.37,8.97,9.11,9.5,11.67"/>
		<path id="kvg:08bed-s2" d="M12.99,41.54c1.33,0.32,2.63,0.07,3.92-0.24c3.04-0.74,9.44-2.27,12.21-3.06c1.65-0.47,3.45,0.54,3.19,2.55c-0.57,4.49-3.19,24.21-4.99,52.01c1.33,0.32,2.63,-5.07,12.92-15.24"/>
	</g>
	<g id="kvg:08bed-g2" kvg:element="吾" kvg:position="right" kvg:phon="吾">
		<g id="kvg:08bed-g3" kvg:element="五">
			<g id="kvg:08bed-g4" kvg:element="二" kvg:part="1">
				<path id="kvg:08bed-s3" kvg:type="㇐" d="m46.97 17.49c1.52 0.26 4.3 0.28 5.8 0.15c7.5 -0.64 17.12 -2.02 25.23 -2.32c2.53 -0.1 4.04 0.04 5.29 0.15"/>
			</g>
			<path id="kvg:08bed-s4" kvg:type="㇑a" d="m64.53 20.25c0.41 1.25 0.55 2.38 0.25 3.75c-0.82 3.78 -6.63 23.83 -8.76 31.58"/>
			<path id="kvg:08bed-s5" kvg:type="㇕c" d="m47.4 36.96c2 0.66 4.59 0.95 6.42 0.66c9.33 -1.5 17.74 -3.06 25.01 -4.1c2.74 -0.39 4.46 1.27 4.08 2.93c-0.66 2.93 -2.73 11.43 -4.11 17.86"/>
			<g id="kvg:08bed-g5" kvg:element="二" kvg:part="2">
				<path id="kvg:08bed-s6" kvg:type="㇐" d="m40.96 58.46c1.24 0.24 4.33 0.2 5.58 0.08c13.57 -1.29 21.02 -2.39 44.97 -4.02c2.07 -0.14 4.13 -0.02 5.16 0.09"/>
			</g>
		</g>
		<g id="kvg:08bed-g6" kvg:element="口">
			<path id="kvg:08bed-s7" kvg:type="㇑" d="m47.75 69.88c1.02 0.93 1.56 2.28 1.69 3.31c0.78 6.06 1.56 12.65 2.27 19.3c0.17 1.5 0.31 2.44 0.44 3.75"/>
			<path id="kvg:08bed-s8" kvg:type="㇕b" d="m50.49 71.67c10.42 -1.45 26.13 -3.41 31.74 -3.9c2.35 -0.21 3.61 0.98 3.15 2.93c-0.92 3.88 -3.39 12.57 -4.83 17.58"/>
			<path id="kvg:08bed-s9" kvg:type="㇐b" d="m52.92 91.49c6.53 -0.55 16.14 -1.24 25.89 -1.76c1.43 -0.08 2.89 -0.13 4.37 -0.2"/>
		</g>
	</g>
</g>
</g>
<g id="kvg:StrokeNumbers_08bed" style="font-size:8;fill:#808080">
	<text transform="matrix(1 0 0 1 11.50 15.50)">1</text>
	<text transform="matrix(1 0 0 1 7.50 37.50)">2</text>
	<text transform="matrix(1 0 0 1 40.25 13.63)">3</text>
	<text transform="matrix(1 0 0 1 60.25 12.63)">4</text>
	<text transform="matrix(1 0 0 1 41.75 33.63)">5</text>
	<text transform="matrix(1 0 0 1 37.25 55.13)">6</text>
	<text transform="matrix(1 0 0 1 38.25 76.63)">7</text>
	<text transform="matrix(1 0 0 1 47.25 68.63)">8</text>
	<text transform="matrix(1 0 0 1 52.75 88.13)">9</text>
</g>
</svg>
