<?xml version="1.0" encoding="UTF-8"?>
<!--
Copyright (C) 2016 François Mizessyn.
This work makes an extensive use of kanjiVG Copyright (C) 2009/2010/2011 Ulrich Apel.
This work is distributed under the conditions of the Creative Commons
Attribution-Share Alike 3.0 Licence. This means you are free:
* to Share - to copy, distribute and transmit the work
* to Remix - to adapt the work

Under the following conditions:
* Attribution. You must attribute the work by stating your use of HanjiVG in
  your own copyright header and linking to HanjiVG's website
  (http://gooo.free.fr/hanziVG/)
* Attribution. You must attribute the work by stating your use of KanjiVG in
  your own copyright header and linking to KanjiVG's website
  (http://kanjivg.tagaini.net)
* Share Alike. If you alter, transform, or build upon this work, you may
  distribute the resulting work only under the same or similar license to this
  one.

See http://creativecommons.org/licenses/by-sa/3.0/ for more details.
-->
<!DOCTYPE svg PUBLIC "-//W3C//DTD SVG 1.0//EN" "http://www.w3.org/TR/2001/REC-SVG-20010904/DTD/svg10.dtd" [
<!ATTLIST g
xmlns:kvg CDATA #FIXED "http://kanjivg.tagaini.net"
kvg:element CDATA #IMPLIED
kvg:variant CDATA #IMPLIED
kvg:partial CDATA #IMPLIED
kvg:original CDATA #IMPLIED
kvg:part CDATA #IMPLIED
kvg:number CDATA #IMPLIED
kvg:tradForm CDATA #IMPLIED
kvg:radicalForm CDATA #IMPLIED
kvg:position CDATA #IMPLIED
kvg:radical CDATA #IMPLIED
kvg:phon CDATA #IMPLIED >
<!ATTLIST path
xmlns:kvg CDATA #FIXED "http://kanjivg.tagaini.net"
kvg:type CDATA #IMPLIED >
]>
<svg xmlns="http://www.w3.org/2000/svg" width="109" height="109" viewBox="0 0 109 109">
<g id="kvg:StrokePaths_08bf7" style="fill:none;stroke:#000000;stroke-width:3;stroke-linecap:round;stroke-linejoin:round;">
<g id="kvg:08bf7" kvg:element="请">
	<g id="kvg:08bf7-g1" kvg:element="讠" kvg:position="left" kvg:radical="general">
		<path id="kvg:08bf7-s1" kvg:type="㇔" d="M21.42,13.75c2.51,1.37,8.97,9.11,9.5,11.67"/>
		<path id="kvg:08bf7-s2" d="M12.99,41.54c1.33,0.32,2.63,0.07,3.92-0.24c3.04-0.74,9.44-2.27,12.21-3.06c1.65-0.47,3.45,0.54,3.19,2.55c-0.57,4.49-3.19,24.21-4.99,52.01c1.33,0.32,2.63,-5.07,12.92-15.24"/>
	</g>
	<g id="kvg:08bf7-g2" kvg:element="青" kvg:position="right">
		<g id="kvg:08bf7-g3" kvg:element="龶" kvg:position="top">
			<path id="kvg:08bf7-s3" kvg:type="㇐" d="M50.66,22.89c1.72,0.36,3.77,0.28,5.48,0.1c6.45-0.67,18.61-2.49,25.51-3.09c1.74-0.15,2.95-0.2,4.68-0.05"/>
			<path id="kvg:08bf7-s4" kvg:type="㇐" d="m51.83 32.61c2.05 0.39 3.89 0.27 5.68 0.01c7.62 -1.12 15.49 -1.87 22.12 -2.37c1.84 -0.14 3.45 -0.13 5.28 -0.01"/>
			<path id="kvg:08bf7-s5" kvg:type="㇑a" d="M66.51,12.38c0.87,0.87,1.29,1.99,1.29,3.49c0,3.13-0.04,18.63-0.04,26.13"/>
			<path id="kvg:08bf7-s6" kvg:type="㇐" d="M44.63,44.49c2.95,0.69,6.3,0.25,9.26-0.1c9.33-1.11,23.75-2.54,32.74-3.05c3.62-0.21,7.25-0.33,9.62,0.31"/>
		</g>
		<g id="kvg:08acb-g4" kvg:element="月" kvg:position="bottom">
			<path id="kvg:08bf7-s7" kvg:type="㇑/㇒" d="M54.06,52.1c0.8,0.8,1.09,2.03,1.09,3.05c0,4.57-0.01,21.51-0.02,35.61c0,2.39,0,4.7,0,6.86"/>
			<path id="kvg:08bf7-s8" kvg:type="㇆a" d="M55.67,53.35c6.6-0.85,19.12-2.63,23.32-3.18c2.91-0.38,4.4,0.96,4.4,3.93c0,3.15-0.02,26.77-0.02,37.77c0,9.76-5.47,1.61-6.2,0.93"/>
			<path id="kvg:08bf7-s9" kvg:type="㇐a" d="M56.23,64.27c7.27-0.77,18.14-1.65,25.89-2.2"/>
			<path id="kvg:08bf7-s10" kvg:type="㇐a" d="M56.28,76.29c7.72-0.66,19.1-1.66,25.98-1.9"/>
		</g>
	</g>
</g>
</g>
<g id="kvg:StrokeNumbers_08bf7" style="font-size:8;fill:#808080">
	<text transform="matrix(1 0 0 1 16.50 15.50)">1</text>
	<text transform="matrix(1 0 0 1 5.50 38.50)">2</text>
	<text transform="matrix(1 0 0 1 48.50 20.50)">3</text>
	<text transform="matrix(1 0 0 1 48.50 30.50)">4</text>
	<text transform="matrix(1 0 0 1 57.50 12.50)">5</text>
	<text transform="matrix(1 0 0 1 43.50 41.98)">6</text>
	<text transform="matrix(1 0 0 1 45.75 59.91)">7</text>
	<text transform="matrix(1 0 0 1 57.50 51.50)">8</text>
	<text transform="matrix(1 0 0 1 60.34 61.25)">9</text>
	<text transform="matrix(1 0 0 1 60.50 73.18)">10</text>
</g>
</svg>
