<?xml version="1.0" encoding="UTF-8"?>
<!--
Copyright (C) 2016 François Mizessyn.
This work makes an extensive use of kanjiVG Copyright (C) 2009/2010/2011 Ulrich Apel.
This work is distributed under the conditions of the Creative Commons
Attribution-Share Alike 3.0 Licence. This means you are free:
* to Share - to copy, distribute and transmit the work
* to Remix - to adapt the work

Under the following conditions:
* Attribution. You must attribute the work by stating your use of HanjiVG in
  your own copyright header and linking to HanjiVG's website
  (http://gooo.free.fr/hanziVG/)
* Attribution. You must attribute the work by stating your use of KanjiVG in
  your own copyright header and linking to KanjiVG's website
  (http://kanjivg.tagaini.net)
* Share Alike. If you alter, transform, or build upon this work, you may
  distribute the resulting work only under the same or similar license to this
  one.

See http://creativecommons.org/licenses/by-sa/3.0/ for more details.
-->
<!DOCTYPE svg PUBLIC "-//W3C//DTD SVG 1.0//EN" "http://www.w3.org/TR/2001/REC-SVG-20010904/DTD/svg10.dtd" [
<!ATTLIST g
xmlns:kvg CDATA #FIXED "http://kanjivg.tagaini.net"
kvg:element CDATA #IMPLIED
kvg:variant CDATA #IMPLIED
kvg:partial CDATA #IMPLIED
kvg:original CDATA #IMPLIED
kvg:part CDATA #IMPLIED
kvg:number CDATA #IMPLIED
kvg:tradForm CDATA #IMPLIED
kvg:radicalForm CDATA #IMPLIED
kvg:position CDATA #IMPLIED
kvg:radical CDATA #IMPLIED
kvg:phon CDATA #IMPLIED >
<!ATTLIST path
xmlns:kvg CDATA #FIXED "http://kanjivg.tagaini.net"
kvg:type CDATA #IMPLIED >
]>
<svg xmlns="http://www.w3.org/2000/svg" width="109" height="109" viewBox="0 0 109 109">
<g id="kvg:StrokePaths_08c01" style="fill:none;stroke:#000000;stroke-width:3;stroke-linecap:round;stroke-linejoin:round;">
<g id="kvg:08c01" kvg:element="谁">
	<g id="kvg:08c01-g1" kvg:element="讠" kvg:position="left" kvg:radical="general">
		<path id="kvg:08c01-s1" kvg:type="㇔" d="M21.42,13.75c2.51,1.37,8.97,9.11,9.5,11.67"/>
		<path id="kvg:08c01-s2" d="M12.99,41.54c1.33,0.32,2.63,0.07,3.92-0.24c3.04-0.74,9.44-2.27,12.21-3.06c1.65-0.47,3.45,0.54,3.19,2.55c-0.57,4.49-3.19,24.21-4.99,52.01c1.33,0.32,2.63,-5.07,12.92-15.24"/>
	</g>
	<g id="kvg:08c01-g2" kvg:element="隹" kvg:position="right">
		<g id="kvg:08c01-g3" kvg:element="亻" kvg:variant="true" kvg:original="人">
		</g>
<path id="kvg:08c01-s3" kvg:type="㇒" d="m58.56 16c0.18 1.71 -0.05 3.94 -0.62 5.4c-3.63 9.31 -8.24 17.2 -16.57 28.53"/>
<path id="kvg:08c01-s4" kvg:type="㇑" d="m50.75 37.15c0.66 0.88 1.17 2.8 1.21 4.16c0.39 12.12 -0.54 46.63 -0.21 52.94"/>
<path id="kvg:08c01-s5" kvg:type="㇒" d="m78.57 16.5c0.07 0.92 -0.02 2.12 -0.25 2.9c-1.51 5 -3.42 8.87 -6.89 14.96"/>
<path id="kvg:08c01-s6" kvg:type="㇐b" d="m51.77 37.91c9.28 -1.16 36.84 -4.46 40.13 -5.09"/>
<path id="kvg:08c01-s7" kvg:type="㇐b" d="m52.8 52.82c7.23 -0.94 33.6 -3.19 36.7 -3.71"/>
<path id="kvg:08c01-s8" kvg:type="㇐b" d="m51.92 68.79c7.63 -0.8 34.28 -3.41 37.56 -3.85"/>
<path id="kvg:08c01-s9" kvg:type="㇑a" d="m72.58 37.83c0.37 0.45 0.66 1.06 0.66 1.83c0 7.86 -0.18 34.08 -0.18 45.88"/>
<path id="kvg:08c01-s10" kvg:type="㇐b" d="m52.44 87.68c7.67 -1.14 39.44 -3.32 42.74 -3.95"/>
	</g>
</g>
</g>
<g id="kvg:StrokeNumbers_08c01" style="font-size:8;fill:#808080">
	<text transform="matrix(1 0 0 1 12.50 15.50)">1</text>
	<text transform="matrix(1 0 0 1 10.50 38.50)">2</text>
	<text transform="matrix(1 0 0 1 49.88 15.85)">3</text>
	<text transform="matrix(1 0 0 1 39.75 38.78)">4</text>
	<text transform="matrix(1 0 0 1 68.00 17.70)">5</text>
	<text transform="matrix(1 0 0 1 55.74 34.89)">6</text>
	<text transform="matrix(1 0 0 1 54.62 49.73)">7</text>
	<text transform="matrix(1 0 0 1 54.86 66.15)">8</text>
	<text transform="matrix(1 0 0 1 74.25 47.80)">9</text>
	<text transform="matrix(1 0 0 1 52.49 84.60)">10</text>
</g>
</svg>
