<?xml version="1.0" encoding="UTF-8"?>
<!--
Copyright (C) 2016 François Mizessyn.
This work makes an extensive use of kanjiVG Copyright (C) 2009/2010/2011 Ulrich Apel.
This work is distributed under the conditions of the Creative Commons
Attribution-Share Alike 3.0 Licence. This means you are free:
* to Share - to copy, distribute and transmit the work
* to Remix - to adapt the work

Under the following conditions:
* Attribution. You must attribute the work by stating your use of HanjiVG in
  your own copyright header and linking to HanjiVG's website
  (http://gooo.free.fr/hanziVG/)
* Attribution. You must attribute the work by stating your use of KanjiVG in
  your own copyright header and linking to KanjiVG's website
  (http://kanjivg.tagaini.net)
* Share Alike. If you alter, transform, or build upon this work, you may
  distribute the resulting work only under the same or similar license to this
  one.

See http://creativecommons.org/licenses/by-sa/3.0/ for more details.
-->
<!DOCTYPE svg PUBLIC "-//W3C//DTD SVG 1.0//EN" "http://www.w3.org/TR/2001/REC-SVG-20010904/DTD/svg10.dtd" [
<!ATTLIST g
xmlns:kvg CDATA #FIXED "http://kanjivg.tagaini.net"
kvg:element CDATA #IMPLIED
kvg:variant CDATA #IMPLIED
kvg:partial CDATA #IMPLIED
kvg:original CDATA #IMPLIED
kvg:part CDATA #IMPLIED
kvg:number CDATA #IMPLIED
kvg:tradForm CDATA #IMPLIED
kvg:radicalForm CDATA #IMPLIED
kvg:position CDATA #IMPLIED
kvg:radical CDATA #IMPLIED
kvg:phon CDATA #IMPLIED >
<!ATTLIST path
xmlns:kvg CDATA #FIXED "http://kanjivg.tagaini.net"
kvg:type CDATA #IMPLIED >
]>
<svg xmlns="http://www.w3.org/2000/svg" width="109" height="109" viewBox="0 0 109 109">
<g id="kvg:StrokePaths_08c03" style="fill:none;stroke:#000000;stroke-width:3;stroke-linecap:round;stroke-linejoin:round;">
<g id="kvg:08c03" kvg:element="调">
	<g id="kvg:08bae-g1" kvg:element="讠" kvg:position="left" kvg:radical="general">
		<path id="kvg:08bae-s1" kvg:type="㇔" d="M21.42,13.75c2.51,1.37,8.97,9.11,9.5,11.67"/>
		<path id="kvg:08bae-s2" d="M12.99,41.54c1.33,0.32,2.63,0.07,3.92-0.24c3.04-0.74,9.44-2.27,12.21-3.06c1.65-0.47,3.45,0.54,3.19,2.55c-0.57,4.49-3.19,24.21-4.99,52.01c1.33,0.32,2.63,-5.07,12.92-15.24"/>
	</g>
	<g id="kvg:08abf-g2" kvg:element="周" kvg:position="right" kvg:phon="周">
		<g id="kvg:08abf-g3" kvg:element="冂" kvg:variant="true">
			<path id="kvg:08abf-s3" kvg:type="㇒/㇑" d="M50.38,21.13c0.75,0.75,1.39,1.99,1.42,3.48C52.5,63.12,50,80.25,39.5,93.25"/>
			<path id="kvg:08abf-s4" kvg:type="㇆a" d="M52.6,22.85c5.93-0.84,28.45-3.6,35.02-4.43c4.26-0.54,5.7,0.83,5.7,4.59c0,2.42,0.18,62.17,0.18,67.73c0,11.13-5,4.76-8.32,1.34"/>
		</g>
		<g id="kvg:08abf-g4" kvg:element="吉">
			<g id="kvg:08abf-g5" kvg:element="士">
				<path id="kvg:08abf-s5" kvg:type="㇐" d="M59.91,39.07c0.96,0.36,2.71,0.31,3.67,0.22c3.1-0.28,13.36-2.23,17.19-2.4c1.6-0.07,2.56,0.06,3.36,0.23"/>
				<path id="kvg:08abf-s6" kvg:type="㇑a" d="M70.71,26.37c0.69,0.34,1.11,1.65,1.25,2.4c0.14,0.75,0.01,17.58-0.13,22.36"/>
				<path id="kvg:08abf-s7" kvg:type="㇐" d="M57.33,52.75c1.29,0.5,3.02,0.53,4.56,0.34c6.46-0.8,15.56-2.46,21.22-2.8c1.33-0.08,2.79-0.23,4.11,0.05"/>
			</g>
			<g id="kvg:08abf-g6" kvg:element="口">
				<path id="kvg:08abf-s8" kvg:type="㇑" d="M60.28,61.82c0.97,0.68,1.68,1.61,2,2.92c0.76,3.19,1.49,6.96,2.34,11.88c0.14,0.83,0.29,1.69,0.45,2.59"/>
				<path id="kvg:08abf-s9" kvg:type="㇕b" d="M62.29,62.79c6.11-1.27,13.13-2.33,16.96-2.77c2.42-0.28,3.5,1.1,3.21,2.88c-0.58,3.6-1.28,6.46-2.64,11.78"/>
				<path id="kvg:08abf-s10" kvg:type="㇐b" d="M65.26,76.92c3.98-0.53,9.49-1.02,13.5-1.25c1.02-0.06,1.96-0.1,2.77-0.12"/>
			</g>
		</g>
	</g>
</g>
</g>
<g id="kvg:StrokeNumbers_08abf" style="font-size:8;fill:#808080">
	<text transform="matrix(1 0 0 1 12.50 15.50)">1</text>
	<text transform="matrix(1 0 0 1 3.50 39.50)">2</text>
	<text transform="matrix(1 0 0 1 40.25 30.50)">3</text>
	<text transform="matrix(1 0 0 1 48.50 19.50)">4</text>
	<text transform="matrix(1 0 0 1 57.75 36.50)">5</text>
	<text transform="matrix(1 0 0 1 74.50 30.13)">6</text>
	<text transform="matrix(1 0 0 1 56.50 50.50)">7</text>
	<text transform="matrix(1 0 0 1 53.25 70.50)">8</text>
	<text transform="matrix(1 0 0 1 61.50 60.13)">9</text>
	<text transform="matrix(1 0 0 1 63.50 74.63)">10</text>
</g>
</svg>
