<?xml version="1.0" encoding="UTF-8"?>
<!--
Copyright (C) 2016 François Mizessyn.
This work makes an extensive use of kanjiVG Copyright (C) 2009/2010/2011 Ulrich Apel.
This work is distributed under the conditions of the Creative Commons
Attribution-Share Alike 3.0 Licence. This means you are free:
* to Share - to copy, distribute and transmit the work
* to Remix - to adapt the work

Under the following conditions:
* Attribution. You must attribute the work by stating your use of HanjiVG in
  your own copyright header and linking to HanjiVG's website
  (http://gooo.free.fr/hanziVG/)
* Attribution. You must attribute the work by stating your use of KanjiVG in
  your own copyright header and linking to KanjiVG's website
  (http://kanjivg.tagaini.net)
* Share Alike. If you alter, transform, or build upon this work, you may
  distribute the resulting work only under the same or similar license to this
  one.

See http://creativecommons.org/licenses/by-sa/3.0/ for more details.
-->
<!DOCTYPE svg PUBLIC "-//W3C//DTD SVG 1.0//EN" "http://www.w3.org/TR/2001/REC-SVG-20010904/DTD/svg10.dtd" [
<!ATTLIST g
xmlns:kvg CDATA #FIXED "http://kanjivg.tagaini.net"
kvg:element CDATA #IMPLIED
kvg:variant CDATA #IMPLIED
kvg:partial CDATA #IMPLIED
kvg:original CDATA #IMPLIED
kvg:part CDATA #IMPLIED
kvg:number CDATA #IMPLIED
kvg:tradForm CDATA #IMPLIED
kvg:radicalForm CDATA #IMPLIED
kvg:position CDATA #IMPLIED
kvg:radical CDATA #IMPLIED
kvg:phon CDATA #IMPLIED >
<!ATTLIST path
xmlns:kvg CDATA #FIXED "http://kanjivg.tagaini.net"
kvg:type CDATA #IMPLIED >
]>
<svg xmlns="http://www.w3.org/2000/svg" width="109" height="109" viewBox="0 0 109 109">
<g id="kvg:StrokePaths_08c08" style="fill:none;stroke:#000000;stroke-width:3;stroke-linecap:round;stroke-linejoin:round;">
<g id="kvg:08c08" kvg:element="谈">
	<g id="kvg:08c08-g1" kvg:element="讠" kvg:position="left" kvg:radical="general">
		<path id="kvg:08c08-s1" kvg:type="㇔" d="M21.42,13.75c2.51,1.37,8.97,9.11,9.5,11.67"/>
		<path id="kvg:08c08-s2" d="M12.99,41.54c1.33,0.32,2.63,0.07,3.92-0.24c3.04-0.74,9.44-2.27,12.21-3.06c1.65-0.47,3.45,0.54,3.19,2.55c-0.57,4.49-3.19,24.21-4.99,52.01c1.33,0.32,2.63,-5.07,12.92-15.24"/>
	</g>
	<g id="kvg:08c08-g2" kvg:element="炎" kvg:position="right">
		<g id="kvg:08c08-g3" kvg:element="火" kvg:position="top">
			<path id="kvg:08c08-s3" kvg:type="㇔" d="M48.5,24.88c1.83,2,4.5,7.65,5,9.64"/>
			<path id="kvg:08c08-s4" kvg:type="㇒" d="M82.95,19c0.05,1-0.34,2.23-0.92,2.99c-1.91,2.51-4.78,4.85-7.69,6.62"/>
			<path id="kvg:08c08-s5" kvg:type="㇒" d="M63.64,11.25c0.93,0.93,1.16,2.49,1.13,3.19c-1.01,20.93-5.39,32.18-17.01,39.31"/>
			<path id="kvg:08c08-s6" kvg:type="㇏" d="M63.76,30.83C71.66,38.17,81,45.61,87.28,49.77c2.16,1.43,3.54,2.51,6.09,2.98"/>
		</g>
		<g id="kvg:08c08-g4" kvg:element="火" kvg:position="bottom">
			<path id="kvg:08c08-s7" kvg:type="㇔" d="M48.38,65.38c2.2,2,3.57,6.95,4.17,8.95"/>
			<path id="kvg:08c08-s8" kvg:type="㇒" d="M83.96,59.4c0.17,0.97-0.19,2.27-0.93,3.14c-1.53,1.83-4.78,4.7-8.5,7.18"/>
			<path id="kvg:08c08-s9" kvg:type="㇒" d="M64.19,51.38c0.97,0.97,1.34,2.75,1.32,4.06C65.12,78.62,52.38,91.5,38.43,96.5"/>
			<path id="kvg:08c08-s10" kvg:type="㇏" d="M63.64,71.46c10.74,9.66,18.11,16.29,25.27,21.11c1.95,1.31,3.71,2.18,5.65,2.86"/>
		</g>
	</g>
</g>
</g>
<g id="kvg:StrokeNumbers_08c08" style="font-size:8;fill:#808080">
	<text transform="matrix(1 0 0 1 11.50 15.50)">1</text>
	<text transform="matrix(1 0 0 1 7.50 37.50)">2</text>
	<text transform="matrix(1 0 0 1 45.50 21.13)">3</text>
	<text transform="matrix(1 0 0 1 74.50 18.50)">4</text>
	<text transform="matrix(1 0 0 1 51.50 11.50)">5</text>
	<text transform="matrix(1 0 0 1 74.50 37.69)">6</text>
	<text transform="matrix(1 0 0 1 38.50 66.50)">7</text>
	<text transform="matrix(1 0 0 1 72.50 61.50)">8</text>
	<text transform="matrix(1 0 0 1 54.50 58.50)">9</text>
	<text transform="matrix(1 0 0 1 73.50 78.50)">10</text>
</g>
</svg>
