<?xml version="1.0" encoding="UTF-8"?>
<!--
Copyright (C) 2016 François Mizessyn.
This work makes an extensive use of kanjiVG Copyright (C) 2009/2010/2011 Ulrich Apel.
This work is distributed under the conditions of the Creative Commons
Attribution-Share Alike 3.0 Licence. This means you are free:
* to Share - to copy, distribute and transmit the work
* to Remix - to adapt the work

Under the following conditions:
* Attribution. You must attribute the work by stating your use of HanjiVG in
  your own copyright header and linking to HanjiVG's website
  (http://gooo.free.fr/hanziVG/)
* Attribution. You must attribute the work by stating your use of KanjiVG in
  your own copyright header and linking to KanjiVG's website
  (http://kanjivg.tagaini.net)
* Share Alike. If you alter, transform, or build upon this work, you may
  distribute the resulting work only under the same or similar license to this
  one.

See http://creativecommons.org/licenses/by-sa/3.0/ for more details.
-->
<!DOCTYPE svg PUBLIC "-//W3C//DTD SVG 1.0//EN" "http://www.w3.org/TR/2001/REC-SVG-20010904/DTD/svg10.dtd" [
<!ATTLIST g
xmlns:kvg CDATA #FIXED "http://kanjivg.tagaini.net"
kvg:element CDATA #IMPLIED
kvg:variant CDATA #IMPLIED
kvg:partial CDATA #IMPLIED
kvg:original CDATA #IMPLIED
kvg:part CDATA #IMPLIED
kvg:number CDATA #IMPLIED
kvg:tradForm CDATA #IMPLIED
kvg:radicalForm CDATA #IMPLIED
kvg:position CDATA #IMPLIED
kvg:radical CDATA #IMPLIED
kvg:phon CDATA #IMPLIED >
<!ATTLIST path
xmlns:kvg CDATA #FIXED "http://kanjivg.tagaini.net"
kvg:type CDATA #IMPLIED >
]>
<svg xmlns="http://www.w3.org/2000/svg" width="109" height="109" viewBox="0 0 109 109">
<g id="kvg:StrokePaths_08c22" style="fill:none;stroke:#000000;stroke-width:3;stroke-linecap:round;stroke-linejoin:round;">
<g id="kvg:08c22" kvg:element="谢">
	<g id="kvg:08c22-g1" kvg:element="讠" kvg:position="left" kvg:radical="general">
		<path id="kvg:08c22-s1" kvg:type="㇔" d="M17.42,13.75c2.51,1.37,8.97,9.11,9.5,11.67"/>
		<path id="kvg:08c22-s2" d="M8.99,41.54c1.33,0.32,2.63,0.07,3.92-0.24c3.04-0.74,9.44-2.27,12.21-3.06c1.65-0.47,3.45,0.54,3.19,2.55c-0.57,4.49-3.19,24.21-4.99,52.01c1.33,0.32,2.63,-5.07,12.92-15.24"/>
	</g>
	<g id="kvg:08c22-g3" kvg:element="射" kvg:position="right" kvg:phon="射">
		<g id="kvg:08c22-g4" kvg:element="身" kvg:position="left">
			<path id="kvg:08c22-s8" kvg:type="㇒" d="M55.48,12.02c0.4,1.1,0.41,2.18,0.03,3.24c-1.63,3.75-3.01,6.25-6.3,11.62"/>
			<path id="kvg:08c22-s9" kvg:type="㇑a" d="M44.34,26.59c0.85,0.85,1.27,2.16,1.27,3.33c0,2.08-0.1,27.83-0.1,31.96"/>
			<path id="kvg:08c22-s10" kvg:type="㇆a" d="M46.51,28.72c2.73-0.73,11.93-2.65,14.17-2.67c1.88-0.01,3.09,0.64,3.09,3.25c0,10.79-0.1,49.14-0.1,58.81c0,8.99-4.29,5.01-6.75,2.21"/>
			<path id="kvg:08c22-s11" kvg:type="㇐a" d="M46.73,39.71c3.92-0.87,13.78-2.33,15.61-2.55"/>
			<path id="kvg:08c22-s12" kvg:type="㇐a" d="M46.87,49.91c4.82-0.87,10.38-1.91,15.72-2.64"/>
			<path id="kvg:08c22-s13" kvg:type="㇀" d="M38.44,64.19c0.82,0.74,2.81,0.44,3.94-0.02c5.73-2.32,13.63-5.55,20.09-8.51"/>
			<path id="kvg:08c22-s14" kvg:type="㇒" d="M73.6,34.29c0,1.21-0.38,2.82-1,4.02c-8.1,15.82-20.98,35.44-37.07,49.27"/>
		</g>
		<g id="kvg:08c22-g5" kvg:element="寸" kvg:position="right">
			<path id="kvg:08c22-s15" kvg:type="㇐" d="M73.73,47.08c1.28,0.47,2.86,0.43,4.14,0.29c5.36-0.6,10.17-1.8,16-2.2c1.38-0.09,2.65-0.19,4,0.11"/>
			<path id="kvg:08c22-s16" kvg:type="㇚" d="M88.07,12.56c0.94,0.94,1.54,3.07,1.54,4.76c0,17.58,0.04,70.06,0.04,74.33c0,10.37-6.23,1.54-8.05,0.22"/>
			<path id="kvg:08c22-s17" kvg:type="㇔" d="M75.52,60.19c2,1.41,5.17,5.79,5.67,7.99"/>
		</g>
	</g>
</g>
</g>
<g id="kvg:StrokeNumbers_08c22" style="font-size:8;fill:#808080">
	<text transform="matrix(1 0 0 1 9.50 15.50)">1</text>
	<text transform="matrix(1 0 0 1 5.50 38.50)">2</text>
	<text transform="matrix(1 0 0 1 45.50 12.50)">3</text>
	<text transform="matrix(1 0 0 1 34.50 33.50)">4</text>
	<text transform="matrix(1 0 0 1 58.20 23.53)">5</text>
	<text transform="matrix(1 0 0 1 49.20 36.95)">6</text>
	<text transform="matrix(1 0 0 1 49.20 46.50)">7</text>
	<text transform="matrix(1 0 0 1 35.70 61.50)">8</text>
	<text transform="matrix(1 0 0 1 68.50 30.50)">9</text>
	<text transform="matrix(1 0 0 1 73.50 43.50)">10</text>
	<text transform="matrix(1 0 0 1 72.50 13.50)">11</text>
	<text transform="matrix(1 0 0 1 67.20 58.50)">12</text>
</g>
</svg>
