<?xml version="1.0" encoding="UTF-8"?>
<!--
Copyright (C) 2016 François Mizessyn.
This work makes an extensive use of kanjiVG Copyright (C) 2009/2010/2011 Ulrich Apel.
This work is distributed under the conditions of the Creative Commons
Attribution-Share Alike 3.0 Licence. This means you are free:
* to Share - to copy, distribute and transmit the work
* to Remix - to adapt the work

Under the following conditions:
* Attribution. You must attribute the work by stating your use of HanjiVG in
  your own copyright header and linking to HanjiVG's website
  (http://gooo.free.fr/hanziVG/)
* Attribution. You must attribute the work by stating your use of KanjiVG in
  your own copyright header and linking to KanjiVG's website
  (http://kanjivg.tagaini.net)
* Share Alike. If you alter, transform, or build upon this work, you may
  distribute the resulting work only under the same or similar license to this
  one.

See http://creativecommons.org/licenses/by-sa/3.0/ for more details.
-->
<!DOCTYPE svg PUBLIC "-//W3C//DTD SVG 1.0//EN" "http://www.w3.org/TR/2001/REC-SVG-20010904/DTD/svg10.dtd" [
<!ATTLIST g
xmlns:kvg CDATA #FIXED "http://kanjivg.tagaini.net"
kvg:element CDATA #IMPLIED
kvg:variant CDATA #IMPLIED
kvg:partial CDATA #IMPLIED
kvg:original CDATA #IMPLIED
kvg:part CDATA #IMPLIED
kvg:number CDATA #IMPLIED
kvg:tradForm CDATA #IMPLIED
kvg:radicalForm CDATA #IMPLIED
kvg:position CDATA #IMPLIED
kvg:radical CDATA #IMPLIED
kvg:phon CDATA #IMPLIED >
<!ATTLIST path
xmlns:kvg CDATA #FIXED "http://kanjivg.tagaini.net"
kvg:type CDATA #IMPLIED >
]>
<svg xmlns="http://www.w3.org/2000/svg" width="109" height="109" viewBox="0 0 109 109">
<g id="kvg:StrokePaths_08d1d" style="fill:none;stroke:#000000;stroke-width:3;stroke-linecap:round;stroke-linejoin:round;">
<g id="kvg:08d1d" kvg:element="贝" kvg:radical="general">
	<g id="kvg:08d1d-g1" kvg:element="冂" kvg:variant="true" kvg:radical="general">
		<path id="kvg:08d1d-s1" kvg:type="㇑" d="m24.83 21.54c0.92 0.96 1.42 2.13 0.66 1.19c1.53 7.21 3 18.45 3.16 29.18c0.16 1.48 0.3 2.92 0.46 14.66"/>
		<path id="kvg:08d1d-s2" kvg:type="㇕" d="m25.51 22.74c15.08 -1.53 37.74 -4.53 53.76 -5.24c4.06 -0.21 6.23 1.49 5.9 4.4c-0.86 7.44 -2.71 17.83 -3.09 27.26c-0.38 1.51 -0.76 6.09 -1.16 14.79"/>
	</g>
	<g id="kvg:08d1d-g2" kvg:element="人" kvg:position="bottom" kvg:radical="general">
		<path id="kvg:08d1d-s3" kvg:type="㇒" d="m56.5 39.2c0.37 1.7 0.23 3.22 -0.22 5.01c-2.6 10.57 -16.03 36.79 -37.78 48.79"/>
		<path id="kvg:08d1d-s4" kvg:type="㇏" d="m48 66.6c6.12 4.8 25.51 17.79 35.52 23.78c3.66 2.17 6.94 3.7 11.48 4.42"/>
	</g>
</g>
</g>
<g id="kvg:StrokeNumbers_08d1d" style="font-size:8;fill:#808080">
	<text transform="matrix(1 0 0 1 15.25 23.50)">1</text>
	<text transform="matrix(1 0 0 1 25.50 14.55)">2</text>
	<text transform="matrix(1 0 0 1 53.50 33.50)">3</text>
	<text transform="matrix(1 0 0 1 52.50 66.50)">4</text>
</g>
</svg>
