<?xml version="1.0" encoding="UTF-8"?>
<!--
Copyright (C) 2016 François Mizessyn.
This work makes an extensive use of kanjiVG Copyright (C) 2009/2010/2011 Ulrich Apel.
This work is distributed under the conditions of the Creative Commons
Attribution-Share Alike 3.0 Licence. This means you are free:
* to Share - to copy, distribute and transmit the work
* to Remix - to adapt the work

Under the following conditions:
* Attribution. You must attribute the work by stating your use of HanjiVG in
  your own copyright header and linking to HanjiVG's website
  (http://gooo.free.fr/hanziVG/)
* Attribution. You must attribute the work by stating your use of KanjiVG in
  your own copyright header and linking to KanjiVG's website
  (http://kanjivg.tagaini.net)
* Share Alike. If you alter, transform, or build upon this work, you may
  distribute the resulting work only under the same or similar license to this
  one.

See http://creativecommons.org/licenses/by-sa/3.0/ for more details.
-->
<!DOCTYPE svg PUBLIC "-//W3C//DTD SVG 1.0//EN" "http://www.w3.org/TR/2001/REC-SVG-20010904/DTD/svg10.dtd" [
<!ATTLIST g
xmlns:kvg CDATA #FIXED "http://kanjivg.tagaini.net"
kvg:element CDATA #IMPLIED
kvg:variant CDATA #IMPLIED
kvg:partial CDATA #IMPLIED
kvg:original CDATA #IMPLIED
kvg:part CDATA #IMPLIED
kvg:number CDATA #IMPLIED
kvg:tradForm CDATA #IMPLIED
kvg:radicalForm CDATA #IMPLIED
kvg:position CDATA #IMPLIED
kvg:radical CDATA #IMPLIED
kvg:phon CDATA #IMPLIED >
<!ATTLIST path
xmlns:kvg CDATA #FIXED "http://kanjivg.tagaini.net"
kvg:type CDATA #IMPLIED >
]>
<svg xmlns="http://www.w3.org/2000/svg" width="109" height="109" viewBox="0 0 109 109">
<g id="kvg:StrokePaths_08d28" style="fill:none;stroke:#000000;stroke-width:3;stroke-linecap:round;stroke-linejoin:round;">
<g id="kvg:08d28" kvg:element="质">
	<g id="kvg:08d28-g1" kvg:element="厂" kvg:variant="true" kvg:position="kamae">
		<g id="kvg:08d28-g2" kvg:element="丿" kvg:radical="nelson">
			<path id="kvg:08d28-s1" kvg:type="㇒" d="M68.99,13.25c-0.24,1.38-1.29,2.16-2.42,2.77c-8.14,4.39-17.35,8.11-35.07,11.78"/>
		</g>
		<path id="kvg:08d28-s2" kvg:type="㇒" d="M26.52,26.5c1.12,1.12,1.36,2.6,1.36,4.94c0,21.41,0.24,47.56-16.82,63.78"/>
	</g>
	<g id="kvg:08d28-g3" kvg:element="十">
		<path id="kvg:08d28-s3" kvg:type="㇐" d="M31.14,40.08c2.86,0.55,5.39,0.45,7.87,0.11c11.9-1.62,33.56-4.25,45.12-4.97c2.68-0.17,5.34-0.31,7.99,0.26"/>
		<path id="kvg:08d28-s4" kvg:type="㇑a" d="M56.56,26.63c1.03,1.03,1.19,2.24,1.25,3.55c0.04,0.97-0.58,14.71-0.7,20.7"/>
	</g>
	<g id="kvg:07ee9-g4" kvg:element="贝" kvg:position="bottom" kvg:radical="general">
		<g id="kvg:07ee9-g5" kvg:element="冂" kvg:variant="true" kvg:radical="general">
			<path id="kvg:07ee9-s5" kvg:type="㇑" d="m40.35 52.99c0.66 0.55 1.02 1.21 0.47 0.67c1.09 4.06 2.14 10.37 2.26 16.4c0.12 0.84 0.23 1.64 0.34 8.23"/>
			<path id="kvg:07ee9-s6" kvg:type="㇕" d="m40.83 53.69c10.75 -0.86 26.9 -2.54 38.32 -2.95c2.9 -0.12 4.44 0.84 4.2 2.47c-0.61 4.18 -1.93 10.03 -2.21 15.32c-0.26 0.85 -0.54 3.43 -0.82 8.33"/>
		</g>
		<g id="kvg:07ee9-g6" kvg:element="人" kvg:position="bottom" kvg:radical="general">
			<path id="kvg:07ee9-s7" kvg:type="㇒" d="m63.63 63.62c0.28 1.02 0.17 1.97 -0.16 3.05c-1.86 6.42 -11.41 22.34 -26.93 29.64"/>
			<path id="kvg:07ee9-s8" kvg:type="㇏" d="m57.57 80.28c4.37 2.93 18.19 10.81 25.33 14.45c2.62 1.32 4.94 2.26 8.17 2.69"/>
		</g>
	</g>
</g>
</g>
<g id="kvg:StrokeNumbers_08d28" style="font-size:8;fill:#808080">
	<text transform="matrix(1 0 0 1 59.50 13.13)">1</text>
	<text transform="matrix(1 0 0 1 15.50 34.50)">2</text>
	<text transform="matrix(1 0 0 1 30.50 37.50)">3</text>
	<text transform="matrix(1 0 0 1 45.50 35.50)">4</text>
	<text transform="matrix(1 0 0 1 30.50 64.41)">5</text>
	<text transform="matrix(1 0 0 1 41.50 50.33)">6</text>
	<text transform="matrix(1 0 0 1 54.50 67.25)">7</text>
	<text transform="matrix(1 0 0 1 62.50 82.18)">8</text>
</g>
</svg>
