<?xml version="1.0" encoding="UTF-8"?>
<!--
Copyright (C) 2016 François Mizessyn.
This work makes an extensive use of kanjiVG Copyright (C) 2009/2010/2011 Ulrich Apel.
This work is distributed under the conditions of the Creative Commons
Attribution-Share Alike 3.0 Licence. This means you are free:
* to Share - to copy, distribute and transmit the work
* to Remix - to adapt the work

Under the following conditions:
* Attribution. You must attribute the work by stating your use of HanjiVG in
  your own copyright header and linking to HanjiVG's website
  (http://gooo.free.fr/hanziVG/)
* Attribution. You must attribute the work by stating your use of KanjiVG in
  your own copyright header and linking to KanjiVG's website
  (http://kanjivg.tagaini.net)
* Share Alike. If you alter, transform, or build upon this work, you may
  distribute the resulting work only under the same or similar license to this
  one.

See http://creativecommons.org/licenses/by-sa/3.0/ for more details.
-->
<!DOCTYPE svg PUBLIC "-//W3C//DTD SVG 1.0//EN" "http://www.w3.org/TR/2001/REC-SVG-20010904/DTD/svg10.dtd" [
<!ATTLIST g
xmlns:kvg CDATA #FIXED "http://kanjivg.tagaini.net"
kvg:element CDATA #IMPLIED
kvg:variant CDATA #IMPLIED
kvg:partial CDATA #IMPLIED
kvg:original CDATA #IMPLIED
kvg:part CDATA #IMPLIED
kvg:number CDATA #IMPLIED
kvg:tradForm CDATA #IMPLIED
kvg:radicalForm CDATA #IMPLIED
kvg:position CDATA #IMPLIED
kvg:radical CDATA #IMPLIED
kvg:phon CDATA #IMPLIED >
<!ATTLIST path
xmlns:kvg CDATA #FIXED "http://kanjivg.tagaini.net"
kvg:type CDATA #IMPLIED >
]>
<svg xmlns="http://www.w3.org/2000/svg" width="109" height="109" viewBox="0 0 109 109">
<g id="kvg:StrokePaths_08d25" style="fill:none;stroke:#000000;stroke-width:3;stroke-linecap:round;stroke-linejoin:round;">
<g id="kvg:08d25" kvg:element="败">
	<g id="kvg:08d25" kvg:element="贝" kvg:position="left" kvg:radical="general">
		<g id="kvg:08d25-g1" kvg:element="冂" kvg:variant="true" kvg:radical="general">
			<path id="kvg:08d25-s1" kvg:type="㇑" d="m16.93 21.54c0.52 0.96 0.8 2.13 0.37 1.19c0.86 7.21 1.68 18.45 1.78 29.18c0.09 1.48 0.17 2.92 0.26 14.66"/>
			<path id="kvg:08d25-s2" kvg:type="㇕" d="m17.31 22.74c8.46 -1.53 21.17 -4.53 30.16 -5.24c2.28 -0.21 3.49 1.49 3.31 4.4c-0.48 7.44 -1.52 17.83 -1.73 27.26c-0.21 1.51 -0.42 6.09 -0.65 14.79"/>
		</g>
		<g id="kvg:08d25-g2" kvg:element="人" kvg:position="bottom" kvg:radical="general">
			<path id="kvg:08d25-s3" kvg:type="㇒" d="m34.7 39.2c0.2 1.7 0.13 3.22 -0.13 5.01c-1.46 10.57 -8.99 36.79 -21.19 48.79"/>
			<path id="kvg:08d25-s4" kvg:type="㇏" d="m29.94 66.28c2.74 3.84 11.45 14.23 15.94 19.02c1.65 1.74 3.11 2.96 5.15 3.54"/>
		</g>
	</g>
	<g id="kvg:08d25-g3" kvg:element="攴" kvg:variant="true" kvg:original="攵" kvg:position="right" kvg:radical="tradit">
		<g id="kvg:08d25-g4" kvg:position="top">
			<path id="kvg:08d25-s8" kvg:type="㇒" d="m71.1 14.68c0.13 1.22 0.03 2.53 -0.29 3.71c-2.08 7.54 -6.74 22.41 -13.94 32.84"/>
			<path id="kvg:08d25-s9" kvg:type="㇐" d="m67.13 38.41c0.95 0.37 2.18 0.14 3.14 0.03c5.5 -0.67 12.81 -2.74 18.45 -5.22c1.58 -0.69 3.3 -0.81 4.73 -0.36"/>
		</g>
		<g id="kvg:08d25-g5" kvg:element="乂" kvg:position="bottom">
			<g id="kvg:08d25-g7" kvg:element="丿">
				<path id="kvg:08d25-s10" kvg:type="㇒" d="m82.75 39.56c0.44 1.32 0.59 3.06 0.23 5.5c-2.56 16.91 -10.86 37.66 -25.21 49.49"/>
			</g>
			<path id="kvg:08d25-s11" kvg:type="㇏" d="m62.86 51.03c3.06 0.47 17.24 25.88 26.6 37.43c2.38 2.94 4.21 4.77 6.99 6.63"/>
		</g>
	</g>
</g>
</g>
<g id="kvg:StrokeNumbers_08d25" style="font-size:8;fill:#808080">
	<text transform="matrix(1 0 0 1 7.25 27.50)">1</text>
	<text transform="matrix(1 0 0 1 16.50 18.55)">2</text>
	<text transform="matrix(1 0 0 1 33.50 36.50)">3</text>
	<text transform="matrix(1 0 0 1 33.50 68.50)">4</text>
	<text transform="matrix(1 0 0 1 60.50 18.50)">5</text>
	<text transform="matrix(1 0 0 1 70.25 34.50)">6</text>
	<text transform="matrix(1 0 0 1 71.82 51.33)">7</text>
	<text transform="matrix(1 0 0 1 55.00 64.00)">8</text>
</g>
</svg>
