<?xml version="1.0" encoding="UTF-8"?>
<!--
Copyright (C) 2016 François Mizessyn.
This work makes an extensive use of kanjiVG Copyright (C) 2009/2010/2011 Ulrich Apel.
This work is distributed under the conditions of the Creative Commons
Attribution-Share Alike 3.0 Licence. This means you are free:
* to Share - to copy, distribute and transmit the work
* to Remix - to adapt the work

Under the following conditions:
* Attribution. You must attribute the work by stating your use of HanjiVG in
  your own copyright header and linking to HanjiVG's website
  (http://gooo.free.fr/hanziVG/)
* Attribution. You must attribute the work by stating your use of KanjiVG in
  your own copyright header and linking to KanjiVG's website
  (http://kanjivg.tagaini.net)
* Share Alike. If you alter, transform, or build upon this work, you may
  distribute the resulting work only under the same or similar license to this
  one.

See http://creativecommons.org/licenses/by-sa/3.0/ for more details.
-->
<!DOCTYPE svg PUBLIC "-//W3C//DTD SVG 1.0//EN" "http://www.w3.org/TR/2001/REC-SVG-20010904/DTD/svg10.dtd" [
<!ATTLIST g
xmlns:kvg CDATA #FIXED "http://kanjivg.tagaini.net"
kvg:element CDATA #IMPLIED
kvg:variant CDATA #IMPLIED
kvg:partial CDATA #IMPLIED
kvg:original CDATA #IMPLIED
kvg:part CDATA #IMPLIED
kvg:number CDATA #IMPLIED
kvg:tradForm CDATA #IMPLIED
kvg:radicalForm CDATA #IMPLIED
kvg:position CDATA #IMPLIED
kvg:radical CDATA #IMPLIED
kvg:phon CDATA #IMPLIED >
<!ATTLIST path
xmlns:kvg CDATA #FIXED "http://kanjivg.tagaini.net"
kvg:type CDATA #IMPLIED >
]>
<svg xmlns="http://www.w3.org/2000/svg" width="109" height="109" viewBox="0 0 109 109">
<g id="kvg:StrokePaths_08d27" style="fill:none;stroke:#000000;stroke-width:3;stroke-linecap:round;stroke-linejoin:round;">
<g id="kvg:08d27" kvg:element="货">
	<g id="kvg:08d27-g1" kvg:element="化" kvg:position="top" kvg:phon="化">
		<g id="kvg:08d27-g2" kvg:element="亻" kvg:variant="true" kvg:original="人">
			<path id="kvg:08d27-s1" kvg:type="㇒" d="M37.57,12.11c0.22,1.2-0.06,2.77-0.76,3.8c-4.48,6.56-10.16,12.72-20.43,20.7"/>
			<path id="kvg:08d27-s2" kvg:type="㇑" d="M30.49,26.71c0.72,0.72,1.25,1.94,1.24,3.17c-0.04,5.38-0.15,12.25-0.2,17.62c-0.02,1.9-0.03,3.61-0.03,5"/>
		</g>
		<g id="kvg:08d27-g3" kvg:element="匕">
			<path id="kvg:08d27-s3" kvg:type="㇒" d="m82.44 17.4c0 1.19 -0.23 1.73 -1.38 2.86c-3.62 3.55 -13.78 9.62 -18.44 11.4"/>
			<path id="kvg:08d27-s4" kvg:type="㇟" d="m58.45 14.1c0.84 1.01 1.27 2.4 1.27 3.82c0 0.44 -0.04 9.7 -0.04 16.44c0 10.5 1.82 11.57 15.32 11.57c14.38 0 15.5 -1.67 15.5 -9.23"/>
		</g>
	</g>
	<g id="kvg:08d27-g4" kvg:element="贝" kvg:position="bottom" kvg:radical="general">
		<g id="kvg:08d27-g5" kvg:element="冂" kvg:variant="true" kvg:radical="general">
			<path id="kvg:08d27-s5" kvg:type="㇑" d="m31.05 60.16c0.73 0.46 1.13 1.01 0.52 0.56c1.21 3.38 2.38 8.64 2.51 12.67c0.13 0.7 0.25 1.37 0.37 6.86"/>
			<path id="kvg:08d27-s6" kvg:type="㇕" d="m31.59 60.74c11.94 -0.72 9.89 -1.12 42.58 -6.46c3.23 -0.1 4.93 0.7 4.67 2.06c-0.68 3.48 -2.15 8.36 -2.45 12.77c-0.3 0.71 -0.6 2.86 -0.91 6.94"/>
		</g>
		<g id="kvg:08d27-g6" kvg:element="人" kvg:position="bottom" kvg:radical="general">
			<path id="kvg:08d27-s7" kvg:type="㇒" d="m56.92 68.02c0.3 0.85 0.18 1.64 -0.18 2.54c-2.06 5.35 -12.68 18.62 -29.92 24.7"/>
			<path id="kvg:08d27-s8" kvg:type="㇏" d="m50.19 81.9c4.85 2.44 20.21 9.01 28.14 12.04c2.9 1.1 5.5 1.88 9.08 2.24"/>
		</g>
	</g>
</g>
</g>
<g id="kvg:StrokeNumbers_08d27" style="font-size:8;fill:#808080">
	<text transform="matrix(1 0 0 1 28.50 13.50)">1</text>
	<text transform="matrix(1 0 0 1 33.75 33.50)">2</text>
	<text transform="matrix(1 0 0 1 73.50 15.50)">3</text>
	<text transform="matrix(1 0 0 1 48.50 13.50)">4</text>
	<text transform="matrix(1 0 0 1 22.25 72.18)">5</text>
	<text transform="matrix(1 0 0 1 34.50 57.50)">6</text>
	<text transform="matrix(1 0 0 1 47.50 72.50)">7</text>
	<text transform="matrix(1 0 0 1 57.15 83.50)">8</text>
</g>
</svg>
