<?xml version="1.0" encoding="UTF-8"?>
<!--
Copyright (C) 2016 François Mizessyn.
This work makes an extensive use of kanjiVG Copyright (C) 2009/2010/2011 Ulrich Apel.
This work is distributed under the conditions of the Creative Commons
Attribution-Share Alike 3.0 Licence. This means you are free:
* to Share - to copy, distribute and transmit the work
* to Remix - to adapt the work

Under the following conditions:
* Attribution. You must attribute the work by stating your use of HanjiVG in
  your own copyright header and linking to HanjiVG's website
  (http://gooo.free.fr/hanziVG/)
* Attribution. You must attribute the work by stating your use of KanjiVG in
  your own copyright header and linking to KanjiVG's website
  (http://kanjivg.tagaini.net)
* Share Alike. If you alter, transform, or build upon this work, you may
  distribute the resulting work only under the same or similar license to this
  one.

See http://creativecommons.org/licenses/by-sa/3.0/ for more details.
-->
<!DOCTYPE svg PUBLIC "-//W3C//DTD SVG 1.0//EN" "http://www.w3.org/TR/2001/REC-SVG-20010904/DTD/svg10.dtd" [
<!ATTLIST g
xmlns:kvg CDATA #FIXED "http://kanjivg.tagaini.net"
kvg:element CDATA #IMPLIED
kvg:variant CDATA #IMPLIED
kvg:partial CDATA #IMPLIED
kvg:original CDATA #IMPLIED
kvg:part CDATA #IMPLIED
kvg:number CDATA #IMPLIED
kvg:tradForm CDATA #IMPLIED
kvg:radicalForm CDATA #IMPLIED
kvg:position CDATA #IMPLIED
kvg:radical CDATA #IMPLIED
kvg:phon CDATA #IMPLIED >
<!ATTLIST path
xmlns:kvg CDATA #FIXED "http://kanjivg.tagaini.net"
kvg:type CDATA #IMPLIED >
]>
<svg xmlns="http://www.w3.org/2000/svg" width="109" height="109" viewBox="0 0 109 109">
<g id="kvg:StrokePaths_08d3a" style="fill:none;stroke:#000000;stroke-width:3;stroke-linecap:round;stroke-linejoin:round;">
<g id="kvg:08d3a" kvg:element="贺">
	<g id="kvg:08d3a-g1" kvg:element="加" kvg:position="top">
		<g id="kvg:08d3a-g2" kvg:element="力" kvg:position="left">
			<path id="kvg:08d3a-s1" kvg:type="㇆" d="m19.69 25.98c1.77 0.48 3.54 0.53 5.31 0.13c6.3 -0.84 17.51 -2.87 22.24 -3.45c3.45 -0.42 4.65 0.56 4.25 3.34c-0.74 5.12 -2.11 10.87 -5.79 15.74c-3.35 4.44 -5.2 0.87 -6.05 -0.27"/>
			<path id="kvg:08d3a-s2" kvg:type="㇒" d="m36.12 13.93c0.5 0.95 0.44 2.33 0.2 3.48c-1.94 10.84 -8.32 25.09 -19.49 31.12"/>
		</g>
		<g id="kvg:08d3a-g3" kvg:element="口" kvg:position="right">
			<path id="kvg:08d3a-s3" kvg:type="㇑" d="m60 21.03c1.13 0.59 1.56 1.58 1.79 2.82c0.8 4.33 1.34 7.19 2.03 11.26c0.25 1.47 0.51 3.1 0.81 5.01"/>
			<path id="kvg:08d3a-s4" kvg:type="㇕b" d="m62.08 22.22c8.24 -1.16 14.05 -2.06 19.92 -2.94c3.12 -0.47 5.06 0.79 3.93 4.45c-0.93 3.02 -1.18 4.39 -3.02 11.31"/>
			<path id="kvg:08d3a-s5" kvg:type="㇐b" d="m65.32 38.44c3.84 -0.36 10.02 -1.19 15.71 -1.91c1.23 -0.16 2.45 -0.31 3.61 -0.45"/>
		</g>
	</g>
	<g id="kvg:08d3a-g4" kvg:element="贝" kvg:position="bottom" kvg:radical="general">
		<g id="kvg:08d3a-g5" kvg:element="冂" kvg:variant="true" kvg:radical="general">
			<path id="kvg:08d3a-s6" kvg:type="㇑" d="m29.61 55.96c0.81 0.5 1.25 1.12 0.58 0.62c1.34 3.76 2.64 9.6 2.78 15.19c0.14 0.77 0.28 1.52 0.41 7.63"/>
			<path id="kvg:08d3a-s7" kvg:type="㇕" d="m30.21 56.6c13.27 -0.8 33.21 -2.36 47.31 -2.73c3.58 -0.11 5.48 0.77 5.19 2.29c-0.76 3.87 -2.39 9.29 -2.72 14.19c-0.33 0.78 -0.67 3.17 -1.01 7.7"/>
		</g>
		<g id="kvg:08d3a-g6" kvg:element="人" kvg:position="bottom" kvg:radical="general">
			<path id="kvg:08d3a-s8" kvg:type="㇒" d="m58.36 65.8c0.33 0.95 0.2 1.82 -0.2 2.83c-2.29 5.94 -14.1 20.69 -33.24 27.44"/>
			<path id="kvg:08d3a-s9" kvg:type="㇏" d="m50.88 81.22c5.39 2.7 22.45 10.01 31.26 13.37c3.22 1.22 6.11 2.09 10.1 2.49"/>
		</g>
	</g>
</g>
</g>
<g id="kvg:StrokeNumbers_08d3a" style="font-size:8;fill:#808080">
	<text transform="matrix(1 0 0 1 10.25 25.50)">1</text>
	<text transform="matrix(1 0 0 1 25.50 13.55)">2</text>
	<text transform="matrix(1 0 0 1 52.50 28.50)">3</text>
	<text transform="matrix(1 0 0 1 61.50 17.50)">4</text>
	<text transform="matrix(1 0 0 1 66.50 34.50)">5</text>
	<text transform="matrix(1 0 0 1 19.25 62.18)">6</text>
	<text transform="matrix(1 0 0 1 28.50 52.50)">7</text>
	<text transform="matrix(1 0 0 1 47.50 68.50)">8</text>
	<text transform="matrix(1 0 0 1 59.15 81.50)">9</text>
</g>
</svg>
