<?xml version="1.0" encoding="UTF-8"?>
<!--
Copyright (C) 2016 François Mizessyn.
This work makes an extensive use of kanjiVG Copyright (C) 2009/2010/2011 Ulrich Apel.
This work is distributed under the conditions of the Creative Commons
Attribution-Share Alike 3.0 Licence. This means you are free:
* to Share - to copy, distribute and transmit the work
* to Remix - to adapt the work

Under the following conditions:
* Attribution. You must attribute the work by stating your use of HanjiVG in
  your own copyright header and linking to HanjiVG's website
  (http://gooo.free.fr/hanziVG/)
* Attribution. You must attribute the work by stating your use of KanjiVG in
  your own copyright header and linking to KanjiVG's website
  (http://kanjivg.tagaini.net)
* Share Alike. If you alter, transform, or build upon this work, you may
  distribute the resulting work only under the same or similar license to this
  one.

See http://creativecommons.org/licenses/by-sa/3.0/ for more details.
-->
<!DOCTYPE svg PUBLIC "-//W3C//DTD SVG 1.0//EN" "http://www.w3.org/TR/2001/REC-SVG-20010904/DTD/svg10.dtd" [
<!ATTLIST g
xmlns:kvg CDATA #FIXED "http://kanjivg.tagaini.net"
kvg:element CDATA #IMPLIED
kvg:variant CDATA #IMPLIED
kvg:partial CDATA #IMPLIED
kvg:original CDATA #IMPLIED
kvg:part CDATA #IMPLIED
kvg:number CDATA #IMPLIED
kvg:tradForm CDATA #IMPLIED
kvg:radicalForm CDATA #IMPLIED
kvg:position CDATA #IMPLIED
kvg:radical CDATA #IMPLIED
kvg:phon CDATA #IMPLIED >
<!ATTLIST path
xmlns:kvg CDATA #FIXED "http://kanjivg.tagaini.net"
kvg:type CDATA #IMPLIED >
]>
<svg xmlns="http://www.w3.org/2000/svg" width="109" height="109" viewBox="0 0 109 109">
<g id="kvg:StrokePaths_08d39" style="fill:none;stroke:#000000;stroke-width:3;stroke-linecap:round;stroke-linejoin:round;">
<g id="kvg:08d39" kvg:element="费">
	<g id="kvg:08d39-g1" kvg:element="弗" kvg:position="top" kvg:phon="弗">
		<g id="kvg:08d39-g2" kvg:element="弓">
			<path id="kvg:08d39-s1" kvg:type="㇕c" d="m27.35 25.03c2.65 1.07 4.89 1.16 7.28 0.9c11.99 -1.32 36.12 -3.58 45.08 -4.32c2.72 -0.23 4.72 1.1 3.18 4.28c-1.11 2.29 -1.79 3.84 -2.77 6.46"/>
			<path id="kvg:08d39-s2" kvg:type="㇐" d="m25.5 36.6c1.5 0.74 3.48 1.37 5.99 1.16c11.85 -1 39.76 -3.56 44.95 -3.86c2.07 -0.12 4.31 -0.14 5.81 0.3"/>
			<path id="kvg:08d39-s3" kvg:type="㇉" d="m26.59 37.58c0.79 0.95 1.03 2.17 0.48 3.44c-0.62 1.44 -2.06 3.92 -4.51 7.31c-1.06 1.46 -0.34 4.07 2.61 3.26c2.23 -0.61 57.87 -6.02 64.05 -6.85c1.91 -0.25 3.43 0.98 2.92 3.47c-0.78 3.79 -2.38 8.33 -4.67 13.03c-2.71 5.57 -5.14 1.12 -7.36 -1.93"/>
		</g>
		<g id="kvg:08d39-g3" kvg:element="丿">
			<path id="kvg:08d39-s4" kvg:type="㇒" d="m45.1 15.77c0.82 0.98 1.31 2.7 1.3 4.14c-0.15 21.95 -1.65 31.25 -7.06 38.17"/>
		</g>
		<g id="kvg:08d39-g4" kvg:element="丨">
			<path id="kvg:08d39-s5" kvg:type="㇑" d="m61.96 12.3c0.83 1 1.52 2.54 1.52 3.67c0 3.65 -0.05 20.66 -0.07 33.07c0 2.62 -0.01 5.03 -0.01 7.06"/>
		</g>
	</g>
	<g id="kvg:08d39-g4" kvg:element="贝" kvg:position="bottom" kvg:radical="general">
		<g id="kvg:08d39-g5" kvg:element="冂" kvg:variant="true" kvg:radical="general">
			<path id="kvg:08d39-s6" kvg:type="㇑" d="m34.21 65.97c0.61 0.38 0.94 0.84 0.43 0.47c1.01 2.82 1.98 7.2 2.09 11.39c0.11 0.58 0.21 1.14 0.31 5.72"/>
			<path id="kvg:08d39-s7" kvg:type="㇕" d="m34.66 66.45c9.95 -0.6 24.91 -1.77 35.48 -2.05c2.69 -0.08 4.11 0.58 3.89 1.72c-0.57 2.9 -1.79 6.97 -2.04 10.64c-0.25 0.59 -0.5 2.38 -0.76 5.78"/>
		</g>
		<g id="kvg:08d39-g6" kvg:element="人" kvg:position="bottom" kvg:radical="general">
			<path id="kvg:08d39-s8" kvg:type="㇒" d="m55.77 73.35c0.25 0.71 0.15 1.37 -0.15 2.12c-1.72 4.46 -10.57 15.52 -24.93 20.58"/>
			<path id="kvg:08d39-s9" kvg:type="㇏" d="m50.16 84.92c4.04 2.03 16.84 7.51 23.45 10.03c2.42 0.92 4.58 1.57 7.57 1.87"/>
		</g>
	</g>
</g>
</g>
<g id="kvg:StrokeNumbers_08d39" style="font-size:8;fill:#808080">
	<text transform="matrix(1 0 0 1 25.50 20.50)">1</text>
	<text transform="matrix(1 0 0 1 25.50 34.50)">2</text>
	<text transform="matrix(1 0 0 1 14.50 42.50)">3</text>
	<text transform="matrix(1 0 0 1 37.50 12.50)">4</text>
	<text transform="matrix(1 0 0 1 54.50 11.50)">5</text>
	<text transform="matrix(1 0 0 1 23.25 72.18)">6</text>
	<text transform="matrix(1 0 0 1 30.50 63.50)">7</text>
	<text transform="matrix(1 0 0 1 45.50 72.50)">8</text>
	<text transform="matrix(1 0 0 1 57.15 86.50)">9</text>
</g>
</svg>
