<?xml version="1.0" encoding="UTF-8"?>
<!--
Copyright (C) 2016 François Mizessyn.
This work makes an extensive use of kanjiVG Copyright (C) 2009/2010/2011 Ulrich Apel.
This work is distributed under the conditions of the Creative Commons
Attribution-Share Alike 3.0 Licence. This means you are free:
* to Share - to copy, distribute and transmit the work
* to Remix - to adapt the work

Under the following conditions:
* Attribution. You must attribute the work by stating your use of HanjiVG in
  your own copyright header and linking to HanjiVG's website
  (http://gooo.free.fr/hanziVG/)
* Attribution. You must attribute the work by stating your use of KanjiVG in
  your own copyright header and linking to KanjiVG's website
  (http://kanjivg.tagaini.net)
* Share Alike. If you alter, transform, or build upon this work, you may
  distribute the resulting work only under the same or similar license to this
  one.

See http://creativecommons.org/licenses/by-sa/3.0/ for more details.
-->
<!DOCTYPE svg PUBLIC "-//W3C//DTD SVG 1.0//EN" "http://www.w3.org/TR/2001/REC-SVG-20010904/DTD/svg10.dtd" [
<!ATTLIST g
xmlns:kvg CDATA #FIXED "http://kanjivg.tagaini.net"
kvg:element CDATA #IMPLIED
kvg:variant CDATA #IMPLIED
kvg:partial CDATA #IMPLIED
kvg:original CDATA #IMPLIED
kvg:part CDATA #IMPLIED
kvg:number CDATA #IMPLIED
kvg:tradForm CDATA #IMPLIED
kvg:radicalForm CDATA #IMPLIED
kvg:position CDATA #IMPLIED
kvg:radical CDATA #IMPLIED
kvg:phon CDATA #IMPLIED >
<!ATTLIST path
xmlns:kvg CDATA #FIXED "http://kanjivg.tagaini.net"
kvg:type CDATA #IMPLIED >
]>
<svg xmlns="http://www.w3.org/2000/svg" width="109" height="109" viewBox="0 0 109 109">
<g id="kvg:StrokePaths_08d35" style="fill:none;stroke:#000000;stroke-width:3;stroke-linecap:round;stroke-linejoin:round;">
<g id="kvg:08d35" kvg:element="贵">
	<g id="kvg:08d35-g1" kvg:position="top">
		<g id="kvg:08d35-g2" kvg:element="中">
			<g id="kvg:08d35-g3" kvg:element="口">
				<path id="kvg:08d35-s1" kvg:type="㇑" d="m30.89 22.64c0.85 0.94 1.31 2.33 1.45 2.84c0.79 2.93 1.22 5.52 2.27 10.64c0.27 1.31 0.55 2.67 0.83 4.09"/>
				<path id="kvg:08d35-s2" kvg:type="㇕b" d="m32.86 24.64c13.64 -1.91 35.33 -5.09 43.42 -5.38c3.16 -0.11 4.53 1.61 3.86 4.36c-0.64 2.68 -1.89 6.81 -2.83 9.28"/>
				<path id="kvg:08d35-s3" kvg:type="㇐b" d="m36.04 37.22c8.11 -0.66 26.53 -2.34 39.22 -3.12c1.4 -0.09 2.74 -0.16 4 -0.23"/>
			</g>
			<g id="kvg:08d35-g4" kvg:element="丨">
				<path id="kvg:08d35-s4" kvg:type="㇑a" d="m53.25 12c0.94 1.03 1.5 2.76 1.5 3.92c0 10.81 0 22.76 0 30.18"/>
			</g>
			<path id="kvg:08d35-s5" kvg:type="㇐" d="m14.75 50.17c2.93 1.16 6.75 0.75 9.77 0.39c14.21 -1.72 43.9 -5.05 61.6 -5.93c3.17 -0.15 6.25 -0.32 9.38 0.42"/>
		</g>
	</g>
	<g id="kvg:08d35-g5" kvg:element="贝">
		<g id="kvg:08d35-g6" kvg:element="冂" kvg:variant="true" kvg:radical="general">
			<path id="kvg:08d35-s6" kvg:type="㇑" d="m24.83 61.46c0.92 0.48 1.42 1.07 0.66 0.6c1.53 3.64 3 9.3 3.16 13.71c0.16 0.75 0.3 1.47 0.46 7.38"/>
			<path id="kvg:08d35-s7" kvg:type="㇕" d="m25.51 62.06c15.08 -1.77 37.74 -3.28 53.76 -4.64c4.06 -0.1 6.23 0.75 5.9 2.22c-0.86 3.75 -2.71 8.98 -3.09 12.74c-0.38 0.76 -0.76 3.06 -1.16 7.46"/>
		</g>
		<g id="kvg:08d35-g7" kvg:element="人" kvg:position="bottom" kvg:radical="general">
			<path id="kvg:08d35-s8" kvg:type="㇒" d="m56.5 69.36c0.37 0.86 0.23 1.62 -0.22 2.53c-2.6 5.33 -16.03 18.54 -37.78 24.59"/>
			<path id="kvg:08d35-s9" kvg:type="㇏" d="m48 83.17c6.12 2.42 25.51 8.97 35.52 11.99c3.66 1.1 6.94 1.86 11.48 2.22"/>
		</g>
	</g>
</g>
<g id="kvg:StrokeNumbers_08d35" style="font-size:8;fill:#808080">
	<text transform="matrix(1 0 0 1 23.25 30.50)">1</text>
	<text transform="matrix(1 0 0 1 33.50 20.50)">2</text>
	<text transform="matrix(1 0 0 1 35.50 34.50)">3</text>
	<text transform="matrix(1 0 0 1 43.50 12.48)">4</text>
	<text transform="matrix(1 0 0 1 8.25 47.50)">5</text>
	<text transform="matrix(1 0 0 1 13.50 66.50)">6</text>
	<text transform="matrix(1 0 0 1 20.50 57.50)">7</text>
	<text transform="matrix(1 0 0 1 45.50 70.50)">8</text>
	<text transform="matrix(1 0 0 1 56.50 83.50)">9</text>
</g>
</svg>
