<?xml version="1.0" encoding="UTF-8"?>
<!--
Copyright (C) 2016 François Mizessyn.
This work makes an extensive use of kanjiVG Copyright (C) 2009/2010/2011 Ulrich Apel.
This work is distributed under the conditions of the Creative Commons
Attribution-Share Alike 3.0 Licence. This means you are free:
* to Share - to copy, distribute and transmit the work
* to Remix - to adapt the work

Under the following conditions:
* Attribution. You must attribute the work by stating your use of HanjiVG in
  your own copyright header and linking to HanjiVG's website
  (http://gooo.free.fr/hanziVG/)
* Attribution. You must attribute the work by stating your use of KanjiVG in
  your own copyright header and linking to KanjiVG's website
  (http://kanjivg.tagaini.net)
* Share Alike. If you alter, transform, or build upon this work, you may
  distribute the resulting work only under the same or similar license to this
  one.

See http://creativecommons.org/licenses/by-sa/3.0/ for more details.
-->
<!DOCTYPE svg PUBLIC "-//W3C//DTD SVG 1.0//EN" "http://www.w3.org/TR/2001/REC-SVG-20010904/DTD/svg10.dtd" [
<!ATTLIST g
xmlns:kvg CDATA #FIXED "http://kanjivg.tagaini.net"
kvg:element CDATA #IMPLIED
kvg:variant CDATA #IMPLIED
kvg:partial CDATA #IMPLIED
kvg:original CDATA #IMPLIED
kvg:part CDATA #IMPLIED
kvg:number CDATA #IMPLIED
kvg:tradForm CDATA #IMPLIED
kvg:radicalForm CDATA #IMPLIED
kvg:position CDATA #IMPLIED
kvg:radical CDATA #IMPLIED
kvg:phon CDATA #IMPLIED >
<!ATTLIST path
xmlns:kvg CDATA #FIXED "http://kanjivg.tagaini.net"
kvg:type CDATA #IMPLIED >
]>
<svg xmlns="http://www.w3.org/2000/svg" width="109" height="109" viewBox="0 0 109 109">
<g id="kvg:StrokePaths_08d44" style="fill:none;stroke:#000000;stroke-width:3;stroke-linecap:round;stroke-linejoin:round;">
<g id="kvg:08d44" kvg:element="资">
	<g id="kvg:08d44-g1" kvg:element="次" kvg:position="top" kvg:phon="次">
		<g id="kvg:08d44-g2" kvg:element="冫" kvg:original="二" kvg:position="left">
			<g id="kvg:08d44-g3" kvg:position="top">
				<path id="kvg:08d44-s1" kvg:type="㇔" d="m17.75 14.37c3.84 1.83 9.93 7.53 10.89 10.38"/>
			</g>
			<g id="kvg:08d44-g4" kvg:position="bottom">
				<path id="kvg:08d44-s2" kvg:type="㇀" d="m14.75 52.3c1.65 1.22 3.79 1.02 4.95 0c1.12 -0.99 7.91 -8.83 12.2 -13.89"/>
			</g>
		</g>
		<g id="kvg:08d44-g5" kvg:element="欠" kvg:position="right">
			<path id="kvg:08d44-s3" kvg:type="㇒" d="m53.8 10.06c0.1 1.32 -0.03 2.2 -0.51 3.4c-2.33 5.81 -6.75 12.72 -15.92 19.85"/>
			<path id="kvg:08d44-s4" kvg:type="㇖" d="m52.89 20.7c1.1 0.18 2.95 0.14 4.57 -0.26c5.42 -1.32 10.92 -2.91 18.65 -4.6c5.84 -1.29 3.4 4.86 -4.76 13"/>
			<path id="kvg:08d44-s5" kvg:type="㇒" d="m57.29 27.5c0.15 1.43 -0.22 2.89 -0.66 4.19c-1.79 5.3 -7.14 13.63 -17.64 17.77"/>
			<path id="kvg:08d44-s6" kvg:type="㇏" d="m58.19 31.5c4.39 3.39 18.47 12.64 27.62 17.41c2.46 1.29 4.19 2.42 6.69 3.25"/>
		</g>
	</g>
	<g id="kvg:08d44-g4" kvg:element="贝" kvg:position="bottom" kvg:radical="general">
		<g id="kvg:08d44-g5" kvg:element="冂" kvg:variant="true" kvg:radical="general">
			<path id="kvg:08d44-s6" kvg:type="㇑" d="m29.61 55.96c0.81 0.5 1.25 1.12 0.58 0.62c1.34 3.76 2.64 9.6 2.78 15.19c0.14 0.77 0.28 1.52 0.41 7.63"/>
			<path id="kvg:08d44-s7" kvg:type="㇕" d="m30.21 56.6c13.27 -0.8 33.21 -2.36 47.31 -2.73c3.58 -0.11 5.48 0.77 5.19 2.29c-0.76 3.87 -2.39 9.29 -2.72 14.19c-0.33 0.78 -0.67 3.17 -1.01 7.7"/>
		</g>
		<g id="kvg:08d44-g6" kvg:element="人" kvg:position="bottom" kvg:radical="general">
			<path id="kvg:08d44-s8" kvg:type="㇒" d="m58.36 65.8c0.33 0.95 0.2 1.82 -0.2 2.83c-2.29 5.94 -14.1 20.69 -33.24 27.44"/>
			<path id="kvg:08d44-s9" kvg:type="㇏" d="m50.88 81.22c5.39 2.7 22.45 10.01 31.26 13.37c3.22 1.22 6.11 2.09 10.1 2.49"/>
		</g>
	</g>
</g>
</g>
<g id="kvg:StrokeNumbers_08d44" style="font-size:8;fill:#808080">
	<text transform="matrix(1 0 0 1 9.25 12.63)">1</text>
	<text transform="matrix(1 0 0 1 6.50 48.50)">2</text>
	<text transform="matrix(1 0 0 1 42.50 12.50)">3</text>
	<text transform="matrix(1 0 0 1 56.50 16.50)">4</text>
	<text transform="matrix(1 0 0 1 46.50 29.50)">5</text>
	<text transform="matrix(1 0 0 1 60.50 31.50)">6</text>
	<text transform="matrix(1 0 0 1 19.25 69.41)">7</text>
	<text transform="matrix(1 0 0 1 28.50 53.83)">8</text>
	<text transform="matrix(1 0 0 1 46.70 71.75)">9</text>
	<text transform="matrix(1 0 0 1 55.70 80.50)">10</text>
</g>
</svg>
