<?xml version="1.0" encoding="UTF-8"?>
<!--
Copyright (C) 2016 François Mizessyn.
This work makes an extensive use of kanjiVG Copyright (C) 2009/2010/2011 Ulrich Apel.
This work is distributed under the conditions of the Creative Commons
Attribution-Share Alike 3.0 Licence. This means you are free:
* to Share - to copy, distribute and transmit the work
* to Remix - to adapt the work

Under the following conditions:
* Attribution. You must attribute the work by stating your use of HanjiVG in
  your own copyright header and linking to HanjiVG's website
  (http://gooo.free.fr/hanziVG/)
* Attribution. You must attribute the work by stating your use of KanjiVG in
  your own copyright header and linking to KanjiVG's website
  (http://kanjivg.tagaini.net)
* Share Alike. If you alter, transform, or build upon this work, you may
  distribute the resulting work only under the same or similar license to this
  one.

See http://creativecommons.org/licenses/by-sa/3.0/ for more details.
-->
<!DOCTYPE svg PUBLIC "-//W3C//DTD SVG 1.0//EN" "http://www.w3.org/TR/2001/REC-SVG-20010904/DTD/svg10.dtd" [
<!ATTLIST g
xmlns:kvg CDATA #FIXED "http://kanjivg.tagaini.net"
kvg:element CDATA #IMPLIED
kvg:variant CDATA #IMPLIED
kvg:partial CDATA #IMPLIED
kvg:original CDATA #IMPLIED
kvg:part CDATA #IMPLIED
kvg:number CDATA #IMPLIED
kvg:tradForm CDATA #IMPLIED
kvg:radicalForm CDATA #IMPLIED
kvg:position CDATA #IMPLIED
kvg:radical CDATA #IMPLIED
kvg:phon CDATA #IMPLIED >
<!ATTLIST path
xmlns:kvg CDATA #FIXED "http://kanjivg.tagaini.net"
kvg:type CDATA #IMPLIED >
]>
<svg xmlns="http://www.w3.org/2000/svg" width="109" height="109" viewBox="0 0 109 109">
<g id="kvg:StrokePaths_08d5b" style="fill:none;stroke:#000000;stroke-width:3;stroke-linecap:round;stroke-linejoin:round;">
<g id="kvg:08d5b" kvg:element="赛">
	<g id="kvg:08d5b-g1" kvg:position="top">
		<g id="kvg:08d5b-g2" kvg:element="宀" kvg:radical="nelson">
			<path id="kvg:08d5b-s1" kvg:type="㇑a" d="m52.52 12c0.73 0.75 1.92 2.17 1.9 3.12c-0.09 2.98 -0.10 4.63 -0.10 7.35"/>
			<g id="kvg:08d5b-g3" kvg:element="冖">
				<path id="kvg:08d5b-s2" kvg:type="㇔" d="m21.53 23.21c0 2.98 -3.9 12.01 -5.16 14"/>
				<path id="kvg:08d5b-s3" kvg:type="㇖b" d="m21.62 25.56c1.39 0.07 57.19 -4.25 64.25 -4.25c14.13 0 2.36 6.94 0.59 7.6"/>
			</g>
		</g>
		<g id="kvg:08d5b-g4" kvg:element="三" kvg:part="1">
			<g id="kvg:08d5b-g5" kvg:element="一">
				<path id="kvg:08d5b-s4" kvg:type="㇐" d="m29 34.15c1.36 0.37 3.87 0.43 5.23 0.37c8.16 -0.38 29.55 -2.66 38.5 -2.94c2.27 -0.07 3.64 0.18 4.77 0.36"/>
			</g>
			<g id="kvg:08d5b-g6" kvg:element="一">
				<path id="kvg:08d5b-s5" kvg:type="㇐" d="m26.5 41.72c1.23 0.31 3.47 0.31 4.69 0.31c9.44 -0.03 32.31 -1.53 44.52 -2.57c2.03 -0.17 3.27 0.15 4.29 0.3"/>
			</g>
		</g>
		<path id="kvg:08d5b-s6" kvg:type="㇑" d="m40.31 29.47c0.4 0.32 1.23 2.38 1.31 3.01c0.08 0.63 0.61 12.14 0.88 17.81"/>
		<path id="kvg:08d5b-s7" kvg:type="㇑" d="m63.81 25.75c0.76 0.38 1.52 2.79 1.51 3.56c-0.07 5.94 -0.57 13.19 -0.82 19.19"/>
		<g id="kvg:08d5b-g7" kvg:element="三" kvg:part="2">
			<g id="kvg:08d5b-g8" kvg:element="一">
				<path id="kvg:08d5b-s8" kvg:type="㇐" d="m14.5 51.51c1.82 0.55 5.17 0.63 6.98 0.55c14.02 -0.57 48.09 -4.02 65.4 -4.02c3.04 0 4.86 0.26 6.37 0.54"/>
			</g>
		</g>
		<g id="kvg:08d5b-g9" kvg:element="八">
			<path id="kvg:08d5b-s9" kvg:type="㇒" d="m39.21 51.67c0.45 0.6 -0.21 1.21 -0.64 2.02c-4.32 8.23 -20.82 17.97 -28.07 20.06"/>
			<path id="kvg:08d5b-s10" kvg:type="㇏" d="m64.5 49.91c9.05 6.77 18.44 14.94 25.05 18.2c2.55 1.26 3.47 1.93 5.95 2.34"/>
		</g>
	</g>
	<g id="kvg:08d5b-g4" kvg:element="贝" kvg:position="bottom" kvg:radical="general">
		<g id="kvg:08d5b-g5" kvg:element="冂" kvg:variant="true" kvg:radical="general">
			<path id="kvg:08d5b-s11" kvg:type="㇑" d="m34.21 65.97c0.61 0.38 0.94 0.84 0.43 0.47c1.01 2.82 1.98 7.2 2.09 11.39c0.11 0.58 0.21 1.14 0.31 5.72"/>
			<path id="kvg:08d5b-s12" kvg:type="㇕" d="m34.66 66.45c9.95 -0.6 24.91 -1.77 35.48 -2.05c2.69 -0.08 4.11 0.58 3.89 1.72c-0.57 2.9 -1.79 6.97 -2.04 10.64c-0.25 0.59 -0.5 2.38 -0.76 5.78"/>
		</g>
		<g id="kvg:08d5b-g6" kvg:element="人" kvg:position="bottom" kvg:radical="general">
			<path id="kvg:08d5b-s13" kvg:type="㇒" d="m55.77 73.35c0.25 0.71 0.15 1.37 -0.15 2.12c-1.72 4.46 -10.57 15.52 -24.93 20.58"/>
			<path id="kvg:08d5b-s14" kvg:type="㇏" d="m50.16 84.92c4.04 2.03 16.84 7.51 23.45 10.03c2.42 0.92 4.58 1.57 7.57 1.87"/>
		</g>
	</g>
</g>
</g>
<g id="kvg:StrokeNumbers_08d5b" style="font-size:8;fill:#808080">
	<text transform="matrix(1 0 0 1 42.50 12.50)">1</text>
	<text transform="matrix(1 0 0 1 10.50 24.50)">2</text>
	<text transform="matrix(1 0 0 1 23.50 18.50)">3</text>
	<text transform="matrix(1 0 0 1 22.50 32.40)">4</text>
	<text transform="matrix(1 0 0 1 18.50 44.50)">5</text>
	<text transform="matrix(1 0 0 1 33.27 28.29)">6</text>
	<text transform="matrix(1 0 0 1 56.50 26.50)">7</text>
	<text transform="matrix(1 0 0 1 7.25 48.50)">8</text>
	<text transform="matrix(1 0 0 1 27.54 52.48)">9</text>
	<text transform="matrix(1 0 0 1 69.78 52.25)">10</text>
	<text transform="matrix(1 0 0 1 17.25 67.18)">11</text>
	<text transform="matrix(1 0 0 1 30.50 63.50)">12</text>
	<text transform="matrix(1 0 0 1 47.50 68.50)">13</text>
	<text transform="matrix(1 0 0 1 59.15 81.50)">14</text>
</g>
</svg>
