<?xml version="1.0" encoding="UTF-8"?>
<!--
Copyright (C) 2016 François Mizessyn.
This work makes an extensive use of kanjiVG Copyright (C) 2009/2010/2011 Ulrich Apel.
This work is distributed under the conditions of the Creative Commons
Attribution-Share Alike 3.0 Licence. This means you are free:
* to Share - to copy, distribute and transmit the work
* to Remix - to adapt the work

Under the following conditions:
* Attribution. You must attribute the work by stating your use of HanjiVG in
  your own copyright header and linking to HanjiVG's website
  (http://gooo.free.fr/hanziVG/)
* Attribution. You must attribute the work by stating your use of KanjiVG in
  your own copyright header and linking to KanjiVG's website
  (http://kanjivg.tagaini.net)
* Share Alike. If you alter, transform, or build upon this work, you may
  distribute the resulting work only under the same or similar license to this
  one.

See http://creativecommons.org/licenses/by-sa/3.0/ for more details.
-->
<!DOCTYPE svg PUBLIC "-//W3C//DTD SVG 1.0//EN" "http://www.w3.org/TR/2001/REC-SVG-20010904/DTD/svg10.dtd" [
<!ATTLIST g
xmlns:kvg CDATA #FIXED "http://kanjivg.tagaini.net"
kvg:element CDATA #IMPLIED
kvg:variant CDATA #IMPLIED
kvg:partial CDATA #IMPLIED
kvg:original CDATA #IMPLIED
kvg:part CDATA #IMPLIED
kvg:number CDATA #IMPLIED
kvg:tradForm CDATA #IMPLIED
kvg:radicalForm CDATA #IMPLIED
kvg:position CDATA #IMPLIED
kvg:radical CDATA #IMPLIED
kvg:phon CDATA #IMPLIED >
<!ATTLIST path
xmlns:kvg CDATA #FIXED "http://kanjivg.tagaini.net"
kvg:type CDATA #IMPLIED >
]>
<svg xmlns="http://www.w3.org/2000/svg" width="109" height="109" viewBox="0 0 109 109">
<g id="kvg:StrokePaths_08d76" style="fill:none;stroke:#000000;stroke-width:3;stroke-linecap:round;stroke-linejoin:round;">
<g id="kvg:08d76" kvg:element="赶">
	<g id="kvg:08d76-g1" kvg:element="走" kvg:position="nyo" kvg:radical="general">
		<g id="kvg:08d76-g2" kvg:element="土">
			<path id="kvg:08d76-s1" kvg:type="㇐" d="M18.2,31.55c1.62,0.35,3.24,0.42,4.86,0.23c7.72-0.7,16-1.96,21.56-2.73c1.71-0.3,3.44-0.35,5.19-0.13"/>
			<path id="kvg:08d76-s2" kvg:type="㇑a" d="M34.09,14.62c0.83,0.83,1.33,2.03,1.33,3.89c0,10.25-0.02,23.2-0.02,26.25"/>
			<path id="kvg:08d76-s3" kvg:type="㇐" d="M13.35,47.95c1.36,0.55,3.85,0.74,5.23,0.55c7.37-1,19.26-3.12,27.17-4c2.25-0.25,4.04-0.23,6.5,0.17"/>
		</g>
		<path id="kvg:08d76-s4" kvg:type="㇑a" d="M34.55,49.25c0.97,0.97,1.47,2.25,1.47,3.75c0,3.68-0.06,19.67-0.06,24.75"/>
		<path id="kvg:08d76-s5" kvg:type="㇐b" d="M37.16,63.5c4.51-0.5,9.58-1.59,11.61-1.84c1.35-0.16,2.63-0.07,3.22,0.12"/>
		<path id="kvg:08d76-s6" kvg:type="㇒" d="M24.9,63c0.2,1.3,0.1,2.56-0.3,3.77c-1.85,6.61-6.42,18.33-14.1,26.48"/>
		<path id="kvg:08d76-s7" kvg:type="㇏" d="M23.6,75.25c11.51,2.08,40.24,13.29,55.89,16.38c3.34,0.66,7.48,1.15,10.76,1.37"/>
	</g>
	<g id="kvg:08d76-g3" kvg:element="干" kvg:position="right">
		<g id="kvg:08d76-g4" kvg:element="十">
			<path id="kvg:08d76-s8" kvg:type="㇐" d="m59.42 30.13c0.56 0.3 2.49 0.32 3.05 0.27c3.88 -0.35 17.39 -2.56 24 -3.15c0.93 -0.08 2.89 0.26 3.35 0.41"/>
			<path id="kvg:08d76-s9" kvg:type="㇐" d="m57.12 51.25c0.9 0.32 2.57 0.41 3.47 0.32c8.51 -0.87 20.75 -2.44 30.63 -2.74c1.51 -0.04 2.42 0.15 3.17 0.32"/>
			<path id="kvg:08d76-s10" kvg:type="㇑" d="m73.17 30.67c0.38 0.36 1.6 1.53 1.6 3.49c0 3.82 -0.05 45.12 -0.13 49.71"/>
		</g>
	</g>
</g>
</g>
<g id="kvg:StrokeNumbers_08d76" style="font-size:8;fill:#808080">
	<text transform="matrix(1 0 0 1 12.75 32.50)">1</text>
	<text transform="matrix(1 0 0 1 26.50 15.50)">2</text>
	<text transform="matrix(1 0 0 1 6.75 49.50)">3</text>
	<text transform="matrix(1 0 0 1 28.50 57.13)">4</text>
	<text transform="matrix(1 0 0 1 38.50 60.63)">5</text>
	<text transform="matrix(1 0 0 1 17.50 66.50)">6</text>
	<text transform="matrix(1 0 0 1 24.75 80.63)">7</text>
	<text transform="matrix(1 0 0 1 54.50 27.50)">8</text>
	<text transform="matrix(1 0 0 1 53.50 48.50)">9</text>
	<text transform="matrix(1 0 0 1 75.50 42.50)">10</text>
</g>
</svg>
