<?xml version="1.0" encoding="UTF-8"?>
<!--
Copyright (C) 2016 François Mizessyn.
This work makes an extensive use of kanjiVG Copyright (C) 2009/2010/2011 Ulrich Apel.
This work is distributed under the conditions of the Creative Commons
Attribution-Share Alike 3.0 Licence. This means you are free:
* to Share - to copy, distribute and transmit the work
* to Remix - to adapt the work

Under the following conditions:
* Attribution. You must attribute the work by stating your use of HanjiVG in
  your own copyright header and linking to HanjiVG's website
  (http://gooo.free.fr/hanziVG/)
* Attribution. You must attribute the work by stating your use of KanjiVG in
  your own copyright header and linking to KanjiVG's website
  (http://kanjivg.tagaini.net)
* Share Alike. If you alter, transform, or build upon this work, you may
  distribute the resulting work only under the same or similar license to this
  one.

See http://creativecommons.org/licenses/by-sa/3.0/ for more details.
-->
<!DOCTYPE svg PUBLIC "-//W3C//DTD SVG 1.0//EN" "http://www.w3.org/TR/2001/REC-SVG-20010904/DTD/svg10.dtd" [
<!ATTLIST g
xmlns:kvg CDATA #FIXED "http://kanjivg.tagaini.net"
kvg:element CDATA #IMPLIED
kvg:variant CDATA #IMPLIED
kvg:partial CDATA #IMPLIED
kvg:original CDATA #IMPLIED
kvg:part CDATA #IMPLIED
kvg:number CDATA #IMPLIED
kvg:tradForm CDATA #IMPLIED
kvg:radicalForm CDATA #IMPLIED
kvg:position CDATA #IMPLIED
kvg:radical CDATA #IMPLIED
kvg:phon CDATA #IMPLIED >
<!ATTLIST path
xmlns:kvg CDATA #FIXED "http://kanjivg.tagaini.net"
kvg:type CDATA #IMPLIED >
]>
<svg xmlns="http://www.w3.org/2000/svg" width="109" height="109" viewBox="0 0 109 109">
<g id="kvg:StrokePaths_08dd1" style="fill:none;stroke:#000000;stroke-width:3;stroke-linecap:round;stroke-linejoin:round;">
<g id="kvg:08dd1" kvg:element="跑">
	<g id="kvg:08dd1-g1" kvg:element="足" kvg:position="left" kvg:radical="general">
		<g id="kvg:08dd1-g2" kvg:element="口">
			<path id="kvg:08dd1-s1" kvg:type="㇑" d="m14.7 20.24c0.45 0.37 0.91 0.67 1.12 1.13c1.56 3.62 2.86 13.12 3.93 19.63"/>
			<path id="kvg:08dd1-s2" kvg:type="㇕b" d="m16.93 22.19c12.68 -1.94 20.46 -2.98 25.74 -3.46c1.93 -0.17 3.09 1.03 2.82 2.05c-1.28 4.71 -2.05 10.32 -3.61 15.7"/>
			<path id="kvg:08dd1-s3" kvg:type="㇐b" d="m21.09 39.32c6.21 -0.54 14.19 -0.97 22.7 -1.8"/>
		</g>
		<path id="kvg:08dd1-s4" kvg:type="㇑a" d="m30.33 40.24c1.25 0.5 2.25 2.23 2.25 3.25c0 5.51 0.32 34.01 0.32 44"/>
		<path id="kvg:08dd1-s5" kvg:type="㇐b" d="m33.21 62.74c3.88 -0.49 6.75 -1.24 10.75 -1.5c2 -0.13 2.51 -0.25 3.75 0"/>
		<path id="kvg:08dd1-s6" kvg:type="㇒" d="m15.38 58.49c1.25 0.5 2 2.25 2.25 3.25c0.25 1 0.48 21.01 0.48 32.76"/>
		<path id="kvg:08dd1-s7" kvg:type="㇀/㇏" d="m11.5 95.07c0.39 0.8 2.88 1.68 5.98 0.4c9.71 -4 18.68 -8.47 29.1 -13.48"/>
	</g>
	<g id="kvg:08dd1-g3" kvg:element="包" kvg:position="right">
		<g id="kvg:08dd1-g4" kvg:element="勹">
			<g id="kvg:08dd1-g5" kvg:element="丿">
				<path id="kvg:08dd1-s8" kvg:type="㇒" d="m61.75 13c0.05 0.82 0.23 2.18 -0.09 3.29c-2.09 7.25 -7.74 20.86 -15.51 31.44"/>
			</g>
			<path id="kvg:08dd1-s9" kvg:type="㇆" d="m59.09 29.18c0.84 0.61 2.44 0.82 3.78 0.41s23.16 -4.28 26.5 -4.64c1.59 -0.17 3.41 1.12 3.31 3.41c-0.66 13.64 -2.58 28.64 -6.5 43.71c-1.79 6.88 -4.24 3.03 -6.21 0.48"/>
		</g>
		<g id="kvg:08dd1-g6" kvg:element="巳">
			<g id="kvg:08dd1-g7" kvg:element="己" kvg:variant="true">
				<path id="kvg:08dd1-s10" kvg:type="㇕" d="m53.57 45.74c1.09 0.94 2.02 0.94 3.64 0.63c3.26 -0.63 15.94 -3.27 16.93 -3.39c1.32 -0.16 2.36 1.03 1.88 3.47c-0.13 0.73 -1.09 7.05 -2.67 13.53"/>
				<path id="kvg:08dd1-s11" kvg:type="㇐" d="m57.17 62.85c3.52 -0.45 13.31 -1.79 18.33 -2.18"/>
				<path id="kvg:08dd1-s12" kvg:type="㇟" d="m55.7 46.52c0.77 1.16 0.96 1.5 0.95 3.3c-0.03 5.74 0.13 28.84 0.13 33.86c0 10.9 2.26 12.26 21.76 12.26c16.29 0 18.3 -3.25 18.3 -13.65"/>
			</g>
		</g>
	</g>
</g>
</g>
<g id="kvg:StrokeNumbers_08dd1" style="font-size:8;fill:#808080">
	<text transform="matrix(1 0 0 1 7.50 27.50)">1</text>
	<text transform="matrix(1 0 0 1 15.50 18.50)">2</text>
	<text transform="matrix(1 0 0 1 20.50 35.50)">3</text>
	<text transform="matrix(1 0 0 1 20.50 53.50)">4</text>
	<text transform="matrix(1 0 0 1 34.50 58.50)">5</text>
	<text transform="matrix(1 0 0 1 5.50 58.50)">6</text>
	<text transform="matrix(1 0 0 1 3.50 94.50)">7</text>
	<text transform="matrix(1 0 0 1 50.50 15.50)">8</text>
	<text transform="matrix(1 0 0 1 60.50 26.50)">9</text>
	<text transform="matrix(1 0 0 1 53.50 42.25)">10</text>
	<text transform="matrix(1 0 0 1 56.50 59.50)">11</text>
	<text transform="matrix(1 0 0 1 40.50 52.50)">12</text>
</g>
</svg>
