<?xml version="1.0" encoding="UTF-8"?>
<!--
Copyright (C) 2016 François Mizessyn.
This work makes an extensive use of kanjiVG Copyright (C) 2009/2010/2011 Ulrich Apel.
This work is distributed under the conditions of the Creative Commons
Attribution-Share Alike 3.0 Licence. This means you are free:
* to Share - to copy, distribute and transmit the work
* to Remix - to adapt the work

Under the following conditions:
* Attribution. You must attribute the work by stating your use of HanjiVG in
  your own copyright header and linking to HanjiVG's website
  (http://gooo.free.fr/hanziVG/)
* Attribution. You must attribute the work by stating your use of KanjiVG in
  your own copyright header and linking to KanjiVG's website
  (http://kanjivg.tagaini.net)
* Share Alike. If you alter, transform, or build upon this work, you may
  distribute the resulting work only under the same or similar license to this
  one.

See http://creativecommons.org/licenses/by-sa/3.0/ for more details.
-->
<!DOCTYPE svg PUBLIC "-//W3C//DTD SVG 1.0//EN" "http://www.w3.org/TR/2001/REC-SVG-20010904/DTD/svg10.dtd" [
<!ATTLIST g
xmlns:kvg CDATA #FIXED "http://kanjivg.tagaini.net"
kvg:element CDATA #IMPLIED
kvg:variant CDATA #IMPLIED
kvg:partial CDATA #IMPLIED
kvg:original CDATA #IMPLIED
kvg:part CDATA #IMPLIED
kvg:number CDATA #IMPLIED
kvg:tradForm CDATA #IMPLIED
kvg:radicalForm CDATA #IMPLIED
kvg:position CDATA #IMPLIED
kvg:radical CDATA #IMPLIED
kvg:phon CDATA #IMPLIED >
<!ATTLIST path
xmlns:kvg CDATA #FIXED "http://kanjivg.tagaini.net"
kvg:type CDATA #IMPLIED >
]>
<svg xmlns="http://www.w3.org/2000/svg" width="109" height="109" viewBox="0 0 109 109">
<g id="kvg:StrokePaths_08e22" style="fill:none;stroke:#000000;stroke-width:3;stroke-linecap:round;stroke-linejoin:round;">
<g id="kvg:08e22" kvg:element="踢">
	<g id="kvg:08e22-g1" kvg:element="足" kvg:position="left" kvg:radical="general">
		<g id="kvg:08e22-g2" kvg:element="口">
			<path id="kvg:08e22-s1" kvg:type="㇑" d="M15.78,19.62c0.37,0.3,0.74,0.55,0.9,0.92c1.27,2.96,1.82,14.39,2.69,19.71"/>
			<path id="kvg:08e22-s2" kvg:type="㇕b" d="M17.59,21.72c8.68-1.59,16.63-3.34,20.92-3.73c1.57-0.14,2.51,0.84,2.29,1.68c-1.03,3.85-2.13,11.69-3.4,16.09"/>
			<path id="kvg:08e22-s3" kvg:type="㇐b" d="M20.01,38.06c5.04-0.44,12.53-0.79,19.45-1.47"/>
		</g>
		<path id="kvg:08e22-s4" kvg:type="㇑a" d="M26.37,39.74c1.09,0.5,1.96,2.23,1.96,3.25c0,5.51,0.28,28.01,0.28,38"/>
		<path id="kvg:08e22-s5" kvg:type="㇐b" d="M28.38,57.24c3.37-0.49,6.37-1.49,10.35-2c1.73-0.22,2.18-0.25,3.26,0"/>
		<path id="kvg:08e22-s6" kvg:type="㇒" d="M15.37,52.49c1.09,0.5,1.74,2.25,1.96,3.25c0.22,1,0.42,21.01,0.42,32.76"/>
		<path id="kvg:08e22-s7" kvg:type="㇀/㇏" d="M11.5,88.57c1.25,0.68,2.33,1.85,4.2,0.9C24.5,85,28.5,83,41.5,76.49"/>
	</g>
	<g id="kvg:08e22-g3" kvg:element="易" kvg:position="right">
		<g id="kvg:08e22-g4" kvg:element="日" kvg:position="top">
			<path id="kvg:08e22-s8" kvg:type="㇑" d="M55.15,15.91c1.1,1.34,1.78,2.92,1.83,3.79c0.26,4.69,2.37,23.39,2.51,24.27"/>
			<path id="kvg:08e22-s9" kvg:type="㇕a" d="M58.16,17.45c2.33-0.11,22.37-2.83,24.49-2.96c1.77-0.11,2.83,2.59,2.77,3.26c-0.42,4.94-1.25,13.02-2.75,24.08"/>
			<path id="kvg:08e22-s10" kvg:type="㇐a" d="M58.91,30.07c8.2-0.84,19.91-2.24,25.35-2.49"/>
			<path id="kvg:08e22-s11" kvg:type="㇐a" d="M60.17,42.3c6.77-0.91,16.47-1.84,22.81-2.28"/>
		</g>
		<g id="kvg:08e22-g5" kvg:element="勿" kvg:position="bottom">
			<g id="kvg:08e22-g6" kvg:element="勹">
				<g id="kvg:08e22-g7" kvg:element="丿">
					<path id="kvg:08e22-s12" kvg:type="㇒" d="M62.09,47.7c0.04,0.46,0.17,1.23-0.08,1.86c-1.6,3.9-8.1,12.46-15.03,17.76"/>
				</g>
				<path id="kvg:08e22-s13" kvg:type="㇆" d="M61.88,56.57c0.81,0.45,1.95,0.6,3.25,0.3c1.3-0.3,22.33-2.85,25.57-3c3.24-0.15,4.01,1.52,3.41,4.65C92,69.5,90,81.5,83.81,93.42C80.93,98.97,78,97,75.12,91.67"/>
			</g>
			<g id="kvg:08e22-g8" kvg:element="丿">
				<path id="kvg:08e22-s14" kvg:type="㇒" d="M66.69,59.56c0.05,0.52,0.23,1.4-0.09,2.1C62.75,70,57.75,75.5,50.81,81.78"/>
			</g>
			<g id="kvg:08e22-g9" kvg:element="丿">
				<path id="kvg:08e22-s15" kvg:type="㇒" d="M80.1,58.15c0.07,0.82,0.26,2.14-0.13,3.28C77.25,69.25,69,82.25,57.66,92.76"/>
			</g>
		</g>
	</g>
</g>
</g>
<g id="kvg:StrokeNumbers_08e22" style="font-size:8;fill:#808080">
	<text transform="matrix(1 0 0 1 10.50 26.50)">1</text>
	<text transform="matrix(1 0 0 1 19.50 17.50)">2</text>
	<text transform="matrix(1 0 0 1 22.50 34.50)">3</text>
	<text transform="matrix(1 0 0 1 21.50 47.50)">4</text>
	<text transform="matrix(1 0 0 1 32.50 53.50)">5</text>
	<text transform="matrix(1 0 0 1 7.50 53.50)">6</text>
	<text transform="matrix(1 0 0 1 3.50 91.50)">7</text>
	<text transform="matrix(1 0 0 1 48.50 24.50)">8</text>
	<text transform="matrix(1 0 0 1 58.50 14.50)">9</text>
	<text transform="matrix(1 0 0 1 62.50 26.50)">10</text>
	<text transform="matrix(1 0 0 1 62.50 38.50)">11</text>
	<text transform="matrix(1 0 0 1 50.50 52.50)">12</text>
	<text transform="matrix(1 0 0 1 65.50 53.50)">13</text>
	<text transform="matrix(1 0 0 1 55.50 66.50)">14</text>
	<text transform="matrix(1 0 0 1 68.50 67.50)">15</text>
</g>
</svg>
