<?xml version="1.0" encoding="UTF-8"?>
<!--
Copyright (C) 2016 François Mizessyn.
This work makes an extensive use of kanjiVG Copyright (C) 2009/2010/2011 Ulrich Apel.
This work is distributed under the conditions of the Creative Commons
Attribution-Share Alike 3.0 Licence. This means you are free:
* to Share - to copy, distribute and transmit the work
* to Remix - to adapt the work

Under the following conditions:
* Attribution. You must attribute the work by stating your use of HanjiVG in
  your own copyright header and linking to HanjiVG's website
  (http://gooo.free.fr/hanziVG/)
* Attribution. You must attribute the work by stating your use of KanjiVG in
  your own copyright header and linking to KanjiVG's website
  (http://kanjivg.tagaini.net)
* Share Alike. If you alter, transform, or build upon this work, you may
  distribute the resulting work only under the same or similar license to this
  one.

See http://creativecommons.org/licenses/by-sa/3.0/ for more details.
-->
<!DOCTYPE svg PUBLIC "-//W3C//DTD SVG 1.0//EN" "http://www.w3.org/TR/2001/REC-SVG-20010904/DTD/svg10.dtd" [
<!ATTLIST g
xmlns:kvg CDATA #FIXED "http://kanjivg.tagaini.net"
kvg:element CDATA #IMPLIED
kvg:variant CDATA #IMPLIED
kvg:partial CDATA #IMPLIED
kvg:original CDATA #IMPLIED
kvg:part CDATA #IMPLIED
kvg:number CDATA #IMPLIED
kvg:tradForm CDATA #IMPLIED
kvg:radicalForm CDATA #IMPLIED
kvg:position CDATA #IMPLIED
kvg:radical CDATA #IMPLIED
kvg:phon CDATA #IMPLIED >
<!ATTLIST path
xmlns:kvg CDATA #FIXED "http://kanjivg.tagaini.net"
kvg:type CDATA #IMPLIED >
]>
<svg xmlns="http://www.w3.org/2000/svg" width="109" height="109" viewBox="0 0 109 109">
<g id="kvg:StrokePaths_08f6e" style="fill:none;stroke:#000000;stroke-width:3;stroke-linecap:round;stroke-linejoin:round;">
<g id="kvg:08f6e" kvg:element="轮">
	<g id="kvg:08f6e-g1" kvg:element="车" kvg:position="left" kvg:radical="general">
		<path id="kvg:08f6e-s1" kvg:type="㇐" d="m14.03 29.1c1.74 0.89 3.41 0.85 5.19 0.64c8.13 -0.95 18.23 -2.99 27 -3.6c1.61 -0.11 3.19 -0.09 4.75 0.69"/>
		<path id="kvg:08f6e-s2" kvg:type="㇜" d="m32.25 14.92c0.41 0.5 0.92 2.39 -14.49 43.05c8.56 -1 19.19 -3.15 25.92 -3.79c1.61 -0.11 3.19 -0.09 4.25 0.43"/>
		<path id="kvg:08f6e-s3" kvg:type="㇐" d="m13 77.86c1.83 0.94 3.59 0.89 5.47 0.67c8.56 -1 19.19 -3.15 28.42 -3.79c1.69 -0.12 3.35 -0.09 5 0.73"/>
		<path id="kvg:08f6e-s4" kvg:type="㇑" d="m32.25 40.51c0.68 1.36 1.03 2.78 1.07 6.02c0.02 1.07 -0.04 48.79 -0.09 41.7c-0.01 4.27 -0.02 7.36 -0.04 8.65"/>
	</g>
	<g id="kvg:08f6e-g2" kvg:element="仑" kvg:position="right">
		<g id="kvg:08f6e-g3" kvg:element="人" kvg:position="top">
			<path id="kvg:08f6e-s5" kvg:type="㇒" d="m70.68 16.01c0.22 0.9 -0.08 2.04 -0.53 3.08c-2.59 6.07 -9.15 18.12 -20.79 29.51"/>
			<path id="kvg:08f6e-s6" kvg:type="㇏" d="m71.6 19.62c3.22 3.44 12.38 13.52 18.26 19.25c1.57 1.54 4.74 4.22 6.78 5.39"/>
		</g>
		<g id="kvg:08f6e-g4" kvg:element="匕" kvg:position="bottom">
			<path id="kvg:08f6e-s7" kvg:type="㇒" d="m87.23 49.51c0.17 0.38 0.29 1.49 -0.16 2.07c-2.96 3.8 -13.08 14.27 -22.62 18.15"/>
			<path id="kvg:08f6e-s8" kvg:type="㇟" d="m59.19 48.28c0.8 0.92 0.86 1.54 1.12 2.76c0.26 1.23 -0.1 31.77 -0.1 35.62c0 9.87 9.95 8.33 19.05 8.33c7.06 0 12.2 -0.52 14.86 -3.28c2.66 -2.76 2.33 -5.97 2.6 -8.73"/>
		</g>
	</g>
</g>
</g>
<g id="kvg:StrokeNumbers_08f6e" style="font-size:8;fill:#808080">
	<text transform="matrix(1 0 0 1 8.25 25.50)">1</text>
	<text transform="matrix(1 0 0 1 21.50 13.50)">2</text>
	<text transform="matrix(1 0 0 1 3.75 77.50)">3</text>
	<text transform="matrix(1 0 0 1 34.00 41.28)">4</text>
	<text transform="matrix(1 0 0 1 59.25 18.50)">5</text>
	<text transform="matrix(1 0 0 1 71.50 14.50)">6</text>
	<text transform="matrix(1 0 0 1 76.00 52.28)">7</text>
	<text transform="matrix(1 0 0 1 62.75 50.50)">8</text>
</g>
</svg>
