<?xml version="1.0" encoding="UTF-8"?>
<!--
Copyright (C) 2016 François Mizessyn.
This work makes an extensive use of kanjiVG Copyright (C) 2009/2010/2011 Ulrich Apel.
This work is distributed under the conditions of the Creative Commons
Attribution-Share Alike 3.0 Licence. This means you are free:
* to Share - to copy, distribute and transmit the work
* to Remix - to adapt the work

Under the following conditions:
* Attribution. You must attribute the work by stating your use of HanjiVG in
  your own copyright header and linking to HanjiVG's website
  (http://gooo.free.fr/hanziVG/)
* Attribution. You must attribute the work by stating your use of KanjiVG in
  your own copyright header and linking to KanjiVG's website
  (http://kanjivg.tagaini.net)
* Share Alike. If you alter, transform, or build upon this work, you may
  distribute the resulting work only under the same or similar license to this
  one.

See http://creativecommons.org/licenses/by-sa/3.0/ for more details.
-->
<!DOCTYPE svg PUBLIC "-//W3C//DTD SVG 1.0//EN" "http://www.w3.org/TR/2001/REC-SVG-20010904/DTD/svg10.dtd" [
<!ATTLIST g
xmlns:kvg CDATA #FIXED "http://kanjivg.tagaini.net"
kvg:element CDATA #IMPLIED
kvg:variant CDATA #IMPLIED
kvg:partial CDATA #IMPLIED
kvg:original CDATA #IMPLIED
kvg:part CDATA #IMPLIED
kvg:number CDATA #IMPLIED
kvg:tradForm CDATA #IMPLIED
kvg:radicalForm CDATA #IMPLIED
kvg:position CDATA #IMPLIED
kvg:radical CDATA #IMPLIED
kvg:phon CDATA #IMPLIED >
<!ATTLIST path
xmlns:kvg CDATA #FIXED "http://kanjivg.tagaini.net"
kvg:type CDATA #IMPLIED >
]>
<svg xmlns="http://www.w3.org/2000/svg" width="109" height="109" viewBox="0 0 109 109">
<g id="kvg:StrokePaths_08f86" style="fill:none;stroke:#000000;stroke-width:3;stroke-linecap:round;stroke-linejoin:round;">
<g id="kvg:08f86" kvg:element="辆">
	<g id="kvg:08f86-g1" kvg:element="车" kvg:position="left" kvg:radical="general">
		<path id="kvg:08f86-s1" kvg:type="㇐" d="m14.51 29.1c1.32 0.89 2.59 0.85 3.94 0.64c6.18 -0.95 13.85 -2.99 20.52 -3.6c1.23 -0.11 2.42 -0.09 3.61 0.69"/>
		<path id="kvg:08f86-s2" kvg:type="㇜" d="m28.36 14.92c0.31 0.5 0.7 2.39 -11.01 43.05c6.51 -1 14.58 -3.15 19.7 -3.79c1.23 -0.11 2.42 -0.09 3.23 0.43"/>
		<path id="kvg:08f86-s3" kvg:type="㇐" d="m13.73 77.86c1.39 0.94 2.73 0.89 4.16 0.67c6.51 -1 14.58 -3.15 21.6 -3.79c1.28 -0.12 2.55 -0.09 3.8 0.73"/>
		<path id="kvg:08f86-s4" kvg:type="㇑" d="m28.36 40.51c0.51 1.36 0.78 2.78 0.82 6.02c0.02 1.07 -0.03 48.79 -0.07 41.7c-0.01 4.27 -0.02 7.36 -0.03 8.65"/>
	</g>
	<g id="kvg:08f86-g2" kvg:element="两">
		<g id="kvg:08f86-g3" kvg:element="一" kvg:radical="general">
			<path id="kvg:08f86-s5" kvg:type="㇐" d="m48.38 22.18c2.15 1.16 4.86 0.77 7.08 0.42c7.58 -1.22 24.88 -3.73 33.87 -4.16c2.01 -0.09 4.06 0.05 6.03 0.72"/>
		</g>
		<g id="kvg:08f86-g4" kvg:element="冂">
			<path id="kvg:08f86-s6" kvg:type="㇑" d="m48.86 44.91c0.41 0.83 0.76 2.57 0.83 4.08c0.22 5.53 0.63 26.59 0.83 37.93c0.07 3.89 0.1 6.64 0.1 7.23"/>
			<path id="kvg:08f86-s7" kvg:type="㇆a" d="m50.02 47.25c12.25 -1.6 31.49 -5.81 40.83 -6.75c2.28 -0.29 3.62 1.98 3.51 7.23c-0.24 12.08 -1.74 32.25 -3.41 42.71c-1.25 7.85 -2.71 4.23 -4.22 0.33"/>
		</g>
		<g id="kvg:08f86-g5" kvg:element="从">
			<g id="kvg:08f86-g6" kvg:element="人" kvg:position="left" kvg:radical="general">
				<path id="kvg:08f86-s8" kvg:type="㇒" d="m64.58 22.47c0.23 0.96 0.18 2.89 0.15 4.82c-0.15 15.72 -2.64 44.72 -9 58.54"/>
				<path id="kvg:08f86-s9" kvg:type="㇏" d="m63.5 52.86c2.76 3.03 6.29 11.06 7.63 18.69"/>
			</g>
			<g id="kvg:08f86-g7" kvg:element="人" kvg:position="right" kvg:radical="general">
				<path id="kvg:08f86-s10" kvg:type="㇒" d="m82.12 20.36c0.23 0.96 0.18 2.89 0.15 4.82c-0.15 15.72 -2.64 44.72 -9 58.54"/>
				<path id="kvg:08f86-s11" kvg:type="㇏" d="m79.91 57.67c2.76 3.03 6.29 11.06 7.63 18.69"/>
			</g>
		</g>
	</g>
</g>
</g>
<g id="kvg:StrokeNumbers_08f86" style="font-size:8;fill:#808080">
	<text transform="matrix(1 0 0 1 8.25 25.50)">1</text>
	<text transform="matrix(1 0 0 1 20.50 12.50)">2</text>
	<text transform="matrix(1 0 0 1 3.75 77.50)">3</text>
	<text transform="matrix(1 0 0 1 30.00 41.28)">4</text>
	<text transform="matrix(1 0 0 1 45.08 19.30)">5</text>
	<text transform="matrix(1 0 0 1 37.92 50.39)">6</text>
	<text transform="matrix(1 0 0 1 47.42 41.48)">7</text>
	<text transform="matrix(1 0 0 1 66.25 34.74)">8</text>
	<text transform="matrix(1 0 0 1 67.25 57.74)">9</text>
	<text transform="matrix(1 0 0 1 83.25 32.74)">10</text>
	<text transform="matrix(1 0 0 1 79.25 58.74)">11</text>
</g>
</svg>
