<?xml version="1.0" encoding="UTF-8"?>
<!--
Copyright (C) 2016 François Mizessyn.
This work makes an extensive use of kanjiVG Copyright (C) 2009/2010/2011 Ulrich Apel.
This work is distributed under the conditions of the Creative Commons
Attribution-Share Alike 3.0 Licence. This means you are free:
* to Share - to copy, distribute and transmit the work
* to Remix - to adapt the work

Under the following conditions:
* Attribution. You must attribute the work by stating your use of HanjiVG in
  your own copyright header and linking to HanjiVG's website
  (http://gooo.free.fr/hanziVG/)
* Attribution. You must attribute the work by stating your use of KanjiVG in
  your own copyright header and linking to KanjiVG's website
  (http://kanjivg.tagaini.net)
* Share Alike. If you alter, transform, or build upon this work, you may
  distribute the resulting work only under the same or similar license to this
  one.

See http://creativecommons.org/licenses/by-sa/3.0/ for more details.
-->
<!DOCTYPE svg PUBLIC "-//W3C//DTD SVG 1.0//EN" "http://www.w3.org/TR/2001/REC-SVG-20010904/DTD/svg10.dtd" [
<!ATTLIST g
xmlns:kvg CDATA #FIXED "http://kanjivg.tagaini.net"
kvg:element CDATA #IMPLIED
kvg:variant CDATA #IMPLIED
kvg:partial CDATA #IMPLIED
kvg:original CDATA #IMPLIED
kvg:part CDATA #IMPLIED
kvg:number CDATA #IMPLIED
kvg:tradForm CDATA #IMPLIED
kvg:radicalForm CDATA #IMPLIED
kvg:position CDATA #IMPLIED
kvg:radical CDATA #IMPLIED
kvg:phon CDATA #IMPLIED >
<!ATTLIST path
xmlns:kvg CDATA #FIXED "http://kanjivg.tagaini.net"
kvg:type CDATA #IMPLIED >
]>
<svg xmlns="http://www.w3.org/2000/svg" width="109" height="109" viewBox="0 0 109 109">
<g id="kvg:StrokePaths_08f83" style="fill:none;stroke:#000000;stroke-width:3;stroke-linecap:round;stroke-linejoin:round;">
<g id="kvg:08f83" kvg:element="较">
	<g id="kvg:08f83-g1" kvg:element="车" kvg:position="left" kvg:radical="general">
		<path id="kvg:08f83-s1" kvg:type="㇐" d="m15.96 29.1c1.45 0.89 2.85 0.85 4.33 0.64c6.8 -0.95 15.24 -2.99 22.57 -3.6c1.35 -0.11 2.66 -0.09 3.97 0.69"/>
		<path id="kvg:08f83-s2" kvg:type="㇜" d="m31.2 14.92c0.34 0.5 0.77 2.39 -12.11 43.05c7.16 -1 16.04 -3.15 21.67 -3.79c1.35 -0.11 2.66 -0.09 3.55 0.43"/>
		<path id="kvg:08f83-s3" kvg:type="㇐" d="m15.1 77.86c1.53 0.94 3 0.89 4.58 0.67c7.16 -1 16.04 -3.15 23.76 -3.79c1.41 -0.12 2.81 -0.09 4.18 0.73"/>
		<path id="kvg:08f83-s4" kvg:type="㇑" d="m31.2 40.51c0.56 1.36 0.86 2.78 0.9 6.02c0.02 1.07 -0.03 48.79 -0.08 41.7c-0.01 4.27 -0.02 7.36 -0.03 8.65"/>
	</g>
	<g id="kvg:08f83-g2" kvg:element="交" kvg:position="right" kvg:phon="交">
		<g id="kvg:08f83-g3" kvg:element="亠" kvg:position="top">
			<path id="kvg:08f83-s5" kvg:type="㇑a" d="M67.4,14c0.86,0.86,1.29,2,1.29,3.69c0,4.24,0,7.76-0.06,10.81"/>
			<path id="kvg:08f83-s6" kvg:type="㇐" d="M50.26,31.16c2.06,0.25,4.17,0.37,6.24,0.1c8.08-1.06,21.91-3.18,30.01-3.89c1.47-0.13,4.36-0.74,6.36,0.15"/>
		</g>
		<g id="kvg:08f83-g4" kvg:element="父" kvg:position="bottom">
			<path id="kvg:08f83-s7" kvg:type="㇒" d="M60.25,38.58c0.22,0.74,0.13,2.22-0.39,3.43c-2.06,4.76-5.15,8.58-9.36,12.74"/>
			<path id="kvg:08f83-s8" kvg:type="㇔" d="M76.38,36.75c5.71,3.58,10.43,7.71,13.29,12.06"/>
			<path id="kvg:08f83-s9" kvg:type="㇒" d="M78.98,50.54c0.4,1.21,0.12,2.47-0.54,4.28c-5.69,15.43-17.19,31.81-33.52,39.72"/>
			<path id="kvg:08f83-s10" kvg:type="㇏" d="M55.5,56.75c3.27,0.33,20.35,20.11,31.21,30.55c2.42,2.32,4.79,3.95,7.38,5.34"/>
		</g>
	</g>
</g>
</g>
<g id="kvg:StrokeNumbers_08f83" style="font-size:8;fill:#808080">
	<text transform="matrix(1 0 0 1 8.25 25.50)">1</text>
	<text transform="matrix(1 0 0 1 20.50 12.50)">2</text>
	<text transform="matrix(1 0 0 1 4.75 77.50)">3</text>
	<text transform="matrix(1 0 0 1 34.00 41.28)">4</text>
	<text transform="matrix(1 0 0 1 57.50 13.63)">5</text>
	<text transform="matrix(1 0 0 1 49.50 28.50)">6</text>
	<text transform="matrix(1 0 0 1 50.50 42.48)">7</text>
	<text transform="matrix(1 0 0 1 65.50 39.13)">8</text>
	<text transform="matrix(1 0 0 1 79.50 59.50)">9</text>
	<text transform="matrix(1 0 0 1 54.50 59.50)">10</text>
</g>
</svg>
