<?xml version="1.0" encoding="UTF-8"?>
<!--
Copyright (C) 2016 François Mizessyn.
This work makes an extensive use of kanjiVG Copyright (C) 2009/2010/2011 Ulrich Apel.
This work is distributed under the conditions of the Creative Commons
Attribution-Share Alike 3.0 Licence. This means you are free:
* to Share - to copy, distribute and transmit the work
* to Remix - to adapt the work

Under the following conditions:
* Attribution. You must attribute the work by stating your use of HanjiVG in
  your own copyright header and linking to HanjiVG's website
  (http://gooo.free.fr/hanziVG/)
* Attribution. You must attribute the work by stating your use of KanjiVG in
  your own copyright header and linking to KanjiVG's website
  (http://kanjivg.tagaini.net)
* Share Alike. If you alter, transform, or build upon this work, you may
  distribute the resulting work only under the same or similar license to this
  one.

See http://creativecommons.org/licenses/by-sa/3.0/ for more details.
-->
<!DOCTYPE svg PUBLIC "-//W3C//DTD SVG 1.0//EN" "http://www.w3.org/TR/2001/REC-SVG-20010904/DTD/svg10.dtd" [
<!ATTLIST g
xmlns:kvg CDATA #FIXED "http://kanjivg.tagaini.net"
kvg:element CDATA #IMPLIED
kvg:variant CDATA #IMPLIED
kvg:partial CDATA #IMPLIED
kvg:original CDATA #IMPLIED
kvg:part CDATA #IMPLIED
kvg:number CDATA #IMPLIED
kvg:tradForm CDATA #IMPLIED
kvg:radicalForm CDATA #IMPLIED
kvg:position CDATA #IMPLIED
kvg:radical CDATA #IMPLIED
kvg:phon CDATA #IMPLIED >
<!ATTLIST path
xmlns:kvg CDATA #FIXED "http://kanjivg.tagaini.net"
kvg:type CDATA #IMPLIED >
]>
<svg xmlns="http://www.w3.org/2000/svg" width="109" height="109" viewBox="0 0 109 109">
<g id="kvg:StrokePaths_08f93" style="fill:none;stroke:#000000;stroke-width:3;stroke-linecap:round;stroke-linejoin:round;">
<g id="kvg:08f93" kvg:element="输">
	<g id="kvg:08f93-g1" kvg:element="车" kvg:position="left" kvg:radical="general">
		<path id="kvg:08f93-s1" kvg:type="㇐" d="m14.51 29.1c1.32 0.89 2.59 0.85 3.94 0.64c6.18 -0.95 13.85 -2.99 20.52 -3.6c1.23 -0.11 2.42 -0.09 3.61 0.69"/>
		<path id="kvg:08f93-s2" kvg:type="㇜" d="m28.36 14.92c0.31 0.5 0.7 2.39 -11.01 43.05c6.51 -1 14.58 -3.15 19.7 -3.79c1.23 -0.11 2.42 -0.09 3.23 0.43"/>
		<path id="kvg:08f93-s3" kvg:type="㇐" d="m13.73 77.86c1.39 0.94 2.73 0.89 4.16 0.67c6.51 -1 14.58 -3.15 21.6 -3.79c1.28 -0.12 2.55 -0.09 3.8 0.73"/>
		<path id="kvg:08f93-s4" kvg:type="㇑" d="m28.36 40.51c0.51 1.36 0.78 2.78 0.82 6.02c0.02 1.07 -0.03 48.79 -0.07 41.7c-0.01 4.27 -0.02 7.36 -0.03 8.65"/>
	</g>
	<g id="kvg:08f93-g2" kvg:element="俞" kvg:variant="true" kvg:position="right">
		<g id="kvg:08f93-g3" kvg:element="入" kvg:original="人" kvg:position="top">
			<path id="kvg:08f93-s5" kvg:type="㇒" d="M64.82,12c0.06,0.8,0.07,2.15-0.37,3.2c-2.7,6.42-9.7,18.92-19.7,29.4"/>
			<path id="kvg:08f93-s6" kvg:type="㇏" d="M65.59,14.9c3.27,3.91,16.15,16.49,22.61,22.14c1.34,1.17,3.67,2.58,5.29,3.72"/>
		</g>
		<g id="kvg:08f93-g4" kvg:position="bottom">
			<g id="kvg:08f93-g5" kvg:element="一">
				<path id="kvg:08f93-s7" kvg:type="㇐" d="M55.34,41.8c1.54,0.32,3.05,0.32,4.14,0.17c4.07-0.56,11.31-1.78,15.28-2.19c1.27-0.13,2.55-0.32,3.79,0.06"/>
			</g>
			<g id="kvg:08f93-g6" kvg:element="月">
				<path id="kvg:08f93-s8" kvg:type="㇑/㇒" d="M49.31,53.73c0.67,0.67,0.98,1.64,0.98,3.05c0,5.09-0.06,20.3-0.06,31.21c0,3.94-0.01,6.81-0.03,7.37"/>
				<path id="kvg:08f93-s9" kvg:type="㇆a" d="M51.52,55.11c3.19-0.72,6.66-1.6,8.84-2.17c2.14-0.56,3.9,0.94,3.83,3.68c-0.13,5.54,0.05,24.7,0.05,34c0,9.53-3.84,1.96-4.75,0.76"/>
				<path id="kvg:08f93-s10" kvg:type="㇐a" d="M51.56,65.79C55,65.25,59.25,64.5,62.75,64"/>
				<path id="kvg:08f93-s11" kvg:type="㇐a" d="M51.63,76.28c3.87-0.28,6.62-1.03,11.23-1.32"/>
			</g>
			<g id="kvg:08f93-g7" kvg:element="刂" kvg:variant="true" kvg:original="刀">
				<path id="kvg:08f93-s12" kvg:type="㇑" d="M74.53,54.21c0.88,0.88,1.36,2.16,1.36,3.68c0,6.13,0.11,13.41,0.05,18.87c-0.03,2.75-0.06,4.92-0.06,5.97"/>
				<path id="kvg:08f93-s13" kvg:type="㇚" d="M87.44,48.13c0.96,0.96,1.36,2.37,1.36,3.93c0,9.22,0.09,37.3,0.09,40.44c0,7.75-4.56,0.95-5.51,0.16"/>
			</g>
		</g>
	</g>
</g>
</g>
<g id="kvg:StrokeNumbers_08f93" style="font-size:8;fill:#808080">
	<text transform="matrix(1 0 0 1 8.25 25.50)">1</text>
	<text transform="matrix(1 0 0 1 20.50 12.50)">2</text>
	<text transform="matrix(1 0 0 1 3.75 77.50)">3</text>
	<text transform="matrix(1 0 0 1 30.00 41.28)">4</text>
	<text transform="matrix(1 0 0 1 53.50 18.13)">5</text>
	<text transform="matrix(1 0 0 1 71.50 19.50)">6</text>
	<text transform="matrix(1 0 0 1 57.50 38.50)">7</text>
	<text transform="matrix(1 0 0 1 41.50 64.50)">8</text>
	<text transform="matrix(1 0 0 1 49.50 51.50)">9</text>
	<text transform="matrix(1 0 0 1 50.25 65.05)">10</text>
	<text transform="matrix(1 0 0 1 50.25 76.48)">11</text>
	<text transform="matrix(1 0 0 1 64.50 51.13)">12</text>
	<text transform="matrix(1 0 0 1 78.50 48.50)">13</text>
</g>
</svg>
