<?xml version="1.0" encoding="UTF-8"?>
<!--
Copyright (C) 2016 François Mizessyn.
This work makes an extensive use of kanjiVG Copyright (C) 2009/2010/2011 Ulrich Apel.
This work is distributed under the conditions of the Creative Commons
Attribution-Share Alike 3.0 Licence. This means you are free:
* to Share - to copy, distribute and transmit the work
* to Remix - to adapt the work

Under the following conditions:
* Attribution. You must attribute the work by stating your use of HanjiVG in
  your own copyright header and linking to HanjiVG's website
  (http://gooo.free.fr/hanziVG/)
* Attribution. You must attribute the work by stating your use of KanjiVG in
  your own copyright header and linking to KanjiVG's website
  (http://kanjivg.tagaini.net)
* Share Alike. If you alter, transform, or build upon this work, you may
  distribute the resulting work only under the same or similar license to this
  one.

See http://creativecommons.org/licenses/by-sa/3.0/ for more details.
-->
<!DOCTYPE svg PUBLIC "-//W3C//DTD SVG 1.0//EN" "http://www.w3.org/TR/2001/REC-SVG-20010904/DTD/svg10.dtd" [
<!ATTLIST g
xmlns:kvg CDATA #FIXED "http://kanjivg.tagaini.net"
kvg:element CDATA #IMPLIED
kvg:variant CDATA #IMPLIED
kvg:partial CDATA #IMPLIED
kvg:original CDATA #IMPLIED
kvg:part CDATA #IMPLIED
kvg:number CDATA #IMPLIED
kvg:tradForm CDATA #IMPLIED
kvg:radicalForm CDATA #IMPLIED
kvg:position CDATA #IMPLIED
kvg:radical CDATA #IMPLIED
kvg:phon CDATA #IMPLIED >
<!ATTLIST path
xmlns:kvg CDATA #FIXED "http://kanjivg.tagaini.net"
kvg:type CDATA #IMPLIED >
]>
<svg xmlns="http://www.w3.org/2000/svg" width="109" height="109" viewBox="0 0 109 109">
<g id="kvg:StrokePaths_08fbe" style="fill:none;stroke:#000000;stroke-width:3;stroke-linecap:round;stroke-linejoin:round;">
<g id="kvg:08fbe" kvg:element="达" kvg:original="辶" kvg:radical="tradit">
	<g id="kvg:08fbe-g1" kvg:element="大">
		<path id="kvg:08fbe-s1" kvg:type="㇐" d="M43.57 40.536c1.04 0.432 3.52 0.744 5.32 0.40800000000000003c9.9 -1.884 25.21 -4.823999999999999 35.15 -5.292c1.89 -0.096 3.41 -0.048 5.12 0.276"/>
		<path id="kvg:08fbe-s2" kvg:type="㇒" d="M64.65 15.12c0.62 1.776 0.72 3.492 0.69 5.303999999999999c-0.34 27.456 -8.92 47.711999999999996 -22.74 56.64"/>
		<path id="kvg:08fbe-s3" kvg:type="㇏" d="M64.65 38.64c6.3 8.819999999999999 19.95 30.455999999999996 26.24 36.36c2.14 2.004 3.93 3.1559999999999997 4.91 3.336"/>
	</g>
	<g id="kvg:08fbe-g2" kvg:element="⻌" kvg:original="辶" kvg:radical="tradit">
		<path id="kvg:08fbe-s4" kvg:type="㇔" d="M21.46,16c3.63,1.74,9.38,7.17,10.29,9.88"/>
		<path id="kvg:08fbe-s5" kvg:type="㇋" d="M11.76227,48.784853C13.958616,49.92666,15.452132,49.510237,16.399001,49.066947C20.430518,47.186325,25.916505,44.714649,27.380735,44.150462C28.844967,43.572842,30.143252,45.762424,29.333044,47.643047C21.640949,65.495528,20.918595,58.107369,28.844967,70.452312C29.801598,71.943378,29.577083,73.273246,28.112851,74.710579C26.64862,76.147912,21.767849,79.613631,17.258017,82.797256"/>
		<path id="kvg:08fbe-s6" kvg:type="㇏a" d="M16,83.75C19,83.25,25,82,29.5,83C34,84,59.57,90.71,64,92C76,95.5,85.25,96.5,94.25,94.75"/>
	</g>
</g>
</g>
<g id="kvg:StrokeNumbers_08fbe" style="font-size:8;fill:#808080">
	<text transform="matrix(1 0 0 1 39.50 38)">1</text>
	<text transform="matrix(1 0 0 1 53.50 15.50)">2</text>
	<text transform="matrix(1 0 0 1 74.50 51.50)">3</text>
	<text transform="matrix(1 0 0 1 13.25 16.13)">4</text>
	<text transform="matrix(1 0 0 1 2.75 47.05)">5</text>
	<text transform="matrix(1 0 0 1 7.25 82.98)">6</text>
</g>
</svg>
