<?xml version="1.0" encoding="UTF-8"?>
<!--
Copyright (C) 2016 François Mizessyn.
This work makes an extensive use of kanjiVG Copyright (C) 2009/2010/2011 Ulrich Apel.
This work is distributed under the conditions of the Creative Commons
Attribution-Share Alike 3.0 Licence. This means you are free:
* to Share - to copy, distribute and transmit the work
* to Remix - to adapt the work

Under the following conditions:
* Attribution. You must attribute the work by stating your use of HanjiVG in
  your own copyright header and linking to HanjiVG's website
  (http://gooo.free.fr/hanziVG/)
* Attribution. You must attribute the work by stating your use of KanjiVG in
  your own copyright header and linking to KanjiVG's website
  (http://kanjivg.tagaini.net)
* Share Alike. If you alter, transform, or build upon this work, you may
  distribute the resulting work only under the same or similar license to this
  one.

See http://creativecommons.org/licenses/by-sa/3.0/ for more details.
-->
<!DOCTYPE svg PUBLIC "-//W3C//DTD SVG 1.0//EN" "http://www.w3.org/TR/2001/REC-SVG-20010904/DTD/svg10.dtd" [
<!ATTLIST g
xmlns:kvg CDATA #FIXED "http://kanjivg.tagaini.net"
kvg:element CDATA #IMPLIED
kvg:variant CDATA #IMPLIED
kvg:partial CDATA #IMPLIED
kvg:original CDATA #IMPLIED
kvg:part CDATA #IMPLIED
kvg:number CDATA #IMPLIED
kvg:tradForm CDATA #IMPLIED
kvg:radicalForm CDATA #IMPLIED
kvg:position CDATA #IMPLIED
kvg:radical CDATA #IMPLIED
kvg:phon CDATA #IMPLIED >
<!ATTLIST path
xmlns:kvg CDATA #FIXED "http://kanjivg.tagaini.net"
kvg:type CDATA #IMPLIED >
]>
<svg xmlns="http://www.w3.org/2000/svg" width="109" height="109" viewBox="0 0 109 109">
<g id="kvg:StrokePaths_08fb9" style="fill:none;stroke:#000000;stroke-width:3;stroke-linecap:round;stroke-linejoin:round;">
<g id="kvg:08fb9" kvg:element="边">
	<g id="kvg:08fb9-g1" kvg:element="力" kvg:radical="general">
		<path id="kvg:08fb9-s1" kvg:type="㇆" d="M46.13 33.56c2.03 0.96 4.11 0.94 6.2 0.58c10.83 -1.76 29.52 -5.13 39.92 -6.78c3.36 -0.54 4.69 1.13 4.13 4.74c-2.11 13.51 -6.75 31.97 -15 43.93c-4.6 6.68 -7.12 2.48 -9.37 -0.62"/>
		<path id="kvg:08fb9-s2" kvg:type="㇒" d="M72.66 13.29c0.47 2.12 0.42 3.82 0 5.93c-3.08 15.65 -12.4 40.65 -32.62 56.75"/>
	</g>
	<g id="kvg:08fb9-g2" kvg:element="⻌" kvg:original="辶" kvg:radical="tradit">
		<path id="kvg:08fb9-s3" kvg:type="㇔" d="M21.46,16c3.63,1.74,9.38,7.17,10.29,9.88"/>
		<path id="kvg:08fb9-s4" kvg:type="㇋" d="M11.76227,48.784853C13.958616,49.92666,15.452132,49.510237,16.399001,49.066947C20.430518,47.186325,25.916505,44.714649,27.380735,44.150462C28.844967,43.572842,30.143252,45.762424,29.333044,47.643047C21.640949,65.495528,20.918595,58.107369,28.844967,70.452312C29.801598,71.943378,29.577083,73.273246,28.112851,74.710579C26.64862,76.147912,21.767849,79.613631,17.258017,82.797256"/>
		<path id="kvg:08fb9-s5" kvg:type="㇏a" d="M16,83.75C19,83.25,25,82,29.5,83C34,84,59.57,90.71,64,92C76,95.5,85.25,96.5,94.25,94.75"/>
	</g>
</g>
</g>
<g id="kvg:StrokeNumbers_02ecc" style="font-size:8;fill:#808080">
	<text transform="matrix(1 0 0 1 38.75 30.63)">1</text>
	<text transform="matrix(1 0 0 1 61.75 17.13)">2</text>
	<text transform="matrix(1 0 0 1 13.25 16.13)">3</text>
	<text transform="matrix(1 0 0 1 2.75 47.05)">4</text>
	<text transform="matrix(1 0 0 1 7.25 82.98)">5</text>
</g>
</svg>
