<?xml version="1.0" encoding="UTF-8"?>
<!--
Copyright (C) 2016 François Mizessyn.
This work makes an extensive use of kanjiVG Copyright (C) 2009/2010/2011 Ulrich Apel.
This work is distributed under the conditions of the Creative Commons
Attribution-Share Alike 3.0 Licence. This means you are free:
* to Share - to copy, distribute and transmit the work
* to Remix - to adapt the work

Under the following conditions:
* Attribution. You must attribute the work by stating your use of HanjiVG in
  your own copyright header and linking to HanjiVG's website
  (http://gooo.free.fr/hanziVG/)
* Attribution. You must attribute the work by stating your use of KanjiVG in
  your own copyright header and linking to KanjiVG's website
  (http://kanjivg.tagaini.net)
* Share Alike. If you alter, transform, or build upon this work, you may
  distribute the resulting work only under the same or similar license to this
  one.

See http://creativecommons.org/licenses/by-sa/3.0/ for more details.
-->
<!DOCTYPE svg PUBLIC "-//W3C//DTD SVG 1.0//EN" "http://www.w3.org/TR/2001/REC-SVG-20010904/DTD/svg10.dtd" [
<!ATTLIST g
xmlns:kvg CDATA #FIXED "http://kanjivg.tagaini.net"
kvg:element CDATA #IMPLIED
kvg:variant CDATA #IMPLIED
kvg:partial CDATA #IMPLIED
kvg:original CDATA #IMPLIED
kvg:part CDATA #IMPLIED
kvg:number CDATA #IMPLIED
kvg:tradForm CDATA #IMPLIED
kvg:radicalForm CDATA #IMPLIED
kvg:position CDATA #IMPLIED
kvg:radical CDATA #IMPLIED
kvg:phon CDATA #IMPLIED >
<!ATTLIST path
xmlns:kvg CDATA #FIXED "http://kanjivg.tagaini.net"
kvg:type CDATA #IMPLIED >
]>
<svg xmlns="http://www.w3.org/2000/svg" width="109" height="109" viewBox="0 0 109 109">
<g id="kvg:StrokePaths_08fc7" style="fill:none;stroke:#000000;stroke-width:3;stroke-linecap:round;stroke-linejoin:round;">
<g id="kvg:08fc7" kvg:element="过">
	<g id="kvg:08fc7-g1" kvg:element="寸" kvg:position="right">
		<path id="kvg:08fc7-s1" kvg:type="㇐" d="m42.77 35.34c3.05 0.83 6.03 0.43 9.08 -0.06c9.34 -1.47 21.11 -3.29 34.36 -4.53c2.88 -0.28 6.2 -0.29 8.81 0.34"/>
		<path id="kvg:08fc7-s2" kvg:type="㇚" d="m77.28 15.44c1.33 1.33 1.82 2.94 1.82 5.28c0 14.66 0.02 49.97 0.02 54.97c0 9.35 -6.56 1.79 -8.77 0.25"/>
		<path id="kvg:08fc7-s3" kvg:type="㇔" d="m50.37 49.02c3.27 2.13 8.45 8.79 9.26 12.11"/>
	</g>
	<g id="kvg:08fc7-g2" kvg:element="辶">
		<path id="kvg:08fc7-s4" kvg:type="㇔" d="M21.46,16c3.63,1.74,9.38,7.17,10.29,9.88"/>
		<path id="kvg:08fc7-s5" kvg:type="㇋" d="M11.76227,48.784853C13.958616,49.92666,15.452132,49.510237,16.399001,49.066947C20.430518,47.186325,25.916505,44.714649,27.380735,44.150462C28.844967,43.572842,30.143252,45.762424,29.333044,47.643047C21.640949,65.495528,20.918595,58.107369,28.844967,70.452312C29.801598,71.943378,29.577083,73.273246,28.112851,74.710579C26.64862,76.147912,21.767849,79.613631,17.258017,82.797256"/>
		<path id="kvg:08fc7-s6" kvg:type="㇏a" d="M16,83.75C19,83.25,25,82,29.5,83C34,84,59.57,90.71,64,92C76,95.5,85.25,96.5,94.25,94.75"/>
	</g>
</g>
</g>
<g id="kvg:StrokeNumbers_08fc7" style="font-size:8;fill:#808080">
	<text transform="matrix(1 0 0 1 39.50 32.13)">1</text>
	<text transform="matrix(1 0 0 1 65.50 15.50)">2</text>
	<text transform="matrix(1 0 0 1 38.50 56.50)">3</text>
	<text transform="matrix(1 0 0 1 12.25 16.13)">4</text>
	<text transform="matrix(1 0 0 1 2.75 49.05)">5</text>
	<text transform="matrix(1 0 0 1 7.25 82.98)">6</text>

</g>
</svg>
