<?xml version="1.0" encoding="UTF-8"?>
<!--
Copyright (C) 2016 François Mizessyn.
This work makes an extensive use of kanjiVG Copyright (C) 2009/2010/2011 Ulrich Apel.
This work is distributed under the conditions of the Creative Commons
Attribution-Share Alike 3.0 Licence. This means you are free:
* to Share - to copy, distribute and transmit the work
* to Remix - to adapt the work

Under the following conditions:
* Attribution. You must attribute the work by stating your use of HanjiVG in
  your own copyright header and linking to HanjiVG's website
  (http://gooo.free.fr/hanziVG/)
* Attribution. You must attribute the work by stating your use of KanjiVG in
  your own copyright header and linking to KanjiVG's website
  (http://kanjivg.tagaini.net)
* Share Alike. If you alter, transform, or build upon this work, you may
  distribute the resulting work only under the same or similar license to this
  one.

See http://creativecommons.org/licenses/by-sa/3.0/ for more details.
-->
<!DOCTYPE svg PUBLIC "-//W3C//DTD SVG 1.0//EN" "http://www.w3.org/TR/2001/REC-SVG-20010904/DTD/svg10.dtd" [
<!ATTLIST g
xmlns:kvg CDATA #FIXED "http://kanjivg.tagaini.net"
kvg:element CDATA #IMPLIED
kvg:variant CDATA #IMPLIED
kvg:partial CDATA #IMPLIED
kvg:original CDATA #IMPLIED
kvg:part CDATA #IMPLIED
kvg:number CDATA #IMPLIED
kvg:tradForm CDATA #IMPLIED
kvg:radicalForm CDATA #IMPLIED
kvg:position CDATA #IMPLIED
kvg:radical CDATA #IMPLIED
kvg:phon CDATA #IMPLIED >
<!ATTLIST path
xmlns:kvg CDATA #FIXED "http://kanjivg.tagaini.net"
kvg:type CDATA #IMPLIED >
]>
<svg xmlns="http://www.w3.org/2000/svg" width="109" height="109" viewBox="0 0 109 109">
<g id="kvg:StrokePaths_08fdb" style="fill:none;stroke:#000000;stroke-width:3;stroke-linecap:round;stroke-linejoin:round;">
<g id="kvg:08fdb" kvg:element="进">
	<g id="kvg:08fdb-g1" kvg:element="井">
			<path id="kvg:08fdb-s1" kvg:type="㇐" d="m46.45 34.52c1.49 0.62 3.47 0.36 5 0.13c7.41 -1.1 25.94 -3.17 34.47 -3.86c1.84 -0.15 3.37 -0.14 5.17 0.3"/>
			<path id="kvg:08fdb-s2" kvg:type="㇐" d="m39.98 55.36c2.41 0.98 5.28 0.71 7.78 0.39c9.02 -1.15 29.76 -3.46 42.78 -4.14c2.36 -0.12 4.36 0.05 6.66 0.62"/>
			<path id="kvg:08fdb-s3" kvg:type="㇒" d="m58 18.2c0.52 0.8 0.69 1.98 0.7 2.8c0.78 44.4 -1.67 49.6 -13.47 62.6"/>
			<path id="kvg:08fdb-s4" kvg:type="㇑" d="m76.63 14c0.62 0.7 0.85 1.8 0.85 2.8c0 0.58 -0.04 43.59 -0.05 61.9c0 3.14 0 5.55 0 6.9"/>
	</g>
	<g id="kvg:08fdb-g2" kvg:element="⻌" kvg:original="辶" kvg:radical="tradit">
		<path id="kvg:08fdb-s5" kvg:type="㇔" d="M21.46,16c3.63,1.74,9.38,7.17,10.29,9.88"/>
		<path id="kvg:08fdb-s6" kvg:type="㇋" d="M11.76227,48.784853C13.958616,49.92666,15.452132,49.510237,16.399001,49.066947C20.430518,47.186325,25.916505,44.714649,27.380735,44.150462C28.844967,43.572842,30.143252,45.762424,29.333044,47.643047C21.640949,65.495528,20.918595,58.107369,28.844967,70.452312C29.801598,71.943378,29.577083,73.273246,28.112851,74.710579C26.64862,76.147912,21.767849,79.613631,17.258017,82.797256"/>
		<path id="kvg:08fdb-s7" kvg:type="㇏a" d="M16,83.75C19,83.25,25,82,29.5,83C34,84,59.57,90.71,64,92C76,95.5,85.25,96.5,94.25,94.75"/>
	</g>
</g>
</g>
<g id="kvg:StrokeNumbers_08fdb" style="font-size:8;fill:#808080">
	<text transform="matrix(1 0 0 1 36.50 38.50)">1</text>
	<text transform="matrix(1 0 0 1 29.75 61.50)">2</text>
	<text transform="matrix(1 0 0 1 46.50 15.50)">3</text>
	<text transform="matrix(1 0 0 1 67.50 11.50)">4</text>
	<text transform="matrix(1 0 0 1 13.25 15.13)">5</text>
	<text transform="matrix(1 0 0 1 2.75 48.05)">6</text>
	<text transform="matrix(1 0 0 1 8.25 82.98)">7</text>
</g>
</svg>
