<?xml version="1.0" encoding="UTF-8"?>
<!--
Copyright (C) 2016 François Mizessyn.
This work makes an extensive use of kanjiVG Copyright (C) 2009/2010/2011 Ulrich Apel.
This work is distributed under the conditions of the Creative Commons
Attribution-Share Alike 3.0 Licence. This means you are free:
* to Share - to copy, distribute and transmit the work
* to Remix - to adapt the work

Under the following conditions:
* Attribution. You must attribute the work by stating your use of HanjiVG in
  your own copyright header and linking to HanjiVG's website
  (http://gooo.free.fr/hanziVG/)
* Attribution. You must attribute the work by stating your use of KanjiVG in
  your own copyright header and linking to KanjiVG's website
  (http://kanjivg.tagaini.net)
* Share Alike. If you alter, transform, or build upon this work, you may
  distribute the resulting work only under the same or similar license to this
  one.

See http://creativecommons.org/licenses/by-sa/3.0/ for more details.
-->
<!DOCTYPE svg PUBLIC "-//W3C//DTD SVG 1.0//EN" "http://www.w3.org/TR/2001/REC-SVG-20010904/DTD/svg10.dtd" [
<!ATTLIST g
xmlns:kvg CDATA #FIXED "http://kanjivg.tagaini.net"
kvg:element CDATA #IMPLIED
kvg:variant CDATA #IMPLIED
kvg:partial CDATA #IMPLIED
kvg:original CDATA #IMPLIED
kvg:part CDATA #IMPLIED
kvg:number CDATA #IMPLIED
kvg:tradForm CDATA #IMPLIED
kvg:radicalForm CDATA #IMPLIED
kvg:position CDATA #IMPLIED
kvg:radical CDATA #IMPLIED
kvg:phon CDATA #IMPLIED >
<!ATTLIST path
xmlns:kvg CDATA #FIXED "http://kanjivg.tagaini.net"
kvg:type CDATA #IMPLIED >
]>
<svg xmlns="http://www.w3.org/2000/svg" width="109" height="109" viewBox="0 0 109 109">
<g id="kvg:StrokePaths_08fd0" style="fill:none;stroke:#000000;stroke-width:3;stroke-linecap:round;stroke-linejoin:round;">
<g id="kvg:08fd0" kvg:element="运">
	<g id="kvg:08fd0-g2" kvg:element="云">
		<g id="kvg:08fd0-g1" kvg:element="二" kvg:position="top" kvg:radical="general">
			<path id="kvg:08fd0-s1" kvg:type="㇐" d="m48.52 19.88c2.08 0.41 4.28 0.23 6.38 0.11c6.66 -0.39 15.89 -1.42 23.02 -1.68c1.79 -0.06 3.61 -0.09 5.4 0.16"/>
			<path id="kvg:08fd0-s2" kvg:type="㇐" d="m38.33 42.17c3.46 0.68 7.14 0.39 10.65 0.18c11.09 -0.65 26.48 -2.37 38.38 -2.81c2.99 -0.11 6.02 -0.14 8.98 0.27"/>
		</g>
		<g id="kvg:08fd0-g2" kvg:element="厶" kvg:position="bottom">
			<path id="kvg:08fd0-s3" kvg:type="㇜" d="m63.45 44.56c0.35 1.97 -0.27 3.36 -1.23 5.13c-6.11 11.3 -9.97 16.3 -16.11 25.71c-2.42 3.71 -1.88 4.35 1.4 3.43c10.74 -3 23.65 -6.33 35.22 -9.53"/>
			<path id="kvg:08fd0-s4" kvg:type="㇔" d="m76.36 59.28c4.19 3.78 10.26 15.46 11.31 21.35"/>
		</g>
	</g>
	<g id="kvg:08fd0-g1" kvg:element="⻌" kvg:radical="general">
		<path id="kvg:02ecc-s5" kvg:type="㇔" d="m21.46 16c3.63 1.74 9.38 7.17 10.29 9.88"/>
		<path id="kvg:02ecc-s6" kvg:type="㇋" d="m11.76 48.78c2.2 1.14 3.69 0.73 4.64 0.28c4.03 -1.88 9.52 -4.35 10.98 -4.92c1.46 -0.58 2.76 1.61 1.95 3.49c-7.69 17.85 -8.41 10.46 -0.49 22.81c0.96 1.49 0.73 2.82 -0.73 4.26c-1.46 1.44 -6.35 4.9 -10.85 8.09"/>
		<path id="kvg:02ecc-s7" kvg:type="㇏a" d="m16 83.75c3 -0.5 9 -1.75 13.5 -0.75c4.5 1 30.07 7.71 34.5 9c12 3.5 21.25 4.5 30.25 2.75"/>
	</g>
</g>
</g>
<g id="kvg:StrokeNumbers_08fd0" style="font-size:8;fill:#808080">
	<text transform="matrix(1 0 0 1 38.25 23.63)">1</text>
	<text transform="matrix(1 0 0 1 34.25 38.13)">2</text>
	<text transform="matrix(1 0 0 1 46.75 57.05)">3</text>
	<text transform="matrix(1 0 0 1 79.25 57.98)">4</text>
	<text transform="matrix(1 0 0 1 12.50 18.50)">5</text>
	<text transform="matrix(1 0 0 1 8.25 44.50)">6</text>
	<text transform="matrix(1 0 0 1 16.50 62.50)">7</text>
</g>
</svg>
