<?xml version="1.0" encoding="UTF-8"?>
<!--
Copyright (C) 2009/2010/2011 Ulrich Apel.
This work is distributed under the conditions of the Creative Commons
Attribution-Share Alike 3.0 Licence. This means you are free:
* to Share - to copy, distribute and transmit the work
* to Remix - to adapt the work

Under the following conditions:
* Attribution. You must attribute the work by stating your use of KanjiVG in
  your own copyright header and linking to KanjiVG's website
  (http://kanjivg.tagaini.net)
* Share Alike. If you alter, transform, or build upon this work, you may
  distribute the resulting work only under the same or similar license to this
  one.

See http://creativecommons.org/licenses/by-sa/3.0/ for more details.
-->
<!DOCTYPE svg PUBLIC "-//W3C//DTD SVG 1.0//EN" "http://www.w3.org/TR/2001/REC-SVG-20010904/DTD/svg10.dtd" [
<!ATTLIST g
xmlns:kvg CDATA #FIXED "http://kanjivg.tagaini.net"
kvg:element CDATA #IMPLIED
kvg:variant CDATA #IMPLIED
kvg:partial CDATA #IMPLIED
kvg:original CDATA #IMPLIED
kvg:part CDATA #IMPLIED
kvg:number CDATA #IMPLIED
kvg:tradForm CDATA #IMPLIED
kvg:radicalForm CDATA #IMPLIED
kvg:position CDATA #IMPLIED
kvg:radical CDATA #IMPLIED
kvg:phon CDATA #IMPLIED >
<!ATTLIST path
xmlns:kvg CDATA #FIXED "http://kanjivg.tagaini.net"
kvg:type CDATA #IMPLIED >
]>
<svg xmlns="http://www.w3.org/2000/svg" width="109" height="109" viewBox="0 0 109 109">
<g id="kvg:StrokePaths_08fdc" style="fill:none;stroke:#000000;stroke-width:3;stroke-linecap:round;stroke-linejoin:round;">
<g id="kvg:08fdc" kvg:element="远">
	<g id="kvg:08fdc" kvg:element="元">
		<g id="kvg:08fdc-g1" kvg:element="二" kvg:position="top" kvg:radical="nelson">
		</g>
		<g id="kvg:08fdc-g2" kvg:element="儿" kvg:original="八" kvg:position="bottom" kvg:radical="tradit">
			<g id="kvg:08fdc-g3" kvg:element="丿">
				<path id="kvg:08fdc-s1" kvg:type="㇐" d="m50.01 22.09c1.25 0.26 3.53 0.38 4.77 0.26c7.59 -0.75 15.06 -2.06 22.46 -2.42c2.07 -0.1 3.33 0.13 4.36 0.26"/>
				<path id="kvg:08fdc-s2" kvg:type="㇐" d="m41.29 40.25c1.51 0.38 4.12 0.5 5.63 0.38c12.66 -1.02 25.7 -3.12 39.47 -3.6c2.52 -0.09 4.04 0.18 5.3 0.37"/>
				<path id="kvg:08fdc-s3" kvg:type="㇒" d="m58.9 42.35c0.41 0.94 0.52 2.38 0.25 3.55c-2.03 9.09 -6.15 22.39 -17.78 33.09"/>
				<path id="kvg:08fdc-s4" kvg:type="㇟" d="m69.69 40.3c1.07 1.22 1.4 2.49 1.4 4.53c0 7.67 0.01 15.59 0.01 22.38c0 11.5 0.72 12.5 12.8 12.5c10.42 0 11.3 -0.9 11.3 -10.15"/>
			</g>
		</g>
	</g>
	<g id="kvg:08fdc-g3" kvg:element="⻌" kvg:original="辶" kvg:radical="tradit">
		<path id="kvg:08fdc-s5" kvg:type="㇔" d="M21.46,16c3.63,1.74,9.38,7.17,10.29,9.88"/>
		<path id="kvg:08fdc-s6" kvg:type="㇋" d="M11.76227,48.784853C13.958616,49.92666,15.452132,49.510237,16.399001,49.066947C20.430518,47.186325,25.916505,44.714649,27.380735,44.150462C28.844967,43.572842,30.143252,45.762424,29.333044,47.643047C21.640949,65.495528,20.918595,58.107369,28.844967,70.452312C29.801598,71.943378,29.577083,73.273246,28.112851,74.710579C26.64862,76.147912,21.767849,79.613631,17.258017,82.797256"/>
		<path id="kvg:08fdc-s7" kvg:type="㇏a" d="M16,83.75C19,83.25,25,82,29.5,83C34,84,59.57,90.71,64,92C76,95.5,85.25,96.5,94.25,94.75"/>
	</g>
</g>
</g>
<g id="kvg:StrokeNumbers_08fdc" style="font-size:8;fill:#808080">
	<text transform="matrix(1 0 0 1 43.25 21.13)">1</text>
	<text transform="matrix(1 0 0 1 32.25 45.13)">2</text>
	<text transform="matrix(1 0 0 1 47.25 54.13)">3</text>
	<text transform="matrix(1 0 0 1 74.25 53.13)">4</text>
	<text transform="matrix(1 0 0 1 12.25 16.13)">5</text>
	<text transform="matrix(1 0 0 1 2.75 48.05)">6</text>
	<text transform="matrix(1 0 0 1 7.25 82.98)">7</text>
</g>
</svg>
