<?xml version="1.0" encoding="UTF-8"?>
<!--
Copyright (C) 2016 François Mizessyn.
This work makes an extensive use of kanjiVG Copyright (C) 2009/2010/2011 Ulrich Apel.
This work is distributed under the conditions of the Creative Commons
Attribution-Share Alike 3.0 Licence. This means you are free:
* to Share - to copy, distribute and transmit the work
* to Remix - to adapt the work

Under the following conditions:
* Attribution. You must attribute the work by stating your use of HanjiVG in
  your own copyright header and linking to HanjiVG's website
  (http://gooo.free.fr/hanziVG/)
* Attribution. You must attribute the work by stating your use of KanjiVG in
  your own copyright header and linking to KanjiVG's website
  (http://kanjivg.tagaini.net)
* Share Alike. If you alter, transform, or build upon this work, you may
  distribute the resulting work only under the same or similar license to this
  one.

See http://creativecommons.org/licenses/by-sa/3.0/ for more details.
-->
<!DOCTYPE svg PUBLIC "-//W3C//DTD SVG 1.0//EN" "http://www.w3.org/TR/2001/REC-SVG-20010904/DTD/svg10.dtd" [
<!ATTLIST g
xmlns:kvg CDATA #FIXED "http://kanjivg.tagaini.net"
kvg:element CDATA #IMPLIED
kvg:variant CDATA #IMPLIED
kvg:partial CDATA #IMPLIED
kvg:original CDATA #IMPLIED
kvg:part CDATA #IMPLIED
kvg:number CDATA #IMPLIED
kvg:tradForm CDATA #IMPLIED
kvg:radicalForm CDATA #IMPLIED
kvg:position CDATA #IMPLIED
kvg:radical CDATA #IMPLIED
kvg:phon CDATA #IMPLIED >
<!ATTLIST path
xmlns:kvg CDATA #FIXED "http://kanjivg.tagaini.net"
kvg:type CDATA #IMPLIED >
]>
<svg xmlns="http://www.w3.org/2000/svg" width="109" height="109" viewBox="0 0 109 109">
<g id="kvg:StrokePaths_08fde" style="fill:none;stroke:#000000;stroke-width:3;stroke-linecap:round;stroke-linejoin:round;">
<g id="kvg:08fde" kvg:element="连">
	<g id="kvg:08fde-g1" kvg:element="车">
		<path id="kvg:08fde-s1" kvg:type="㇐" d="m43.14 26.63c2.26 0.85 4.43 0.81 6.75 0.6c10.57 -0.88 23.7 -2.81 35.1 -3.39c2.09 -0.09 4.15 -0.08 6.18 0.66"/>
		<path id="kvg:08fde-s2" kvg:type="㇜" d="m66.83 13.27c0.53 0.47 1.2 2.26 -18.84 40.59c11.13 -0.94 24.95 -2.96 33.7 -3.56c2.09 -0.09 4.15 -0.08 5.53 0.42"/>
		<path id="kvg:08fde-s3" kvg:type="㇐" d="m39.2 72.59c2.38 0.88 4.67 0.85 7.11 0.64c11.13 -0.94 24.95 -2.96 42.15 -3.56c2.2 -0.12 4.36 -0.08 6.5 0.7"/>
		<path id="kvg:08fde-s4" kvg:type="㇑" d="m66.83 37.39c0.88 1.29 1.34 2.63 1.39 5.67c0.03 1.01 -0.05 45.99 -0.12 34.2c-0.01 4.02 -0.03 6.94 -0.05 8.16"/>
	</g>
	<g id="kvg:08fde-g2" kvg:element="⻌" kvg:original="辶" kvg:position="nyo" kvg:radical="tradit">
		<path id="kvg:08fde-s5" kvg:type="㇔" d="M20.38,19c3.84,1.83,9.92,7.53,10.88,10.38"/>
		<path id="kvg:08fde-s6" kvg:type="㇋" d="M13,50.75c2.25,0.62,4.16,0.22,6.3-0.48c2.8-0.92,8.29-2.82,9.45-3.27c2.25-0.88,3.4,0.45,2.25,2.75c-7.38,14.75-7.62,8.75,0.25,19c1.02,1.33,0.68,2.67-0.75,4C28.62,74.5,23.12,79,20.25,81.5"/>
		<path id="kvg:08fde-s7" kvg:type="㇏a" d="M15.5,83.5c3-0.5,9-1.75,13.5-0.75s30.32,7.71,34.75,9c12,3.5,19.12,4.5,28,4"/>
	</g>
</g>
</g>
<g id="kvg:StrokeNumbers_08fde" style="font-size:8;fill:#808080">
	<text transform="matrix(1 0 0 1 34.25 32.63)">1</text>
	<text transform="matrix(1 0 0 1 68.75 20.13)">2</text>
	<text transform="matrix(1 0 0 1 38.25 70.13)">3</text>
	<text transform="matrix(1 0 0 1 70.75 43.63)">4</text>
	<text transform="matrix(1 0 0 1 12.50 18.13)">5</text>
	<text transform="matrix(1 0 0 1 5.25 51.50)">6</text>
	<text transform="matrix(1 0 0 1 5.50 85.50)">7</text>
</g>
</svg>
