<?xml version="1.0" encoding="UTF-8"?>
<!--
Copyright (C) 2016 François Mizessyn.
This work makes an extensive use of kanjiVG Copyright (C) 2009/2010/2011 Ulrich Apel.
This work is distributed under the conditions of the Creative Commons
Attribution-Share Alike 3.0 Licence. This means you are free:
* to Share - to copy, distribute and transmit the work
* to Remix - to adapt the work

Under the following conditions:
* Attribution. You must attribute the work by stating your use of HanjiVG in
  your own copyright header and linking to HanjiVG's website
  (http://gooo.free.fr/hanziVG/)
* Attribution. You must attribute the work by stating your use of KanjiVG in
  your own copyright header and linking to KanjiVG's website
  (http://kanjivg.tagaini.net)
* Share Alike. If you alter, transform, or build upon this work, you may
  distribute the resulting work only under the same or similar license to this
  one.

See http://creativecommons.org/licenses/by-sa/3.0/ for more details.
-->
<!DOCTYPE svg PUBLIC "-//W3C//DTD SVG 1.0//EN" "http://www.w3.org/TR/2001/REC-SVG-20010904/DTD/svg10.dtd" [
<!ATTLIST g
xmlns:kvg CDATA #FIXED "http://kanjivg.tagaini.net"
kvg:element CDATA #IMPLIED
kvg:variant CDATA #IMPLIED
kvg:partial CDATA #IMPLIED
kvg:original CDATA #IMPLIED
kvg:part CDATA #IMPLIED
kvg:number CDATA #IMPLIED
kvg:tradForm CDATA #IMPLIED
kvg:radicalForm CDATA #IMPLIED
kvg:position CDATA #IMPLIED
kvg:radical CDATA #IMPLIED
kvg:phon CDATA #IMPLIED >
<!ATTLIST path
xmlns:kvg CDATA #FIXED "http://kanjivg.tagaini.net"
kvg:type CDATA #IMPLIED >
]>
<svg xmlns="http://www.w3.org/2000/svg" width="109" height="109" viewBox="0 0 109 109">
<g id="kvg:StrokePaths_08fd8" style="fill:none;stroke:#000000;stroke-width:3;stroke-linecap:round;stroke-linejoin:round;">
<g id="kvg:08fd8" kvg:element="还" kvg:original="辶" kvg:radical="tradit">
	<g id="kvg:08fd8-g1" kvg:element="不">
		<g id="kvg:08fd8-g2" kvg:element="一" kvg:radical="general">
			<path id="kvg:08fd8-s1" kvg:type="㇐" d="M38.88 20.15c1.85 0.46 5.24 0.62 7.08 0.46c14.58 -1.27 29.77 -3.5 42.43 -4.02c3.08 -0.13 4.93 0.22 6.47 0.45"/>
		</g>
		<g id="kvg:08fd8-g3" kvg:element="丿">
			<path id="kvg:08fd8-s2" kvg:type="㇒" d="M70.19 21.15c0.1 0.92 -0.05 2.21 -0.57 3.48c-3.25 7.88 -17.02 25.64 -34.63 35.28"/>
		</g>
		<g id="kvg:08fd8-g4" kvg:element="丨">
			<path id="kvg:08fd8-s3" kvg:type="㇑" d="M64.38 30.18c0.56 0.64 1.1 1.27 1.1 2.98c0 0.73 0.02 30.92 0.02 43.99c0 2.52 0 4.4 0 5.31"/>
		</g>
		<g id="kvg:08fd8-g5" kvg:element="㇔">
			<path id="kvg:08fd8-s4" kvg:type="㇔" d="M79.39 41.72c6.3 3.09 15.65 12.15 17.84 17.54"/>
		</g>
	</g>
	<g id="kvg:08fd8-g6" kvg:element="⻌" kvg:original="辶" kvg:radical="tradit">
		<path id="kvg:08fd8-s5" kvg:type="㇔" d="M21.46,16c3.63,1.74,9.38,7.17,10.29,9.88"/>
		<path id="kvg:08fd8-s6" kvg:type="㇋" d="M11.76227,48.784853C13.958616,49.92666,15.452132,49.510237,16.399001,49.066947C20.430518,47.186325,25.916505,44.714649,27.380735,44.150462C28.844967,43.572842,30.143252,45.762424,29.333044,47.643047C21.640949,65.495528,20.918595,58.107369,28.844967,70.452312C29.801598,71.943378,29.577083,73.273246,28.112851,74.710579C26.64862,76.147912,21.767849,79.613631,17.258017,82.797256"/>
		<path id="kvg:08fd8-s7" kvg:type="㇏a" d="M16,83.75C19,83.25,25,82,29.5,83C34,84,59.57,90.71,64,92C76,95.5,85.25,96.5,94.25,94.75"/>
	</g>
</g>
<g id="kvg:StrokeNumbers_08fd8" style="font-size:8;fill:#808080">
	<text transform="matrix(1 0 0 1 29.50 20.50)">1</text>
	<text transform="matrix(1 0 0 1 54.50 33.50)">2</text>
	<text transform="matrix(1 0 0 1 67.50 43.50)">3</text>
	<text transform="matrix(1 0 0 1 80.25 40.13)">4</text>
	<text transform="matrix(1 0 0 1 14.25 16.13)">5</text>
	<text transform="matrix(1 0 0 1 3.75 49.05)">6</text>
	<text transform="matrix(1 0 0 1 8.25 82.98)">7</text>
</g>
</svg>
