<?xml version="1.0" encoding="UTF-8"?>
<!--
Copyright (C) 2016 François Mizessyn.
This work makes an extensive use of kanjiVG Copyright (C) 2009/2010/2011 Ulrich Apel.
This work is distributed under the conditions of the Creative Commons
Attribution-Share Alike 3.0 Licence. This means you are free:
* to Share - to copy, distribute and transmit the work
* to Remix - to adapt the work

Under the following conditions:
* Attribution. You must attribute the work by stating your use of HanjiVG in
  your own copyright header and linking to HanjiVG's website
  (http://gooo.free.fr/hanziVG/)
* Attribution. You must attribute the work by stating your use of KanjiVG in
  your own copyright header and linking to KanjiVG's website
  (http://kanjivg.tagaini.net)
* Share Alike. If you alter, transform, or build upon this work, you may
  distribute the resulting work only under the same or similar license to this
  one.

See http://creativecommons.org/licenses/by-sa/3.0/ for more details.
-->
<!DOCTYPE svg PUBLIC "-//W3C//DTD SVG 1.0//EN" "http://www.w3.org/TR/2001/REC-SVG-20010904/DTD/svg10.dtd" [
<!ATTLIST g
xmlns:kvg CDATA #FIXED "http://kanjivg.tagaini.net"
kvg:element CDATA #IMPLIED
kvg:variant CDATA #IMPLIED
kvg:partial CDATA #IMPLIED
kvg:original CDATA #IMPLIED
kvg:part CDATA #IMPLIED
kvg:number CDATA #IMPLIED
kvg:tradForm CDATA #IMPLIED
kvg:radicalForm CDATA #IMPLIED
kvg:position CDATA #IMPLIED
kvg:radical CDATA #IMPLIED
kvg:phon CDATA #IMPLIED >
<!ATTLIST path
xmlns:kvg CDATA #FIXED "http://kanjivg.tagaini.net"
kvg:type CDATA #IMPLIED >
]>
<svg xmlns="http://www.w3.org/2000/svg" width="109" height="109" viewBox="0 0 109 109">
<g id="kvg:StrokePaths_08fd9" style="fill:none;stroke:#000000;stroke-width:3;stroke-linecap:round;stroke-linejoin:round;">
<g id="kvg:08fd9" kvg:element="这">
	<g id="kvg:08fd9-g1" kvg:element="文" kvg:position="top">
		<g id="kvg:08fd9-g2" kvg:element="亠" kvg:position="top">
			<path id="kvg:08fd9-s1" kvg:type="㇑a" d="M65.11,16c0.57,0.47,1.5,2.27,1.5,3.2c0,3.68-0.02,9.28-0.08,11.92"/>
			<path id="kvg:08fd9-s2" kvg:type="㇐" d="M41.76,33.04c0.91,0.06,2.63,0.38,3.52,0.35c7.42-0.32,35.86-4.03,45.58-4.22c1.5-0.03,2.27,0.03,3.39,0.44"/>
		</g>
		<g id="kvg:08fd9-g3" kvg:element="乂" kvg:position="bottom">
			<path id="kvg:08fd9-s3" kvg:type="㇒" d="M82.06,29.74c0.44,1.26,0.66,2.55-0.24,4.01C70.29,52.65,58.49,65.44,38.71,76"/>
			<path id="kvg:08fd9-s4" kvg:type="㇏" d="M54.04,35.32C64,47.25,72.75,61.5,90.57,69.27c2.35,1.23,3.86,1.42,5.79,1.55"/>
		</g>
	</g>
	<g id="kvg:08fd9-g4" kvg:element="⻌" kvg:original="辶" kvg:position="nyo" kvg:radical="tradit">
		<path id="kvg:08fd9-s5" kvg:type="㇔" d="M20.38,19c3.84,1.83,9.92,7.53,10.88,10.38"/>
		<path id="kvg:08fd9-s6" kvg:type="㇋" d="M13,50.75c2.25,0.62,4.16,0.22,6.3-0.48c2.8-0.92,8.29-2.82,9.45-3.27c2.25-0.88,3.4,0.45,2.25,2.75c-7.38,14.75-7.62,8.75,0.25,19c1.02,1.33,0.68,2.67-0.75,4C28.62,74.5,23.12,79,20.25,81.5"/>
		<path id="kvg:08fd9-s7" kvg:type="㇏a" d="M15.5,83.5c3-0.5,9-1.75,13.5-0.75s30.32,7.71,34.75,9c12,3.5,19.12,4.5,28,4"/>
	</g>
</g>
</g>
<g id="kvg:StrokeNumbers_08fd9" style="font-size:8;fill:#808080">
	<text transform="matrix(1 0 0 1 58.50 12.50)">1</text>
	<text transform="matrix(1 0 0 1 36.50 29.50)">2</text>
	<text transform="matrix(1 0 0 1 80.44 25.98)">3</text>
	<text transform="matrix(1 0 0 1 40.50 50.16)">4</text>
	<text transform="matrix(1 0 0 1 10.50 15.58)">5</text>
	<text transform="matrix(1 0 0 1 8.50 44.01)">6</text>
	<text transform="matrix(1 0 0 1 5.50 78.50)">7</text>
</g>
</svg>
