<?xml version="1.0" encoding="UTF-8"?>
<!--
Copyright (C) 2016 François Mizessyn.
This work makes an extensive use of kanjiVG Copyright (C) 2009/2010/2011 Ulrich Apel.
This work is distributed under the conditions of the Creative Commons
Attribution-Share Alike 3.0 Licence. This means you are free:
* to Share - to copy, distribute and transmit the work
* to Remix - to adapt the work

Under the following conditions:
* Attribution. You must attribute the work by stating your use of HanjiVG in
  your own copyright header and linking to HanjiVG's website
  (http://gooo.free.fr/hanziVG/)
* Attribution. You must attribute the work by stating your use of KanjiVG in
  your own copyright header and linking to KanjiVG's website
  (http://kanjivg.tagaini.net)
* Share Alike. If you alter, transform, or build upon this work, you may
  distribute the resulting work only under the same or similar license to this
  one.

See http://creativecommons.org/licenses/by-sa/3.0/ for more details.
-->
<!DOCTYPE svg PUBLIC "-//W3C//DTD SVG 1.0//EN" "http://www.w3.org/TR/2001/REC-SVG-20010904/DTD/svg10.dtd" [
<!ATTLIST g
xmlns:kvg CDATA #FIXED "http://kanjivg.tagaini.net"
kvg:element CDATA #IMPLIED
kvg:variant CDATA #IMPLIED
kvg:partial CDATA #IMPLIED
kvg:original CDATA #IMPLIED
kvg:part CDATA #IMPLIED
kvg:number CDATA #IMPLIED
kvg:tradForm CDATA #IMPLIED
kvg:radicalForm CDATA #IMPLIED
kvg:position CDATA #IMPLIED
kvg:radical CDATA #IMPLIED
kvg:phon CDATA #IMPLIED >
<!ATTLIST path
xmlns:kvg CDATA #FIXED "http://kanjivg.tagaini.net"
kvg:type CDATA #IMPLIED >
]>
<svg xmlns="http://www.w3.org/2000/svg" width="109" height="109" viewBox="0 0 109 109">
<g id="kvg:StrokePaths_09002" style="fill:none;stroke:#000000;stroke-width:3;stroke-linecap:round;stroke-linejoin:round;">
<g id="kvg:09002" kvg:element="适">
	<g id="kvg:09002-g1" kvg:element="舌" kvg:position="right" kvg:phon="舌">
		<g id="kvg:09002-g2" kvg:position="top">
			<path id="kvg:09002-s1" kvg:type="㇒" d="m78.75 11.96c-0.12 1.09 -0.79 2.08 -1.66 2.66c-4.84 3.21 -15.34 8.65 -29.34 13"/>
			<path id="kvg:09002-s2" kvg:type="㇐" d="m42.39 39.85c1.55 0.3 4.36 0.54 6.73 0.3c10.68 -1.08 24.25 -2.67 38.88 -3.4c2.28 -0.11 4.49 -0.01 6.75 0.25"/>
			<path id="kvg:09002-s3" kvg:type="㇑a" d="m65.87 23.66c1.4 1.22 1.85 2.66 1.85 4.25c0 1.25 -0.21 24.52 -0.21 30.59"/>
		</g>
		<g id="kvg:09002-g3" kvg:element="口" kvg:position="bottom">
			<path id="kvg:09002-s4" kvg:type="㇑" d="m49.07 59.01c0.93 1.02 1.22 1.53 1.35 2.04c1.38 5.39 2.13 10.73 3.08 17.69c0.13 0.99 0.27 2.01 0.42 3.07"/>
			<path id="kvg:09002-s5" kvg:type="㇕b" d="m51.62 60.28c12.9 -1.19 25.41 -2.38 32.68 -2.88c2.94 -0.21 3.79 2.09 3.37 3.31c-1.47 4.24 -3.03 10.13 -5.04 15.96"/>
			<path id="kvg:09002-s6" kvg:type="㇐b" d="m53.64 79.81c7.5 -0.5 16.99 -0.98 27.14 -1.68c1.37 -0.1 2.75 -0.19 4.13 -0.3"/>
		</g>
	</g>
	<g id="kvg:09002-g4" kvg:element="⻌" kvg:original="辶" kvg:radical="tradit">
		<path id="kvg:09002-s7" kvg:type="㇔" d="M21.46,16c3.63,1.74,9.38,7.17,10.29,9.88"/>
		<path id="kvg:09002-s8" kvg:type="㇋" d="M11.76227,48.784853C13.958616,49.92666,15.452132,49.510237,16.399001,49.066947C20.430518,47.186325,25.916505,44.714649,27.380735,44.150462C28.844967,43.572842,30.143252,45.762424,29.333044,47.643047C21.640949,65.495528,20.918595,58.107369,28.844967,70.452312C29.801598,71.943378,29.577083,73.273246,28.112851,74.710579C26.64862,76.147912,21.767849,79.613631,17.258017,82.797256"/>
		<path id="kvg:09002-s9" kvg:type="㇏a" d="M16,83.75C19,83.25,25,82,29.5,83C34,84,59.57,90.71,64,92C76,95.5,85.25,96.5,94.25,94.75"/>
	</g>
</g>
</g>
<g id="kvg:StrokeNumbers_02ecc" style="font-size:8;fill:#808080">
	<text transform="matrix(1 0 0 1 69.50 12.50)">1</text>
	<text transform="matrix(1 0 0 1 36.25 36.50)">2</text>
	<text transform="matrix(1 0 0 1 69.50 32.50)">3</text>
	<text transform="matrix(1 0 0 1 40.50 73.50)">4</text>
	<text transform="matrix(1 0 0 1 48.50 56.50)">5</text>
	<text transform="matrix(1 0 0 1 54.50 76.50)">6</text>
	<text transform="matrix(1 0 0 1 13.25 16.13)">7</text>
	<text transform="matrix(1 0 0 1 2.75 47.05)">8</text>
	<text transform="matrix(1 0 0 1 7.25 82.98)">9</text>
</g>
</svg>
