<?xml version="1.0" encoding="UTF-8"?>
<!--
Copyright (C) 2016 François Mizessyn.
This work makes an extensive use of kanjiVG Copyright (C) 2009/2010/2011 Ulrich Apel.
This work is distributed under the conditions of the Creative Commons
Attribution-Share Alike 3.0 Licence. This means you are free:
* to Share - to copy, distribute and transmit the work
* to Remix - to adapt the work

Under the following conditions:
* Attribution. You must attribute the work by stating your use of HanjiVG in
  your own copyright header and linking to HanjiVG's website
  (http://gooo.free.fr/hanziVG/)
* Attribution. You must attribute the work by stating your use of KanjiVG in
  your own copyright header and linking to KanjiVG's website
  (http://kanjivg.tagaini.net)
* Share Alike. If you alter, transform, or build upon this work, you may
  distribute the resulting work only under the same or similar license to this
  one.

See http://creativecommons.org/licenses/by-sa/3.0/ for more details.
-->
<!DOCTYPE svg PUBLIC "-//W3C//DTD SVG 1.0//EN" "http://www.w3.org/TR/2001/REC-SVG-20010904/DTD/svg10.dtd" [
<!ATTLIST g
xmlns:kvg CDATA #FIXED "http://kanjivg.tagaini.net"
kvg:element CDATA #IMPLIED
kvg:variant CDATA #IMPLIED
kvg:partial CDATA #IMPLIED
kvg:original CDATA #IMPLIED
kvg:part CDATA #IMPLIED
kvg:number CDATA #IMPLIED
kvg:tradForm CDATA #IMPLIED
kvg:radicalForm CDATA #IMPLIED
kvg:position CDATA #IMPLIED
kvg:radical CDATA #IMPLIED
kvg:phon CDATA #IMPLIED >
<!ATTLIST path
xmlns:kvg CDATA #FIXED "http://kanjivg.tagaini.net"
kvg:type CDATA #IMPLIED >
]>
<svg xmlns="http://www.w3.org/2000/svg" width="109" height="109" viewBox="0 0 109 109">
<g id="kvg:StrokePaths_09009" style="fill:none;stroke:#000000;stroke-width:3;stroke-linecap:round;stroke-linejoin:round;">
<g id="kvg:09009" kvg:element="选">
	<g id="kvg:09009-g1" kvg:element="先" kvg:position="right" kvg:phon="先">
		<g id="kvg:09009-g2" kvg:position="top">
			<path id="kvg:09009-s1" kvg:type="㇒" d="m50.77 24.2c0.09 0.81 0.12 1.74 -0.19 2.52c-2.2 5.48 -5.08 11.18 -9.58 16.28"/>
			<path id="kvg:09009-s2" kvg:type="㇐" d="m51.63 32.63c1.37 0.17 2.5 0.17 4.14 0.02c6.47 -0.58 15.86 -2.06 23.32 -3.15c1.13 -0.17 3.84 0.1 4.41 0.22"/>
			<path id="kvg:09009-s3" kvg:type="㇑a" d="m63.81 14.3c1.15 0.92 1.51 2.1 1.51 3.2c0 0.73 -0.07 22.99 -0.07 28.1"/>
			<path id="kvg:09009-s4" kvg:type="㇐" d="m39.38 47.61c2.61 0.75 6.03 0.51 8.74 0.3c11.13 -0.9 27.13 -2.3 37.88 -2.99c2.66 -0.17 5.26 -0.13 7.88 0.32"/>
		</g>
		<g id="kvg:09009-g3" kvg:element="儿" kvg:original="八" kvg:position="bottom">
			<g id="kvg:09009-g4" kvg:element="丿">
				<path id="kvg:09009-s5" kvg:type="㇒" d="m57.56 50.95c0.06 0.62 0.19 1.62 -0.13 2.5c-2.74 7.81 -9.59 17.62 -20.61 24.3"/>
			</g>
			<path id="kvg:09009-s6" kvg:type="㇟" d="m69.49 48.5c1.07 0.86 1.43 2.1 1.43 3.32c0 4.21 -0.04 11.1 -0.04 15.98c0 8.8 1 9.62 12.88 9.62c11.5 0 12.14 -1.22 12.14 -7.46"/>
		</g>
	</g>
	<g id="kvg:09009-g5" kvg:element="⻌" kvg:original="辶" kvg:radical="tradit">
		<path id="kvg:09009-s7" kvg:type="㇔" d="M21.46,16c3.63,1.74,9.38,7.17,10.29,9.88"/>
		<path id="kvg:09009-s8" kvg:type="㇋" d="M11.76227,48.784853C13.958616,49.92666,15.452132,49.510237,16.399001,49.066947C20.430518,47.186325,25.916505,44.714649,27.380735,44.150462C28.844967,43.572842,30.143252,45.762424,29.333044,47.643047C21.640949,65.495528,20.918595,58.107369,28.844967,70.452312C29.801598,71.943378,29.577083,73.273246,28.112851,74.710579C26.64862,76.147912,21.767849,79.613631,17.258017,82.797256"/>
		<path id="kvg:09009-s9" kvg:type="㇏a" d="M16,83.75C19,83.25,25,82,29.5,83C34,84,59.57,90.71,64,92C76,95.5,85.25,96.5,94.25,94.75"/>
	</g>
</g>
</g>
<g id="kvg:StrokeNumbers_09009" style="font-size:8;fill:#808080">
	<text transform="matrix(1 0 0 1 45.75 21.50)">1</text>
	<text transform="matrix(1 0 0 1 35.50 34.63)">2</text>
	<text transform="matrix(1 0 0 1 55.50 12.50)">3</text>
	<text transform="matrix(1 0 0 1 30.50 55.50)">4</text>
	<text transform="matrix(1 0 0 1 43.50 61.50)">5</text>
	<text transform="matrix(1 0 0 1 59.50 61.50)">6</text>
	<text transform="matrix(1 0 0 1 13.25 16.13)">7</text>
	<text transform="matrix(1 0 0 1 2.75 47.05)">8</text>
	<text transform="matrix(1 0 0 1 7.25 82.98)">9</text>
</g>
</svg>
