<?xml version="1.0" encoding="UTF-8"?>
<!--
Copyright (C) 2009/2010/2011 Ulrich Apel.
Glyph modified by François Mizessyn.
This work is distributed under the conditions of the Creative Commons
Attribution-Share Alike 3.0 Licence. This means you are free:
* to Share - to copy, distribute and transmit the work
* to Remix - to adapt the work

Under the following conditions:
* Attribution. You must attribute the work by stating your use of KanjiVG in
  your own copyright header and linking to KanjiVG's website
  (http://kanjivg.tagaini.net)
* Share Alike. If you alter, transform, or build upon this work, you may
  distribute the resulting work only under the same or similar license to this
  one.

See http://creativecommons.org/licenses/by-sa/3.0/ for more details.
-->
<!DOCTYPE svg PUBLIC "-//W3C//DTD SVG 1.0//EN" "http://www.w3.org/TR/2001/REC-SVG-20010904/DTD/svg10.dtd" [
<!ATTLIST g
xmlns:kvg CDATA #FIXED "http://kanjivg.tagaini.net"
kvg:element CDATA #IMPLIED
kvg:variant CDATA #IMPLIED
kvg:partial CDATA #IMPLIED
kvg:original CDATA #IMPLIED
kvg:part CDATA #IMPLIED
kvg:number CDATA #IMPLIED
kvg:tradForm CDATA #IMPLIED
kvg:radicalForm CDATA #IMPLIED
kvg:position CDATA #IMPLIED
kvg:radical CDATA #IMPLIED
kvg:phon CDATA #IMPLIED >
<!ATTLIST path
xmlns:kvg CDATA #FIXED "http://kanjivg.tagaini.net"
kvg:type CDATA #IMPLIED >
]>
<svg xmlns="http://www.w3.org/2000/svg" width="109" height="109" viewBox="0 0 109 109">
<g id="kvg:StrokePaths_0904d" style="fill:none;stroke:#000000;stroke-width:3;stroke-linecap:round;stroke-linejoin:round;">
<g id="kvg:0904d" kvg:element="遍">
	<g id="kvg:0904d-g1" kvg:element="扁" kvg:phon="扁">
		<g id="kvg:0904d-g2" kvg:element="户">
			<path id="kvg:0904d-s1" kvg:type="㇔" d="m63.84 14.32c1.15 2.92 1.93 6.12 2.41 9.5"/>
			<g id="kvg:0904d-g3" kvg:element="尸">
				<path id="kvg:0904d-s2" kvg:type="㇕c" d="M43.2,29.35c1.05,0.39,2.64,1.09,4.7,0.81c10.72-1.46,31.26-3.79,37.97-4.49c1.82-0.19,3.65,1.3,2.96,4.17c-1.21,5.08-1.62,6.86-2.49,9.71"/>
				<path id="kvg:0904d-s3" kvg:type="㇐b" d="M46.61,44.93c7.14-1.18,30.64-3.68,41.77-4.52"/>
				<path id="kvg:0904d-s4" kvg:type="㇒" d="m45.78 30.6c0.03 1.13 0.24 2.9 0.25 4.52c0.1 20.45 -2.02 33.28 -12.06 43.28"/>
			</g>
		</g>
		<g id="kvg:0904d-g4" kvg:element="冊">
			<g id="kvg:0904d-g5" kvg:element="冂">
				<path id="kvg:0904d-s5" kvg:type="㇑" d="M49.65,53.47c0.81,0.81,1.05,1.78,1.05,3.1c0,0.78-0.09,11.53-0.01,19.05c0.03,3.27-0.06,4.89-0.06,5.38"/>
				<path id="kvg:0904d-s6" kvg:type="㇆a" d="M51.57,54.8c6.18-0.86,25.31-3.33,32.45-4.19c3.29-0.39,5.66,0.64,5.66,3.75c0,6.39-0.05,19.14-0.05,22.51c0,7.63-3.89,3.13-5.25,1.82"/>
			</g>
			<g id="kvg:0904d-g6" kvg:element="廾" kvg:variant="true">
				<g id="kvg:0904d-g7" kvg:element="十" kvg:part="1" kvg:variant="true">
					<path id="kvg:0904d-s7" kvg:type="㇐a" d="M52,66.75c6.75-0.88,25.75-3.38,36.55-3.85"/>
				</g>
				<g id="kvg:0904d-g8" kvg:element="丿" kvg:variant="true">
					<path id="kvg:0904d-s8" kvg:type="㇑" d="M61.68,55.79c0.7,0.7,0.89,1.71,0.89,2.79c0,0.31,0.06,10.94-0.03,17.67c-0.04,2.52,0.01,3.44-0.04,4.12"/>
				</g>
				<g id="kvg:0904d-g9" kvg:element="十" kvg:part="2" kvg:variant="true">
					<path id="kvg:0904d-s9" kvg:type="㇑" d="M73.5,54.23c0.76,0.76,1.14,1.64,1.14,2.54c0,0.22,0.07,11.11,0.09,17.72c0.01,2.77,0.01,4.79,0,4.98"/>
				</g>
			</g>
		</g>
	</g>
	<g id="kvg:0904d-g9" kvg:element="⻌" kvg:original="辶" kvg:position="nyo" kvg:radical="tradit">
		<path id="kvg:0904d-s10" kvg:type="㇔" d="M16.71,21.5C20.69,22.98,27,27.58,28,29.88"/>
		<path id="kvg:0904d-s11" kvg:type="㇋" d="M12.75,50.39c2.25,0.91,3.78,0.56,4.75,0.23c2.5-0.87,8.62-3.49,10.75-4.37c1.45-0.6,3,1.38,2,2.74C20,62.88,19.62,57,30,66.2c1.16,1.03,1,2.74-0.5,3.88S18,78.5,13.5,81.75"/>
		<path id="kvg:0904d-s12" kvg:type="㇏a" d="M10.25,82.96c4.12-0.83,8.7-0.67,14.41-0.22c9.72,0.76,26.89,5.9,36.81,8.65C74.5,95,78,95.5,89,96.53"/>
	</g>
</g>
</g>
<g id="kvg:StrokeNumbers_0904d" style="font-size:8;fill:#808080">
	<text transform="matrix(1 0 0 1 55.50 12.13)">1</text>
	<text transform="matrix(1 0 0 1 45.75 26.50)">2</text>
	<text transform="matrix(1 0 0 1 47.50 40.98)">3</text>
	<text transform="matrix(1 0 0 1 36.25 39.63)">4</text>
	<text transform="matrix(1 0 0 1 40.25 60.50)">5</text>
	<text transform="matrix(1 0 0 1 50.75 52.50)">6</text>
	<text transform="matrix(1 0 0 1 48.50 68.50)">7</text>
	<text transform="matrix(1 0 0 1 60.50 60.50)">8</text>
	<text transform="matrix(1 0 0 1 72.50 59.50)">9</text>
	<text transform="matrix(1 0 0 1 6.50 22.50)">10</text>
	<text transform="matrix(1 0 0 1 3.75 51.05)">11</text>
	<text transform="matrix(1 0 0 1 0.50 84.50)">12</text>
</g>
</svg>
