<?xml version="1.0" encoding="UTF-8"?>
<!--
Copyright (C) 2016 François Mizessyn.
This work makes an extensive use of kanjiVG Copyright (C) 2009/2010/2011 Ulrich Apel.
This work is distributed under the conditions of the Creative Commons
Attribution-Share Alike 3.0 Licence. This means you are free:
* to Share - to copy, distribute and transmit the work
* to Remix - to adapt the work

Under the following conditions:
* Attribution. You must attribute the work by stating your use of HanjiVG in
  your own copyright header and linking to HanjiVG's website
  (http://gooo.free.fr/hanziVG/)
* Attribution. You must attribute the work by stating your use of KanjiVG in
  your own copyright header and linking to KanjiVG's website
  (http://kanjivg.tagaini.net)
* Share Alike. If you alter, transform, or build upon this work, you may
  distribute the resulting work only under the same or similar license to this
  one.

See http://creativecommons.org/licenses/by-sa/3.0/ for more details.
-->
<!DOCTYPE svg PUBLIC "-//W3C//DTD SVG 1.0//EN" "http://www.w3.org/TR/2001/REC-SVG-20010904/DTD/svg10.dtd" [
<!ATTLIST g
xmlns:kvg CDATA #FIXED "http://kanjivg.tagaini.net"
kvg:element CDATA #IMPLIED
kvg:variant CDATA #IMPLIED
kvg:partial CDATA #IMPLIED
kvg:original CDATA #IMPLIED
kvg:part CDATA #IMPLIED
kvg:number CDATA #IMPLIED
kvg:tradForm CDATA #IMPLIED
kvg:radicalForm CDATA #IMPLIED
kvg:position CDATA #IMPLIED
kvg:radical CDATA #IMPLIED
kvg:phon CDATA #IMPLIED >
<!ATTLIST path
xmlns:kvg CDATA #FIXED "http://kanjivg.tagaini.net"
kvg:type CDATA #IMPLIED >
]>
<svg xmlns="http://www.w3.org/2000/svg" width="109" height="109" viewBox="0 0 109 109">
<g id="kvg:StrokePaths_090ae" style="fill:none;stroke:#000000;stroke-width:3;stroke-linecap:round;stroke-linejoin:round;">
<g id="kvg:090ae" kvg:element="邮">
	<g id="kvg:090ae-g1" kvg:element="由" kvg:position="left">
		<path id="kvg:090ae-s1" kvg:type="㇑" d="m12.55 35.8c1.08 1.08 1.33 2.2 1.47 3.71c0.69 7.21 1.95 21.82 2.93 34.87c0.2 2.63 0.38 5.19 0.55 7.62"/>
		<path id="kvg:090ae-s2" kvg:type="㇕a" d="m14.73 38.6c15.15 -2.22 29.77 -3.72 39.17 -4.31c2.96 -0.19 4.45 2.18 4.29 4.48c-0.47 6.76 -2.6 22.48 -4.51 34.09c-0.47 2.87 -0.93 5.49 -1.35 7.67"/>
		<path id="kvg:090ae-s3" kvg:type="㇐a" d="m17.01 58.05c3.5 -0.42 25.61 -2.8 38.13 -3.36"/>
		<path id="kvg:090ae-s4" kvg:type="㇑a" d="m33.06 13.82c1.06 1.06 1.46 2.43 1.46 4.57c0 14.93 -0.02 65.09 -0.02 58.98"/>
		<path id="kvg:090ae-s5" kvg:type="㇐a" d="m18.32 79.57c8.85 -0.61 23.17 -1.62 33.85 -1.85"/>
	</g>
	<g id="kvg:090ae-g2" kvg:element="⻏" kvg:variant="true" kvg:original="邑" kvg:position="right">
		<path id="kvg:090ae-s6" kvg:type="㇇" d="M62.67,19.31c0.94,0.09,2.62,0.65,3.83,0.46c5.22-0.85,16.54-2.74,19.29-3.59c3.38-1.05,6.54,0.92,5.26,3.48c-1.79,3.59-7.46,19.35-10.09,22.84"/>
		<path id="kvg:090ae-s7" kvg:type="㇕va" d="M81,43.5c19,13.25,18.25,44.5,2.73,33.66"/>
		<path id="kvg:090ae-s8" kvg:type="㇑" d="M66.33,20c0.22,1,0,70.25-0.22,76.5"/>
	</g>
</g>
</g>
<g id="kvg:StrokeNumbers_090ae" style="font-size:8;fill:#808080">
	<text transform="matrix(1 0 0 1 3.25 41.25)">1</text>
	<text transform="matrix(1 0 0 1 14.25 35.25)">2</text>
	<text transform="matrix(1 0 0 1 17.25 54.25)">3</text>
	<text transform="matrix(1 0 0 1 23.33 12.93)">4</text>
	<text transform="matrix(1 0 0 1 19.25 76.25)">5</text>
	<text transform="matrix(1 0 0 1 61.50 16.50)">6</text>
	<text transform="matrix(1 0 0 1 71.50 49.50)">7</text>
	<text transform="matrix(1 0 0 1 55.50 33.50)">8</text>
</g>
</svg>
