<?xml version="1.0" encoding="UTF-8"?>
<!--
Copyright (C) 2016 François Mizessyn.
This work makes an extensive use of kanjiVG Copyright (C) 2009/2010/2011 Ulrich Apel.
This work is distributed under the conditions of the Creative Commons
Attribution-Share Alike 3.0 Licence. This means you are free:
* to Share - to copy, distribute and transmit the work
* to Remix - to adapt the work

Under the following conditions:
* Attribution. You must attribute the work by stating your use of HanjiVG in
  your own copyright header and linking to HanjiVG's website
  (http://gooo.free.fr/hanziVG/)
* Attribution. You must attribute the work by stating your use of KanjiVG in
  your own copyright header and linking to KanjiVG's website
  (http://kanjivg.tagaini.net)
* Share Alike. If you alter, transform, or build upon this work, you may
  distribute the resulting work only under the same or similar license to this
  one.

See http://creativecommons.org/licenses/by-sa/3.0/ for more details.
-->
<!DOCTYPE svg PUBLIC "-//W3C//DTD SVG 1.0//EN" "http://www.w3.org/TR/2001/REC-SVG-20010904/DTD/svg10.dtd" [
<!ATTLIST g
xmlns:kvg CDATA #FIXED "http://kanjivg.tagaini.net"
kvg:element CDATA #IMPLIED
kvg:variant CDATA #IMPLIED
kvg:partial CDATA #IMPLIED
kvg:original CDATA #IMPLIED
kvg:part CDATA #IMPLIED
kvg:number CDATA #IMPLIED
kvg:tradForm CDATA #IMPLIED
kvg:radicalForm CDATA #IMPLIED
kvg:position CDATA #IMPLIED
kvg:radical CDATA #IMPLIED
kvg:phon CDATA #IMPLIED >
<!ATTLIST path
xmlns:kvg CDATA #FIXED "http://kanjivg.tagaini.net"
kvg:type CDATA #IMPLIED >
]>
<svg xmlns="http://www.w3.org/2000/svg" width="109" height="109" viewBox="0 0 109 109">
<g id="kvg:StrokePaths_090bb" style="fill:none;stroke:#000000;stroke-width:3;stroke-linecap:round;stroke-linejoin:round;">
<g id="kvg:090bb" kvg:element="邻">
	<g id="kvg:090bb" kvg:element="令">
		<g id="kvg:090bb-g1" kvg:element="人" kvg:position="top" kvg:radical="general">
			<path id="kvg:090bb-s1" kvg:type="㇒" d="m33.77 13.25c0.07 0.94 0.23 2.48 -0.13 3.77c-2.49 8.86 -9.09 25.23 -21.99 37.08"/>
			<path id="kvg:090bb-s2" kvg:type="㇏" d="m34.32 16.55c3.68 4.35 14.99 20.22 20.39 27.33c1.93 2.54 3.36 4.12 5.84 5.37"/>
		</g>
		<g id="kvg:090bb-g2" kvg:position="bottom">
			<g id="kvg:090bb-g3" kvg:element="一">
				<path id="kvg:090bb-s3" kvg:type="㇔" d="m32.36 45.33c2.12 1.52 5.5 6.26 6.02 8.63"/>
			</g>
			<g id="kvg:090bb-g4" kvg:element="マ">
				<path id="kvg:090bb-s4" kvg:type="㇆a" d="m21.45 65.79c0.81 0.83 2.51 1.22 3.43 1.01c1.82 -0.41 21.25 -5.69 23.17 -6.1s2.4 1.47 1.03 3.66c-3.23 5.13 -13.12 19.81 -14.33 21.47"/>
				<path id="kvg:090bb-s5" kvg:type="㇔" d="m28.95 81.4c3.7 3.22 8.2 8.47 10.27 15.6"/>
			</g>
		</g>
	</g>
	<g id="kvg:090bb-g5" kvg:element="⻏" kvg:variant="true" kvg:original="邑" kvg:position="right">
		<path id="kvg:090bb-s6" kvg:type="㇇" d="M62.67,19.31c0.94,0.09,2.62,0.65,3.83,0.46c5.22-0.85,16.54-2.74,19.29-3.59c3.38-1.05,6.54,0.92,5.26,3.48c-1.79,3.59-7.46,19.35-10.09,22.84"/>
		<path id="kvg:090bb-s7" kvg:type="㇕va" d="M81,43.5c19,13.25,18.25,44.5,2.73,33.66"/>
		<path id="kvg:090bb-s8" kvg:type="㇑" d="M66.33,20c0.22,1,0,70.25-0.22,76.5"/>
	</g>
</g>
</g>
<g id="kvg:StrokeNumbers_090bb" style="font-size:8;fill:#808080">
	<text transform="matrix(1 0 0 1 24.33 14.93)">1</text>
	<text transform="matrix(1 0 0 1 36.25 16.25)">2</text>
	<text transform="matrix(1 0 0 1 29.25 42.25)">3</text>
	<text transform="matrix(1 0 0 1 17.25 63.25)">4</text>
	<text transform="matrix(1 0 0 1 18.25 81.25)">5</text>
	<text transform="matrix(1 0 0 1 61.50 16.50)">6</text>
	<text transform="matrix(1 0 0 1 71.50 49.50)">7</text>
	<text transform="matrix(1 0 0 1 55.50 33.50)">8</text>
</g>
</svg>
