<?xml version="1.0" encoding="UTF-8"?>
<!--
Copyright (C) 2016 François Mizessyn.
This work makes an extensive use of kanjiVG Copyright (C) 2009/2010/2011 Ulrich Apel.
This work is distributed under the conditions of the Creative Commons
Attribution-Share Alike 3.0 Licence. This means you are free:
* to Share - to copy, distribute and transmit the work
* to Remix - to adapt the work

Under the following conditions:
* Attribution. You must attribute the work by stating your use of HanjiVG in
  your own copyright header and linking to HanjiVG's website
  (http://gooo.free.fr/hanziVG/)
* Attribution. You must attribute the work by stating your use of KanjiVG in
  your own copyright header and linking to KanjiVG's website
  (http://kanjivg.tagaini.net)
* Share Alike. If you alter, transform, or build upon this work, you may
  distribute the resulting work only under the same or similar license to this
  one.

See http://creativecommons.org/licenses/by-sa/3.0/ for more details.
-->
<!DOCTYPE svg PUBLIC "-//W3C//DTD SVG 1.0//EN" "http://www.w3.org/TR/2001/REC-SVG-20010904/DTD/svg10.dtd" [
<!ATTLIST g
xmlns:kvg CDATA #FIXED "http://kanjivg.tagaini.net"
kvg:element CDATA #IMPLIED
kvg:variant CDATA #IMPLIED
kvg:partial CDATA #IMPLIED
kvg:original CDATA #IMPLIED
kvg:part CDATA #IMPLIED
kvg:number CDATA #IMPLIED
kvg:tradForm CDATA #IMPLIED
kvg:radicalForm CDATA #IMPLIED
kvg:position CDATA #IMPLIED
kvg:radical CDATA #IMPLIED
kvg:phon CDATA #IMPLIED >
<!ATTLIST path
xmlns:kvg CDATA #FIXED "http://kanjivg.tagaini.net"
kvg:type CDATA #IMPLIED >
]>
<svg xmlns="http://www.w3.org/2000/svg" width="109" height="109" viewBox="0 0 109 109">
<g id="kvg:StrokePaths_09171" style="fill:none;stroke:#000000;stroke-width:3;stroke-linecap:round;stroke-linejoin:round;">
<g id="kvg:09171" kvg:element="酱">
	<g id="kvg:09171-g1" kvg:position="top">
		<g id="kvg:09171-g2" kvg:element="⺦" kvg:variant="true" kvg:original="爿" kvg:position="left">
			<path id="kvg:09171-s1" kvg:type="㇑" d="m41.55 11.47c0.99 0.99 1.08 2.15 1.08 3.1c0 2.96 0.02 17.93 0.04 28.68c0.01 4.43 0.01 8.14 0.01 10"/>
			<path id="kvg:09171-s2" kvg:type="㇔" d="m23.11 17.62c3.58 1.9 9.26 7.81 10.15 10.76"/>
			<path id="kvg:09171-s3" kvg:type="㇀" d="m19.75 48.49c1.99 0.65 3.31 0.37 4.56 -0.43c3.64 -2.35 8.34 -5.22 11.65 -8.21"/>
		</g>
		<g id="kvg:09171-g3" kvg:element="夕" kvg:position="right">
			<path id="kvg:09171-s4" kvg:type="㇒" d="m73.44 13.58c0.47 0.87 -0.25 2 -0.69 2.83c-3.03 5.67 -9.9 14.35 -20.29 20.37"/>
			<path id="kvg:09171-s5" kvg:type="㇇" d="m73.82 20.31c0.27 0.03 2.64 0 3.41 -0.09c2.3 -0.24 7.32 -1.1 10.77 -1.98c2.76 -0.69 4.91 -0.01 4.02 2.14c-3.48 8.48 -20.01 25.79 -37.09 31.67"/>
			<path id="kvg:09171-s6" kvg:type="㇔" d="m67.13 30.14c2.91 0.97 7.53 3.99 8.27 5.5"/>
		</g>
	</g>
	<g id="kvg:09171-g4" kvg:element="酉" kvg:position="bottom" kvg:radical="general">
		<g id="kvg:09171-g5" kvg:element="西" kvg:part="1" kvg:original="襾">
			<path id="kvg:09171-s7" kvg:type="㇐" d="m16.3 59.68c4.41 0.59 9.84 0.56 14.22 0.35c11.91 -0.59 33.97 -2.02 47.25 -2.47c4.56 -0.23 9.12 -0.24 13.7 -0.03"/>
			<path id="kvg:09171-s8" kvg:type="㇑" d="M25.94,70.52c0.96,0.96,0.94,2.14,1.04,3.48c0.33,4.44,0.8,11.69,1.17,17.74c0.21,3.49,0.39,6.58,0.49,8.5"/>
			<path id="kvg:09171-s9" kvg:type="㇕a" d="M27.81,71.58C46.75,70,58.5,68.5,78.13,67.16c4.24-0.29,4.95,1.41,4.62,5.21c-0.33,3.67-1.08,12.56-1.63,19.14c-0.37,4.37-0.64,7.72-0.64,7.86"/>
			<path id="kvg:09171-s10" kvg:type="㇒" d="M45.08,62.44c0.74,0.74,0.82,1.67,0.82,2.5c0,8.31-4.78,15.69-11.58,18.35"/>
			<path id="kvg:09171-s11" kvg:type="㇟a" d="M59.53,60.91c0.9,0.9,0.83,2.09,0.83,3.16c0,2.68-0.08,5.31-0.08,7.79c0,5.51,1.31,7.09,7.72,7.09c4,0,8-0.21,9.69-1.84"/>
		</g>
		<g id="kvg:09171-g6" kvg:element="一">
			<path id="kvg:09171-s12" kvg:type="㇐a" d="M28.91,89.55c18.21-1.3,37.71-2.3,51.48-2.73"/>
		</g>
		<g id="kvg:09171-g7" kvg:element="西" kvg:part="2" kvg:original="襾">
			<path id="kvg:09171-s13" kvg:type="㇐a" d="M29.73,98.47C47,97.5,63.88,96.88,79.2,96.42"/>
		</g>
	</g>
</g>
</g>
<g id="kvg:StrokeNumbers_09171" style="font-size:8;fill:#808080">
	<text transform="matrix(1 0 0 1 31.25 13.50)">1</text>
	<text transform="matrix(1 0 0 1 13.50 19.50)">2</text>
	<text transform="matrix(1 0 0 1 9.50 51.50)">3</text>
	<text transform="matrix(1 0 0 1 65.50 12.13)">4</text>
	<text transform="matrix(1 0 0 1 75.50 17.50)">5</text>
	<text transform="matrix(1 0 0 1 55.50 26.50)">6</text>
	<text transform="matrix(1 0 0 1 6.50 65.50)">7</text>
	<text transform="matrix(1 0 0 1 15.25 76.50)">8</text>
	<text transform="matrix(1 0 0 1 27.25 68.50)">9</text>
	<text transform="matrix(1 0 0 1 35.25 66.50)">10</text>
	<text transform="matrix(1 0 0 1 50.25 66.58)">11</text>
	<text transform="matrix(1 0 0 1 40.25 84.50)">12</text>
	<text transform="matrix(1 0 0 1 35.25 96.93)">13</text>
</g>
</svg>
