<?xml version="1.0" encoding="UTF-8"?>
<!--
Copyright (C) 2016 François Mizessyn.
This work makes an extensive use of kanjiVG Copyright (C) 2009/2010/2011 Ulrich Apel.
This work is distributed under the conditions of the Creative Commons
Attribution-Share Alike 3.0 Licence. This means you are free:
* to Share - to copy, distribute and transmit the work
* to Remix - to adapt the work

Under the following conditions:
* Attribution. You must attribute the work by stating your use of HanjiVG in
  your own copyright header and linking to HanjiVG's website
  (http://gooo.free.fr/hanziVG/)
* Attribution. You must attribute the work by stating your use of KanjiVG in
  your own copyright header and linking to KanjiVG's website
  (http://kanjivg.tagaini.net)
* Share Alike. If you alter, transform, or build upon this work, you may
  distribute the resulting work only under the same or similar license to this
  one.

See http://creativecommons.org/licenses/by-sa/3.0/ for more details.
-->
<!DOCTYPE svg PUBLIC "-//W3C//DTD SVG 1.0//EN" "http://www.w3.org/TR/2001/REC-SVG-20010904/DTD/svg10.dtd" [
<!ATTLIST g
xmlns:kvg CDATA #FIXED "http://kanjivg.tagaini.net"
kvg:element CDATA #IMPLIED
kvg:variant CDATA #IMPLIED
kvg:partial CDATA #IMPLIED
kvg:original CDATA #IMPLIED
kvg:part CDATA #IMPLIED
kvg:number CDATA #IMPLIED
kvg:tradForm CDATA #IMPLIED
kvg:radicalForm CDATA #IMPLIED
kvg:position CDATA #IMPLIED
kvg:radical CDATA #IMPLIED
kvg:phon CDATA #IMPLIED >
<!ATTLIST path
xmlns:kvg CDATA #FIXED "http://kanjivg.tagaini.net"
kvg:type CDATA #IMPLIED >
]>
<svg xmlns="http://www.w3.org/2000/svg" width="109" height="109" viewBox="0 0 109 109">
<g id="kvg:StrokePaths_091ca" style="fill:none;stroke:#000000;stroke-width:3;stroke-linecap:round;stroke-linejoin:round;">
<g id="kvg:091ca" kvg:element="释">
	<g id="kvg:091ca-g1" kvg:element="釆" kvg:position="left" kvg:radical="general">
		<g id="kvg:091ca-g2" kvg:element="丿" kvg:position="top">
			<path id="kvg:091ca-s1" kvg:type="㇒" d="M40.25,11.64c0.08,0.31,0.26,0.88-0.15,1.27C34.75,18,24,23,14.47,25.26"/>
		</g>
		<g id="kvg:091ca-g3" kvg:element="米" kvg:variant="true" kvg:position="bottom">
			<path id="kvg:091ca-s2" kvg:type="㇔" d="M15.42,31.94c2.1,1.93,5.27,7.37,5.79,10.37"/>
			<path id="kvg:091ca-s3" kvg:type="㇒" d="M44.7,25.8c0.02,0.32,0.1,0.85-0.04,1.27c-1.13,3.44-2.95,7.48-6.68,12.2"/>
			<path id="kvg:091ca-s4" kvg:type="㇐" d="M12.5,49.35c0.6,0.24,2.22,0.87,3.81,0.73c6.63-0.58,18.44-2.83,25.42-2.86c1.61-0.01,2.01-0.24,3.01,0"/>
			<path id="kvg:091ca-s5" kvg:type="㇑" d="M29.41,24.29c0.7,0.49,1.12,2.2,1.25,3.17c0.14,0.98,0,64.18-0.14,70.28"/>
			<path id="kvg:091ca-s6" kvg:type="㇒" d="M30.66,48.65c-3.57,11.02-12.25,26.49-20.27,32.84"/>
			<path id="kvg:091ca-s7" kvg:type="㇔/㇏" d="M33.81,55.36c2.8,1.44,9.03,8.95,10.11,12"/>
		</g>
	</g>
	<g id="kvg:091ca-g4" kvg:position="right">
		<g id="kvg:091ca-g5" kvg:element="又" kvg:position="top">
			<path id="kvg:091ca-s8" kvg:type="㇇" d="m55.73 19.74c1.28 0.28 2.44 0.45 4.99 0.03c2.56 -0.42 16.43 -3.25 18.18 -3.71c2.6 -0.68 3.72 0.94 2.65 3.31c-8.12 17.85 -18.93 30.38 -33.64 37.73"/>
			<path id="kvg:091ca-s9" kvg:type="㇏" d="m56 29.12c3.38 0.66 18.3 16.24 30.49 24.56c2.29 1.57 4.76 3.31 7.51 3.92"/>
		</g>
		<g id="kvg:091ca-g6" kvg:position="bottom">
			<path id="kvg:091ca-s10" kvg:type="㇐" d="M52.74,64.49c1.26,0.39,3.59,0.5,4.85,0.39c8.69-0.73,21.67-2.52,26.67-2.78c2.11-0.05,3.37,0.19,4.43,0.38"/>
			<g id="kvg:091ca-g7" kvg:element="十">
				<path id="kvg:091ca-s11" kvg:type="㇐" d="M46.71,77.72c0.82,0.48,3.66,0.51,4.48,0.43c5.69-0.56,29.42-2.38,39.13-3.32c1.37-0.13,4.24,0.41,4.92,0.65"/>
				<path id="kvg:091ca-s12" kvg:type="㇑" d="M70.52,52.49c0.3,0.4,0.93,2.23,0.99,3.04c0.06,0.81-0.04,25.43-0.1,41.47"/>
			</g>
		</g>
	</g>
</g>
</g>
<g id="kvg:StrokeNumbers_091ca" style="font-size:8;fill:#808080">
	<text transform="matrix(1 0 0 1 32.50 11.50)">1</text>
	<text transform="matrix(1 0 0 1 8.50 34.50)">2</text>
	<text transform="matrix(1 0 0 1 37.50 25.50)">3</text>
	<text transform="matrix(1 0 0 1 5.50 50.40)">4</text>
	<text transform="matrix(1 0 0 1 22.50 32.50)">5</text>
	<text transform="matrix(1 0 0 1 20.50 58.25)">6</text>
	<text transform="matrix(1 0 0 1 37.75 56.18)">7</text>
	<text transform="matrix(1 0 0 1 45.75 22.77)">8</text>
	<text transform="matrix(1 0 0 1 45.25 37.13)">9</text>
	<text transform="matrix(1 0 0 1 45.50 62.50)">10</text>
	<text transform="matrix(1 0 0 1 40.50 75.50)">11</text>
	<text transform="matrix(1 0 0 1 61.75 51.50)">12</text>
</g>
</svg>
