<?xml version="1.0" encoding="UTF-8" standalone="no"?>
<!--
Copyright (C) 2016 François Mizessyn.
This work makes an extensive use of kanjiVG Copyright (C) 2009/2010/2011 Ulrich Apel.
This work is distributed under the conditions of the Creative Commons
Attribution-Share Alike 3.0 Licence. This means you are free:
* to Share - to copy, distribute and transmit the work
* to Remix - to adapt the work

Under the following conditions:
* Attribution. You must attribute the work by stating your use of HanjiVG in
  your own copyright header and linking to HanjiVG's website
  (http://gooo.free.fr/hanziVG/)
* Attribution. You must attribute the work by stating your use of KanjiVG in
  your own copyright header and linking to KanjiVG's website
  (http://kanjivg.tagaini.net)
* Share Alike. If you alter, transform, or build upon this work, you may
  distribute the resulting work only under the same or similar license to this
  one.

See http://creativecommons.org/licenses/by-sa/3.0/ for more details.
-->
<!DOCTYPE svg PUBLIC "-//W3C//DTD SVG 1.0//EN" "http://www.w3.org/TR/2001/REC-SVG-20010904/DTD/svg10.dtd" [
<!ATTLIST g
xmlns:kvg CDATA #FIXED "http://kanjivg.tagaini.net"
kvg:element CDATA #IMPLIED
kvg:variant CDATA #IMPLIED
kvg:partial CDATA #IMPLIED
kvg:original CDATA #IMPLIED
kvg:part CDATA #IMPLIED
kvg:number CDATA #IMPLIED
kvg:tradForm CDATA #IMPLIED
kvg:radicalForm CDATA #IMPLIED
kvg:position CDATA #IMPLIED
kvg:radical CDATA #IMPLIED
kvg:phon CDATA #IMPLIED >
<!ATTLIST path
xmlns:kvg CDATA #FIXED "http://kanjivg.tagaini.net"
kvg:type CDATA #IMPLIED >
]>
<svg xmlns="http://www.w3.org/2000/svg" width="109" height="109" viewBox="0 0 109 109">
<g id="kvg:StrokePaths_094b1" style="fill:none;stroke:#000000;stroke-width:3;stroke-linecap:round;stroke-linejoin:round;">
<g id="kvg:094b1" kvg:element="钱">
	<g id="kvg:094b1-g1" kvg:element="钅" kvg:original="金" kvg:position="left" kvg:radical="general">
		<path id="kvg:094b1-s1" kvg:type="㇒" d="m30.66 15.48c0 1.39 -0.1 2.56 -0.59 3.87c-2.45 6.59 -13.14 23.63 -18.09 28.02"/>
		<path id="kvg:094b1-s2" kvg:type="㇐" d="m25.97 28.1c1.63 0.2 0.99 0.44 2.75 0.2c4.32 -0.6 11.02 -1.6 18.23 -2.54"/>
		<path id="kvg:094b1-s3" kvg:type="㇐" d="m17.19 45.68c2.05 0.25 1.24 0.55 3.44 0.25c5.4 -0.75 13.77 -2 22.78 -3.17"/>
		<path id="kvg:094b1-s4" kvg:type="㇐" d="m12.5 63.73c2.46 0.25 1.5 0.55 4.13 0.25c6.49 -0.75 16.51 -2 27.34 -3.17"/>
		<path id="kvg:094b1-s5" d="m30.35 45.35c1.29 0.82 0.25 0.55 1.29 3.3c0 4.57 0.64 34.26 -1.36 47.23c-1.95 -0.65 5 -7.68 13.88 -13.78"/>
	</g>
	<g id="kvg:094b1-g2" kvg:element="戋" kvg:variant="true" kvg:original="戔" kvg:position="right">
		<g id="kvg:094b1-g3" kvg:element="三" kvg:part="1">
			<g id="kvg:094b1-g4" kvg:element="一" kvg:position="bottom">
				<path id="kvg:094b1-s6" kvg:type="㇐" d="M49.07,33.1c1.92,0.74,4.57,0.56,6.56,0.18c6.16-1.17,14.45-3.34,23.36-4.21c1.67-0.25,3.59-0.58,5.26-0.07"/>
			</g>
			<g id="kvg:094b1-g5" kvg:element="戈">
				<g id="kvg:094b1-g6" kvg:element="弋" kvg:part="1">
					<path id="kvg:094b1-s7" kvg:type="㇐" d="M49.25,53.7c1.66,0.57,4.72,0.59,6.36,0.32c5.2-0.85,22.78-4.52,32.27-5.39c1.79-0.16,4.13-0.55,5.88,0.13"/>
					<path id="kvg:094b1-s8" kvg:type="㇂" d="M57.77,11.5c1.64,1.83,2.31,2.33,2.66,6.26c3.07,34.36,11.2,61.49,30.27,75.67c6.04,4.49,5.28,0.78,4.46-7.31"/>
				</g>
				<g id="kvg:094b1-g7" kvg:element="丿">
					<path id="kvg:094b1-s9" kvg:type="㇒" d="M86.95,60.63c0.1,0.8-0.04,2.07-0.45,3.22c-2.4,6.78-15.26,22.53-34.95,31.52"/>
				</g>
				<g id="kvg:094b1-g8" kvg:element="弋" kvg:part="2">
					<g id="kvg:094b1-g9" kvg:element="丶">
						<path id="kvg:094b1-s10" kvg:type="㇔" d="M72.87,13.03c2.91,1.5,7.06,4.44,8.41,7.02"/>
					</g>
				</g>
			</g>
		</g>
	</g>
</g>
</g>
<g id="kvg:StrokeNumbers_094b1" style="font-size:8;fill:#808080">
	<text transform="matrix(1 0 0 1 19.25 19.63)">1</text>
	<text transform="matrix(1 0 0 1 32.25 23.13)">2</text>
	<text transform="matrix(1 0 0 1 6.50 40.55)">3</text>
	<text transform="matrix(1 0 0 1 6.50 60.98)">4</text>
	<text transform="matrix(1 0 0 1 25.25 42.13)">5</text>
	<text transform="matrix(1 0 0 1 49.20 30.50)">6</text>
	<text transform="matrix(1 0 0 1 50.50 50.50)">7</text>
	<text transform="matrix(1 0 0 1 47.50 12.50)">8</text>
	<text transform="matrix(1 0 0 1 76.50 64.50)">9</text>
	<text transform="matrix(1 0 0 1 63.50 12.50)">10</text>
</g>
</svg>
