<?xml version="1.0" encoding="UTF-8"?>
<!--
Copyright (C) 2016 François Mizessyn.
This work makes an extensive use of kanjiVG Copyright (C) 2009/2010/2011 Ulrich Apel.
This work is distributed under the conditions of the Creative Commons
Attribution-Share Alike 3.0 Licence. This means you are free:
* to Share - to copy, distribute and transmit the work
* to Remix - to adapt the work

Under the following conditions:
* Attribution. You must attribute the work by stating your use of HanjiVG in
  your own copyright header and linking to HanjiVG's website
  (http://gooo.free.fr/hanziVG/)
* Attribution. You must attribute the work by stating your use of KanjiVG in
  your own copyright header and linking to KanjiVG's website
  (http://kanjivg.tagaini.net)
* Share Alike. If you alter, transform, or build upon this work, you may
  distribute the resulting work only under the same or similar license to this
  one.

See http://creativecommons.org/licenses/by-sa/3.0/ for more details.
-->
<!DOCTYPE svg PUBLIC "-//W3C//DTD SVG 1.0//EN" "http://www.w3.org/TR/2001/REC-SVG-20010904/DTD/svg10.dtd" [
<!ATTLIST g
xmlns:kvg CDATA #FIXED "http://kanjivg.tagaini.net"
kvg:element CDATA #IMPLIED
kvg:variant CDATA #IMPLIED
kvg:partial CDATA #IMPLIED
kvg:original CDATA #IMPLIED
kvg:part CDATA #IMPLIED
kvg:number CDATA #IMPLIED
kvg:tradForm CDATA #IMPLIED
kvg:radicalForm CDATA #IMPLIED
kvg:position CDATA #IMPLIED
kvg:radical CDATA #IMPLIED
kvg:phon CDATA #IMPLIED >
<!ATTLIST path
xmlns:kvg CDATA #FIXED "http://kanjivg.tagaini.net"
kvg:type CDATA #IMPLIED >
]>
<svg xmlns="http://www.w3.org/2000/svg" width="109" height="109" viewBox="0 0 109 109">
<g id="kvg:StrokePaths_094c1" style="fill:none;stroke:#000000;stroke-width:3;stroke-linecap:round;stroke-linejoin:round;">
<g id="kvg:094c1" kvg:element="铁">
	<g id="kvg:094c1-g1" kvg:element="钅" kvg:original="金" kvg:position="left" kvg:radical="general">
		<path id="kvg:094c1-s1" kvg:type="㇒" d="m30.66 15.48c0 1.39 -0.1 2.56 -0.59 3.87c-2.45 6.59 -13.14 23.63 -18.09 28.02"/>
		<path id="kvg:094c1-s2" kvg:type="㇐" d="m25.97 28.1c1.63 0.2 0.99 0.44 2.75 0.2c4.32 -0.6 11.02 -1.6 18.23 -2.54"/>
		<path id="kvg:094c1-s3" kvg:type="㇐" d="m17.19 45.68c2.05 0.25 1.24 0.55 3.44 0.25c5.4 -0.75 13.77 -2 22.78 -3.17"/>
		<path id="kvg:094c1-s4" kvg:type="㇐" d="m12.5 63.73c2.46 0.25 1.5 0.55 4.13 0.25c6.49 -0.75 16.51 -2 27.34 -3.17"/>
		<path id="kvg:094c1-s5" d="m30.35 45.35c1.29 0.82 0.25 0.55 1.29 3.3c0 4.57 0.64 34.26 -1.36 47.23c-1.95 -0.65 5 -7.68 13.88 -13.78"/>
	</g>
	<g id="kvg:094c1-g2" kvg:element="失" kvg:position="right">
		<g id="kvg:094c1-g3" kvg:element="丿">
			<path id="kvg:094c1-s6" kvg:type="㇒" d="m60.89 22.08c0.02 0.61 0.06 1.57 -0.05 2.45c-0.62 5.16 -4.22 16.49 -9.13 23.42"/>
		</g>
		<g id="kvg:094c1-g4" kvg:element="夫">
			<path id="kvg:094c1-s7" kvg:type="㇐" d="m59.33 37.41c0.63 0.39 1.77 0.47 2.41 0.39c8.69 -1.1 17.06 -3.29 23.08 -4.96c1.02 -0.28 3.59 0.18 4.11 0.38"/>
			<g id="kvg:094c1-g5" kvg:element="大">
				<path id="kvg:094c1-s8" kvg:type="㇐" d="m49.66 58.43c1.59 0.13 3.66 0.32 4.29 0.27c7.98 -0.69 33.17 -4.25 38.78 -4.15c1.04 0.02 3.56 0.13 4.08 0.26"/>
				<path id="kvg:094c1-s9" kvg:type="㇒" d="m71.92 14.5c0.35 1.23 0.5 2.38 0.5 4.78c0 50.77 -6.41 64.72 -20.61 75.97"/>
				<path id="kvg:094c1-s10" kvg:type="㇏" d="m71.11 56.59c6.24 11.74 14.7 28.98 20.91 35.44c1.81 1.88 3.03 2.8 3.77 3.03"/>
			</g>
		</g>
	</g>
</g>
</g>
<g id="kvg:StrokeNumbers_094c1" style="font-size:8;fill:#808080">
	<text transform="matrix(1 0 0 1 19.25 19.63)">1</text>
	<text transform="matrix(1 0 0 1 32.25 23.13)">2</text>
	<text transform="matrix(1 0 0 1 6.50 40.55)">3</text>
	<text transform="matrix(1 0 0 1 6.50 60.98)">4</text>
	<text transform="matrix(1 0 0 1 25.25 42.13)">5</text>
	<text transform="matrix(1 0 0 1 50.50 22.50)">6</text>
	<text transform="matrix(1 0 0 1 49.50 38.50)">7</text>
	<text transform="matrix(1 0 0 1 40.50 57.50)">8</text>
	<text transform="matrix(1 0 0 1 63.50 12.50)">9</text>
	<text transform="matrix(1 0 0 1 76.50 69.18)">10</text>
</g>
</svg>
