<?xml version="1.0" encoding="UTF-8"?>
<!--
Copyright (C) 2016 François Mizessyn.
This work makes an extensive use of kanjiVG Copyright (C) 2009/2010/2011 Ulrich Apel.
This work is distributed under the conditions of the Creative Commons
Attribution-Share Alike 3.0 Licence. This means you are free:
* to Share - to copy, distribute and transmit the work
* to Remix - to adapt the work

Under the following conditions:
* Attribution. You must attribute the work by stating your use of HanjiVG in
  your own copyright header and linking to HanjiVG's website
  (http://gooo.free.fr/hanziVG/)
* Attribution. You must attribute the work by stating your use of KanjiVG in
  your own copyright header and linking to KanjiVG's website
  (http://kanjivg.tagaini.net)
* Share Alike. If you alter, transform, or build upon this work, you may
  distribute the resulting work only under the same or similar license to this
  one.

See http://creativecommons.org/licenses/by-sa/3.0/ for more details.
-->
<!DOCTYPE svg PUBLIC "-//W3C//DTD SVG 1.0//EN" "http://www.w3.org/TR/2001/REC-SVG-20010904/DTD/svg10.dtd" [
<!ATTLIST g
xmlns:kvg CDATA #FIXED "http://kanjivg.tagaini.net"
kvg:element CDATA #IMPLIED
kvg:variant CDATA #IMPLIED
kvg:partial CDATA #IMPLIED
kvg:original CDATA #IMPLIED
kvg:part CDATA #IMPLIED
kvg:number CDATA #IMPLIED
kvg:tradForm CDATA #IMPLIED
kvg:radicalForm CDATA #IMPLIED
kvg:position CDATA #IMPLIED
kvg:radical CDATA #IMPLIED
kvg:phon CDATA #IMPLIED >
<!ATTLIST path
xmlns:kvg CDATA #FIXED "http://kanjivg.tagaini.net"
kvg:type CDATA #IMPLIED >
]>
<svg xmlns="http://www.w3.org/2000/svg" width="109" height="109" viewBox="0 0 109 109">
<g id="kvg:StrokePaths_094c5" style="fill:none;stroke:#000000;stroke-width:3;stroke-linecap:round;stroke-linejoin:round;">
<g id="kvg:094c5" kvg:element="铅">
	<g id="kvg:094c5-g1" kvg:element="钅" kvg:original="金" kvg:position="left" kvg:radical="general">
		<path id="kvg:094c5-s1" kvg:type="㇒" d="m30.66 15.48c0 1.39 -0.1 2.56 -0.59 3.87c-2.45 6.59 -13.14 23.63 -18.09 28.02"/>
		<path id="kvg:094c5-s2" kvg:type="㇐" d="m25.97 28.1c1.63 0.2 0.99 0.44 2.75 0.2c4.32 -0.6 11.02 -1.6 18.23 -2.54"/>
		<path id="kvg:094c5-s3" kvg:type="㇐" d="m17.19 45.68c2.05 0.25 1.24 0.55 3.44 0.25c5.4 -0.75 13.77 -2 22.78 -3.17"/>
		<path id="kvg:094c5-s4" kvg:type="㇐" d="m12.5 63.73c2.46 0.25 1.5 0.55 4.13 0.25c6.49 -0.75 16.51 -2 27.34 -3.17"/>
		<path id="kvg:094c5-s5" d="m30.35 45.35c1.29 0.82 0.25 0.55 1.29 3.3c0 4.57 0.64 34.26 -1.36 47.23c-1.95 -0.65 5 -7.68 13.88 -13.78"/>
	</g>
	<g id="kvg:094c5-g2" kvg:element="㕣" kvg:position="right" kvg:phon="㕣">
		<g id="kvg:094c5-g3" kvg:element="几" kvg:position="top">
			<g id="kvg:094c5-g4" kvg:element="丿">
				<path id="kvg:094c5-s6" kvg:type="㇒" d="M58.58,21.25c0.83,0.83,1.21,2.32,1.19,3.49c-0.15,12.01-3.21,23.9-10.43,29.27"/>
			</g>
			<path id="kvg:094c5-s7" kvg:type="㇈b" d="M61.01,23.07c5.49-0.82,11.69-2.14,16.23-3.51c2.52-0.76,4.63,0.32,3.7,3.26c-1.23,3.85-1.74,9.31-1.74,13.32c0,6.73,2.17,9.07,9.61,9.07c8.32,0,9.86-1.34,9.86-9.04"/>
		</g>
		<g id="kvg:094c5-g5" kvg:element="口" kvg:position="bottom">
			<path id="kvg:094c5-s8" kvg:type="㇑" d="M55,63.06c0.74,1.03,1.15,2.17,1.23,3.44c0.91,4.77,2.04,13.25,2.74,20.49c0.17,1.75,0.33,3.44,0.47,4.98"/>
			<path id="kvg:094c5-s9" kvg:type="㇕b" d="M56.84,64.25c10.14-1.82,20.42-2.97,25.42-3.57c3.2-0.38,5.44,0.74,4.89,4.21c-0.94,5.99-2.28,13.48-3.74,20.19"/>
			<path id="kvg:094c5-s10" kvg:type="㇐b" d="M60.52,88.95c7.01-0.79,13.63-1.36,20.75-1.98c1.49-0.13,2.98-0.25,4.44-0.36"/>
		</g>
	</g>
</g>
</g>
<g id="kvg:StrokeNumbers_094c5" style="font-size:8;fill:#808080">
	<text transform="matrix(1 0 0 1 19.25 19.63)">1</text>
	<text transform="matrix(1 0 0 1 32.25 23.13)">2</text>
	<text transform="matrix(1 0 0 1 6.50 40.55)">3</text>
	<text transform="matrix(1 0 0 1 6.50 60.98)">4</text>
	<text transform="matrix(1 0 0 1 25.25 42.13)">5</text>
	<text transform="matrix(1 0 0 1 47.75 28.63)">6</text>
	<text transform="matrix(1 0 0 1 57.50 19.63)">7</text>
	<text transform="matrix(1 0 0 1 47.50 73.50)">8</text>
	<text transform="matrix(1 0 0 1 57.50 60.13)">9</text>
	<text transform="matrix(1 0 0 1 62.50 85.50)">10</text>
</g>
</svg>
