<?xml version="1.0" encoding="UTF-8"?>
<!--
Copyright (C) 2016 François Mizessyn.
This work makes an extensive use of kanjiVG Copyright (C) 2009/2010/2011 Ulrich Apel.
This work is distributed under the conditions of the Creative Commons
Attribution-Share Alike 3.0 Licence. This means you are free:
* to Share - to copy, distribute and transmit the work
* to Remix - to adapt the work

Under the following conditions:
* Attribution. You must attribute the work by stating your use of HanjiVG in
  your own copyright header and linking to HanjiVG's website
  (http://gooo.free.fr/hanziVG/)
* Attribution. You must attribute the work by stating your use of KanjiVG in
  your own copyright header and linking to KanjiVG's website
  (http://kanjivg.tagaini.net)
* Share Alike. If you alter, transform, or build upon this work, you may
  distribute the resulting work only under the same or similar license to this
  one.

See http://creativecommons.org/licenses/by-sa/3.0/ for more details.
-->
<!DOCTYPE svg PUBLIC "-//W3C//DTD SVG 1.0//EN" "http://www.w3.org/TR/2001/REC-SVG-20010904/DTD/svg10.dtd" [
<!ATTLIST g
xmlns:kvg CDATA #FIXED "http://kanjivg.tagaini.net"
kvg:element CDATA #IMPLIED
kvg:variant CDATA #IMPLIED
kvg:partial CDATA #IMPLIED
kvg:original CDATA #IMPLIED
kvg:part CDATA #IMPLIED
kvg:number CDATA #IMPLIED
kvg:tradForm CDATA #IMPLIED
kvg:radicalForm CDATA #IMPLIED
kvg:position CDATA #IMPLIED
kvg:radical CDATA #IMPLIED
kvg:phon CDATA #IMPLIED >
<!ATTLIST path
xmlns:kvg CDATA #FIXED "http://kanjivg.tagaini.net"
kvg:type CDATA #IMPLIED >
]>
<svg xmlns="http://www.w3.org/2000/svg" width="109" height="109" viewBox="0 0 109 109">
<g id="kvg:StrokePaths_094f6" style="fill:none;stroke:#000000;stroke-width:3;stroke-linecap:round;stroke-linejoin:round;">
<g id="kvg:094f6" kvg:element="银">
	<g id="kvg:094f6-g1" kvg:element="钅" kvg:original="金" kvg:position="left" kvg:radical="general">
		<path id="kvg:094f6-s1" kvg:type="㇒" d="m30.66 15.48c0 1.39 -0.1 2.56 -0.59 3.87c-2.45 6.59 -13.14 23.63 -18.09 28.02"/>
		<path id="kvg:094f6-s2" kvg:type="㇐" d="m25.97 28.1c1.63 0.2 0.99 0.44 2.75 0.2c4.32 -0.6 11.02 -1.6 18.23 -2.54"/>
		<path id="kvg:094f6-s3" kvg:type="㇐" d="m17.19 45.68c2.05 0.25 1.24 0.55 3.44 0.25c5.4 -0.75 13.77 -2 22.78 -3.17"/>
		<path id="kvg:094f6-s4" kvg:type="㇐" d="m12.5 63.73c2.46 0.25 1.5 0.55 4.13 0.25c6.49 -0.75 16.51 -2 27.34 -3.17"/>
		<path id="kvg:094f6-s5" d="m30.35 45.35c1.29 0.82 0.25 0.55 1.29 3.3c0 4.57 0.64 34.26 -1.36 47.23c-1.95 -0.65 5 -7.68 13.88 -13.78"/>
	</g>
	<g id="kvg:094f6-g2" kvg:element="艮" kvg:position="right">
		<path id="kvg:094f6-s6" kvg:type="㇕" d="M53.19,21.84c1.81,0.79,4.98,0.86,6.42,0.59c5.21-0.99,12.18-2.18,16.36-2.88c2.8-0.47,4.28,0.83,4.15,3.21c-0.26,4.63-1.23,13.89-2.04,19.9c-0.09,0.67-0.68,4.48-0.83,5.11"/>
		<path id="kvg:094f6-s7" kvg:type="㇐a" d="M56.11,36c4.82-0.55,17.25-2.73,21.89-3.17"/>
		<path id="kvg:094f6-s8" kvg:type="㇐a" d="M56.26,48.89c7.36-1.52,12.97-2.15,20.15-3"/>
		<path id="kvg:094f6-s9" kvg:type="㇙" d="M53.44,22.34c0.98,0.98,1.46,2.46,1.46,3.59c0,5.32-0.03,57.86-0.03,60.61c0,5.08,0.62,5.83,4.12,2.33c2.3-2.3,6.75-7.52,8.94-10"/>
		<path id="kvg:094f6-s10" kvg:type="㇒" d="M85.1,49.19c0,1.13-0.53,2.62-1.56,3.54C81.12,54.88,72.75,61,70,62.5"/>
		<path id="kvg:094f6-s11" kvg:type="㇏" d="M57.19,57.81c4.45,0,22.55,21.18,30.17,26.32c3.74,2.52,5.69,3.46,8.14,4.03"/>
	</g>
</g>
</g>
<g id="kvg:StrokeNumbers_094f6" style="font-size:8;fill:#808080">
	<text transform="matrix(1 0 0 1 19.25 19.63)">1</text>
	<text transform="matrix(1 0 0 1 32.25 23.13)">2</text>
	<text transform="matrix(1 0 0 1 6.50 40.55)">3</text>
	<text transform="matrix(1 0 0 1 6.50 60.98)">4</text>
	<text transform="matrix(1 0 0 1 25.25 42.13)">5</text>
	<text transform="matrix(1 0 0 1 55.50 19.50)">6</text>
	<text transform="matrix(1 0 0 1 58.24 31.39)">7</text>
	<text transform="matrix(1 0 0 1 58.50 45.19)">8</text>
	<text transform="matrix(1 0 0 1 45.50 28.50)">9</text>
	<text transform="matrix(1 0 0 1 84.75 47.13)">10</text>
	<text transform="matrix(1 0 0 1 60.50 57.50)">11</text>
</g>
</svg>
