<?xml version="1.0" encoding="UTF-8"?>
<!--
Copyright (C) 2016 François Mizessyn.
This work makes an extensive use of kanjiVG Copyright (C) 2009/2010/2011 Ulrich Apel.
This work is distributed under the conditions of the Creative Commons
Attribution-Share Alike 3.0 Licence. This means you are free:
* to Share - to copy, distribute and transmit the work
* to Remix - to adapt the work

Under the following conditions:
* Attribution. You must attribute the work by stating your use of HanjiVG in
  your own copyright header and linking to HanjiVG's website
  (http://gooo.free.fr/hanziVG/)
* Attribution. You must attribute the work by stating your use of KanjiVG in
  your own copyright header and linking to KanjiVG's website
  (http://kanjivg.tagaini.net)
* Share Alike. If you alter, transform, or build upon this work, you may
  distribute the resulting work only under the same or similar license to this
  one.

See http://creativecommons.org/licenses/by-sa/3.0/ for more details.
-->
<!DOCTYPE svg PUBLIC "-//W3C//DTD SVG 1.0//EN" "http://www.w3.org/TR/2001/REC-SVG-20010904/DTD/svg10.dtd" [
<!ATTLIST g
xmlns:kvg CDATA #FIXED "http://kanjivg.tagaini.net"
kvg:element CDATA #IMPLIED
kvg:variant CDATA #IMPLIED
kvg:partial CDATA #IMPLIED
kvg:original CDATA #IMPLIED
kvg:part CDATA #IMPLIED
kvg:number CDATA #IMPLIED
kvg:tradForm CDATA #IMPLIED
kvg:radicalForm CDATA #IMPLIED
kvg:position CDATA #IMPLIED
kvg:radical CDATA #IMPLIED
kvg:phon CDATA #IMPLIED >
<!ATTLIST path
xmlns:kvg CDATA #FIXED "http://kanjivg.tagaini.net"
kvg:type CDATA #IMPLIED >
]>
<svg xmlns="http://www.w3.org/2000/svg" width="109" height="109" viewBox="0 0 109 109">
<g id="kvg:StrokePaths_0952e" style="fill:none;stroke:#000000;stroke-width:3;stroke-linecap:round;stroke-linejoin:round;">
<g id="kvg:0952e" kvg:element="键">
	<g id="kvg:0952e-g1" kvg:element="钅" kvg:original="金" kvg:position="left" kvg:radical="general">
		<path id="kvg:0952e-s1" kvg:type="㇒" d="m25.72 15.48c0 1.39 -0.07 2.56 -0.41 3.87c-1.7 6.59 -9.14 23.63 -12.58 28.02"/>
		<path id="kvg:0952e-s2" kvg:type="㇐" d="m22.46 28.1c1.14 0.2 0.69 0.44 1.91 0.2c3.01 -0.6 7.66 -1.6 10.68 -2.54"/>
		<path id="kvg:0952e-s3" kvg:type="㇐" d="m16.35 45.68c1.42 0.25 0.86 0.55 2.39 0.25c3.76 -0.75 9.58 -2 15.85 -3.17"/>
		<path id="kvg:0952e-s4" kvg:type="㇐" d="m13.09 63.73c1.71 0.25 1.04 0.55 2.87 0.25c4.51 -0.75 11.49 -2 19.02 -3.17"/>
		<path id="kvg:0952e-s5" d="m25.5 45.35c0.9 0.82 0.18 0.55 0.9 3.3c0 4.57 0.45 34.26 -0.94 47.23c-1.36 -0.65 3.48 -7.68 9.66 -13.78"/>
	</g>
	<g id="kvg:0952e-g2" kvg:element="建" kvg:position="right">
		<g id="kvg:0952e-g3" kvg:element="聿">
			<g id="kvg:0952e-g4" kvg:element="⺕" kvg:original="彑">
				<path id="kvg:0952e-s6" kvg:type="㇕c" d="M62.42,23.95c2.35,0.33,4.04,0.29,6.33,0.07c5.74-0.55,12.51-1.9,17.5-2.42c3.23-0.34,4.75,0.52,4.27,3.93c-0.52,3.7-1.6,10.92-2.36,16.8"/>
				<path id="kvg:0952e-s7" kvg:type="㇐" d="M59.5,35.73c2.52,0.39,4.76,0.11,7.27-0.19c7.6-0.92,18.41-2.66,26.74-3.31c2.12-0.17,3.67-0.4,5.74,0.17"/>
				<path id="kvg:0952e-s8" kvg:type="㇐" d="M63.34,46.36c1.49,0.41,3.58,0.36,5.13,0.17c4.64-0.58,10.4-1.53,17.3-2.32c1.61-0.18,2.96-0.44,4.55-0.07"/>
			</g>
			<path id="kvg:0952e-s9" kvg:type="㇐" d="M64.33,56.67c1.55,0.72,3.82,0.23,5.43,0.08c5.37-0.5,12.03-1.55,17.39-2.17c1.78-0.21,3.86-0.31,5.6,0.18"/>
			<path id="kvg:0952e-s10" kvg:type="㇐" d="M61.81,68.59c1.72,0.85,4.39,0.5,6.2,0.24c7.95-1.15,15.7-2.03,22.37-2.48c2.19-0.15,4.38-0.42,6.52,0.22"/>
			<g id="kvg:0952e-g5" kvg:element="丨">
				<path id="kvg:0952e-s11" kvg:type="㇑" d="M75.21,12.75c0.83,0.83,1.21,2,1.21,3.31c0,0.66-0.03,39.65-0.04,57.07c0,3.86,0,6.66,0,7.75"/>
			</g>
		</g>
		<g id="kvg:0952e-g6" kvg:element="廴" kvg:position="nyo">
			<path id="kvg:0952e-s12" kvg:type="㇇" d="M42.3,25.04c1.45,0.33,2.79,0.17,3.88-0.3c1.1-0.47,3.76-1.75,6.89-3.17c2.18-0.99,3.15,0.16,2.63,1.62C53.81,28.5,48,42.5,45.09,48.98"/>
			<path id="kvg:0952e-s13" kvg:type="㇇a" d="M45.16,49.57c3.71-1.82,6.59-2.95,8.99-3.61c1.73-0.48,3.36-0.15,2.88,3.79c-1.92,15.6-7.4,35.66-18.78,44.13"/>
			<path id="kvg:0952e-s14" kvg:type="㇏" d="M43.77,64.01c3.55-0.16,19.73,17.12,39.49,26.74c4.88,2.38,6.49,3.13,12,4.26"/>
		</g>
	</g>
</g>
</g>
<g id="kvg:StrokeNumbers_0952e" style="font-size:8;fill:#808080">
	<text transform="matrix(1 0 0 1 16.25 19.63)">1</text>
	<text transform="matrix(1 0 0 1 32.25 23.13)">2</text>
	<text transform="matrix(1 0 0 1 6.50 40.55)">3</text>
	<text transform="matrix(1 0 0 1 6.50 60.98)">4</text>
	<text transform="matrix(1 0 0 1 25.25 42.13)">5</text>
	<text transform="matrix(1 0 0 1 61.50 21.50)">6</text>
	<text transform="matrix(1 0 0 1 58.50 33.50)">7</text>
	<text transform="matrix(1 0 0 1 62.75 44.50)">8</text>
	<text transform="matrix(1 0 0 1 62.75 56.50)">9</text>
	<text transform="matrix(1 0 0 1 61.50 68.50)">10</text>
	<text transform="matrix(1 0 0 1 66.50 12.50)">11</text>
	<text transform="matrix(1 0 0 1 42.00 22.00)">12</text>
	<text transform="matrix(1 0 0 1 45.00 45.75)">13</text>
	<text transform="matrix(1 0 0 1 42.00 61.50)">14</text>
</g>
</svg>
