<?xml version="1.0" encoding="UTF-8"?>
<!--
Copyright (C) 2016 François Mizessyn.
This work makes an extensive use of kanjiVG Copyright (C) 2009/2010/2011 Ulrich Apel.
This work is distributed under the conditions of the Creative Commons
Attribution-Share Alike 3.0 Licence. This means you are free:
* to Share - to copy, distribute and transmit the work
* to Remix - to adapt the work

Under the following conditions:
* Attribution. You must attribute the work by stating your use of HanjiVG in
  your own copyright header and linking to HanjiVG's website
  (http://gooo.free.fr/hanziVG/)
* Attribution. You must attribute the work by stating your use of KanjiVG in
  your own copyright header and linking to KanjiVG's website
  (http://kanjivg.tagaini.net)
* Share Alike. If you alter, transform, or build upon this work, you may
  distribute the resulting work only under the same or similar license to this
  one.

See http://creativecommons.org/licenses/by-sa/3.0/ for more details.
-->
<!DOCTYPE svg PUBLIC "-//W3C//DTD SVG 1.0//EN" "http://www.w3.org/TR/2001/REC-SVG-20010904/DTD/svg10.dtd" [
<!ATTLIST g
xmlns:kvg CDATA #FIXED "http://kanjivg.tagaini.net"
kvg:element CDATA #IMPLIED
kvg:variant CDATA #IMPLIED
kvg:partial CDATA #IMPLIED
kvg:original CDATA #IMPLIED
kvg:part CDATA #IMPLIED
kvg:number CDATA #IMPLIED
kvg:tradForm CDATA #IMPLIED
kvg:radicalForm CDATA #IMPLIED
kvg:position CDATA #IMPLIED
kvg:radical CDATA #IMPLIED
kvg:phon CDATA #IMPLIED >
<!ATTLIST path
xmlns:kvg CDATA #FIXED "http://kanjivg.tagaini.net"
kvg:type CDATA #IMPLIED >
]>
<svg xmlns="http://www.w3.org/2000/svg" width="109" height="109" viewBox="0 0 109 109">
<g id="kvg:StrokePaths_0953b" style="fill:none;stroke:#000000;stroke-width:3;stroke-linecap:round;stroke-linejoin:round;">
<g id="kvg:0953b" kvg:element="锻">
	<g id="kvg:0953b-g1" kvg:element="钅" kvg:original="金" kvg:position="left" kvg:radical="general">
		<path id="kvg:0953b-s1" kvg:type="㇒" d="m28.4 15.48c0 1.39 -0.09 2.56 -0.51 3.87c-2.13 6.59 -11.43 23.63 -15.73 28.02"/>
		<path id="kvg:0953b-s2" kvg:type="㇐" d="m24.32 28.1c1.42 0.2 0.86 0.44 2.39 0.2c3.76 -0.6 9.58 -1.6 13.85 -2.54"/>
		<path id="kvg:0953b-s3" kvg:type="㇐" d="m16.69 45.68c1.78 0.25 1.08 0.55 2.99 0.25c4.7 -0.75 11.97 -2 19.81 -3.17"/>
		<path id="kvg:0953b-s4" kvg:type="㇐" d="m12.61 63.73c2.14 0.25 1.3 0.55 3.59 0.25c5.64 -0.75 14.36 -2 23.77 -3.17"/>
		<path id="kvg:0953b-s5" d="m28.13 45.35c1.12 0.82 0.22 0.55 1.12 3.3c0 4.57 0.56 34.26 -1.18 47.23c-1.7 -0.65 4.35 -7.68 9.57 -11.28"/>
	</g>
	<g id="kvg:0953b-g2" kvg:element="段" kvg:position="right" kvg:phon="段">
		<g id="kvg:0953b-g3" kvg:position="left">
			<path id="kvg:0953b-s6" kvg:type="㇒" d="M61.06,15.5c0.09,0.85,0.09,1.45-0.39,2.14c-2.17,3.11-5.29,6.48-10.55,10.36"/>
			<path id="kvg:0953b-s7" kvg:type="㇑" d="M47.03,28.5c0.86,0.86,1.1,2,1.1,3.5c0,0.63,0.08,38.31,0.1,54.62c0,4.28,0.01,7.1,0,7.38"/>
			<path id="kvg:0953b-s8" kvg:type="㇐b" d="M49.52,42.47c4.66-0.67,9.74-2.06,10.6-2.16c0.97-0.12,1.98,0,2.84,0.22"/>
			<path id="kvg:0953b-s9" kvg:type="㇐b" d="M49.25,57c4.38-0.5,9.66-1.54,10.46-1.62c0.91-0.09,1.62,0,2.43,0.17"/>
			<path id="kvg:0953b-s10" kvg:type="㇀" d="M41.25,79.37c0.66,0.93,1.81,0.99,3.02,0.35c0.71-0.37,13.4-6.7,16.42-8.49"/>
		</g>
		<g id="kvg:0953b-g4" kvg:element="殳" kvg:position="right">
			<g id="kvg:0953b-g5" kvg:element="几" kvg:position="top">
				<g id="kvg:0953b-g6" kvg:element="丿">
					<path id="kvg:0953b-s11" kvg:type="㇒" d="M70.37,22.37c0.69,0.69,0.89,1.89,0.82,2.81C70.38,35.38,69.5,42,65.2,48.21"/>
				</g>
				<path id="kvg:0953b-s12" kvg:type="㇈b" d="M71.95,23.09c1.95-0.22,6.54-1.23,9.21-1.8c2.27-0.48,3.21,0.13,2.98,2.56c-0.29,3.21-0.8,8.4-0.8,11.61c0,5.74,1.1,7.16,6.27,7.16c4.09,0,5.17-1,5.17-6.17"/>
			</g>
			<g id="kvg:0953b-g7" kvg:element="又" kvg:position="bottom">
				<path id="kvg:0953b-s13" kvg:type="㇇" d="M66.81,53.74c1.97,0.54,3.64,0.19,5.61-0.31c2.66-0.67,9.36-2.16,11.95-2.83c2.2-0.58,4.23,0.76,3.28,3.32c-5.9,15.96-16.4,29.71-30.05,38.5"/>
				<path id="kvg:0953b-s14" kvg:type="㇏" d="M66.29,60.03C68.94,60.7,79.12,73.5,89.6,85.79c1.83,2.15,4.4,4.34,7.55,5.87"/>
			</g>
		</g>
	</g>
</g>
</g>
<g id="kvg:StrokeNumbers_0953b" style="font-size:8;fill:#808080">
	<text transform="matrix(1 0 0 1 19.25 19.63)">1</text>
	<text transform="matrix(1 0 0 1 32.25 23.13)">2</text>
	<text transform="matrix(1 0 0 1 6.50 40.55)">3</text>
	<text transform="matrix(1 0 0 1 6.50 60.98)">4</text>
	<text transform="matrix(1 0 0 1 25.25 42.13)">5</text>
	<text transform="matrix(1 0 0 1 53.25 16.63)">6</text>
	<text transform="matrix(1 0 0 1 38.50 42.05)">7</text>
	<text transform="matrix(1 0 0 1 50.50 37.63)">8</text>
	<text transform="matrix(1 0 0 1 50.50 52.50)">9</text>
	<text transform="matrix(1 0 0 1 33.75 87.50)">10</text>
	<text transform="matrix(1 0 0 1 60.75 28.63)">11</text>
	<text transform="matrix(1 0 0 1 71.50 19.50)">12</text>
	<text transform="matrix(1 0 0 1 67.75 49.55)">13</text>
	<text transform="matrix(1 0 0 1 69.50 62.98)">14</text>
</g>
</svg>
