<?xml version="1.0" encoding="UTF-8"?>
<!--
Copyright (C) 2016 François Mizessyn.
This work makes an extensive use of kanjiVG Copyright (C) 2009/2010/2011 Ulrich Apel.
This work is distributed under the conditions of the Creative Commons
Attribution-Share Alike 3.0 Licence. This means you are free:
* to Share - to copy, distribute and transmit the work
* to Remix - to adapt the work

Under the following conditions:
* Attribution. You must attribute the work by stating your use of HanjiVG in
  your own copyright header and linking to HanjiVG's website
  (http://gooo.free.fr/hanziVG/)
* Attribution. You must attribute the work by stating your use of KanjiVG in
  your own copyright header and linking to KanjiVG's website
  (http://kanjivg.tagaini.net)
* Share Alike. If you alter, transform, or build upon this work, you may
  distribute the resulting work only under the same or similar license to this
  one.

See http://creativecommons.org/licenses/by-sa/3.0/ for more details.
-->
<!DOCTYPE svg PUBLIC "-//W3C//DTD SVG 1.0//EN" "http://www.w3.org/TR/2001/REC-SVG-20010904/DTD/svg10.dtd" [
<!ATTLIST g
xmlns:kvg CDATA #FIXED "http://kanjivg.tagaini.net"
kvg:element CDATA #IMPLIED
kvg:variant CDATA #IMPLIED
kvg:partial CDATA #IMPLIED
kvg:original CDATA #IMPLIED
kvg:part CDATA #IMPLIED
kvg:number CDATA #IMPLIED
kvg:tradForm CDATA #IMPLIED
kvg:radicalForm CDATA #IMPLIED
kvg:position CDATA #IMPLIED
kvg:radical CDATA #IMPLIED
kvg:phon CDATA #IMPLIED >
<!ATTLIST path
xmlns:kvg CDATA #FIXED "http://kanjivg.tagaini.net"
kvg:type CDATA #IMPLIED >
]>
<svg xmlns="http://www.w3.org/2000/svg" width="109" height="109" viewBox="0 0 109 109">
<g id="kvg:StrokePaths_0955c" style="fill:none;stroke:#000000;stroke-width:3;stroke-linecap:round;stroke-linejoin:round;">
<g id="kvg:0955c" kvg:element="镜">
	<g id="kvg:0955c-g1" kvg:element="钅" kvg:original="金" kvg:position="left" kvg:radical="general">
		<path id="kvg:0955c-s1" kvg:type="㇒" d="m28.4 15.48c0 1.39 -0.09 2.56 -0.51 3.87c-2.13 6.59 -11.43 23.63 -15.73 28.02"/>
		<path id="kvg:0955c-s2" kvg:type="㇐" d="m24.32 28.1c1.42 0.2 0.86 0.44 2.39 0.2c3.76 -0.6 9.58 -1.6 15.85 -2.54"/>
		<path id="kvg:0955c-s3" kvg:type="㇐" d="m16.69 45.68c1.78 0.25 1.08 0.55 2.99 0.25c4.7 -0.75 11.97 -2 19.81 -3.17"/>
		<path id="kvg:0955c-s4" kvg:type="㇐" d="m12.61 63.73c2.14 0.25 1.3 0.55 3.59 0.25c5.64 -0.75 14.36 -2 23.77 -3.17"/>
		<path id="kvg:0955c-s5" d="m28.13 45.35c1.12 0.82 0.22 0.55 1.12 3.3c0 4.57 0.56 34.26 -1.18 47.23c-1.7 -0.65 4.35 -7.68 12.07 -13.78"/>
	</g>
	<g id="kvg:0955c-g2" kvg:element="竟" kvg:position="right" kvg:phon="竟">
		<g id="kvg:0955c-g3" kvg:element="立" kvg:position="top">
			<g id="kvg:0955c-g4" kvg:element="音" kvg:part="1">
				<g id="kvg:0955c-g5" kvg:element="亠" kvg:position="top">
					<path id="kvg:0955c-s6" kvg:type="㇑a" d="M66.58,12.25c0.77,0.77,1.31,1.95,1.31,3.01c0,1.06,0,4.2,0,7.07"/>
					<path id="kvg:0955c-s7" kvg:type="㇐" d="M52.67,24.81c1.65,0.4,3.43,0.17,5.1-0.01c5.58-0.61,16.07-2.57,22.6-3.05c1.76-0.13,3.51-0.18,5.27,0.07"/>
				</g>
				<g id="kvg:0955c-g6" kvg:position="bottom">
					<path id="kvg:0955c-s8" kvg:type="㇔" d="M57.62,28.25c2.38,3.2,3.46,6.48,3.67,8.59"/>
					<path id="kvg:0955c-s9" kvg:type="㇒" d="M79.08,24.08c0.42,0.67,0.32,1.78,0.2,2.34c-0.38,1.85-2.28,5.65-4.37,9.42"/>
					<path id="kvg:0955c-s10" kvg:type="㇐" d="M47.27,40.48c2.36,0.27,4.08,0.17,6.13-0.05c9.82-1.02,22.3-2.81,33.35-3.47c2.35-0.14,4.65-0.26,6.98,0.07"/>
				</g>
			</g>
		</g>
		<g id="kvg:0955c-g7" kvg:position="bottom">
			<g id="kvg:0955c-g8" kvg:element="音" kvg:part="2">
				<g id="kvg:0955c-g9" kvg:element="日">
					<path id="kvg:0955c-s11" kvg:type="㇑" d="M53,48.5c0.76,0.89,1.05,1.9,1.21,3c0.42,2.86,1.56,10.4,2.17,14.5c0.23,1.58,0.39,2.65,0.39,2.73"/>
					<path id="kvg:0955c-s12" kvg:type="㇕a" d="M54.75,49.98c7.25-1.48,19.13-3.23,26.91-4.23c3.21-0.41,4.96,0.16,4.38,3.75c-0.56,3.4-1.6,9.24-3.12,14.28c-0.31,1.02-0.63,2-0.98,2.93"/>
					<path id="kvg:0955c-s13" kvg:type="㇐a" d="M56.49,58.17c6.26-1.05,23.95-3.79,27.39-3.99"/>
					<path id="kvg:0955c-s14" kvg:type="㇐a" d="M57.95,66.62c6.21-0.69,16.04-2.37,23.78-3.1"/>
				</g>
			</g>
			<g id="kvg:0955c-g10" kvg:element="儿">
				<g id="kvg:0955c-g11" kvg:element="丿" kvg:position="left">
					<path id="kvg:0955c-s15" kvg:type="㇒" d="M61.22,73.37c0.05,0.55,0.12,1.43-0.11,2.23C59.8,80.3,52.62,90.38,42,96.92"/>
				</g>
				<g id="kvg:0955c-g12" kvg:position="right">
					<path id="kvg:0955c-s16" kvg:type="㇟" d="M72.28,69.87c0.68,0.68,1.07,1.47,1.1,2.69C73.5,78,73.3,83.04,73.3,86.75c0,6,1.45,7.66,10.92,7.66c9.9,0,10.92-1.28,10.92-6.32"/>
				</g>
			</g>
		</g>
	</g>
</g>
</g>
<g id="kvg:StrokeNumbers_0955c" style="font-size:8;fill:#808080">
	<text transform="matrix(1 0 0 1 19.25 19.63)">1</text>
	<text transform="matrix(1 0 0 1 32.25 23.13)">2</text>
	<text transform="matrix(1 0 0 1 6.50 40.55)">3</text>
	<text transform="matrix(1 0 0 1 6.50 60.98)">4</text>
	<text transform="matrix(1 0 0 1 25.25 42.13)">5</text>
	<text transform="matrix(1 0 0 1 58.50 11.50)">6</text>
	<text transform="matrix(1 0 0 1 50.50 21.50)">7</text>
	<text transform="matrix(1 0 0 1 49.50 32.50)">8</text>
	<text transform="matrix(1 0 0 1 68.50 30.50)">9</text>
	<text transform="matrix(1 0 0 1 45.50 38.50)">10</text>
	<text transform="matrix(1 0 0 1 45.50 57.50)">11</text>
	<text transform="matrix(1 0 0 1 54.50 47.50)">12</text>
	<text transform="matrix(1 0 0 1 59.00 55.50)">13</text>
	<text transform="matrix(1 0 0 1 60.50 64.50)">14</text>
	<text transform="matrix(1 0 0 1 50.50 77.50)">15</text>
	<text transform="matrix(1 0 0 1 75.50 78.28)">16</text>
</g>
</svg>
