<?xml version="1.0" encoding="UTF-8"?>
<!--
Copyright (C) 2016 François Mizessyn.
This work makes an extensive use of kanjiVG Copyright (C) 2009/2010/2011 Ulrich Apel.
This work is distributed under the conditions of the Creative Commons
Attribution-Share Alike 3.0 Licence. This means you are free:
* to Share - to copy, distribute and transmit the work
* to Remix - to adapt the work

Under the following conditions:
* Attribution. You must attribute the work by stating your use of HanjiVG in
  your own copyright header and linking to HanjiVG's website
  (http://gooo.free.fr/hanziVG/)
* Attribution. You must attribute the work by stating your use of KanjiVG in
  your own copyright header and linking to KanjiVG's website
  (http://kanjivg.tagaini.net)
* Share Alike. If you alter, transform, or build upon this work, you may
  distribute the resulting work only under the same or similar license to this
  one.

See http://creativecommons.org/licenses/by-sa/3.0/ for more details.
-->
<!DOCTYPE svg PUBLIC "-//W3C//DTD SVG 1.0//EN" "http://www.w3.org/TR/2001/REC-SVG-20010904/DTD/svg10.dtd" [
<!ATTLIST g
xmlns:kvg CDATA #FIXED "http://kanjivg.tagaini.net"
kvg:element CDATA #IMPLIED
kvg:variant CDATA #IMPLIED
kvg:partial CDATA #IMPLIED
kvg:original CDATA #IMPLIED
kvg:part CDATA #IMPLIED
kvg:number CDATA #IMPLIED
kvg:tradForm CDATA #IMPLIED
kvg:radicalForm CDATA #IMPLIED
kvg:position CDATA #IMPLIED
kvg:radical CDATA #IMPLIED
kvg:phon CDATA #IMPLIED >
<!ATTLIST path
xmlns:kvg CDATA #FIXED "http://kanjivg.tagaini.net"
kvg:type CDATA #IMPLIED >
]>
<svg xmlns="http://www.w3.org/2000/svg" width="109" height="109" viewBox="0 0 109 109">
<g id="kvg:StrokePaths_0957f" style="fill:none;stroke:#000000;stroke-width:3;stroke-linecap:round;stroke-linejoin:round;">
<g id="kvg:0957f" kvg:element="长">
	<path id="kvg:0957f-s1" kvg:type="㇒" d="M80.25,16.74c0,0,0,0,-2,3c-2,2,-4,4,-27.43,24.69"/>
	<path id="kvg:0957f-s2" kvg:type="㇐b" d="M15.22,54.21c9.75-1.32,29.28-2.46,78.62-3.12"/>
	<path id="kvg:0957f-s3" d="M32.95,18.19c1.24,0.78,0.24,0.52,1.24,3.14c0,4.35,0.62,32.63-1.31,74.98c5.88-5.62,10.5-10.6,18.38-14.12"/>
	<path id="kvg:0957f-s4" kvg:type="㇏" d="m55.72 53.46c7.28 12.04 16.03 25.54 37.51 36"/>
</g>
</g>
<g id="kvg:StrokeNumbers_0957f" style="font-size:8;fill:#808080">
	<text transform="matrix(1 0 0 1 68.25 19.63)">1</text>
	<text transform="matrix(1 0 0 1 4.50 58.98)">2</text>
	<text transform="matrix(1 0 0 1 22.25 19.13)">3</text>
	<text transform="matrix(1 0 0 1 66.50 64.55)">4</text>
</g>
</svg>
