<?xml version="1.0" encoding="UTF-8"?>
<!--
Copyright (C) 2016 François Mizessyn.
This work makes an extensive use of kanjiVG Copyright (C) 2009/2010/2011 Ulrich Apel.
This work is distributed under the conditions of the Creative Commons
Attribution-Share Alike 3.0 Licence. This means you are free:
* to Share - to copy, distribute and transmit the work
* to Remix - to adapt the work

Under the following conditions:
* Attribution. You must attribute the work by stating your use of HanjiVG in
  your own copyright header and linking to HanjiVG's website
  (http://gooo.free.fr/hanziVG/)
* Attribution. You must attribute the work by stating your use of KanjiVG in
  your own copyright header and linking to KanjiVG's website
  (http://kanjivg.tagaini.net)
* Share Alike. If you alter, transform, or build upon this work, you may
  distribute the resulting work only under the same or similar license to this
  one.

See http://creativecommons.org/licenses/by-sa/3.0/ for more details.
-->
<!DOCTYPE svg PUBLIC "-//W3C//DTD SVG 1.0//EN" "http://www.w3.org/TR/2001/REC-SVG-20010904/DTD/svg10.dtd" [
<!ATTLIST g
xmlns:kvg CDATA #FIXED "http://kanjivg.tagaini.net"
kvg:element CDATA #IMPLIED
kvg:variant CDATA #IMPLIED
kvg:partial CDATA #IMPLIED
kvg:original CDATA #IMPLIED
kvg:part CDATA #IMPLIED
kvg:number CDATA #IMPLIED
kvg:tradForm CDATA #IMPLIED
kvg:radicalForm CDATA #IMPLIED
kvg:position CDATA #IMPLIED
kvg:radical CDATA #IMPLIED
kvg:phon CDATA #IMPLIED >
<!ATTLIST path
xmlns:kvg CDATA #FIXED "http://kanjivg.tagaini.net"
kvg:type CDATA #IMPLIED >
]>
<svg xmlns="http://www.w3.org/2000/svg" width="109" height="109" viewBox="0 0 109 109">
<g id="kvg:StrokePaths_095ee" style="fill:none;stroke:#000000;stroke-width:3;stroke-linecap:round;stroke-linejoin:round;">
<g id="kvg:095ee" kvg:element="问">
	<g id="kvg:095ee-g1" kvg:element="门" kvg:radical="general">
		<path id="kvg:095ee-s1" kvg:type="㇔" d="M25.42,13.75c2.51,1.37,8.97,9.11,9.5,11.67"/>
		<path id="kvg:095ee-s2" kvg:type="㇑" d="M23.94,29c0.74,0.76,0.95,2.46,0.95,4.04c0,16.29-0.36,41.89-0.36,62.84"/>
		<path id="kvg:095ee-s3" kvg:type="㇆a" d="M45,17.83c11.75-1.83,28.68-4.66,35-5.42c3.5-0.42,5.25,0.83,5.25,5.17c0,2.33,0.08,70.25,0.08,73.58c0,11.08-6.08,4.08-8.58,1.58"/>
	</g>
	<g id="kvg:095ee-g2" kvg:element="口" kvg:radical="tradit">
		<path id="kvg:095ee-s4" kvg:type="㇑" d="M36.25,42.11c0.88,0.64,1.62,1.76,1.87,2.92c0.92,4.35,1.84,11.03,2.61,17.07c0.15,1.17,0.29,2.31,0.43,3.41"/>
		<path id="kvg:095ee-s5" kvg:type="㇕b" d="M38.71,43.66c9.11-1.03,21.45-2.32,27.33-2.98c3.34-0.37,4.76,0.9,4.01,4.37c-0.9,4.17-1.73,8.1-3.59,14.23"/>
		<path id="kvg:095ee-s6" kvg:type="㇐b" d="M42.01,63.52c4.47-0.52,15.74-1.45,23.11-2.08c1.29-0.11,2.46-0.22,3.46-0.31"/>
	</g>
</g>
</g>
<g id="kvg:StrokeNumbers_095ee" style="font-size:8;fill:#808080">
	<text transform="matrix(1 0 0 1 15.50 15.63)">1</text>
	<text transform="matrix(1 0 0 1 10.50 32.50)">2</text>
	<text transform="matrix(1 0 0 1 36.75 13.63)">3</text>
	<text transform="matrix(1 0 0 1 28.50 51.50)">4</text>
	<text transform="matrix(1 0 0 1 39.50 41.50)">5</text>
	<text transform="matrix(1 0 0 1 42.50 59.50)">6</text>
</g>
</svg>
