<?xml version="1.0" encoding="UTF-8"?>
<!--
Copyright (C) 2016 François Mizessyn.
This work makes an extensive use of kanjiVG Copyright (C) 2009/2010/2011 Ulrich Apel.
This work is distributed under the conditions of the Creative Commons
Attribution-Share Alike 3.0 Licence. This means you are free:
* to Share - to copy, distribute and transmit the work
* to Remix - to adapt the work

Under the following conditions:
* Attribution. You must attribute the work by stating your use of HanjiVG in
  your own copyright header and linking to HanjiVG's website
  (http://gooo.free.fr/hanziVG/)
* Attribution. You must attribute the work by stating your use of KanjiVG in
  your own copyright header and linking to KanjiVG's website
  (http://kanjivg.tagaini.net)
* Share Alike. If you alter, transform, or build upon this work, you may
  distribute the resulting work only under the same or similar license to this
  one.

See http://creativecommons.org/licenses/by-sa/3.0/ for more details.
-->
<!DOCTYPE svg PUBLIC "-//W3C//DTD SVG 1.0//EN" "http://www.w3.org/TR/2001/REC-SVG-20010904/DTD/svg10.dtd" [
<!ATTLIST g
xmlns:kvg CDATA #FIXED "http://kanjivg.tagaini.net"
kvg:element CDATA #IMPLIED
kvg:variant CDATA #IMPLIED
kvg:partial CDATA #IMPLIED
kvg:original CDATA #IMPLIED
kvg:part CDATA #IMPLIED
kvg:number CDATA #IMPLIED
kvg:tradForm CDATA #IMPLIED
kvg:radicalForm CDATA #IMPLIED
kvg:position CDATA #IMPLIED
kvg:radical CDATA #IMPLIED
kvg:phon CDATA #IMPLIED >
<!ATTLIST path
xmlns:kvg CDATA #FIXED "http://kanjivg.tagaini.net"
kvg:type CDATA #IMPLIED >
]>
<svg xmlns="http://www.w3.org/2000/svg" width="109" height="109" viewBox="0 0 109 109">
<g id="kvg:StrokePaths_095fb" style="fill:none;stroke:#000000;stroke-width:3;stroke-linecap:round;stroke-linejoin:round;">
<g id="kvg:095fb" kvg:element="闻">
	<g id="kvg:095fb-g1" kvg:element="门" kvg:radical="general">
		<path id="kvg:095fb-s1" kvg:type="㇔" d="m22.96 13.75c2.76 1.37 9.87 9.11 10.45 11.67"/>
		<path id="kvg:095fb-s2" kvg:type="㇑" d="m21.33 29c0.81 0.76 1.05 2.46 1.05 4.04c0 16.29 -0.4 41.89 -0.4 62.84"/>
		<path id="kvg:095fb-s3" kvg:type="㇆a" d="m44.5 17.83c12.93 -1.83 31.55 -4.66 38.5 -5.42c3.85 -0.42 5.78 0.83 5.78 5.17c0 2.33 0.09 70.25 0.09 73.58c0 11.08 -6.69 4.08 -9.44 1.58"/>
	</g>
	<g id="kvg:095fb" kvg:element="耳" kvg:radical="general">
		<path id="kvg:095fb-s4" kvg:type="㇐" d="m29.79 36c2.3 0.68 4.69 0.46 7.02 0.17c11.11 -1.41 23.9 -3.16 36.57 -4.05c2.53 -0.18 5.01 -0.16 7.51 0.28"/>
		<path id="kvg:095fb-s5" kvg:type="㇑a" d="m42.27 38c0.84 0.88 1.24 2.17 1.24 3.78c0 1.28 -0.25 32.02 -0.25 33.22"/>
		<path id="kvg:095fb-s6" kvg:type="㇑" d="m68.36 34.8c0.76 0.8 1.33 2 1.33 3.4c0 0.84 0.13 35.78 0.17 51.8c0.01 2.99 0.02 5.31 0.02 6.6"/>
		<path id="kvg:095fb-s7" kvg:type="㇐a" d="m44.42 48.4c5.13 -0.7 18.24 -2.2 24.51 -2.6"/>
		<path id="kvg:095fb-s8" kvg:type="㇐a" d="m44.23 61c5.32 -0.4 18.72 -2.2 24.51 -2.4"/>
		<path id="kvg:095fb-s9" kvg:type="㇀" d="m30.51 76.8c0.57 0.9 1.53 1.45 2.85 1.2c5.32 -1 36.48 -7 44.65 -8.6"/>
	</g>
</g>
</g>
<g id="kvg:StrokeNumbers_095fb" style="font-size:8;fill:#808080">
	<text transform="matrix(1 0 0 1 13.50 14.63)">1</text>
	<text transform="matrix(1 0 0 1 10.50 32.50)">2</text>
	<text transform="matrix(1 0 0 1 36.75 15.63)">3</text>
	<text transform="matrix(1 0 0 1 27.50 33.50)">4</text>
	<text transform="matrix(1 0 0 1 31.50 50.50)">5</text>
	<text transform="matrix(1 0 0 1 72.50 46.50)">6</text>
	<text transform="matrix(1 0 0 1 45.50 45.50)">7</text>
	<text transform="matrix(1 0 0 1 45.50 58.00)">8</text>
	<text transform="matrix(1 0 0 1 29.50 74.50)">9</text>
</g>
</svg>
