<?xml version="1.0" encoding="UTF-8"?>
<!--
Copyright (C) 2016 François Mizessyn.
This work makes an extensive use of kanjiVG Copyright (C) 2009/2010/2011 Ulrich Apel.
This work is distributed under the conditions of the Creative Commons
Attribution-Share Alike 3.0 Licence. This means you are free:
* to Share - to copy, distribute and transmit the work
* to Remix - to adapt the work

Under the following conditions:
* Attribution. You must attribute the work by stating your use of HanjiVG in
  your own copyright header and linking to HanjiVG's website
  (http://gooo.free.fr/hanziVG/)
* Attribution. You must attribute the work by stating your use of KanjiVG in
  your own copyright header and linking to KanjiVG's website
  (http://kanjivg.tagaini.net)
* Share Alike. If you alter, transform, or build upon this work, you may
  distribute the resulting work only under the same or similar license to this
  one.

See http://creativecommons.org/licenses/by-sa/3.0/ for more details.
-->
<!DOCTYPE svg PUBLIC "-//W3C//DTD SVG 1.0//EN" "http://www.w3.org/TR/2001/REC-SVG-20010904/DTD/svg10.dtd" [
<!ATTLIST g
xmlns:kvg CDATA #FIXED "http://kanjivg.tagaini.net"
kvg:element CDATA #IMPLIED
kvg:variant CDATA #IMPLIED
kvg:partial CDATA #IMPLIED
kvg:original CDATA #IMPLIED
kvg:part CDATA #IMPLIED
kvg:number CDATA #IMPLIED
kvg:tradForm CDATA #IMPLIED
kvg:radicalForm CDATA #IMPLIED
kvg:position CDATA #IMPLIED
kvg:radical CDATA #IMPLIED
kvg:phon CDATA #IMPLIED >
<!ATTLIST path
xmlns:kvg CDATA #FIXED "http://kanjivg.tagaini.net"
kvg:type CDATA #IMPLIED >
]>
<svg xmlns="http://www.w3.org/2000/svg" width="109" height="109" viewBox="0 0 109 109">
<g id="kvg:StrokePaths_0961f" style="fill:none;stroke:#000000;stroke-width:3;stroke-linecap:round;stroke-linejoin:round;">
<g id="kvg:0961f" kvg:element="队">
	<g id="kvg:0961f-g1" kvg:element="⻖" kvg:variant="true" kvg:original="阜" kvg:position="left">
		<path id="kvg:0961f-s1" kvg:type="㇇" d="m13.2 17.06c1.32 0.22 2.82 0.79 4.38 0.49c9.27 -1.8 17.42 -4.75 20.7 -5.66c3.93 -1.09 5.21 2.43 3.87 5.33c-2.49 5.36 -6.48 12.92 -10.95 22.23"/>
		<path id="kvg:0961f-s2" kvg:type="㇕va" d="m31.2 39.42c17.77 16.02 11.36 40.21 0.9 27.74"/>
		<path id="kvg:0961f-s3" kvg:type="㇑" d="m18.99 18.16c1.03 1.22 1.92 3.07 1.92 5.45c0 0.71 0.06 44.44 0.06 63.53c0 5.83 0 9.71 -0.01 10.01"/>
	</g>
	<g id="kvg:0961f-g2" kvg:element="人" kvg:position="right">
		<path id="kvg:0961f-s4" kvg:type="㇒" d="M64.47,15.75c1.03,1.25,1.21,2.38,1.1,4.97C64.75,39.5,59,75.88,38,93.33"/>
		<path id="kvg:0961f-s5" kvg:type="㇏" d="M63.5,46.38C68.75,56,78.21,72.61,86.07,82.54c2.78,3.81,6.26,6.79,10.43,8.96"/>
	</g>
</g>
</g>
<g id="kvg:StrokeNumbers_0961f" style="font-size:8;fill:#808080">
	<text transform="matrix(1 0 0 1 4.54 19.25)">1</text>
	<text transform="matrix(1 0 0 1 12.54 14.25)">2</text>
	<text transform="matrix(1 0 0 1 35.54 42.25)">3</text>
	<text transform="matrix(1 0 0 1 55.42 25.48)">4</text>
	<text transform="matrix(1 0 0 1 66.25 50.74)">5</text>
</g>
</svg>
