<?xml version="1.0" encoding="UTF-8"?>
<!--
Copyright (C) 2016 François Mizessyn.
This work makes an extensive use of kanjiVG Copyright (C) 2009/2010/2011 Ulrich Apel.
This work is distributed under the conditions of the Creative Commons
Attribution-Share Alike 3.0 Licence. This means you are free:
* to Share - to copy, distribute and transmit the work
* to Remix - to adapt the work

Under the following conditions:
* Attribution. You must attribute the work by stating your use of HanjiVG in
  your own copyright header and linking to HanjiVG's website
  (http://gooo.free.fr/hanziVG/)
* Attribution. You must attribute the work by stating your use of KanjiVG in
  your own copyright header and linking to KanjiVG's website
  (http://kanjivg.tagaini.net)
* Share Alike. If you alter, transform, or build upon this work, you may
  distribute the resulting work only under the same or similar license to this
  one.

See http://creativecommons.org/licenses/by-sa/3.0/ for more details.
-->
<!DOCTYPE svg PUBLIC "-//W3C//DTD SVG 1.0//EN" "http://www.w3.org/TR/2001/REC-SVG-20010904/DTD/svg10.dtd" [
<!ATTLIST g
xmlns:kvg CDATA #FIXED "http://kanjivg.tagaini.net"
kvg:element CDATA #IMPLIED
kvg:variant CDATA #IMPLIED
kvg:partial CDATA #IMPLIED
kvg:original CDATA #IMPLIED
kvg:part CDATA #IMPLIED
kvg:number CDATA #IMPLIED
kvg:tradForm CDATA #IMPLIED
kvg:radicalForm CDATA #IMPLIED
kvg:position CDATA #IMPLIED
kvg:radical CDATA #IMPLIED
kvg:phon CDATA #IMPLIED >
<!ATTLIST path
xmlns:kvg CDATA #FIXED "http://kanjivg.tagaini.net"
kvg:type CDATA #IMPLIED >
]>
<svg xmlns="http://www.w3.org/2000/svg" width="109" height="109" viewBox="0 0 109 109">
<g id="kvg:StrokePaths_09634" style="fill:none;stroke:#000000;stroke-width:3;stroke-linecap:round;stroke-linejoin:round;">
<g id="kvg:09634" kvg:element="阴">
	<g id="kvg:09634-g1" kvg:element="⻖" kvg:variant="true" kvg:original="阜" kvg:radical="tradit">
		<path id="kvg:09634-s1" kvg:type="㇇" d="m13.2 17.06c1.32 0.22 2.82 0.79 4.38 0.49c9.27 -1.8 17.42 -4.75 20.7 -5.66c3.93 -1.09 5.21 2.43 3.87 5.33c-2.49 5.36 -6.48 12.92 -10.95 22.23"/>
		<path id="kvg:09634-s2" kvg:type="㇕va" d="m31.2 39.42c17.77 16.02 11.36 40.21 0.9 27.74"/>
		<path id="kvg:09634-s3" kvg:type="㇑" d="m18.99 18.16c1.03 1.22 1.92 3.07 1.92 5.45c0 0.71 0.06 44.44 0.06 63.53c0 5.83 0 9.71 -0.01 10.01"/>
	</g>
	<g id="kvg:09634-g2" kvg:element="月" kvg:position="right">
		<path id="kvg:09634-s4" kvg:type="㇒" d="M60.55,16c0.95,1.25,1.09,2.48,1.11,3.5c1.09,49.25-4.41,64.75-17.41,75.75"/>
		<path id="kvg:09634-s5" kvg:type="㇆a" d="M62.5,17.98c6.56-1.04,21.76-3.51,23.07-3.73c2.97-0.5,5.21,0.62,5.21,4.5c0,1.49,0.19,50.25,0.19,69.5c0,12.88-7.22,3.5-8.3,2.5"/>
		<path id="kvg:09634-s6" kvg:type="㇐a" d="M62.77,39c7.85-1,19.73-2.25,26.95-2.75"/>
		<path id="kvg:09634-s7" kvg:type="㇐a" d="M62.25,57.75c6.62-0.62,20-1.5,27.36-2"/>
	</g>
</g>
</g>
<g id="kvg:StrokeNumbers_09634" style="font-size:8;fill:#808080">
	<text transform="matrix(1 0 0 1 4.54 19.25)">1</text>
	<text transform="matrix(1 0 0 1 12.54 14.25)">2</text>
	<text transform="matrix(1 0 0 1 35.54 42.25)">3</text>
	<text transform="matrix(1 0 0 1 50.50 23.50)">4</text>
	<text transform="matrix(1 0 0 1 57.50 13.50)">5</text>
	<text transform="matrix(1 0 0 1 51.07 45.13)">6</text>
	<text transform="matrix(1 0 0 1 49.25 63.50)">7</text>
</g>
</svg>
