<?xml version="1.0" encoding="UTF-8"?>
<!--
Copyright (C) 2016 François Mizessyn.
This work makes an extensive use of kanjiVG Copyright (C) 2009/2010/2011 Ulrich Apel.
This work is distributed under the conditions of the Creative Commons
Attribution-Share Alike 3.0 Licence. This means you are free:
* to Share - to copy, distribute and transmit the work
* to Remix - to adapt the work

Under the following conditions:
* Attribution. You must attribute the work by stating your use of HanjiVG in
  your own copyright header and linking to HanjiVG's website
  (http://gooo.free.fr/hanziVG/)
* Attribution. You must attribute the work by stating your use of KanjiVG in
  your own copyright header and linking to KanjiVG's website
  (http://kanjivg.tagaini.net)
* Share Alike. If you alter, transform, or build upon this work, you may
  distribute the resulting work only under the same or similar license to this
  one.

See http://creativecommons.org/licenses/by-sa/3.0/ for more details.
-->
<!DOCTYPE svg PUBLIC "-//W3C//DTD SVG 1.0//EN" "http://www.w3.org/TR/2001/REC-SVG-20010904/DTD/svg10.dtd" [
<!ATTLIST g
xmlns:kvg CDATA #FIXED "http://kanjivg.tagaini.net"
kvg:element CDATA #IMPLIED
kvg:variant CDATA #IMPLIED
kvg:partial CDATA #IMPLIED
kvg:original CDATA #IMPLIED
kvg:part CDATA #IMPLIED
kvg:number CDATA #IMPLIED
kvg:tradForm CDATA #IMPLIED
kvg:radicalForm CDATA #IMPLIED
kvg:position CDATA #IMPLIED
kvg:radical CDATA #IMPLIED
kvg:phon CDATA #IMPLIED >
<!ATTLIST path
xmlns:kvg CDATA #FIXED "http://kanjivg.tagaini.net"
kvg:type CDATA #IMPLIED >
]>
<svg xmlns="http://www.w3.org/2000/svg" width="109" height="109" viewBox="0 0 109 109">
<g id="kvg:StrokePaths_09645" style="fill:none;stroke:#000000;stroke-width:3;stroke-linecap:round;stroke-linejoin:round;">
<g id="kvg:09645" kvg:element="际">
	<g id="kvg:09645-g1" kvg:element="⻖" kvg:variant="true" kvg:original="阜" kvg:radical="tradit">
		<path id="kvg:09645-s1" kvg:type="㇇" d="m12.88 17.06c1.19 0.22 2.54 0.79 3.94 0.49c8.34 -1.8 15.68 -4.75 18.63 -5.66c3.54 -1.09 4.69 2.43 3.48 5.33c-2.24 5.36 -5.83 12.92 -9.85 22.23"/>
		<path id="kvg:09645-s2" kvg:type="㇕va" d="m29.08 39.42c15.99 16.02 10.22 40.21 0.81 27.74"/>
		<path id="kvg:09645-s3" kvg:type="㇑" d="m18.09 18.16c0.93 1.22 1.73 3.07 1.73 5.45c0 0.71 0.05 44.44 0.05 63.53c0 5.83 0 9.71 -0.01 10.01"/>
	</g>
	<g id="kvg:09645-g2" kvg:element="示" kvg:position="right">
		<g id="kvg:09645-g3" kvg:element="二" kvg:position="top">
			<path id="kvg:09645-s4" kvg:type="㇐" d="m55.94 21.02c0.88 0.66 2.51 0.84 3.39 0.66c5.64 -1.14 14.8 -4.16 20.78 -4.78c1.47 -0.16 2.36 0.32 3.1 0.64"/>
			<path id="kvg:09645-s5" kvg:type="㇐" d="m45.63 45.6c2.05 0.94 5.82 0.92 7.85 0.44c11.83 -2.78 25.71 -6.02 34.62 -6.98c3.41 -0.36 5.46 0.44 7.17 0.92"/>
		</g>
		<g id="kvg:09645-g4" kvg:element="小" kvg:position="bottom">
			<path id="kvg:09645-s6" kvg:type="㇑" d="m68.46 49.72c1.15 2.3 1.67 5.04 1.67 9.32c0 13.42 0.24 20.46 0.24 29.86c0 12.78 -4.12 6.36 -6.75 1.04"/>
			<path id="kvg:09645-s7" kvg:type="㇒" d="m54.89 63.54c0.03 0.72 0.06 1.88 -0.06 2.92c-0.71 6.18 -5.57 17.02 -12.83 26.04"/>
			<path id="kvg:09645-s8" kvg:type="㇔" d="m83.19 63.1c3.77 4.46 9.93 17.86 10.87 24.82"/>
		</g>
	</g>
</g>
</g>
<g id="kvg:StrokeNumbers_09645" style="font-size:8;fill:#808080">
	<text transform="matrix(1 0 0 1 4.54 19.25)">1</text>
	<text transform="matrix(1 0 0 1 12.54 14.25)">2</text>
	<text transform="matrix(1 0 0 1 32.54 42.25)">3</text>
	<text transform="matrix(1 0 0 1 54.75 17.50)">4</text>
	<text transform="matrix(1 0 0 1 45.75 42.63)">5</text>
	<text transform="matrix(1 0 0 1 57.50 59.50)">6</text>
	<text transform="matrix(1 0 0 1 43.50 67.50)">7</text>
	<text transform="matrix(1 0 0 1 75.50 60.50)">8</text>
</g>
</svg>
