<?xml version="1.0" encoding="UTF-8"?>
<!--
Copyright (C) 2016 François Mizessyn.
This work makes an extensive use of kanjiVG Copyright (C) 2009/2010/2011 Ulrich Apel.
This work is distributed under the conditions of the Creative Commons
Attribution-Share Alike 3.0 Licence. This means you are free:
* to Share - to copy, distribute and transmit the work
* to Remix - to adapt the work

Under the following conditions:
* Attribution. You must attribute the work by stating your use of HanjiVG in
  your own copyright header and linking to HanjiVG's website
  (http://gooo.free.fr/hanziVG/)
* Attribution. You must attribute the work by stating your use of KanjiVG in
  your own copyright header and linking to KanjiVG's website
  (http://kanjivg.tagaini.net)
* Share Alike. If you alter, transform, or build upon this work, you may
  distribute the resulting work only under the same or similar license to this
  one.

See http://creativecommons.org/licenses/by-sa/3.0/ for more details.
-->
<!DOCTYPE svg PUBLIC "-//W3C//DTD SVG 1.0//EN" "http://www.w3.org/TR/2001/REC-SVG-20010904/DTD/svg10.dtd" [
<!ATTLIST g
xmlns:kvg CDATA #FIXED "http://kanjivg.tagaini.net"
kvg:element CDATA #IMPLIED
kvg:variant CDATA #IMPLIED
kvg:partial CDATA #IMPLIED
kvg:original CDATA #IMPLIED
kvg:part CDATA #IMPLIED
kvg:number CDATA #IMPLIED
kvg:tradForm CDATA #IMPLIED
kvg:radicalForm CDATA #IMPLIED
kvg:position CDATA #IMPLIED
kvg:radical CDATA #IMPLIED
kvg:phon CDATA #IMPLIED >
<!ATTLIST path
xmlns:kvg CDATA #FIXED "http://kanjivg.tagaini.net"
kvg:type CDATA #IMPLIED >
]>
<svg xmlns="http://www.w3.org/2000/svg" width="109" height="109" viewBox="0 0 109 109">
<g id="kvg:StrokePaths_09669" style="fill:none;stroke:#000000;stroke-width:3;stroke-linecap:round;stroke-linejoin:round;">
<g id="kvg:09669" kvg:element="险">
	<g id="kvg:09669-g1" kvg:element="⻖" kvg:variant="true" kvg:original="阜" kvg:radical="tradit">
		<path id="kvg:09669-s1" kvg:type="㇇" d="m12.88 17.06c1.19 0.22 2.54 0.79 3.94 0.49c8.34 -1.8 15.68 -4.75 18.63 -5.66c3.54 -1.09 4.69 2.43 3.48 5.33c-2.24 5.36 -5.83 12.92 -9.85 22.23"/>
		<path id="kvg:09669-s2" kvg:type="㇕va" d="m29.08 39.42c15.99 16.02 10.22 40.21 0.81 27.74"/>
		<path id="kvg:09669-s3" kvg:type="㇑" d="m18.09 18.16c0.93 1.22 1.73 3.07 1.73 5.45c0 0.71 0.05 44.44 0.05 63.53c0 5.83 0 9.71 -0.01 10.01"/>
	</g>
	<g id="kvg:09669-g2" kvg:element="佥" kvg:position="right">
		<g id="kvg:06de6-g3" kvg:element="人" kvg:position="top">
			<path id="kvg:09669-s4" kvg:type="㇒" d="m66.16 15.35c0 0.89 0.07 1.59 -0.2 2.66c-1.37 5.56 -13.3 26.24 -23.44 33.46"/>
			<path id="kvg:09669-s5" kvg:type="㇏" d="m66.38 19.18c6.14 4.45 22.55 24.46 24.55 25.86c2.04 1.42 2.71 1.68 3.61 1.82"/>
		</g>
		<path id="kvg:09669-s6" kvg:type="㇐" d="M55.27,49.83c0.67,0.31,2.85,0.41,3.53,0.32c3.15-0.42,9.32-1.36,22.38-2.46c1.03-0.09,1.97,0.06,2.83,0.32"/>
		<path id="kvg:09669-s7" kvg:type="㇔" d="m47.42 66.5c2.51 1.64 8.97 10.93 9.5 14"/>
		<path id="kvg:09669-s8" kvg:type="㇔" d="m61.5 62.14c3.26 2.93 8.43 12.06 9.25 16.62"/>
		<path id="kvg:09669-s9" kvg:type="㇒" d="m87 65.74c0.03 1.18 -0.32 2.54 -0.53 3.23c-1.57 5.16 -4.89 12.36 -10.07 19.38"/>
		<path id="kvg:09669-s10" kvg:type="㇐" d="m45.38 92.69c0.51 0.22 3.09 0.85 4.22 0.71c5.51 -0.66 22.4 -2.89 38.6 -2.89c1.54 0 3.4 0.29 4.17 0.56"/>
	</g>
</g>
</g>
<g id="kvg:StrokeNumbers_09669" style="font-size:8;fill:#808080">
	<text transform="matrix(1 0 0 1 4.54 19.25)">1</text>
	<text transform="matrix(1 0 0 1 12.54 14.25)">2</text>
	<text transform="matrix(1 0 0 1 32.54 42.25)">3</text>
	<text transform="matrix(1 0 0 1 54.50 17.50)">4</text>
	<text transform="matrix(1 0 0 1 67.25 19.63)">5</text>
	<text transform="matrix(1 0 0 1 51.50 47.50)">6</text>
	<text transform="matrix(1 0 0 1 46.50 65.50)">7</text>
	<text transform="matrix(1 0 0 1 62.50 63.50)">8</text>
	<text transform="matrix(1 0 0 1 77.50 64.50)">9</text>
	<text transform="matrix(1 0 0 1 37.50 90.50)">10</text>
</g>
</svg>
