<?xml version="1.0" encoding="UTF-8"?>
<!--
Copyright (C) 2016 François Mizessyn.
This work makes an extensive use of kanjiVG Copyright (C) 2009/2010/2011 Ulrich Apel.
This work is distributed under the conditions of the Creative Commons
Attribution-Share Alike 3.0 Licence. This means you are free:
* to Share - to copy, distribute and transmit the work
* to Remix - to adapt the work

Under the following conditions:
* Attribution. You must attribute the work by stating your use of HanjiVG in
  your own copyright header and linking to HanjiVG's website
  (http://gooo.free.fr/hanziVG/)
* Attribution. You must attribute the work by stating your use of KanjiVG in
  your own copyright header and linking to KanjiVG's website
  (http://kanjivg.tagaini.net)
* Share Alike. If you alter, transform, or build upon this work, you may
  distribute the resulting work only under the same or similar license to this
  one.

See http://creativecommons.org/licenses/by-sa/3.0/ for more details.
-->
<!DOCTYPE svg PUBLIC "-//W3C//DTD SVG 1.0//EN" "http://www.w3.org/TR/2001/REC-SVG-20010904/DTD/svg10.dtd" [
<!ATTLIST g
xmlns:kvg CDATA #FIXED "http://kanjivg.tagaini.net"
kvg:element CDATA #IMPLIED
kvg:variant CDATA #IMPLIED
kvg:partial CDATA #IMPLIED
kvg:original CDATA #IMPLIED
kvg:part CDATA #IMPLIED
kvg:number CDATA #IMPLIED
kvg:tradForm CDATA #IMPLIED
kvg:radicalForm CDATA #IMPLIED
kvg:position CDATA #IMPLIED
kvg:radical CDATA #IMPLIED
kvg:phon CDATA #IMPLIED >
<!ATTLIST path
xmlns:kvg CDATA #FIXED "http://kanjivg.tagaini.net"
kvg:type CDATA #IMPLIED >
]>
<svg xmlns="http://www.w3.org/2000/svg" width="109" height="109" viewBox="0 0 109 109">
<g id="kvg:StrokePaths_0968f" style="fill:none;stroke:#000000;stroke-width:3;stroke-linecap:round;stroke-linejoin:round;">
<g id="kvg:0968f" kvg:element="随">
	<g id="kvg:0968f-g1" kvg:element="陏" kvg:part="1" kvg:position="left" kvg:phon="陏1">
		<g id="kvg:0968f-g2" kvg:element="⻖" kvg:variant="true" kvg:original="阜" kvg:radical="general">
		<path id="kvg:0968f-s1" kvg:type="㇇" d="m12.67 17.06c0.98 0.22 2.09 0.79 3.24 0.49c6.87 -1.8 12.92 -4.75 15.35 -5.66c2.91 -1.09 3.86 2.43 2.86 5.33c-1.84 5.36 -4.8 12.92 -8.12 22.23"/>
		<path id="kvg:0968f-s2" kvg:type="㇕va" d="m26.02 39.42c13.17 16.02 8.43 40.21 0.67 27.74"/>
		<path id="kvg:0968f-s3" kvg:type="㇑" d="m16.96 18.16c0.76 1.22 1.42 3.07 1.42 5.45c0 0.71 0.04 44.44 0.04 63.53c0 5.83 0 9.71 -0.01 10.01"/>
		</g>
	</g>
	<g id="kvg:0968f-g3" kvg:position="right">
		<g id="kvg:0968f-g4" kvg:element="陏" kvg:part="2" kvg:phon="陏2">
			<g id="kvg:0968f-g5" kvg:element="有">
				<path id="kvg:0968f-s4" kvg:type="㇒" d="m72.22 13.68c0.05 0.79 0.25 2.08 -0.11 3.19c-2.61 8.13 -8.11 20.63 -19.65 30.54"/>
				<path id="kvg:0968f-s5" kvg:type="㇐" d="m49.05 27.71c3.7 0.67 6.11 0.33 8.45 0.04c8.11 -1.01 22.57 -2.97 31.36 -3.56c2.4 -0.16 4.99 -0.46 7.34 0.24"/>
				<g id="kvg:0968f-g6" kvg:element="月">
					<path id="kvg:0968f-s6" kvg:type="㇑/㇒" d="m62.57 41.68c0.62 0.63 0.94 1.82 0.94 3.08c0 0.45 0.02 16.52 0.02 27.14c0 4.11 -0.01 7.08 -0.03 7.47"/>
					<path id="kvg:0968f-s7" kvg:type="㇆a" d="m64.19 42.33c3.39 -0.77 12.95 -2.51 17.69 -3.38c3.71 -0.67 5.43 0.04 5.43 4.05c0 6.81 0.03 23.83 0.03 35.18c0 10.07 -4.35 2.07 -5.57 0.37"/>
					<path id="kvg:0968f-s8" kvg:type="㇐a" d="m64.69 52.79c6.41 -0.92 15.9 -1.79 21.53 -2.25"/>
					<path id="kvg:0968f-s9" kvg:type="㇐a" d="m64.66 64.01c5.01 -0.46 15.71 -1.83 21.5 -2.14"/>
				</g>
			</g>
		</g>
		<g id="kvg:0968f-g7" kvg:element="⻌" kvg:original="辶">
			<path id="kvg:0968f-s10" kvg:type="㇔" d="m41.98 35.5c2.7 1.44 6.96 5.91 7.64 8.15"/>
			<path id="kvg:0968f-s11" kvg:type="㇋" d="m39.75 57.73c1.38 0.4 3.28 0.09 4.08 -0.29c2.17 -1.06 3.86 -1.79 8.15 -3.8c1.9 -0.89 2.42 0.75 1.61 2.02c-7.59 11.84 -8.71 6.34 -0.97 15.41c0.91 1.06 0.64 2.27 -0.64 3.3c-1.29 1.03 -6.73 4.88 -10.01 7.22"/>
			<path id="kvg:0968f-s12" kvg:type="㇏a" d="m37.68 83.62c2.29 -0.43 6.78 -0.87 10.32 -0.65c6.5 0.4 21.49 6.16 24.88 7.27c9.17 3.02 14.62 4.26 21.12 4.63"/>
		</g>
	</g>
</g>
</g>
<g id="kvg:StrokeNumbers_0968f" style="font-size:8;fill:#808080">
	<text transform="matrix(1 0 0 1 4.54 19.25)">1</text>
	<text transform="matrix(1 0 0 1 12.54 14.25)">2</text>
	<text transform="matrix(1 0 0 1 29.54 42.25)">3</text>
	<text transform="matrix(1 0 0 1 61.50 12.50)">4</text>
	<text transform="matrix(1 0 0 1 45.50 24.05)">5</text>
	<text transform="matrix(1 0 0 1 53.50 51.50)">6</text>
	<text transform="matrix(1 0 0 1 65.50 37.63)">7</text>
	<text transform="matrix(1 0 0 1 64.50 49.55)">8</text>
	<text transform="matrix(1 0 0 1 64.49 61.48)">9</text>
	<text transform="matrix(1 0 0 1 34.49 36.48)">10</text>
	<text transform="matrix(1 0 0 1 36.25 56.13)">11</text>
	<text transform="matrix(1 0 0 1 29.25 79.55)">12</text>
</g>
</svg>
