<?xml version="1.0" encoding="UTF-8"?>
<!--
Copyright (C) 2016 François Mizessyn.
This work makes an extensive use of kanjiVG Copyright (C) 2009/2010/2011 Ulrich Apel.
This work is distributed under the conditions of the Creative Commons
Attribution-Share Alike 3.0 Licence. This means you are free:
* to Share - to copy, distribute and transmit the work
* to Remix - to adapt the work

Under the following conditions:
* Attribution. You must attribute the work by stating your use of HanjiVG in
  your own copyright header and linking to HanjiVG's website
  (http://gooo.free.fr/hanziVG/)
* Attribution. You must attribute the work by stating your use of KanjiVG in
  your own copyright header and linking to KanjiVG's website
  (http://kanjivg.tagaini.net)
* Share Alike. If you alter, transform, or build upon this work, you may
  distribute the resulting work only under the same or similar license to this
  one.

See http://creativecommons.org/licenses/by-sa/3.0/ for more details.
-->
<!DOCTYPE svg PUBLIC "-//W3C//DTD SVG 1.0//EN" "http://www.w3.org/TR/2001/REC-SVG-20010904/DTD/svg10.dtd" [
<!ATTLIST g
xmlns:kvg CDATA #FIXED "http://kanjivg.tagaini.net"
kvg:element CDATA #IMPLIED
kvg:variant CDATA #IMPLIED
kvg:partial CDATA #IMPLIED
kvg:original CDATA #IMPLIED
kvg:part CDATA #IMPLIED
kvg:number CDATA #IMPLIED
kvg:tradForm CDATA #IMPLIED
kvg:radicalForm CDATA #IMPLIED
kvg:position CDATA #IMPLIED
kvg:radical CDATA #IMPLIED
kvg:phon CDATA #IMPLIED >
<!ATTLIST path
xmlns:kvg CDATA #FIXED "http://kanjivg.tagaini.net"
kvg:type CDATA #IMPLIED >
]>
<svg xmlns="http://www.w3.org/2000/svg" width="109" height="109" viewBox="0 0 109 109">
<g id="kvg:StrokePaths_096be" style="fill:none;stroke:#000000;stroke-width:3;stroke-linecap:round;stroke-linejoin:round;">
<g id="kvg:096be" kvg:element="难">
	<g id="kvg:096be-g1" kvg:element="又" kvg:position="left" kvg:radical="general">
		<path id="kvg:096be-s1" kvg:type="㇇" d="m13.75 26c1 0.5 2.25 0.75 4.25 0s15.88 -6.75 17.25 -7.5s2.53 2.02 2 4.75c-6.06 31.25 -15.56 57 -29 71.75"/>
		<path id="kvg:096be-s2" kvg:type="㇏" d="m12.25 39c2.95 1.13 15.39 27.42 26.35 43.57c2.38 3.52 4.86 7.1 7.65 9.18"/>
	</g>
	<g id="kvg:096be-g2" kvg:element="隹" kvg:position="right" kvg:radical="general">
		<g id="kvg:096be-g3" kvg:element="亻" kvg:variant="true" kvg:original="人">
			<path id="kvg:096be-s3" kvg:type="㇒" d="m60.15 15.8c0.49 1.45 -0.06 3.1 -0.7 4.79c-4.06 10.74 -9.52 20.77 -18.83 33.69"/>
			<path id="kvg:096be-s4" kvg:type="㇑" d="m51.42 40.09c1.33 1.05 1.58 2.26 1.58 3.9c0.01 9.32 0.07 31.71 -0.07 44.26c-0.06 4.89 -0.06 6.44 0.04 8.08"/>
		</g>
		<path id="kvg:096be-s5" kvg:type="㇒" d="m78.56 17.52c0.2 0.86 0.08 1.89 -0.25 2.74c-2.09 5.25 -3.67 8.12 -7.25 14.03"/>
		<path id="kvg:096be-s6" kvg:type="㇐b" d="m52.66 38.59c5.95 -0.64 24.42 -1.85 34.69 -2.74c3.42 -0.3 5.91 -0.53 6.76 -0.65"/>
		<path id="kvg:096be-s7" kvg:type="㇐b" d="m54.38 53.37c6.73 -0.37 22.53 -1.19 31.33 -1.76c2.59 -0.17 4.49 -0.31 5.24 -0.4"/>
		<path id="kvg:096be-s8" kvg:type="㇐b" d="m54.42 69.57c6.1 -0.41 22.5 -1.49 31.58 -1.99c2.65 -0.15 4.59 -0.26 5.36 -0.33"/>
		<path id="kvg:096be-s9" kvg:type="㇑a" d="m72.23 38.66c1.19 0.94 1.64 1.96 1.64 3.24c0 7.38 0.13 31.6 0.13 43.38"/>
		<path id="kvg:096be-s10" kvg:type="㇐b" d="m54.06 86.94c9.25 -0.32 27.1 -1.18 37.02 -1.66c2.67 -0.13 4.59 -0.25 5.31 -0.35"/>
	</g>
</g>
</g>
<g id="kvg:StrokeNumbers_096be" style="font-size:8;fill:#808080">
	<text transform="matrix(1 0 0 1 2.25 40.13)">1</text>
	<text transform="matrix(1 0 0 1 2.75 25.63)">2</text>
	<text transform="matrix(1 0 0 1 52.50 12.50)">3</text>
	<text transform="matrix(1 0 0 1 40.25 37.50)">4</text>
	<text transform="matrix(1 0 0 1 72.50 13.50)">5</text>
	<text transform="matrix(1 0 0 1 55.50 35.50)">6</text>
	<text transform="matrix(1 0 0 1 55.45 50.50)">7</text>
	<text transform="matrix(1 0 0 1 55.50 66.50)">8</text>
	<text transform="matrix(1 0 0 1 68.00 38.13)">9</text>
	<text transform="matrix(1 0 0 1 53.47 83.98)">10</text>
</g>
</svg>
