<?xml version="1.0" encoding="UTF-8"?>
<!--
Copyright (C) 2016 François Mizessyn.
This work makes an extensive use of kanjiVG Copyright (C) 2009/2010/2011 Ulrich Apel.
This work is distributed under the conditions of the Creative Commons
Attribution-Share Alike 3.0 Licence. This means you are free:
* to Share - to copy, distribute and transmit the work
* to Remix - to adapt the work

Under the following conditions:
* Attribution. You must attribute the work by stating your use of HanjiVG in
  your own copyright header and linking to HanjiVG's website
  (http://gooo.free.fr/hanziVG/)
* Attribution. You must attribute the work by stating your use of KanjiVG in
  your own copyright header and linking to KanjiVG's website
  (http://kanjivg.tagaini.net)
* Share Alike. If you alter, transform, or build upon this work, you may
  distribute the resulting work only under the same or similar license to this
  one.

See http://creativecommons.org/licenses/by-sa/3.0/ for more details.
-->
<!DOCTYPE svg PUBLIC "-//W3C//DTD SVG 1.0//EN" "http://www.w3.org/TR/2001/REC-SVG-20010904/DTD/svg10.dtd" [
<!ATTLIST g
xmlns:kvg CDATA #FIXED "http://kanjivg.tagaini.net"
kvg:element CDATA #IMPLIED
kvg:variant CDATA #IMPLIED
kvg:partial CDATA #IMPLIED
kvg:original CDATA #IMPLIED
kvg:part CDATA #IMPLIED
kvg:number CDATA #IMPLIED
kvg:tradForm CDATA #IMPLIED
kvg:radicalForm CDATA #IMPLIED
kvg:position CDATA #IMPLIED
kvg:radical CDATA #IMPLIED
kvg:phon CDATA #IMPLIED >
<!ATTLIST path
xmlns:kvg CDATA #FIXED "http://kanjivg.tagaini.net"
kvg:type CDATA #IMPLIED >
]>
<svg xmlns="http://www.w3.org/2000/svg" width="109" height="109" viewBox="0 0 109 109">
<g id="kvg:StrokePaths_097e9" style="fill:none;stroke:#000000;stroke-width:3;stroke-linecap:round;stroke-linejoin:round;">
<g id="kvg:097e9" kvg:element="韩">
	<g id="kvg:097e9-g1" kvg:position="left">
		<g id="kvg:097e9-g2" kvg:element="十">
			<path id="kvg:097e9-s1" kvg:type="㇐" d="M16.93 26.54c1.67 0.25 3.37 0.44 5.04 0.17c7.09 -1.16 16.26 -2.7 21.65 -3.16c1.48 -0.21 2.96 -0.19 4.44 0.08"/>
			<path id="kvg:097e9-s2" kvg:type="㇑" d="M31.7 13.15c0.71 0.75 0.92 1.56 0.92 2.61c0 0.5 -0.12 18.9 -0.12 22.85"/>
		</g>
		<g id="kvg:097e9-g3" kvg:element="早">
			<g id="kvg:097e9-g4" kvg:element="日" kvg:position="top">
				<path id="kvg:097e9-s3" kvg:type="㇑" d="M18.52 40.22c0.97 1.02 1.23 1.67 1.51 2.74c0.37 1.37 1.53 8.63 2.42 14.39c0.4 2.55 0.74 4.8 0.94 6.1"/>
				<path id="kvg:097e9-s4" kvg:type="㇕a" d="M20.83 41.53c6.3 -1.35 15.92 -3.45 22.45 -4.48c2.87 -0.45 4.15 0.32 4.31 3.65c-0.53 2.69 -1.46 9.04 -2.42 14.73c-0.31 1.85 -0.63 3.63 -0.94 5.19"/>
				<path id="kvg:097e9-s5" kvg:type="㇐a" d="M22.49 51.47c7.51 -1.19 18.01 -3.02 22.74 -3.41"/>
				<path id="kvg:097e9-s6" kvg:type="㇐a" d="M23.95 61.64c6.8 -0.85 14.05 -2.16 19.48 -2.77"/>
			</g>
			<g id="kvg:097e9-g5" kvg:element="十" kvg:position="bottom">
				<path id="kvg:097e9-s7" kvg:type="㇐" d="M12.74 76.35c2.35 0.54 4.65 0.3 7.02 -0.21c7.74 -1.7 18.36 -3.4 25.62 -4.26c2.06 -0.24 4.1 -0.26 6.13 0.16"/>
				<path id="kvg:097e9-s8" kvg:type="㇑" d="M31.32 62.61c1.03 1.09 1.32 2.11 1.32 3.4c0 0.6 -0.01 12.9 -0.01 22.07c0 3.65 0 6.81 0 8.53"/>
			</g>
		</g>
	</g>
	<g id="kvg:097e9-g6" kvg:element="韦" kvg:position="right">
		<path id="kvg:097e9-s9" kvg:type="㇐" d="M57.74,30.57c2.35,0.51,4.65,0.29,7.02-0.2c7.74-1.62,18.36-3.24,25.62-4.06c2.06-0.23,4.1-0.25,6.13,0.15"/>
		<path id="kvg:097e9-s10" kvg:type="㇐" d="M57.74,48.57c2.35,0.51,4.65,0.29,7.02-0.2c7.74-1.62,18.36-3.24,25.62-4.06c2.06-0.23,4.1-0.25,6.13,0.15"/>
		<path id="kvg:097e9-s11" kvg:type="㇆" d="M56.09 66.55c2.35,0.51,4.65,0.29,7.02-0.2c7.74-1.62,18.36-3.24,27.8,-4.86c4.69 -0.3 6.76 0.13 6.15 2.46c-1.7 6.56 -3 13.24 -5.11 21.03c-1.71 1.65 -4.77 1.27 -5.07 -0.3"/>
		<path id="kvg:097e9-s12" kvg:type="㇑a" d="M73.66,13.67c0.78,0.38,1.55,2.85,1.55,3.62c0,4.82-0.26,8.47-0.26,80.39"/>
	</g>
</g>
</g>
<g id="kvg:StrokeNumbers_097e9" style="font-size:8;fill:#808080">
	<text transform="matrix(1 0 0 1 8.50 28.50)">1</text>
	<text transform="matrix(1 0 0 1 22.25 14.50)">2</text>
	<text transform="matrix(1 0 0 1 11.25 49.50)">3</text>
	<text transform="matrix(1 0 0 1 19.50 39.50)">4</text>
	<text transform="matrix(1 0 0 1 25.50 49.50)">5</text>
	<text transform="matrix(1 0 0 1 26.50 58.50)">6</text>
	<text transform="matrix(1 0 0 1 5.50 75.50)">7</text>
	<text transform="matrix(1 0 0 1 22.25 72.60)">8</text>
	<text transform="matrix(1 0 0 1 55.50 27.50)">9</text>
	<text transform="matrix(1 0 0 1 50.50 45.50)">10</text>
	<text transform="matrix(1 0 0 1 50.50 63.50)">11</text>
	<text transform="matrix(1 0 0 1 75.50 14.50)">12</text>
</g>
</svg>
