<?xml version="1.0" encoding="UTF-8"?>
<!--
Copyright (C) 2016 François Mizessyn.
This work makes an extensive use of kanjiVG Copyright (C) 2009/2010/2011 Ulrich Apel.
This work is distributed under the conditions of the Creative Commons
Attribution-Share Alike 3.0 Licence. This means you are free:
* to Share - to copy, distribute and transmit the work
* to Remix - to adapt the work

Under the following conditions:
* Attribution. You must attribute the work by stating your use of HanjiVG in
  your own copyright header and linking to HanjiVG's website
  (http://gooo.free.fr/hanziVG/)
* Attribution. You must attribute the work by stating your use of KanjiVG in
  your own copyright header and linking to KanjiVG's website
  (http://kanjivg.tagaini.net)
* Share Alike. If you alter, transform, or build upon this work, you may
  distribute the resulting work only under the same or similar license to this
  one.

See http://creativecommons.org/licenses/by-sa/3.0/ for more details.
-->
<!DOCTYPE svg PUBLIC "-//W3C//DTD SVG 1.0//EN" "http://www.w3.org/TR/2001/REC-SVG-20010904/DTD/svg10.dtd" [
<!ATTLIST g
xmlns:kvg CDATA #FIXED "http://kanjivg.tagaini.net"
kvg:element CDATA #IMPLIED
kvg:variant CDATA #IMPLIED
kvg:partial CDATA #IMPLIED
kvg:original CDATA #IMPLIED
kvg:part CDATA #IMPLIED
kvg:number CDATA #IMPLIED
kvg:tradForm CDATA #IMPLIED
kvg:radicalForm CDATA #IMPLIED
kvg:position CDATA #IMPLIED
kvg:radical CDATA #IMPLIED
kvg:phon CDATA #IMPLIED >
<!ATTLIST path
xmlns:kvg CDATA #FIXED "http://kanjivg.tagaini.net"
kvg:type CDATA #IMPLIED >
]>
<svg xmlns="http://www.w3.org/2000/svg" width="109" height="109" viewBox="0 0 109 109">
<g id="kvg:StrokePaths_09879" style="fill:none;stroke:#000000;stroke-width:3;stroke-linecap:round;stroke-linejoin:round;">
<g id="kvg:09879" kvg:element="项">
	<g id="kvg:09879-g1" kvg:element="工" kvg:position="left" kvg:radical="nelson" kvg:phon="工">
		<path id="kvg:09879-s1" kvg:type="㇐" d="M16.2,35.65c1.92,0.6,4.5,0.28,6.22-0.01c5.2-0.89,12.33-2.14,19.04-3.69c0.89-0.21,2.61-0.26,3.36,0.04"/>
		<path id="kvg:09879-s2" kvg:type="㇑a" d="M30.84,37.12c0.83,0.83,1.07,2,1.07,3.64c0,6.12-0.03,21.8-0.03,26.62"/>
		<path id="kvg:09879-s3" kvg:type="㇀/㇐" d="M17.17,73.54c1.2,0.83,2.29,0.89,3.71,0.21c6.24-3,13.87-7,21.73-10.93"/>
	</g>
	<g id="kvg:09879-g2" kvg:element="页" kvg:position="right">
		<path id="kvg:09879-s4" kvg:type="㇐" d="m49.38 21.01c2.89 0.44 5.34 0.48 7.21 0.29c11.71 -1.19 16.37 -2.39 29.65 -3.24c3.13 -0.2 5.02 -0.02 6.58 0.28"/>
		<path id="kvg:09879-s5" kvg:type="㇒" d="m71.33 23.5c0.07 0.8 0.05 1.91 -0.28 2.65c-1.31 2.95 -3.27 6.56 -5.55 9.67"/>
		<g id="kvg:09879-g3" kvg:element="贝" kvg:radical="general">
			<g id="kvg:09879-g4" kvg:element="冂" kvg:variant="true" kvg:radical="general">
				<path id="kvg:09879-s6" kvg:type="㇑" d="m50.56 40c0.59 0.77 0.91 1.7 0.43 0.95c0.99 5.76 1.93 14.72 2.02 23.29c0.1 1.19 0.19 2.33 0.3 11.7"/>
				<path id="kvg:09879-s7" kvg:type="㇕" d="m51 40.94c9.67 -1.22 24.21 -3.61 34.48 -4.19c2.61 -0.17 4 1.19 3.79 3.52c-0.55 5.94 -1.74 14.23 -1.98 21.76c-0.25 1.21 -0.48 4.86 -0.74 11.8"/>
			</g>
			<g id="kvg:09879-g5" kvg:element="人" kvg:position="bottom" kvg:radical="general">
				<path id="kvg:09879-s8" kvg:type="㇒" d="m70.86 54.08c0.25 1.36 0.15 2.57 -0.13 4c-1.66 8.44 -10.27 29.35 -24.22 38.93"/>
				<path id="kvg:09879-s9" kvg:type="㇏" d="m65.41 75.95c3.92 3.83 16.37 14.2 22.78 18.98c2.36 1.73 4.46 2.95 7.36 3.53"/>
			</g>
		</g>
	</g>
</g>
</g>
<g id="kvg:StrokeNumbers_09879" style="font-size:8;fill:#808080">
	<text transform="matrix(1 0 0 1 9.75 36.13)">1</text>
	<text transform="matrix(1 0 0 1 23.50 45.50)">2</text>
	<text transform="matrix(1 0 0 1 9.75 78.50)">3</text>
	<text transform="matrix(1 0 0 1 49.50 17.50)">4</text>
	<text transform="matrix(1 0 0 1 75.50 26.50)">5</text>
	<text transform="matrix(1 0 0 1 44.50 51.50)">6</text>
	<text transform="matrix(1 0 0 1 54.75 39.63)">7</text>
	<text transform="matrix(1 0 0 1 64.50 53.63)">8</text>
	<text transform="matrix(1 0 0 1 71.50 82.63)">9</text>
</g>
</svg>
