<?xml version="1.0" encoding="UTF-8"?>
<!--
Copyright (C) 2016 François Mizessyn.
This work makes an extensive use of kanjiVG Copyright (C) 2009/2010/2011 Ulrich Apel.
This work is distributed under the conditions of the Creative Commons
Attribution-Share Alike 3.0 Licence. This means you are free:
* to Share - to copy, distribute and transmit the work
* to Remix - to adapt the work

Under the following conditions:
* Attribution. You must attribute the work by stating your use of HanjiVG in
  your own copyright header and linking to HanjiVG's website
  (http://gooo.free.fr/hanziVG/)
* Attribution. You must attribute the work by stating your use of KanjiVG in
  your own copyright header and linking to KanjiVG's website
  (http://kanjivg.tagaini.net)
* Share Alike. If you alter, transform, or build upon this work, you may
  distribute the resulting work only under the same or similar license to this
  one.

See http://creativecommons.org/licenses/by-sa/3.0/ for more details.
-->
<!DOCTYPE svg PUBLIC "-//W3C//DTD SVG 1.0//EN" "http://www.w3.org/TR/2001/REC-SVG-20010904/DTD/svg10.dtd" [
<!ATTLIST g
xmlns:kvg CDATA #FIXED "http://kanjivg.tagaini.net"
kvg:element CDATA #IMPLIED
kvg:variant CDATA #IMPLIED
kvg:partial CDATA #IMPLIED
kvg:original CDATA #IMPLIED
kvg:part CDATA #IMPLIED
kvg:number CDATA #IMPLIED
kvg:tradForm CDATA #IMPLIED
kvg:radicalForm CDATA #IMPLIED
kvg:position CDATA #IMPLIED
kvg:radical CDATA #IMPLIED
kvg:phon CDATA #IMPLIED >
<!ATTLIST path
xmlns:kvg CDATA #FIXED "http://kanjivg.tagaini.net"
kvg:type CDATA #IMPLIED >
]>
<svg xmlns="http://www.w3.org/2000/svg" width="109" height="109" viewBox="0 0 109 109">
<g id="kvg:StrokePaths_0987e" style="fill:none;stroke:#000000;stroke-width:3;stroke-linecap:round;stroke-linejoin:round;">
<g id="kvg:0987e" kvg:element="顾">
	<g id="kvg:0987e-g1" kvg:element="厄" kvg:position="right">
		<g id="kvg:0987e-g2" kvg:element="厂" kvg:position="tare">
			<path id="kvg:0987e-s1" kvg:type="㇐" d="m18.1 19.04c0.91 0.7 2.58 0.78 3.5 0.7c5.67 -0.49 18.97 -2.24 25.65 -2.92c1.52 -0.16 2.44 0.34 3.19 0.69"/>
			<path id="kvg:0987e-s2" kvg:type="㇒" d="m20.57 20.38c0.03 1.67 0.06 4.32 -0.06 6.72c-0.73 14.16 -1.75 48.93 -10.17 63.77"/>
		</g>
		<g id="kvg:0987e-g3" kvg:element="卩">
			<path id="kvg:0987e-s3" kvg:type="㇆" d="m24.52 34.04c0.57 0.15 1.7 0.8 2.87 0.78c3.74 -0.07 12.64 -1.92 14.06 -2.39c2.32 -0.77 3.82 1.36 3.73 4.46c-0.15 5.27 -2.11 19.14 -3.61 25.92c-1.43 6.5 -4.19 0.74 -4.63 0.44"/>
			<path id="kvg:0987e-s4" kvg:type="㇟/㇑" d="m26.84 35.3c0.46 1.7 0.48 3.7 0.5 6.31c0.13 11.67 0.02 25.52 0.02 33.45c0 13.69 1.66 16.44 11 16.44c9.04 0 10.7 -2.25 10.7 -12.01"/>
		</g>
	</g>
	<g id="kvg:0987e-g4" kvg:element="页" kvg:position="right">
		<path id="kvg:0987e-s5" kvg:type="㇐" d="m54.2 21.01c2.7 0.44 4.99 0.48 6.74 0.29c10.96 -1.19 15.31 -2.39 27.74 -3.24c2.93 -0.2 4.69 -0.02 6.16 0.28"/>
		<path id="kvg:0987e-s6" kvg:type="㇒" d="m74.73 23.5c0.06 0.8 0.05 1.91 -0.26 2.65c-1.22 2.95 -3.06 6.56 -5.2 9.67"/>
		<g id="kvg:0987e-g5" kvg:element="贝" kvg:radical="general">
			<g id="kvg:0987e-g6" kvg:element="冂" kvg:variant="true" kvg:radical="general">
				<path id="kvg:0987e-s7" kvg:type="㇑" d="m55.3 40c0.55 0.77 0.85 1.7 0.4 0.95c0.92 5.76 1.8 14.72 1.9 23.29c0.1 1.19 0.18 2.33 0.28 11.7"/>
				<path id="kvg:0987e-s8" kvg:type="㇕" d="m55.71 40.94c9.05 -1.22 22.64 -3.61 32.26 -4.19c2.44 -0.17 3.74 1.19 3.54 3.52c-0.52 5.94 -1.62 14.23 -1.85 21.76c-0.23 1.21 -0.46 4.86 -0.7 11.8"/>
			</g>
			<g id="kvg:0987e-g7" kvg:element="人" kvg:position="bottom" kvg:radical="general">
				<path id="kvg:0987e-s9" kvg:type="㇒" d="m74.3 54.08c0.23 1.36 0.14 2.57 -0.13 4c-1.56 8.44 -9.61 29.35 -22.67 38.93"/>
				<path id="kvg:0987e-s10" kvg:type="㇏" d="m69.2 75.95c3.67 3.83 15.31 14.2 21.31 18.98c2.2 1.73 4.16 2.95 6.89 3.53"/>
			</g>
		</g>
	</g>
</g>
</g>
<g id="kvg:StrokeNumbers_0987e" style="font-size:8;fill:#808080">
	<text transform="matrix(1 0 0 1 8.50 19.50)">1</text>
	<text transform="matrix(1 0 0 1 9.25 32.50)">2</text>
	<text transform="matrix(1 0 0 1 23.50 31.50)">3</text>
	<text transform="matrix(1 0 0 1 29.50 48.50)">4</text>
	<text transform="matrix(1 0 0 1 52.50 18.50)">5</text>
	<text transform="matrix(1 0 0 1 69.50 16.50)">6</text>
	<text transform="matrix(1 0 0 1 46.50 46.50)">7</text>
	<text transform="matrix(1 0 0 1 54.75 37.63)">8</text>
	<text transform="matrix(1 0 0 1 64.50 53.63)">9</text>
	<text transform="matrix(1 0 0 1 71.50 78.63)">10</text>
</g>
</svg>
