<?xml version="1.0" encoding="UTF-8"?>
<!--
Copyright (C) 2016 François Mizessyn.
This work makes an extensive use of kanjiVG Copyright (C) 2009/2010/2011 Ulrich Apel.
This work is distributed under the conditions of the Creative Commons
Attribution-Share Alike 3.0 Licence. This means you are free:
* to Share - to copy, distribute and transmit the work
* to Remix - to adapt the work

Under the following conditions:
* Attribution. You must attribute the work by stating your use of HanjiVG in
  your own copyright header and linking to HanjiVG's website
  (http://gooo.free.fr/hanziVG/)
* Attribution. You must attribute the work by stating your use of KanjiVG in
  your own copyright header and linking to KanjiVG's website
  (http://kanjivg.tagaini.net)
* Share Alike. If you alter, transform, or build upon this work, you may
  distribute the resulting work only under the same or similar license to this
  one.

See http://creativecommons.org/licenses/by-sa/3.0/ for more details.
-->
<!DOCTYPE svg PUBLIC "-//W3C//DTD SVG 1.0//EN" "http://www.w3.org/TR/2001/REC-SVG-20010904/DTD/svg10.dtd" [
<!ATTLIST g
xmlns:kvg CDATA #FIXED "http://kanjivg.tagaini.net"
kvg:element CDATA #IMPLIED
kvg:variant CDATA #IMPLIED
kvg:partial CDATA #IMPLIED
kvg:original CDATA #IMPLIED
kvg:part CDATA #IMPLIED
kvg:number CDATA #IMPLIED
kvg:tradForm CDATA #IMPLIED
kvg:radicalForm CDATA #IMPLIED
kvg:position CDATA #IMPLIED
kvg:radical CDATA #IMPLIED
kvg:phon CDATA #IMPLIED >
<!ATTLIST path
xmlns:kvg CDATA #FIXED "http://kanjivg.tagaini.net"
kvg:type CDATA #IMPLIED >
]>
<svg xmlns="http://www.w3.org/2000/svg" width="109" height="109" viewBox="0 0 109 109">
<g id="kvg:StrokePaths_0987b" style="fill:none;stroke:#000000;stroke-width:3;stroke-linecap:round;stroke-linejoin:round;">
<g id="kvg:0987b" kvg:element="须">
	<g id="kvg:0987b-g7" kvg:element="彡">
		<g id="kvg:0987b-g8" kvg:element="丿">
			<path id="kvg:0987b-s1" kvg:type="㇒" d="m32.39 16.59c0.04 0.59 0.08 1.55 -0.07 2.42c-0.91 5.09 -6.11 16.22 -13.23 23.04"/>
		</g>
		<g id="kvg:0987b-g9" kvg:element="丿">
			<path id="kvg:0987b-s2" kvg:type="㇒" d="m35.92 38.05c0.05 0.7 0.12 1.84 -0.11 2.86c-1.33 6.05 -8.98 19.31 -19.46 27.44"/>
		</g>
		<g id="kvg:0987b-g10" kvg:element="丿">
			<path id="kvg:0987b-s3" kvg:type="㇒" d="m38.37 57.47c0.07 0.9 0.16 2.3 -0.14 3.57c-1.8 7.54 -12.11 24.05 -26.23 34.16"/>
		</g>
	</g>
	<g id="kvg:0987b-g11" kvg:element="页" kvg:position="right">
		<path id="kvg:0987b-s4" kvg:type="㇐" d="m50.2 21.01c2.7 0.44 4.99 0.48 6.74 0.29c10.96 -1.19 15.31 -2.39 27.74 -3.24c2.93 -0.2 4.69 -0.02 6.16 0.28"/>
		<path id="kvg:0987b-s5" kvg:type="㇒" d="m70.73 23.5c0.06 0.8 0.05 1.91 -0.26 2.65c-1.22 2.95 -3.06 6.56 -5.2 9.67"/>
		<g id="kvg:0987b-g12" kvg:element="贝" kvg:radical="general">
			<g id="kvg:0987b-g8" kvg:element="冂" kvg:variant="true" kvg:radical="general">
				<path id="kvg:0987b-s6" kvg:type="㇑" d="m51.3 40c0.55 0.77 0.85 1.7 0.4 0.95c0.92 5.76 1.8 14.72 1.9 23.29c0.1 1.19 0.18 2.33 0.28 11.7"/>
				<path id="kvg:0987b-s7" kvg:type="㇕" d="m51.71 40.94c9.05 -1.22 22.64 -3.61 32.26 -4.19c2.44 -0.17 3.74 1.19 3.54 3.52c-0.52 5.94 -1.62 14.23 -1.85 21.76c-0.23 1.21 -0.46 4.86 -0.7 11.8"/>
			</g>
			<g id="kvg:0987b-g13" kvg:element="人" kvg:position="bottom" kvg:radical="general">
				<path id="kvg:0987b-s8" kvg:type="㇒" d="m70.3 54.08c0.23 1.36 0.14 2.57 -0.13 4c-1.56 8.44 -9.61 29.35 -22.67 38.93"/>
				<path id="kvg:0987b-s9" kvg:type="㇏" d="m65.2 75.95c3.67 3.83 15.31 14.2 21.31 18.98c2.2 1.73 4.16 2.95 6.89 3.53"/>
			</g>
		</g>
	</g>
</g>
</g>
<g id="kvg:StrokeNumbers_0987b" style="font-size:8;fill:#808080">
	<text transform="matrix(1 0 0 1 32.50 15.50)">1</text>
	<text transform="matrix(1 0 0 1 35.50 34.50)">2</text>
	<text transform="matrix(1 0 0 1 40.50 61.50)">3</text>
	<text transform="matrix(1 0 0 1 46.50 18.50)">4</text>
	<text transform="matrix(1 0 0 1 65.50 16.50)">5</text>
	<text transform="matrix(1 0 0 1 40.50 47.50)">6</text>
	<text transform="matrix(1 0 0 1 49.75 37.63)">7</text>
	<text transform="matrix(1 0 0 1 60.50 53.63)">8</text>
	<text transform="matrix(1 0 0 1 70.50 77.63)">9</text>
</g>
</svg>
