<?xml version="1.0" encoding="UTF-8"?>
<!--
Copyright (C) 2016 François Mizessyn.
This work makes an extensive use of kanjiVG Copyright (C) 2009/2010/2011 Ulrich Apel.
This work is distributed under the conditions of the Creative Commons
Attribution-Share Alike 3.0 Licence. This means you are free:
* to Share - to copy, distribute and transmit the work
* to Remix - to adapt the work

Under the following conditions:
* Attribution. You must attribute the work by stating your use of HanjiVG in
  your own copyright header and linking to HanjiVG's website
  (http://gooo.free.fr/hanziVG/)
* Attribution. You must attribute the work by stating your use of KanjiVG in
  your own copyright header and linking to KanjiVG's website
  (http://kanjivg.tagaini.net)
* Share Alike. If you alter, transform, or build upon this work, you may
  distribute the resulting work only under the same or similar license to this
  one.

See http://creativecommons.org/licenses/by-sa/3.0/ for more details.
-->
<!DOCTYPE svg PUBLIC "-//W3C//DTD SVG 1.0//EN" "http://www.w3.org/TR/2001/REC-SVG-20010904/DTD/svg10.dtd" [
<!ATTLIST g
xmlns:kvg CDATA #FIXED "http://kanjivg.tagaini.net"
kvg:element CDATA #IMPLIED
kvg:variant CDATA #IMPLIED
kvg:partial CDATA #IMPLIED
kvg:original CDATA #IMPLIED
kvg:part CDATA #IMPLIED
kvg:number CDATA #IMPLIED
kvg:tradForm CDATA #IMPLIED
kvg:radicalForm CDATA #IMPLIED
kvg:position CDATA #IMPLIED
kvg:radical CDATA #IMPLIED
kvg:phon CDATA #IMPLIED >
<!ATTLIST path
xmlns:kvg CDATA #FIXED "http://kanjivg.tagaini.net"
kvg:type CDATA #IMPLIED >
]>
<svg xmlns="http://www.w3.org/2000/svg" width="109" height="109" viewBox="0 0 109 109">
<g id="kvg:StrokePaths_09884" style="fill:none;stroke:#000000;stroke-width:3;stroke-linecap:round;stroke-linejoin:round;">
<g id="kvg:09884" kvg:element="预">
	<g id="kvg:09884-g1" kvg:element="予" kvg:position="left" kvg:phon="予">
		<g id="kvg:09884-g2" kvg:element="マ" kvg:position="top">
			<path id="kvg:09884-s1" kvg:type="㇇" d="m17.75 20.4c1.58 0.72 3.34 0.48 4.96 0.15c4.66 -0.97 16.45 -3.65 18.36 -4.05c2.14 -0.46 2.87 1.92 1.59 3.41c-2.2 2.55 -9.1 11.05 -10.45 12.87"/>
			<path id="kvg:09884-s2" kvg:type="㇔" d="m26.08 29.76c2 1.14 7.16 5.51 8.1 8.48"/>
		</g>
		<g id="kvg:09884-g3" kvg:element="了" kvg:position="bottom">
			<path id="kvg:09884-s3" kvg:type="㇇a" d="m13.76 43.17c1.29 0.58 3.56 0.8 6.09 0.28c5.31 -1.08 23.07 -5 25.97 -5.39c6.11 -0.82 -1.65 8.68 -4.09 11.97"/>
			<g id="kvg:09884-g4" kvg:element="亅">
				<path id="kvg:09884-s4" kvg:type="㇚" d="m32.8 43.07c0.87 0.97 1.31 2.4 1.31 4.24c0 1.84 -0.05 38.1 -0.05 41.48c0 11.66 -5.49 0.61 -7 -0.92"/>
			</g>
		</g>
	</g>
	<g id="kvg:09884-g4" kvg:element="页" kvg:position="right">
		<path id="kvg:09884-s5" kvg:type="㇐" d="m54.44 21.01c2.6 0.44 4.81 0.48 6.49 0.29c10.54 -1.19 14.73 -2.39 26.69 -3.24c2.82 -0.2 4.52 -0.02 5.92 0.28"/>
		<path id="kvg:09884-s6" kvg:type="㇒" d="m74.2 23.5c0.06 0.8 0.05 1.91 -0.25 2.65c-1.18 2.95 -2.94 6.56 -4.99 9.67"/>
		<g id="kvg:09884-g5" kvg:element="贝" kvg:radical="general">
			<g id="kvg:09884-g6" kvg:element="冂" kvg:variant="true" kvg:radical="general">
				<path id="kvg:09884-s7" kvg:type="㇑" d="m55.5 40c0.53 0.77 0.82 1.7 0.39 0.95c0.89 5.76 1.74 14.72 1.82 23.29c0.09 1.19 0.17 2.33 0.27 11.7"/>
				<path id="kvg:09884-s8" kvg:type="㇕" d="m55.9 40.94c8.7 -1.22 21.79 -3.61 31.03 -4.19c2.35 -0.17 3.6 1.19 3.41 3.52c-0.5 5.94 -1.57 14.23 -1.78 21.76c-0.22 1.21 -0.43 4.86 -0.67 11.8"/>
			</g>
			<g id="kvg:09884-g7" kvg:element="人" kvg:position="bottom" kvg:radical="general">
				<path id="kvg:09884-s9" kvg:type="㇒" d="m73.77 54.08c0.23 1.36 0.14 2.57 -0.12 4c-1.49 8.44 -9.24 29.35 -21.8 38.93"/>
				<path id="kvg:09884-s10" kvg:type="㇏" d="m68.87 75.95c3.53 3.83 14.73 14.2 20.5 18.98c2.12 1.73 4.01 2.95 6.62 3.53"/>
			</g>
		</g>
	</g>
</g>
</g>
<g id="kvg:StrokeNumbers_09884" style="font-size:8;fill:#808080">
	<text transform="matrix(1 0 0 1 9.50 21.13)">1</text>
	<text transform="matrix(1 0 0 1 17.50 32.50)">2</text>
	<text transform="matrix(1 0 0 1 4.50 45.50)">3</text>
	<text transform="matrix(1 0 0 1 27.50 52.63)">4</text>
	<text transform="matrix(1 0 0 1 49.50 17.50)">5</text>
	<text transform="matrix(1 0 0 1 75.50 26.50)">6</text>
	<text transform="matrix(1 0 0 1 44.50 51.50)">7</text>
	<text transform="matrix(1 0 0 1 54.75 39.63)">8</text>
	<text transform="matrix(1 0 0 1 64.50 53.63)">9</text>
	<text transform="matrix(1 0 0 1 71.50 82.63)">10</text>
</g>
</svg>
