<?xml version="1.0" encoding="UTF-8"?>
<!--
Copyright (C) 2016 François Mizessyn.
This work makes an extensive use of kanjiVG Copyright (C) 2009/2010/2011 Ulrich Apel.
This work is distributed under the conditions of the Creative Commons
Attribution-Share Alike 3.0 Licence. This means you are free:
* to Share - to copy, distribute and transmit the work
* to Remix - to adapt the work

Under the following conditions:
* Attribution. You must attribute the work by stating your use of HanjiVG in
  your own copyright header and linking to HanjiVG's website
  (http://gooo.free.fr/hanziVG/)
* Attribution. You must attribute the work by stating your use of KanjiVG in
  your own copyright header and linking to KanjiVG's website
  (http://kanjivg.tagaini.net)
* Share Alike. If you alter, transform, or build upon this work, you may
  distribute the resulting work only under the same or similar license to this
  one.

See http://creativecommons.org/licenses/by-sa/3.0/ for more details.
-->
<!DOCTYPE svg PUBLIC "-//W3C//DTD SVG 1.0//EN" "http://www.w3.org/TR/2001/REC-SVG-20010904/DTD/svg10.dtd" [
<!ATTLIST g
xmlns:kvg CDATA #FIXED "http://kanjivg.tagaini.net"
kvg:element CDATA #IMPLIED
kvg:variant CDATA #IMPLIED
kvg:partial CDATA #IMPLIED
kvg:original CDATA #IMPLIED
kvg:part CDATA #IMPLIED
kvg:number CDATA #IMPLIED
kvg:tradForm CDATA #IMPLIED
kvg:radicalForm CDATA #IMPLIED
kvg:position CDATA #IMPLIED
kvg:radical CDATA #IMPLIED
kvg:phon CDATA #IMPLIED >
<!ATTLIST path
xmlns:kvg CDATA #FIXED "http://kanjivg.tagaini.net"
kvg:type CDATA #IMPLIED >
]>
<svg xmlns="http://www.w3.org/2000/svg" width="109" height="109" viewBox="0 0 109 109">
<g id="kvg:StrokePaths_0989c" style="fill:none;stroke:#000000;stroke-width:3;stroke-linecap:round;stroke-linejoin:round;">
<g id="kvg:0989c" kvg:element="颜">
	<g id="kvg:0989c-g1" kvg:element="彦" kvg:variant="true" kvg:position="left">
		<g id="kvg:0989c-g2" kvg:element="立" kvg:position="top">
			<g id="kvg:0989c-g3" kvg:element="亠" kvg:position="top">
				<path id="kvg:0989c-s1" kvg:type="㇑a" d="M32.16,11.72c0.83,0.94,1.25,0.94,1.25,3.12c0,2.19,0,2.51,0,8.44"/>
				<path id="kvg:0989c-s2" kvg:type="㇐" d="M15.5,25.03c0.98,0.5,2.12,0.56,3.11,0.5c9.56-0.57,22.13-2.29,29.82-3.15c1.63-0.18,2.62,0.24,3.44,0.49"/>
			</g>
			<g id="kvg:0989c-g4" kvg:position="bottom">
				<path id="kvg:0989c-s3" kvg:type="㇔" d="m24.71 30.34c2.98 4.57 4.33 8.57 4.6 11.58"/>
				<path id="kvg:0989c-s4" kvg:type="㇒" d="m45.8 27.77c0.2 1.21 0.23 2.55 0.08 2.88c-1.38 2.93 -4.27 8.69 -5.43 10.61"/>
			</g>
			<g id="kvg:0989c-g5" kvg:element="厂" kvg:part="1">
				<path id="kvg:0989c-s5" kvg:type="㇐" d="M14.99,48.69c0.67,0.23,3.66,0.33,4.32,0.23c9.34-1.44,20.04-2.22,29.54-3.43c1.1-0.14,2.88,0.11,3.44,0.23"/>
			</g>
		</g>
		<g id="kvg:0989c-g6" kvg:element="厂" kvg:part="2">
			<path id="kvg:0989c-s6" kvg:type="㇒" d="M19.4,48.97c0.34,0.38,0.39,3.09,0.4,4.29c0.18,18.03-3.55,31.99-9.59,41.2"/>
		</g>
		<g id="kvg:0989c-g7" kvg:element="彡">
			<g id="kvg:0989c-g8" kvg:element="丿">
				<path id="kvg:0989c-s7" kvg:type="㇒" d="M42.66,50.37c0.04,0.37,0.09,0.97-0.08,1.51c-1.01,3.18-6.79,10.14-14.7,14.4"/>
			</g>
			<g id="kvg:0989c-g9" kvg:element="丿">
				<path id="kvg:0989c-s8" kvg:type="㇒" d="M46.58,63.78c0.06,0.44,0.13,1.15-0.12,1.79c-1.48,3.78-9.98,12.07-21.62,17.15"/>
			</g>
			<g id="kvg:0989c-g10" kvg:element="丿">
				<path id="kvg:0989c-s9" kvg:type="㇒" d="M49.3,75.92c0.08,0.56,0.18,1.44-0.16,2.23c-2,4.71-13.46,15.03-29.15,21.35"/>
			</g>
		</g>
	</g>
	<g id="kvg:0989c-g11" kvg:element="页" kvg:position="right">
		<path id="kvg:0989c-s10" kvg:type="㇐" d="m58.5 21.01c2.25 0.44 4.16 0.48 5.62 0.29c9.13 -1.19 12.76 -2.39 23.12 -3.24c2.44 -0.2 3.91 -0.02 5.13 0.28"/>
		<path id="kvg:0989c-s11" kvg:type="㇒" d="m75.61 23.5c0.05 0.8 0.04 1.91 -0.22 2.65c-1.02 2.95 -2.55 6.56 -4.33 9.67"/>
		<g id="kvg:0989c-g12" kvg:element="贝" kvg:radical="general">
			<g id="kvg:0989c-g8" kvg:element="冂" kvg:variant="true" kvg:radical="general">
				<path id="kvg:0989c-s12" kvg:type="㇑" d="m59.42 40c0.46 0.77 0.71 1.7 0.33 0.95c0.77 5.76 1.5 14.72 1.58 23.29c0.08 1.19 0.15 2.33 0.23 11.7"/>
				<path id="kvg:0989c-s13" kvg:type="㇕" d="m59.76 40.94c7.54 -1.22 18.87 -3.61 26.88 -4.19c2.03 -0.17 3.12 1.19 2.95 3.52c-0.43 5.94 -1.35 14.23 -1.54 21.76c-0.19 1.21 -0.38 4.86 -0.58 11.8"/>
			</g>
			<g id="kvg:0989c-g13" kvg:element="人" kvg:position="bottom" kvg:radical="general">
				<path id="kvg:0989c-s14" kvg:type="㇒" d="m75.25 54.08c0.19 1.36 0.12 2.57 -0.11 4c-1.3 8.44 -8.01 29.35 -18.89 38.93"/>
				<path id="kvg:0989c-s15" kvg:type="㇏" d="m71 75.95c3.06 3.83 12.76 14.2 17.76 18.98c1.83 1.73 3.47 2.95 5.74 3.53"/>
			</g>
		</g>
	</g>
</g>
</g>
<g id="kvg:StrokeNumbers_0989c" style="font-size:8;fill:#808080">
	<text transform="matrix(1 0 0 1 21.50 13.50)">1</text>
	<text transform="matrix(1 0 0 1 4.50 28.50)">2</text>
	<text transform="matrix(1 0 0 1 34.50 30.98)">3</text>
	<text transform="matrix(1 0 0 1 21.50 36.50)">4</text>
	<text transform="matrix(1 0 0 1 13.25 45.50)">5</text>
	<text transform="matrix(1 0 0 1 6.50 58.50)">6</text>
	<text transform="matrix(1 0 0 1 35.50 55.50)">7</text>
	<text transform="matrix(1 0 0 1 38.50 67.50)">8</text>
	<text transform="matrix(1 0 0 1 41.50 79.50)">9</text>
	<text transform="matrix(1 0 0 1 49.50 17.50)">10</text>
	<text transform="matrix(1 0 0 1 75.50 26.50)">11</text>
	<text transform="matrix(1 0 0 1 44.50 51.50)">12</text>
	<text transform="matrix(1 0 0 1 54.75 39.63)">13</text>
	<text transform="matrix(1 0 0 1 64.50 53.63)">14</text>
	<text transform="matrix(1 0 0 1 71.50 82.63)">15</text>
</g>
</svg>
