<?xml version="1.0" encoding="UTF-8"?>
<!--
Copyright (C) 2016 François Mizessyn.
This work makes an extensive use of kanjiVG Copyright (C) 2009/2010/2011 Ulrich Apel.
This work is distributed under the conditions of the Creative Commons
Attribution-Share Alike 3.0 Licence. This means you are free:
* to Share - to copy, distribute and transmit the work
* to Remix - to adapt the work

Under the following conditions:
* Attribution. You must attribute the work by stating your use of HanjiVG in
  your own copyright header and linking to HanjiVG's website
  (http://gooo.free.fr/hanziVG/)
* Attribution. You must attribute the work by stating your use of KanjiVG in
  your own copyright header and linking to KanjiVG's website
  (http://kanjivg.tagaini.net)
* Share Alike. If you alter, transform, or build upon this work, you may
  distribute the resulting work only under the same or similar license to this
  one.

See http://creativecommons.org/licenses/by-sa/3.0/ for more details.
-->
<!DOCTYPE svg PUBLIC "-//W3C//DTD SVG 1.0//EN" "http://www.w3.org/TR/2001/REC-SVG-20010904/DTD/svg10.dtd" [
<!ATTLIST g
xmlns:kvg CDATA #FIXED "http://kanjivg.tagaini.net"
kvg:element CDATA #IMPLIED
kvg:variant CDATA #IMPLIED
kvg:partial CDATA #IMPLIED
kvg:original CDATA #IMPLIED
kvg:part CDATA #IMPLIED
kvg:number CDATA #IMPLIED
kvg:tradForm CDATA #IMPLIED
kvg:radicalForm CDATA #IMPLIED
kvg:position CDATA #IMPLIED
kvg:radical CDATA #IMPLIED
kvg:phon CDATA #IMPLIED >
<!ATTLIST path
xmlns:kvg CDATA #FIXED "http://kanjivg.tagaini.net"
kvg:type CDATA #IMPLIED >
]>
<svg xmlns="http://www.w3.org/2000/svg" width="109" height="109" viewBox="0 0 109 109">
<g id="kvg:StrokePaths_09898" style="fill:none;stroke:#000000;stroke-width:3;stroke-linecap:round;stroke-linejoin:round;">
<g id="kvg:09898" kvg:element="题">
	<g id="kvg:09898-g1" kvg:element="是" kvg:position="nyo" kvg:phon="是">
		<g id="kvg:09898-g2" kvg:element="日" kvg:position="top" kvg:radical="nelson">
			<path id="kvg:09898-s1" kvg:type="㇑" d="M19.02,15.84c0.89,0.89,1.4,2.05,1.4,2.98c0,0.71,1.73,13.95,2.59,20.55c0.26,2.02,0.45,3.42,0.47,3.64"/>
			<path id="kvg:09898-s2" kvg:type="㇕a" d="M20.96,17.2c1.54-0.1,14.79-2.19,20.06-2.94c2.74-0.4,4.23,1.61,4.09,3.64c-0.25,3.54-1.04,11.35-1.89,19.13c-0.12,1.08-0.24,2.15-0.35,3.22"/>
			<path id="kvg:09898-s3" kvg:type="㇐a" d="M22.8,28.8c4.57-0.67,16.82-2.3,20.49-2.75"/>
			<path id="kvg:09898-s4" kvg:type="㇐a" d="M24.23,40.14c5.65-0.76,10.9-1.51,17.76-2.26"/>
		</g>
		<g id="kvg:09898-g3" kvg:element="疋" kvg:variant="true" kvg:position="bottom">
			<path id="kvg:09898-s5" kvg:type="㇐" d="M10.75,51.58c1.47,0.43,4.17,0.59,5.63,0.43c7.87-0.88,20.74-3.2,28.35-3.88c2.43-0.22,3.92,0.2,5.14,0.42"/>
			<g id="kvg:09898-g4" kvg:element="卜" kvg:original="ト">
				<path id="kvg:09898-s6" kvg:type="㇑a" d="M32.57,51.88c0.84,0.84,1.12,2.1,1.12,3.07c0,2.56,0.01,16.56,0.01,24.06"/>
				<path id="kvg:09898-s7" kvg:type="㇐c" d="M34.35,64.52C38.62,64,43,63.75,45.71,63.39c1.55-0.21,3-0.32,3.79-0.13"/>
			</g>
			<g id="kvg:09898-g5" kvg:element="人">
				<path id="kvg:09898-s8" kvg:type="㇒" d="M21.38,60.75c0.03,0.66,0.06,1.71-0.06,2.67C20.5,70,16.38,82.5,10.56,88.97"/>
				<path id="kvg:09898-s9" kvg:type="㇏" d="M20.75,75.75c7,0.38,35.25,15.12,58.33,19.65c3.36,0.66,6.12,1.34,9.42,1.6"/>
			</g>
		</g>
	</g>
	<g id="kvg:09898-g6" kvg:element="页" kvg:position="right">
		<path id="kvg:09898-s10" kvg:type="㇐" d="M54.5,17.51c2.25,0.37,4.16,0.4,5.62,0.24c9.13-0.99,16.76-1.99,27.12-2.7c2.44-0.17,3.91-0.02,5.13,0.23"/>
		<path id="kvg:09898-s11" kvg:type="㇒" d="M75.61,19.58c0.05,0.67,0.04,1.59-0.22,2.21c-1.02,2.46-2.55,5.47-4.33,8.06"/>
		<g id="kvg:09898-g7" kvg:element="贝" kvg:radical="general">
			<g id="kvg:09898-g8" kvg:element="冂" kvg:variant="true" kvg:radical="general">
				<path id="kvg:09898-s12" kvg:type="㇑" d="m59.42 33.33c0.46 0.64 0.71 1.42 0.33 0.79c0.77 4.8 1.5 12.27 1.58 19.41c0.08 0.99 0.15 1.94 0.23 9.75"/>
				<path id="kvg:09898-s13" kvg:type="㇕" d="m59.76 34.12c7.54 -1.02 18.87 -3.01 26.88 -3.49c2.03 -0.14 3.12 0.99 2.95 2.93c-0.43 4.95 -1.35 11.86 -1.54 18.13c-0.19 1.01 -0.38 4.05 -0.58 9.83"/>
			</g>
			<g id="kvg:09898-g9" kvg:element="人" kvg:position="bottom" kvg:radical="general">
				<path id="kvg:09898-s14" kvg:type="㇒" d="m75.25 45.07c0.19 1.13 0.12 2.14 -0.11 3.33c-1.3 7.03 -8.01 24.46 -18.89 32.44"/>
				<path id="kvg:09898-s15" kvg:type="㇏" d="m71 63.29c3.06 3.19 12.76 11.83 17.76 15.82c1.83 1.44 3.47 2.46 5.74 2.94"/>
			</g>
		</g>
	</g>
</g>
</g>
<g id="kvg:StrokeNumbers_09898" style="font-size:8;fill:#808080">
	<text transform="matrix(1 0 0 1 11.50 24.13)">1</text>
	<text transform="matrix(1 0 0 1 21.50 13.94)">2</text>
	<text transform="matrix(1 0 0 1 24.42 26.63)">3</text>
	<text transform="matrix(1 0 0 1 26.25 37.63)">4</text>
	<text transform="matrix(1 0 0 1 3.50 52.35)">5</text>
	<text transform="matrix(1 0 0 1 24.25 62.13)">6</text>
	<text transform="matrix(1 0 0 1 39.75 60.50)">7</text>
	<text transform="matrix(1 0 0 1 10.75 65.50)">8</text>
	<text transform="matrix(1 0 0 1 19.75 88.63)">9</text>
	<text transform="matrix(1 0 0 1 52.50 14.50)">10</text>
	<text transform="matrix(1 0 0 1 75.50 26.50)">11</text>
	<text transform="matrix(1 0 0 1 44.50 41.50)">12</text>
	<text transform="matrix(1 0 0 1 54.75 29.63)">13</text>
	<text transform="matrix(1 0 0 1 64.50 43.63)">14</text>
	<text transform="matrix(1 0 0 1 71.50 62.63)">15</text>
</g>
</svg>
