<?xml version="1.0" encoding="UTF-8"?>
<!--
Copyright (C) 2016 François Mizessyn.
This work makes an extensive use of kanjiVG Copyright (C) 2009/2010/2011 Ulrich Apel.
This work is distributed under the conditions of the Creative Commons
Attribution-Share Alike 3.0 Licence. This means you are free:
* to Share - to copy, distribute and transmit the work
* to Remix - to adapt the work

Under the following conditions:
* Attribution. You must attribute the work by stating your use of HanjiVG in
  your own copyright header and linking to HanjiVG's website
  (http://gooo.free.fr/hanziVG/)
* Attribution. You must attribute the work by stating your use of KanjiVG in
  your own copyright header and linking to KanjiVG's website
  (http://kanjivg.tagaini.net)
* Share Alike. If you alter, transform, or build upon this work, you may
  distribute the resulting work only under the same or similar license to this
  one.

See http://creativecommons.org/licenses/by-sa/3.0/ for more details.
-->
<!DOCTYPE svg PUBLIC "-//W3C//DTD SVG 1.0//EN" "http://www.w3.org/TR/2001/REC-SVG-20010904/DTD/svg10.dtd" [
<!ATTLIST g
xmlns:kvg CDATA #FIXED "http://kanjivg.tagaini.net"
kvg:element CDATA #IMPLIED
kvg:variant CDATA #IMPLIED
kvg:partial CDATA #IMPLIED
kvg:original CDATA #IMPLIED
kvg:part CDATA #IMPLIED
kvg:number CDATA #IMPLIED
kvg:tradForm CDATA #IMPLIED
kvg:radicalForm CDATA #IMPLIED
kvg:position CDATA #IMPLIED
kvg:radical CDATA #IMPLIED
kvg:phon CDATA #IMPLIED >
<!ATTLIST path
xmlns:kvg CDATA #FIXED "http://kanjivg.tagaini.net"
kvg:type CDATA #IMPLIED >
]>
<svg xmlns="http://www.w3.org/2000/svg" width="109" height="109" viewBox="0 0 109 109">
<g id="kvg:StrokePaths_098ce" style="fill:none;stroke:#000000;stroke-width:3;stroke-linecap:round;stroke-linejoin:round;">
<g id="kvg:098ce" kvg:element="风">
	<g id="kvg:098ce-g1" kvg:element="几" kvg:position="kamae" kvg:radical="general">
		<g id="kvg:098ce-g2" kvg:element="丿">
			<path id="kvg:098ce-s1" kvg:type="㇒" d="M27.29,20c0.46,1.95,1.11,3.49,1.11,5.92c0,22.27,1.1,50.33-13.65,65.83"/>
		</g>
		<path id="kvg:098ce-s2" kvg:type="㇈a" d="M28.25,21.5c11-1.75,44.75-5.75,48.75-5.75s5.83,0.94,5.5,4.75c-1.75,20.25-3.08,47.96,8,64.75c8.25,12.5,6.5,7,6-3"/>
	</g>
	<g id="kvg:098ce-g3" kvg:element="乂" kvg:position="bottom">
		<g id="kvg:098ce-g4" kvg:element="丿">
			<path id="kvg:098ce-s4" kvg:type="㇒" d="m66.64 30.61c0.55 1.26 0.86 2.15 0.28 4.45c-5.23 20.85 -14.24 38.63 -34.38 47.54"/>
		</g>
		<path id="kvg:098ce-s5" kvg:type="㇏" d="m39.77 35.41c6.74 13.3 21.17 33.94 31.11 44.89c1.84 2.02 3.78 3.36 5.32 3.57"/>
	</g>
</g>
</g>
<g id="kvg:StrokeNumbers_098ce" style="font-size:8;fill:#808080">
	<text transform="matrix(1 0 0 1 17.75 26.50)">1</text>
	<text transform="matrix(1 0 0 1 25.50 16.50)">2</text>
	<text transform="matrix(1 0 0 1 55.50 33.50)">3</text>
	<text transform="matrix(1 0 0 1 38.50 34.50)">4</text>
</g>
</svg>
