<?xml version="1.0" encoding="UTF-8"?>
<!--
Copyright (C) 2016 François Mizessyn.
This work makes an extensive use of kanjiVG Copyright (C) 2009/2010/2011 Ulrich Apel.
This work is distributed under the conditions of the Creative Commons
Attribution-Share Alike 3.0 Licence. This means you are free:
* to Share - to copy, distribute and transmit the work
* to Remix - to adapt the work

Under the following conditions:
* Attribution. You must attribute the work by stating your use of HanjiVG in
  your own copyright header and linking to HanjiVG's website
  (http://gooo.free.fr/hanziVG/)
* Attribution. You must attribute the work by stating your use of KanjiVG in
  your own copyright header and linking to KanjiVG's website
  (http://kanjivg.tagaini.net)
* Share Alike. If you alter, transform, or build upon this work, you may
  distribute the resulting work only under the same or similar license to this
  one.

See http://creativecommons.org/licenses/by-sa/3.0/ for more details.
-->
<!DOCTYPE svg PUBLIC "-//W3C//DTD SVG 1.0//EN" "http://www.w3.org/TR/2001/REC-SVG-20010904/DTD/svg10.dtd" [
<!ATTLIST g
xmlns:kvg CDATA #FIXED "http://kanjivg.tagaini.net"
kvg:element CDATA #IMPLIED
kvg:variant CDATA #IMPLIED
kvg:partial CDATA #IMPLIED
kvg:original CDATA #IMPLIED
kvg:part CDATA #IMPLIED
kvg:number CDATA #IMPLIED
kvg:tradForm CDATA #IMPLIED
kvg:radicalForm CDATA #IMPLIED
kvg:position CDATA #IMPLIED
kvg:radical CDATA #IMPLIED
kvg:phon CDATA #IMPLIED >
<!ATTLIST path
xmlns:kvg CDATA #FIXED "http://kanjivg.tagaini.net"
kvg:type CDATA #IMPLIED >
]>
<svg xmlns="http://www.w3.org/2000/svg" width="109" height="109" viewBox="0 0 109 109">
<g id="kvg:StrokePaths_098de" style="fill:none;stroke:#000000;stroke-width:3;stroke-linecap:round;stroke-linejoin:round;">
<g id="kvg:098de" kvg:element="飞">
	<path id="kvg:098de-s1" kvg:type="㇈" d="M18.25,23c2.5,0.5,4.99,0.61,6.52,0.38c13.4-2.01,40.14-5.63,43.73-5.63c4,0,5.82,0.94,5.5,4.75c-1.75,20.75-1.58,50.2,9.5,66.25c7.25,10.5,7.25,1,7-6"/>
	<path id="kvg:098de-s2" kvg:type="㇒" d="m86.89 36.63c0.03 0.26 0.05 0.66 -0.05 1.03c-0.61 2.16 -4.16 6.9 -9.02 9.8"/>
	<path id="kvg:098de-s3" kvg:type="㇔" d="m78.26 54.43c4.32 1.87 11.17 7.67 12.25 10.57"/>
</g>
</g>
<g id="kvg:StrokeNumbers_098de" style="font-size:8;fill:#808080">
	<text transform="matrix(1 0 0 1 10.50 18.50)">1</text>
	<text transform="matrix(1 0 0 1 85.50 33.13)">2</text>
	<text transform="matrix(1 0 0 1 63.50 58.50)">3</text>
</g>
</svg>
