<?xml version="1.0" encoding="UTF-8"?>
<!--
Copyright (C) 2016 François Mizessyn.
This work makes an extensive use of kanjiVG Copyright (C) 2009/2010/2011 Ulrich Apel.
This work is distributed under the conditions of the Creative Commons
Attribution-Share Alike 3.0 Licence. This means you are free:
* to Share - to copy, distribute and transmit the work
* to Remix - to adapt the work

Under the following conditions:
* Attribution. You must attribute the work by stating your use of HanjiVG in
  your own copyright header and linking to HanjiVG's website
  (http://gooo.free.fr/hanziVG/)
* Attribution. You must attribute the work by stating your use of KanjiVG in
  your own copyright header and linking to KanjiVG's website
  (http://kanjivg.tagaini.net)
* Share Alike. If you alter, transform, or build upon this work, you may
  distribute the resulting work only under the same or similar license to this
  one.

See http://creativecommons.org/licenses/by-sa/3.0/ for more details.
-->
<!DOCTYPE svg PUBLIC "-//W3C//DTD SVG 1.0//EN" "http://www.w3.org/TR/2001/REC-SVG-20010904/DTD/svg10.dtd" [
<!ATTLIST g
xmlns:kvg CDATA #FIXED "http://kanjivg.tagaini.net"
kvg:element CDATA #IMPLIED
kvg:variant CDATA #IMPLIED
kvg:partial CDATA #IMPLIED
kvg:original CDATA #IMPLIED
kvg:part CDATA #IMPLIED
kvg:number CDATA #IMPLIED
kvg:tradForm CDATA #IMPLIED
kvg:radicalForm CDATA #IMPLIED
kvg:position CDATA #IMPLIED
kvg:radical CDATA #IMPLIED
kvg:phon CDATA #IMPLIED >
<!ATTLIST path
xmlns:kvg CDATA #FIXED "http://kanjivg.tagaini.net"
kvg:type CDATA #IMPLIED >
]>
<svg xmlns="http://www.w3.org/2000/svg" width="109" height="109" viewBox="0 0 109 109">
<g id="kvg:StrokePaths_0996e" style="fill:none;stroke:#000000;stroke-width:3;stroke-linecap:round;stroke-linejoin:round;">
<g id="kvg:0996e" kvg:element="饮">
	<g id="kvg:0996e-g1" kvg:element="饣" kvg:variant="true" kvg:position="left" kvg:radical="general">
		<g id="kvg:0996e-g2" kvg:element="⺈" kvg:position="top">
			<path id="kvg:0996e-s1" kvg:type="㇒" d="M20.94,15.39c0.09,1.43,0.11,2.62-0.4,3.98c-2.77,7.4-9.35,20.71-7.62,21.39"/>
			<path id="kvg:0996e-s2" kvg:type="㇖a" d="M17.61,28.93c1.01,0.21,0.76,0.25,5.82,0.1c9.61-0.65,16.68-3.35,14.23-2.53c6.23-0.7,4.15,2.08,0.04,15.32"/>
		</g>
		<path id="kvg:09986-s3" d="M24.95,39.19c1.24,0.78,0.24,0.52,1.24,3.14c0,4.35,0.62,32.63-1.31,48.98c-1.88-0.62,1.5-1.6,13.38-13.12"/>
	</g>
	<g id="kvg:0996e-g3" kvg:element="欠" kvg:position="right">
		<path id="kvg:0996e-s4" kvg:type="㇒" d="M61.5,14.25c0.25,1.12,0.42,2.14,0.18,3.31C60,25.75,55.82,40.12,49,49.5"/>
		<path id="kvg:0996e-s5" kvg:type="㇖a" d="M58.22,37.74c1.9,0.39,3.14,0.18,4.51-0.14c1.67-0.39,21.21-5.25,22.76-5.6c6.75-1.5,3.5,4.5-3,11.25"/>
		<path id="kvg:0996e-s6" kvg:type="㇒" d="M64.85,47.5c0.78,1.5,0.86,2.88,0.62,4.52C63,68.62,57.25,84.5,42.25,95.75"/>
		<path id="kvg:0996e-s7" kvg:type="㇏" d="M65.42,60.5c3.56,6.77,15.26,21.56,22.62,29.46c1.89,2.03,3.98,4.66,6.71,5.54"/>
	</g>
</g>
</g>
<g id="kvg:StrokeNumbers_0996e" style="font-size:8;fill:#808080">
	<text transform="matrix(1 0 0 1 20.50 16.50)">1</text>
	<text transform="matrix(1 0 0 1 5.50 32.50)">2</text>
	<text transform="matrix(1 0 0 1 15.50 43.50)">3</text>
	<text transform="matrix(1 0 0 1 52.50 14.50)">4</text>
	<text transform="matrix(1 0 0 1 62.50 34.50)">5</text>
	<text transform="matrix(1 0 0 1 54.50 53.50)">6</text>
	<text transform="matrix(1 0 0 1 69.50 64.50)">7</text>
</g>
</svg>
