<?xml version="1.0" encoding="UTF-8"?>
<!--
Copyright (C) 2016 François Mizessyn.
This work makes an extensive use of kanjiVG Copyright (C) 2009/2010/2011 Ulrich Apel.
This work is distributed under the conditions of the Creative Commons
Attribution-Share Alike 3.0 Licence. This means you are free:
* to Share - to copy, distribute and transmit the work
* to Remix - to adapt the work

Under the following conditions:
* Attribution. You must attribute the work by stating your use of HanjiVG in
  your own copyright header and linking to HanjiVG's website
  (http://gooo.free.fr/hanziVG/)
* Attribution. You must attribute the work by stating your use of KanjiVG in
  your own copyright header and linking to KanjiVG's website
  (http://kanjivg.tagaini.net)
* Share Alike. If you alter, transform, or build upon this work, you may
  distribute the resulting work only under the same or similar license to this
  one.

See http://creativecommons.org/licenses/by-sa/3.0/ for more details.
-->
<!DOCTYPE svg PUBLIC "-//W3C//DTD SVG 1.0//EN" "http://www.w3.org/TR/2001/REC-SVG-20010904/DTD/svg10.dtd" [
<!ATTLIST g
xmlns:kvg CDATA #FIXED "http://kanjivg.tagaini.net"
kvg:element CDATA #IMPLIED
kvg:variant CDATA #IMPLIED
kvg:partial CDATA #IMPLIED
kvg:original CDATA #IMPLIED
kvg:part CDATA #IMPLIED
kvg:number CDATA #IMPLIED
kvg:tradForm CDATA #IMPLIED
kvg:radicalForm CDATA #IMPLIED
kvg:position CDATA #IMPLIED
kvg:radical CDATA #IMPLIED
kvg:phon CDATA #IMPLIED >
<!ATTLIST path
xmlns:kvg CDATA #FIXED "http://kanjivg.tagaini.net"
kvg:type CDATA #IMPLIED >
]>
<svg xmlns="http://www.w3.org/2000/svg" width="109" height="109" viewBox="0 0 109 109">
<g id="kvg:StrokePaths_0997f" style="fill:none;stroke:#000000;stroke-width:3;stroke-linecap:round;stroke-linejoin:round;">
<g id="kvg:0997f" kvg:element="饿">
	<g id="kvg:0997f-g1" kvg:element="饣" kvg:variant="true" kvg:position="left" kvg:radical="general">
		<g id="kvg:0997f-g2" kvg:element="⺈" kvg:position="top">
			<path id="kvg:0997f-s1" kvg:type="㇒" d="m19.75 15.39c0.07 1.43 0.09 2.62 -0.32 3.98c-2.22 7.4 -7.48 20.71 -6.1 21.39"/>
			<path id="kvg:0997f-s2" kvg:type="㇖a" d="m17.09 28.93c0.81 0.21 0.61 0.25 4.66 0.1c7.69 -0.65 13.34 -3.35 11.38 -2.53c4.98 -0.7 3.32 2.08 0.03 15.32"/>
		</g>
		<path id="kvg:0997f-s3" d="m22.96 39.19c0.99 0.78 0.19 0.52 0.99 3.14c0 4.35 0.5 32.63 -1.05 48.98c-1.5 -0.62 1.2 -1.6 10.7 -13.12"/>
	</g>
	<g id="kvg:0997f-g3" kvg:element="我" kvg:position="right" kvg:phon="我">
		<g id="kvg:0997f-g4" kvg:element="丿">
			<path id="kvg:0997f-s4" kvg:type="㇒" d="m58.82 18.89c0.13 0.95 -0.22 1.74 -0.92 2.47c-3.48 3.64 -7.19 6.02 -16.54 11.64"/>
		</g>
		<g id="kvg:0997f-g5" kvg:element="戈" kvg:part="1">
			<g id="kvg:0997f-g6" kvg:element="弋" kvg:part="1">
				<path id="kvg:0997f-s5" kvg:type="㇐" d="m41.2 44.14c2.76 0.48 5.95 0.54 8.25 0.14c11.02 -1.91 26.61 -4.5 36.33 -5.39c2.2 -0.2 4.28 -0.36 6.45 0.15"/>
				<path id="kvg:0997f-s6" kvg:type="㇚" d="m51.79 30.33c1.12 1.02 1.65 2.67 1.65 4.27c0 14.56 -0.1 47.69 -0.12 52.65c-0.03 9.28 -6.28 1 -7.59 -0.25"/>
			</g>
			<path id="kvg:0997f-s7" kvg:type="㇀" d="m39.12 70.94c1.55 0.56 2.92 0.45 4.4 -0.67c1.16 -0.87 15.17 -11.57 20.05 -15.76"/>
		</g>
		<g id="kvg:0997f-g7" kvg:element="亅">
			<path id="kvg:0997f-s8" kvg:type="㇂" d="m67.83 13.25c1.47 1.34 1.58 3.08 1.65 7.04c0.61 32.46 8.79 65.71 22.99 75.63c4.9 3.42 4.02 1.54 3.41 -6.59"/>
		</g>
		<g id="kvg:0997f-g8" kvg:element="戈" kvg:part="2">
			<g id="kvg:0997f-g9" kvg:element="丿">
				<path id="kvg:0997f-s9" kvg:type="㇒" d="m89.6 50.64c0.07 0.71 -0.18 1.66 -0.68 2.61c-3.43 6.37 -10.86 17.87 -23.91 27.5"/>
			</g>
			<g id="kvg:0997f-g10" kvg:element="弋" kvg:part="2">
				<g id="kvg:0997f-g11" kvg:element="丶">
					<path id="kvg:0997f-s10" kvg:type="㇔" d="m80.25 19.25c2.77 1.9 7.21 6.24 8.49 9.5"/>
				</g>
			</g>
		</g>
	</g>
</g>
</g>
<g id="kvg:StrokeNumbers_0997f" style="font-size:8;fill:#808080">
	<text transform="matrix(1 0 0 1 18.50 16.50)">1</text>
	<text transform="matrix(1 0 0 1 4.50 31.50)">2</text>
	<text transform="matrix(1 0 0 1 15.50 43.50)">3</text>
	<text transform="matrix(1 0 0 1 48.25 19.63)">4</text>
	<text transform="matrix(1 0 0 1 38.50 41.50)">5</text>
	<text transform="matrix(1 0 0 1 55.25 36.13)">6</text>
	<text transform="matrix(1 0 0 1 31.50 70.50)">7</text>
	<text transform="matrix(1 0 0 1 58.50 12.13)">8</text>
	<text transform="matrix(1 0 0 1 78.50 53.63)">9</text>
	<text transform="matrix(1 0 0 1 78.50 17.50)">10</text>
</g>
</svg>
