<?xml version="1.0" encoding="UTF-8"?>
<!--
Copyright (C) 2016 François Mizessyn.
This work makes an extensive use of kanjiVG Copyright (C) 2009/2010/2011 Ulrich Apel.
This work is distributed under the conditions of the Creative Commons
Attribution-Share Alike 3.0 Licence. This means you are free:
* to Share - to copy, distribute and transmit the work
* to Remix - to adapt the work

Under the following conditions:
* Attribution. You must attribute the work by stating your use of HanjiVG in
  your own copyright header and linking to HanjiVG's website
  (http://gooo.free.fr/hanziVG/)
* Attribution. You must attribute the work by stating your use of KanjiVG in
  your own copyright header and linking to KanjiVG's website
  (http://kanjivg.tagaini.net)
* Share Alike. If you alter, transform, or build upon this work, you may
  distribute the resulting work only under the same or similar license to this
  one.

See http://creativecommons.org/licenses/by-sa/3.0/ for more details.
-->
<!DOCTYPE svg PUBLIC "-//W3C//DTD SVG 1.0//EN" "http://www.w3.org/TR/2001/REC-SVG-20010904/DTD/svg10.dtd" [
<!ATTLIST g
xmlns:kvg CDATA #FIXED "http://kanjivg.tagaini.net"
kvg:element CDATA #IMPLIED
kvg:variant CDATA #IMPLIED
kvg:partial CDATA #IMPLIED
kvg:original CDATA #IMPLIED
kvg:part CDATA #IMPLIED
kvg:number CDATA #IMPLIED
kvg:tradForm CDATA #IMPLIED
kvg:radicalForm CDATA #IMPLIED
kvg:position CDATA #IMPLIED
kvg:radical CDATA #IMPLIED
kvg:phon CDATA #IMPLIED >
<!ATTLIST path
xmlns:kvg CDATA #FIXED "http://kanjivg.tagaini.net"
kvg:type CDATA #IMPLIED >
]>
<svg xmlns="http://www.w3.org/2000/svg" width="109" height="109" viewBox="0 0 109 109">
<g id="kvg:StrokePaths_0997c" style="fill:none;stroke:#000000;stroke-width:3;stroke-linecap:round;stroke-linejoin:round;">
<g id="kvg:0997c" kvg:element="饼">
	<g id="kvg:0997c-g1" kvg:element="饣" kvg:variant="true" kvg:position="left" kvg:radical="general">
		<g id="kvg:0997c-g2" kvg:element="⺈" kvg:position="top">
			<path id="kvg:0997c-s1" kvg:type="㇒" d="M20.94,15.39c0.09,1.43,0.11,2.62-0.4,3.98c-2.77,7.4-9.35,20.71-7.62,21.39"/>
			<path id="kvg:0997c-s2" kvg:type="㇖a" d="M17.61,28.93c1.01,0.21,0.76,0.25,5.82,0.1c9.61-0.65,16.68-3.35,14.23-2.53c6.23-0.7,4.15,2.08,0.04,15.32"/>
		</g>
		<path id="kvg:0997c-s3" d="M24.95,39.19c1.24,0.78,0.24,0.52,1.24,3.14c0,4.35,0.62,32.63-1.31,48.98c-1.88-0.62,1.5-1.6,13.38-13.12"/>
	</g>
	<g id="kvg:0997c-g3" kvg:element="并" kvg:position="right">
		<g id="kvg:0997c-g4" kvg:position="top">
			<path id="kvg:0997c-s4" kvg:type="㇔" d="m49.91 14.59c3.29 2.15 8.5 8.85 9.33 12.21"/>
			<path id="kvg:0997c-s5" kvg:type="㇒" d="m84.66 10.39c0.02 0.46 0.13 1.2 -0.06 1.84c-1.37 4.76 -4.68 11.51 -9.39 17.62"/>
		</g>
		<g id="kvg:0997c-g5" kvg:position="bottom">
			<g id="kvg:0997c-g6" kvg:element="干" kvg:part="1">
				<path id="kvg:0997c-s6" kvg:type="㇐" d="m48.52 34.49c1.16 0.5 3.28 0.61 4.43 0.5c8.56 -0.79 25.91 -4.68 36.92 -4.68c1.93 0 3.08 0.24 4.05 0.49"/>
				<g id="kvg:0997c-g7" kvg:element="十" kvg:part="1">
					<path id="kvg:0997c-s7" kvg:type="㇐" d="m43.08 58.7c1.31 0.56 3.69 0.67 4.99 0.56c14.09 -1.27 28.2 -3.13 43.49 -3.78c2.17 -0.09 3.47 0.27 4.56 0.54"/>
					<path id="kvg:0997c-s8" kvg:type="㇒" d="m58.66 36.43c0.62 1.61 1.5 2.89 1.5 4.9c0 18.44 1.63 43.21 -19.73 54.5"/>
				</g>
			</g>
			<g id="kvg:0997c-g8" kvg:element="干" kvg:part="2">
				<g id="kvg:0997c-g8" kvg:element="十" kvg:part="2">
					<path id="kvg:0997c-s9" kvg:type="㇑" d="m77.35 34.23c0.77 0.42 1.23 1.91 1.39 2.76c0.15 0.85 0 56.69 -0.15 62"/>
				</g>
			</g>
		</g>
	</g>
</g>
</g>
<g id="kvg:StrokeNumbers_0997c" style="font-size:8;fill:#808080">
	<text transform="matrix(1 0 0 1 12.50 16.50)">1</text>
	<text transform="matrix(1 0 0 1 22.50 25.50)">2</text>
	<text transform="matrix(1 0 0 1 14.50 45.50)">3</text>
	<text transform="matrix(1 0 0 1 47.50 12.53)">4</text>
	<text transform="matrix(1 0 0 1 73.50 12.50)">5</text>
	<text transform="matrix(1 0 0 1 45.75 31.50)">6</text>
	<text transform="matrix(1 0 0 1 40.50 55.50)">7</text>
	<text transform="matrix(1 0 0 1 62.50 46.50)">8</text>
	<text transform="matrix(1 0 0 1 80.50 44.50)">9</text>
</g>
</svg>
