<?xml version="1.0" encoding="UTF-8"?>
<!--
Copyright (C) 2016 François Mizessyn.
This work makes an extensive use of kanjiVG Copyright (C) 2009/2010/2011 Ulrich Apel.
This work is distributed under the conditions of the Creative Commons
Attribution-Share Alike 3.0 Licence. This means you are free:
* to Share - to copy, distribute and transmit the work
* to Remix - to adapt the work

Under the following conditions:
* Attribution. You must attribute the work by stating your use of HanjiVG in
  your own copyright header and linking to HanjiVG's website
  (http://gooo.free.fr/hanziVG/)
* Attribution. You must attribute the work by stating your use of KanjiVG in
  your own copyright header and linking to KanjiVG's website
  (http://kanjivg.tagaini.net)
* Share Alike. If you alter, transform, or build upon this work, you may
  distribute the resulting work only under the same or similar license to this
  one.

See http://creativecommons.org/licenses/by-sa/3.0/ for more details.
-->
<!DOCTYPE svg PUBLIC "-//W3C//DTD SVG 1.0//EN" "http://www.w3.org/TR/2001/REC-SVG-20010904/DTD/svg10.dtd" [
<!ATTLIST g
xmlns:kvg CDATA #FIXED "http://kanjivg.tagaini.net"
kvg:element CDATA #IMPLIED
kvg:variant CDATA #IMPLIED
kvg:partial CDATA #IMPLIED
kvg:original CDATA #IMPLIED
kvg:part CDATA #IMPLIED
kvg:number CDATA #IMPLIED
kvg:tradForm CDATA #IMPLIED
kvg:radicalForm CDATA #IMPLIED
kvg:position CDATA #IMPLIED
kvg:radical CDATA #IMPLIED
kvg:phon CDATA #IMPLIED >
<!ATTLIST path
xmlns:kvg CDATA #FIXED "http://kanjivg.tagaini.net"
kvg:type CDATA #IMPLIED >
]>
<svg xmlns="http://www.w3.org/2000/svg" width="109" height="109" viewBox="0 0 109 109">
<g id="kvg:StrokePaths_0997a" style="fill:none;stroke:#000000;stroke-width:3;stroke-linecap:round;stroke-linejoin:round;">
<g id="kvg:0997a" kvg:element="饺">
	<g id="kvg:0997a-g1" kvg:element="饣" kvg:variant="true" kvg:position="left" kvg:radical="general">
		<g id="kvg:0997a-g2" kvg:element="⺈" kvg:position="top">
			<path id="kvg:0997a-s1" kvg:type="㇒" d="M20.94,15.39c0.09,1.43,0.11,2.62-0.4,3.98c-2.77,7.4-9.35,20.71-7.62,21.39"/>
			<path id="kvg:0997a-s2" kvg:type="㇖a" d="M17.61,28.93c1.01,0.21,0.76,0.25,5.82,0.1c9.61-0.65,16.68-3.35,14.23-2.53c6.23-0.7,4.15,2.08,0.04,15.32"/>
		</g>
		<path id="kvg:0997a-s3" d="M24.95,39.19c1.24,0.78,0.24,0.52,1.24,3.14c0,4.35,0.62,32.63-1.31,48.98c-1.88-0.62,1.5-1.6,13.38-13.12"/>
	</g>
	<g id="kvg:0997a-g3" kvg:element="交" kvg:position="right">
		<g id="kvg:0997a-g4" kvg:element="亠" kvg:position="top">
			<path id="kvg:0997a-s4" kvg:type="㇑a" d="M67.97,12.5c0.96,0.63,2.54,3.04,2.54,4.28c0,4.92-0.03,8.6-0.13,12.13"/>
			<path id="kvg:0997a-s5" kvg:type="㇐" d="M49,31.18c1.11,0.06,3.65,0.43,4.73,0.34c9.64-0.85,29.25-2.88,36.78-3.12c1.84-0.06,2.77,0.03,4.14,0.43"/>
		</g>
		<g id="kvg:0997a-g5" kvg:element="父" kvg:position="bottom">
			<path id="kvg:0997a-s6" kvg:type="㇒" d="M60.94,37.09c0.27,0.81-0.02,2.72-0.65,4.04C57.76,46.39,53.18,52.1,48,56.7"/>
			<path id="kvg:0997a-s7" kvg:type="㇔" d="M77.27,35.73c7.58,4.54,13.84,9.78,17.63,15.29"/>
			<path id="kvg:0997a-s8" kvg:type="㇒" d="M80.65,46.91c0.38,0.86,0.41,2.33-0.12,3.9C75.71,65.19,60,85.5,44.25,94.9"/>
			<path id="kvg:0997a-s9" kvg:type="㇏" d="M57.84,54.27c2.49,0.27,21.5,28.34,31.85,38.98c1.95,2,3.38,1.97,5.07,2.15"/>
		</g>
	</g>
</g>
</g>
<g id="kvg:StrokeNumbers_0997a" style="font-size:8;fill:#808080">
	<text transform="matrix(1 0 0 1 20.50 16.50)">1</text>
	<text transform="matrix(1 0 0 1 5.50 32.50)">2</text>
	<text transform="matrix(1 0 0 1 15.50 43.50)">3</text>
	<text transform="matrix(1 0 0 1 56.50 12.50)">4</text>
	<text transform="matrix(1 0 0 1 47.50 27.50)">5</text>
	<text transform="matrix(1 0 0 1 49.50 41.50)">6</text>
	<text transform="matrix(1 0 0 1 68.50 40.50)">7</text>
	<text transform="matrix(1 0 0 1 70.50 49.50)">8</text>
	<text transform="matrix(1 0 0 1 59.50 53.50)">9</text>
</g>
</svg>
