<?xml version="1.0" encoding="UTF-8"?>
<!--
Copyright (C) 2016 François Mizessyn.
This work makes an extensive use of kanjiVG Copyright (C) 2009/2010/2011 Ulrich Apel.
This work is distributed under the conditions of the Creative Commons
Attribution-Share Alike 3.0 Licence. This means you are free:
* to Share - to copy, distribute and transmit the work
* to Remix - to adapt the work

Under the following conditions:
* Attribution. You must attribute the work by stating your use of HanjiVG in
  your own copyright header and linking to HanjiVG's website
  (http://gooo.free.fr/hanziVG/)
* Attribution. You must attribute the work by stating your use of KanjiVG in
  your own copyright header and linking to KanjiVG's website
  (http://kanjivg.tagaini.net)
* Share Alike. If you alter, transform, or build upon this work, you may
  distribute the resulting work only under the same or similar license to this
  one.

See http://creativecommons.org/licenses/by-sa/3.0/ for more details.
-->
<!DOCTYPE svg PUBLIC "-//W3C//DTD SVG 1.0//EN" "http://www.w3.org/TR/2001/REC-SVG-20010904/DTD/svg10.dtd" [
<!ATTLIST g
xmlns:kvg CDATA #FIXED "http://kanjivg.tagaini.net"
kvg:element CDATA #IMPLIED
kvg:variant CDATA #IMPLIED
kvg:partial CDATA #IMPLIED
kvg:original CDATA #IMPLIED
kvg:part CDATA #IMPLIED
kvg:number CDATA #IMPLIED
kvg:tradForm CDATA #IMPLIED
kvg:radicalForm CDATA #IMPLIED
kvg:position CDATA #IMPLIED
kvg:radical CDATA #IMPLIED
kvg:phon CDATA #IMPLIED >
<!ATTLIST path
xmlns:kvg CDATA #FIXED "http://kanjivg.tagaini.net"
kvg:type CDATA #IMPLIED >
]>
<svg xmlns="http://www.w3.org/2000/svg" width="109" height="109" viewBox="0 0 109 109">
<g id="kvg:StrokePaths_09986" style="fill:none;stroke:#000000;stroke-width:3;stroke-linecap:round;stroke-linejoin:round;">
<g id="kvg:09986" kvg:element="馆">
	<g id="kvg:09986-g1" kvg:element="饣" kvg:variant="true" kvg:position="left" kvg:radical="general">
		<g id="kvg:09986-g2" kvg:element="⺈" kvg:position="top">
			<path id="kvg:09986-s1" kvg:type="㇒" d="M20.94,15.39c0.09,1.43,0.11,2.62-0.4,3.98c-2.77,7.4-9.35,20.71-7.62,21.39"/>
			<path id="kvg:09986-s2" kvg:type="㇖a" d="M17.61,28.93c1.01,0.21,0.76,0.25,5.82,0.1c9.61-0.65,16.68-3.35,14.23-2.53c6.23-0.7,4.15,2.08,0.04,15.32"/>
		</g>
		<path id="kvg:09986-s3" d="M24.95,39.19c1.24,0.78,0.24,0.52,1.24,3.14c0,4.35,0.62,32.63-1.31,48.98c-1.88-0.62,1.5-1.6,13.38-13.12"/>
	</g>
	<g id="kvg:09986-g3" kvg:element="官" kvg:position="right" kvg:phon="官">
		<g id="kvg:09986-g4" kvg:element="宀" kvg:position="top">
			<path id="kvg:09986-s4" kvg:type="㇑a" d="M68.95,14.79c0.95,0.95,1.35,1.96,1.35,3.46c0,3.1-0.06,7.39-0.06,10.22"/>
			<g id="kvg:09986-g5" kvg:element="冖">
				<path id="kvg:09986-s5" kvg:type="㇔" d="M50.73,30c0,3.15-1.83,12.97-2.66,15.07"/>
				<path id="kvg:09986-s6" kvg:type="㇖b" d="M51.56,32.72c11.44-2.47,31.57-5.16,38.81-5.37c7.25-0.22,4.88,3.41-0.26,7.84"/>
			</g>
		</g>
		<g id="kvg:09986-g6" kvg:position="bottom">
			<g id="kvg:09986-g7" kvg:element="口">
				<path id="kvg:09986-s7" kvg:type="㇑" d="M57.27,43.84c0.82,0.82,1.23,2.04,1.23,3.51c0,0.68-0.06,28.05-0.08,43.78c0,2.12,0,4.02,0,5.62"/>
				<path id="kvg:09986-s8" kvg:type="㇕b" d="M59.31,46.5c5.64-1.15,15.22-2.69,20.43-3.44c3.41-0.5,4.95-0.28,4.17,3.58c-0.72,3.56-1.55,6.18-2.57,11.13"/>
				<path id="kvg:09986-s9" kvg:type="㇐b" d="M59.44,61.76c3.66-0.45,13.7-1.8,20.32-2.55c1.29-0.15,2.46-0.29,3.44-0.42"/>
			</g>
			<path id="kvg:09986-s10" kvg:type="㇕b" d="M59.67,75.17c5.43-0.79,17.04-2.63,22.59-3.47c2.97-0.45,4.6,0.38,3.94,3.82c-0.8,4.2-1.94,7.98-3.02,13.69"/>
			<path id="kvg:09986-s11" kvg:type="㇐b" d="M59.56,92.71c3.64-0.49,13.71-1.58,21.43-2.3c1.55-0.14,3.01-0.27,4.3-0.38"/>
		</g>
	</g>
</g>
</g>
<g id="kvg:StrokeNumbers_09986" style="font-size:8;fill:#808080">
	<text transform="matrix(1 0 0 1 20.50 16.50)">1</text>
	<text transform="matrix(1 0 0 1 5.50 32.50)">2</text>
	<text transform="matrix(1 0 0 1 15.50 43.50)">3</text>
	<text transform="matrix(1 0 0 1 59.50 15.50)">4</text>
	<text transform="matrix(1 0 0 1 44.50 28.63)">5</text>
	<text transform="matrix(1 0 0 1 53.50 29.50)">6</text>
	<text transform="matrix(1 0 0 1 51.50 52.50)">7</text>
	<text transform="matrix(1 0 0 1 60.75 43.50)">8</text>
	<text transform="matrix(1 0 0 1 60.50 58.55)">9</text>
	<text transform="matrix(1 0 0 1 60.50 71.98)">10</text>
	<text transform="matrix(1 0 0 1 60.50 89.50)">11</text>
</g>
</svg>
