<?xml version="1.0" encoding="UTF-8"?>
<!--
Copyright (C) 2016 François Mizessyn.
This work makes an extensive use of kanjiVG Copyright (C) 2009/2010/2011 Ulrich Apel.
This work is distributed under the conditions of the Creative Commons
Attribution-Share Alike 3.0 Licence. This means you are free:
* to Share - to copy, distribute and transmit the work
* to Remix - to adapt the work

Under the following conditions:
* Attribution. You must attribute the work by stating your use of HanjiVG in
  your own copyright header and linking to HanjiVG's website
  (http://gooo.free.fr/hanziVG/)
* Attribution. You must attribute the work by stating your use of KanjiVG in
  your own copyright header and linking to KanjiVG's website
  (http://kanjivg.tagaini.net)
* Share Alike. If you alter, transform, or build upon this work, you may
  distribute the resulting work only under the same or similar license to this
  one.

See http://creativecommons.org/licenses/by-sa/3.0/ for more details.
-->
<!DOCTYPE svg PUBLIC "-//W3C//DTD SVG 1.0//EN" "http://www.w3.org/TR/2001/REC-SVG-20010904/DTD/svg10.dtd" [
<!ATTLIST g
xmlns:kvg CDATA #FIXED "http://kanjivg.tagaini.net"
kvg:element CDATA #IMPLIED
kvg:variant CDATA #IMPLIED
kvg:partial CDATA #IMPLIED
kvg:original CDATA #IMPLIED
kvg:part CDATA #IMPLIED
kvg:number CDATA #IMPLIED
kvg:tradForm CDATA #IMPLIED
kvg:radicalForm CDATA #IMPLIED
kvg:position CDATA #IMPLIED
kvg:radical CDATA #IMPLIED
kvg:phon CDATA #IMPLIED >
<!ATTLIST path
xmlns:kvg CDATA #FIXED "http://kanjivg.tagaini.net"
kvg:type CDATA #IMPLIED >
]>
<svg xmlns="http://www.w3.org/2000/svg" width="109" height="109" viewBox="0 0 109 109">
<g id="kvg:StrokePaths_09a6c" style="fill:none;stroke:#000000;stroke-width:3;stroke-linecap:round;stroke-linejoin:round;">
<g id="kvg:09a6c" kvg:element="马">
	<path kvg:type="㇕" id="kvg:09a6c-s4" d="M29.54 18.6C31.72 18.48 64.15 14.4 66.28 14.4C69.39 14.4 70.95 16.38 70.65 18.33C70.47 19.51 68.31 27.62 65.99 41.38"/>
	<path kvg:type="㇉" id="kvg:09a6c-s5" d="M31.75 18.98C32.2 19.42 32.69 21.74 32.69 22.47C32.64 29.8 32.51 59.02 32.16 57.08C46.49 55.15 76.82 52.34 84.76 51.75C89.92 51.37 92.16 52.7 91.6 57.04C89.67 72.29 85.51 83.51 82.27 89.56C76.65 100.06 74.25 96.13 69.03 90.03"/>
	<path kvg:type="㇐b" id="kvg:09a6c-s6" d="M20.55 73.86C34.36 72.96 66.68 70.31 72.61 69.75C74.7 69.57 78.21 69.39 79.27 69.64"/>
</g>
</g>
<g id="kvg:StrokeNumbers_09a6c" style="font-size:8;fill:#808080">
	<text transform="matrix(1 0 0 1 28.50 15.50)">1</text>
	<text transform="matrix(1 0 0 1 21.50 32.50)">2</text>
	<text transform="matrix(1 0 0 1 15.50 70.95)">3</text>
</g>
</svg>
