<?xml version="1.0" encoding="UTF-8"?>
<!--
Copyright (C) 2016 François Mizessyn.
This work makes an extensive use of kanjiVG Copyright (C) 2009/2010/2011 Ulrich Apel.
This work is distributed under the conditions of the Creative Commons
Attribution-Share Alike 3.0 Licence. This means you are free:
* to Share - to copy, distribute and transmit the work
* to Remix - to adapt the work

Under the following conditions:
* Attribution. You must attribute the work by stating your use of HanjiVG in
  your own copyright header and linking to HanjiVG's website
  (http://gooo.free.fr/hanziVG/)
* Attribution. You must attribute the work by stating your use of KanjiVG in
  your own copyright header and linking to KanjiVG's website
  (http://kanjivg.tagaini.net)
* Share Alike. If you alter, transform, or build upon this work, you may
  distribute the resulting work only under the same or similar license to this
  one.

See http://creativecommons.org/licenses/by-sa/3.0/ for more details.
-->
<!DOCTYPE svg PUBLIC "-//W3C//DTD SVG 1.0//EN" "http://www.w3.org/TR/2001/REC-SVG-20010904/DTD/svg10.dtd" [
<!ATTLIST g
xmlns:kvg CDATA #FIXED "http://kanjivg.tagaini.net"
kvg:element CDATA #IMPLIED
kvg:variant CDATA #IMPLIED
kvg:partial CDATA #IMPLIED
kvg:original CDATA #IMPLIED
kvg:part CDATA #IMPLIED
kvg:number CDATA #IMPLIED
kvg:tradForm CDATA #IMPLIED
kvg:radicalForm CDATA #IMPLIED
kvg:position CDATA #IMPLIED
kvg:radical CDATA #IMPLIED
kvg:phon CDATA #IMPLIED >
<!ATTLIST path
xmlns:kvg CDATA #FIXED "http://kanjivg.tagaini.net"
kvg:type CDATA #IMPLIED >
]>
<svg xmlns="http://www.w3.org/2000/svg" width="109" height="109" viewBox="0 0 109 109">
<g id="kvg:StrokePaths_09a8c" style="fill:none;stroke:#000000;stroke-width:3;stroke-linecap:round;stroke-linejoin:round;">
<g id="kvg:09a8c" kvg:element="验">
	<g id="kvg:09a8c-g1" kvg:element="马" kvg:position="left">
		<path kvg:type="㇕" id="kvg:09a8c-s1" d="m12.8 18.6c0.95 -0.12 15.07 -4.2 15.98 -4.2c1.36 0 2.03 1.98 1.91 3.93c-0.08 1.18 -1.03 9.29 -2.02 23.05"/>
		<path kvg:type="㇉" id="kvg:09a8c-s2" d="m13.76 18.98c0.2 0.44 0.41 2.76 0.41 3.49c-0.02 7.33 -0.08 36.55 -0.23 34.61c6.24 -1.93 19.44 -4.74 22.9 -5.33c2.24 -0.38 3.21 0.95 2.98 5.29c-0.85 15.25 -2.65 26.47 -4.06 32.52c-2.44 10.5 -3.49 6.57 -5.76 0.47"/>
		<path kvg:type="㇐b" id="kvg:09a8c-s3" d="m12.39 73.32c4.39 -0.73 14.63 -2.87 16.52 -3.33c0.66 -0.14 1.77 -0.29 2.1 -0.09"/>
	</g>
	<g id="kvg:09a8c-g2" kvg:element="佥" kvg:position="right">
		<g id="kvg:09a8c-g3" kvg:element="人" kvg:position="top">
			<path id="kvg:09a8c-s4" kvg:type="㇒" d="m68.91 13.12c0 0.93 0.06 1.67 -0.19 2.79c-1.29 5.84 -12.57 27.55 -23.1 36.18"/>
			<path id="kvg:09a8c-s5" kvg:type="㇏" d="m69.12 17.14c5.81 4.67 21.32 25.68 23.21 27.15c1.93 1.49 2.56 1.76 3.41 1.91"/>
		</g>
		<path id="kvg:09a8c-s6" kvg:type="㇐" d="m58.62 49.32c0.63 0.33 2.7 0.43 3.34 0.34c2.98 -0.44 8.81 -1.43 21.15 -2.58c0.98 -0.09 1.86 0.06 2.68 0.34"/>
		<path id="kvg:09a8c-s7" kvg:type="㇔" d="m51.2 66.83c2.37 1.72 8.47 11.48 8.98 14.7"/>
		<path id="kvg:09a8c-s8" kvg:type="㇔" d="m64.51 62.25c3.08 3.08 7.97 12.66 8.75 17.45"/>
		<path id="kvg:09a8c-s9" kvg:type="㇒" d="m88.61 66.03c0.03 1.24 -0.3 2.67 -0.5 3.39c-1.48 5.42 -4.62 12.98 -9.51 20.35"/>
		<path id="kvg:09a8c-s10" kvg:type="㇐" d="m49.27 94.32c0.48 0.23 2.92 0.89 3.99 0.75c5.21 -0.69 21.17 -3.03 36.48 -3.03c1.46 0 3.21 0.3 3.94 0.59"/>
	</g>
</g>
</g>
<g id="kvg:StrokeNumbers_09a8c" style="font-size:8;fill:#808080">
	<text transform="matrix(1 0 0 1 8.50 15.50)">1</text>
	<text transform="matrix(1 0 0 1 16.50 31.50)">2</text>
	<text transform="matrix(1 0 0 1 1.50 77.95)">3</text>
	<text transform="matrix(1 0 0 1 57.50 17.50)">4</text>
	<text transform="matrix(1 0 0 1 71.25 19.63)">5</text>
	<text transform="matrix(1 0 0 1 51.50 47.50)">6</text>
	<text transform="matrix(1 0 0 1 45.50 65.50)">7</text>
	<text transform="matrix(1 0 0 1 66.50 63.50)">8</text>
	<text transform="matrix(1 0 0 1 80.50 64.50)">9</text>
	<text transform="matrix(1 0 0 1 39.50 91.50)">10</text>
</g>
</svg>
