<?xml version="1.0" encoding="UTF-8"?>
<!--
Copyright (C) 2016 François Mizessyn.
This work makes an extensive use of kanjiVG Copyright (C) 2009/2010/2011 Ulrich Apel.
This work is distributed under the conditions of the Creative Commons
Attribution-Share Alike 3.0 Licence. This means you are free:
* to Share - to copy, distribute and transmit the work
* to Remix - to adapt the work

Under the following conditions:
* Attribution. You must attribute the work by stating your use of HanjiVG in
  your own copyright header and linking to HanjiVG's website
  (http://gooo.free.fr/hanziVG/)
* Attribution. You must attribute the work by stating your use of KanjiVG in
  your own copyright header and linking to KanjiVG's website
  (http://kanjivg.tagaini.net)
* Share Alike. If you alter, transform, or build upon this work, you may
  distribute the resulting work only under the same or similar license to this
  one.

See http://creativecommons.org/licenses/by-sa/3.0/ for more details.
-->
<!DOCTYPE svg PUBLIC "-//W3C//DTD SVG 1.0//EN" "http://www.w3.org/TR/2001/REC-SVG-20010904/DTD/svg10.dtd" [
<!ATTLIST g
xmlns:kvg CDATA #FIXED "http://kanjivg.tagaini.net"
kvg:element CDATA #IMPLIED
kvg:variant CDATA #IMPLIED
kvg:partial CDATA #IMPLIED
kvg:original CDATA #IMPLIED
kvg:part CDATA #IMPLIED
kvg:number CDATA #IMPLIED
kvg:tradForm CDATA #IMPLIED
kvg:radicalForm CDATA #IMPLIED
kvg:position CDATA #IMPLIED
kvg:radical CDATA #IMPLIED
kvg:phon CDATA #IMPLIED >
<!ATTLIST path
xmlns:kvg CDATA #FIXED "http://kanjivg.tagaini.net"
kvg:type CDATA #IMPLIED >
]>
<svg xmlns="http://www.w3.org/2000/svg" width="109" height="109" viewBox="0 0 109 109">
<g id="kvg:StrokePaths_09a82" style="fill:none;stroke:#000000;stroke-width:3;stroke-linecap:round;stroke-linejoin:round;">
<g id="kvg:09a82" kvg:element="骂">
	<g id="kvg:09a82-g1" kvg:element="吅" kvg:position="top">
		<g id="kvg:09a82-g2" kvg:element="口" kvg:position="left" kvg:radical="tradit">
			<path id="kvg:09a82-s1" kvg:type="㇑" d="M19.75,17.64c0.42,0.39,0.85,0.72,1.04,1.21C22.25,22.75,24,30.5,25,37.5"/>
			<path id="kvg:09a82-s2" kvg:type="㇕b" d="M20.88,18.28C29.25,17.75,41,16,45.94,15.49c1.8-0.19,2.89,1.11,2.63,2.21c-1.07,4.55-2.32,8.55-3.91,14.85"/>
			<path id="kvg:09a82-s3" kvg:type="㇐b" d="M25.2,35.08C31,34.5,39,33.5,46.96,32.61"/>
		</g>
		<g id="kvg:09a82-g3" kvg:element="口" kvg:position="right" kvg:radical="tradit">
			<path id="kvg:09a82-s4" kvg:type="㇑" d="M59.25,15.14c0.42,0.39,0.85,0.72,1.04,1.21C61.75,20.25,63,28.5,64,35.5"/>
			<path id="kvg:09a82-s5" kvg:type="㇕b" d="M60.38,16.78c9.37-1.53,20.12-2.28,25.06-2.79c1.8-0.19,2.89,1.11,2.63,2.21c-1.07,4.55-2.82,9.05-4.41,15.35"/>
			<path id="kvg:09a82-s6" kvg:type="㇐b" d="M64.2,33.58C70,33,78.5,32.5,86.46,31.61"/>
		</g>
	</g>
	<g id="kvg:09a82-g3" kvg:element="马" kvg:position="bottom">
		<path kvg:type="㇕" id="kvg:09a82-s7" d="m29.54 49.16c2.18 -0.07 34.61 -2.52 36.74 -2.52c3.11 0 4.67 1.19 4.37 2.36c-0.18 0.71 -2.34 5.57 -4.66 13.83"/>
		<path kvg:type="㇉" id="kvg:09a82-s8" d="m31.75 49.39c0.45 0.26 0.94 1.66 0.94 2.09c-0.05 4.4 -0.18 21.93 -0.53 20.77c14.33 -1.16 44.66 -2.84 52.6 -3.2c5.16 -0.23 7.4 0.57 6.84 3.17c-1.93 9.15 -6.09 15.88 -9.33 19.51c-5.62 6.3 -8.02 3.94 -13.24 0.28"/>
		<path kvg:type="㇐b" id="kvg:09a82-s9" d="m20.55 82.32c13.81 -0.54 46.13 -2.13 52.06 -2.47c2.09 -0.11 5.6 -0.22 6.66 -0.07"/>
	</g>
</g>
</g>
<g id="kvg:StrokeNumbers_09a82" style="font-size:8;fill:#808080">
	<text transform="matrix(1 0 0 1 14.50 25.50)">1</text>
	<text transform="matrix(1 0 0 1 23.50 14.50)">2</text>
	<text transform="matrix(1 0 0 1 28.50 31.50)">3</text>
	<text transform="matrix(1 0 0 1 53.50 22.50)">4</text>
	<text transform="matrix(1 0 0 1 63.50 13.50)">5</text>
	<text transform="matrix(1 0 0 1 67.50 30.50)">6</text>
	<text transform="matrix(1 0 0 1 17.50 53.50)">7</text>
	<text transform="matrix(1 0 0 1 35.50 63.50)">8</text>
	<text transform="matrix(1 0 0 1 10.50 80.95)">9</text>
</g>
</svg>
