<?xml version="1.0" encoding="UTF-8"?>
<!--
Copyright (C) 2016 François Mizessyn.
This work makes an extensive use of kanjiVG Copyright (C) 2009/2010/2011 Ulrich Apel.
This work is distributed under the conditions of the Creative Commons
Attribution-Share Alike 3.0 Licence. This means you are free:
* to Share - to copy, distribute and transmit the work
* to Remix - to adapt the work

Under the following conditions:
* Attribution. You must attribute the work by stating your use of HanjiVG in
  your own copyright header and linking to HanjiVG's website
  (http://gooo.free.fr/hanziVG/)
* Attribution. You must attribute the work by stating your use of KanjiVG in
  your own copyright header and linking to KanjiVG's website
  (http://kanjivg.tagaini.net)
* Share Alike. If you alter, transform, or build upon this work, you may
  distribute the resulting work only under the same or similar license to this
  one.

See http://creativecommons.org/licenses/by-sa/3.0/ for more details.
-->
<!DOCTYPE svg PUBLIC "-//W3C//DTD SVG 1.0//EN" "http://www.w3.org/TR/2001/REC-SVG-20010904/DTD/svg10.dtd" [
<!ATTLIST g
xmlns:kvg CDATA #FIXED "http://kanjivg.tagaini.net"
kvg:element CDATA #IMPLIED
kvg:variant CDATA #IMPLIED
kvg:partial CDATA #IMPLIED
kvg:original CDATA #IMPLIED
kvg:part CDATA #IMPLIED
kvg:number CDATA #IMPLIED
kvg:tradForm CDATA #IMPLIED
kvg:radicalForm CDATA #IMPLIED
kvg:position CDATA #IMPLIED
kvg:radical CDATA #IMPLIED
kvg:phon CDATA #IMPLIED >
<!ATTLIST path
xmlns:kvg CDATA #FIXED "http://kanjivg.tagaini.net"
kvg:type CDATA #IMPLIED >
]>
<svg xmlns="http://www.w3.org/2000/svg" width="109" height="109" viewBox="0 0 109 109">
<g id="kvg:StrokePaths_09a97" style="fill:none;stroke:#000000;stroke-width:3;stroke-linecap:round;stroke-linejoin:round;">
<g id="kvg:09a97" kvg:element="骗">
	<g id="kvg:09a8c-g1" kvg:element="马" kvg:position="left">
		<path kvg:type="㇕" id="kvg:09a8c-s1" d="m12.8 18.6c0.95 -0.12 15.07 -4.2 15.98 -4.2c1.36 0 2.03 1.98 1.91 3.93c-0.08 1.18 -1.03 9.29 -2.02 23.05"/>
		<path kvg:type="㇉" id="kvg:09a8c-s2" d="m13.76 18.98c0.2 0.44 0.41 2.76 0.41 3.49c-0.02 7.33 -0.08 36.55 -0.23 34.61c6.24 -1.93 19.44 -4.74 22.9 -5.33c2.24 -0.38 3.21 0.95 2.98 5.29c-0.85 15.25 -2.65 26.47 -4.06 32.52c-2.44 10.5 -3.49 6.57 -5.76 0.47"/>
		<path kvg:type="㇐b" id="kvg:09a8c-s3" d="m12.39 73.32c4.39 -0.73 14.63 -2.87 16.52 -3.33c0.66 -0.14 1.77 -0.29 2.1 -0.09"/>
	</g>
	<g id="kvg:09a97-g2" kvg:element="扁" kvg:position="right">
		<g id="kvg:09a97-g3" kvg:element="户" kvg:position="tare">
			<path id="kvg:09a97-s4" kvg:type="㇔" d="m70.12 14.32c1.04 2.92 1.74 6.12 2.18 9.5"/>
			<g id="kvg:09a97-g4" kvg:element="尸">
				<path id="kvg:09a97-s5" kvg:type="㇕c" d="m51.49 29.35c0.95 0.39 2.38 1.09 4.25 0.81c9.67 -1.46 28.21 -3.79 34.27 -4.49c1.64 -0.19 3.3 1.3 2.67 4.17c-1.09 5.08 -1.46 6.86 -2.25 9.71"/>
				<path id="kvg:09a97-s6" kvg:type="㇐b" d="m54.57 44.93c6.44 -1.18 27.65 -3.68 37.7 -4.52"/>
				<path id="kvg:09a97-s7" kvg:type="㇒" d="m53.99 30.75c0.04 1.27 0.24 3.26 0.25 5.09c0.1 23 -2.05 37.44 -12.24 48.69"/>
			</g>
		</g>
		<g id="kvg:09a97-g5" kvg:element="冊">
			<g id="kvg:09a97-g6" kvg:element="冂">
				<path id="kvg:09a97-s8" kvg:type="㇑" d="M54.93,60.54c0.39,0.61,0.65,1.58,0.52,2.68c-0.13,1.1,0.07,31.46,0.07,33.28"/>
				<path id="kvg:09a97-s9" kvg:type="㇆a" d="M56.74,60.8c4.91-0.49,34.43-2.7,35.4-2.87c2.07-0.37,3.01,2.24,3.01,2.89c0,6.46-0.29,26.5-0.98,30.2c-1.17,6.23-4.67,2.32-6.22,0.73"/>
			</g>
			<g id="kvg:09a97-g7" kvg:element="廾" kvg:variant="true">
				<g id="kvg:09a97-g8" kvg:element="十" kvg:part="1" kvg:variant="true">
					<path id="kvg:09a97-s10" kvg:type="㇐" d="M55.98,75.57c5.61-0.38,25.52-2.61,37.79-2.86"/>
				</g>
				<g id="kvg:09a97-g9" kvg:element="丿" kvg:variant="true">
					<path id="kvg:09a97-s11" kvg:type="㇑" d="M66.46,61.76c0.72,0.28,1.16,1.25,1.3,1.8c0.14,0.56,0,26.9-0.14,30.37"/>
				</g>
				<g id="kvg:09a97-g10" kvg:element="十" kvg:part="2" kvg:variant="true">
					<path id="kvg:09a97-s12" kvg:type="㇑" d="M78.24,60.4c0.72,0.28,1.16,1.28,1.3,1.85c0.14,0.57,0,27.33-0.15,30.89"/>
				</g>
			</g>
		</g>
	</g>
</g>
</g>
<g id="kvg:StrokeNumbers_09a97" style="font-size:8;fill:#808080">
	<text transform="matrix(1 0 0 1 8.50 15.50)">1</text>
	<text transform="matrix(1 0 0 1 16.50 31.50)">2</text>
	<text transform="matrix(1 0 0 1 1.50 77.95)">3</text>
	<text transform="matrix(1 0 0 1 68.8 12.5)">4</text>
	<text transform="matrix(1 0 0 1 51.50 26.50)">5</text>
	<text transform="matrix(1 0 0 1 57.25 42.73)">6</text>
	<text transform="matrix(1 0 0 1 42.3 36.2)">7</text>
	<text transform="matrix(1 0 0 1 43.25 70.50)">8</text>
	<text transform="matrix(1 0 0 1 54.50 57.50)">9</text>
	<text transform="matrix(1 0 0 1 50.50 80.50)">10</text>
	<text transform="matrix(1 0 0 1 57.50 67.50)">11</text>
	<text transform="matrix(1 0 0 1 71.50 66.50)">12</text>
</g>
</svg>
