<?xml version="1.0" encoding="UTF-8"?>
<!--
Copyright (C) 2016 François Mizessyn.
This work makes an extensive use of kanjiVG Copyright (C) 2009/2010/2011 Ulrich Apel.
This work is distributed under the conditions of the Creative Commons
Attribution-Share Alike 3.0 Licence. This means you are free:
* to Share - to copy, distribute and transmit the work
* to Remix - to adapt the work

Under the following conditions:
* Attribution. You must attribute the work by stating your use of HanjiVG in
  your own copyright header and linking to HanjiVG's website
  (http://gooo.free.fr/hanziVG/)
* Attribution. You must attribute the work by stating your use of KanjiVG in
  your own copyright header and linking to KanjiVG's website
  (http://kanjivg.tagaini.net)
* Share Alike. If you alter, transform, or build upon this work, you may
  distribute the resulting work only under the same or similar license to this
  one.

See http://creativecommons.org/licenses/by-sa/3.0/ for more details.
-->
<!DOCTYPE svg PUBLIC "-//W3C//DTD SVG 1.0//EN" "http://www.w3.org/TR/2001/REC-SVG-20010904/DTD/svg10.dtd" [
<!ATTLIST g
xmlns:kvg CDATA #FIXED "http://kanjivg.tagaini.net"
kvg:element CDATA #IMPLIED
kvg:variant CDATA #IMPLIED
kvg:partial CDATA #IMPLIED
kvg:original CDATA #IMPLIED
kvg:part CDATA #IMPLIED
kvg:number CDATA #IMPLIED
kvg:tradForm CDATA #IMPLIED
kvg:radicalForm CDATA #IMPLIED
kvg:position CDATA #IMPLIED
kvg:radical CDATA #IMPLIED
kvg:phon CDATA #IMPLIED >
<!ATTLIST path
xmlns:kvg CDATA #FIXED "http://kanjivg.tagaini.net"
kvg:type CDATA #IMPLIED >
]>
<svg xmlns="http://www.w3.org/2000/svg" width="109" height="109" viewBox="0 0 109 109">
<g id="kvg:StrokePaths_09a91" style="fill:none;stroke:#000000;stroke-width:3;stroke-linecap:round;stroke-linejoin:round;">
<g id="kvg:09a91" kvg:element="骑">
	<g id="kvg:09a91-g1" kvg:element="马" kvg:position="left">
		<path kvg:type="㇕" id="kvg:09a91-s1" d="m14.22 18.6c1.05 -0.12 16.74 -4.2 17.76 -4.2c1.51 0 2.26 1.98 2.12 3.93c-0.09 1.18 -1.14 9.29 -2.25 23.05"/>
		<path kvg:type="㇉" id="kvg:09a91-s2" d="m15.29 18.98c0.22 0.44 0.46 2.76 0.46 3.49c-0.02 7.33 -0.09 36.55 -0.26 34.61c6.93 -1.93 21.6 -4.74 25.44 -5.33c2.49 -0.38 3.57 0.95 3.31 5.29c-0.94 15.25 -2.95 26.47 -4.51 32.52c-2.71 10.5 -3.88 6.57 -6.4 0.47"/>
		<path kvg:type="㇐b" id="kvg:09a91-s3" d="m13.54 74.09c4.82 -0.72 16.06 -2.84 18.14 -3.29c0.72 -0.14 1.94 -0.29 2.3 -0.09"/>
	</g>
	<g id="kvg:09a91-g2" kvg:element="奇" kvg:position="right" kvg:phon="奇">
		<g id="kvg:09a91-g3" kvg:element="大" kvg:variant="true" kvg:position="top">
			<path id="kvg:09a91-s4" kvg:type="㇐" d="M52.77,24.26c1.41,0.44,3.8,0.22,5.25,0.07c6.86-0.72,16.27-1.84,23.11-2.68c2.13-0.26,4.01-0.19,6.13-0.19"/>
			<path id="kvg:09a91-s5" kvg:type="㇒" d="M68.52,11.5c0.41,0.85,0.31,1.74,0.22,2.64c-1.21,12.2-6.02,22.11-12.99,27.61"/>
			<path id="kvg:09a91-s6" kvg:type="㇔/㇏" d="M69.5,27.75C73.92,30,79.04,33.64,81.75,37"/>
		</g>
		<g id="kvg:09a91-g4" kvg:element="可" kvg:position="bottom">
			<g id="kvg:09a91-g5" kvg:element="丁" kvg:part="1">
				<g id="kvg:09a91-g6" kvg:element="一">
					<path id="kvg:09a91-s7" kvg:type="㇐" d="M48.13,46.76c2.62,0.62,5.11,0.33,7.37,0.07c8.73-1.01,27.65-3.29,36.38-4.12c2.1-0.2,3.97-0.4,6.01,0.26"/>
				</g>
			</g>
			<g id="kvg:09a91-g7" kvg:element="口">
				<path id="kvg:09a91-s8" kvg:type="㇑" d="M53.45,57.99c0.65,0.65,1.01,1.45,1.08,2.38c0.72,3.38,1.18,5.93,1.68,9.39c0.24,1.67,0.46,3.31,0.64,4.77"/>
				<path id="kvg:09a91-s9" kvg:type="㇕b" d="M55.4,58.96c4.77-0.81,10.23-1.47,13.72-1.88c2.74-0.32,3.59,0.13,3.04,2.92c-0.57,2.92-1.11,5.71-1.99,9.73"/>
				<path id="kvg:09a91-s10" kvg:type="㇐b" d="M57.73,72.23c1-0.12,7.96-1.2,10.9-1.5c1-0.1,2-0.21,2.96-0.34"/>
			</g>
			<g id="kvg:09a91-g8" kvg:element="丁" kvg:part="2">
				<g id="kvg:09a91-g9" kvg:element="亅">
					<path id="kvg:09a91-s11" kvg:type="㇚" d="M83.92,46.22c0.87,0.87,1.31,2.53,1.31,4.35c0,16.08-0.1,33.83-0.1,39.31c0,9.39-6.11,1.91-7.22,0.53"/>
				</g>
			</g>
		</g>
	</g>
</g>
</g>
<g id="kvg:StrokeNumbers_09a91" style="font-size:8;fill:#808080">
	<text transform="matrix(1 0 0 1 10.50 15.50)">1</text>
	<text transform="matrix(1 0 0 1 17.50 31.50)">2</text>
	<text transform="matrix(1 0 0 1 2.50 77.95)">3</text>
	<text transform="matrix(1 0 0 1 49.50 21.13)">4</text>
	<text transform="matrix(1 0 0 1 57.50 12.50)">5</text>
	<text transform="matrix(1 0 0 1 78.75 31.63)">6</text>
	<text transform="matrix(1 0 0 1 45.50 44.50)">7</text>
	<text transform="matrix(1 0 0 1 47.25 69.50)">8</text>
	<text transform="matrix(1 0 0 1 55.50 55.50)">9</text>
	<text transform="matrix(1 0 0 1 58.50 69.05)">10</text>
	<text transform="matrix(1 0 0 1 73.50 54.13)">11</text>
</g>
</svg>
