<?xml version="1.0" encoding="UTF-8"?>
<!--
Copyright (C) 2016 François Mizessyn.
This work makes an extensive use of kanjiVG Copyright (C) 2009/2010/2011 Ulrich Apel.
This work is distributed under the conditions of the Creative Commons
Attribution-Share Alike 3.0 Licence. This means you are free:
* to Share - to copy, distribute and transmit the work
* to Remix - to adapt the work

Under the following conditions:
* Attribution. You must attribute the work by stating your use of HanjiVG in
  your own copyright header and linking to HanjiVG's website
  (http://gooo.free.fr/hanziVG/)
* Attribution. You must attribute the work by stating your use of KanjiVG in
  your own copyright header and linking to KanjiVG's website
  (http://kanjivg.tagaini.net)
* Share Alike. If you alter, transform, or build upon this work, you may
  distribute the resulting work only under the same or similar license to this
  one.

See http://creativecommons.org/licenses/by-sa/3.0/ for more details.
-->
<!DOCTYPE svg PUBLIC "-//W3C//DTD SVG 1.0//EN" "http://www.w3.org/TR/2001/REC-SVG-20010904/DTD/svg10.dtd" [
<!ATTLIST g
xmlns:kvg CDATA #FIXED "http://kanjivg.tagaini.net"
kvg:element CDATA #IMPLIED
kvg:variant CDATA #IMPLIED
kvg:partial CDATA #IMPLIED
kvg:original CDATA #IMPLIED
kvg:part CDATA #IMPLIED
kvg:number CDATA #IMPLIED
kvg:tradForm CDATA #IMPLIED
kvg:radicalForm CDATA #IMPLIED
kvg:position CDATA #IMPLIED
kvg:radical CDATA #IMPLIED
kvg:phon CDATA #IMPLIED >
<!ATTLIST path
xmlns:kvg CDATA #FIXED "http://kanjivg.tagaini.net"
kvg:type CDATA #IMPLIED >
]>
<svg xmlns="http://www.w3.org/2000/svg" width="109" height="109" viewBox="0 0 109 109">
<g id="kvg:StrokePaths_09c7c" style="fill:none;stroke:#000000;stroke-width:3;stroke-linecap:round;stroke-linejoin:round;">
<g id="kvg:09c7c" kvg:element="鱼" kvg:radical="general">
	<g id="kvg:09c7c-g1" kvg:element="𠂊" kvg:variant="true" kvg:original="勹" kvg:position="top">
		<path id="kvg:09c7c-s1" kvg:type="㇒" d="m48 12.69c0.14 1.37 -0.07 2.51 -0.59 3.75c-2.33 5.62 -10.41 15.81 -21.16 22.24"/>
		<path id="kvg:09c7c-s2" kvg:type="㇇" d="m49 19.62c1.25 0.42 2.35 0.45 3.8 0.27c4.73 -0.6 10.95 -1.55 14.14 -2.41c2.5 -0.68 3.69 1.85 2.06 3.97c-4.94 6.44 -9.5 12.57 -14.25 19.49"/>
	</g>
	<g id="kvg:09c7c-g2" kvg:position="bottom">
		<g id="kvg:09c7c-g3" kvg:element="田">
			<path id="kvg:09c7c-s3" kvg:type="㇑" d="m27.49 44.31c1.2 1.36 1.88 2.71 2.11 4.32c0.85 5.88 2.43 16.51 3.41 25.66c0.17 1.54 0.32 3.04 0.47 4.47"/>
			<path id="kvg:09c7c-s4" kvg:type="㇕a" d="m30.27 46.34c14.98 -2.44 36.73 -5.68 48.14 -6.19c3.85 -0.17 5.83 1.65 5.59 4.46c-0.5 5.79 -1.85 17 -3.39 26.81c-0.2 1.3 -0.41 2.54 -0.61 3.7"/>
			<path id="kvg:09c7c-s5" kvg:type="㇐a" d="m32.47 60.84c11.03 -1.39 37.41 -4.08 48.74 -4.49"/>
			<path id="kvg:09c7c-s6" kvg:type="㇑a" d="m53.75 44.9c1 0.85 1.12 2.12 1.16 3.37c0.22 6.68 0.09 23.7 0.09 24.6"/>
			<path id="kvg:09c7c-s7" kvg:type="㇐a" d="m34.2 76.58c12.92 -1.46 30.42 -3.44 45.8 -4.28"/>
		</g>
		<g id="kvg:09c7c-g4" kvg:element="一" kvg:radical="general">
			<path id="kvg:09c7c-s3" kvg:type="㇐" d="M13,90.83c3.94,1.01,7.72,0.96,11.75,0.72c18.41-1.07,41.27-3.39,61.12-4.07c3.63-0.13,7.2-0.1,10.75,0.78"/>
		</g>
	</g>
</g>
</g>
<g id="kvg:StrokeNumbers_09c7c" style="font-size:8;fill:#808080">
	<text transform="matrix(1 0 0 1 37.50 13.50)">1</text>
	<text transform="matrix(1 0 0 1 50.50 15.13)">2</text>
	<text transform="matrix(1 0 0 1 16.75 50.50)">3</text>
	<text transform="matrix(1 0 0 1 27.50 41.13)">4</text>
	<text transform="matrix(1 0 0 1 33.00 56.63)">5</text>
	<text transform="matrix(1 0 0 1 50.50 42.50)">6</text>
	<text transform="matrix(1 0 0 1 35.50 73.13)">7</text>
	<text transform="matrix(1 0 0 1 7.75 87.63)">8</text>
</g>
</svg>
