<?xml version="1.0" encoding="UTF-8"?>
<!--
Copyright (C) 2016 François Mizessyn.
This work makes an extensive use of kanjiVG Copyright (C) 2009/2010/2011 Ulrich Apel.
This work is distributed under the conditions of the Creative Commons
Attribution-Share Alike 3.0 Licence. This means you are free:
* to Share - to copy, distribute and transmit the work
* to Remix - to adapt the work

Under the following conditions:
* Attribution. You must attribute the work by stating your use of HanjiVG in
  your own copyright header and linking to HanjiVG's website
  (http://gooo.free.fr/hanziVG/)
* Attribution. You must attribute the work by stating your use of KanjiVG in
  your own copyright header and linking to KanjiVG's website
  (http://kanjivg.tagaini.net)
* Share Alike. If you alter, transform, or build upon this work, you may
  distribute the resulting work only under the same or similar license to this
  one.

See http://creativecommons.org/licenses/by-sa/3.0/ for more details.
-->
<!DOCTYPE svg PUBLIC "-//W3C//DTD SVG 1.0//EN" "http://www.w3.org/TR/2001/REC-SVG-20010904/DTD/svg10.dtd" [
<!ATTLIST g
xmlns:kvg CDATA #FIXED "http://kanjivg.tagaini.net"
kvg:element CDATA #IMPLIED
kvg:variant CDATA #IMPLIED
kvg:partial CDATA #IMPLIED
kvg:original CDATA #IMPLIED
kvg:part CDATA #IMPLIED
kvg:number CDATA #IMPLIED
kvg:tradForm CDATA #IMPLIED
kvg:radicalForm CDATA #IMPLIED
kvg:position CDATA #IMPLIED
kvg:radical CDATA #IMPLIED
kvg:phon CDATA #IMPLIED >
<!ATTLIST path
xmlns:kvg CDATA #FIXED "http://kanjivg.tagaini.net"
kvg:type CDATA #IMPLIED >
]>
<svg xmlns="http://www.w3.org/2000/svg" width="109" height="109" viewBox="0 0 109 109">
<g id="kvg:StrokePaths_09c9c" style="fill:none;stroke:#000000;stroke-width:3;stroke-linecap:round;stroke-linejoin:round;">
<g id="kvg:09c9c" kvg:element="鲜">
	<g id="kvg:09c9c" kvg:element="鱼" kvg:radical="general">
		<g id="kvg:09c9c-g1" kvg:element="𠂊" kvg:variant="true" kvg:original="勹" kvg:position="top">
			<path id="kvg:09c9c-s1" kvg:type="㇒" d="M28.14 13c0.08 1.21 -0.05 2.22 -0.37 3.32c-1.47 4.97 -6.56 13.99 -13.32 19.68"/>
			<path id="kvg:09c9c-s2" kvg:type="㇇" d="M28.77 19.13c0.8 0.37 1.49 0.4 2.39 0.24c2.98 -0.53 6.91 -1.37 8.9 -2.13c1.58 -0.6 2.33 1.64 1.3 3.51c-3.11 5.7 -5.98 11.12 -8.97 17.25"/>
		</g>
		<g id="kvg:09c9c-g2" kvg:position="bottom">
			<g id="kvg:09c9c-g3" kvg:element="田">
				<path id="kvg:09c9c-s3" kvg:type="㇑" d="M15.23 40.98c0.76 1.2 1.19 2.4 1.33 3.82c0.55 5.2 1.53 14.61 2.15 22.71c0.12 1.36 0.2 2.69 0.3 3.96"/>
				<path id="kvg:09c9c-s4" kvg:type="㇕a" d="M16.98 42.78c9.44 -2.16 23.13 -5.03 30.32 -5.48c2.44 -0.15 3.68 1.46 3.53 3.95c-0.31 5.12 -1.16 15.04 -2.13 23.73c-0.13 1.15 -0.25 2.25 -0.38 3.27"/>
				<path id="kvg:09c9c-s5" kvg:type="㇐a" d="M18.36 55.61c6.94 -1.23 23.56 -3.61 30.69 -3.97"/>
				<path id="kvg:09c9c-s6" kvg:type="㇑a" d="M31.77 41.5c0.63 0.75 0.7 1.88 0.74 2.98c0.13 5.91 0.04 20.97 0.04 21.77"/>
				<path id="kvg:09c9c-s7" kvg:type="㇐a" d="M19.45 69.54c8.14 -1.29 19.16 -3.04 28.85 -3.79"/>
			</g>
			<g id="kvg:09c9c-g4" kvg:element="一" kvg:radical="general">
				<path id="kvg:09c9c-s8" kvg:type="㇐" d="M11.57 87.83c2.01 1.01 3.93 0.96 5.99 0.72c9.4 -1.07 21.07 -3.39 31.19 -4.07c1.86 -0.13 3.67 -0.1 5.49 0.78"/>
			</g>
		</g>
	</g>
	<g id="kvg:09c9c-g6" kvg:element="羊" kvg:position="right">
		<path id="kvg:09c9c-s9" kvg:type="㇔" d="M58.62,16.99c3.16,1.94,8.16,7.96,8.95,10.98"/>
		<path id="kvg:09c9c-s10" kvg:type="㇒" d="M85.46,13.14c0.06,0.87-0.02,1.51-0.31,2.33c-1.48,4.09-4.18,8.63-8.63,14.27"/>
		<path id="kvg:09c9c-s11" kvg:type="㇐" d="M57.75,34.96c2.38,0.29,4.18,0.11,5.65-0.09c5.81-0.8,16.18-2.44,21.85-2.96c1.54-0.14,3.5-0.16,5.09,0.19"/>
		<path id="kvg:09c9c-s12" kvg:type="㇐" d="M58.94,52.55c2.19,0.45,3.94,0.36,5.21,0.19c5.46-0.73,14.73-2.34,20.24-2.78c1.58-0.13,3.36-0.21,4.98,0.21"/>
		<path id="kvg:09c9c-s13" kvg:type="㇐" d="M54.63 71.04c2.21 0.61 4.73 0.47 6.51 0.24c6.89 -0.87 18.94 -2.53 26.97 -2.92c2.16 -0.11 4.62 -0.3 6.71 0.14"/>
		<path id="kvg:09c9c-s14" kvg:type="㇑" d="M72.95,35.83c0.98,0.98,1.24,2.42,1.24,4.25c0,5.42-0.02,29.94-0.05,49.42c-0.01,3.33-0.01,6.32-0.01,8.75"/>
	</g>
</g>
</g>
<g id="kvg:StrokeNumbers_09c9c" style="font-size:8;fill:#808080">
	<text transform="matrix(1 0 0 1 17.50 16.50)">1</text>
	<text transform="matrix(1 0 0 1 28.50 13.13)">2</text>
	<text transform="matrix(1 0 0 1 4.75 49.50)">3</text>
	<text transform="matrix(1 0 0 1 18.50 39.13)">4</text>
	<text transform="matrix(1 0 0 1 17.50 54.50)">5</text>
	<text transform="matrix(1 0 0 1 37.50 36.13)">6</text>
	<text transform="matrix(1 0 0 1 18.00 66.63)">7</text>
	<text transform="matrix(1 0 0 1 2.75 91.63)">8</text>
	<text transform="matrix(1 0 0 1 53.50 14.50)">9</text>
	<text transform="matrix(1 0 0 1 76.50 11.50)">10</text>
	<text transform="matrix(1 0 0 1 46.75 32.50)">11</text>
	<text transform="matrix(1 0 0 1 51.50 49.50)">12</text>
	<text transform="matrix(1 0 0 1 49.50 68.50)">13</text>
	<text transform="matrix(1 0 0 1 74.50 46.63)">14</text>
</g>
</svg>
