<?xml version="1.0" encoding="UTF-8"?>
<!--
Copyright (C) 2016 François Mizessyn.
This work makes an extensive use of kanjiVG Copyright (C) 2009/2010/2011 Ulrich Apel.
This work is distributed under the conditions of the Creative Commons
Attribution-Share Alike 3.0 Licence. This means you are free:
* to Share - to copy, distribute and transmit the work
* to Remix - to adapt the work

Under the following conditions:
* Attribution. You must attribute the work by stating your use of HanjiVG in
  your own copyright header and linking to HanjiVG's website
  (http://gooo.free.fr/hanziVG/)
* Attribution. You must attribute the work by stating your use of KanjiVG in
  your own copyright header and linking to KanjiVG's website
  (http://kanjivg.tagaini.net)
* Share Alike. If you alter, transform, or build upon this work, you may
  distribute the resulting work only under the same or similar license to this
  one.

See http://creativecommons.org/licenses/by-sa/3.0/ for more details.
-->
<!DOCTYPE svg PUBLIC "-//W3C//DTD SVG 1.0//EN" "http://www.w3.org/TR/2001/REC-SVG-20010904/DTD/svg10.dtd" [
<!ATTLIST g
xmlns:kvg CDATA #FIXED "http://kanjivg.tagaini.net"
kvg:element CDATA #IMPLIED
kvg:variant CDATA #IMPLIED
kvg:partial CDATA #IMPLIED
kvg:original CDATA #IMPLIED
kvg:part CDATA #IMPLIED
kvg:number CDATA #IMPLIED
kvg:tradForm CDATA #IMPLIED
kvg:radicalForm CDATA #IMPLIED
kvg:position CDATA #IMPLIED
kvg:radical CDATA #IMPLIED
kvg:phon CDATA #IMPLIED >
<!ATTLIST path
xmlns:kvg CDATA #FIXED "http://kanjivg.tagaini.net"
kvg:type CDATA #IMPLIED >
]>
<svg xmlns="http://www.w3.org/2000/svg" width="109" height="109" viewBox="0 0 109 109">
<g id="kvg:StrokePaths_09e1f" style="fill:none;stroke:#000000;stroke-width:3;stroke-linecap:round;stroke-linejoin:round;">
<g id="kvg:09e1f" kvg:element="鸟" kvg:radical="general">
	<path id="kvg:09e1f-s1" kvg:type="㇒" d="M49.72,10.68c0.03,0.27,0.07,0.7-0.06,1.08c-0.76,2.28-5.15,7.3-11.15,10.37"/>
	<path id="kvg:09e1f-s2" kvg:type="㇆" d="M30.09 27.55c2.18 0.11 3.92 0.15 6.11 -0.01c5.43 -0.4 19.16 -1.5 27.8 -1.86c4.69 -0.3 6.76 0.13 6.15 2.46c-1.7 6.56 -3 13.24 -5.11 21.03c-1.71 1.65 -4.77 1.27 -5.07 -0.3"/>
	<path id="kvg:09e1f-s3" kvg:type="㇔" d="M42.42,35.75c2.51,1.37,1.97,1.11,9.5,6.67"/>
	<path id="kvg:09e1f-s4" kvg:type="㇉" d="M31.75 28.13c0.45 0.38 0.94 2.35 0.94 2.97c-0.05 6.23 -0.18 31.07 -0.53 32.42c14.33 -1.64 44.66 -4.03 52.6 -4.53c5.16 -0.33 7.4 0.81 6.84 4.49c-1.93 12.97 -6.09 22.5 -9.33 27.65c-5.62 8.92 -8.02 5.58 -13.24 0.4"/>
	<path id="kvg:09e1f-s5" kvg:type="㇐b" d="M20.55 77.78c13.81 -0.76 46.13 -3.02 52.06 -3.49c2.09 -0.16 5.6 -0.31 6.66 -0.1"/>
</g>
</g>
<g id="kvg:StrokeNumbers_09ce5" style="font-size:8;fill:#808080">
	<text transform="matrix(1 0 0 1 41.50 11.50)">1</text>
	<text transform="matrix(1 0 0 1 27.00 24.00)">2</text>
	<text transform="matrix(1 0 0 1 8.50 80.50)">3</text>
	<text transform="matrix(1 0 0 1 21.50 34.50)">4</text>
	<text transform="matrix(1 0 0 1 35.34 45.00)">5</text>
</g>
</svg>
