<?xml version="1.0" encoding="UTF-8"?>
<!--
Copyright (C) 2016 François Mizessyn.
This work makes an extensive use of kanjiVG Copyright (C) 2009/2010/2011 Ulrich Apel.
This work is distributed under the conditions of the Creative Commons
Attribution-Share Alike 3.0 Licence. This means you are free:
* to Share - to copy, distribute and transmit the work
* to Remix - to adapt the work

Under the following conditions:
* Attribution. You must attribute the work by stating your use of HanjiVG in
  your own copyright header and linking to HanjiVG's website
  (http://gooo.free.fr/hanziVG/)
* Attribution. You must attribute the work by stating your use of KanjiVG in
  your own copyright header and linking to KanjiVG's website
  (http://kanjivg.tagaini.net)
* Share Alike. If you alter, transform, or build upon this work, you may
  distribute the resulting work only under the same or similar license to this
  one.

See http://creativecommons.org/licenses/by-sa/3.0/ for more details.
-->
<!DOCTYPE svg PUBLIC "-//W3C//DTD SVG 1.0//EN" "http://www.w3.org/TR/2001/REC-SVG-20010904/DTD/svg10.dtd" [
<!ATTLIST g
xmlns:kvg CDATA #FIXED "http://kanjivg.tagaini.net"
kvg:element CDATA #IMPLIED
kvg:variant CDATA #IMPLIED
kvg:partial CDATA #IMPLIED
kvg:original CDATA #IMPLIED
kvg:part CDATA #IMPLIED
kvg:number CDATA #IMPLIED
kvg:tradForm CDATA #IMPLIED
kvg:radicalForm CDATA #IMPLIED
kvg:position CDATA #IMPLIED
kvg:radical CDATA #IMPLIED
kvg:phon CDATA #IMPLIED >
<!ATTLIST path
xmlns:kvg CDATA #FIXED "http://kanjivg.tagaini.net"
kvg:type CDATA #IMPLIED >
]>
<svg xmlns="http://www.w3.org/2000/svg" width="109" height="109" viewBox="0 0 109 109">
<g id="kvg:StrokePaths_09e21" style="fill:none;stroke:#000000;stroke-width:3;stroke-linecap:round;stroke-linejoin:round;">
<g id="kvg:09e21" kvg:element="鸡" kvg:radical="general">
	<g id="kvg:09e21-g1" kvg:element="又" kvg:radical="general">
		<path id="kvg:09e21-s1" kvg:type="㇇" d="M18.75 32.23c1 0.43 2.25 0.64 4.25 0s15.88 -5.77 17.25 -6.41s2.53 1.73 2 4.06c-6.06 26.72 -15.56 48.74 -29 61.34"/>
		<path id="kvg:09e21-s2" kvg:type="㇏" d="M17.08 42.24c2.07 0.67 10.77 16.42 18.45 26.08c1.67 2.11 3.4 4.25 5.36 5.49"/>
	</g>
	<g id="kvg:09e21-g2" kvg:element="鸟" kvg:radical="general">
		<path id="kvg:09e21-s3" kvg:type="㇒" d="M66.82 10.68c0.02 0.27 0.05 0.7 -0.04 1.08c-0.5 2.28 -3.4 7.3 -7.36 10.37"/>
		<path id="kvg:09e21-s4" kvg:type="㇆" d="M53.86 27.55c1.44 0.11 2.59 0.15 4.03 -0.01c3.58 -0.4 12.65 -1.5 18.35 -1.86c3.1 -0.3 4.46 0.13 4.06 2.46c-1.12 6.56 -1.98 13.24 -3.37 21.03c-1.13 1.65 -3.15 1.27 -3.35 -0.3"/>
		<path id="kvg:09e21-s5" kvg:type="㇔" d="M62 35.75c1.66 1.37 1.3 1.11 6.27 6.67"/>
		<path id="kvg:09e21-s6" kvg:type="㇉" d="M54.96 28.13c0.3 0.38 0.62 2.35 0.62 2.97c-0.03 6.23 -0.12 31.07 -0.35 32.42c9.46 -1.64 29.48 -4.03 34.72 -4.53c3.41 -0.33 4.88 0.81 4.51 4.49c-1.27 12.97 -4.02 22.5 -6.16 27.65c-3.71 8.92 -5.29 5.58 -8.74 0.4"/>
		<path id="kvg:09e21-s7" kvg:type="㇐b" d="M47.56 77.78c9.11 -0.76 30.45 -3.02 34.36 -3.49c1.38 -0.16 3.7 -0.31 4.4 -0.1"/>
	</g>
</g>
</g>
<g id="kvg:StrokeNumbers_09e21" style="font-size:8;fill:#808080">
	<text transform="matrix(1 0 0 1 55.50 11.50)">1</text>
	<text transform="matrix(1 0 0 1 47.00 24.00)">2</text>
	<text transform="matrix(1 0 0 1 65.50 38.50)">3</text>
	<text transform="matrix(1 0 0 1 45.00 37.00)">4</text>
	<text transform="matrix(1 0 0 1 37.50 87.50)">5</text>
	<text transform="matrix(1 0 0 1 8.50 34.50)">6</text>
	<text transform="matrix(1 0 0 1 7.34 50.00)">7</text>
</g>
</svg>
