<?xml version="1.0" encoding="UTF-8"?>
<!--
Copyright (C) 2016 François Mizessyn.
This work makes an extensive use of kanjiVG Copyright (C) 2009/2010/2011 Ulrich Apel.
This work is distributed under the conditions of the Creative Commons
Attribution-Share Alike 3.0 Licence. This means you are free:
* to Share - to copy, distribute and transmit the work
* to Remix - to adapt the work

Under the following conditions:
* Attribution. You must attribute the work by stating your use of HanjiVG in
  your own copyright header and linking to HanjiVG's website
  (http://gooo.free.fr/hanziVG/)
* Attribution. You must attribute the work by stating your use of KanjiVG in
  your own copyright header and linking to KanjiVG's website
  (http://kanjivg.tagaini.net)
* Share Alike. If you alter, transform, or build upon this work, you may
  distribute the resulting work only under the same or similar license to this
  one.

See http://creativecommons.org/licenses/by-sa/3.0/ for more details.
-->
<!DOCTYPE svg PUBLIC "-//W3C//DTD SVG 1.0//EN" "http://www.w3.org/TR/2001/REC-SVG-20010904/DTD/svg10.dtd" [
<!ATTLIST g
xmlns:kvg CDATA #FIXED "http://kanjivg.tagaini.net"
kvg:element CDATA #IMPLIED
kvg:variant CDATA #IMPLIED
kvg:partial CDATA #IMPLIED
kvg:original CDATA #IMPLIED
kvg:part CDATA #IMPLIED
kvg:number CDATA #IMPLIED
kvg:tradForm CDATA #IMPLIED
kvg:radicalForm CDATA #IMPLIED
kvg:position CDATA #IMPLIED
kvg:radical CDATA #IMPLIED
kvg:phon CDATA #IMPLIED >
<!ATTLIST path
xmlns:kvg CDATA #FIXED "http://kanjivg.tagaini.net"
kvg:type CDATA #IMPLIED >
]>
<svg xmlns="http://www.w3.org/2000/svg" width="109" height="109" viewBox="0 0 109 109">
<g id="kvg:StrokePaths_09e45" style="fill:none;stroke:#000000;stroke-width:3;stroke-linecap:round;stroke-linejoin:round;">
<g id="kvg:09e45" kvg:element="鹅">
	<g id="kvg:09e45-g1" kvg:element="我" kvg:position="left">
		<g id="kvg:09e45-g2" kvg:element="丿">
			<path id="kvg:09e45-s1" kvg:type="㇒" d="m29.88 16.14c0.05 0.36 0.2 0.99 -0.1 1.45c-2.38 3.66 -7.97 9.16 -18.07 13.9"/>
		</g>
		<g id="kvg:09e45-g3" kvg:element="戈" kvg:part="1">
			<g id="kvg:09e45-g4" kvg:element="弋" kvg:part="1">
				<path id="kvg:09e45-s2" kvg:type="㇐" d="m11.75 40.52c0.83 0.27 2.38 0.4 3.2 0.27c3.38 -0.53 27.59 -4.01 36.62 -4.38c1.39 -0.06 2.23 0.13 2.92 0.27"/>
			</g>
		</g>
		<g id="kvg:09e45-g5" kvg:element="亅">
			<path id="kvg:09e45-s3" kvg:type="㇚" d="m23.97 28.83c0.93 0.96 1.75 2.61 1.83 5.78c0.39 15.25 -0.23 50.45 -0.25 55.65c-0.04 9.72 -5.16 1.05 -6.62 -0.26"/>
		</g>
		<path id="kvg:09e45-s4" kvg:type="㇀" d="m11.23 67.11c1.71 1.24 3.65 1.06 5.36 -0.01c1.01 -0.63 13.28 -8.33 17.56 -11.35"/>
		<g id="kvg:09e45-g6" kvg:element="戈" kvg:part="2">
			<path id="kvg:09e45-s5" kvg:type="㇂" d="m36.14 10.25c0.61 1.74 0.89 2.21 0.99 5.98c0.87 31.02 4.81 63.84 12.12 73.27c2.52 3.25 2.06 0.75 1.76 -6.98"/>
			<g id="kvg:09e45-g7" kvg:element="丿">
				<path id="kvg:09e45-s6" kvg:type="㇒" d="m50.53 43.89c0.05 0.8 0.11 2.06 -0.1 3.2c-1.26 6.75 -8.22 22.33 -18.14 31.4"/>
			</g>
			<g id="kvg:09e45-g8" kvg:element="弋" kvg:part="2">
				<g id="kvg:09e45-g9" kvg:element="丶">
					<path id="kvg:09e45-s7" kvg:type="㇔" d="m45.18 18.5c2.21 1.9 5.74 6.24 6.76 9.5"/>
				</g>
			</g>
		</g>
	</g>
	<g id="kvg:09e45-g10" kvg:element="鸟" kvg:radical="general">
		<path id="kvg:09e45-s8" kvg:type="㇒" d="m71.45 10.68c0.01 0.27 0.04 0.7 -0.03 1.08c-0.38 2.28 -2.62 7.3 -5.67 10.37"/>
		<path id="kvg:09e45-s9" kvg:type="㇆" d="m61.76 27.55c1.33 0.11 2.4 0.15 3.72 -0.01c3.31 -0.4 11.69 -1.5 16.96 -1.86c2.87 -0.3 4.13 0.13 3.76 2.46c-1.03 6.56 -1.84 13.24 -3.12 21.03c-1.04 1.65 -2.92 1.27 -3.1 -0.3"/>
		<path id="kvg:09e45-s10" kvg:type="㇔" d="m67.74 35.75c1.28 1.37 1 1.11 4.83 6.67"/>
		<path id="kvg:09e45-s11" kvg:type="㇉" d="m62.32 28.13c0.23 0.38 0.48 2.35 0.48 2.97c-0.02 6.23 -0.09 31.07 -0.27 32.42c7.29 -1.64 22.7 -4.03 26.73 -4.53c2.63 -0.33 3.76 0.81 3.47 4.49c-0.98 12.97 -3.09 22.5 -4.75 27.65c-2.86 8.92 -4.07 5.58 -6.73 0.4"/>
		<path id="kvg:09e45-s12" kvg:type="㇐b" d="m56.62 77.78c7.01 -0.76 23.45 -3.02 26.46 -3.49c1.06 -0.16 2.85 -0.31 3.39 -0.1"/>
	</g>
</g>
</g>
<g id="kvg:StrokeNumbers_09e45" style="font-size:8;fill:#808080">
	<text transform="matrix(1 0 0 1 20.50 16.50)">1</text>
	<text transform="matrix(1 0 0 1 2.50 42.50)">2</text>
	<text transform="matrix(1 0 0 1 16.25 35.50)">3</text>
	<text transform="matrix(1 0 0 1 2.50 69.50)">4</text>
	<text transform="matrix(1 0 0 1 29.50 12.50)">5</text>
	<text transform="matrix(1 0 0 1 41.50 45.50)">6</text>
	<text transform="matrix(1 0 0 1 39.50 15.50)">7</text>
	<text transform="matrix(1 0 0 1 70.50 12.50)">8</text>
	<text transform="matrix(1 0 0 1 60.00 25.00)">9</text>
	<text transform="matrix(1 0 0 1 67.50 37.50)">10</text>
	<text transform="matrix(1 0 0 1 47.50 37.50)">11</text>
	<text transform="matrix(1 0 0 1 43.34 75.00)">12</text>
</g>
</svg>
